G04 #@! TF.FileFunction,Paste,Top*
%FSLAX46Y46*%
G04 Gerber Fmt 4.6, Leading zero omitted, Abs format (unit mm)*
G04 Created by KiCad (PCBNEW 4.0.6) date 11/21/17 13:18:45*
%MOMM*%
%LPD*%
G01*
G04 APERTURE LIST*
%ADD10C,0.100000*%
%ADD11R,0.750000X0.800000*%
%ADD12R,0.900000X0.500000*%
%ADD13R,1.550000X0.600000*%
%ADD14R,1.597660X1.399540*%
%ADD15R,0.650000X1.060000*%
%ADD16R,0.998220X1.798320*%
%ADD17R,0.800000X0.750000*%
%ADD18R,0.347980X1.399540*%
%ADD19R,1.798320X1.899920*%
%ADD20R,1.899920X1.899920*%
G04 APERTURE END LIST*
D10*
D11*
X239539551Y-81129689D03*
X239539551Y-79629689D03*
D12*
X239666551Y-77573689D03*
X239666551Y-76073689D03*
D13*
X242046551Y-78474689D03*
X242046551Y-79744689D03*
X242046551Y-81014689D03*
X242046551Y-82284689D03*
X247446551Y-82284689D03*
X247446551Y-81014689D03*
X247446551Y-79744689D03*
X247446551Y-78474689D03*
D10*
G36*
X252094873Y-98164341D02*
X252625203Y-97634011D01*
X253190889Y-98199697D01*
X252660559Y-98730027D01*
X252094873Y-98164341D01*
X252094873Y-98164341D01*
G37*
G36*
X251034213Y-97103681D02*
X251564543Y-96573351D01*
X252130229Y-97139037D01*
X251599899Y-97669367D01*
X251034213Y-97103681D01*
X251034213Y-97103681D01*
G37*
D14*
X252112551Y-107303689D03*
X252112551Y-110102769D03*
D10*
G36*
X249843139Y-97773781D02*
X250620829Y-98551471D01*
X249277383Y-99894917D01*
X248499693Y-99117227D01*
X249843139Y-97773781D01*
X249843139Y-97773781D01*
G37*
G36*
X247228089Y-100388831D02*
X248005779Y-101166521D01*
X246662333Y-102509967D01*
X245884643Y-101732277D01*
X247228089Y-100388831D01*
X247228089Y-100388831D01*
G37*
G36*
X248851719Y-102012461D02*
X249629409Y-102790151D01*
X248285963Y-104133597D01*
X247508273Y-103355907D01*
X248851719Y-102012461D01*
X248851719Y-102012461D01*
G37*
G36*
X251466769Y-99397411D02*
X252244459Y-100175101D01*
X250901013Y-101518547D01*
X250123323Y-100740857D01*
X251466769Y-99397411D01*
X251466769Y-99397411D01*
G37*
D15*
X247352551Y-109800689D03*
X248302551Y-109800689D03*
X249252551Y-109800689D03*
X249252551Y-107600689D03*
X247352551Y-107600689D03*
D16*
X246522011Y-113018689D03*
X249829091Y-113018689D03*
D14*
X244492551Y-107428149D03*
X244492551Y-110227229D03*
D10*
G36*
X245907229Y-103616037D02*
X245376899Y-104146367D01*
X244811213Y-103580681D01*
X245341543Y-103050351D01*
X245907229Y-103616037D01*
X245907229Y-103616037D01*
G37*
G36*
X246967889Y-104676697D02*
X246437559Y-105207027D01*
X245871873Y-104641341D01*
X246402203Y-104111011D01*
X246967889Y-104676697D01*
X246967889Y-104676697D01*
G37*
G36*
X235306359Y-95947937D02*
X234954333Y-95595911D01*
X236014003Y-94536241D01*
X236366029Y-94888267D01*
X235306359Y-95947937D01*
X235306359Y-95947937D01*
G37*
G36*
X235872116Y-96513693D02*
X235520090Y-96161667D01*
X236579760Y-95101997D01*
X236931786Y-95454023D01*
X235872116Y-96513693D01*
X235872116Y-96513693D01*
G37*
G36*
X236437872Y-97079450D02*
X236085846Y-96727424D01*
X237145516Y-95667754D01*
X237497542Y-96019780D01*
X236437872Y-97079450D01*
X236437872Y-97079450D01*
G37*
G36*
X237003628Y-97645206D02*
X236651602Y-97293180D01*
X237711272Y-96233510D01*
X238063298Y-96585536D01*
X237003628Y-97645206D01*
X237003628Y-97645206D01*
G37*
G36*
X237569384Y-98210962D02*
X237217358Y-97858936D01*
X238277028Y-96799266D01*
X238629054Y-97151292D01*
X237569384Y-98210962D01*
X237569384Y-98210962D01*
G37*
G36*
X238133344Y-98774922D02*
X237781318Y-98422896D01*
X238840988Y-97363226D01*
X239193014Y-97715252D01*
X238133344Y-98774922D01*
X238133344Y-98774922D01*
G37*
G36*
X238697304Y-99338882D02*
X238345278Y-98986856D01*
X239404948Y-97927186D01*
X239756974Y-98279212D01*
X238697304Y-99338882D01*
X238697304Y-99338882D01*
G37*
G36*
X239263060Y-99904638D02*
X238911034Y-99552612D01*
X239970704Y-98492942D01*
X240322730Y-98844968D01*
X239263060Y-99904638D01*
X239263060Y-99904638D01*
G37*
G36*
X239828816Y-100470394D02*
X239476790Y-100118368D01*
X240536460Y-99058698D01*
X240888486Y-99410724D01*
X239828816Y-100470394D01*
X239828816Y-100470394D01*
G37*
G36*
X240394573Y-101036150D02*
X240042547Y-100684124D01*
X241102217Y-99624454D01*
X241454243Y-99976480D01*
X240394573Y-101036150D01*
X240394573Y-101036150D01*
G37*
G36*
X240960329Y-101601907D02*
X240608303Y-101249881D01*
X241667973Y-100190211D01*
X242019999Y-100542237D01*
X240960329Y-101601907D01*
X240960329Y-101601907D01*
G37*
G36*
X244214773Y-101601907D02*
X243155103Y-100542237D01*
X243507129Y-100190211D01*
X244566799Y-101249881D01*
X244214773Y-101601907D01*
X244214773Y-101601907D01*
G37*
G36*
X244780529Y-101036150D02*
X243720859Y-99976480D01*
X244072885Y-99624454D01*
X245132555Y-100684124D01*
X244780529Y-101036150D01*
X244780529Y-101036150D01*
G37*
G36*
X245346286Y-100470394D02*
X244286616Y-99410724D01*
X244638642Y-99058698D01*
X245698312Y-100118368D01*
X245346286Y-100470394D01*
X245346286Y-100470394D01*
G37*
G36*
X245912042Y-99904638D02*
X244852372Y-98844968D01*
X245204398Y-98492942D01*
X246264068Y-99552612D01*
X245912042Y-99904638D01*
X245912042Y-99904638D01*
G37*
G36*
X246477798Y-99338882D02*
X245418128Y-98279212D01*
X245770154Y-97927186D01*
X246829824Y-98986856D01*
X246477798Y-99338882D01*
X246477798Y-99338882D01*
G37*
G36*
X247041758Y-98774922D02*
X245982088Y-97715252D01*
X246334114Y-97363226D01*
X247393784Y-98422896D01*
X247041758Y-98774922D01*
X247041758Y-98774922D01*
G37*
G36*
X247605718Y-98210962D02*
X246546048Y-97151292D01*
X246898074Y-96799266D01*
X247957744Y-97858936D01*
X247605718Y-98210962D01*
X247605718Y-98210962D01*
G37*
G36*
X248171474Y-97645206D02*
X247111804Y-96585536D01*
X247463830Y-96233510D01*
X248523500Y-97293180D01*
X248171474Y-97645206D01*
X248171474Y-97645206D01*
G37*
G36*
X248737230Y-97079450D02*
X247677560Y-96019780D01*
X248029586Y-95667754D01*
X249089256Y-96727424D01*
X248737230Y-97079450D01*
X248737230Y-97079450D01*
G37*
G36*
X249302986Y-96513693D02*
X248243316Y-95454023D01*
X248595342Y-95101997D01*
X249655012Y-96161667D01*
X249302986Y-96513693D01*
X249302986Y-96513693D01*
G37*
G36*
X249868743Y-95947937D02*
X248809073Y-94888267D01*
X249161099Y-94536241D01*
X250220769Y-95595911D01*
X249868743Y-95947937D01*
X249868743Y-95947937D01*
G37*
G36*
X249161099Y-93401137D02*
X248809073Y-93049111D01*
X249868743Y-91989441D01*
X250220769Y-92341467D01*
X249161099Y-93401137D01*
X249161099Y-93401137D01*
G37*
G36*
X248595342Y-92835381D02*
X248243316Y-92483355D01*
X249302986Y-91423685D01*
X249655012Y-91775711D01*
X248595342Y-92835381D01*
X248595342Y-92835381D01*
G37*
G36*
X248029586Y-92269624D02*
X247677560Y-91917598D01*
X248737230Y-90857928D01*
X249089256Y-91209954D01*
X248029586Y-92269624D01*
X248029586Y-92269624D01*
G37*
G36*
X247463830Y-91703868D02*
X247111804Y-91351842D01*
X248171474Y-90292172D01*
X248523500Y-90644198D01*
X247463830Y-91703868D01*
X247463830Y-91703868D01*
G37*
G36*
X246898074Y-91138112D02*
X246546048Y-90786086D01*
X247605718Y-89726416D01*
X247957744Y-90078442D01*
X246898074Y-91138112D01*
X246898074Y-91138112D01*
G37*
G36*
X246334114Y-90574152D02*
X245982088Y-90222126D01*
X247041758Y-89162456D01*
X247393784Y-89514482D01*
X246334114Y-90574152D01*
X246334114Y-90574152D01*
G37*
G36*
X245770154Y-90010192D02*
X245418128Y-89658166D01*
X246477798Y-88598496D01*
X246829824Y-88950522D01*
X245770154Y-90010192D01*
X245770154Y-90010192D01*
G37*
G36*
X245204398Y-89444436D02*
X244852372Y-89092410D01*
X245912042Y-88032740D01*
X246264068Y-88384766D01*
X245204398Y-89444436D01*
X245204398Y-89444436D01*
G37*
G36*
X244638642Y-88878680D02*
X244286616Y-88526654D01*
X245346286Y-87466984D01*
X245698312Y-87819010D01*
X244638642Y-88878680D01*
X244638642Y-88878680D01*
G37*
G36*
X244072885Y-88312924D02*
X243720859Y-87960898D01*
X244780529Y-86901228D01*
X245132555Y-87253254D01*
X244072885Y-88312924D01*
X244072885Y-88312924D01*
G37*
G36*
X243507129Y-87747167D02*
X243155103Y-87395141D01*
X244214773Y-86335471D01*
X244566799Y-86687497D01*
X243507129Y-87747167D01*
X243507129Y-87747167D01*
G37*
G36*
X241667973Y-87747167D02*
X240608303Y-86687497D01*
X240960329Y-86335471D01*
X242019999Y-87395141D01*
X241667973Y-87747167D01*
X241667973Y-87747167D01*
G37*
G36*
X241102217Y-88312924D02*
X240042547Y-87253254D01*
X240394573Y-86901228D01*
X241454243Y-87960898D01*
X241102217Y-88312924D01*
X241102217Y-88312924D01*
G37*
G36*
X240536460Y-88878680D02*
X239476790Y-87819010D01*
X239828816Y-87466984D01*
X240888486Y-88526654D01*
X240536460Y-88878680D01*
X240536460Y-88878680D01*
G37*
G36*
X239970704Y-89444436D02*
X238911034Y-88384766D01*
X239263060Y-88032740D01*
X240322730Y-89092410D01*
X239970704Y-89444436D01*
X239970704Y-89444436D01*
G37*
G36*
X239404948Y-90010192D02*
X238345278Y-88950522D01*
X238697304Y-88598496D01*
X239756974Y-89658166D01*
X239404948Y-90010192D01*
X239404948Y-90010192D01*
G37*
G36*
X238840988Y-90574152D02*
X237781318Y-89514482D01*
X238133344Y-89162456D01*
X239193014Y-90222126D01*
X238840988Y-90574152D01*
X238840988Y-90574152D01*
G37*
G36*
X238277028Y-91138112D02*
X237217358Y-90078442D01*
X237569384Y-89726416D01*
X238629054Y-90786086D01*
X238277028Y-91138112D01*
X238277028Y-91138112D01*
G37*
G36*
X237711272Y-91703868D02*
X236651602Y-90644198D01*
X237003628Y-90292172D01*
X238063298Y-91351842D01*
X237711272Y-91703868D01*
X237711272Y-91703868D01*
G37*
G36*
X237145516Y-92269624D02*
X236085846Y-91209954D01*
X236437872Y-90857928D01*
X237497542Y-91917598D01*
X237145516Y-92269624D01*
X237145516Y-92269624D01*
G37*
G36*
X236579760Y-92835381D02*
X235520090Y-91775711D01*
X235872116Y-91423685D01*
X236931786Y-92483355D01*
X236579760Y-92835381D01*
X236579760Y-92835381D01*
G37*
G36*
X236014003Y-93401137D02*
X234954333Y-92341467D01*
X235306359Y-91989441D01*
X236366029Y-93049111D01*
X236014003Y-93401137D01*
X236014003Y-93401137D01*
G37*
G36*
X234073899Y-90014011D02*
X234604229Y-90544341D01*
X234038543Y-91110027D01*
X233508213Y-90579697D01*
X234073899Y-90014011D01*
X234073899Y-90014011D01*
G37*
G36*
X235134559Y-88953351D02*
X235664889Y-89483681D01*
X235099203Y-90049367D01*
X234568873Y-89519037D01*
X235134559Y-88953351D01*
X235134559Y-88953351D01*
G37*
G36*
X233702203Y-97805671D02*
X234232533Y-97275341D01*
X234798219Y-97841027D01*
X234267889Y-98371357D01*
X233702203Y-97805671D01*
X233702203Y-97805671D01*
G37*
G36*
X232641543Y-96745011D02*
X233171873Y-96214681D01*
X233737559Y-96780367D01*
X233207229Y-97310697D01*
X232641543Y-96745011D01*
X232641543Y-96745011D01*
G37*
G36*
X236277559Y-99320367D02*
X235747229Y-99850697D01*
X235181543Y-99285011D01*
X235711873Y-98754681D01*
X236277559Y-99320367D01*
X236277559Y-99320367D01*
G37*
G36*
X237338219Y-100381027D02*
X236807889Y-100911357D01*
X236242203Y-100345671D01*
X236772533Y-99815341D01*
X237338219Y-100381027D01*
X237338219Y-100381027D01*
G37*
D12*
X237380551Y-81129689D03*
X237380551Y-79629689D03*
D11*
X239539551Y-84546689D03*
X239539551Y-83046689D03*
D17*
X239817551Y-108192689D03*
X241317551Y-108192689D03*
D10*
G36*
X239276246Y-103485780D02*
X239912642Y-102849384D01*
X240266196Y-103202938D01*
X239629800Y-103839334D01*
X239276246Y-103485780D01*
X239276246Y-103485780D01*
G37*
G36*
X240336906Y-104546440D02*
X240973302Y-103910044D01*
X241326856Y-104263598D01*
X240690460Y-104899994D01*
X240336906Y-104546440D01*
X240336906Y-104546440D01*
G37*
D12*
X234332551Y-105894689D03*
X234332551Y-104394689D03*
D18*
X236618551Y-110369469D03*
X235970851Y-110369469D03*
X237916491Y-110369469D03*
X237266251Y-110369469D03*
D19*
X232620591Y-113018689D03*
X240616511Y-113018689D03*
D20*
X235348551Y-113018689D03*
X237888551Y-113018689D03*
D18*
X235320611Y-110369469D03*
D12*
X236364551Y-105894689D03*
X236364551Y-104394689D03*
D11*
X214139551Y-84546689D03*
X214139551Y-83046689D03*
D12*
X211980551Y-81129689D03*
X211980551Y-79629689D03*
X214266551Y-77573689D03*
X214266551Y-76073689D03*
D11*
X214139551Y-81129689D03*
X214139551Y-79629689D03*
D14*
X226712551Y-107303689D03*
X226712551Y-110102769D03*
D16*
X221122011Y-113018689D03*
X224429091Y-113018689D03*
D15*
X221952551Y-109800689D03*
X222902551Y-109800689D03*
X223852551Y-109800689D03*
X223852551Y-107600689D03*
X221952551Y-107600689D03*
D14*
X219092551Y-107428149D03*
X219092551Y-110227229D03*
D12*
X208932551Y-105894689D03*
X208932551Y-104394689D03*
X210964551Y-105894689D03*
X210964551Y-104394689D03*
D17*
X214417551Y-108192689D03*
X215917551Y-108192689D03*
D10*
G36*
X208302203Y-97805671D02*
X208832533Y-97275341D01*
X209398219Y-97841027D01*
X208867889Y-98371357D01*
X208302203Y-97805671D01*
X208302203Y-97805671D01*
G37*
G36*
X207241543Y-96745011D02*
X207771873Y-96214681D01*
X208337559Y-96780367D01*
X207807229Y-97310697D01*
X207241543Y-96745011D01*
X207241543Y-96745011D01*
G37*
D18*
X211218551Y-110369469D03*
X210570851Y-110369469D03*
X212516491Y-110369469D03*
X211866251Y-110369469D03*
D19*
X207220591Y-113018689D03*
X215216511Y-113018689D03*
D20*
X209948551Y-113018689D03*
X212488551Y-113018689D03*
D18*
X209920611Y-110369469D03*
D10*
G36*
X226694873Y-98164341D02*
X227225203Y-97634011D01*
X227790889Y-98199697D01*
X227260559Y-98730027D01*
X226694873Y-98164341D01*
X226694873Y-98164341D01*
G37*
G36*
X225634213Y-97103681D02*
X226164543Y-96573351D01*
X226730229Y-97139037D01*
X226199899Y-97669367D01*
X225634213Y-97103681D01*
X225634213Y-97103681D01*
G37*
G36*
X210877559Y-99320367D02*
X210347229Y-99850697D01*
X209781543Y-99285011D01*
X210311873Y-98754681D01*
X210877559Y-99320367D01*
X210877559Y-99320367D01*
G37*
G36*
X211938219Y-100381027D02*
X211407889Y-100911357D01*
X210842203Y-100345671D01*
X211372533Y-99815341D01*
X211938219Y-100381027D01*
X211938219Y-100381027D01*
G37*
G36*
X220507229Y-103616037D02*
X219976899Y-104146367D01*
X219411213Y-103580681D01*
X219941543Y-103050351D01*
X220507229Y-103616037D01*
X220507229Y-103616037D01*
G37*
G36*
X221567889Y-104676697D02*
X221037559Y-105207027D01*
X220471873Y-104641341D01*
X221002203Y-104111011D01*
X221567889Y-104676697D01*
X221567889Y-104676697D01*
G37*
G36*
X208673899Y-90014011D02*
X209204229Y-90544341D01*
X208638543Y-91110027D01*
X208108213Y-90579697D01*
X208673899Y-90014011D01*
X208673899Y-90014011D01*
G37*
G36*
X209734559Y-88953351D02*
X210264889Y-89483681D01*
X209699203Y-90049367D01*
X209168873Y-89519037D01*
X209734559Y-88953351D01*
X209734559Y-88953351D01*
G37*
G36*
X209906359Y-95947937D02*
X209554333Y-95595911D01*
X210614003Y-94536241D01*
X210966029Y-94888267D01*
X209906359Y-95947937D01*
X209906359Y-95947937D01*
G37*
G36*
X210472116Y-96513693D02*
X210120090Y-96161667D01*
X211179760Y-95101997D01*
X211531786Y-95454023D01*
X210472116Y-96513693D01*
X210472116Y-96513693D01*
G37*
G36*
X211037872Y-97079450D02*
X210685846Y-96727424D01*
X211745516Y-95667754D01*
X212097542Y-96019780D01*
X211037872Y-97079450D01*
X211037872Y-97079450D01*
G37*
G36*
X211603628Y-97645206D02*
X211251602Y-97293180D01*
X212311272Y-96233510D01*
X212663298Y-96585536D01*
X211603628Y-97645206D01*
X211603628Y-97645206D01*
G37*
G36*
X212169384Y-98210962D02*
X211817358Y-97858936D01*
X212877028Y-96799266D01*
X213229054Y-97151292D01*
X212169384Y-98210962D01*
X212169384Y-98210962D01*
G37*
G36*
X212733344Y-98774922D02*
X212381318Y-98422896D01*
X213440988Y-97363226D01*
X213793014Y-97715252D01*
X212733344Y-98774922D01*
X212733344Y-98774922D01*
G37*
G36*
X213297304Y-99338882D02*
X212945278Y-98986856D01*
X214004948Y-97927186D01*
X214356974Y-98279212D01*
X213297304Y-99338882D01*
X213297304Y-99338882D01*
G37*
G36*
X213863060Y-99904638D02*
X213511034Y-99552612D01*
X214570704Y-98492942D01*
X214922730Y-98844968D01*
X213863060Y-99904638D01*
X213863060Y-99904638D01*
G37*
G36*
X214428816Y-100470394D02*
X214076790Y-100118368D01*
X215136460Y-99058698D01*
X215488486Y-99410724D01*
X214428816Y-100470394D01*
X214428816Y-100470394D01*
G37*
G36*
X214994573Y-101036150D02*
X214642547Y-100684124D01*
X215702217Y-99624454D01*
X216054243Y-99976480D01*
X214994573Y-101036150D01*
X214994573Y-101036150D01*
G37*
G36*
X215560329Y-101601907D02*
X215208303Y-101249881D01*
X216267973Y-100190211D01*
X216619999Y-100542237D01*
X215560329Y-101601907D01*
X215560329Y-101601907D01*
G37*
G36*
X218814773Y-101601907D02*
X217755103Y-100542237D01*
X218107129Y-100190211D01*
X219166799Y-101249881D01*
X218814773Y-101601907D01*
X218814773Y-101601907D01*
G37*
G36*
X219380529Y-101036150D02*
X218320859Y-99976480D01*
X218672885Y-99624454D01*
X219732555Y-100684124D01*
X219380529Y-101036150D01*
X219380529Y-101036150D01*
G37*
G36*
X219946286Y-100470394D02*
X218886616Y-99410724D01*
X219238642Y-99058698D01*
X220298312Y-100118368D01*
X219946286Y-100470394D01*
X219946286Y-100470394D01*
G37*
G36*
X220512042Y-99904638D02*
X219452372Y-98844968D01*
X219804398Y-98492942D01*
X220864068Y-99552612D01*
X220512042Y-99904638D01*
X220512042Y-99904638D01*
G37*
G36*
X221077798Y-99338882D02*
X220018128Y-98279212D01*
X220370154Y-97927186D01*
X221429824Y-98986856D01*
X221077798Y-99338882D01*
X221077798Y-99338882D01*
G37*
G36*
X221641758Y-98774922D02*
X220582088Y-97715252D01*
X220934114Y-97363226D01*
X221993784Y-98422896D01*
X221641758Y-98774922D01*
X221641758Y-98774922D01*
G37*
G36*
X222205718Y-98210962D02*
X221146048Y-97151292D01*
X221498074Y-96799266D01*
X222557744Y-97858936D01*
X222205718Y-98210962D01*
X222205718Y-98210962D01*
G37*
G36*
X222771474Y-97645206D02*
X221711804Y-96585536D01*
X222063830Y-96233510D01*
X223123500Y-97293180D01*
X222771474Y-97645206D01*
X222771474Y-97645206D01*
G37*
G36*
X223337230Y-97079450D02*
X222277560Y-96019780D01*
X222629586Y-95667754D01*
X223689256Y-96727424D01*
X223337230Y-97079450D01*
X223337230Y-97079450D01*
G37*
G36*
X223902986Y-96513693D02*
X222843316Y-95454023D01*
X223195342Y-95101997D01*
X224255012Y-96161667D01*
X223902986Y-96513693D01*
X223902986Y-96513693D01*
G37*
G36*
X224468743Y-95947937D02*
X223409073Y-94888267D01*
X223761099Y-94536241D01*
X224820769Y-95595911D01*
X224468743Y-95947937D01*
X224468743Y-95947937D01*
G37*
G36*
X223761099Y-93401137D02*
X223409073Y-93049111D01*
X224468743Y-91989441D01*
X224820769Y-92341467D01*
X223761099Y-93401137D01*
X223761099Y-93401137D01*
G37*
G36*
X223195342Y-92835381D02*
X222843316Y-92483355D01*
X223902986Y-91423685D01*
X224255012Y-91775711D01*
X223195342Y-92835381D01*
X223195342Y-92835381D01*
G37*
G36*
X222629586Y-92269624D02*
X222277560Y-91917598D01*
X223337230Y-90857928D01*
X223689256Y-91209954D01*
X222629586Y-92269624D01*
X222629586Y-92269624D01*
G37*
G36*
X222063830Y-91703868D02*
X221711804Y-91351842D01*
X222771474Y-90292172D01*
X223123500Y-90644198D01*
X222063830Y-91703868D01*
X222063830Y-91703868D01*
G37*
G36*
X221498074Y-91138112D02*
X221146048Y-90786086D01*
X222205718Y-89726416D01*
X222557744Y-90078442D01*
X221498074Y-91138112D01*
X221498074Y-91138112D01*
G37*
G36*
X220934114Y-90574152D02*
X220582088Y-90222126D01*
X221641758Y-89162456D01*
X221993784Y-89514482D01*
X220934114Y-90574152D01*
X220934114Y-90574152D01*
G37*
G36*
X220370154Y-90010192D02*
X220018128Y-89658166D01*
X221077798Y-88598496D01*
X221429824Y-88950522D01*
X220370154Y-90010192D01*
X220370154Y-90010192D01*
G37*
G36*
X219804398Y-89444436D02*
X219452372Y-89092410D01*
X220512042Y-88032740D01*
X220864068Y-88384766D01*
X219804398Y-89444436D01*
X219804398Y-89444436D01*
G37*
G36*
X219238642Y-88878680D02*
X218886616Y-88526654D01*
X219946286Y-87466984D01*
X220298312Y-87819010D01*
X219238642Y-88878680D01*
X219238642Y-88878680D01*
G37*
G36*
X218672885Y-88312924D02*
X218320859Y-87960898D01*
X219380529Y-86901228D01*
X219732555Y-87253254D01*
X218672885Y-88312924D01*
X218672885Y-88312924D01*
G37*
G36*
X218107129Y-87747167D02*
X217755103Y-87395141D01*
X218814773Y-86335471D01*
X219166799Y-86687497D01*
X218107129Y-87747167D01*
X218107129Y-87747167D01*
G37*
G36*
X216267973Y-87747167D02*
X215208303Y-86687497D01*
X215560329Y-86335471D01*
X216619999Y-87395141D01*
X216267973Y-87747167D01*
X216267973Y-87747167D01*
G37*
G36*
X215702217Y-88312924D02*
X214642547Y-87253254D01*
X214994573Y-86901228D01*
X216054243Y-87960898D01*
X215702217Y-88312924D01*
X215702217Y-88312924D01*
G37*
G36*
X215136460Y-88878680D02*
X214076790Y-87819010D01*
X214428816Y-87466984D01*
X215488486Y-88526654D01*
X215136460Y-88878680D01*
X215136460Y-88878680D01*
G37*
G36*
X214570704Y-89444436D02*
X213511034Y-88384766D01*
X213863060Y-88032740D01*
X214922730Y-89092410D01*
X214570704Y-89444436D01*
X214570704Y-89444436D01*
G37*
G36*
X214004948Y-90010192D02*
X212945278Y-88950522D01*
X213297304Y-88598496D01*
X214356974Y-89658166D01*
X214004948Y-90010192D01*
X214004948Y-90010192D01*
G37*
G36*
X213440988Y-90574152D02*
X212381318Y-89514482D01*
X212733344Y-89162456D01*
X213793014Y-90222126D01*
X213440988Y-90574152D01*
X213440988Y-90574152D01*
G37*
G36*
X212877028Y-91138112D02*
X211817358Y-90078442D01*
X212169384Y-89726416D01*
X213229054Y-90786086D01*
X212877028Y-91138112D01*
X212877028Y-91138112D01*
G37*
G36*
X212311272Y-91703868D02*
X211251602Y-90644198D01*
X211603628Y-90292172D01*
X212663298Y-91351842D01*
X212311272Y-91703868D01*
X212311272Y-91703868D01*
G37*
G36*
X211745516Y-92269624D02*
X210685846Y-91209954D01*
X211037872Y-90857928D01*
X212097542Y-91917598D01*
X211745516Y-92269624D01*
X211745516Y-92269624D01*
G37*
G36*
X211179760Y-92835381D02*
X210120090Y-91775711D01*
X210472116Y-91423685D01*
X211531786Y-92483355D01*
X211179760Y-92835381D01*
X211179760Y-92835381D01*
G37*
G36*
X210614003Y-93401137D02*
X209554333Y-92341467D01*
X209906359Y-91989441D01*
X210966029Y-93049111D01*
X210614003Y-93401137D01*
X210614003Y-93401137D01*
G37*
G36*
X213876246Y-103485780D02*
X214512642Y-102849384D01*
X214866196Y-103202938D01*
X214229800Y-103839334D01*
X213876246Y-103485780D01*
X213876246Y-103485780D01*
G37*
G36*
X214936906Y-104546440D02*
X215573302Y-103910044D01*
X215926856Y-104263598D01*
X215290460Y-104899994D01*
X214936906Y-104546440D01*
X214936906Y-104546440D01*
G37*
G36*
X224443139Y-97773781D02*
X225220829Y-98551471D01*
X223877383Y-99894917D01*
X223099693Y-99117227D01*
X224443139Y-97773781D01*
X224443139Y-97773781D01*
G37*
G36*
X221828089Y-100388831D02*
X222605779Y-101166521D01*
X221262333Y-102509967D01*
X220484643Y-101732277D01*
X221828089Y-100388831D01*
X221828089Y-100388831D01*
G37*
G36*
X223451719Y-102012461D02*
X224229409Y-102790151D01*
X222885963Y-104133597D01*
X222108273Y-103355907D01*
X223451719Y-102012461D01*
X223451719Y-102012461D01*
G37*
G36*
X226066769Y-99397411D02*
X226844459Y-100175101D01*
X225501013Y-101518547D01*
X224723323Y-100740857D01*
X226066769Y-99397411D01*
X226066769Y-99397411D01*
G37*
D13*
X216646551Y-78474689D03*
X216646551Y-79744689D03*
X216646551Y-81014689D03*
X216646551Y-82284689D03*
X222046551Y-82284689D03*
X222046551Y-81014689D03*
X222046551Y-79744689D03*
X222046551Y-78474689D03*
D12*
X186580551Y-81129689D03*
X186580551Y-79629689D03*
D11*
X188739551Y-84546689D03*
X188739551Y-83046689D03*
D10*
G36*
X201294873Y-98164341D02*
X201825203Y-97634011D01*
X202390889Y-98199697D01*
X201860559Y-98730027D01*
X201294873Y-98164341D01*
X201294873Y-98164341D01*
G37*
G36*
X200234213Y-97103681D02*
X200764543Y-96573351D01*
X201330229Y-97139037D01*
X200799899Y-97669367D01*
X200234213Y-97103681D01*
X200234213Y-97103681D01*
G37*
D14*
X201312551Y-107303689D03*
X201312551Y-110102769D03*
D10*
G36*
X182902203Y-97805671D02*
X183432533Y-97275341D01*
X183998219Y-97841027D01*
X183467889Y-98371357D01*
X182902203Y-97805671D01*
X182902203Y-97805671D01*
G37*
G36*
X181841543Y-96745011D02*
X182371873Y-96214681D01*
X182937559Y-96780367D01*
X182407229Y-97310697D01*
X181841543Y-96745011D01*
X181841543Y-96745011D01*
G37*
D17*
X189017551Y-108192689D03*
X190517551Y-108192689D03*
D18*
X185818551Y-110369469D03*
X185170851Y-110369469D03*
X187116491Y-110369469D03*
X186466251Y-110369469D03*
D19*
X181820591Y-113018689D03*
X189816511Y-113018689D03*
D20*
X184548551Y-113018689D03*
X187088551Y-113018689D03*
D18*
X184520611Y-110369469D03*
D12*
X183532551Y-105894689D03*
X183532551Y-104394689D03*
D10*
G36*
X185477559Y-99320367D02*
X184947229Y-99850697D01*
X184381543Y-99285011D01*
X184911873Y-98754681D01*
X185477559Y-99320367D01*
X185477559Y-99320367D01*
G37*
G36*
X186538219Y-100381027D02*
X186007889Y-100911357D01*
X185442203Y-100345671D01*
X185972533Y-99815341D01*
X186538219Y-100381027D01*
X186538219Y-100381027D01*
G37*
G36*
X195107229Y-103616037D02*
X194576899Y-104146367D01*
X194011213Y-103580681D01*
X194541543Y-103050351D01*
X195107229Y-103616037D01*
X195107229Y-103616037D01*
G37*
G36*
X196167889Y-104676697D02*
X195637559Y-105207027D01*
X195071873Y-104641341D01*
X195602203Y-104111011D01*
X196167889Y-104676697D01*
X196167889Y-104676697D01*
G37*
G36*
X183273899Y-90014011D02*
X183804229Y-90544341D01*
X183238543Y-91110027D01*
X182708213Y-90579697D01*
X183273899Y-90014011D01*
X183273899Y-90014011D01*
G37*
G36*
X184334559Y-88953351D02*
X184864889Y-89483681D01*
X184299203Y-90049367D01*
X183768873Y-89519037D01*
X184334559Y-88953351D01*
X184334559Y-88953351D01*
G37*
D12*
X185564551Y-105894689D03*
X185564551Y-104394689D03*
D10*
G36*
X184506359Y-95947937D02*
X184154333Y-95595911D01*
X185214003Y-94536241D01*
X185566029Y-94888267D01*
X184506359Y-95947937D01*
X184506359Y-95947937D01*
G37*
G36*
X185072116Y-96513693D02*
X184720090Y-96161667D01*
X185779760Y-95101997D01*
X186131786Y-95454023D01*
X185072116Y-96513693D01*
X185072116Y-96513693D01*
G37*
G36*
X185637872Y-97079450D02*
X185285846Y-96727424D01*
X186345516Y-95667754D01*
X186697542Y-96019780D01*
X185637872Y-97079450D01*
X185637872Y-97079450D01*
G37*
G36*
X186203628Y-97645206D02*
X185851602Y-97293180D01*
X186911272Y-96233510D01*
X187263298Y-96585536D01*
X186203628Y-97645206D01*
X186203628Y-97645206D01*
G37*
G36*
X186769384Y-98210962D02*
X186417358Y-97858936D01*
X187477028Y-96799266D01*
X187829054Y-97151292D01*
X186769384Y-98210962D01*
X186769384Y-98210962D01*
G37*
G36*
X187333344Y-98774922D02*
X186981318Y-98422896D01*
X188040988Y-97363226D01*
X188393014Y-97715252D01*
X187333344Y-98774922D01*
X187333344Y-98774922D01*
G37*
G36*
X187897304Y-99338882D02*
X187545278Y-98986856D01*
X188604948Y-97927186D01*
X188956974Y-98279212D01*
X187897304Y-99338882D01*
X187897304Y-99338882D01*
G37*
G36*
X188463060Y-99904638D02*
X188111034Y-99552612D01*
X189170704Y-98492942D01*
X189522730Y-98844968D01*
X188463060Y-99904638D01*
X188463060Y-99904638D01*
G37*
G36*
X189028816Y-100470394D02*
X188676790Y-100118368D01*
X189736460Y-99058698D01*
X190088486Y-99410724D01*
X189028816Y-100470394D01*
X189028816Y-100470394D01*
G37*
G36*
X189594573Y-101036150D02*
X189242547Y-100684124D01*
X190302217Y-99624454D01*
X190654243Y-99976480D01*
X189594573Y-101036150D01*
X189594573Y-101036150D01*
G37*
G36*
X190160329Y-101601907D02*
X189808303Y-101249881D01*
X190867973Y-100190211D01*
X191219999Y-100542237D01*
X190160329Y-101601907D01*
X190160329Y-101601907D01*
G37*
G36*
X193414773Y-101601907D02*
X192355103Y-100542237D01*
X192707129Y-100190211D01*
X193766799Y-101249881D01*
X193414773Y-101601907D01*
X193414773Y-101601907D01*
G37*
G36*
X193980529Y-101036150D02*
X192920859Y-99976480D01*
X193272885Y-99624454D01*
X194332555Y-100684124D01*
X193980529Y-101036150D01*
X193980529Y-101036150D01*
G37*
G36*
X194546286Y-100470394D02*
X193486616Y-99410724D01*
X193838642Y-99058698D01*
X194898312Y-100118368D01*
X194546286Y-100470394D01*
X194546286Y-100470394D01*
G37*
G36*
X195112042Y-99904638D02*
X194052372Y-98844968D01*
X194404398Y-98492942D01*
X195464068Y-99552612D01*
X195112042Y-99904638D01*
X195112042Y-99904638D01*
G37*
G36*
X195677798Y-99338882D02*
X194618128Y-98279212D01*
X194970154Y-97927186D01*
X196029824Y-98986856D01*
X195677798Y-99338882D01*
X195677798Y-99338882D01*
G37*
G36*
X196241758Y-98774922D02*
X195182088Y-97715252D01*
X195534114Y-97363226D01*
X196593784Y-98422896D01*
X196241758Y-98774922D01*
X196241758Y-98774922D01*
G37*
G36*
X196805718Y-98210962D02*
X195746048Y-97151292D01*
X196098074Y-96799266D01*
X197157744Y-97858936D01*
X196805718Y-98210962D01*
X196805718Y-98210962D01*
G37*
G36*
X197371474Y-97645206D02*
X196311804Y-96585536D01*
X196663830Y-96233510D01*
X197723500Y-97293180D01*
X197371474Y-97645206D01*
X197371474Y-97645206D01*
G37*
G36*
X197937230Y-97079450D02*
X196877560Y-96019780D01*
X197229586Y-95667754D01*
X198289256Y-96727424D01*
X197937230Y-97079450D01*
X197937230Y-97079450D01*
G37*
G36*
X198502986Y-96513693D02*
X197443316Y-95454023D01*
X197795342Y-95101997D01*
X198855012Y-96161667D01*
X198502986Y-96513693D01*
X198502986Y-96513693D01*
G37*
G36*
X199068743Y-95947937D02*
X198009073Y-94888267D01*
X198361099Y-94536241D01*
X199420769Y-95595911D01*
X199068743Y-95947937D01*
X199068743Y-95947937D01*
G37*
G36*
X198361099Y-93401137D02*
X198009073Y-93049111D01*
X199068743Y-91989441D01*
X199420769Y-92341467D01*
X198361099Y-93401137D01*
X198361099Y-93401137D01*
G37*
G36*
X197795342Y-92835381D02*
X197443316Y-92483355D01*
X198502986Y-91423685D01*
X198855012Y-91775711D01*
X197795342Y-92835381D01*
X197795342Y-92835381D01*
G37*
G36*
X197229586Y-92269624D02*
X196877560Y-91917598D01*
X197937230Y-90857928D01*
X198289256Y-91209954D01*
X197229586Y-92269624D01*
X197229586Y-92269624D01*
G37*
G36*
X196663830Y-91703868D02*
X196311804Y-91351842D01*
X197371474Y-90292172D01*
X197723500Y-90644198D01*
X196663830Y-91703868D01*
X196663830Y-91703868D01*
G37*
G36*
X196098074Y-91138112D02*
X195746048Y-90786086D01*
X196805718Y-89726416D01*
X197157744Y-90078442D01*
X196098074Y-91138112D01*
X196098074Y-91138112D01*
G37*
G36*
X195534114Y-90574152D02*
X195182088Y-90222126D01*
X196241758Y-89162456D01*
X196593784Y-89514482D01*
X195534114Y-90574152D01*
X195534114Y-90574152D01*
G37*
G36*
X194970154Y-90010192D02*
X194618128Y-89658166D01*
X195677798Y-88598496D01*
X196029824Y-88950522D01*
X194970154Y-90010192D01*
X194970154Y-90010192D01*
G37*
G36*
X194404398Y-89444436D02*
X194052372Y-89092410D01*
X195112042Y-88032740D01*
X195464068Y-88384766D01*
X194404398Y-89444436D01*
X194404398Y-89444436D01*
G37*
G36*
X193838642Y-88878680D02*
X193486616Y-88526654D01*
X194546286Y-87466984D01*
X194898312Y-87819010D01*
X193838642Y-88878680D01*
X193838642Y-88878680D01*
G37*
G36*
X193272885Y-88312924D02*
X192920859Y-87960898D01*
X193980529Y-86901228D01*
X194332555Y-87253254D01*
X193272885Y-88312924D01*
X193272885Y-88312924D01*
G37*
G36*
X192707129Y-87747167D02*
X192355103Y-87395141D01*
X193414773Y-86335471D01*
X193766799Y-86687497D01*
X192707129Y-87747167D01*
X192707129Y-87747167D01*
G37*
G36*
X190867973Y-87747167D02*
X189808303Y-86687497D01*
X190160329Y-86335471D01*
X191219999Y-87395141D01*
X190867973Y-87747167D01*
X190867973Y-87747167D01*
G37*
G36*
X190302217Y-88312924D02*
X189242547Y-87253254D01*
X189594573Y-86901228D01*
X190654243Y-87960898D01*
X190302217Y-88312924D01*
X190302217Y-88312924D01*
G37*
G36*
X189736460Y-88878680D02*
X188676790Y-87819010D01*
X189028816Y-87466984D01*
X190088486Y-88526654D01*
X189736460Y-88878680D01*
X189736460Y-88878680D01*
G37*
G36*
X189170704Y-89444436D02*
X188111034Y-88384766D01*
X188463060Y-88032740D01*
X189522730Y-89092410D01*
X189170704Y-89444436D01*
X189170704Y-89444436D01*
G37*
G36*
X188604948Y-90010192D02*
X187545278Y-88950522D01*
X187897304Y-88598496D01*
X188956974Y-89658166D01*
X188604948Y-90010192D01*
X188604948Y-90010192D01*
G37*
G36*
X188040988Y-90574152D02*
X186981318Y-89514482D01*
X187333344Y-89162456D01*
X188393014Y-90222126D01*
X188040988Y-90574152D01*
X188040988Y-90574152D01*
G37*
G36*
X187477028Y-91138112D02*
X186417358Y-90078442D01*
X186769384Y-89726416D01*
X187829054Y-90786086D01*
X187477028Y-91138112D01*
X187477028Y-91138112D01*
G37*
G36*
X186911272Y-91703868D02*
X185851602Y-90644198D01*
X186203628Y-90292172D01*
X187263298Y-91351842D01*
X186911272Y-91703868D01*
X186911272Y-91703868D01*
G37*
G36*
X186345516Y-92269624D02*
X185285846Y-91209954D01*
X185637872Y-90857928D01*
X186697542Y-91917598D01*
X186345516Y-92269624D01*
X186345516Y-92269624D01*
G37*
G36*
X185779760Y-92835381D02*
X184720090Y-91775711D01*
X185072116Y-91423685D01*
X186131786Y-92483355D01*
X185779760Y-92835381D01*
X185779760Y-92835381D01*
G37*
G36*
X185214003Y-93401137D02*
X184154333Y-92341467D01*
X184506359Y-91989441D01*
X185566029Y-93049111D01*
X185214003Y-93401137D01*
X185214003Y-93401137D01*
G37*
G36*
X188476246Y-103485780D02*
X189112642Y-102849384D01*
X189466196Y-103202938D01*
X188829800Y-103839334D01*
X188476246Y-103485780D01*
X188476246Y-103485780D01*
G37*
G36*
X189536906Y-104546440D02*
X190173302Y-103910044D01*
X190526856Y-104263598D01*
X189890460Y-104899994D01*
X189536906Y-104546440D01*
X189536906Y-104546440D01*
G37*
G36*
X199043139Y-97773781D02*
X199820829Y-98551471D01*
X198477383Y-99894917D01*
X197699693Y-99117227D01*
X199043139Y-97773781D01*
X199043139Y-97773781D01*
G37*
G36*
X196428089Y-100388831D02*
X197205779Y-101166521D01*
X195862333Y-102509967D01*
X195084643Y-101732277D01*
X196428089Y-100388831D01*
X196428089Y-100388831D01*
G37*
G36*
X198051719Y-102012461D02*
X198829409Y-102790151D01*
X197485963Y-104133597D01*
X196708273Y-103355907D01*
X198051719Y-102012461D01*
X198051719Y-102012461D01*
G37*
G36*
X200666769Y-99397411D02*
X201444459Y-100175101D01*
X200101013Y-101518547D01*
X199323323Y-100740857D01*
X200666769Y-99397411D01*
X200666769Y-99397411D01*
G37*
D16*
X195722011Y-113018689D03*
X199029091Y-113018689D03*
D15*
X196552551Y-109800689D03*
X197502551Y-109800689D03*
X198452551Y-109800689D03*
X198452551Y-107600689D03*
X196552551Y-107600689D03*
D14*
X193692551Y-107428149D03*
X193692551Y-110227229D03*
D13*
X191246551Y-78474689D03*
X191246551Y-79744689D03*
X191246551Y-81014689D03*
X191246551Y-82284689D03*
X196646551Y-82284689D03*
X196646551Y-81014689D03*
X196646551Y-79744689D03*
X196646551Y-78474689D03*
D11*
X188739551Y-81129689D03*
X188739551Y-79629689D03*
D12*
X188866551Y-77573689D03*
X188866551Y-76073689D03*
D10*
G36*
X175894873Y-98164341D02*
X176425203Y-97634011D01*
X176990889Y-98199697D01*
X176460559Y-98730027D01*
X175894873Y-98164341D01*
X175894873Y-98164341D01*
G37*
G36*
X174834213Y-97103681D02*
X175364543Y-96573351D01*
X175930229Y-97139037D01*
X175399899Y-97669367D01*
X174834213Y-97103681D01*
X174834213Y-97103681D01*
G37*
G36*
X150494873Y-98164341D02*
X151025203Y-97634011D01*
X151590889Y-98199697D01*
X151060559Y-98730027D01*
X150494873Y-98164341D01*
X150494873Y-98164341D01*
G37*
G36*
X149434213Y-97103681D02*
X149964543Y-96573351D01*
X150530229Y-97139037D01*
X149999899Y-97669367D01*
X149434213Y-97103681D01*
X149434213Y-97103681D01*
G37*
G36*
X125094873Y-98164341D02*
X125625203Y-97634011D01*
X126190889Y-98199697D01*
X125660559Y-98730027D01*
X125094873Y-98164341D01*
X125094873Y-98164341D01*
G37*
G36*
X124034213Y-97103681D02*
X124564543Y-96573351D01*
X125130229Y-97139037D01*
X124599899Y-97669367D01*
X124034213Y-97103681D01*
X124034213Y-97103681D01*
G37*
G36*
X99694873Y-98164341D02*
X100225203Y-97634011D01*
X100790889Y-98199697D01*
X100260559Y-98730027D01*
X99694873Y-98164341D01*
X99694873Y-98164341D01*
G37*
G36*
X98634213Y-97103681D02*
X99164543Y-96573351D01*
X99730229Y-97139037D01*
X99199899Y-97669367D01*
X98634213Y-97103681D01*
X98634213Y-97103681D01*
G37*
D14*
X175912551Y-107303689D03*
X175912551Y-110102769D03*
X150512551Y-107303689D03*
X150512551Y-110102769D03*
X125112551Y-107303689D03*
X125112551Y-110102769D03*
X99712551Y-107303689D03*
X99712551Y-110102769D03*
D11*
X163339551Y-81129689D03*
X163339551Y-79629689D03*
X137939551Y-81129689D03*
X137939551Y-79629689D03*
X112539551Y-81129689D03*
X112539551Y-79629689D03*
X87139551Y-81129689D03*
X87139551Y-79629689D03*
X163339551Y-84546689D03*
X163339551Y-83046689D03*
X137939551Y-84546689D03*
X137939551Y-83046689D03*
X112539551Y-84546689D03*
X112539551Y-83046689D03*
X87139551Y-84546689D03*
X87139551Y-83046689D03*
D13*
X165846551Y-78474689D03*
X165846551Y-79744689D03*
X165846551Y-81014689D03*
X165846551Y-82284689D03*
X171246551Y-82284689D03*
X171246551Y-81014689D03*
X171246551Y-79744689D03*
X171246551Y-78474689D03*
X140446551Y-78474689D03*
X140446551Y-79744689D03*
X140446551Y-81014689D03*
X140446551Y-82284689D03*
X145846551Y-82284689D03*
X145846551Y-81014689D03*
X145846551Y-79744689D03*
X145846551Y-78474689D03*
X115046551Y-78474689D03*
X115046551Y-79744689D03*
X115046551Y-81014689D03*
X115046551Y-82284689D03*
X120446551Y-82284689D03*
X120446551Y-81014689D03*
X120446551Y-79744689D03*
X120446551Y-78474689D03*
X89646551Y-78474689D03*
X89646551Y-79744689D03*
X89646551Y-81014689D03*
X89646551Y-82284689D03*
X95046551Y-82284689D03*
X95046551Y-81014689D03*
X95046551Y-79744689D03*
X95046551Y-78474689D03*
D12*
X163466551Y-77573689D03*
X163466551Y-76073689D03*
X138066551Y-77573689D03*
X138066551Y-76073689D03*
X112666551Y-77573689D03*
X112666551Y-76073689D03*
X87266551Y-77573689D03*
X87266551Y-76073689D03*
D10*
G36*
X159106359Y-95947937D02*
X158754333Y-95595911D01*
X159814003Y-94536241D01*
X160166029Y-94888267D01*
X159106359Y-95947937D01*
X159106359Y-95947937D01*
G37*
G36*
X159672116Y-96513693D02*
X159320090Y-96161667D01*
X160379760Y-95101997D01*
X160731786Y-95454023D01*
X159672116Y-96513693D01*
X159672116Y-96513693D01*
G37*
G36*
X160237872Y-97079450D02*
X159885846Y-96727424D01*
X160945516Y-95667754D01*
X161297542Y-96019780D01*
X160237872Y-97079450D01*
X160237872Y-97079450D01*
G37*
G36*
X160803628Y-97645206D02*
X160451602Y-97293180D01*
X161511272Y-96233510D01*
X161863298Y-96585536D01*
X160803628Y-97645206D01*
X160803628Y-97645206D01*
G37*
G36*
X161369384Y-98210962D02*
X161017358Y-97858936D01*
X162077028Y-96799266D01*
X162429054Y-97151292D01*
X161369384Y-98210962D01*
X161369384Y-98210962D01*
G37*
G36*
X161933344Y-98774922D02*
X161581318Y-98422896D01*
X162640988Y-97363226D01*
X162993014Y-97715252D01*
X161933344Y-98774922D01*
X161933344Y-98774922D01*
G37*
G36*
X162497304Y-99338882D02*
X162145278Y-98986856D01*
X163204948Y-97927186D01*
X163556974Y-98279212D01*
X162497304Y-99338882D01*
X162497304Y-99338882D01*
G37*
G36*
X163063060Y-99904638D02*
X162711034Y-99552612D01*
X163770704Y-98492942D01*
X164122730Y-98844968D01*
X163063060Y-99904638D01*
X163063060Y-99904638D01*
G37*
G36*
X163628816Y-100470394D02*
X163276790Y-100118368D01*
X164336460Y-99058698D01*
X164688486Y-99410724D01*
X163628816Y-100470394D01*
X163628816Y-100470394D01*
G37*
G36*
X164194573Y-101036150D02*
X163842547Y-100684124D01*
X164902217Y-99624454D01*
X165254243Y-99976480D01*
X164194573Y-101036150D01*
X164194573Y-101036150D01*
G37*
G36*
X164760329Y-101601907D02*
X164408303Y-101249881D01*
X165467973Y-100190211D01*
X165819999Y-100542237D01*
X164760329Y-101601907D01*
X164760329Y-101601907D01*
G37*
G36*
X168014773Y-101601907D02*
X166955103Y-100542237D01*
X167307129Y-100190211D01*
X168366799Y-101249881D01*
X168014773Y-101601907D01*
X168014773Y-101601907D01*
G37*
G36*
X168580529Y-101036150D02*
X167520859Y-99976480D01*
X167872885Y-99624454D01*
X168932555Y-100684124D01*
X168580529Y-101036150D01*
X168580529Y-101036150D01*
G37*
G36*
X169146286Y-100470394D02*
X168086616Y-99410724D01*
X168438642Y-99058698D01*
X169498312Y-100118368D01*
X169146286Y-100470394D01*
X169146286Y-100470394D01*
G37*
G36*
X169712042Y-99904638D02*
X168652372Y-98844968D01*
X169004398Y-98492942D01*
X170064068Y-99552612D01*
X169712042Y-99904638D01*
X169712042Y-99904638D01*
G37*
G36*
X170277798Y-99338882D02*
X169218128Y-98279212D01*
X169570154Y-97927186D01*
X170629824Y-98986856D01*
X170277798Y-99338882D01*
X170277798Y-99338882D01*
G37*
G36*
X170841758Y-98774922D02*
X169782088Y-97715252D01*
X170134114Y-97363226D01*
X171193784Y-98422896D01*
X170841758Y-98774922D01*
X170841758Y-98774922D01*
G37*
G36*
X171405718Y-98210962D02*
X170346048Y-97151292D01*
X170698074Y-96799266D01*
X171757744Y-97858936D01*
X171405718Y-98210962D01*
X171405718Y-98210962D01*
G37*
G36*
X171971474Y-97645206D02*
X170911804Y-96585536D01*
X171263830Y-96233510D01*
X172323500Y-97293180D01*
X171971474Y-97645206D01*
X171971474Y-97645206D01*
G37*
G36*
X172537230Y-97079450D02*
X171477560Y-96019780D01*
X171829586Y-95667754D01*
X172889256Y-96727424D01*
X172537230Y-97079450D01*
X172537230Y-97079450D01*
G37*
G36*
X173102986Y-96513693D02*
X172043316Y-95454023D01*
X172395342Y-95101997D01*
X173455012Y-96161667D01*
X173102986Y-96513693D01*
X173102986Y-96513693D01*
G37*
G36*
X173668743Y-95947937D02*
X172609073Y-94888267D01*
X172961099Y-94536241D01*
X174020769Y-95595911D01*
X173668743Y-95947937D01*
X173668743Y-95947937D01*
G37*
G36*
X172961099Y-93401137D02*
X172609073Y-93049111D01*
X173668743Y-91989441D01*
X174020769Y-92341467D01*
X172961099Y-93401137D01*
X172961099Y-93401137D01*
G37*
G36*
X172395342Y-92835381D02*
X172043316Y-92483355D01*
X173102986Y-91423685D01*
X173455012Y-91775711D01*
X172395342Y-92835381D01*
X172395342Y-92835381D01*
G37*
G36*
X171829586Y-92269624D02*
X171477560Y-91917598D01*
X172537230Y-90857928D01*
X172889256Y-91209954D01*
X171829586Y-92269624D01*
X171829586Y-92269624D01*
G37*
G36*
X171263830Y-91703868D02*
X170911804Y-91351842D01*
X171971474Y-90292172D01*
X172323500Y-90644198D01*
X171263830Y-91703868D01*
X171263830Y-91703868D01*
G37*
G36*
X170698074Y-91138112D02*
X170346048Y-90786086D01*
X171405718Y-89726416D01*
X171757744Y-90078442D01*
X170698074Y-91138112D01*
X170698074Y-91138112D01*
G37*
G36*
X170134114Y-90574152D02*
X169782088Y-90222126D01*
X170841758Y-89162456D01*
X171193784Y-89514482D01*
X170134114Y-90574152D01*
X170134114Y-90574152D01*
G37*
G36*
X169570154Y-90010192D02*
X169218128Y-89658166D01*
X170277798Y-88598496D01*
X170629824Y-88950522D01*
X169570154Y-90010192D01*
X169570154Y-90010192D01*
G37*
G36*
X169004398Y-89444436D02*
X168652372Y-89092410D01*
X169712042Y-88032740D01*
X170064068Y-88384766D01*
X169004398Y-89444436D01*
X169004398Y-89444436D01*
G37*
G36*
X168438642Y-88878680D02*
X168086616Y-88526654D01*
X169146286Y-87466984D01*
X169498312Y-87819010D01*
X168438642Y-88878680D01*
X168438642Y-88878680D01*
G37*
G36*
X167872885Y-88312924D02*
X167520859Y-87960898D01*
X168580529Y-86901228D01*
X168932555Y-87253254D01*
X167872885Y-88312924D01*
X167872885Y-88312924D01*
G37*
G36*
X167307129Y-87747167D02*
X166955103Y-87395141D01*
X168014773Y-86335471D01*
X168366799Y-86687497D01*
X167307129Y-87747167D01*
X167307129Y-87747167D01*
G37*
G36*
X165467973Y-87747167D02*
X164408303Y-86687497D01*
X164760329Y-86335471D01*
X165819999Y-87395141D01*
X165467973Y-87747167D01*
X165467973Y-87747167D01*
G37*
G36*
X164902217Y-88312924D02*
X163842547Y-87253254D01*
X164194573Y-86901228D01*
X165254243Y-87960898D01*
X164902217Y-88312924D01*
X164902217Y-88312924D01*
G37*
G36*
X164336460Y-88878680D02*
X163276790Y-87819010D01*
X163628816Y-87466984D01*
X164688486Y-88526654D01*
X164336460Y-88878680D01*
X164336460Y-88878680D01*
G37*
G36*
X163770704Y-89444436D02*
X162711034Y-88384766D01*
X163063060Y-88032740D01*
X164122730Y-89092410D01*
X163770704Y-89444436D01*
X163770704Y-89444436D01*
G37*
G36*
X163204948Y-90010192D02*
X162145278Y-88950522D01*
X162497304Y-88598496D01*
X163556974Y-89658166D01*
X163204948Y-90010192D01*
X163204948Y-90010192D01*
G37*
G36*
X162640988Y-90574152D02*
X161581318Y-89514482D01*
X161933344Y-89162456D01*
X162993014Y-90222126D01*
X162640988Y-90574152D01*
X162640988Y-90574152D01*
G37*
G36*
X162077028Y-91138112D02*
X161017358Y-90078442D01*
X161369384Y-89726416D01*
X162429054Y-90786086D01*
X162077028Y-91138112D01*
X162077028Y-91138112D01*
G37*
G36*
X161511272Y-91703868D02*
X160451602Y-90644198D01*
X160803628Y-90292172D01*
X161863298Y-91351842D01*
X161511272Y-91703868D01*
X161511272Y-91703868D01*
G37*
G36*
X160945516Y-92269624D02*
X159885846Y-91209954D01*
X160237872Y-90857928D01*
X161297542Y-91917598D01*
X160945516Y-92269624D01*
X160945516Y-92269624D01*
G37*
G36*
X160379760Y-92835381D02*
X159320090Y-91775711D01*
X159672116Y-91423685D01*
X160731786Y-92483355D01*
X160379760Y-92835381D01*
X160379760Y-92835381D01*
G37*
G36*
X159814003Y-93401137D02*
X158754333Y-92341467D01*
X159106359Y-91989441D01*
X160166029Y-93049111D01*
X159814003Y-93401137D01*
X159814003Y-93401137D01*
G37*
G36*
X133706359Y-95947937D02*
X133354333Y-95595911D01*
X134414003Y-94536241D01*
X134766029Y-94888267D01*
X133706359Y-95947937D01*
X133706359Y-95947937D01*
G37*
G36*
X134272116Y-96513693D02*
X133920090Y-96161667D01*
X134979760Y-95101997D01*
X135331786Y-95454023D01*
X134272116Y-96513693D01*
X134272116Y-96513693D01*
G37*
G36*
X134837872Y-97079450D02*
X134485846Y-96727424D01*
X135545516Y-95667754D01*
X135897542Y-96019780D01*
X134837872Y-97079450D01*
X134837872Y-97079450D01*
G37*
G36*
X135403628Y-97645206D02*
X135051602Y-97293180D01*
X136111272Y-96233510D01*
X136463298Y-96585536D01*
X135403628Y-97645206D01*
X135403628Y-97645206D01*
G37*
G36*
X135969384Y-98210962D02*
X135617358Y-97858936D01*
X136677028Y-96799266D01*
X137029054Y-97151292D01*
X135969384Y-98210962D01*
X135969384Y-98210962D01*
G37*
G36*
X136533344Y-98774922D02*
X136181318Y-98422896D01*
X137240988Y-97363226D01*
X137593014Y-97715252D01*
X136533344Y-98774922D01*
X136533344Y-98774922D01*
G37*
G36*
X137097304Y-99338882D02*
X136745278Y-98986856D01*
X137804948Y-97927186D01*
X138156974Y-98279212D01*
X137097304Y-99338882D01*
X137097304Y-99338882D01*
G37*
G36*
X137663060Y-99904638D02*
X137311034Y-99552612D01*
X138370704Y-98492942D01*
X138722730Y-98844968D01*
X137663060Y-99904638D01*
X137663060Y-99904638D01*
G37*
G36*
X138228816Y-100470394D02*
X137876790Y-100118368D01*
X138936460Y-99058698D01*
X139288486Y-99410724D01*
X138228816Y-100470394D01*
X138228816Y-100470394D01*
G37*
G36*
X138794573Y-101036150D02*
X138442547Y-100684124D01*
X139502217Y-99624454D01*
X139854243Y-99976480D01*
X138794573Y-101036150D01*
X138794573Y-101036150D01*
G37*
G36*
X139360329Y-101601907D02*
X139008303Y-101249881D01*
X140067973Y-100190211D01*
X140419999Y-100542237D01*
X139360329Y-101601907D01*
X139360329Y-101601907D01*
G37*
G36*
X142614773Y-101601907D02*
X141555103Y-100542237D01*
X141907129Y-100190211D01*
X142966799Y-101249881D01*
X142614773Y-101601907D01*
X142614773Y-101601907D01*
G37*
G36*
X143180529Y-101036150D02*
X142120859Y-99976480D01*
X142472885Y-99624454D01*
X143532555Y-100684124D01*
X143180529Y-101036150D01*
X143180529Y-101036150D01*
G37*
G36*
X143746286Y-100470394D02*
X142686616Y-99410724D01*
X143038642Y-99058698D01*
X144098312Y-100118368D01*
X143746286Y-100470394D01*
X143746286Y-100470394D01*
G37*
G36*
X144312042Y-99904638D02*
X143252372Y-98844968D01*
X143604398Y-98492942D01*
X144664068Y-99552612D01*
X144312042Y-99904638D01*
X144312042Y-99904638D01*
G37*
G36*
X144877798Y-99338882D02*
X143818128Y-98279212D01*
X144170154Y-97927186D01*
X145229824Y-98986856D01*
X144877798Y-99338882D01*
X144877798Y-99338882D01*
G37*
G36*
X145441758Y-98774922D02*
X144382088Y-97715252D01*
X144734114Y-97363226D01*
X145793784Y-98422896D01*
X145441758Y-98774922D01*
X145441758Y-98774922D01*
G37*
G36*
X146005718Y-98210962D02*
X144946048Y-97151292D01*
X145298074Y-96799266D01*
X146357744Y-97858936D01*
X146005718Y-98210962D01*
X146005718Y-98210962D01*
G37*
G36*
X146571474Y-97645206D02*
X145511804Y-96585536D01*
X145863830Y-96233510D01*
X146923500Y-97293180D01*
X146571474Y-97645206D01*
X146571474Y-97645206D01*
G37*
G36*
X147137230Y-97079450D02*
X146077560Y-96019780D01*
X146429586Y-95667754D01*
X147489256Y-96727424D01*
X147137230Y-97079450D01*
X147137230Y-97079450D01*
G37*
G36*
X147702986Y-96513693D02*
X146643316Y-95454023D01*
X146995342Y-95101997D01*
X148055012Y-96161667D01*
X147702986Y-96513693D01*
X147702986Y-96513693D01*
G37*
G36*
X148268743Y-95947937D02*
X147209073Y-94888267D01*
X147561099Y-94536241D01*
X148620769Y-95595911D01*
X148268743Y-95947937D01*
X148268743Y-95947937D01*
G37*
G36*
X147561099Y-93401137D02*
X147209073Y-93049111D01*
X148268743Y-91989441D01*
X148620769Y-92341467D01*
X147561099Y-93401137D01*
X147561099Y-93401137D01*
G37*
G36*
X146995342Y-92835381D02*
X146643316Y-92483355D01*
X147702986Y-91423685D01*
X148055012Y-91775711D01*
X146995342Y-92835381D01*
X146995342Y-92835381D01*
G37*
G36*
X146429586Y-92269624D02*
X146077560Y-91917598D01*
X147137230Y-90857928D01*
X147489256Y-91209954D01*
X146429586Y-92269624D01*
X146429586Y-92269624D01*
G37*
G36*
X145863830Y-91703868D02*
X145511804Y-91351842D01*
X146571474Y-90292172D01*
X146923500Y-90644198D01*
X145863830Y-91703868D01*
X145863830Y-91703868D01*
G37*
G36*
X145298074Y-91138112D02*
X144946048Y-90786086D01*
X146005718Y-89726416D01*
X146357744Y-90078442D01*
X145298074Y-91138112D01*
X145298074Y-91138112D01*
G37*
G36*
X144734114Y-90574152D02*
X144382088Y-90222126D01*
X145441758Y-89162456D01*
X145793784Y-89514482D01*
X144734114Y-90574152D01*
X144734114Y-90574152D01*
G37*
G36*
X144170154Y-90010192D02*
X143818128Y-89658166D01*
X144877798Y-88598496D01*
X145229824Y-88950522D01*
X144170154Y-90010192D01*
X144170154Y-90010192D01*
G37*
G36*
X143604398Y-89444436D02*
X143252372Y-89092410D01*
X144312042Y-88032740D01*
X144664068Y-88384766D01*
X143604398Y-89444436D01*
X143604398Y-89444436D01*
G37*
G36*
X143038642Y-88878680D02*
X142686616Y-88526654D01*
X143746286Y-87466984D01*
X144098312Y-87819010D01*
X143038642Y-88878680D01*
X143038642Y-88878680D01*
G37*
G36*
X142472885Y-88312924D02*
X142120859Y-87960898D01*
X143180529Y-86901228D01*
X143532555Y-87253254D01*
X142472885Y-88312924D01*
X142472885Y-88312924D01*
G37*
G36*
X141907129Y-87747167D02*
X141555103Y-87395141D01*
X142614773Y-86335471D01*
X142966799Y-86687497D01*
X141907129Y-87747167D01*
X141907129Y-87747167D01*
G37*
G36*
X140067973Y-87747167D02*
X139008303Y-86687497D01*
X139360329Y-86335471D01*
X140419999Y-87395141D01*
X140067973Y-87747167D01*
X140067973Y-87747167D01*
G37*
G36*
X139502217Y-88312924D02*
X138442547Y-87253254D01*
X138794573Y-86901228D01*
X139854243Y-87960898D01*
X139502217Y-88312924D01*
X139502217Y-88312924D01*
G37*
G36*
X138936460Y-88878680D02*
X137876790Y-87819010D01*
X138228816Y-87466984D01*
X139288486Y-88526654D01*
X138936460Y-88878680D01*
X138936460Y-88878680D01*
G37*
G36*
X138370704Y-89444436D02*
X137311034Y-88384766D01*
X137663060Y-88032740D01*
X138722730Y-89092410D01*
X138370704Y-89444436D01*
X138370704Y-89444436D01*
G37*
G36*
X137804948Y-90010192D02*
X136745278Y-88950522D01*
X137097304Y-88598496D01*
X138156974Y-89658166D01*
X137804948Y-90010192D01*
X137804948Y-90010192D01*
G37*
G36*
X137240988Y-90574152D02*
X136181318Y-89514482D01*
X136533344Y-89162456D01*
X137593014Y-90222126D01*
X137240988Y-90574152D01*
X137240988Y-90574152D01*
G37*
G36*
X136677028Y-91138112D02*
X135617358Y-90078442D01*
X135969384Y-89726416D01*
X137029054Y-90786086D01*
X136677028Y-91138112D01*
X136677028Y-91138112D01*
G37*
G36*
X136111272Y-91703868D02*
X135051602Y-90644198D01*
X135403628Y-90292172D01*
X136463298Y-91351842D01*
X136111272Y-91703868D01*
X136111272Y-91703868D01*
G37*
G36*
X135545516Y-92269624D02*
X134485846Y-91209954D01*
X134837872Y-90857928D01*
X135897542Y-91917598D01*
X135545516Y-92269624D01*
X135545516Y-92269624D01*
G37*
G36*
X134979760Y-92835381D02*
X133920090Y-91775711D01*
X134272116Y-91423685D01*
X135331786Y-92483355D01*
X134979760Y-92835381D01*
X134979760Y-92835381D01*
G37*
G36*
X134414003Y-93401137D02*
X133354333Y-92341467D01*
X133706359Y-91989441D01*
X134766029Y-93049111D01*
X134414003Y-93401137D01*
X134414003Y-93401137D01*
G37*
G36*
X108306359Y-95947937D02*
X107954333Y-95595911D01*
X109014003Y-94536241D01*
X109366029Y-94888267D01*
X108306359Y-95947937D01*
X108306359Y-95947937D01*
G37*
G36*
X108872116Y-96513693D02*
X108520090Y-96161667D01*
X109579760Y-95101997D01*
X109931786Y-95454023D01*
X108872116Y-96513693D01*
X108872116Y-96513693D01*
G37*
G36*
X109437872Y-97079450D02*
X109085846Y-96727424D01*
X110145516Y-95667754D01*
X110497542Y-96019780D01*
X109437872Y-97079450D01*
X109437872Y-97079450D01*
G37*
G36*
X110003628Y-97645206D02*
X109651602Y-97293180D01*
X110711272Y-96233510D01*
X111063298Y-96585536D01*
X110003628Y-97645206D01*
X110003628Y-97645206D01*
G37*
G36*
X110569384Y-98210962D02*
X110217358Y-97858936D01*
X111277028Y-96799266D01*
X111629054Y-97151292D01*
X110569384Y-98210962D01*
X110569384Y-98210962D01*
G37*
G36*
X111133344Y-98774922D02*
X110781318Y-98422896D01*
X111840988Y-97363226D01*
X112193014Y-97715252D01*
X111133344Y-98774922D01*
X111133344Y-98774922D01*
G37*
G36*
X111697304Y-99338882D02*
X111345278Y-98986856D01*
X112404948Y-97927186D01*
X112756974Y-98279212D01*
X111697304Y-99338882D01*
X111697304Y-99338882D01*
G37*
G36*
X112263060Y-99904638D02*
X111911034Y-99552612D01*
X112970704Y-98492942D01*
X113322730Y-98844968D01*
X112263060Y-99904638D01*
X112263060Y-99904638D01*
G37*
G36*
X112828816Y-100470394D02*
X112476790Y-100118368D01*
X113536460Y-99058698D01*
X113888486Y-99410724D01*
X112828816Y-100470394D01*
X112828816Y-100470394D01*
G37*
G36*
X113394573Y-101036150D02*
X113042547Y-100684124D01*
X114102217Y-99624454D01*
X114454243Y-99976480D01*
X113394573Y-101036150D01*
X113394573Y-101036150D01*
G37*
G36*
X113960329Y-101601907D02*
X113608303Y-101249881D01*
X114667973Y-100190211D01*
X115019999Y-100542237D01*
X113960329Y-101601907D01*
X113960329Y-101601907D01*
G37*
G36*
X117214773Y-101601907D02*
X116155103Y-100542237D01*
X116507129Y-100190211D01*
X117566799Y-101249881D01*
X117214773Y-101601907D01*
X117214773Y-101601907D01*
G37*
G36*
X117780529Y-101036150D02*
X116720859Y-99976480D01*
X117072885Y-99624454D01*
X118132555Y-100684124D01*
X117780529Y-101036150D01*
X117780529Y-101036150D01*
G37*
G36*
X118346286Y-100470394D02*
X117286616Y-99410724D01*
X117638642Y-99058698D01*
X118698312Y-100118368D01*
X118346286Y-100470394D01*
X118346286Y-100470394D01*
G37*
G36*
X118912042Y-99904638D02*
X117852372Y-98844968D01*
X118204398Y-98492942D01*
X119264068Y-99552612D01*
X118912042Y-99904638D01*
X118912042Y-99904638D01*
G37*
G36*
X119477798Y-99338882D02*
X118418128Y-98279212D01*
X118770154Y-97927186D01*
X119829824Y-98986856D01*
X119477798Y-99338882D01*
X119477798Y-99338882D01*
G37*
G36*
X120041758Y-98774922D02*
X118982088Y-97715252D01*
X119334114Y-97363226D01*
X120393784Y-98422896D01*
X120041758Y-98774922D01*
X120041758Y-98774922D01*
G37*
G36*
X120605718Y-98210962D02*
X119546048Y-97151292D01*
X119898074Y-96799266D01*
X120957744Y-97858936D01*
X120605718Y-98210962D01*
X120605718Y-98210962D01*
G37*
G36*
X121171474Y-97645206D02*
X120111804Y-96585536D01*
X120463830Y-96233510D01*
X121523500Y-97293180D01*
X121171474Y-97645206D01*
X121171474Y-97645206D01*
G37*
G36*
X121737230Y-97079450D02*
X120677560Y-96019780D01*
X121029586Y-95667754D01*
X122089256Y-96727424D01*
X121737230Y-97079450D01*
X121737230Y-97079450D01*
G37*
G36*
X122302986Y-96513693D02*
X121243316Y-95454023D01*
X121595342Y-95101997D01*
X122655012Y-96161667D01*
X122302986Y-96513693D01*
X122302986Y-96513693D01*
G37*
G36*
X122868743Y-95947937D02*
X121809073Y-94888267D01*
X122161099Y-94536241D01*
X123220769Y-95595911D01*
X122868743Y-95947937D01*
X122868743Y-95947937D01*
G37*
G36*
X122161099Y-93401137D02*
X121809073Y-93049111D01*
X122868743Y-91989441D01*
X123220769Y-92341467D01*
X122161099Y-93401137D01*
X122161099Y-93401137D01*
G37*
G36*
X121595342Y-92835381D02*
X121243316Y-92483355D01*
X122302986Y-91423685D01*
X122655012Y-91775711D01*
X121595342Y-92835381D01*
X121595342Y-92835381D01*
G37*
G36*
X121029586Y-92269624D02*
X120677560Y-91917598D01*
X121737230Y-90857928D01*
X122089256Y-91209954D01*
X121029586Y-92269624D01*
X121029586Y-92269624D01*
G37*
G36*
X120463830Y-91703868D02*
X120111804Y-91351842D01*
X121171474Y-90292172D01*
X121523500Y-90644198D01*
X120463830Y-91703868D01*
X120463830Y-91703868D01*
G37*
G36*
X119898074Y-91138112D02*
X119546048Y-90786086D01*
X120605718Y-89726416D01*
X120957744Y-90078442D01*
X119898074Y-91138112D01*
X119898074Y-91138112D01*
G37*
G36*
X119334114Y-90574152D02*
X118982088Y-90222126D01*
X120041758Y-89162456D01*
X120393784Y-89514482D01*
X119334114Y-90574152D01*
X119334114Y-90574152D01*
G37*
G36*
X118770154Y-90010192D02*
X118418128Y-89658166D01*
X119477798Y-88598496D01*
X119829824Y-88950522D01*
X118770154Y-90010192D01*
X118770154Y-90010192D01*
G37*
G36*
X118204398Y-89444436D02*
X117852372Y-89092410D01*
X118912042Y-88032740D01*
X119264068Y-88384766D01*
X118204398Y-89444436D01*
X118204398Y-89444436D01*
G37*
G36*
X117638642Y-88878680D02*
X117286616Y-88526654D01*
X118346286Y-87466984D01*
X118698312Y-87819010D01*
X117638642Y-88878680D01*
X117638642Y-88878680D01*
G37*
G36*
X117072885Y-88312924D02*
X116720859Y-87960898D01*
X117780529Y-86901228D01*
X118132555Y-87253254D01*
X117072885Y-88312924D01*
X117072885Y-88312924D01*
G37*
G36*
X116507129Y-87747167D02*
X116155103Y-87395141D01*
X117214773Y-86335471D01*
X117566799Y-86687497D01*
X116507129Y-87747167D01*
X116507129Y-87747167D01*
G37*
G36*
X114667973Y-87747167D02*
X113608303Y-86687497D01*
X113960329Y-86335471D01*
X115019999Y-87395141D01*
X114667973Y-87747167D01*
X114667973Y-87747167D01*
G37*
G36*
X114102217Y-88312924D02*
X113042547Y-87253254D01*
X113394573Y-86901228D01*
X114454243Y-87960898D01*
X114102217Y-88312924D01*
X114102217Y-88312924D01*
G37*
G36*
X113536460Y-88878680D02*
X112476790Y-87819010D01*
X112828816Y-87466984D01*
X113888486Y-88526654D01*
X113536460Y-88878680D01*
X113536460Y-88878680D01*
G37*
G36*
X112970704Y-89444436D02*
X111911034Y-88384766D01*
X112263060Y-88032740D01*
X113322730Y-89092410D01*
X112970704Y-89444436D01*
X112970704Y-89444436D01*
G37*
G36*
X112404948Y-90010192D02*
X111345278Y-88950522D01*
X111697304Y-88598496D01*
X112756974Y-89658166D01*
X112404948Y-90010192D01*
X112404948Y-90010192D01*
G37*
G36*
X111840988Y-90574152D02*
X110781318Y-89514482D01*
X111133344Y-89162456D01*
X112193014Y-90222126D01*
X111840988Y-90574152D01*
X111840988Y-90574152D01*
G37*
G36*
X111277028Y-91138112D02*
X110217358Y-90078442D01*
X110569384Y-89726416D01*
X111629054Y-90786086D01*
X111277028Y-91138112D01*
X111277028Y-91138112D01*
G37*
G36*
X110711272Y-91703868D02*
X109651602Y-90644198D01*
X110003628Y-90292172D01*
X111063298Y-91351842D01*
X110711272Y-91703868D01*
X110711272Y-91703868D01*
G37*
G36*
X110145516Y-92269624D02*
X109085846Y-91209954D01*
X109437872Y-90857928D01*
X110497542Y-91917598D01*
X110145516Y-92269624D01*
X110145516Y-92269624D01*
G37*
G36*
X109579760Y-92835381D02*
X108520090Y-91775711D01*
X108872116Y-91423685D01*
X109931786Y-92483355D01*
X109579760Y-92835381D01*
X109579760Y-92835381D01*
G37*
G36*
X109014003Y-93401137D02*
X107954333Y-92341467D01*
X108306359Y-91989441D01*
X109366029Y-93049111D01*
X109014003Y-93401137D01*
X109014003Y-93401137D01*
G37*
G36*
X82906359Y-95947937D02*
X82554333Y-95595911D01*
X83614003Y-94536241D01*
X83966029Y-94888267D01*
X82906359Y-95947937D01*
X82906359Y-95947937D01*
G37*
G36*
X83472116Y-96513693D02*
X83120090Y-96161667D01*
X84179760Y-95101997D01*
X84531786Y-95454023D01*
X83472116Y-96513693D01*
X83472116Y-96513693D01*
G37*
G36*
X84037872Y-97079450D02*
X83685846Y-96727424D01*
X84745516Y-95667754D01*
X85097542Y-96019780D01*
X84037872Y-97079450D01*
X84037872Y-97079450D01*
G37*
G36*
X84603628Y-97645206D02*
X84251602Y-97293180D01*
X85311272Y-96233510D01*
X85663298Y-96585536D01*
X84603628Y-97645206D01*
X84603628Y-97645206D01*
G37*
G36*
X85169384Y-98210962D02*
X84817358Y-97858936D01*
X85877028Y-96799266D01*
X86229054Y-97151292D01*
X85169384Y-98210962D01*
X85169384Y-98210962D01*
G37*
G36*
X85733344Y-98774922D02*
X85381318Y-98422896D01*
X86440988Y-97363226D01*
X86793014Y-97715252D01*
X85733344Y-98774922D01*
X85733344Y-98774922D01*
G37*
G36*
X86297304Y-99338882D02*
X85945278Y-98986856D01*
X87004948Y-97927186D01*
X87356974Y-98279212D01*
X86297304Y-99338882D01*
X86297304Y-99338882D01*
G37*
G36*
X86863060Y-99904638D02*
X86511034Y-99552612D01*
X87570704Y-98492942D01*
X87922730Y-98844968D01*
X86863060Y-99904638D01*
X86863060Y-99904638D01*
G37*
G36*
X87428816Y-100470394D02*
X87076790Y-100118368D01*
X88136460Y-99058698D01*
X88488486Y-99410724D01*
X87428816Y-100470394D01*
X87428816Y-100470394D01*
G37*
G36*
X87994573Y-101036150D02*
X87642547Y-100684124D01*
X88702217Y-99624454D01*
X89054243Y-99976480D01*
X87994573Y-101036150D01*
X87994573Y-101036150D01*
G37*
G36*
X88560329Y-101601907D02*
X88208303Y-101249881D01*
X89267973Y-100190211D01*
X89619999Y-100542237D01*
X88560329Y-101601907D01*
X88560329Y-101601907D01*
G37*
G36*
X91814773Y-101601907D02*
X90755103Y-100542237D01*
X91107129Y-100190211D01*
X92166799Y-101249881D01*
X91814773Y-101601907D01*
X91814773Y-101601907D01*
G37*
G36*
X92380529Y-101036150D02*
X91320859Y-99976480D01*
X91672885Y-99624454D01*
X92732555Y-100684124D01*
X92380529Y-101036150D01*
X92380529Y-101036150D01*
G37*
G36*
X92946286Y-100470394D02*
X91886616Y-99410724D01*
X92238642Y-99058698D01*
X93298312Y-100118368D01*
X92946286Y-100470394D01*
X92946286Y-100470394D01*
G37*
G36*
X93512042Y-99904638D02*
X92452372Y-98844968D01*
X92804398Y-98492942D01*
X93864068Y-99552612D01*
X93512042Y-99904638D01*
X93512042Y-99904638D01*
G37*
G36*
X94077798Y-99338882D02*
X93018128Y-98279212D01*
X93370154Y-97927186D01*
X94429824Y-98986856D01*
X94077798Y-99338882D01*
X94077798Y-99338882D01*
G37*
G36*
X94641758Y-98774922D02*
X93582088Y-97715252D01*
X93934114Y-97363226D01*
X94993784Y-98422896D01*
X94641758Y-98774922D01*
X94641758Y-98774922D01*
G37*
G36*
X95205718Y-98210962D02*
X94146048Y-97151292D01*
X94498074Y-96799266D01*
X95557744Y-97858936D01*
X95205718Y-98210962D01*
X95205718Y-98210962D01*
G37*
G36*
X95771474Y-97645206D02*
X94711804Y-96585536D01*
X95063830Y-96233510D01*
X96123500Y-97293180D01*
X95771474Y-97645206D01*
X95771474Y-97645206D01*
G37*
G36*
X96337230Y-97079450D02*
X95277560Y-96019780D01*
X95629586Y-95667754D01*
X96689256Y-96727424D01*
X96337230Y-97079450D01*
X96337230Y-97079450D01*
G37*
G36*
X96902986Y-96513693D02*
X95843316Y-95454023D01*
X96195342Y-95101997D01*
X97255012Y-96161667D01*
X96902986Y-96513693D01*
X96902986Y-96513693D01*
G37*
G36*
X97468743Y-95947937D02*
X96409073Y-94888267D01*
X96761099Y-94536241D01*
X97820769Y-95595911D01*
X97468743Y-95947937D01*
X97468743Y-95947937D01*
G37*
G36*
X96761099Y-93401137D02*
X96409073Y-93049111D01*
X97468743Y-91989441D01*
X97820769Y-92341467D01*
X96761099Y-93401137D01*
X96761099Y-93401137D01*
G37*
G36*
X96195342Y-92835381D02*
X95843316Y-92483355D01*
X96902986Y-91423685D01*
X97255012Y-91775711D01*
X96195342Y-92835381D01*
X96195342Y-92835381D01*
G37*
G36*
X95629586Y-92269624D02*
X95277560Y-91917598D01*
X96337230Y-90857928D01*
X96689256Y-91209954D01*
X95629586Y-92269624D01*
X95629586Y-92269624D01*
G37*
G36*
X95063830Y-91703868D02*
X94711804Y-91351842D01*
X95771474Y-90292172D01*
X96123500Y-90644198D01*
X95063830Y-91703868D01*
X95063830Y-91703868D01*
G37*
G36*
X94498074Y-91138112D02*
X94146048Y-90786086D01*
X95205718Y-89726416D01*
X95557744Y-90078442D01*
X94498074Y-91138112D01*
X94498074Y-91138112D01*
G37*
G36*
X93934114Y-90574152D02*
X93582088Y-90222126D01*
X94641758Y-89162456D01*
X94993784Y-89514482D01*
X93934114Y-90574152D01*
X93934114Y-90574152D01*
G37*
G36*
X93370154Y-90010192D02*
X93018128Y-89658166D01*
X94077798Y-88598496D01*
X94429824Y-88950522D01*
X93370154Y-90010192D01*
X93370154Y-90010192D01*
G37*
G36*
X92804398Y-89444436D02*
X92452372Y-89092410D01*
X93512042Y-88032740D01*
X93864068Y-88384766D01*
X92804398Y-89444436D01*
X92804398Y-89444436D01*
G37*
G36*
X92238642Y-88878680D02*
X91886616Y-88526654D01*
X92946286Y-87466984D01*
X93298312Y-87819010D01*
X92238642Y-88878680D01*
X92238642Y-88878680D01*
G37*
G36*
X91672885Y-88312924D02*
X91320859Y-87960898D01*
X92380529Y-86901228D01*
X92732555Y-87253254D01*
X91672885Y-88312924D01*
X91672885Y-88312924D01*
G37*
G36*
X91107129Y-87747167D02*
X90755103Y-87395141D01*
X91814773Y-86335471D01*
X92166799Y-86687497D01*
X91107129Y-87747167D01*
X91107129Y-87747167D01*
G37*
G36*
X89267973Y-87747167D02*
X88208303Y-86687497D01*
X88560329Y-86335471D01*
X89619999Y-87395141D01*
X89267973Y-87747167D01*
X89267973Y-87747167D01*
G37*
G36*
X88702217Y-88312924D02*
X87642547Y-87253254D01*
X87994573Y-86901228D01*
X89054243Y-87960898D01*
X88702217Y-88312924D01*
X88702217Y-88312924D01*
G37*
G36*
X88136460Y-88878680D02*
X87076790Y-87819010D01*
X87428816Y-87466984D01*
X88488486Y-88526654D01*
X88136460Y-88878680D01*
X88136460Y-88878680D01*
G37*
G36*
X87570704Y-89444436D02*
X86511034Y-88384766D01*
X86863060Y-88032740D01*
X87922730Y-89092410D01*
X87570704Y-89444436D01*
X87570704Y-89444436D01*
G37*
G36*
X87004948Y-90010192D02*
X85945278Y-88950522D01*
X86297304Y-88598496D01*
X87356974Y-89658166D01*
X87004948Y-90010192D01*
X87004948Y-90010192D01*
G37*
G36*
X86440988Y-90574152D02*
X85381318Y-89514482D01*
X85733344Y-89162456D01*
X86793014Y-90222126D01*
X86440988Y-90574152D01*
X86440988Y-90574152D01*
G37*
G36*
X85877028Y-91138112D02*
X84817358Y-90078442D01*
X85169384Y-89726416D01*
X86229054Y-90786086D01*
X85877028Y-91138112D01*
X85877028Y-91138112D01*
G37*
G36*
X85311272Y-91703868D02*
X84251602Y-90644198D01*
X84603628Y-90292172D01*
X85663298Y-91351842D01*
X85311272Y-91703868D01*
X85311272Y-91703868D01*
G37*
G36*
X84745516Y-92269624D02*
X83685846Y-91209954D01*
X84037872Y-90857928D01*
X85097542Y-91917598D01*
X84745516Y-92269624D01*
X84745516Y-92269624D01*
G37*
G36*
X84179760Y-92835381D02*
X83120090Y-91775711D01*
X83472116Y-91423685D01*
X84531786Y-92483355D01*
X84179760Y-92835381D01*
X84179760Y-92835381D01*
G37*
G36*
X83614003Y-93401137D02*
X82554333Y-92341467D01*
X82906359Y-91989441D01*
X83966029Y-93049111D01*
X83614003Y-93401137D01*
X83614003Y-93401137D01*
G37*
G36*
X163076246Y-103485780D02*
X163712642Y-102849384D01*
X164066196Y-103202938D01*
X163429800Y-103839334D01*
X163076246Y-103485780D01*
X163076246Y-103485780D01*
G37*
G36*
X164136906Y-104546440D02*
X164773302Y-103910044D01*
X165126856Y-104263598D01*
X164490460Y-104899994D01*
X164136906Y-104546440D01*
X164136906Y-104546440D01*
G37*
G36*
X137676246Y-103485780D02*
X138312642Y-102849384D01*
X138666196Y-103202938D01*
X138029800Y-103839334D01*
X137676246Y-103485780D01*
X137676246Y-103485780D01*
G37*
G36*
X138736906Y-104546440D02*
X139373302Y-103910044D01*
X139726856Y-104263598D01*
X139090460Y-104899994D01*
X138736906Y-104546440D01*
X138736906Y-104546440D01*
G37*
G36*
X112276246Y-103485780D02*
X112912642Y-102849384D01*
X113266196Y-103202938D01*
X112629800Y-103839334D01*
X112276246Y-103485780D01*
X112276246Y-103485780D01*
G37*
G36*
X113336906Y-104546440D02*
X113973302Y-103910044D01*
X114326856Y-104263598D01*
X113690460Y-104899994D01*
X113336906Y-104546440D01*
X113336906Y-104546440D01*
G37*
G36*
X86876246Y-103485780D02*
X87512642Y-102849384D01*
X87866196Y-103202938D01*
X87229800Y-103839334D01*
X86876246Y-103485780D01*
X86876246Y-103485780D01*
G37*
G36*
X87936906Y-104546440D02*
X88573302Y-103910044D01*
X88926856Y-104263598D01*
X88290460Y-104899994D01*
X87936906Y-104546440D01*
X87936906Y-104546440D01*
G37*
G36*
X160077559Y-99320367D02*
X159547229Y-99850697D01*
X158981543Y-99285011D01*
X159511873Y-98754681D01*
X160077559Y-99320367D01*
X160077559Y-99320367D01*
G37*
G36*
X161138219Y-100381027D02*
X160607889Y-100911357D01*
X160042203Y-100345671D01*
X160572533Y-99815341D01*
X161138219Y-100381027D01*
X161138219Y-100381027D01*
G37*
G36*
X134677559Y-99320367D02*
X134147229Y-99850697D01*
X133581543Y-99285011D01*
X134111873Y-98754681D01*
X134677559Y-99320367D01*
X134677559Y-99320367D01*
G37*
G36*
X135738219Y-100381027D02*
X135207889Y-100911357D01*
X134642203Y-100345671D01*
X135172533Y-99815341D01*
X135738219Y-100381027D01*
X135738219Y-100381027D01*
G37*
G36*
X109277559Y-99320367D02*
X108747229Y-99850697D01*
X108181543Y-99285011D01*
X108711873Y-98754681D01*
X109277559Y-99320367D01*
X109277559Y-99320367D01*
G37*
G36*
X110338219Y-100381027D02*
X109807889Y-100911357D01*
X109242203Y-100345671D01*
X109772533Y-99815341D01*
X110338219Y-100381027D01*
X110338219Y-100381027D01*
G37*
G36*
X83877559Y-99320367D02*
X83347229Y-99850697D01*
X82781543Y-99285011D01*
X83311873Y-98754681D01*
X83877559Y-99320367D01*
X83877559Y-99320367D01*
G37*
G36*
X84938219Y-100381027D02*
X84407889Y-100911357D01*
X83842203Y-100345671D01*
X84372533Y-99815341D01*
X84938219Y-100381027D01*
X84938219Y-100381027D01*
G37*
G36*
X157502203Y-97805671D02*
X158032533Y-97275341D01*
X158598219Y-97841027D01*
X158067889Y-98371357D01*
X157502203Y-97805671D01*
X157502203Y-97805671D01*
G37*
G36*
X156441543Y-96745011D02*
X156971873Y-96214681D01*
X157537559Y-96780367D01*
X157007229Y-97310697D01*
X156441543Y-96745011D01*
X156441543Y-96745011D01*
G37*
G36*
X132102203Y-97805671D02*
X132632533Y-97275341D01*
X133198219Y-97841027D01*
X132667889Y-98371357D01*
X132102203Y-97805671D01*
X132102203Y-97805671D01*
G37*
G36*
X131041543Y-96745011D02*
X131571873Y-96214681D01*
X132137559Y-96780367D01*
X131607229Y-97310697D01*
X131041543Y-96745011D01*
X131041543Y-96745011D01*
G37*
G36*
X106702203Y-97805671D02*
X107232533Y-97275341D01*
X107798219Y-97841027D01*
X107267889Y-98371357D01*
X106702203Y-97805671D01*
X106702203Y-97805671D01*
G37*
G36*
X105641543Y-96745011D02*
X106171873Y-96214681D01*
X106737559Y-96780367D01*
X106207229Y-97310697D01*
X105641543Y-96745011D01*
X105641543Y-96745011D01*
G37*
G36*
X81302203Y-97805671D02*
X81832533Y-97275341D01*
X82398219Y-97841027D01*
X81867889Y-98371357D01*
X81302203Y-97805671D01*
X81302203Y-97805671D01*
G37*
G36*
X80241543Y-96745011D02*
X80771873Y-96214681D01*
X81337559Y-96780367D01*
X80807229Y-97310697D01*
X80241543Y-96745011D01*
X80241543Y-96745011D01*
G37*
G36*
X173643139Y-97773781D02*
X174420829Y-98551471D01*
X173077383Y-99894917D01*
X172299693Y-99117227D01*
X173643139Y-97773781D01*
X173643139Y-97773781D01*
G37*
G36*
X171028089Y-100388831D02*
X171805779Y-101166521D01*
X170462333Y-102509967D01*
X169684643Y-101732277D01*
X171028089Y-100388831D01*
X171028089Y-100388831D01*
G37*
G36*
X172651719Y-102012461D02*
X173429409Y-102790151D01*
X172085963Y-104133597D01*
X171308273Y-103355907D01*
X172651719Y-102012461D01*
X172651719Y-102012461D01*
G37*
G36*
X175266769Y-99397411D02*
X176044459Y-100175101D01*
X174701013Y-101518547D01*
X173923323Y-100740857D01*
X175266769Y-99397411D01*
X175266769Y-99397411D01*
G37*
G36*
X148243139Y-97773781D02*
X149020829Y-98551471D01*
X147677383Y-99894917D01*
X146899693Y-99117227D01*
X148243139Y-97773781D01*
X148243139Y-97773781D01*
G37*
G36*
X145628089Y-100388831D02*
X146405779Y-101166521D01*
X145062333Y-102509967D01*
X144284643Y-101732277D01*
X145628089Y-100388831D01*
X145628089Y-100388831D01*
G37*
G36*
X147251719Y-102012461D02*
X148029409Y-102790151D01*
X146685963Y-104133597D01*
X145908273Y-103355907D01*
X147251719Y-102012461D01*
X147251719Y-102012461D01*
G37*
G36*
X149866769Y-99397411D02*
X150644459Y-100175101D01*
X149301013Y-101518547D01*
X148523323Y-100740857D01*
X149866769Y-99397411D01*
X149866769Y-99397411D01*
G37*
G36*
X122843139Y-97773781D02*
X123620829Y-98551471D01*
X122277383Y-99894917D01*
X121499693Y-99117227D01*
X122843139Y-97773781D01*
X122843139Y-97773781D01*
G37*
G36*
X120228089Y-100388831D02*
X121005779Y-101166521D01*
X119662333Y-102509967D01*
X118884643Y-101732277D01*
X120228089Y-100388831D01*
X120228089Y-100388831D01*
G37*
G36*
X121851719Y-102012461D02*
X122629409Y-102790151D01*
X121285963Y-104133597D01*
X120508273Y-103355907D01*
X121851719Y-102012461D01*
X121851719Y-102012461D01*
G37*
G36*
X124466769Y-99397411D02*
X125244459Y-100175101D01*
X123901013Y-101518547D01*
X123123323Y-100740857D01*
X124466769Y-99397411D01*
X124466769Y-99397411D01*
G37*
G36*
X97443139Y-97773781D02*
X98220829Y-98551471D01*
X96877383Y-99894917D01*
X96099693Y-99117227D01*
X97443139Y-97773781D01*
X97443139Y-97773781D01*
G37*
G36*
X94828089Y-100388831D02*
X95605779Y-101166521D01*
X94262333Y-102509967D01*
X93484643Y-101732277D01*
X94828089Y-100388831D01*
X94828089Y-100388831D01*
G37*
G36*
X96451719Y-102012461D02*
X97229409Y-102790151D01*
X95885963Y-104133597D01*
X95108273Y-103355907D01*
X96451719Y-102012461D01*
X96451719Y-102012461D01*
G37*
G36*
X99066769Y-99397411D02*
X99844459Y-100175101D01*
X98501013Y-101518547D01*
X97723323Y-100740857D01*
X99066769Y-99397411D01*
X99066769Y-99397411D01*
G37*
G36*
X157873899Y-90014011D02*
X158404229Y-90544341D01*
X157838543Y-91110027D01*
X157308213Y-90579697D01*
X157873899Y-90014011D01*
X157873899Y-90014011D01*
G37*
G36*
X158934559Y-88953351D02*
X159464889Y-89483681D01*
X158899203Y-90049367D01*
X158368873Y-89519037D01*
X158934559Y-88953351D01*
X158934559Y-88953351D01*
G37*
G36*
X132473899Y-90014011D02*
X133004229Y-90544341D01*
X132438543Y-91110027D01*
X131908213Y-90579697D01*
X132473899Y-90014011D01*
X132473899Y-90014011D01*
G37*
G36*
X133534559Y-88953351D02*
X134064889Y-89483681D01*
X133499203Y-90049367D01*
X132968873Y-89519037D01*
X133534559Y-88953351D01*
X133534559Y-88953351D01*
G37*
G36*
X107073899Y-90014011D02*
X107604229Y-90544341D01*
X107038543Y-91110027D01*
X106508213Y-90579697D01*
X107073899Y-90014011D01*
X107073899Y-90014011D01*
G37*
G36*
X108134559Y-88953351D02*
X108664889Y-89483681D01*
X108099203Y-90049367D01*
X107568873Y-89519037D01*
X108134559Y-88953351D01*
X108134559Y-88953351D01*
G37*
G36*
X81673899Y-90014011D02*
X82204229Y-90544341D01*
X81638543Y-91110027D01*
X81108213Y-90579697D01*
X81673899Y-90014011D01*
X81673899Y-90014011D01*
G37*
G36*
X82734559Y-88953351D02*
X83264889Y-89483681D01*
X82699203Y-90049367D01*
X82168873Y-89519037D01*
X82734559Y-88953351D01*
X82734559Y-88953351D01*
G37*
D18*
X160418551Y-110369469D03*
X159770851Y-110369469D03*
X161716491Y-110369469D03*
X161066251Y-110369469D03*
D19*
X156420591Y-113018689D03*
X164416511Y-113018689D03*
D20*
X159148551Y-113018689D03*
X161688551Y-113018689D03*
D18*
X159120611Y-110369469D03*
X135018551Y-110369469D03*
X134370851Y-110369469D03*
X136316491Y-110369469D03*
X135666251Y-110369469D03*
D19*
X131020591Y-113018689D03*
X139016511Y-113018689D03*
D20*
X133748551Y-113018689D03*
X136288551Y-113018689D03*
D18*
X133720611Y-110369469D03*
X109618551Y-110369469D03*
X108970851Y-110369469D03*
X110916491Y-110369469D03*
X110266251Y-110369469D03*
D19*
X105620591Y-113018689D03*
X113616511Y-113018689D03*
D20*
X108348551Y-113018689D03*
X110888551Y-113018689D03*
D18*
X108320611Y-110369469D03*
X84218551Y-110369469D03*
X83570851Y-110369469D03*
X85516491Y-110369469D03*
X84866251Y-110369469D03*
D19*
X80220591Y-113018689D03*
X88216511Y-113018689D03*
D20*
X82948551Y-113018689D03*
X85488551Y-113018689D03*
D18*
X82920611Y-110369469D03*
D17*
X163617551Y-108192689D03*
X165117551Y-108192689D03*
X138217551Y-108192689D03*
X139717551Y-108192689D03*
X112817551Y-108192689D03*
X114317551Y-108192689D03*
X87417551Y-108192689D03*
X88917551Y-108192689D03*
D12*
X158132551Y-105894689D03*
X158132551Y-104394689D03*
X132732551Y-105894689D03*
X132732551Y-104394689D03*
X107332551Y-105894689D03*
X107332551Y-104394689D03*
X81932551Y-105894689D03*
X81932551Y-104394689D03*
X160164551Y-105894689D03*
X160164551Y-104394689D03*
X134764551Y-105894689D03*
X134764551Y-104394689D03*
X109364551Y-105894689D03*
X109364551Y-104394689D03*
X83964551Y-105894689D03*
X83964551Y-104394689D03*
D10*
G36*
X169707229Y-103616037D02*
X169176899Y-104146367D01*
X168611213Y-103580681D01*
X169141543Y-103050351D01*
X169707229Y-103616037D01*
X169707229Y-103616037D01*
G37*
G36*
X170767889Y-104676697D02*
X170237559Y-105207027D01*
X169671873Y-104641341D01*
X170202203Y-104111011D01*
X170767889Y-104676697D01*
X170767889Y-104676697D01*
G37*
G36*
X144307229Y-103616037D02*
X143776899Y-104146367D01*
X143211213Y-103580681D01*
X143741543Y-103050351D01*
X144307229Y-103616037D01*
X144307229Y-103616037D01*
G37*
G36*
X145367889Y-104676697D02*
X144837559Y-105207027D01*
X144271873Y-104641341D01*
X144802203Y-104111011D01*
X145367889Y-104676697D01*
X145367889Y-104676697D01*
G37*
G36*
X118907229Y-103616037D02*
X118376899Y-104146367D01*
X117811213Y-103580681D01*
X118341543Y-103050351D01*
X118907229Y-103616037D01*
X118907229Y-103616037D01*
G37*
G36*
X119967889Y-104676697D02*
X119437559Y-105207027D01*
X118871873Y-104641341D01*
X119402203Y-104111011D01*
X119967889Y-104676697D01*
X119967889Y-104676697D01*
G37*
G36*
X93507229Y-103616037D02*
X92976899Y-104146367D01*
X92411213Y-103580681D01*
X92941543Y-103050351D01*
X93507229Y-103616037D01*
X93507229Y-103616037D01*
G37*
G36*
X94567889Y-104676697D02*
X94037559Y-105207027D01*
X93471873Y-104641341D01*
X94002203Y-104111011D01*
X94567889Y-104676697D01*
X94567889Y-104676697D01*
G37*
D16*
X170322011Y-113018689D03*
X173629091Y-113018689D03*
X144922011Y-113018689D03*
X148229091Y-113018689D03*
X119522011Y-113018689D03*
X122829091Y-113018689D03*
X94122011Y-113018689D03*
X97429091Y-113018689D03*
D15*
X171152551Y-109800689D03*
X172102551Y-109800689D03*
X173052551Y-109800689D03*
X173052551Y-107600689D03*
X171152551Y-107600689D03*
X145752551Y-109800689D03*
X146702551Y-109800689D03*
X147652551Y-109800689D03*
X147652551Y-107600689D03*
X145752551Y-107600689D03*
X120352551Y-109800689D03*
X121302551Y-109800689D03*
X122252551Y-109800689D03*
X122252551Y-107600689D03*
X120352551Y-107600689D03*
X94952551Y-109800689D03*
X95902551Y-109800689D03*
X96852551Y-109800689D03*
X96852551Y-107600689D03*
X94952551Y-107600689D03*
D14*
X168292551Y-107428149D03*
X168292551Y-110227229D03*
X142892551Y-107428149D03*
X142892551Y-110227229D03*
X117492551Y-107428149D03*
X117492551Y-110227229D03*
X92092551Y-107428149D03*
X92092551Y-110227229D03*
D12*
X161180551Y-81129689D03*
X161180551Y-79629689D03*
X135780551Y-81129689D03*
X135780551Y-79629689D03*
X110380551Y-81129689D03*
X110380551Y-79629689D03*
X84980551Y-81129689D03*
X84980551Y-79629689D03*
X59580551Y-81129689D03*
X59580551Y-79629689D03*
X61866551Y-77573689D03*
X61866551Y-76073689D03*
D13*
X64246551Y-78474689D03*
X64246551Y-79744689D03*
X64246551Y-81014689D03*
X64246551Y-82284689D03*
X69646551Y-82284689D03*
X69646551Y-81014689D03*
X69646551Y-79744689D03*
X69646551Y-78474689D03*
D11*
X61739551Y-84546689D03*
X61739551Y-83046689D03*
X61739551Y-81129689D03*
X61739551Y-79629689D03*
D10*
G36*
X72043139Y-97773781D02*
X72820829Y-98551471D01*
X71477383Y-99894917D01*
X70699693Y-99117227D01*
X72043139Y-97773781D01*
X72043139Y-97773781D01*
G37*
G36*
X69428089Y-100388831D02*
X70205779Y-101166521D01*
X68862333Y-102509967D01*
X68084643Y-101732277D01*
X69428089Y-100388831D01*
X69428089Y-100388831D01*
G37*
G36*
X71051719Y-102012461D02*
X71829409Y-102790151D01*
X70485963Y-104133597D01*
X69708273Y-103355907D01*
X71051719Y-102012461D01*
X71051719Y-102012461D01*
G37*
G36*
X73666769Y-99397411D02*
X74444459Y-100175101D01*
X73101013Y-101518547D01*
X72323323Y-100740857D01*
X73666769Y-99397411D01*
X73666769Y-99397411D01*
G37*
G36*
X61476246Y-103485780D02*
X62112642Y-102849384D01*
X62466196Y-103202938D01*
X61829800Y-103839334D01*
X61476246Y-103485780D01*
X61476246Y-103485780D01*
G37*
G36*
X62536906Y-104546440D02*
X63173302Y-103910044D01*
X63526856Y-104263598D01*
X62890460Y-104899994D01*
X62536906Y-104546440D01*
X62536906Y-104546440D01*
G37*
G36*
X68107229Y-103616037D02*
X67576899Y-104146367D01*
X67011213Y-103580681D01*
X67541543Y-103050351D01*
X68107229Y-103616037D01*
X68107229Y-103616037D01*
G37*
G36*
X69167889Y-104676697D02*
X68637559Y-105207027D01*
X68071873Y-104641341D01*
X68602203Y-104111011D01*
X69167889Y-104676697D01*
X69167889Y-104676697D01*
G37*
G36*
X74294873Y-98164341D02*
X74825203Y-97634011D01*
X75390889Y-98199697D01*
X74860559Y-98730027D01*
X74294873Y-98164341D01*
X74294873Y-98164341D01*
G37*
G36*
X73234213Y-97103681D02*
X73764543Y-96573351D01*
X74330229Y-97139037D01*
X73799899Y-97669367D01*
X73234213Y-97103681D01*
X73234213Y-97103681D01*
G37*
G36*
X56273899Y-90014011D02*
X56804229Y-90544341D01*
X56238543Y-91110027D01*
X55708213Y-90579697D01*
X56273899Y-90014011D01*
X56273899Y-90014011D01*
G37*
G36*
X57334559Y-88953351D02*
X57864889Y-89483681D01*
X57299203Y-90049367D01*
X56768873Y-89519037D01*
X57334559Y-88953351D01*
X57334559Y-88953351D01*
G37*
G36*
X55902203Y-97805671D02*
X56432533Y-97275341D01*
X56998219Y-97841027D01*
X56467889Y-98371357D01*
X55902203Y-97805671D01*
X55902203Y-97805671D01*
G37*
G36*
X54841543Y-96745011D02*
X55371873Y-96214681D01*
X55937559Y-96780367D01*
X55407229Y-97310697D01*
X54841543Y-96745011D01*
X54841543Y-96745011D01*
G37*
G36*
X57506359Y-95947937D02*
X57154333Y-95595911D01*
X58214003Y-94536241D01*
X58566029Y-94888267D01*
X57506359Y-95947937D01*
X57506359Y-95947937D01*
G37*
G36*
X58072116Y-96513693D02*
X57720090Y-96161667D01*
X58779760Y-95101997D01*
X59131786Y-95454023D01*
X58072116Y-96513693D01*
X58072116Y-96513693D01*
G37*
G36*
X58637872Y-97079450D02*
X58285846Y-96727424D01*
X59345516Y-95667754D01*
X59697542Y-96019780D01*
X58637872Y-97079450D01*
X58637872Y-97079450D01*
G37*
G36*
X59203628Y-97645206D02*
X58851602Y-97293180D01*
X59911272Y-96233510D01*
X60263298Y-96585536D01*
X59203628Y-97645206D01*
X59203628Y-97645206D01*
G37*
G36*
X59769384Y-98210962D02*
X59417358Y-97858936D01*
X60477028Y-96799266D01*
X60829054Y-97151292D01*
X59769384Y-98210962D01*
X59769384Y-98210962D01*
G37*
G36*
X60333344Y-98774922D02*
X59981318Y-98422896D01*
X61040988Y-97363226D01*
X61393014Y-97715252D01*
X60333344Y-98774922D01*
X60333344Y-98774922D01*
G37*
G36*
X60897304Y-99338882D02*
X60545278Y-98986856D01*
X61604948Y-97927186D01*
X61956974Y-98279212D01*
X60897304Y-99338882D01*
X60897304Y-99338882D01*
G37*
G36*
X61463060Y-99904638D02*
X61111034Y-99552612D01*
X62170704Y-98492942D01*
X62522730Y-98844968D01*
X61463060Y-99904638D01*
X61463060Y-99904638D01*
G37*
G36*
X62028816Y-100470394D02*
X61676790Y-100118368D01*
X62736460Y-99058698D01*
X63088486Y-99410724D01*
X62028816Y-100470394D01*
X62028816Y-100470394D01*
G37*
G36*
X62594573Y-101036150D02*
X62242547Y-100684124D01*
X63302217Y-99624454D01*
X63654243Y-99976480D01*
X62594573Y-101036150D01*
X62594573Y-101036150D01*
G37*
G36*
X63160329Y-101601907D02*
X62808303Y-101249881D01*
X63867973Y-100190211D01*
X64219999Y-100542237D01*
X63160329Y-101601907D01*
X63160329Y-101601907D01*
G37*
G36*
X66414773Y-101601907D02*
X65355103Y-100542237D01*
X65707129Y-100190211D01*
X66766799Y-101249881D01*
X66414773Y-101601907D01*
X66414773Y-101601907D01*
G37*
G36*
X66980529Y-101036150D02*
X65920859Y-99976480D01*
X66272885Y-99624454D01*
X67332555Y-100684124D01*
X66980529Y-101036150D01*
X66980529Y-101036150D01*
G37*
G36*
X67546286Y-100470394D02*
X66486616Y-99410724D01*
X66838642Y-99058698D01*
X67898312Y-100118368D01*
X67546286Y-100470394D01*
X67546286Y-100470394D01*
G37*
G36*
X68112042Y-99904638D02*
X67052372Y-98844968D01*
X67404398Y-98492942D01*
X68464068Y-99552612D01*
X68112042Y-99904638D01*
X68112042Y-99904638D01*
G37*
G36*
X68677798Y-99338882D02*
X67618128Y-98279212D01*
X67970154Y-97927186D01*
X69029824Y-98986856D01*
X68677798Y-99338882D01*
X68677798Y-99338882D01*
G37*
G36*
X69241758Y-98774922D02*
X68182088Y-97715252D01*
X68534114Y-97363226D01*
X69593784Y-98422896D01*
X69241758Y-98774922D01*
X69241758Y-98774922D01*
G37*
G36*
X69805718Y-98210962D02*
X68746048Y-97151292D01*
X69098074Y-96799266D01*
X70157744Y-97858936D01*
X69805718Y-98210962D01*
X69805718Y-98210962D01*
G37*
G36*
X70371474Y-97645206D02*
X69311804Y-96585536D01*
X69663830Y-96233510D01*
X70723500Y-97293180D01*
X70371474Y-97645206D01*
X70371474Y-97645206D01*
G37*
G36*
X70937230Y-97079450D02*
X69877560Y-96019780D01*
X70229586Y-95667754D01*
X71289256Y-96727424D01*
X70937230Y-97079450D01*
X70937230Y-97079450D01*
G37*
G36*
X71502986Y-96513693D02*
X70443316Y-95454023D01*
X70795342Y-95101997D01*
X71855012Y-96161667D01*
X71502986Y-96513693D01*
X71502986Y-96513693D01*
G37*
G36*
X72068743Y-95947937D02*
X71009073Y-94888267D01*
X71361099Y-94536241D01*
X72420769Y-95595911D01*
X72068743Y-95947937D01*
X72068743Y-95947937D01*
G37*
G36*
X71361099Y-93401137D02*
X71009073Y-93049111D01*
X72068743Y-91989441D01*
X72420769Y-92341467D01*
X71361099Y-93401137D01*
X71361099Y-93401137D01*
G37*
G36*
X70795342Y-92835381D02*
X70443316Y-92483355D01*
X71502986Y-91423685D01*
X71855012Y-91775711D01*
X70795342Y-92835381D01*
X70795342Y-92835381D01*
G37*
G36*
X70229586Y-92269624D02*
X69877560Y-91917598D01*
X70937230Y-90857928D01*
X71289256Y-91209954D01*
X70229586Y-92269624D01*
X70229586Y-92269624D01*
G37*
G36*
X69663830Y-91703868D02*
X69311804Y-91351842D01*
X70371474Y-90292172D01*
X70723500Y-90644198D01*
X69663830Y-91703868D01*
X69663830Y-91703868D01*
G37*
G36*
X69098074Y-91138112D02*
X68746048Y-90786086D01*
X69805718Y-89726416D01*
X70157744Y-90078442D01*
X69098074Y-91138112D01*
X69098074Y-91138112D01*
G37*
G36*
X68534114Y-90574152D02*
X68182088Y-90222126D01*
X69241758Y-89162456D01*
X69593784Y-89514482D01*
X68534114Y-90574152D01*
X68534114Y-90574152D01*
G37*
G36*
X67970154Y-90010192D02*
X67618128Y-89658166D01*
X68677798Y-88598496D01*
X69029824Y-88950522D01*
X67970154Y-90010192D01*
X67970154Y-90010192D01*
G37*
G36*
X67404398Y-89444436D02*
X67052372Y-89092410D01*
X68112042Y-88032740D01*
X68464068Y-88384766D01*
X67404398Y-89444436D01*
X67404398Y-89444436D01*
G37*
G36*
X66838642Y-88878680D02*
X66486616Y-88526654D01*
X67546286Y-87466984D01*
X67898312Y-87819010D01*
X66838642Y-88878680D01*
X66838642Y-88878680D01*
G37*
G36*
X66272885Y-88312924D02*
X65920859Y-87960898D01*
X66980529Y-86901228D01*
X67332555Y-87253254D01*
X66272885Y-88312924D01*
X66272885Y-88312924D01*
G37*
G36*
X65707129Y-87747167D02*
X65355103Y-87395141D01*
X66414773Y-86335471D01*
X66766799Y-86687497D01*
X65707129Y-87747167D01*
X65707129Y-87747167D01*
G37*
G36*
X63867973Y-87747167D02*
X62808303Y-86687497D01*
X63160329Y-86335471D01*
X64219999Y-87395141D01*
X63867973Y-87747167D01*
X63867973Y-87747167D01*
G37*
G36*
X63302217Y-88312924D02*
X62242547Y-87253254D01*
X62594573Y-86901228D01*
X63654243Y-87960898D01*
X63302217Y-88312924D01*
X63302217Y-88312924D01*
G37*
G36*
X62736460Y-88878680D02*
X61676790Y-87819010D01*
X62028816Y-87466984D01*
X63088486Y-88526654D01*
X62736460Y-88878680D01*
X62736460Y-88878680D01*
G37*
G36*
X62170704Y-89444436D02*
X61111034Y-88384766D01*
X61463060Y-88032740D01*
X62522730Y-89092410D01*
X62170704Y-89444436D01*
X62170704Y-89444436D01*
G37*
G36*
X61604948Y-90010192D02*
X60545278Y-88950522D01*
X60897304Y-88598496D01*
X61956974Y-89658166D01*
X61604948Y-90010192D01*
X61604948Y-90010192D01*
G37*
G36*
X61040988Y-90574152D02*
X59981318Y-89514482D01*
X60333344Y-89162456D01*
X61393014Y-90222126D01*
X61040988Y-90574152D01*
X61040988Y-90574152D01*
G37*
G36*
X60477028Y-91138112D02*
X59417358Y-90078442D01*
X59769384Y-89726416D01*
X60829054Y-90786086D01*
X60477028Y-91138112D01*
X60477028Y-91138112D01*
G37*
G36*
X59911272Y-91703868D02*
X58851602Y-90644198D01*
X59203628Y-90292172D01*
X60263298Y-91351842D01*
X59911272Y-91703868D01*
X59911272Y-91703868D01*
G37*
G36*
X59345516Y-92269624D02*
X58285846Y-91209954D01*
X58637872Y-90857928D01*
X59697542Y-91917598D01*
X59345516Y-92269624D01*
X59345516Y-92269624D01*
G37*
G36*
X58779760Y-92835381D02*
X57720090Y-91775711D01*
X58072116Y-91423685D01*
X59131786Y-92483355D01*
X58779760Y-92835381D01*
X58779760Y-92835381D01*
G37*
G36*
X58214003Y-93401137D02*
X57154333Y-92341467D01*
X57506359Y-91989441D01*
X58566029Y-93049111D01*
X58214003Y-93401137D01*
X58214003Y-93401137D01*
G37*
G36*
X58477559Y-99320367D02*
X57947229Y-99850697D01*
X57381543Y-99285011D01*
X57911873Y-98754681D01*
X58477559Y-99320367D01*
X58477559Y-99320367D01*
G37*
G36*
X59538219Y-100381027D02*
X59007889Y-100911357D01*
X58442203Y-100345671D01*
X58972533Y-99815341D01*
X59538219Y-100381027D01*
X59538219Y-100381027D01*
G37*
D15*
X69552551Y-109800689D03*
X70502551Y-109800689D03*
X71452551Y-109800689D03*
X71452551Y-107600689D03*
X69552551Y-107600689D03*
D14*
X66692551Y-107428149D03*
X66692551Y-110227229D03*
X74312551Y-107303689D03*
X74312551Y-110102769D03*
D16*
X68722011Y-113018689D03*
X72029091Y-113018689D03*
D12*
X58564551Y-105894689D03*
X58564551Y-104394689D03*
D18*
X58818551Y-110369469D03*
X58170851Y-110369469D03*
X60116491Y-110369469D03*
X59466251Y-110369469D03*
D19*
X54820591Y-113018689D03*
X62816511Y-113018689D03*
D20*
X57548551Y-113018689D03*
X60088551Y-113018689D03*
D18*
X57520611Y-110369469D03*
D17*
X62017551Y-108192689D03*
X63517551Y-108192689D03*
D12*
X56532551Y-105894689D03*
X56532551Y-104394689D03*
M02*
