M48
;DRILL file {KiCad 4.0.6} date 11/21/17 13:18:42
;FORMAT={-:-/ absolute / inch / decimal}
FMAT,2
INCH,TZ
T1C0.016
T2C0.040
T3C0.047
%
G90
G05
M72
T1
X2.1607Y-3.6196
X2.1957Y-4.2996
X2.2257Y-4.0296
X2.3057Y-4.0296
X2.3657Y-3.7496
X2.3657Y-4.2446
X2.3757Y-3.2696
X2.4107Y-3.7496
X2.4857Y-3.8496
X2.4957Y-4.0546
X2.5007Y-4.2196
X2.5557Y-3.8996
X2.5807Y-3.8146
X2.6057Y-3.1896
X2.6157Y-4.4496
X2.6357Y-3.2396
X2.6757Y-3.1396
X2.6857Y-3.9696
X2.6857Y-4.2846
X2.6907Y-4.0496
X2.7107Y-3.9446
X2.7407Y-3.3296
X2.8657Y-4.3646
X3.1607Y-3.6196
X3.1957Y-4.2996
X3.2257Y-4.0296
X3.3057Y-4.0296
X3.3657Y-3.7496
X3.3657Y-4.2446
X3.3757Y-3.2696
X3.4107Y-3.7496
X3.4857Y-3.8496
X3.4957Y-4.0546
X3.5007Y-4.2196
X3.5557Y-3.8996
X3.5807Y-3.8146
X3.6057Y-3.1896
X3.6157Y-4.4496
X3.6357Y-3.2396
X3.6757Y-3.1396
X3.6857Y-3.9696
X3.6857Y-4.2846
X3.6907Y-4.0496
X3.7107Y-3.9446
X3.7407Y-3.3296
X3.8657Y-4.3646
X4.1607Y-3.6196
X4.1957Y-4.2996
X4.2257Y-4.0296
X4.3057Y-4.0296
X4.3657Y-3.7496
X4.3657Y-4.2446
X4.3757Y-3.2696
X4.4107Y-3.7496
X4.4857Y-3.8496
X4.4957Y-4.0546
X4.5007Y-4.2196
X4.5557Y-3.8996
X4.5807Y-3.8146
X4.6057Y-3.1896
X4.6157Y-4.4496
X4.6357Y-3.2396
X4.6757Y-3.1396
X4.6857Y-3.9696
X4.6857Y-4.2846
X4.6907Y-4.0496
X4.7107Y-3.9446
X4.7407Y-3.3296
X4.8657Y-4.3646
X5.1607Y-3.6196
X5.1957Y-4.2996
X5.2257Y-4.0296
X5.3057Y-4.0296
X5.3657Y-3.7496
X5.3657Y-4.2446
X5.3757Y-3.2696
X5.4107Y-3.7496
X5.4857Y-3.8496
X5.4957Y-4.0546
X5.5007Y-4.2196
X5.5557Y-3.8996
X5.5807Y-3.8146
X5.6057Y-3.1896
X5.6157Y-4.4496
X5.6357Y-3.2396
X5.6757Y-3.1396
X5.6857Y-3.9696
X5.6857Y-4.2846
X5.6907Y-4.0496
X5.7107Y-3.9446
X5.7407Y-3.3296
X5.8657Y-4.3646
X6.1607Y-3.6196
X6.1957Y-4.2996
X6.2257Y-4.0296
X6.3057Y-4.0296
X6.3657Y-3.7496
X6.3657Y-4.2446
X6.3757Y-3.2696
X6.4107Y-3.7496
X6.4857Y-3.8496
X6.4957Y-4.0546
X6.5007Y-4.2196
X6.5557Y-3.8996
X6.5807Y-3.8146
X6.6057Y-3.1896
X6.6157Y-4.4496
X6.6357Y-3.2396
X6.6757Y-3.1396
X6.6857Y-3.9696
X6.6857Y-4.2846
X6.6907Y-4.0496
X6.7107Y-3.9446
X6.7407Y-3.3296
X6.8657Y-4.3646
X7.1607Y-3.6196
X7.1957Y-4.2996
X7.2257Y-4.0296
X7.3057Y-4.0296
X7.3657Y-3.7496
X7.3657Y-4.2446
X7.3757Y-3.2696
X7.4107Y-3.7496
X7.4857Y-3.8496
X7.4957Y-4.0546
X7.5007Y-4.2196
X7.5557Y-3.8996
X7.5807Y-3.8146
X7.6057Y-3.1896
X7.6157Y-4.4496
X7.6357Y-3.2396
X7.6757Y-3.1396
X7.6857Y-3.9696
X7.6857Y-4.2846
X7.6907Y-4.0496
X7.7107Y-3.9446
X7.7407Y-3.3296
X7.8657Y-4.3646
X8.1607Y-3.6196
X8.1957Y-4.2996
X8.2257Y-4.0296
X8.3057Y-4.0296
X8.3657Y-3.7496
X8.3657Y-4.2446
X8.3757Y-3.2696
X8.4107Y-3.7496
X8.4857Y-3.8496
X8.4957Y-4.0546
X8.5007Y-4.2196
X8.5557Y-3.8996
X8.5807Y-3.8146
X8.6057Y-3.1896
X8.6157Y-4.4496
X8.6357Y-3.2396
X8.6757Y-3.1396
X8.6857Y-3.9696
X8.6857Y-4.2846
X8.6907Y-4.0496
X8.7107Y-3.9446
X8.7407Y-3.3296
X8.8657Y-4.3646
X9.1607Y-3.6196
X9.1957Y-4.2996
X9.2257Y-4.0296
X9.3057Y-4.0296
X9.3657Y-3.7496
X9.3657Y-4.2446
X9.3757Y-3.2696
X9.4107Y-3.7496
X9.4857Y-3.8496
X9.4957Y-4.0546
X9.5007Y-4.2196
X9.5557Y-3.8996
X9.5807Y-3.8146
X9.6057Y-3.1896
X9.6157Y-4.4496
X9.6357Y-3.2396
X9.6757Y-3.1396
X9.6857Y-3.9696
X9.6857Y-4.2846
X9.6907Y-4.0496
X9.7107Y-3.9446
X9.7407Y-3.3296
X9.8657Y-4.3646
T2
X2.1507Y-2.8996
X2.1507Y-2.9996
X2.1507Y-3.0996
X2.1507Y-3.1996
X2.1507Y-3.2996
X2.1507Y-3.3996
X2.9507Y-2.8996
X2.9507Y-2.9996
X2.9507Y-3.0996
X2.9507Y-3.1996
X2.9507Y-3.2996
X2.9507Y-3.3996
X3.1507Y-2.8996
X3.1507Y-2.9996
X3.1507Y-3.0996
X3.1507Y-3.1996
X3.1507Y-3.2996
X3.1507Y-3.3996
X3.9507Y-2.8996
X3.9507Y-2.9996
X3.9507Y-3.0996
X3.9507Y-3.1996
X3.9507Y-3.2996
X3.9507Y-3.3996
X4.1507Y-2.8996
X4.1507Y-2.9996
X4.1507Y-3.0996
X4.1507Y-3.1996
X4.1507Y-3.2996
X4.1507Y-3.3996
X4.9507Y-2.8996
X4.9507Y-2.9996
X4.9507Y-3.0996
X4.9507Y-3.1996
X4.9507Y-3.2996
X4.9507Y-3.3996
X5.1507Y-2.8996
X5.1507Y-2.9996
X5.1507Y-3.0996
X5.1507Y-3.1996
X5.1507Y-3.2996
X5.1507Y-3.3996
X5.9507Y-2.8996
X5.9507Y-2.9996
X5.9507Y-3.0996
X5.9507Y-3.1996
X5.9507Y-3.2996
X5.9507Y-3.3996
X6.1507Y-2.8996
X6.1507Y-2.9996
X6.1507Y-3.0996
X6.1507Y-3.1996
X6.1507Y-3.2996
X6.1507Y-3.3996
X6.9507Y-2.8996
X6.9507Y-2.9996
X6.9507Y-3.0996
X6.9507Y-3.1996
X6.9507Y-3.2996
X6.9507Y-3.3996
X7.1507Y-2.8996
X7.1507Y-2.9996
X7.1507Y-3.0996
X7.1507Y-3.1996
X7.1507Y-3.2996
X7.1507Y-3.3996
X7.9507Y-2.8996
X7.9507Y-2.9996
X7.9507Y-3.0996
X7.9507Y-3.1996
X7.9507Y-3.2996
X7.9507Y-3.3996
X8.1507Y-2.8996
X8.1507Y-2.9996
X8.1507Y-3.0996
X8.1507Y-3.1996
X8.1507Y-3.2996
X8.1507Y-3.3996
X8.9507Y-2.8996
X8.9507Y-2.9996
X8.9507Y-3.0996
X8.9507Y-3.1996
X8.9507Y-3.2996
X8.9507Y-3.3996
X9.1507Y-2.8996
X9.1507Y-2.9996
X9.1507Y-3.0996
X9.1507Y-3.1996
X9.1507Y-3.2996
X9.1507Y-3.3996
X9.9507Y-2.8996
X9.9507Y-2.9996
X9.9507Y-3.0996
X9.9507Y-3.1996
X9.9507Y-3.2996
X9.9507Y-3.3996
T3
X2.3407Y-2.7946
X2.4784Y-2.7946
X2.6162Y-2.7946
X2.754Y-2.7946
X3.3407Y-2.7946
X3.4784Y-2.7946
X3.6162Y-2.7946
X3.754Y-2.7946
X4.3407Y-2.7946
X4.4784Y-2.7946
X4.6162Y-2.7946
X4.754Y-2.7946
X5.3407Y-2.7946
X5.4784Y-2.7946
X5.6162Y-2.7946
X5.754Y-2.7946
X6.3407Y-2.7946
X6.4784Y-2.7946
X6.6162Y-2.7946
X6.754Y-2.7946
X7.3407Y-2.7946
X7.4784Y-2.7946
X7.6162Y-2.7946
X7.754Y-2.7946
X8.3407Y-2.7946
X8.4784Y-2.7946
X8.6162Y-2.7946
X8.754Y-2.7946
X9.3407Y-2.7946
X9.4784Y-2.7946
X9.6162Y-2.7946
X9.754Y-2.7946
T0
M30
