G04 #@! TF.FileFunction,Legend,Top*
%FSLAX46Y46*%
G04 Gerber Fmt 4.6, Leading zero omitted, Abs format (unit mm)*
G04 Created by KiCad (PCBNEW 4.0.6) date 11/21/17 13:18:45*
%MOMM*%
%LPD*%
G01*
G04 APERTURE LIST*
%ADD10C,0.100000*%
%ADD11C,0.300000*%
%ADD12C,0.203200*%
%ADD13C,0.120000*%
%ADD14C,0.150000*%
%ADD15C,0.254000*%
G04 APERTURE END LIST*
D10*
D11*
X250104265Y-65731118D02*
X250604265Y-66445403D01*
X250961408Y-65731118D02*
X250961408Y-67231118D01*
X250389980Y-67231118D01*
X250247122Y-67159689D01*
X250175694Y-67088260D01*
X250104265Y-66945403D01*
X250104265Y-66731118D01*
X250175694Y-66588260D01*
X250247122Y-66516832D01*
X250389980Y-66445403D01*
X250961408Y-66445403D01*
X248747122Y-65731118D02*
X249461408Y-65731118D01*
X249461408Y-67231118D01*
X247961408Y-66445403D02*
X247961408Y-65731118D01*
X248461408Y-67231118D02*
X247961408Y-66445403D01*
X247461408Y-67231118D01*
X245254408Y-67159689D02*
X245397265Y-67231118D01*
X245611551Y-67231118D01*
X245825836Y-67159689D01*
X245968694Y-67016832D01*
X246040122Y-66873975D01*
X246111551Y-66588260D01*
X246111551Y-66373975D01*
X246040122Y-66088260D01*
X245968694Y-65945403D01*
X245825836Y-65802546D01*
X245611551Y-65731118D01*
X245468694Y-65731118D01*
X245254408Y-65802546D01*
X245182979Y-65873975D01*
X245182979Y-66373975D01*
X245468694Y-66373975D01*
X244540122Y-65731118D02*
X244540122Y-67231118D01*
X243682979Y-65731118D01*
X243682979Y-67231118D01*
X242968693Y-65731118D02*
X242968693Y-67231118D01*
X242611550Y-67231118D01*
X242397265Y-67159689D01*
X242254407Y-67016832D01*
X242182979Y-66873975D01*
X242111550Y-66588260D01*
X242111550Y-66373975D01*
X242182979Y-66088260D01*
X242254407Y-65945403D01*
X242397265Y-65802546D01*
X242611550Y-65731118D01*
X242968693Y-65731118D01*
X240642694Y-67231118D02*
X239785551Y-67231118D01*
X240214122Y-65731118D02*
X240214122Y-67231118D01*
X239285551Y-66302546D02*
X238142694Y-66302546D01*
X236705694Y-67231118D02*
X235848551Y-67231118D01*
X236277122Y-65731118D02*
X236277122Y-67231118D01*
X235348551Y-66302546D02*
X234205694Y-66302546D01*
X234777123Y-65731118D02*
X234777123Y-66873975D01*
X211305694Y-67231118D02*
X210448551Y-67231118D01*
X210877122Y-65731118D02*
X210877122Y-67231118D01*
X209948551Y-66302546D02*
X208805694Y-66302546D01*
X209377123Y-65731118D02*
X209377123Y-66873975D01*
X215242694Y-67231118D02*
X214385551Y-67231118D01*
X214814122Y-65731118D02*
X214814122Y-67231118D01*
X213885551Y-66302546D02*
X212742694Y-66302546D01*
X219854408Y-67159689D02*
X219997265Y-67231118D01*
X220211551Y-67231118D01*
X220425836Y-67159689D01*
X220568694Y-67016832D01*
X220640122Y-66873975D01*
X220711551Y-66588260D01*
X220711551Y-66373975D01*
X220640122Y-66088260D01*
X220568694Y-65945403D01*
X220425836Y-65802546D01*
X220211551Y-65731118D01*
X220068694Y-65731118D01*
X219854408Y-65802546D01*
X219782979Y-65873975D01*
X219782979Y-66373975D01*
X220068694Y-66373975D01*
X219140122Y-65731118D02*
X219140122Y-67231118D01*
X218282979Y-65731118D01*
X218282979Y-67231118D01*
X217568693Y-65731118D02*
X217568693Y-67231118D01*
X217211550Y-67231118D01*
X216997265Y-67159689D01*
X216854407Y-67016832D01*
X216782979Y-66873975D01*
X216711550Y-66588260D01*
X216711550Y-66373975D01*
X216782979Y-66088260D01*
X216854407Y-65945403D01*
X216997265Y-65802546D01*
X217211550Y-65731118D01*
X217568693Y-65731118D01*
X224704265Y-65731118D02*
X225204265Y-66445403D01*
X225561408Y-65731118D02*
X225561408Y-67231118D01*
X224989980Y-67231118D01*
X224847122Y-67159689D01*
X224775694Y-67088260D01*
X224704265Y-66945403D01*
X224704265Y-66731118D01*
X224775694Y-66588260D01*
X224847122Y-66516832D01*
X224989980Y-66445403D01*
X225561408Y-66445403D01*
X223347122Y-65731118D02*
X224061408Y-65731118D01*
X224061408Y-67231118D01*
X222561408Y-66445403D02*
X222561408Y-65731118D01*
X223061408Y-67231118D02*
X222561408Y-66445403D01*
X222061408Y-67231118D01*
X185905694Y-67231118D02*
X185048551Y-67231118D01*
X185477122Y-65731118D02*
X185477122Y-67231118D01*
X184548551Y-66302546D02*
X183405694Y-66302546D01*
X183977123Y-65731118D02*
X183977123Y-66873975D01*
X189842694Y-67231118D02*
X188985551Y-67231118D01*
X189414122Y-65731118D02*
X189414122Y-67231118D01*
X188485551Y-66302546D02*
X187342694Y-66302546D01*
X194454408Y-67159689D02*
X194597265Y-67231118D01*
X194811551Y-67231118D01*
X195025836Y-67159689D01*
X195168694Y-67016832D01*
X195240122Y-66873975D01*
X195311551Y-66588260D01*
X195311551Y-66373975D01*
X195240122Y-66088260D01*
X195168694Y-65945403D01*
X195025836Y-65802546D01*
X194811551Y-65731118D01*
X194668694Y-65731118D01*
X194454408Y-65802546D01*
X194382979Y-65873975D01*
X194382979Y-66373975D01*
X194668694Y-66373975D01*
X193740122Y-65731118D02*
X193740122Y-67231118D01*
X192882979Y-65731118D01*
X192882979Y-67231118D01*
X192168693Y-65731118D02*
X192168693Y-67231118D01*
X191811550Y-67231118D01*
X191597265Y-67159689D01*
X191454407Y-67016832D01*
X191382979Y-66873975D01*
X191311550Y-66588260D01*
X191311550Y-66373975D01*
X191382979Y-66088260D01*
X191454407Y-65945403D01*
X191597265Y-65802546D01*
X191811550Y-65731118D01*
X192168693Y-65731118D01*
X199304265Y-65731118D02*
X199804265Y-66445403D01*
X200161408Y-65731118D02*
X200161408Y-67231118D01*
X199589980Y-67231118D01*
X199447122Y-67159689D01*
X199375694Y-67088260D01*
X199304265Y-66945403D01*
X199304265Y-66731118D01*
X199375694Y-66588260D01*
X199447122Y-66516832D01*
X199589980Y-66445403D01*
X200161408Y-66445403D01*
X197947122Y-65731118D02*
X198661408Y-65731118D01*
X198661408Y-67231118D01*
X197161408Y-66445403D02*
X197161408Y-65731118D01*
X197661408Y-67231118D02*
X197161408Y-66445403D01*
X196661408Y-67231118D01*
X173904265Y-65731118D02*
X174404265Y-66445403D01*
X174761408Y-65731118D02*
X174761408Y-67231118D01*
X174189980Y-67231118D01*
X174047122Y-67159689D01*
X173975694Y-67088260D01*
X173904265Y-66945403D01*
X173904265Y-66731118D01*
X173975694Y-66588260D01*
X174047122Y-66516832D01*
X174189980Y-66445403D01*
X174761408Y-66445403D01*
X172547122Y-65731118D02*
X173261408Y-65731118D01*
X173261408Y-67231118D01*
X171761408Y-66445403D02*
X171761408Y-65731118D01*
X172261408Y-67231118D02*
X171761408Y-66445403D01*
X171261408Y-67231118D01*
X148504265Y-65731118D02*
X149004265Y-66445403D01*
X149361408Y-65731118D02*
X149361408Y-67231118D01*
X148789980Y-67231118D01*
X148647122Y-67159689D01*
X148575694Y-67088260D01*
X148504265Y-66945403D01*
X148504265Y-66731118D01*
X148575694Y-66588260D01*
X148647122Y-66516832D01*
X148789980Y-66445403D01*
X149361408Y-66445403D01*
X147147122Y-65731118D02*
X147861408Y-65731118D01*
X147861408Y-67231118D01*
X146361408Y-66445403D02*
X146361408Y-65731118D01*
X146861408Y-67231118D02*
X146361408Y-66445403D01*
X145861408Y-67231118D01*
X123104265Y-65731118D02*
X123604265Y-66445403D01*
X123961408Y-65731118D02*
X123961408Y-67231118D01*
X123389980Y-67231118D01*
X123247122Y-67159689D01*
X123175694Y-67088260D01*
X123104265Y-66945403D01*
X123104265Y-66731118D01*
X123175694Y-66588260D01*
X123247122Y-66516832D01*
X123389980Y-66445403D01*
X123961408Y-66445403D01*
X121747122Y-65731118D02*
X122461408Y-65731118D01*
X122461408Y-67231118D01*
X120961408Y-66445403D02*
X120961408Y-65731118D01*
X121461408Y-67231118D02*
X120961408Y-66445403D01*
X120461408Y-67231118D01*
X97704265Y-65731118D02*
X98204265Y-66445403D01*
X98561408Y-65731118D02*
X98561408Y-67231118D01*
X97989980Y-67231118D01*
X97847122Y-67159689D01*
X97775694Y-67088260D01*
X97704265Y-66945403D01*
X97704265Y-66731118D01*
X97775694Y-66588260D01*
X97847122Y-66516832D01*
X97989980Y-66445403D01*
X98561408Y-66445403D01*
X96347122Y-65731118D02*
X97061408Y-65731118D01*
X97061408Y-67231118D01*
X95561408Y-66445403D02*
X95561408Y-65731118D01*
X96061408Y-67231118D02*
X95561408Y-66445403D01*
X95061408Y-67231118D01*
X164442694Y-67231118D02*
X163585551Y-67231118D01*
X164014122Y-65731118D02*
X164014122Y-67231118D01*
X163085551Y-66302546D02*
X161942694Y-66302546D01*
X139042694Y-67231118D02*
X138185551Y-67231118D01*
X138614122Y-65731118D02*
X138614122Y-67231118D01*
X137685551Y-66302546D02*
X136542694Y-66302546D01*
X113642694Y-67231118D02*
X112785551Y-67231118D01*
X113214122Y-65731118D02*
X113214122Y-67231118D01*
X112285551Y-66302546D02*
X111142694Y-66302546D01*
X88242694Y-67231118D02*
X87385551Y-67231118D01*
X87814122Y-65731118D02*
X87814122Y-67231118D01*
X86885551Y-66302546D02*
X85742694Y-66302546D01*
X169054408Y-67159689D02*
X169197265Y-67231118D01*
X169411551Y-67231118D01*
X169625836Y-67159689D01*
X169768694Y-67016832D01*
X169840122Y-66873975D01*
X169911551Y-66588260D01*
X169911551Y-66373975D01*
X169840122Y-66088260D01*
X169768694Y-65945403D01*
X169625836Y-65802546D01*
X169411551Y-65731118D01*
X169268694Y-65731118D01*
X169054408Y-65802546D01*
X168982979Y-65873975D01*
X168982979Y-66373975D01*
X169268694Y-66373975D01*
X168340122Y-65731118D02*
X168340122Y-67231118D01*
X167482979Y-65731118D01*
X167482979Y-67231118D01*
X166768693Y-65731118D02*
X166768693Y-67231118D01*
X166411550Y-67231118D01*
X166197265Y-67159689D01*
X166054407Y-67016832D01*
X165982979Y-66873975D01*
X165911550Y-66588260D01*
X165911550Y-66373975D01*
X165982979Y-66088260D01*
X166054407Y-65945403D01*
X166197265Y-65802546D01*
X166411550Y-65731118D01*
X166768693Y-65731118D01*
X143654408Y-67159689D02*
X143797265Y-67231118D01*
X144011551Y-67231118D01*
X144225836Y-67159689D01*
X144368694Y-67016832D01*
X144440122Y-66873975D01*
X144511551Y-66588260D01*
X144511551Y-66373975D01*
X144440122Y-66088260D01*
X144368694Y-65945403D01*
X144225836Y-65802546D01*
X144011551Y-65731118D01*
X143868694Y-65731118D01*
X143654408Y-65802546D01*
X143582979Y-65873975D01*
X143582979Y-66373975D01*
X143868694Y-66373975D01*
X142940122Y-65731118D02*
X142940122Y-67231118D01*
X142082979Y-65731118D01*
X142082979Y-67231118D01*
X141368693Y-65731118D02*
X141368693Y-67231118D01*
X141011550Y-67231118D01*
X140797265Y-67159689D01*
X140654407Y-67016832D01*
X140582979Y-66873975D01*
X140511550Y-66588260D01*
X140511550Y-66373975D01*
X140582979Y-66088260D01*
X140654407Y-65945403D01*
X140797265Y-65802546D01*
X141011550Y-65731118D01*
X141368693Y-65731118D01*
X118254408Y-67159689D02*
X118397265Y-67231118D01*
X118611551Y-67231118D01*
X118825836Y-67159689D01*
X118968694Y-67016832D01*
X119040122Y-66873975D01*
X119111551Y-66588260D01*
X119111551Y-66373975D01*
X119040122Y-66088260D01*
X118968694Y-65945403D01*
X118825836Y-65802546D01*
X118611551Y-65731118D01*
X118468694Y-65731118D01*
X118254408Y-65802546D01*
X118182979Y-65873975D01*
X118182979Y-66373975D01*
X118468694Y-66373975D01*
X117540122Y-65731118D02*
X117540122Y-67231118D01*
X116682979Y-65731118D01*
X116682979Y-67231118D01*
X115968693Y-65731118D02*
X115968693Y-67231118D01*
X115611550Y-67231118D01*
X115397265Y-67159689D01*
X115254407Y-67016832D01*
X115182979Y-66873975D01*
X115111550Y-66588260D01*
X115111550Y-66373975D01*
X115182979Y-66088260D01*
X115254407Y-65945403D01*
X115397265Y-65802546D01*
X115611550Y-65731118D01*
X115968693Y-65731118D01*
X92854408Y-67159689D02*
X92997265Y-67231118D01*
X93211551Y-67231118D01*
X93425836Y-67159689D01*
X93568694Y-67016832D01*
X93640122Y-66873975D01*
X93711551Y-66588260D01*
X93711551Y-66373975D01*
X93640122Y-66088260D01*
X93568694Y-65945403D01*
X93425836Y-65802546D01*
X93211551Y-65731118D01*
X93068694Y-65731118D01*
X92854408Y-65802546D01*
X92782979Y-65873975D01*
X92782979Y-66373975D01*
X93068694Y-66373975D01*
X92140122Y-65731118D02*
X92140122Y-67231118D01*
X91282979Y-65731118D01*
X91282979Y-67231118D01*
X90568693Y-65731118D02*
X90568693Y-67231118D01*
X90211550Y-67231118D01*
X89997265Y-67159689D01*
X89854407Y-67016832D01*
X89782979Y-66873975D01*
X89711550Y-66588260D01*
X89711550Y-66373975D01*
X89782979Y-66088260D01*
X89854407Y-65945403D01*
X89997265Y-65802546D01*
X90211550Y-65731118D01*
X90568693Y-65731118D01*
X160505694Y-67231118D02*
X159648551Y-67231118D01*
X160077122Y-65731118D02*
X160077122Y-67231118D01*
X159148551Y-66302546D02*
X158005694Y-66302546D01*
X158577123Y-65731118D02*
X158577123Y-66873975D01*
X135105694Y-67231118D02*
X134248551Y-67231118D01*
X134677122Y-65731118D02*
X134677122Y-67231118D01*
X133748551Y-66302546D02*
X132605694Y-66302546D01*
X133177123Y-65731118D02*
X133177123Y-66873975D01*
X109705694Y-67231118D02*
X108848551Y-67231118D01*
X109277122Y-65731118D02*
X109277122Y-67231118D01*
X108348551Y-66302546D02*
X107205694Y-66302546D01*
X107777123Y-65731118D02*
X107777123Y-66873975D01*
X84305694Y-67231118D02*
X83448551Y-67231118D01*
X83877122Y-65731118D02*
X83877122Y-67231118D01*
X82948551Y-66302546D02*
X81805694Y-66302546D01*
X82377123Y-65731118D02*
X82377123Y-66873975D01*
X62842694Y-67231118D02*
X61985551Y-67231118D01*
X62414122Y-65731118D02*
X62414122Y-67231118D01*
X61485551Y-66302546D02*
X60342694Y-66302546D01*
X67454408Y-67159689D02*
X67597265Y-67231118D01*
X67811551Y-67231118D01*
X68025836Y-67159689D01*
X68168694Y-67016832D01*
X68240122Y-66873975D01*
X68311551Y-66588260D01*
X68311551Y-66373975D01*
X68240122Y-66088260D01*
X68168694Y-65945403D01*
X68025836Y-65802546D01*
X67811551Y-65731118D01*
X67668694Y-65731118D01*
X67454408Y-65802546D01*
X67382979Y-65873975D01*
X67382979Y-66373975D01*
X67668694Y-66373975D01*
X66740122Y-65731118D02*
X66740122Y-67231118D01*
X65882979Y-65731118D01*
X65882979Y-67231118D01*
X65168693Y-65731118D02*
X65168693Y-67231118D01*
X64811550Y-67231118D01*
X64597265Y-67159689D01*
X64454407Y-67016832D01*
X64382979Y-66873975D01*
X64311550Y-66588260D01*
X64311550Y-66373975D01*
X64382979Y-66088260D01*
X64454407Y-65945403D01*
X64597265Y-65802546D01*
X64811550Y-65731118D01*
X65168693Y-65731118D01*
X72304265Y-65731118D02*
X72804265Y-66445403D01*
X73161408Y-65731118D02*
X73161408Y-67231118D01*
X72589980Y-67231118D01*
X72447122Y-67159689D01*
X72375694Y-67088260D01*
X72304265Y-66945403D01*
X72304265Y-66731118D01*
X72375694Y-66588260D01*
X72447122Y-66516832D01*
X72589980Y-66445403D01*
X73161408Y-66445403D01*
X70947122Y-65731118D02*
X71661408Y-65731118D01*
X71661408Y-67231118D01*
X70161408Y-66445403D02*
X70161408Y-65731118D01*
X70661408Y-67231118D02*
X70161408Y-66445403D01*
X69661408Y-67231118D01*
X58905694Y-67231118D02*
X58048551Y-67231118D01*
X58477122Y-65731118D02*
X58477122Y-67231118D01*
X57548551Y-66302546D02*
X56405694Y-66302546D01*
X56977123Y-65731118D02*
X56977123Y-66873975D01*
D12*
X235506031Y-67583169D02*
X249501431Y-67583169D01*
X249501431Y-67583169D02*
X249501431Y-73780769D01*
X249501431Y-73780769D02*
X249501431Y-74580869D01*
X249501431Y-74580869D02*
X235506031Y-74580869D01*
X235506031Y-74580869D02*
X235506031Y-73780769D01*
X235506031Y-73780769D02*
X235506031Y-67583169D01*
X249501431Y-73780769D02*
X235506031Y-73780769D01*
D13*
X238939551Y-80729689D02*
X238939551Y-80029689D01*
X240139551Y-80029689D02*
X240139551Y-80729689D01*
X240346551Y-76323689D02*
X240346551Y-77323689D01*
X238986551Y-77323689D02*
X238986551Y-76323689D01*
D14*
X242671551Y-77804689D02*
X242671551Y-77854689D01*
X246821551Y-77804689D02*
X246821551Y-77949689D01*
X246821551Y-82954689D02*
X246821551Y-82809689D01*
X242671551Y-82954689D02*
X242671551Y-82809689D01*
X242671551Y-77804689D02*
X246821551Y-77804689D01*
X242671551Y-82954689D02*
X246821551Y-82954689D01*
X242671551Y-77854689D02*
X241271551Y-77854689D01*
D13*
X251935774Y-98323440D02*
X251440800Y-97828466D01*
X252289328Y-96979938D02*
X252784302Y-97474912D01*
D12*
X251350551Y-106290229D02*
X252874551Y-106290229D01*
X250689977Y-101731379D02*
X249842241Y-102579115D01*
X247439125Y-103002983D02*
X247015257Y-102579115D01*
X247439125Y-100175999D02*
X248286861Y-99328263D01*
X251113845Y-99328263D02*
X250689977Y-98904395D01*
D13*
X249912551Y-109600689D02*
X249912551Y-107800689D01*
X246692551Y-107800689D02*
X246692551Y-110250689D01*
D12*
X248810551Y-113780689D02*
X247540551Y-113780689D01*
X247540551Y-112256689D02*
X248810551Y-112256689D01*
X243730551Y-106414689D02*
X245254551Y-106414689D01*
D13*
X246066328Y-103456938D02*
X246561302Y-103951912D01*
X245712774Y-104800440D02*
X245217800Y-104305466D01*
D12*
X236084050Y-94250669D02*
X236084050Y-93686709D01*
X236084050Y-93686709D02*
X242305571Y-87465188D01*
X242305571Y-87465188D02*
X242869531Y-87465188D01*
X242869531Y-87465188D02*
X249091052Y-93686709D01*
X249091052Y-93686709D02*
X249091052Y-94250669D01*
X249091052Y-94250669D02*
X242869531Y-100472190D01*
X242869531Y-100472190D02*
X242305571Y-100472190D01*
X242305571Y-100472190D02*
X236084050Y-94250669D01*
D15*
X237215522Y-93968689D02*
G75*
G03X237215522Y-93968689I-281940J0D01*
G01*
D13*
X233914800Y-89854912D02*
X234409774Y-89359938D01*
X235258302Y-90208466D02*
X234763328Y-90703440D01*
X233543104Y-97964770D02*
X233048130Y-97469796D01*
X233896658Y-96621268D02*
X234391632Y-97116242D01*
X236436658Y-99161268D02*
X236931632Y-99656242D01*
X236083104Y-100504770D02*
X235588130Y-100009796D01*
X238060551Y-79879689D02*
X238060551Y-80879689D01*
X236700551Y-80879689D02*
X236700551Y-79879689D01*
X238939551Y-84146689D02*
X238939551Y-83446689D01*
X240139551Y-83446689D02*
X240139551Y-84146689D01*
X240217551Y-107592689D02*
X240917551Y-107592689D01*
X240917551Y-108792689D02*
X240217551Y-108792689D01*
X240174272Y-104709075D02*
X239467165Y-104001968D01*
X240428830Y-103040303D02*
X241135937Y-103747410D01*
X235012551Y-104644689D02*
X235012551Y-105644689D01*
X233652551Y-105644689D02*
X233652551Y-104644689D01*
D12*
X233220031Y-111769009D02*
X233220031Y-110168809D01*
X233220031Y-110168809D02*
X234418911Y-110168809D01*
X240017071Y-110168809D02*
X238818191Y-110168809D01*
X240017071Y-111769009D02*
X240017071Y-110168809D01*
X233220031Y-114466489D02*
X240017071Y-114466489D01*
X234418911Y-110168809D02*
X234418911Y-111570889D01*
X234418911Y-111570889D02*
X238818191Y-111570889D01*
X238818191Y-111570889D02*
X238818191Y-110168809D01*
D13*
X237044551Y-104644689D02*
X237044551Y-105644689D01*
X235684551Y-105644689D02*
X235684551Y-104644689D01*
X213539551Y-84146689D02*
X213539551Y-83446689D01*
X214739551Y-83446689D02*
X214739551Y-84146689D01*
X212660551Y-79879689D02*
X212660551Y-80879689D01*
X211300551Y-80879689D02*
X211300551Y-79879689D01*
D12*
X210106031Y-67583169D02*
X224101431Y-67583169D01*
X224101431Y-67583169D02*
X224101431Y-73780769D01*
X224101431Y-73780769D02*
X224101431Y-74580869D01*
X224101431Y-74580869D02*
X210106031Y-74580869D01*
X210106031Y-74580869D02*
X210106031Y-73780769D01*
X210106031Y-73780769D02*
X210106031Y-67583169D01*
X224101431Y-73780769D02*
X210106031Y-73780769D01*
D13*
X214946551Y-76323689D02*
X214946551Y-77323689D01*
X213586551Y-77323689D02*
X213586551Y-76323689D01*
X213539551Y-80729689D02*
X213539551Y-80029689D01*
X214739551Y-80029689D02*
X214739551Y-80729689D01*
D12*
X225950551Y-106290229D02*
X227474551Y-106290229D01*
X223410551Y-113780689D02*
X222140551Y-113780689D01*
X222140551Y-112256689D02*
X223410551Y-112256689D01*
D13*
X224512551Y-109600689D02*
X224512551Y-107800689D01*
X221292551Y-107800689D02*
X221292551Y-110250689D01*
D12*
X218330551Y-106414689D02*
X219854551Y-106414689D01*
D13*
X209612551Y-104644689D02*
X209612551Y-105644689D01*
X208252551Y-105644689D02*
X208252551Y-104644689D01*
X211644551Y-104644689D02*
X211644551Y-105644689D01*
X210284551Y-105644689D02*
X210284551Y-104644689D01*
X214817551Y-107592689D02*
X215517551Y-107592689D01*
X215517551Y-108792689D02*
X214817551Y-108792689D01*
X208143104Y-97964770D02*
X207648130Y-97469796D01*
X208496658Y-96621268D02*
X208991632Y-97116242D01*
D12*
X207820031Y-111769009D02*
X207820031Y-110168809D01*
X207820031Y-110168809D02*
X209018911Y-110168809D01*
X214617071Y-110168809D02*
X213418191Y-110168809D01*
X214617071Y-111769009D02*
X214617071Y-110168809D01*
X207820031Y-114466489D02*
X214617071Y-114466489D01*
X209018911Y-110168809D02*
X209018911Y-111570889D01*
X209018911Y-111570889D02*
X213418191Y-111570889D01*
X213418191Y-111570889D02*
X213418191Y-110168809D01*
D13*
X226535774Y-98323440D02*
X226040800Y-97828466D01*
X226889328Y-96979938D02*
X227384302Y-97474912D01*
X211036658Y-99161268D02*
X211531632Y-99656242D01*
X210683104Y-100504770D02*
X210188130Y-100009796D01*
X220666328Y-103456938D02*
X221161302Y-103951912D01*
X220312774Y-104800440D02*
X219817800Y-104305466D01*
X208514800Y-89854912D02*
X209009774Y-89359938D01*
X209858302Y-90208466D02*
X209363328Y-90703440D01*
D12*
X210684050Y-94250669D02*
X210684050Y-93686709D01*
X210684050Y-93686709D02*
X216905571Y-87465188D01*
X216905571Y-87465188D02*
X217469531Y-87465188D01*
X217469531Y-87465188D02*
X223691052Y-93686709D01*
X223691052Y-93686709D02*
X223691052Y-94250669D01*
X223691052Y-94250669D02*
X217469531Y-100472190D01*
X217469531Y-100472190D02*
X216905571Y-100472190D01*
X216905571Y-100472190D02*
X210684050Y-94250669D01*
D15*
X211815522Y-93968689D02*
G75*
G03X211815522Y-93968689I-281940J0D01*
G01*
D13*
X214774272Y-104709075D02*
X214067165Y-104001968D01*
X215028830Y-103040303D02*
X215735937Y-103747410D01*
D12*
X225289977Y-101731379D02*
X224442241Y-102579115D01*
X222039125Y-103002983D02*
X221615257Y-102579115D01*
X222039125Y-100175999D02*
X222886861Y-99328263D01*
X225713845Y-99328263D02*
X225289977Y-98904395D01*
D14*
X217271551Y-77804689D02*
X217271551Y-77854689D01*
X221421551Y-77804689D02*
X221421551Y-77949689D01*
X221421551Y-82954689D02*
X221421551Y-82809689D01*
X217271551Y-82954689D02*
X217271551Y-82809689D01*
X217271551Y-77804689D02*
X221421551Y-77804689D01*
X217271551Y-82954689D02*
X221421551Y-82954689D01*
X217271551Y-77854689D02*
X215871551Y-77854689D01*
D13*
X187260551Y-79879689D02*
X187260551Y-80879689D01*
X185900551Y-80879689D02*
X185900551Y-79879689D01*
X188139551Y-84146689D02*
X188139551Y-83446689D01*
X189339551Y-83446689D02*
X189339551Y-84146689D01*
X201135774Y-98323440D02*
X200640800Y-97828466D01*
X201489328Y-96979938D02*
X201984302Y-97474912D01*
D12*
X200550551Y-106290229D02*
X202074551Y-106290229D01*
D13*
X182743104Y-97964770D02*
X182248130Y-97469796D01*
X183096658Y-96621268D02*
X183591632Y-97116242D01*
X189417551Y-107592689D02*
X190117551Y-107592689D01*
X190117551Y-108792689D02*
X189417551Y-108792689D01*
D12*
X182420031Y-111769009D02*
X182420031Y-110168809D01*
X182420031Y-110168809D02*
X183618911Y-110168809D01*
X189217071Y-110168809D02*
X188018191Y-110168809D01*
X189217071Y-111769009D02*
X189217071Y-110168809D01*
X182420031Y-114466489D02*
X189217071Y-114466489D01*
X183618911Y-110168809D02*
X183618911Y-111570889D01*
X183618911Y-111570889D02*
X188018191Y-111570889D01*
X188018191Y-111570889D02*
X188018191Y-110168809D01*
D13*
X184212551Y-104644689D02*
X184212551Y-105644689D01*
X182852551Y-105644689D02*
X182852551Y-104644689D01*
X185636658Y-99161268D02*
X186131632Y-99656242D01*
X185283104Y-100504770D02*
X184788130Y-100009796D01*
X195266328Y-103456938D02*
X195761302Y-103951912D01*
X194912774Y-104800440D02*
X194417800Y-104305466D01*
X183114800Y-89854912D02*
X183609774Y-89359938D01*
X184458302Y-90208466D02*
X183963328Y-90703440D01*
X186244551Y-104644689D02*
X186244551Y-105644689D01*
X184884551Y-105644689D02*
X184884551Y-104644689D01*
D12*
X185284050Y-94250669D02*
X185284050Y-93686709D01*
X185284050Y-93686709D02*
X191505571Y-87465188D01*
X191505571Y-87465188D02*
X192069531Y-87465188D01*
X192069531Y-87465188D02*
X198291052Y-93686709D01*
X198291052Y-93686709D02*
X198291052Y-94250669D01*
X198291052Y-94250669D02*
X192069531Y-100472190D01*
X192069531Y-100472190D02*
X191505571Y-100472190D01*
X191505571Y-100472190D02*
X185284050Y-94250669D01*
D15*
X186415522Y-93968689D02*
G75*
G03X186415522Y-93968689I-281940J0D01*
G01*
D13*
X189374272Y-104709075D02*
X188667165Y-104001968D01*
X189628830Y-103040303D02*
X190335937Y-103747410D01*
D12*
X199889977Y-101731379D02*
X199042241Y-102579115D01*
X196639125Y-103002983D02*
X196215257Y-102579115D01*
X196639125Y-100175999D02*
X197486861Y-99328263D01*
X200313845Y-99328263D02*
X199889977Y-98904395D01*
X198010551Y-113780689D02*
X196740551Y-113780689D01*
X196740551Y-112256689D02*
X198010551Y-112256689D01*
D13*
X199112551Y-109600689D02*
X199112551Y-107800689D01*
X195892551Y-107800689D02*
X195892551Y-110250689D01*
D12*
X192930551Y-106414689D02*
X194454551Y-106414689D01*
X184706031Y-67583169D02*
X198701431Y-67583169D01*
X198701431Y-67583169D02*
X198701431Y-73780769D01*
X198701431Y-73780769D02*
X198701431Y-74580869D01*
X198701431Y-74580869D02*
X184706031Y-74580869D01*
X184706031Y-74580869D02*
X184706031Y-73780769D01*
X184706031Y-73780769D02*
X184706031Y-67583169D01*
X198701431Y-73780769D02*
X184706031Y-73780769D01*
D14*
X191871551Y-77804689D02*
X191871551Y-77854689D01*
X196021551Y-77804689D02*
X196021551Y-77949689D01*
X196021551Y-82954689D02*
X196021551Y-82809689D01*
X191871551Y-82954689D02*
X191871551Y-82809689D01*
X191871551Y-77804689D02*
X196021551Y-77804689D01*
X191871551Y-82954689D02*
X196021551Y-82954689D01*
X191871551Y-77854689D02*
X190471551Y-77854689D01*
D13*
X188139551Y-80729689D02*
X188139551Y-80029689D01*
X189339551Y-80029689D02*
X189339551Y-80729689D01*
X189546551Y-76323689D02*
X189546551Y-77323689D01*
X188186551Y-77323689D02*
X188186551Y-76323689D01*
X175735774Y-98323440D02*
X175240800Y-97828466D01*
X176089328Y-96979938D02*
X176584302Y-97474912D01*
X150335774Y-98323440D02*
X149840800Y-97828466D01*
X150689328Y-96979938D02*
X151184302Y-97474912D01*
X124935774Y-98323440D02*
X124440800Y-97828466D01*
X125289328Y-96979938D02*
X125784302Y-97474912D01*
X99535774Y-98323440D02*
X99040800Y-97828466D01*
X99889328Y-96979938D02*
X100384302Y-97474912D01*
D12*
X175150551Y-106290229D02*
X176674551Y-106290229D01*
X149750551Y-106290229D02*
X151274551Y-106290229D01*
X124350551Y-106290229D02*
X125874551Y-106290229D01*
X98950551Y-106290229D02*
X100474551Y-106290229D01*
D13*
X162739551Y-80729689D02*
X162739551Y-80029689D01*
X163939551Y-80029689D02*
X163939551Y-80729689D01*
X137339551Y-80729689D02*
X137339551Y-80029689D01*
X138539551Y-80029689D02*
X138539551Y-80729689D01*
X111939551Y-80729689D02*
X111939551Y-80029689D01*
X113139551Y-80029689D02*
X113139551Y-80729689D01*
X86539551Y-80729689D02*
X86539551Y-80029689D01*
X87739551Y-80029689D02*
X87739551Y-80729689D01*
X162739551Y-84146689D02*
X162739551Y-83446689D01*
X163939551Y-83446689D02*
X163939551Y-84146689D01*
X137339551Y-84146689D02*
X137339551Y-83446689D01*
X138539551Y-83446689D02*
X138539551Y-84146689D01*
X111939551Y-84146689D02*
X111939551Y-83446689D01*
X113139551Y-83446689D02*
X113139551Y-84146689D01*
X86539551Y-84146689D02*
X86539551Y-83446689D01*
X87739551Y-83446689D02*
X87739551Y-84146689D01*
D14*
X166471551Y-77804689D02*
X166471551Y-77854689D01*
X170621551Y-77804689D02*
X170621551Y-77949689D01*
X170621551Y-82954689D02*
X170621551Y-82809689D01*
X166471551Y-82954689D02*
X166471551Y-82809689D01*
X166471551Y-77804689D02*
X170621551Y-77804689D01*
X166471551Y-82954689D02*
X170621551Y-82954689D01*
X166471551Y-77854689D02*
X165071551Y-77854689D01*
X141071551Y-77804689D02*
X141071551Y-77854689D01*
X145221551Y-77804689D02*
X145221551Y-77949689D01*
X145221551Y-82954689D02*
X145221551Y-82809689D01*
X141071551Y-82954689D02*
X141071551Y-82809689D01*
X141071551Y-77804689D02*
X145221551Y-77804689D01*
X141071551Y-82954689D02*
X145221551Y-82954689D01*
X141071551Y-77854689D02*
X139671551Y-77854689D01*
X115671551Y-77804689D02*
X115671551Y-77854689D01*
X119821551Y-77804689D02*
X119821551Y-77949689D01*
X119821551Y-82954689D02*
X119821551Y-82809689D01*
X115671551Y-82954689D02*
X115671551Y-82809689D01*
X115671551Y-77804689D02*
X119821551Y-77804689D01*
X115671551Y-82954689D02*
X119821551Y-82954689D01*
X115671551Y-77854689D02*
X114271551Y-77854689D01*
X90271551Y-77804689D02*
X90271551Y-77854689D01*
X94421551Y-77804689D02*
X94421551Y-77949689D01*
X94421551Y-82954689D02*
X94421551Y-82809689D01*
X90271551Y-82954689D02*
X90271551Y-82809689D01*
X90271551Y-77804689D02*
X94421551Y-77804689D01*
X90271551Y-82954689D02*
X94421551Y-82954689D01*
X90271551Y-77854689D02*
X88871551Y-77854689D01*
D13*
X164146551Y-76323689D02*
X164146551Y-77323689D01*
X162786551Y-77323689D02*
X162786551Y-76323689D01*
X138746551Y-76323689D02*
X138746551Y-77323689D01*
X137386551Y-77323689D02*
X137386551Y-76323689D01*
X113346551Y-76323689D02*
X113346551Y-77323689D01*
X111986551Y-77323689D02*
X111986551Y-76323689D01*
X87946551Y-76323689D02*
X87946551Y-77323689D01*
X86586551Y-77323689D02*
X86586551Y-76323689D01*
D12*
X159884050Y-94250669D02*
X159884050Y-93686709D01*
X159884050Y-93686709D02*
X166105571Y-87465188D01*
X166105571Y-87465188D02*
X166669531Y-87465188D01*
X166669531Y-87465188D02*
X172891052Y-93686709D01*
X172891052Y-93686709D02*
X172891052Y-94250669D01*
X172891052Y-94250669D02*
X166669531Y-100472190D01*
X166669531Y-100472190D02*
X166105571Y-100472190D01*
X166105571Y-100472190D02*
X159884050Y-94250669D01*
D15*
X161015522Y-93968689D02*
G75*
G03X161015522Y-93968689I-281940J0D01*
G01*
D12*
X134484050Y-94250669D02*
X134484050Y-93686709D01*
X134484050Y-93686709D02*
X140705571Y-87465188D01*
X140705571Y-87465188D02*
X141269531Y-87465188D01*
X141269531Y-87465188D02*
X147491052Y-93686709D01*
X147491052Y-93686709D02*
X147491052Y-94250669D01*
X147491052Y-94250669D02*
X141269531Y-100472190D01*
X141269531Y-100472190D02*
X140705571Y-100472190D01*
X140705571Y-100472190D02*
X134484050Y-94250669D01*
D15*
X135615522Y-93968689D02*
G75*
G03X135615522Y-93968689I-281940J0D01*
G01*
D12*
X109084050Y-94250669D02*
X109084050Y-93686709D01*
X109084050Y-93686709D02*
X115305571Y-87465188D01*
X115305571Y-87465188D02*
X115869531Y-87465188D01*
X115869531Y-87465188D02*
X122091052Y-93686709D01*
X122091052Y-93686709D02*
X122091052Y-94250669D01*
X122091052Y-94250669D02*
X115869531Y-100472190D01*
X115869531Y-100472190D02*
X115305571Y-100472190D01*
X115305571Y-100472190D02*
X109084050Y-94250669D01*
D15*
X110215522Y-93968689D02*
G75*
G03X110215522Y-93968689I-281940J0D01*
G01*
D12*
X83684050Y-94250669D02*
X83684050Y-93686709D01*
X83684050Y-93686709D02*
X89905571Y-87465188D01*
X89905571Y-87465188D02*
X90469531Y-87465188D01*
X90469531Y-87465188D02*
X96691052Y-93686709D01*
X96691052Y-93686709D02*
X96691052Y-94250669D01*
X96691052Y-94250669D02*
X90469531Y-100472190D01*
X90469531Y-100472190D02*
X89905571Y-100472190D01*
X89905571Y-100472190D02*
X83684050Y-94250669D01*
D15*
X84815522Y-93968689D02*
G75*
G03X84815522Y-93968689I-281940J0D01*
G01*
D13*
X163974272Y-104709075D02*
X163267165Y-104001968D01*
X164228830Y-103040303D02*
X164935937Y-103747410D01*
X138574272Y-104709075D02*
X137867165Y-104001968D01*
X138828830Y-103040303D02*
X139535937Y-103747410D01*
X113174272Y-104709075D02*
X112467165Y-104001968D01*
X113428830Y-103040303D02*
X114135937Y-103747410D01*
X87774272Y-104709075D02*
X87067165Y-104001968D01*
X88028830Y-103040303D02*
X88735937Y-103747410D01*
X160236658Y-99161268D02*
X160731632Y-99656242D01*
X159883104Y-100504770D02*
X159388130Y-100009796D01*
X134836658Y-99161268D02*
X135331632Y-99656242D01*
X134483104Y-100504770D02*
X133988130Y-100009796D01*
X109436658Y-99161268D02*
X109931632Y-99656242D01*
X109083104Y-100504770D02*
X108588130Y-100009796D01*
X84036658Y-99161268D02*
X84531632Y-99656242D01*
X83683104Y-100504770D02*
X83188130Y-100009796D01*
X157343104Y-97964770D02*
X156848130Y-97469796D01*
X157696658Y-96621268D02*
X158191632Y-97116242D01*
X131943104Y-97964770D02*
X131448130Y-97469796D01*
X132296658Y-96621268D02*
X132791632Y-97116242D01*
X106543104Y-97964770D02*
X106048130Y-97469796D01*
X106896658Y-96621268D02*
X107391632Y-97116242D01*
X81143104Y-97964770D02*
X80648130Y-97469796D01*
X81496658Y-96621268D02*
X81991632Y-97116242D01*
D12*
X174489977Y-101731379D02*
X173642241Y-102579115D01*
X171239125Y-103002983D02*
X170815257Y-102579115D01*
X171239125Y-100175999D02*
X172086861Y-99328263D01*
X174913845Y-99328263D02*
X174489977Y-98904395D01*
X149089977Y-101731379D02*
X148242241Y-102579115D01*
X145839125Y-103002983D02*
X145415257Y-102579115D01*
X145839125Y-100175999D02*
X146686861Y-99328263D01*
X149513845Y-99328263D02*
X149089977Y-98904395D01*
X123689977Y-101731379D02*
X122842241Y-102579115D01*
X120439125Y-103002983D02*
X120015257Y-102579115D01*
X120439125Y-100175999D02*
X121286861Y-99328263D01*
X124113845Y-99328263D02*
X123689977Y-98904395D01*
X98289977Y-101731379D02*
X97442241Y-102579115D01*
X95039125Y-103002983D02*
X94615257Y-102579115D01*
X95039125Y-100175999D02*
X95886861Y-99328263D01*
X98713845Y-99328263D02*
X98289977Y-98904395D01*
D13*
X157714800Y-89854912D02*
X158209774Y-89359938D01*
X159058302Y-90208466D02*
X158563328Y-90703440D01*
X132314800Y-89854912D02*
X132809774Y-89359938D01*
X133658302Y-90208466D02*
X133163328Y-90703440D01*
X106914800Y-89854912D02*
X107409774Y-89359938D01*
X108258302Y-90208466D02*
X107763328Y-90703440D01*
X81514800Y-89854912D02*
X82009774Y-89359938D01*
X82858302Y-90208466D02*
X82363328Y-90703440D01*
D12*
X157020031Y-111769009D02*
X157020031Y-110168809D01*
X157020031Y-110168809D02*
X158218911Y-110168809D01*
X163817071Y-110168809D02*
X162618191Y-110168809D01*
X163817071Y-111769009D02*
X163817071Y-110168809D01*
X157020031Y-114466489D02*
X163817071Y-114466489D01*
X158218911Y-110168809D02*
X158218911Y-111570889D01*
X158218911Y-111570889D02*
X162618191Y-111570889D01*
X162618191Y-111570889D02*
X162618191Y-110168809D01*
X131620031Y-111769009D02*
X131620031Y-110168809D01*
X131620031Y-110168809D02*
X132818911Y-110168809D01*
X138417071Y-110168809D02*
X137218191Y-110168809D01*
X138417071Y-111769009D02*
X138417071Y-110168809D01*
X131620031Y-114466489D02*
X138417071Y-114466489D01*
X132818911Y-110168809D02*
X132818911Y-111570889D01*
X132818911Y-111570889D02*
X137218191Y-111570889D01*
X137218191Y-111570889D02*
X137218191Y-110168809D01*
X106220031Y-111769009D02*
X106220031Y-110168809D01*
X106220031Y-110168809D02*
X107418911Y-110168809D01*
X113017071Y-110168809D02*
X111818191Y-110168809D01*
X113017071Y-111769009D02*
X113017071Y-110168809D01*
X106220031Y-114466489D02*
X113017071Y-114466489D01*
X107418911Y-110168809D02*
X107418911Y-111570889D01*
X107418911Y-111570889D02*
X111818191Y-111570889D01*
X111818191Y-111570889D02*
X111818191Y-110168809D01*
X80820031Y-111769009D02*
X80820031Y-110168809D01*
X80820031Y-110168809D02*
X82018911Y-110168809D01*
X87617071Y-110168809D02*
X86418191Y-110168809D01*
X87617071Y-111769009D02*
X87617071Y-110168809D01*
X80820031Y-114466489D02*
X87617071Y-114466489D01*
X82018911Y-110168809D02*
X82018911Y-111570889D01*
X82018911Y-111570889D02*
X86418191Y-111570889D01*
X86418191Y-111570889D02*
X86418191Y-110168809D01*
D13*
X164017551Y-107592689D02*
X164717551Y-107592689D01*
X164717551Y-108792689D02*
X164017551Y-108792689D01*
X138617551Y-107592689D02*
X139317551Y-107592689D01*
X139317551Y-108792689D02*
X138617551Y-108792689D01*
X113217551Y-107592689D02*
X113917551Y-107592689D01*
X113917551Y-108792689D02*
X113217551Y-108792689D01*
X87817551Y-107592689D02*
X88517551Y-107592689D01*
X88517551Y-108792689D02*
X87817551Y-108792689D01*
X158812551Y-104644689D02*
X158812551Y-105644689D01*
X157452551Y-105644689D02*
X157452551Y-104644689D01*
X133412551Y-104644689D02*
X133412551Y-105644689D01*
X132052551Y-105644689D02*
X132052551Y-104644689D01*
X108012551Y-104644689D02*
X108012551Y-105644689D01*
X106652551Y-105644689D02*
X106652551Y-104644689D01*
X82612551Y-104644689D02*
X82612551Y-105644689D01*
X81252551Y-105644689D02*
X81252551Y-104644689D01*
X160844551Y-104644689D02*
X160844551Y-105644689D01*
X159484551Y-105644689D02*
X159484551Y-104644689D01*
X135444551Y-104644689D02*
X135444551Y-105644689D01*
X134084551Y-105644689D02*
X134084551Y-104644689D01*
X110044551Y-104644689D02*
X110044551Y-105644689D01*
X108684551Y-105644689D02*
X108684551Y-104644689D01*
X84644551Y-104644689D02*
X84644551Y-105644689D01*
X83284551Y-105644689D02*
X83284551Y-104644689D01*
X169866328Y-103456938D02*
X170361302Y-103951912D01*
X169512774Y-104800440D02*
X169017800Y-104305466D01*
X144466328Y-103456938D02*
X144961302Y-103951912D01*
X144112774Y-104800440D02*
X143617800Y-104305466D01*
X119066328Y-103456938D02*
X119561302Y-103951912D01*
X118712774Y-104800440D02*
X118217800Y-104305466D01*
X93666328Y-103456938D02*
X94161302Y-103951912D01*
X93312774Y-104800440D02*
X92817800Y-104305466D01*
D12*
X172610551Y-113780689D02*
X171340551Y-113780689D01*
X171340551Y-112256689D02*
X172610551Y-112256689D01*
X147210551Y-113780689D02*
X145940551Y-113780689D01*
X145940551Y-112256689D02*
X147210551Y-112256689D01*
X121810551Y-113780689D02*
X120540551Y-113780689D01*
X120540551Y-112256689D02*
X121810551Y-112256689D01*
X96410551Y-113780689D02*
X95140551Y-113780689D01*
X95140551Y-112256689D02*
X96410551Y-112256689D01*
D13*
X173712551Y-109600689D02*
X173712551Y-107800689D01*
X170492551Y-107800689D02*
X170492551Y-110250689D01*
X148312551Y-109600689D02*
X148312551Y-107800689D01*
X145092551Y-107800689D02*
X145092551Y-110250689D01*
X122912551Y-109600689D02*
X122912551Y-107800689D01*
X119692551Y-107800689D02*
X119692551Y-110250689D01*
X97512551Y-109600689D02*
X97512551Y-107800689D01*
X94292551Y-107800689D02*
X94292551Y-110250689D01*
D12*
X167530551Y-106414689D02*
X169054551Y-106414689D01*
X142130551Y-106414689D02*
X143654551Y-106414689D01*
X116730551Y-106414689D02*
X118254551Y-106414689D01*
X91330551Y-106414689D02*
X92854551Y-106414689D01*
X159306031Y-67583169D02*
X173301431Y-67583169D01*
X173301431Y-67583169D02*
X173301431Y-73780769D01*
X173301431Y-73780769D02*
X173301431Y-74580869D01*
X173301431Y-74580869D02*
X159306031Y-74580869D01*
X159306031Y-74580869D02*
X159306031Y-73780769D01*
X159306031Y-73780769D02*
X159306031Y-67583169D01*
X173301431Y-73780769D02*
X159306031Y-73780769D01*
X133906031Y-67583169D02*
X147901431Y-67583169D01*
X147901431Y-67583169D02*
X147901431Y-73780769D01*
X147901431Y-73780769D02*
X147901431Y-74580869D01*
X147901431Y-74580869D02*
X133906031Y-74580869D01*
X133906031Y-74580869D02*
X133906031Y-73780769D01*
X133906031Y-73780769D02*
X133906031Y-67583169D01*
X147901431Y-73780769D02*
X133906031Y-73780769D01*
X108506031Y-67583169D02*
X122501431Y-67583169D01*
X122501431Y-67583169D02*
X122501431Y-73780769D01*
X122501431Y-73780769D02*
X122501431Y-74580869D01*
X122501431Y-74580869D02*
X108506031Y-74580869D01*
X108506031Y-74580869D02*
X108506031Y-73780769D01*
X108506031Y-73780769D02*
X108506031Y-67583169D01*
X122501431Y-73780769D02*
X108506031Y-73780769D01*
X83106031Y-67583169D02*
X97101431Y-67583169D01*
X97101431Y-67583169D02*
X97101431Y-73780769D01*
X97101431Y-73780769D02*
X97101431Y-74580869D01*
X97101431Y-74580869D02*
X83106031Y-74580869D01*
X83106031Y-74580869D02*
X83106031Y-73780769D01*
X83106031Y-73780769D02*
X83106031Y-67583169D01*
X97101431Y-73780769D02*
X83106031Y-73780769D01*
D13*
X161860551Y-79879689D02*
X161860551Y-80879689D01*
X160500551Y-80879689D02*
X160500551Y-79879689D01*
X136460551Y-79879689D02*
X136460551Y-80879689D01*
X135100551Y-80879689D02*
X135100551Y-79879689D01*
X111060551Y-79879689D02*
X111060551Y-80879689D01*
X109700551Y-80879689D02*
X109700551Y-79879689D01*
X85660551Y-79879689D02*
X85660551Y-80879689D01*
X84300551Y-80879689D02*
X84300551Y-79879689D01*
X60260551Y-79879689D02*
X60260551Y-80879689D01*
X58900551Y-80879689D02*
X58900551Y-79879689D01*
D12*
X57706031Y-67583169D02*
X71701431Y-67583169D01*
X71701431Y-67583169D02*
X71701431Y-73780769D01*
X71701431Y-73780769D02*
X71701431Y-74580869D01*
X71701431Y-74580869D02*
X57706031Y-74580869D01*
X57706031Y-74580869D02*
X57706031Y-73780769D01*
X57706031Y-73780769D02*
X57706031Y-67583169D01*
X71701431Y-73780769D02*
X57706031Y-73780769D01*
D13*
X62546551Y-76323689D02*
X62546551Y-77323689D01*
X61186551Y-77323689D02*
X61186551Y-76323689D01*
D14*
X64871551Y-77804689D02*
X64871551Y-77854689D01*
X69021551Y-77804689D02*
X69021551Y-77949689D01*
X69021551Y-82954689D02*
X69021551Y-82809689D01*
X64871551Y-82954689D02*
X64871551Y-82809689D01*
X64871551Y-77804689D02*
X69021551Y-77804689D01*
X64871551Y-82954689D02*
X69021551Y-82954689D01*
X64871551Y-77854689D02*
X63471551Y-77854689D01*
D13*
X61139551Y-84146689D02*
X61139551Y-83446689D01*
X62339551Y-83446689D02*
X62339551Y-84146689D01*
X61139551Y-80729689D02*
X61139551Y-80029689D01*
X62339551Y-80029689D02*
X62339551Y-80729689D01*
D12*
X72889977Y-101731379D02*
X72042241Y-102579115D01*
X69639125Y-103002983D02*
X69215257Y-102579115D01*
X69639125Y-100175999D02*
X70486861Y-99328263D01*
X73313845Y-99328263D02*
X72889977Y-98904395D01*
D13*
X62374272Y-104709075D02*
X61667165Y-104001968D01*
X62628830Y-103040303D02*
X63335937Y-103747410D01*
X68266328Y-103456938D02*
X68761302Y-103951912D01*
X67912774Y-104800440D02*
X67417800Y-104305466D01*
X74135774Y-98323440D02*
X73640800Y-97828466D01*
X74489328Y-96979938D02*
X74984302Y-97474912D01*
X56114800Y-89854912D02*
X56609774Y-89359938D01*
X57458302Y-90208466D02*
X56963328Y-90703440D01*
X55743104Y-97964770D02*
X55248130Y-97469796D01*
X56096658Y-96621268D02*
X56591632Y-97116242D01*
D12*
X58284050Y-94250669D02*
X58284050Y-93686709D01*
X58284050Y-93686709D02*
X64505571Y-87465188D01*
X64505571Y-87465188D02*
X65069531Y-87465188D01*
X65069531Y-87465188D02*
X71291052Y-93686709D01*
X71291052Y-93686709D02*
X71291052Y-94250669D01*
X71291052Y-94250669D02*
X65069531Y-100472190D01*
X65069531Y-100472190D02*
X64505571Y-100472190D01*
X64505571Y-100472190D02*
X58284050Y-94250669D01*
D15*
X59415522Y-93968689D02*
G75*
G03X59415522Y-93968689I-281940J0D01*
G01*
D13*
X58636658Y-99161268D02*
X59131632Y-99656242D01*
X58283104Y-100504770D02*
X57788130Y-100009796D01*
X72112551Y-109600689D02*
X72112551Y-107800689D01*
X68892551Y-107800689D02*
X68892551Y-110250689D01*
D12*
X65930551Y-106414689D02*
X67454551Y-106414689D01*
X73550551Y-106290229D02*
X75074551Y-106290229D01*
X71010551Y-113780689D02*
X69740551Y-113780689D01*
X69740551Y-112256689D02*
X71010551Y-112256689D01*
D13*
X59244551Y-104644689D02*
X59244551Y-105644689D01*
X57884551Y-105644689D02*
X57884551Y-104644689D01*
D12*
X55420031Y-111769009D02*
X55420031Y-110168809D01*
X55420031Y-110168809D02*
X56618911Y-110168809D01*
X62217071Y-110168809D02*
X61018191Y-110168809D01*
X62217071Y-111769009D02*
X62217071Y-110168809D01*
X55420031Y-114466489D02*
X62217071Y-114466489D01*
X56618911Y-110168809D02*
X56618911Y-111570889D01*
X56618911Y-111570889D02*
X61018191Y-111570889D01*
X61018191Y-111570889D02*
X61018191Y-110168809D01*
D13*
X62417551Y-107592689D02*
X63117551Y-107592689D01*
X63117551Y-108792689D02*
X62417551Y-108792689D01*
X57212551Y-104644689D02*
X57212551Y-105644689D01*
X55852551Y-105644689D02*
X55852551Y-104644689D01*
D14*
X35019147Y-112768641D02*
X34685813Y-112292450D01*
X34447718Y-112768641D02*
X34447718Y-111768641D01*
X34828671Y-111768641D01*
X34923909Y-111816260D01*
X34971528Y-111863879D01*
X35019147Y-111959117D01*
X35019147Y-112101974D01*
X34971528Y-112197212D01*
X34923909Y-112244831D01*
X34828671Y-112292450D01*
X34447718Y-112292450D01*
X35447718Y-112244831D02*
X35781052Y-112244831D01*
X35923909Y-112768641D02*
X35447718Y-112768641D01*
X35447718Y-111768641D01*
X35923909Y-111768641D01*
X36685814Y-112244831D02*
X36352480Y-112244831D01*
X36352480Y-112768641D02*
X36352480Y-111768641D01*
X36828671Y-111768641D01*
X37352480Y-111768641D02*
X37352480Y-112006736D01*
X37114385Y-111911498D02*
X37352480Y-112006736D01*
X37590576Y-111911498D01*
X37209623Y-112197212D02*
X37352480Y-112006736D01*
X37495338Y-112197212D01*
X38114385Y-111768641D02*
X38114385Y-112006736D01*
X37876290Y-111911498D02*
X38114385Y-112006736D01*
X38352481Y-111911498D01*
X37971528Y-112197212D02*
X38114385Y-112006736D01*
X38257243Y-112197212D01*
X32194667Y-124182381D02*
X31861333Y-123706190D01*
X31623238Y-124182381D02*
X31623238Y-123182381D01*
X32004191Y-123182381D01*
X32099429Y-123230000D01*
X32147048Y-123277619D01*
X32194667Y-123372857D01*
X32194667Y-123515714D01*
X32147048Y-123610952D01*
X32099429Y-123658571D01*
X32004191Y-123706190D01*
X31623238Y-123706190D01*
X32623238Y-123658571D02*
X32956572Y-123658571D01*
X33099429Y-124182381D02*
X32623238Y-124182381D01*
X32623238Y-123182381D01*
X33099429Y-123182381D01*
X33861334Y-123658571D02*
X33528000Y-123658571D01*
X33528000Y-124182381D02*
X33528000Y-123182381D01*
X34004191Y-123182381D01*
X34528000Y-123182381D02*
X34528000Y-123420476D01*
X34289905Y-123325238D02*
X34528000Y-123420476D01*
X34766096Y-123325238D01*
X34385143Y-123610952D02*
X34528000Y-123420476D01*
X34670858Y-123610952D01*
X35289905Y-123182381D02*
X35289905Y-123420476D01*
X35051810Y-123325238D02*
X35289905Y-123420476D01*
X35528001Y-123325238D01*
X35147048Y-123610952D02*
X35289905Y-123420476D01*
X35432763Y-123610952D01*
X272478667Y-60428381D02*
X272145333Y-59952190D01*
X271907238Y-60428381D02*
X271907238Y-59428381D01*
X272288191Y-59428381D01*
X272383429Y-59476000D01*
X272431048Y-59523619D01*
X272478667Y-59618857D01*
X272478667Y-59761714D01*
X272431048Y-59856952D01*
X272383429Y-59904571D01*
X272288191Y-59952190D01*
X271907238Y-59952190D01*
X272907238Y-59904571D02*
X273240572Y-59904571D01*
X273383429Y-60428381D02*
X272907238Y-60428381D01*
X272907238Y-59428381D01*
X273383429Y-59428381D01*
X274145334Y-59904571D02*
X273812000Y-59904571D01*
X273812000Y-60428381D02*
X273812000Y-59428381D01*
X274288191Y-59428381D01*
X274812000Y-59428381D02*
X274812000Y-59666476D01*
X274573905Y-59571238D02*
X274812000Y-59666476D01*
X275050096Y-59571238D01*
X274669143Y-59856952D02*
X274812000Y-59666476D01*
X274954858Y-59856952D01*
X275573905Y-59428381D02*
X275573905Y-59666476D01*
X275335810Y-59571238D02*
X275573905Y-59666476D01*
X275812001Y-59571238D01*
X275431048Y-59856952D02*
X275573905Y-59666476D01*
X275716763Y-59856952D01*
X269303667Y-67508381D02*
X268970333Y-67032190D01*
X268732238Y-67508381D02*
X268732238Y-66508381D01*
X269113191Y-66508381D01*
X269208429Y-66556000D01*
X269256048Y-66603619D01*
X269303667Y-66698857D01*
X269303667Y-66841714D01*
X269256048Y-66936952D01*
X269208429Y-66984571D01*
X269113191Y-67032190D01*
X268732238Y-67032190D01*
X269732238Y-66984571D02*
X270065572Y-66984571D01*
X270208429Y-67508381D02*
X269732238Y-67508381D01*
X269732238Y-66508381D01*
X270208429Y-66508381D01*
X270970334Y-66984571D02*
X270637000Y-66984571D01*
X270637000Y-67508381D02*
X270637000Y-66508381D01*
X271113191Y-66508381D01*
X271637000Y-66508381D02*
X271637000Y-66746476D01*
X271398905Y-66651238D02*
X271637000Y-66746476D01*
X271875096Y-66651238D01*
X271494143Y-66936952D02*
X271637000Y-66746476D01*
X271779858Y-66936952D01*
X272398905Y-66508381D02*
X272398905Y-66746476D01*
X272160810Y-66651238D02*
X272398905Y-66746476D01*
X272637001Y-66651238D01*
X272256048Y-66936952D02*
X272398905Y-66746476D01*
X272541763Y-66936952D01*
M02*
