G04 #@! TF.FileFunction,Copper,L2,Bot,Signal*
%FSLAX46Y46*%
G04 Gerber Fmt 4.6, Leading zero omitted, Abs format (unit mm)*
G04 Created by KiCad (PCBNEW 4.0.6) date 11/21/17 13:18:45*
%MOMM*%
%LPD*%
G01*
G04 APERTURE LIST*
%ADD10C,0.100000*%
%ADD11C,1.879600*%
%ADD12C,2.032000*%
%ADD13R,2.032000X2.032000*%
%ADD14C,0.600000*%
%ADD15C,0.250000*%
%ADD16C,0.254000*%
G04 APERTURE END LIST*
D10*
D11*
X252747551Y-73648689D03*
X252747551Y-76188689D03*
X252747551Y-78728689D03*
X252747551Y-81268689D03*
X252747551Y-83808689D03*
X252747551Y-86348689D03*
D12*
X237253551Y-70981689D03*
X240751131Y-70981689D03*
D13*
X244251251Y-70981689D03*
D12*
X247751371Y-70981689D03*
D11*
X232427551Y-86348689D03*
X232427551Y-83808689D03*
X232427551Y-81268689D03*
X232427551Y-78728689D03*
X232427551Y-76188689D03*
X232427551Y-73648689D03*
X207027551Y-86348689D03*
X207027551Y-83808689D03*
X207027551Y-81268689D03*
X207027551Y-78728689D03*
X207027551Y-76188689D03*
X207027551Y-73648689D03*
D12*
X211853551Y-70981689D03*
X215351131Y-70981689D03*
D13*
X218851251Y-70981689D03*
D12*
X222351371Y-70981689D03*
D11*
X227347551Y-73648689D03*
X227347551Y-76188689D03*
X227347551Y-78728689D03*
X227347551Y-81268689D03*
X227347551Y-83808689D03*
X227347551Y-86348689D03*
X181627551Y-86348689D03*
X181627551Y-83808689D03*
X181627551Y-81268689D03*
X181627551Y-78728689D03*
X181627551Y-76188689D03*
X181627551Y-73648689D03*
X201947551Y-73648689D03*
X201947551Y-76188689D03*
X201947551Y-78728689D03*
X201947551Y-81268689D03*
X201947551Y-83808689D03*
X201947551Y-86348689D03*
D12*
X186453551Y-70981689D03*
X189951131Y-70981689D03*
D13*
X193451251Y-70981689D03*
D12*
X196951371Y-70981689D03*
D11*
X176547551Y-73648689D03*
X176547551Y-76188689D03*
X176547551Y-78728689D03*
X176547551Y-81268689D03*
X176547551Y-83808689D03*
X176547551Y-86348689D03*
X151147551Y-73648689D03*
X151147551Y-76188689D03*
X151147551Y-78728689D03*
X151147551Y-81268689D03*
X151147551Y-83808689D03*
X151147551Y-86348689D03*
X125747551Y-73648689D03*
X125747551Y-76188689D03*
X125747551Y-78728689D03*
X125747551Y-81268689D03*
X125747551Y-83808689D03*
X125747551Y-86348689D03*
X100347551Y-73648689D03*
X100347551Y-76188689D03*
X100347551Y-78728689D03*
X100347551Y-81268689D03*
X100347551Y-83808689D03*
X100347551Y-86348689D03*
D12*
X161053551Y-70981689D03*
X164551131Y-70981689D03*
D13*
X168051251Y-70981689D03*
D12*
X171551371Y-70981689D03*
X135653551Y-70981689D03*
X139151131Y-70981689D03*
D13*
X142651251Y-70981689D03*
D12*
X146151371Y-70981689D03*
X110253551Y-70981689D03*
X113751131Y-70981689D03*
D13*
X117251251Y-70981689D03*
D12*
X120751371Y-70981689D03*
X84853551Y-70981689D03*
X88351131Y-70981689D03*
D13*
X91851251Y-70981689D03*
D12*
X95351371Y-70981689D03*
D11*
X156227551Y-86348689D03*
X156227551Y-83808689D03*
X156227551Y-81268689D03*
X156227551Y-78728689D03*
X156227551Y-76188689D03*
X156227551Y-73648689D03*
X130827551Y-86348689D03*
X130827551Y-83808689D03*
X130827551Y-81268689D03*
X130827551Y-78728689D03*
X130827551Y-76188689D03*
X130827551Y-73648689D03*
X105427551Y-86348689D03*
X105427551Y-83808689D03*
X105427551Y-81268689D03*
X105427551Y-78728689D03*
X105427551Y-76188689D03*
X105427551Y-73648689D03*
X80027551Y-86348689D03*
X80027551Y-83808689D03*
X80027551Y-81268689D03*
X80027551Y-78728689D03*
X80027551Y-76188689D03*
X80027551Y-73648689D03*
D12*
X59453551Y-70981689D03*
X62951131Y-70981689D03*
D13*
X66451251Y-70981689D03*
D12*
X69951371Y-70981689D03*
D11*
X54627551Y-86348689D03*
X54627551Y-83808689D03*
X54627551Y-81268689D03*
X54627551Y-78728689D03*
X54627551Y-76188689D03*
X54627551Y-73648689D03*
X74947551Y-73648689D03*
X74947551Y-76188689D03*
X74947551Y-78728689D03*
X74947551Y-81268689D03*
X74947551Y-83808689D03*
X74947551Y-86348689D03*
D14*
X232681551Y-91936689D03*
X250588551Y-110859689D03*
X246651551Y-100191689D03*
X246143551Y-102858689D03*
X225188551Y-110859689D03*
X220743551Y-102858689D03*
X221251551Y-100191689D03*
X207281551Y-91936689D03*
X199788551Y-110859689D03*
X195851551Y-100191689D03*
X195343551Y-102858689D03*
X181881551Y-91936689D03*
X156481551Y-91936689D03*
X131081551Y-91936689D03*
X105681551Y-91936689D03*
X80281551Y-91936689D03*
X174388551Y-110859689D03*
X148988551Y-110859689D03*
X123588551Y-110859689D03*
X98188551Y-110859689D03*
X170451551Y-100191689D03*
X145051551Y-100191689D03*
X119651551Y-100191689D03*
X94251551Y-100191689D03*
X169943551Y-102858689D03*
X144543551Y-102858689D03*
X119143551Y-102858689D03*
X93743551Y-102858689D03*
X72788551Y-110859689D03*
X68343551Y-102858689D03*
X54881551Y-91936689D03*
X68851551Y-100191689D03*
X238142551Y-83046689D03*
X241317551Y-107176689D03*
X215917551Y-107176689D03*
X212742551Y-83046689D03*
X190517551Y-107176689D03*
X187342551Y-83046689D03*
X161942551Y-83046689D03*
X136542551Y-83046689D03*
X111142551Y-83046689D03*
X85742551Y-83046689D03*
X165117551Y-107176689D03*
X139717551Y-107176689D03*
X114317551Y-107176689D03*
X88917551Y-107176689D03*
X63517551Y-107176689D03*
X60342551Y-83046689D03*
X233570551Y-109208689D03*
X237888551Y-107811689D03*
X244238551Y-113018689D03*
X218838551Y-113018689D03*
X212488551Y-107811689D03*
X208170551Y-109208689D03*
X182770551Y-109208689D03*
X193438551Y-113018689D03*
X187088551Y-107811689D03*
X161688551Y-107811689D03*
X136288551Y-107811689D03*
X110888551Y-107811689D03*
X85488551Y-107811689D03*
X157370551Y-109208689D03*
X131970551Y-109208689D03*
X106570551Y-109208689D03*
X81170551Y-109208689D03*
X168038551Y-113018689D03*
X142638551Y-113018689D03*
X117238551Y-113018689D03*
X91838551Y-113018689D03*
X66438551Y-113018689D03*
X60088551Y-107811689D03*
X55770551Y-109208689D03*
X241190551Y-102985689D03*
X246016551Y-100826689D03*
X246016551Y-108827689D03*
X215790551Y-102985689D03*
X220616551Y-100826689D03*
X220616551Y-108827689D03*
X195216551Y-108827689D03*
X195216551Y-100826689D03*
X190390551Y-102985689D03*
X164990551Y-102985689D03*
X139590551Y-102985689D03*
X114190551Y-102985689D03*
X88790551Y-102985689D03*
X169816551Y-108827689D03*
X144416551Y-108827689D03*
X119016551Y-108827689D03*
X93616551Y-108827689D03*
X169816551Y-100826689D03*
X144416551Y-100826689D03*
X119016551Y-100826689D03*
X93616551Y-100826689D03*
X68216551Y-108827689D03*
X68216551Y-100826689D03*
X63390551Y-102985689D03*
X237888551Y-95238689D03*
X234332551Y-102350689D03*
X212488551Y-95238689D03*
X208932551Y-102350689D03*
X183532551Y-102350689D03*
X187088551Y-95238689D03*
X158132551Y-102350689D03*
X132732551Y-102350689D03*
X107332551Y-102350689D03*
X81932551Y-102350689D03*
X161688551Y-95238689D03*
X136288551Y-95238689D03*
X110888551Y-95238689D03*
X85488551Y-95238689D03*
X60088551Y-95238689D03*
X56532551Y-102350689D03*
X239031551Y-95238689D03*
X236364551Y-102350689D03*
X213631551Y-95238689D03*
X210964551Y-102350689D03*
X185564551Y-102350689D03*
X188231551Y-95238689D03*
X160164551Y-102350689D03*
X134764551Y-102350689D03*
X109364551Y-102350689D03*
X83964551Y-102350689D03*
X162831551Y-95238689D03*
X137431551Y-95238689D03*
X112031551Y-95238689D03*
X86631551Y-95238689D03*
X61231551Y-95238689D03*
X58564551Y-102350689D03*
X243984551Y-81014689D03*
X240936551Y-97778689D03*
X215536551Y-97778689D03*
X218584551Y-81014689D03*
X190136551Y-97778689D03*
X193184551Y-81014689D03*
X167784551Y-81014689D03*
X142384551Y-81014689D03*
X116984551Y-81014689D03*
X91584551Y-81014689D03*
X164736551Y-97778689D03*
X139336551Y-97778689D03*
X113936551Y-97778689D03*
X88536551Y-97778689D03*
X66184551Y-81014689D03*
X63136551Y-97778689D03*
X244746551Y-82284689D03*
X243349551Y-96889689D03*
X217949551Y-96889689D03*
X219346551Y-82284689D03*
X192549551Y-96889689D03*
X193946551Y-82284689D03*
X168546551Y-82284689D03*
X143146551Y-82284689D03*
X117746551Y-82284689D03*
X92346551Y-82284689D03*
X167149551Y-96889689D03*
X141749551Y-96889689D03*
X116349551Y-96889689D03*
X90949551Y-96889689D03*
X66946551Y-82284689D03*
X65549551Y-96889689D03*
X245762551Y-79744689D03*
X242714551Y-99048689D03*
X217314551Y-99048689D03*
X220362551Y-79744689D03*
X191914551Y-99048689D03*
X194962551Y-79744689D03*
X169562551Y-79744689D03*
X144162551Y-79744689D03*
X118762551Y-79744689D03*
X93362551Y-79744689D03*
X166514551Y-99048689D03*
X141114551Y-99048689D03*
X115714551Y-99048689D03*
X90314551Y-99048689D03*
X67962551Y-79744689D03*
X64914551Y-99048689D03*
X247413551Y-84570689D03*
X222013551Y-84570689D03*
X196613551Y-84570689D03*
X171213551Y-84570689D03*
X145813551Y-84570689D03*
X120413551Y-84570689D03*
X95013551Y-84570689D03*
X69613551Y-84570689D03*
D15*
X246651551Y-100191689D02*
X246951550Y-99891690D01*
X247413551Y-100953689D02*
X246651551Y-100191689D01*
X246143551Y-102858689D02*
X246443550Y-102558690D01*
X246570550Y-102558690D02*
X247413551Y-101715689D01*
X247413551Y-101715689D02*
X247413551Y-100953689D01*
X246443550Y-102558690D02*
X246570550Y-102558690D01*
X221251551Y-100191689D02*
X221551550Y-99891690D01*
X222013551Y-100953689D02*
X221251551Y-100191689D01*
X221043550Y-102558690D02*
X221170550Y-102558690D01*
X222013551Y-101715689D02*
X222013551Y-100953689D01*
X221170550Y-102558690D02*
X222013551Y-101715689D01*
X220743551Y-102858689D02*
X221043550Y-102558690D01*
X195851551Y-100191689D02*
X196151550Y-99891690D01*
X196613551Y-101715689D02*
X196613551Y-100953689D01*
X196613551Y-100953689D02*
X195851551Y-100191689D01*
X195343551Y-102858689D02*
X195643550Y-102558690D01*
X195643550Y-102558690D02*
X195770550Y-102558690D01*
X195770550Y-102558690D02*
X196613551Y-101715689D01*
X170451551Y-100191689D02*
X170751550Y-99891690D01*
X145051551Y-100191689D02*
X145351550Y-99891690D01*
X119651551Y-100191689D02*
X119951550Y-99891690D01*
X94251551Y-100191689D02*
X94551550Y-99891690D01*
X170243550Y-102558690D02*
X170370550Y-102558690D01*
X144843550Y-102558690D02*
X144970550Y-102558690D01*
X119443550Y-102558690D02*
X119570550Y-102558690D01*
X94043550Y-102558690D02*
X94170550Y-102558690D01*
X171213551Y-100953689D02*
X170451551Y-100191689D01*
X145813551Y-100953689D02*
X145051551Y-100191689D01*
X120413551Y-100953689D02*
X119651551Y-100191689D01*
X95013551Y-100953689D02*
X94251551Y-100191689D01*
X171213551Y-101715689D02*
X171213551Y-100953689D01*
X145813551Y-101715689D02*
X145813551Y-100953689D01*
X120413551Y-101715689D02*
X120413551Y-100953689D01*
X95013551Y-101715689D02*
X95013551Y-100953689D01*
X170370550Y-102558690D02*
X171213551Y-101715689D01*
X144970550Y-102558690D02*
X145813551Y-101715689D01*
X119570550Y-102558690D02*
X120413551Y-101715689D01*
X94170550Y-102558690D02*
X95013551Y-101715689D01*
X169943551Y-102858689D02*
X170243550Y-102558690D01*
X144543551Y-102858689D02*
X144843550Y-102558690D01*
X119143551Y-102858689D02*
X119443550Y-102558690D01*
X93743551Y-102858689D02*
X94043550Y-102558690D01*
X68851551Y-100191689D02*
X69151550Y-99891690D01*
X68643550Y-102558690D02*
X68770550Y-102558690D01*
X68343551Y-102858689D02*
X68643550Y-102558690D01*
X69613551Y-101715689D02*
X69613551Y-100953689D01*
X68770550Y-102558690D02*
X69613551Y-101715689D01*
X69613551Y-100953689D02*
X68851551Y-100191689D01*
X240893287Y-107176689D02*
X239793551Y-106076953D01*
X241317551Y-107176689D02*
X240893287Y-107176689D01*
X239793551Y-106076953D02*
X239793551Y-84697689D01*
X239793551Y-84697689D02*
X238142551Y-83046689D01*
X214393551Y-84697689D02*
X212742551Y-83046689D01*
X215493287Y-107176689D02*
X214393551Y-106076953D01*
X214393551Y-106076953D02*
X214393551Y-84697689D01*
X215917551Y-107176689D02*
X215493287Y-107176689D01*
X190517551Y-107176689D02*
X190093287Y-107176689D01*
X188993551Y-106076953D02*
X188993551Y-84697689D01*
X188993551Y-84697689D02*
X187342551Y-83046689D01*
X190093287Y-107176689D02*
X188993551Y-106076953D01*
X163593551Y-106076953D02*
X163593551Y-84697689D01*
X138193551Y-106076953D02*
X138193551Y-84697689D01*
X112793551Y-106076953D02*
X112793551Y-84697689D01*
X87393551Y-106076953D02*
X87393551Y-84697689D01*
X163593551Y-84697689D02*
X161942551Y-83046689D01*
X138193551Y-84697689D02*
X136542551Y-83046689D01*
X112793551Y-84697689D02*
X111142551Y-83046689D01*
X87393551Y-84697689D02*
X85742551Y-83046689D01*
X164693287Y-107176689D02*
X163593551Y-106076953D01*
X139293287Y-107176689D02*
X138193551Y-106076953D01*
X113893287Y-107176689D02*
X112793551Y-106076953D01*
X88493287Y-107176689D02*
X87393551Y-106076953D01*
X165117551Y-107176689D02*
X164693287Y-107176689D01*
X139717551Y-107176689D02*
X139293287Y-107176689D01*
X114317551Y-107176689D02*
X113893287Y-107176689D01*
X88917551Y-107176689D02*
X88493287Y-107176689D01*
X61993551Y-106076953D02*
X61993551Y-84697689D01*
X63517551Y-107176689D02*
X63093287Y-107176689D01*
X61993551Y-84697689D02*
X60342551Y-83046689D01*
X63093287Y-107176689D02*
X61993551Y-106076953D01*
X244238551Y-113018689D02*
X237380551Y-113018689D01*
X237888551Y-107811689D02*
X234967551Y-107811689D01*
X237380551Y-113018689D02*
X233570551Y-109208689D01*
X234967551Y-107811689D02*
X233570551Y-109208689D01*
X209567551Y-107811689D02*
X208170551Y-109208689D01*
X218838551Y-113018689D02*
X211980551Y-113018689D01*
X211980551Y-113018689D02*
X208170551Y-109208689D01*
X212488551Y-107811689D02*
X209567551Y-107811689D01*
X187088551Y-107811689D02*
X184167551Y-107811689D01*
X184167551Y-107811689D02*
X182770551Y-109208689D01*
X186580551Y-113018689D02*
X182770551Y-109208689D01*
X193438551Y-113018689D02*
X186580551Y-113018689D01*
X168038551Y-113018689D02*
X161180551Y-113018689D01*
X142638551Y-113018689D02*
X135780551Y-113018689D01*
X117238551Y-113018689D02*
X110380551Y-113018689D01*
X91838551Y-113018689D02*
X84980551Y-113018689D01*
X161180551Y-113018689D02*
X157370551Y-109208689D01*
X135780551Y-113018689D02*
X131970551Y-109208689D01*
X110380551Y-113018689D02*
X106570551Y-109208689D01*
X84980551Y-113018689D02*
X81170551Y-109208689D01*
X158767551Y-107811689D02*
X157370551Y-109208689D01*
X133367551Y-107811689D02*
X131970551Y-109208689D01*
X107967551Y-107811689D02*
X106570551Y-109208689D01*
X82567551Y-107811689D02*
X81170551Y-109208689D01*
X161688551Y-107811689D02*
X158767551Y-107811689D01*
X136288551Y-107811689D02*
X133367551Y-107811689D01*
X110888551Y-107811689D02*
X107967551Y-107811689D01*
X85488551Y-107811689D02*
X82567551Y-107811689D01*
X60088551Y-107811689D02*
X57167551Y-107811689D01*
X57167551Y-107811689D02*
X55770551Y-109208689D01*
X66438551Y-113018689D02*
X59580551Y-113018689D01*
X59580551Y-113018689D02*
X55770551Y-109208689D01*
X243857551Y-106668689D02*
X243857551Y-102985689D01*
X246016551Y-108827689D02*
X243857551Y-106668689D01*
X246016551Y-100826689D02*
X243857551Y-102985689D01*
X243857551Y-102985689D02*
X241190551Y-102985689D01*
X218457551Y-102985689D02*
X215790551Y-102985689D01*
X220616551Y-100826689D02*
X218457551Y-102985689D01*
X218457551Y-106668689D02*
X218457551Y-102985689D01*
X220616551Y-108827689D02*
X218457551Y-106668689D01*
X195216551Y-108827689D02*
X193057551Y-106668689D01*
X195216551Y-100826689D02*
X193057551Y-102985689D01*
X193057551Y-102985689D02*
X190390551Y-102985689D01*
X193057551Y-106668689D02*
X193057551Y-102985689D01*
X167657551Y-102985689D02*
X164990551Y-102985689D01*
X142257551Y-102985689D02*
X139590551Y-102985689D01*
X116857551Y-102985689D02*
X114190551Y-102985689D01*
X91457551Y-102985689D02*
X88790551Y-102985689D01*
X167657551Y-106668689D02*
X167657551Y-102985689D01*
X142257551Y-106668689D02*
X142257551Y-102985689D01*
X116857551Y-106668689D02*
X116857551Y-102985689D01*
X91457551Y-106668689D02*
X91457551Y-102985689D01*
X169816551Y-108827689D02*
X167657551Y-106668689D01*
X144416551Y-108827689D02*
X142257551Y-106668689D01*
X119016551Y-108827689D02*
X116857551Y-106668689D01*
X93616551Y-108827689D02*
X91457551Y-106668689D01*
X169816551Y-100826689D02*
X167657551Y-102985689D01*
X144416551Y-100826689D02*
X142257551Y-102985689D01*
X119016551Y-100826689D02*
X116857551Y-102985689D01*
X93616551Y-100826689D02*
X91457551Y-102985689D01*
X66057551Y-102985689D02*
X63390551Y-102985689D01*
X68216551Y-100826689D02*
X66057551Y-102985689D01*
X68216551Y-108827689D02*
X66057551Y-106668689D01*
X66057551Y-106668689D02*
X66057551Y-102985689D01*
X234332551Y-98794689D02*
X237888551Y-95238689D01*
X234332551Y-102350689D02*
X234332551Y-98794689D01*
X208932551Y-102350689D02*
X208932551Y-98794689D01*
X208932551Y-98794689D02*
X212488551Y-95238689D01*
X183532551Y-102350689D02*
X183532551Y-98794689D01*
X183532551Y-98794689D02*
X187088551Y-95238689D01*
X158132551Y-102350689D02*
X158132551Y-98794689D01*
X132732551Y-102350689D02*
X132732551Y-98794689D01*
X107332551Y-102350689D02*
X107332551Y-98794689D01*
X81932551Y-102350689D02*
X81932551Y-98794689D01*
X158132551Y-98794689D02*
X161688551Y-95238689D01*
X132732551Y-98794689D02*
X136288551Y-95238689D01*
X107332551Y-98794689D02*
X110888551Y-95238689D01*
X81932551Y-98794689D02*
X85488551Y-95238689D01*
X56532551Y-98794689D02*
X60088551Y-95238689D01*
X56532551Y-102350689D02*
X56532551Y-98794689D01*
X236364551Y-102350689D02*
X236364551Y-97905689D01*
X236364551Y-97905689D02*
X239031551Y-95238689D01*
X210964551Y-97905689D02*
X213631551Y-95238689D01*
X210964551Y-102350689D02*
X210964551Y-97905689D01*
X185564551Y-102350689D02*
X185564551Y-97905689D01*
X185564551Y-97905689D02*
X188231551Y-95238689D01*
X160164551Y-102350689D02*
X160164551Y-97905689D01*
X134764551Y-102350689D02*
X134764551Y-97905689D01*
X109364551Y-102350689D02*
X109364551Y-97905689D01*
X83964551Y-102350689D02*
X83964551Y-97905689D01*
X160164551Y-97905689D02*
X162831551Y-95238689D01*
X134764551Y-97905689D02*
X137431551Y-95238689D01*
X109364551Y-97905689D02*
X112031551Y-95238689D01*
X83964551Y-97905689D02*
X86631551Y-95238689D01*
X58564551Y-97905689D02*
X61231551Y-95238689D01*
X58564551Y-102350689D02*
X58564551Y-97905689D01*
X243984551Y-94984689D02*
X242841551Y-96127689D01*
X242841551Y-96127689D02*
X241190551Y-97778689D01*
X243984551Y-81014689D02*
X243984551Y-94984689D01*
X241190551Y-97778689D02*
X240936551Y-97778689D01*
X217441551Y-96127689D02*
X215790551Y-97778689D01*
X218584551Y-81014689D02*
X218584551Y-94984689D01*
X215790551Y-97778689D02*
X215536551Y-97778689D01*
X218584551Y-94984689D02*
X217441551Y-96127689D01*
X193184551Y-81014689D02*
X193184551Y-94984689D01*
X193184551Y-94984689D02*
X192041551Y-96127689D01*
X190390551Y-97778689D02*
X190136551Y-97778689D01*
X192041551Y-96127689D02*
X190390551Y-97778689D01*
X167784551Y-81014689D02*
X167784551Y-94984689D01*
X142384551Y-81014689D02*
X142384551Y-94984689D01*
X116984551Y-81014689D02*
X116984551Y-94984689D01*
X91584551Y-81014689D02*
X91584551Y-94984689D01*
X166641551Y-96127689D02*
X164990551Y-97778689D01*
X141241551Y-96127689D02*
X139590551Y-97778689D01*
X115841551Y-96127689D02*
X114190551Y-97778689D01*
X90441551Y-96127689D02*
X88790551Y-97778689D01*
X164990551Y-97778689D02*
X164736551Y-97778689D01*
X139590551Y-97778689D02*
X139336551Y-97778689D01*
X114190551Y-97778689D02*
X113936551Y-97778689D01*
X88790551Y-97778689D02*
X88536551Y-97778689D01*
X167784551Y-94984689D02*
X166641551Y-96127689D01*
X142384551Y-94984689D02*
X141241551Y-96127689D01*
X116984551Y-94984689D02*
X115841551Y-96127689D01*
X91584551Y-94984689D02*
X90441551Y-96127689D01*
X66184551Y-94984689D02*
X65041551Y-96127689D01*
X63390551Y-97778689D02*
X63136551Y-97778689D01*
X65041551Y-96127689D02*
X63390551Y-97778689D01*
X66184551Y-81014689D02*
X66184551Y-94984689D01*
X244446552Y-95792688D02*
X243349551Y-96889689D01*
X244446552Y-95411688D02*
X244446552Y-95792688D01*
X244446552Y-82584688D02*
X244446552Y-95411688D01*
X244746551Y-82284689D02*
X244446552Y-82584688D01*
X219346551Y-82284689D02*
X219046552Y-82584688D01*
X219046552Y-82584688D02*
X219046552Y-95411688D01*
X219046552Y-95411688D02*
X219046552Y-95792688D01*
X219046552Y-95792688D02*
X217949551Y-96889689D01*
X193946551Y-82284689D02*
X193646552Y-82584688D01*
X193646552Y-82584688D02*
X193646552Y-95411688D01*
X193646552Y-95792688D02*
X192549551Y-96889689D01*
X193646552Y-95411688D02*
X193646552Y-95792688D01*
X168246552Y-82584688D02*
X168246552Y-95411688D01*
X142846552Y-82584688D02*
X142846552Y-95411688D01*
X117446552Y-82584688D02*
X117446552Y-95411688D01*
X92046552Y-82584688D02*
X92046552Y-95411688D01*
X168246552Y-95411688D02*
X168246552Y-95792688D01*
X142846552Y-95411688D02*
X142846552Y-95792688D01*
X117446552Y-95411688D02*
X117446552Y-95792688D01*
X92046552Y-95411688D02*
X92046552Y-95792688D01*
X168546551Y-82284689D02*
X168246552Y-82584688D01*
X143146551Y-82284689D02*
X142846552Y-82584688D01*
X117746551Y-82284689D02*
X117446552Y-82584688D01*
X92346551Y-82284689D02*
X92046552Y-82584688D01*
X168246552Y-95792688D02*
X167149551Y-96889689D01*
X142846552Y-95792688D02*
X141749551Y-96889689D01*
X117446552Y-95792688D02*
X116349551Y-96889689D01*
X92046552Y-95792688D02*
X90949551Y-96889689D01*
X66646552Y-95411688D02*
X66646552Y-95792688D01*
X66646552Y-95792688D02*
X65549551Y-96889689D01*
X66646552Y-82584688D02*
X66646552Y-95411688D01*
X66946551Y-82284689D02*
X66646552Y-82584688D01*
X245762551Y-96000689D02*
X242714551Y-99048689D01*
X245762551Y-79744689D02*
X245762551Y-96000689D01*
X220362551Y-96000689D02*
X217314551Y-99048689D01*
X220362551Y-79744689D02*
X220362551Y-96000689D01*
X194962551Y-96000689D02*
X191914551Y-99048689D01*
X194962551Y-79744689D02*
X194962551Y-96000689D01*
X169562551Y-79744689D02*
X169562551Y-96000689D01*
X144162551Y-79744689D02*
X144162551Y-96000689D01*
X118762551Y-79744689D02*
X118762551Y-96000689D01*
X93362551Y-79744689D02*
X93362551Y-96000689D01*
X169562551Y-96000689D02*
X166514551Y-99048689D01*
X144162551Y-96000689D02*
X141114551Y-99048689D01*
X118762551Y-96000689D02*
X115714551Y-99048689D01*
X93362551Y-96000689D02*
X90314551Y-99048689D01*
X67962551Y-79744689D02*
X67962551Y-96000689D01*
X67962551Y-96000689D02*
X64914551Y-99048689D01*
X247751371Y-84232869D02*
X247751371Y-70981689D01*
X247413551Y-84570689D02*
X247751371Y-84232869D01*
X222351371Y-84232869D02*
X222351371Y-70981689D01*
X222013551Y-84570689D02*
X222351371Y-84232869D01*
X196951371Y-84232869D02*
X196951371Y-70981689D01*
X196613551Y-84570689D02*
X196951371Y-84232869D01*
X171213551Y-84570689D02*
X171551371Y-84232869D01*
X145813551Y-84570689D02*
X146151371Y-84232869D01*
X120413551Y-84570689D02*
X120751371Y-84232869D01*
X95013551Y-84570689D02*
X95351371Y-84232869D01*
X171551371Y-84232869D02*
X171551371Y-70981689D01*
X146151371Y-84232869D02*
X146151371Y-70981689D01*
X120751371Y-84232869D02*
X120751371Y-70981689D01*
X95351371Y-84232869D02*
X95351371Y-70981689D01*
X69613551Y-84570689D02*
X69951371Y-84232869D01*
X69951371Y-84232869D02*
X69951371Y-70981689D01*
D16*
G36*
X75507551Y-72176053D02*
X75262172Y-72074163D01*
X74635678Y-72073616D01*
X74056664Y-72312860D01*
X73613279Y-72755472D01*
X73373025Y-73334068D01*
X73372478Y-73960562D01*
X73611722Y-74539576D01*
X73990447Y-74918962D01*
X73613279Y-75295472D01*
X73373025Y-75874068D01*
X73372478Y-76500562D01*
X73611722Y-77079576D01*
X73990447Y-77458962D01*
X73613279Y-77835472D01*
X73373025Y-78414068D01*
X73372478Y-79040562D01*
X73611722Y-79619576D01*
X73990447Y-79998962D01*
X73613279Y-80375472D01*
X73373025Y-80954068D01*
X73372478Y-81580562D01*
X73611722Y-82159576D01*
X73990447Y-82538962D01*
X73613279Y-82915472D01*
X73373025Y-83494068D01*
X73372478Y-84120562D01*
X73611722Y-84699576D01*
X73990447Y-85078962D01*
X73613279Y-85455472D01*
X73373025Y-86034068D01*
X73372478Y-86660562D01*
X73611722Y-87239576D01*
X74054334Y-87682961D01*
X74632930Y-87923215D01*
X75259424Y-87923762D01*
X75507551Y-87821238D01*
X75507551Y-113832689D01*
X66916953Y-113832689D01*
X66967494Y-113811806D01*
X67230743Y-113549016D01*
X67373389Y-113205488D01*
X67373713Y-112833522D01*
X67231668Y-112489746D01*
X66968878Y-112226497D01*
X66625350Y-112083851D01*
X66253384Y-112083527D01*
X65909608Y-112225572D01*
X65876433Y-112258689D01*
X59895353Y-112258689D01*
X56845353Y-109208689D01*
X57482353Y-108571689D01*
X59526088Y-108571689D01*
X59558224Y-108603881D01*
X59901752Y-108746527D01*
X60273718Y-108746851D01*
X60617494Y-108604806D01*
X60880743Y-108342016D01*
X61023389Y-107998488D01*
X61023713Y-107626522D01*
X60881668Y-107282746D01*
X60618878Y-107019497D01*
X60275350Y-106876851D01*
X59903384Y-106876527D01*
X59559608Y-107018572D01*
X59526433Y-107051689D01*
X57167551Y-107051689D01*
X56876711Y-107109541D01*
X56630150Y-107274288D01*
X55630871Y-108273567D01*
X55585384Y-108273527D01*
X55241608Y-108415572D01*
X54978359Y-108678362D01*
X54835713Y-109021890D01*
X54835389Y-109393856D01*
X54977434Y-109737632D01*
X55240224Y-110000881D01*
X55583752Y-110143527D01*
X55630628Y-110143568D01*
X59043150Y-113556090D01*
X59289712Y-113720837D01*
X59580551Y-113778689D01*
X65876088Y-113778689D01*
X65908224Y-113810881D01*
X65960743Y-113832689D01*
X54067551Y-113832689D01*
X54067551Y-102535856D01*
X55597389Y-102535856D01*
X55739434Y-102879632D01*
X56002224Y-103142881D01*
X56345752Y-103285527D01*
X56717718Y-103285851D01*
X57061494Y-103143806D01*
X57324743Y-102881016D01*
X57467389Y-102537488D01*
X57467713Y-102165522D01*
X57325668Y-101821746D01*
X57292551Y-101788571D01*
X57292551Y-99109491D01*
X57804551Y-98597491D01*
X57804551Y-101788226D01*
X57772359Y-101820362D01*
X57629713Y-102163890D01*
X57629389Y-102535856D01*
X57771434Y-102879632D01*
X58034224Y-103142881D01*
X58377752Y-103285527D01*
X58749718Y-103285851D01*
X59093494Y-103143806D01*
X59356743Y-102881016D01*
X59499389Y-102537488D01*
X59499713Y-102165522D01*
X59357668Y-101821746D01*
X59324551Y-101788571D01*
X59324551Y-98220491D01*
X61233551Y-96311491D01*
X61233551Y-106076953D01*
X61291403Y-106367792D01*
X61456150Y-106614354D01*
X62555886Y-107714090D01*
X62802448Y-107878837D01*
X62920847Y-107902388D01*
X62987224Y-107968881D01*
X63330752Y-108111527D01*
X63702718Y-108111851D01*
X64046494Y-107969806D01*
X64309743Y-107707016D01*
X64452389Y-107363488D01*
X64452713Y-106991522D01*
X64310668Y-106647746D01*
X64047878Y-106384497D01*
X63704350Y-106241851D01*
X63332384Y-106241527D01*
X63262006Y-106270606D01*
X62753551Y-105762151D01*
X62753551Y-103671022D01*
X62860224Y-103777881D01*
X63203752Y-103920527D01*
X63575718Y-103920851D01*
X63919494Y-103778806D01*
X63952669Y-103745689D01*
X65297551Y-103745689D01*
X65297551Y-106668689D01*
X65355403Y-106959528D01*
X65520150Y-107206090D01*
X67281429Y-108967369D01*
X67281389Y-109012856D01*
X67423434Y-109356632D01*
X67686224Y-109619881D01*
X68029752Y-109762527D01*
X68401718Y-109762851D01*
X68745494Y-109620806D01*
X69008743Y-109358016D01*
X69151389Y-109014488D01*
X69151713Y-108642522D01*
X69009668Y-108298746D01*
X68746878Y-108035497D01*
X68403350Y-107892851D01*
X68356474Y-107892810D01*
X66817551Y-106353887D01*
X66817551Y-103300491D01*
X68356231Y-101761811D01*
X68401718Y-101761851D01*
X68745494Y-101619806D01*
X69008743Y-101357016D01*
X69151389Y-101013488D01*
X69151713Y-100641522D01*
X69009668Y-100297746D01*
X68746878Y-100034497D01*
X68403350Y-99891851D01*
X68031384Y-99891527D01*
X67687608Y-100033572D01*
X67424359Y-100296362D01*
X67281713Y-100639890D01*
X67281672Y-100686766D01*
X65742749Y-102225689D01*
X63953014Y-102225689D01*
X63920878Y-102193497D01*
X63577350Y-102050851D01*
X63205384Y-102050527D01*
X62861608Y-102192572D01*
X62753551Y-102300441D01*
X62753551Y-98632057D01*
X62949752Y-98713527D01*
X63321718Y-98713851D01*
X63665494Y-98571806D01*
X63908913Y-98328811D01*
X63927952Y-98316090D01*
X64790892Y-97453150D01*
X65019224Y-97681881D01*
X65151593Y-97736845D01*
X64774871Y-98113567D01*
X64729384Y-98113527D01*
X64385608Y-98255572D01*
X64122359Y-98518362D01*
X63979713Y-98861890D01*
X63979389Y-99233856D01*
X64121434Y-99577632D01*
X64384224Y-99840881D01*
X64727752Y-99983527D01*
X65099718Y-99983851D01*
X65443494Y-99841806D01*
X65706743Y-99579016D01*
X65849389Y-99235488D01*
X65849430Y-99188612D01*
X68499952Y-96538090D01*
X68664699Y-96291528D01*
X68722551Y-96000689D01*
X68722551Y-84862736D01*
X68820434Y-85099632D01*
X69083224Y-85362881D01*
X69426752Y-85505527D01*
X69798718Y-85505851D01*
X70142494Y-85363806D01*
X70405743Y-85101016D01*
X70548389Y-84757488D01*
X70548456Y-84680947D01*
X70653519Y-84523708D01*
X70711371Y-84232869D01*
X70711371Y-72454048D01*
X70885366Y-72382155D01*
X71350205Y-71918126D01*
X71602084Y-71311534D01*
X71602657Y-70654726D01*
X71351837Y-70047694D01*
X70887808Y-69582855D01*
X70281216Y-69330976D01*
X69624408Y-69330403D01*
X69017376Y-69581223D01*
X68552537Y-70045252D01*
X68300658Y-70651844D01*
X68300085Y-71308652D01*
X68550905Y-71915684D01*
X69014934Y-72380523D01*
X69191371Y-72453786D01*
X69191371Y-83733459D01*
X69084608Y-83777572D01*
X68821359Y-84040362D01*
X68722551Y-84278317D01*
X68722551Y-80307152D01*
X68754743Y-80275016D01*
X68897389Y-79931488D01*
X68897713Y-79559522D01*
X68755668Y-79215746D01*
X68492878Y-78952497D01*
X68149350Y-78809851D01*
X67777384Y-78809527D01*
X67433608Y-78951572D01*
X67170359Y-79214362D01*
X67027713Y-79557890D01*
X67027389Y-79929856D01*
X67169434Y-80273632D01*
X67202551Y-80306807D01*
X67202551Y-81378586D01*
X67133350Y-81349851D01*
X67057810Y-81349785D01*
X67119389Y-81201488D01*
X67119713Y-80829522D01*
X66977668Y-80485746D01*
X66714878Y-80222497D01*
X66371350Y-80079851D01*
X65999384Y-80079527D01*
X65655608Y-80221572D01*
X65392359Y-80484362D01*
X65249713Y-80827890D01*
X65249389Y-81199856D01*
X65391434Y-81543632D01*
X65424551Y-81576807D01*
X65424551Y-94669887D01*
X63250650Y-96843788D01*
X62951384Y-96843527D01*
X62753551Y-96925270D01*
X62753551Y-84697689D01*
X62695699Y-84406850D01*
X62530952Y-84160288D01*
X61277673Y-82907009D01*
X61277713Y-82861522D01*
X61135668Y-82517746D01*
X60872878Y-82254497D01*
X60529350Y-82111851D01*
X60157384Y-82111527D01*
X59813608Y-82253572D01*
X59550359Y-82516362D01*
X59407713Y-82859890D01*
X59407389Y-83231856D01*
X59549434Y-83575632D01*
X59812224Y-83838881D01*
X60155752Y-83981527D01*
X60202628Y-83981568D01*
X61233551Y-85012491D01*
X61233551Y-94303690D01*
X61046384Y-94303527D01*
X60702608Y-94445572D01*
X60660207Y-94487899D01*
X60618878Y-94446497D01*
X60275350Y-94303851D01*
X59903384Y-94303527D01*
X59559608Y-94445572D01*
X59296359Y-94708362D01*
X59153713Y-95051890D01*
X59153672Y-95098766D01*
X55995150Y-98257288D01*
X55830403Y-98503850D01*
X55772551Y-98794689D01*
X55772551Y-101788226D01*
X55740359Y-101820362D01*
X55597713Y-102163890D01*
X55597389Y-102535856D01*
X54067551Y-102535856D01*
X54067551Y-87821325D01*
X54312930Y-87923215D01*
X54939424Y-87923762D01*
X55518438Y-87684518D01*
X55961823Y-87241906D01*
X56202077Y-86663310D01*
X56202624Y-86036816D01*
X55963380Y-85457802D01*
X55584655Y-85078416D01*
X55961823Y-84701906D01*
X56202077Y-84123310D01*
X56202624Y-83496816D01*
X55963380Y-82917802D01*
X55584655Y-82538416D01*
X55961823Y-82161906D01*
X56202077Y-81583310D01*
X56202624Y-80956816D01*
X55963380Y-80377802D01*
X55584655Y-79998416D01*
X55961823Y-79621906D01*
X56202077Y-79043310D01*
X56202624Y-78416816D01*
X55963380Y-77837802D01*
X55584655Y-77458416D01*
X55961823Y-77081906D01*
X56202077Y-76503310D01*
X56202624Y-75876816D01*
X55963380Y-75297802D01*
X55584655Y-74918416D01*
X55961823Y-74541906D01*
X56202077Y-73963310D01*
X56202624Y-73336816D01*
X55963380Y-72757802D01*
X55520768Y-72314417D01*
X54942172Y-72074163D01*
X54315678Y-72073616D01*
X54067551Y-72176140D01*
X54067551Y-71308652D01*
X57802265Y-71308652D01*
X58053085Y-71915684D01*
X58517114Y-72380523D01*
X59123706Y-72632402D01*
X59780514Y-72632975D01*
X60387546Y-72382155D01*
X60852385Y-71918126D01*
X61104264Y-71311534D01*
X61104266Y-71308652D01*
X61299845Y-71308652D01*
X61550665Y-71915684D01*
X62014694Y-72380523D01*
X62621286Y-72632402D01*
X63278094Y-72632975D01*
X63885126Y-72382155D01*
X64349965Y-71918126D01*
X64601844Y-71311534D01*
X64601882Y-71267439D01*
X64800251Y-71267439D01*
X64800251Y-72123999D01*
X64896924Y-72357388D01*
X65075553Y-72536016D01*
X65308942Y-72632689D01*
X66165501Y-72632689D01*
X66324251Y-72473939D01*
X66324251Y-71108689D01*
X66578251Y-71108689D01*
X66578251Y-72473939D01*
X66737001Y-72632689D01*
X67593560Y-72632689D01*
X67826949Y-72536016D01*
X68005578Y-72357388D01*
X68102251Y-72123999D01*
X68102251Y-71267439D01*
X67943501Y-71108689D01*
X66578251Y-71108689D01*
X66324251Y-71108689D01*
X64959001Y-71108689D01*
X64800251Y-71267439D01*
X64601882Y-71267439D01*
X64602417Y-70654726D01*
X64351597Y-70047694D01*
X64143645Y-69839379D01*
X64800251Y-69839379D01*
X64800251Y-70695939D01*
X64959001Y-70854689D01*
X66324251Y-70854689D01*
X66324251Y-69489439D01*
X66578251Y-69489439D01*
X66578251Y-70854689D01*
X67943501Y-70854689D01*
X68102251Y-70695939D01*
X68102251Y-69839379D01*
X68005578Y-69605990D01*
X67826949Y-69427362D01*
X67593560Y-69330689D01*
X66737001Y-69330689D01*
X66578251Y-69489439D01*
X66324251Y-69489439D01*
X66165501Y-69330689D01*
X65308942Y-69330689D01*
X65075553Y-69427362D01*
X64896924Y-69605990D01*
X64800251Y-69839379D01*
X64143645Y-69839379D01*
X63887568Y-69582855D01*
X63280976Y-69330976D01*
X62624168Y-69330403D01*
X62017136Y-69581223D01*
X61552297Y-70045252D01*
X61300418Y-70651844D01*
X61299845Y-71308652D01*
X61104266Y-71308652D01*
X61104837Y-70654726D01*
X60854017Y-70047694D01*
X60389988Y-69582855D01*
X59783396Y-69330976D01*
X59126588Y-69330403D01*
X58519556Y-69581223D01*
X58054717Y-70045252D01*
X57802838Y-70651844D01*
X57802265Y-71308652D01*
X54067551Y-71308652D01*
X54067551Y-66230689D01*
X75507551Y-66230689D01*
X75507551Y-72176053D01*
X75507551Y-72176053D01*
G37*
X75507551Y-72176053D02*
X75262172Y-72074163D01*
X74635678Y-72073616D01*
X74056664Y-72312860D01*
X73613279Y-72755472D01*
X73373025Y-73334068D01*
X73372478Y-73960562D01*
X73611722Y-74539576D01*
X73990447Y-74918962D01*
X73613279Y-75295472D01*
X73373025Y-75874068D01*
X73372478Y-76500562D01*
X73611722Y-77079576D01*
X73990447Y-77458962D01*
X73613279Y-77835472D01*
X73373025Y-78414068D01*
X73372478Y-79040562D01*
X73611722Y-79619576D01*
X73990447Y-79998962D01*
X73613279Y-80375472D01*
X73373025Y-80954068D01*
X73372478Y-81580562D01*
X73611722Y-82159576D01*
X73990447Y-82538962D01*
X73613279Y-82915472D01*
X73373025Y-83494068D01*
X73372478Y-84120562D01*
X73611722Y-84699576D01*
X73990447Y-85078962D01*
X73613279Y-85455472D01*
X73373025Y-86034068D01*
X73372478Y-86660562D01*
X73611722Y-87239576D01*
X74054334Y-87682961D01*
X74632930Y-87923215D01*
X75259424Y-87923762D01*
X75507551Y-87821238D01*
X75507551Y-113832689D01*
X66916953Y-113832689D01*
X66967494Y-113811806D01*
X67230743Y-113549016D01*
X67373389Y-113205488D01*
X67373713Y-112833522D01*
X67231668Y-112489746D01*
X66968878Y-112226497D01*
X66625350Y-112083851D01*
X66253384Y-112083527D01*
X65909608Y-112225572D01*
X65876433Y-112258689D01*
X59895353Y-112258689D01*
X56845353Y-109208689D01*
X57482353Y-108571689D01*
X59526088Y-108571689D01*
X59558224Y-108603881D01*
X59901752Y-108746527D01*
X60273718Y-108746851D01*
X60617494Y-108604806D01*
X60880743Y-108342016D01*
X61023389Y-107998488D01*
X61023713Y-107626522D01*
X60881668Y-107282746D01*
X60618878Y-107019497D01*
X60275350Y-106876851D01*
X59903384Y-106876527D01*
X59559608Y-107018572D01*
X59526433Y-107051689D01*
X57167551Y-107051689D01*
X56876711Y-107109541D01*
X56630150Y-107274288D01*
X55630871Y-108273567D01*
X55585384Y-108273527D01*
X55241608Y-108415572D01*
X54978359Y-108678362D01*
X54835713Y-109021890D01*
X54835389Y-109393856D01*
X54977434Y-109737632D01*
X55240224Y-110000881D01*
X55583752Y-110143527D01*
X55630628Y-110143568D01*
X59043150Y-113556090D01*
X59289712Y-113720837D01*
X59580551Y-113778689D01*
X65876088Y-113778689D01*
X65908224Y-113810881D01*
X65960743Y-113832689D01*
X54067551Y-113832689D01*
X54067551Y-102535856D01*
X55597389Y-102535856D01*
X55739434Y-102879632D01*
X56002224Y-103142881D01*
X56345752Y-103285527D01*
X56717718Y-103285851D01*
X57061494Y-103143806D01*
X57324743Y-102881016D01*
X57467389Y-102537488D01*
X57467713Y-102165522D01*
X57325668Y-101821746D01*
X57292551Y-101788571D01*
X57292551Y-99109491D01*
X57804551Y-98597491D01*
X57804551Y-101788226D01*
X57772359Y-101820362D01*
X57629713Y-102163890D01*
X57629389Y-102535856D01*
X57771434Y-102879632D01*
X58034224Y-103142881D01*
X58377752Y-103285527D01*
X58749718Y-103285851D01*
X59093494Y-103143806D01*
X59356743Y-102881016D01*
X59499389Y-102537488D01*
X59499713Y-102165522D01*
X59357668Y-101821746D01*
X59324551Y-101788571D01*
X59324551Y-98220491D01*
X61233551Y-96311491D01*
X61233551Y-106076953D01*
X61291403Y-106367792D01*
X61456150Y-106614354D01*
X62555886Y-107714090D01*
X62802448Y-107878837D01*
X62920847Y-107902388D01*
X62987224Y-107968881D01*
X63330752Y-108111527D01*
X63702718Y-108111851D01*
X64046494Y-107969806D01*
X64309743Y-107707016D01*
X64452389Y-107363488D01*
X64452713Y-106991522D01*
X64310668Y-106647746D01*
X64047878Y-106384497D01*
X63704350Y-106241851D01*
X63332384Y-106241527D01*
X63262006Y-106270606D01*
X62753551Y-105762151D01*
X62753551Y-103671022D01*
X62860224Y-103777881D01*
X63203752Y-103920527D01*
X63575718Y-103920851D01*
X63919494Y-103778806D01*
X63952669Y-103745689D01*
X65297551Y-103745689D01*
X65297551Y-106668689D01*
X65355403Y-106959528D01*
X65520150Y-107206090D01*
X67281429Y-108967369D01*
X67281389Y-109012856D01*
X67423434Y-109356632D01*
X67686224Y-109619881D01*
X68029752Y-109762527D01*
X68401718Y-109762851D01*
X68745494Y-109620806D01*
X69008743Y-109358016D01*
X69151389Y-109014488D01*
X69151713Y-108642522D01*
X69009668Y-108298746D01*
X68746878Y-108035497D01*
X68403350Y-107892851D01*
X68356474Y-107892810D01*
X66817551Y-106353887D01*
X66817551Y-103300491D01*
X68356231Y-101761811D01*
X68401718Y-101761851D01*
X68745494Y-101619806D01*
X69008743Y-101357016D01*
X69151389Y-101013488D01*
X69151713Y-100641522D01*
X69009668Y-100297746D01*
X68746878Y-100034497D01*
X68403350Y-99891851D01*
X68031384Y-99891527D01*
X67687608Y-100033572D01*
X67424359Y-100296362D01*
X67281713Y-100639890D01*
X67281672Y-100686766D01*
X65742749Y-102225689D01*
X63953014Y-102225689D01*
X63920878Y-102193497D01*
X63577350Y-102050851D01*
X63205384Y-102050527D01*
X62861608Y-102192572D01*
X62753551Y-102300441D01*
X62753551Y-98632057D01*
X62949752Y-98713527D01*
X63321718Y-98713851D01*
X63665494Y-98571806D01*
X63908913Y-98328811D01*
X63927952Y-98316090D01*
X64790892Y-97453150D01*
X65019224Y-97681881D01*
X65151593Y-97736845D01*
X64774871Y-98113567D01*
X64729384Y-98113527D01*
X64385608Y-98255572D01*
X64122359Y-98518362D01*
X63979713Y-98861890D01*
X63979389Y-99233856D01*
X64121434Y-99577632D01*
X64384224Y-99840881D01*
X64727752Y-99983527D01*
X65099718Y-99983851D01*
X65443494Y-99841806D01*
X65706743Y-99579016D01*
X65849389Y-99235488D01*
X65849430Y-99188612D01*
X68499952Y-96538090D01*
X68664699Y-96291528D01*
X68722551Y-96000689D01*
X68722551Y-84862736D01*
X68820434Y-85099632D01*
X69083224Y-85362881D01*
X69426752Y-85505527D01*
X69798718Y-85505851D01*
X70142494Y-85363806D01*
X70405743Y-85101016D01*
X70548389Y-84757488D01*
X70548456Y-84680947D01*
X70653519Y-84523708D01*
X70711371Y-84232869D01*
X70711371Y-72454048D01*
X70885366Y-72382155D01*
X71350205Y-71918126D01*
X71602084Y-71311534D01*
X71602657Y-70654726D01*
X71351837Y-70047694D01*
X70887808Y-69582855D01*
X70281216Y-69330976D01*
X69624408Y-69330403D01*
X69017376Y-69581223D01*
X68552537Y-70045252D01*
X68300658Y-70651844D01*
X68300085Y-71308652D01*
X68550905Y-71915684D01*
X69014934Y-72380523D01*
X69191371Y-72453786D01*
X69191371Y-83733459D01*
X69084608Y-83777572D01*
X68821359Y-84040362D01*
X68722551Y-84278317D01*
X68722551Y-80307152D01*
X68754743Y-80275016D01*
X68897389Y-79931488D01*
X68897713Y-79559522D01*
X68755668Y-79215746D01*
X68492878Y-78952497D01*
X68149350Y-78809851D01*
X67777384Y-78809527D01*
X67433608Y-78951572D01*
X67170359Y-79214362D01*
X67027713Y-79557890D01*
X67027389Y-79929856D01*
X67169434Y-80273632D01*
X67202551Y-80306807D01*
X67202551Y-81378586D01*
X67133350Y-81349851D01*
X67057810Y-81349785D01*
X67119389Y-81201488D01*
X67119713Y-80829522D01*
X66977668Y-80485746D01*
X66714878Y-80222497D01*
X66371350Y-80079851D01*
X65999384Y-80079527D01*
X65655608Y-80221572D01*
X65392359Y-80484362D01*
X65249713Y-80827890D01*
X65249389Y-81199856D01*
X65391434Y-81543632D01*
X65424551Y-81576807D01*
X65424551Y-94669887D01*
X63250650Y-96843788D01*
X62951384Y-96843527D01*
X62753551Y-96925270D01*
X62753551Y-84697689D01*
X62695699Y-84406850D01*
X62530952Y-84160288D01*
X61277673Y-82907009D01*
X61277713Y-82861522D01*
X61135668Y-82517746D01*
X60872878Y-82254497D01*
X60529350Y-82111851D01*
X60157384Y-82111527D01*
X59813608Y-82253572D01*
X59550359Y-82516362D01*
X59407713Y-82859890D01*
X59407389Y-83231856D01*
X59549434Y-83575632D01*
X59812224Y-83838881D01*
X60155752Y-83981527D01*
X60202628Y-83981568D01*
X61233551Y-85012491D01*
X61233551Y-94303690D01*
X61046384Y-94303527D01*
X60702608Y-94445572D01*
X60660207Y-94487899D01*
X60618878Y-94446497D01*
X60275350Y-94303851D01*
X59903384Y-94303527D01*
X59559608Y-94445572D01*
X59296359Y-94708362D01*
X59153713Y-95051890D01*
X59153672Y-95098766D01*
X55995150Y-98257288D01*
X55830403Y-98503850D01*
X55772551Y-98794689D01*
X55772551Y-101788226D01*
X55740359Y-101820362D01*
X55597713Y-102163890D01*
X55597389Y-102535856D01*
X54067551Y-102535856D01*
X54067551Y-87821325D01*
X54312930Y-87923215D01*
X54939424Y-87923762D01*
X55518438Y-87684518D01*
X55961823Y-87241906D01*
X56202077Y-86663310D01*
X56202624Y-86036816D01*
X55963380Y-85457802D01*
X55584655Y-85078416D01*
X55961823Y-84701906D01*
X56202077Y-84123310D01*
X56202624Y-83496816D01*
X55963380Y-82917802D01*
X55584655Y-82538416D01*
X55961823Y-82161906D01*
X56202077Y-81583310D01*
X56202624Y-80956816D01*
X55963380Y-80377802D01*
X55584655Y-79998416D01*
X55961823Y-79621906D01*
X56202077Y-79043310D01*
X56202624Y-78416816D01*
X55963380Y-77837802D01*
X55584655Y-77458416D01*
X55961823Y-77081906D01*
X56202077Y-76503310D01*
X56202624Y-75876816D01*
X55963380Y-75297802D01*
X55584655Y-74918416D01*
X55961823Y-74541906D01*
X56202077Y-73963310D01*
X56202624Y-73336816D01*
X55963380Y-72757802D01*
X55520768Y-72314417D01*
X54942172Y-72074163D01*
X54315678Y-72073616D01*
X54067551Y-72176140D01*
X54067551Y-71308652D01*
X57802265Y-71308652D01*
X58053085Y-71915684D01*
X58517114Y-72380523D01*
X59123706Y-72632402D01*
X59780514Y-72632975D01*
X60387546Y-72382155D01*
X60852385Y-71918126D01*
X61104264Y-71311534D01*
X61104266Y-71308652D01*
X61299845Y-71308652D01*
X61550665Y-71915684D01*
X62014694Y-72380523D01*
X62621286Y-72632402D01*
X63278094Y-72632975D01*
X63885126Y-72382155D01*
X64349965Y-71918126D01*
X64601844Y-71311534D01*
X64601882Y-71267439D01*
X64800251Y-71267439D01*
X64800251Y-72123999D01*
X64896924Y-72357388D01*
X65075553Y-72536016D01*
X65308942Y-72632689D01*
X66165501Y-72632689D01*
X66324251Y-72473939D01*
X66324251Y-71108689D01*
X66578251Y-71108689D01*
X66578251Y-72473939D01*
X66737001Y-72632689D01*
X67593560Y-72632689D01*
X67826949Y-72536016D01*
X68005578Y-72357388D01*
X68102251Y-72123999D01*
X68102251Y-71267439D01*
X67943501Y-71108689D01*
X66578251Y-71108689D01*
X66324251Y-71108689D01*
X64959001Y-71108689D01*
X64800251Y-71267439D01*
X64601882Y-71267439D01*
X64602417Y-70654726D01*
X64351597Y-70047694D01*
X64143645Y-69839379D01*
X64800251Y-69839379D01*
X64800251Y-70695939D01*
X64959001Y-70854689D01*
X66324251Y-70854689D01*
X66324251Y-69489439D01*
X66578251Y-69489439D01*
X66578251Y-70854689D01*
X67943501Y-70854689D01*
X68102251Y-70695939D01*
X68102251Y-69839379D01*
X68005578Y-69605990D01*
X67826949Y-69427362D01*
X67593560Y-69330689D01*
X66737001Y-69330689D01*
X66578251Y-69489439D01*
X66324251Y-69489439D01*
X66165501Y-69330689D01*
X65308942Y-69330689D01*
X65075553Y-69427362D01*
X64896924Y-69605990D01*
X64800251Y-69839379D01*
X64143645Y-69839379D01*
X63887568Y-69582855D01*
X63280976Y-69330976D01*
X62624168Y-69330403D01*
X62017136Y-69581223D01*
X61552297Y-70045252D01*
X61300418Y-70651844D01*
X61299845Y-71308652D01*
X61104266Y-71308652D01*
X61104837Y-70654726D01*
X60854017Y-70047694D01*
X60389988Y-69582855D01*
X59783396Y-69330976D01*
X59126588Y-69330403D01*
X58519556Y-69581223D01*
X58054717Y-70045252D01*
X57802838Y-70651844D01*
X57802265Y-71308652D01*
X54067551Y-71308652D01*
X54067551Y-66230689D01*
X75507551Y-66230689D01*
X75507551Y-72176053D01*
G36*
X100907551Y-72176053D02*
X100662172Y-72074163D01*
X100035678Y-72073616D01*
X99456664Y-72312860D01*
X99013279Y-72755472D01*
X98773025Y-73334068D01*
X98772478Y-73960562D01*
X99011722Y-74539576D01*
X99390447Y-74918962D01*
X99013279Y-75295472D01*
X98773025Y-75874068D01*
X98772478Y-76500562D01*
X99011722Y-77079576D01*
X99390447Y-77458962D01*
X99013279Y-77835472D01*
X98773025Y-78414068D01*
X98772478Y-79040562D01*
X99011722Y-79619576D01*
X99390447Y-79998962D01*
X99013279Y-80375472D01*
X98773025Y-80954068D01*
X98772478Y-81580562D01*
X99011722Y-82159576D01*
X99390447Y-82538962D01*
X99013279Y-82915472D01*
X98773025Y-83494068D01*
X98772478Y-84120562D01*
X99011722Y-84699576D01*
X99390447Y-85078962D01*
X99013279Y-85455472D01*
X98773025Y-86034068D01*
X98772478Y-86660562D01*
X99011722Y-87239576D01*
X99454334Y-87682961D01*
X100032930Y-87923215D01*
X100659424Y-87923762D01*
X100907551Y-87821238D01*
X100907551Y-113832689D01*
X92316953Y-113832689D01*
X92367494Y-113811806D01*
X92630743Y-113549016D01*
X92773389Y-113205488D01*
X92773713Y-112833522D01*
X92631668Y-112489746D01*
X92368878Y-112226497D01*
X92025350Y-112083851D01*
X91653384Y-112083527D01*
X91309608Y-112225572D01*
X91276433Y-112258689D01*
X85295353Y-112258689D01*
X82245353Y-109208689D01*
X82882353Y-108571689D01*
X84926088Y-108571689D01*
X84958224Y-108603881D01*
X85301752Y-108746527D01*
X85673718Y-108746851D01*
X86017494Y-108604806D01*
X86280743Y-108342016D01*
X86423389Y-107998488D01*
X86423713Y-107626522D01*
X86281668Y-107282746D01*
X86018878Y-107019497D01*
X85675350Y-106876851D01*
X85303384Y-106876527D01*
X84959608Y-107018572D01*
X84926433Y-107051689D01*
X82567551Y-107051689D01*
X82276711Y-107109541D01*
X82030150Y-107274288D01*
X81030871Y-108273567D01*
X80985384Y-108273527D01*
X80641608Y-108415572D01*
X80378359Y-108678362D01*
X80235713Y-109021890D01*
X80235389Y-109393856D01*
X80377434Y-109737632D01*
X80640224Y-110000881D01*
X80983752Y-110143527D01*
X81030628Y-110143568D01*
X84443150Y-113556090D01*
X84689712Y-113720837D01*
X84980551Y-113778689D01*
X91276088Y-113778689D01*
X91308224Y-113810881D01*
X91360743Y-113832689D01*
X79467551Y-113832689D01*
X79467551Y-102535856D01*
X80997389Y-102535856D01*
X81139434Y-102879632D01*
X81402224Y-103142881D01*
X81745752Y-103285527D01*
X82117718Y-103285851D01*
X82461494Y-103143806D01*
X82724743Y-102881016D01*
X82867389Y-102537488D01*
X82867713Y-102165522D01*
X82725668Y-101821746D01*
X82692551Y-101788571D01*
X82692551Y-99109491D01*
X83204551Y-98597491D01*
X83204551Y-101788226D01*
X83172359Y-101820362D01*
X83029713Y-102163890D01*
X83029389Y-102535856D01*
X83171434Y-102879632D01*
X83434224Y-103142881D01*
X83777752Y-103285527D01*
X84149718Y-103285851D01*
X84493494Y-103143806D01*
X84756743Y-102881016D01*
X84899389Y-102537488D01*
X84899713Y-102165522D01*
X84757668Y-101821746D01*
X84724551Y-101788571D01*
X84724551Y-98220491D01*
X86633551Y-96311491D01*
X86633551Y-106076953D01*
X86691403Y-106367792D01*
X86856150Y-106614354D01*
X87955886Y-107714090D01*
X88202448Y-107878837D01*
X88320847Y-107902388D01*
X88387224Y-107968881D01*
X88730752Y-108111527D01*
X89102718Y-108111851D01*
X89446494Y-107969806D01*
X89709743Y-107707016D01*
X89852389Y-107363488D01*
X89852713Y-106991522D01*
X89710668Y-106647746D01*
X89447878Y-106384497D01*
X89104350Y-106241851D01*
X88732384Y-106241527D01*
X88662006Y-106270606D01*
X88153551Y-105762151D01*
X88153551Y-103671022D01*
X88260224Y-103777881D01*
X88603752Y-103920527D01*
X88975718Y-103920851D01*
X89319494Y-103778806D01*
X89352669Y-103745689D01*
X90697551Y-103745689D01*
X90697551Y-106668689D01*
X90755403Y-106959528D01*
X90920150Y-107206090D01*
X92681429Y-108967369D01*
X92681389Y-109012856D01*
X92823434Y-109356632D01*
X93086224Y-109619881D01*
X93429752Y-109762527D01*
X93801718Y-109762851D01*
X94145494Y-109620806D01*
X94408743Y-109358016D01*
X94551389Y-109014488D01*
X94551713Y-108642522D01*
X94409668Y-108298746D01*
X94146878Y-108035497D01*
X93803350Y-107892851D01*
X93756474Y-107892810D01*
X92217551Y-106353887D01*
X92217551Y-103300491D01*
X93756231Y-101761811D01*
X93801718Y-101761851D01*
X94145494Y-101619806D01*
X94408743Y-101357016D01*
X94551389Y-101013488D01*
X94551713Y-100641522D01*
X94409668Y-100297746D01*
X94146878Y-100034497D01*
X93803350Y-99891851D01*
X93431384Y-99891527D01*
X93087608Y-100033572D01*
X92824359Y-100296362D01*
X92681713Y-100639890D01*
X92681672Y-100686766D01*
X91142749Y-102225689D01*
X89353014Y-102225689D01*
X89320878Y-102193497D01*
X88977350Y-102050851D01*
X88605384Y-102050527D01*
X88261608Y-102192572D01*
X88153551Y-102300441D01*
X88153551Y-98632057D01*
X88349752Y-98713527D01*
X88721718Y-98713851D01*
X89065494Y-98571806D01*
X89308913Y-98328811D01*
X89327952Y-98316090D01*
X90190892Y-97453150D01*
X90419224Y-97681881D01*
X90551593Y-97736845D01*
X90174871Y-98113567D01*
X90129384Y-98113527D01*
X89785608Y-98255572D01*
X89522359Y-98518362D01*
X89379713Y-98861890D01*
X89379389Y-99233856D01*
X89521434Y-99577632D01*
X89784224Y-99840881D01*
X90127752Y-99983527D01*
X90499718Y-99983851D01*
X90843494Y-99841806D01*
X91106743Y-99579016D01*
X91249389Y-99235488D01*
X91249430Y-99188612D01*
X93899952Y-96538090D01*
X94064699Y-96291528D01*
X94122551Y-96000689D01*
X94122551Y-84862736D01*
X94220434Y-85099632D01*
X94483224Y-85362881D01*
X94826752Y-85505527D01*
X95198718Y-85505851D01*
X95542494Y-85363806D01*
X95805743Y-85101016D01*
X95948389Y-84757488D01*
X95948456Y-84680947D01*
X96053519Y-84523708D01*
X96111371Y-84232869D01*
X96111371Y-72454048D01*
X96285366Y-72382155D01*
X96750205Y-71918126D01*
X97002084Y-71311534D01*
X97002657Y-70654726D01*
X96751837Y-70047694D01*
X96287808Y-69582855D01*
X95681216Y-69330976D01*
X95024408Y-69330403D01*
X94417376Y-69581223D01*
X93952537Y-70045252D01*
X93700658Y-70651844D01*
X93700085Y-71308652D01*
X93950905Y-71915684D01*
X94414934Y-72380523D01*
X94591371Y-72453786D01*
X94591371Y-83733459D01*
X94484608Y-83777572D01*
X94221359Y-84040362D01*
X94122551Y-84278317D01*
X94122551Y-80307152D01*
X94154743Y-80275016D01*
X94297389Y-79931488D01*
X94297713Y-79559522D01*
X94155668Y-79215746D01*
X93892878Y-78952497D01*
X93549350Y-78809851D01*
X93177384Y-78809527D01*
X92833608Y-78951572D01*
X92570359Y-79214362D01*
X92427713Y-79557890D01*
X92427389Y-79929856D01*
X92569434Y-80273632D01*
X92602551Y-80306807D01*
X92602551Y-81378586D01*
X92533350Y-81349851D01*
X92457810Y-81349785D01*
X92519389Y-81201488D01*
X92519713Y-80829522D01*
X92377668Y-80485746D01*
X92114878Y-80222497D01*
X91771350Y-80079851D01*
X91399384Y-80079527D01*
X91055608Y-80221572D01*
X90792359Y-80484362D01*
X90649713Y-80827890D01*
X90649389Y-81199856D01*
X90791434Y-81543632D01*
X90824551Y-81576807D01*
X90824551Y-94669887D01*
X88650650Y-96843788D01*
X88351384Y-96843527D01*
X88153551Y-96925270D01*
X88153551Y-84697689D01*
X88095699Y-84406850D01*
X87930952Y-84160288D01*
X86677673Y-82907009D01*
X86677713Y-82861522D01*
X86535668Y-82517746D01*
X86272878Y-82254497D01*
X85929350Y-82111851D01*
X85557384Y-82111527D01*
X85213608Y-82253572D01*
X84950359Y-82516362D01*
X84807713Y-82859890D01*
X84807389Y-83231856D01*
X84949434Y-83575632D01*
X85212224Y-83838881D01*
X85555752Y-83981527D01*
X85602628Y-83981568D01*
X86633551Y-85012491D01*
X86633551Y-94303690D01*
X86446384Y-94303527D01*
X86102608Y-94445572D01*
X86060207Y-94487899D01*
X86018878Y-94446497D01*
X85675350Y-94303851D01*
X85303384Y-94303527D01*
X84959608Y-94445572D01*
X84696359Y-94708362D01*
X84553713Y-95051890D01*
X84553672Y-95098766D01*
X81395150Y-98257288D01*
X81230403Y-98503850D01*
X81172551Y-98794689D01*
X81172551Y-101788226D01*
X81140359Y-101820362D01*
X80997713Y-102163890D01*
X80997389Y-102535856D01*
X79467551Y-102535856D01*
X79467551Y-87821325D01*
X79712930Y-87923215D01*
X80339424Y-87923762D01*
X80918438Y-87684518D01*
X81361823Y-87241906D01*
X81602077Y-86663310D01*
X81602624Y-86036816D01*
X81363380Y-85457802D01*
X80984655Y-85078416D01*
X81361823Y-84701906D01*
X81602077Y-84123310D01*
X81602624Y-83496816D01*
X81363380Y-82917802D01*
X80984655Y-82538416D01*
X81361823Y-82161906D01*
X81602077Y-81583310D01*
X81602624Y-80956816D01*
X81363380Y-80377802D01*
X80984655Y-79998416D01*
X81361823Y-79621906D01*
X81602077Y-79043310D01*
X81602624Y-78416816D01*
X81363380Y-77837802D01*
X80984655Y-77458416D01*
X81361823Y-77081906D01*
X81602077Y-76503310D01*
X81602624Y-75876816D01*
X81363380Y-75297802D01*
X80984655Y-74918416D01*
X81361823Y-74541906D01*
X81602077Y-73963310D01*
X81602624Y-73336816D01*
X81363380Y-72757802D01*
X80920768Y-72314417D01*
X80342172Y-72074163D01*
X79715678Y-72073616D01*
X79467551Y-72176140D01*
X79467551Y-71308652D01*
X83202265Y-71308652D01*
X83453085Y-71915684D01*
X83917114Y-72380523D01*
X84523706Y-72632402D01*
X85180514Y-72632975D01*
X85787546Y-72382155D01*
X86252385Y-71918126D01*
X86504264Y-71311534D01*
X86504266Y-71308652D01*
X86699845Y-71308652D01*
X86950665Y-71915684D01*
X87414694Y-72380523D01*
X88021286Y-72632402D01*
X88678094Y-72632975D01*
X89285126Y-72382155D01*
X89749965Y-71918126D01*
X90001844Y-71311534D01*
X90001882Y-71267439D01*
X90200251Y-71267439D01*
X90200251Y-72123999D01*
X90296924Y-72357388D01*
X90475553Y-72536016D01*
X90708942Y-72632689D01*
X91565501Y-72632689D01*
X91724251Y-72473939D01*
X91724251Y-71108689D01*
X91978251Y-71108689D01*
X91978251Y-72473939D01*
X92137001Y-72632689D01*
X92993560Y-72632689D01*
X93226949Y-72536016D01*
X93405578Y-72357388D01*
X93502251Y-72123999D01*
X93502251Y-71267439D01*
X93343501Y-71108689D01*
X91978251Y-71108689D01*
X91724251Y-71108689D01*
X90359001Y-71108689D01*
X90200251Y-71267439D01*
X90001882Y-71267439D01*
X90002417Y-70654726D01*
X89751597Y-70047694D01*
X89543645Y-69839379D01*
X90200251Y-69839379D01*
X90200251Y-70695939D01*
X90359001Y-70854689D01*
X91724251Y-70854689D01*
X91724251Y-69489439D01*
X91978251Y-69489439D01*
X91978251Y-70854689D01*
X93343501Y-70854689D01*
X93502251Y-70695939D01*
X93502251Y-69839379D01*
X93405578Y-69605990D01*
X93226949Y-69427362D01*
X92993560Y-69330689D01*
X92137001Y-69330689D01*
X91978251Y-69489439D01*
X91724251Y-69489439D01*
X91565501Y-69330689D01*
X90708942Y-69330689D01*
X90475553Y-69427362D01*
X90296924Y-69605990D01*
X90200251Y-69839379D01*
X89543645Y-69839379D01*
X89287568Y-69582855D01*
X88680976Y-69330976D01*
X88024168Y-69330403D01*
X87417136Y-69581223D01*
X86952297Y-70045252D01*
X86700418Y-70651844D01*
X86699845Y-71308652D01*
X86504266Y-71308652D01*
X86504837Y-70654726D01*
X86254017Y-70047694D01*
X85789988Y-69582855D01*
X85183396Y-69330976D01*
X84526588Y-69330403D01*
X83919556Y-69581223D01*
X83454717Y-70045252D01*
X83202838Y-70651844D01*
X83202265Y-71308652D01*
X79467551Y-71308652D01*
X79467551Y-66230689D01*
X100907551Y-66230689D01*
X100907551Y-72176053D01*
X100907551Y-72176053D01*
G37*
X100907551Y-72176053D02*
X100662172Y-72074163D01*
X100035678Y-72073616D01*
X99456664Y-72312860D01*
X99013279Y-72755472D01*
X98773025Y-73334068D01*
X98772478Y-73960562D01*
X99011722Y-74539576D01*
X99390447Y-74918962D01*
X99013279Y-75295472D01*
X98773025Y-75874068D01*
X98772478Y-76500562D01*
X99011722Y-77079576D01*
X99390447Y-77458962D01*
X99013279Y-77835472D01*
X98773025Y-78414068D01*
X98772478Y-79040562D01*
X99011722Y-79619576D01*
X99390447Y-79998962D01*
X99013279Y-80375472D01*
X98773025Y-80954068D01*
X98772478Y-81580562D01*
X99011722Y-82159576D01*
X99390447Y-82538962D01*
X99013279Y-82915472D01*
X98773025Y-83494068D01*
X98772478Y-84120562D01*
X99011722Y-84699576D01*
X99390447Y-85078962D01*
X99013279Y-85455472D01*
X98773025Y-86034068D01*
X98772478Y-86660562D01*
X99011722Y-87239576D01*
X99454334Y-87682961D01*
X100032930Y-87923215D01*
X100659424Y-87923762D01*
X100907551Y-87821238D01*
X100907551Y-113832689D01*
X92316953Y-113832689D01*
X92367494Y-113811806D01*
X92630743Y-113549016D01*
X92773389Y-113205488D01*
X92773713Y-112833522D01*
X92631668Y-112489746D01*
X92368878Y-112226497D01*
X92025350Y-112083851D01*
X91653384Y-112083527D01*
X91309608Y-112225572D01*
X91276433Y-112258689D01*
X85295353Y-112258689D01*
X82245353Y-109208689D01*
X82882353Y-108571689D01*
X84926088Y-108571689D01*
X84958224Y-108603881D01*
X85301752Y-108746527D01*
X85673718Y-108746851D01*
X86017494Y-108604806D01*
X86280743Y-108342016D01*
X86423389Y-107998488D01*
X86423713Y-107626522D01*
X86281668Y-107282746D01*
X86018878Y-107019497D01*
X85675350Y-106876851D01*
X85303384Y-106876527D01*
X84959608Y-107018572D01*
X84926433Y-107051689D01*
X82567551Y-107051689D01*
X82276711Y-107109541D01*
X82030150Y-107274288D01*
X81030871Y-108273567D01*
X80985384Y-108273527D01*
X80641608Y-108415572D01*
X80378359Y-108678362D01*
X80235713Y-109021890D01*
X80235389Y-109393856D01*
X80377434Y-109737632D01*
X80640224Y-110000881D01*
X80983752Y-110143527D01*
X81030628Y-110143568D01*
X84443150Y-113556090D01*
X84689712Y-113720837D01*
X84980551Y-113778689D01*
X91276088Y-113778689D01*
X91308224Y-113810881D01*
X91360743Y-113832689D01*
X79467551Y-113832689D01*
X79467551Y-102535856D01*
X80997389Y-102535856D01*
X81139434Y-102879632D01*
X81402224Y-103142881D01*
X81745752Y-103285527D01*
X82117718Y-103285851D01*
X82461494Y-103143806D01*
X82724743Y-102881016D01*
X82867389Y-102537488D01*
X82867713Y-102165522D01*
X82725668Y-101821746D01*
X82692551Y-101788571D01*
X82692551Y-99109491D01*
X83204551Y-98597491D01*
X83204551Y-101788226D01*
X83172359Y-101820362D01*
X83029713Y-102163890D01*
X83029389Y-102535856D01*
X83171434Y-102879632D01*
X83434224Y-103142881D01*
X83777752Y-103285527D01*
X84149718Y-103285851D01*
X84493494Y-103143806D01*
X84756743Y-102881016D01*
X84899389Y-102537488D01*
X84899713Y-102165522D01*
X84757668Y-101821746D01*
X84724551Y-101788571D01*
X84724551Y-98220491D01*
X86633551Y-96311491D01*
X86633551Y-106076953D01*
X86691403Y-106367792D01*
X86856150Y-106614354D01*
X87955886Y-107714090D01*
X88202448Y-107878837D01*
X88320847Y-107902388D01*
X88387224Y-107968881D01*
X88730752Y-108111527D01*
X89102718Y-108111851D01*
X89446494Y-107969806D01*
X89709743Y-107707016D01*
X89852389Y-107363488D01*
X89852713Y-106991522D01*
X89710668Y-106647746D01*
X89447878Y-106384497D01*
X89104350Y-106241851D01*
X88732384Y-106241527D01*
X88662006Y-106270606D01*
X88153551Y-105762151D01*
X88153551Y-103671022D01*
X88260224Y-103777881D01*
X88603752Y-103920527D01*
X88975718Y-103920851D01*
X89319494Y-103778806D01*
X89352669Y-103745689D01*
X90697551Y-103745689D01*
X90697551Y-106668689D01*
X90755403Y-106959528D01*
X90920150Y-107206090D01*
X92681429Y-108967369D01*
X92681389Y-109012856D01*
X92823434Y-109356632D01*
X93086224Y-109619881D01*
X93429752Y-109762527D01*
X93801718Y-109762851D01*
X94145494Y-109620806D01*
X94408743Y-109358016D01*
X94551389Y-109014488D01*
X94551713Y-108642522D01*
X94409668Y-108298746D01*
X94146878Y-108035497D01*
X93803350Y-107892851D01*
X93756474Y-107892810D01*
X92217551Y-106353887D01*
X92217551Y-103300491D01*
X93756231Y-101761811D01*
X93801718Y-101761851D01*
X94145494Y-101619806D01*
X94408743Y-101357016D01*
X94551389Y-101013488D01*
X94551713Y-100641522D01*
X94409668Y-100297746D01*
X94146878Y-100034497D01*
X93803350Y-99891851D01*
X93431384Y-99891527D01*
X93087608Y-100033572D01*
X92824359Y-100296362D01*
X92681713Y-100639890D01*
X92681672Y-100686766D01*
X91142749Y-102225689D01*
X89353014Y-102225689D01*
X89320878Y-102193497D01*
X88977350Y-102050851D01*
X88605384Y-102050527D01*
X88261608Y-102192572D01*
X88153551Y-102300441D01*
X88153551Y-98632057D01*
X88349752Y-98713527D01*
X88721718Y-98713851D01*
X89065494Y-98571806D01*
X89308913Y-98328811D01*
X89327952Y-98316090D01*
X90190892Y-97453150D01*
X90419224Y-97681881D01*
X90551593Y-97736845D01*
X90174871Y-98113567D01*
X90129384Y-98113527D01*
X89785608Y-98255572D01*
X89522359Y-98518362D01*
X89379713Y-98861890D01*
X89379389Y-99233856D01*
X89521434Y-99577632D01*
X89784224Y-99840881D01*
X90127752Y-99983527D01*
X90499718Y-99983851D01*
X90843494Y-99841806D01*
X91106743Y-99579016D01*
X91249389Y-99235488D01*
X91249430Y-99188612D01*
X93899952Y-96538090D01*
X94064699Y-96291528D01*
X94122551Y-96000689D01*
X94122551Y-84862736D01*
X94220434Y-85099632D01*
X94483224Y-85362881D01*
X94826752Y-85505527D01*
X95198718Y-85505851D01*
X95542494Y-85363806D01*
X95805743Y-85101016D01*
X95948389Y-84757488D01*
X95948456Y-84680947D01*
X96053519Y-84523708D01*
X96111371Y-84232869D01*
X96111371Y-72454048D01*
X96285366Y-72382155D01*
X96750205Y-71918126D01*
X97002084Y-71311534D01*
X97002657Y-70654726D01*
X96751837Y-70047694D01*
X96287808Y-69582855D01*
X95681216Y-69330976D01*
X95024408Y-69330403D01*
X94417376Y-69581223D01*
X93952537Y-70045252D01*
X93700658Y-70651844D01*
X93700085Y-71308652D01*
X93950905Y-71915684D01*
X94414934Y-72380523D01*
X94591371Y-72453786D01*
X94591371Y-83733459D01*
X94484608Y-83777572D01*
X94221359Y-84040362D01*
X94122551Y-84278317D01*
X94122551Y-80307152D01*
X94154743Y-80275016D01*
X94297389Y-79931488D01*
X94297713Y-79559522D01*
X94155668Y-79215746D01*
X93892878Y-78952497D01*
X93549350Y-78809851D01*
X93177384Y-78809527D01*
X92833608Y-78951572D01*
X92570359Y-79214362D01*
X92427713Y-79557890D01*
X92427389Y-79929856D01*
X92569434Y-80273632D01*
X92602551Y-80306807D01*
X92602551Y-81378586D01*
X92533350Y-81349851D01*
X92457810Y-81349785D01*
X92519389Y-81201488D01*
X92519713Y-80829522D01*
X92377668Y-80485746D01*
X92114878Y-80222497D01*
X91771350Y-80079851D01*
X91399384Y-80079527D01*
X91055608Y-80221572D01*
X90792359Y-80484362D01*
X90649713Y-80827890D01*
X90649389Y-81199856D01*
X90791434Y-81543632D01*
X90824551Y-81576807D01*
X90824551Y-94669887D01*
X88650650Y-96843788D01*
X88351384Y-96843527D01*
X88153551Y-96925270D01*
X88153551Y-84697689D01*
X88095699Y-84406850D01*
X87930952Y-84160288D01*
X86677673Y-82907009D01*
X86677713Y-82861522D01*
X86535668Y-82517746D01*
X86272878Y-82254497D01*
X85929350Y-82111851D01*
X85557384Y-82111527D01*
X85213608Y-82253572D01*
X84950359Y-82516362D01*
X84807713Y-82859890D01*
X84807389Y-83231856D01*
X84949434Y-83575632D01*
X85212224Y-83838881D01*
X85555752Y-83981527D01*
X85602628Y-83981568D01*
X86633551Y-85012491D01*
X86633551Y-94303690D01*
X86446384Y-94303527D01*
X86102608Y-94445572D01*
X86060207Y-94487899D01*
X86018878Y-94446497D01*
X85675350Y-94303851D01*
X85303384Y-94303527D01*
X84959608Y-94445572D01*
X84696359Y-94708362D01*
X84553713Y-95051890D01*
X84553672Y-95098766D01*
X81395150Y-98257288D01*
X81230403Y-98503850D01*
X81172551Y-98794689D01*
X81172551Y-101788226D01*
X81140359Y-101820362D01*
X80997713Y-102163890D01*
X80997389Y-102535856D01*
X79467551Y-102535856D01*
X79467551Y-87821325D01*
X79712930Y-87923215D01*
X80339424Y-87923762D01*
X80918438Y-87684518D01*
X81361823Y-87241906D01*
X81602077Y-86663310D01*
X81602624Y-86036816D01*
X81363380Y-85457802D01*
X80984655Y-85078416D01*
X81361823Y-84701906D01*
X81602077Y-84123310D01*
X81602624Y-83496816D01*
X81363380Y-82917802D01*
X80984655Y-82538416D01*
X81361823Y-82161906D01*
X81602077Y-81583310D01*
X81602624Y-80956816D01*
X81363380Y-80377802D01*
X80984655Y-79998416D01*
X81361823Y-79621906D01*
X81602077Y-79043310D01*
X81602624Y-78416816D01*
X81363380Y-77837802D01*
X80984655Y-77458416D01*
X81361823Y-77081906D01*
X81602077Y-76503310D01*
X81602624Y-75876816D01*
X81363380Y-75297802D01*
X80984655Y-74918416D01*
X81361823Y-74541906D01*
X81602077Y-73963310D01*
X81602624Y-73336816D01*
X81363380Y-72757802D01*
X80920768Y-72314417D01*
X80342172Y-72074163D01*
X79715678Y-72073616D01*
X79467551Y-72176140D01*
X79467551Y-71308652D01*
X83202265Y-71308652D01*
X83453085Y-71915684D01*
X83917114Y-72380523D01*
X84523706Y-72632402D01*
X85180514Y-72632975D01*
X85787546Y-72382155D01*
X86252385Y-71918126D01*
X86504264Y-71311534D01*
X86504266Y-71308652D01*
X86699845Y-71308652D01*
X86950665Y-71915684D01*
X87414694Y-72380523D01*
X88021286Y-72632402D01*
X88678094Y-72632975D01*
X89285126Y-72382155D01*
X89749965Y-71918126D01*
X90001844Y-71311534D01*
X90001882Y-71267439D01*
X90200251Y-71267439D01*
X90200251Y-72123999D01*
X90296924Y-72357388D01*
X90475553Y-72536016D01*
X90708942Y-72632689D01*
X91565501Y-72632689D01*
X91724251Y-72473939D01*
X91724251Y-71108689D01*
X91978251Y-71108689D01*
X91978251Y-72473939D01*
X92137001Y-72632689D01*
X92993560Y-72632689D01*
X93226949Y-72536016D01*
X93405578Y-72357388D01*
X93502251Y-72123999D01*
X93502251Y-71267439D01*
X93343501Y-71108689D01*
X91978251Y-71108689D01*
X91724251Y-71108689D01*
X90359001Y-71108689D01*
X90200251Y-71267439D01*
X90001882Y-71267439D01*
X90002417Y-70654726D01*
X89751597Y-70047694D01*
X89543645Y-69839379D01*
X90200251Y-69839379D01*
X90200251Y-70695939D01*
X90359001Y-70854689D01*
X91724251Y-70854689D01*
X91724251Y-69489439D01*
X91978251Y-69489439D01*
X91978251Y-70854689D01*
X93343501Y-70854689D01*
X93502251Y-70695939D01*
X93502251Y-69839379D01*
X93405578Y-69605990D01*
X93226949Y-69427362D01*
X92993560Y-69330689D01*
X92137001Y-69330689D01*
X91978251Y-69489439D01*
X91724251Y-69489439D01*
X91565501Y-69330689D01*
X90708942Y-69330689D01*
X90475553Y-69427362D01*
X90296924Y-69605990D01*
X90200251Y-69839379D01*
X89543645Y-69839379D01*
X89287568Y-69582855D01*
X88680976Y-69330976D01*
X88024168Y-69330403D01*
X87417136Y-69581223D01*
X86952297Y-70045252D01*
X86700418Y-70651844D01*
X86699845Y-71308652D01*
X86504266Y-71308652D01*
X86504837Y-70654726D01*
X86254017Y-70047694D01*
X85789988Y-69582855D01*
X85183396Y-69330976D01*
X84526588Y-69330403D01*
X83919556Y-69581223D01*
X83454717Y-70045252D01*
X83202838Y-70651844D01*
X83202265Y-71308652D01*
X79467551Y-71308652D01*
X79467551Y-66230689D01*
X100907551Y-66230689D01*
X100907551Y-72176053D01*
G36*
X126307551Y-72176053D02*
X126062172Y-72074163D01*
X125435678Y-72073616D01*
X124856664Y-72312860D01*
X124413279Y-72755472D01*
X124173025Y-73334068D01*
X124172478Y-73960562D01*
X124411722Y-74539576D01*
X124790447Y-74918962D01*
X124413279Y-75295472D01*
X124173025Y-75874068D01*
X124172478Y-76500562D01*
X124411722Y-77079576D01*
X124790447Y-77458962D01*
X124413279Y-77835472D01*
X124173025Y-78414068D01*
X124172478Y-79040562D01*
X124411722Y-79619576D01*
X124790447Y-79998962D01*
X124413279Y-80375472D01*
X124173025Y-80954068D01*
X124172478Y-81580562D01*
X124411722Y-82159576D01*
X124790447Y-82538962D01*
X124413279Y-82915472D01*
X124173025Y-83494068D01*
X124172478Y-84120562D01*
X124411722Y-84699576D01*
X124790447Y-85078962D01*
X124413279Y-85455472D01*
X124173025Y-86034068D01*
X124172478Y-86660562D01*
X124411722Y-87239576D01*
X124854334Y-87682961D01*
X125432930Y-87923215D01*
X126059424Y-87923762D01*
X126307551Y-87821238D01*
X126307551Y-113832689D01*
X117716953Y-113832689D01*
X117767494Y-113811806D01*
X118030743Y-113549016D01*
X118173389Y-113205488D01*
X118173713Y-112833522D01*
X118031668Y-112489746D01*
X117768878Y-112226497D01*
X117425350Y-112083851D01*
X117053384Y-112083527D01*
X116709608Y-112225572D01*
X116676433Y-112258689D01*
X110695353Y-112258689D01*
X107645353Y-109208689D01*
X108282353Y-108571689D01*
X110326088Y-108571689D01*
X110358224Y-108603881D01*
X110701752Y-108746527D01*
X111073718Y-108746851D01*
X111417494Y-108604806D01*
X111680743Y-108342016D01*
X111823389Y-107998488D01*
X111823713Y-107626522D01*
X111681668Y-107282746D01*
X111418878Y-107019497D01*
X111075350Y-106876851D01*
X110703384Y-106876527D01*
X110359608Y-107018572D01*
X110326433Y-107051689D01*
X107967551Y-107051689D01*
X107676711Y-107109541D01*
X107430150Y-107274288D01*
X106430871Y-108273567D01*
X106385384Y-108273527D01*
X106041608Y-108415572D01*
X105778359Y-108678362D01*
X105635713Y-109021890D01*
X105635389Y-109393856D01*
X105777434Y-109737632D01*
X106040224Y-110000881D01*
X106383752Y-110143527D01*
X106430628Y-110143568D01*
X109843150Y-113556090D01*
X110089712Y-113720837D01*
X110380551Y-113778689D01*
X116676088Y-113778689D01*
X116708224Y-113810881D01*
X116760743Y-113832689D01*
X104867551Y-113832689D01*
X104867551Y-102535856D01*
X106397389Y-102535856D01*
X106539434Y-102879632D01*
X106802224Y-103142881D01*
X107145752Y-103285527D01*
X107517718Y-103285851D01*
X107861494Y-103143806D01*
X108124743Y-102881016D01*
X108267389Y-102537488D01*
X108267713Y-102165522D01*
X108125668Y-101821746D01*
X108092551Y-101788571D01*
X108092551Y-99109491D01*
X108604551Y-98597491D01*
X108604551Y-101788226D01*
X108572359Y-101820362D01*
X108429713Y-102163890D01*
X108429389Y-102535856D01*
X108571434Y-102879632D01*
X108834224Y-103142881D01*
X109177752Y-103285527D01*
X109549718Y-103285851D01*
X109893494Y-103143806D01*
X110156743Y-102881016D01*
X110299389Y-102537488D01*
X110299713Y-102165522D01*
X110157668Y-101821746D01*
X110124551Y-101788571D01*
X110124551Y-98220491D01*
X112033551Y-96311491D01*
X112033551Y-106076953D01*
X112091403Y-106367792D01*
X112256150Y-106614354D01*
X113355886Y-107714090D01*
X113602448Y-107878837D01*
X113720847Y-107902388D01*
X113787224Y-107968881D01*
X114130752Y-108111527D01*
X114502718Y-108111851D01*
X114846494Y-107969806D01*
X115109743Y-107707016D01*
X115252389Y-107363488D01*
X115252713Y-106991522D01*
X115110668Y-106647746D01*
X114847878Y-106384497D01*
X114504350Y-106241851D01*
X114132384Y-106241527D01*
X114062006Y-106270606D01*
X113553551Y-105762151D01*
X113553551Y-103671022D01*
X113660224Y-103777881D01*
X114003752Y-103920527D01*
X114375718Y-103920851D01*
X114719494Y-103778806D01*
X114752669Y-103745689D01*
X116097551Y-103745689D01*
X116097551Y-106668689D01*
X116155403Y-106959528D01*
X116320150Y-107206090D01*
X118081429Y-108967369D01*
X118081389Y-109012856D01*
X118223434Y-109356632D01*
X118486224Y-109619881D01*
X118829752Y-109762527D01*
X119201718Y-109762851D01*
X119545494Y-109620806D01*
X119808743Y-109358016D01*
X119951389Y-109014488D01*
X119951713Y-108642522D01*
X119809668Y-108298746D01*
X119546878Y-108035497D01*
X119203350Y-107892851D01*
X119156474Y-107892810D01*
X117617551Y-106353887D01*
X117617551Y-103300491D01*
X119156231Y-101761811D01*
X119201718Y-101761851D01*
X119545494Y-101619806D01*
X119808743Y-101357016D01*
X119951389Y-101013488D01*
X119951713Y-100641522D01*
X119809668Y-100297746D01*
X119546878Y-100034497D01*
X119203350Y-99891851D01*
X118831384Y-99891527D01*
X118487608Y-100033572D01*
X118224359Y-100296362D01*
X118081713Y-100639890D01*
X118081672Y-100686766D01*
X116542749Y-102225689D01*
X114753014Y-102225689D01*
X114720878Y-102193497D01*
X114377350Y-102050851D01*
X114005384Y-102050527D01*
X113661608Y-102192572D01*
X113553551Y-102300441D01*
X113553551Y-98632057D01*
X113749752Y-98713527D01*
X114121718Y-98713851D01*
X114465494Y-98571806D01*
X114708913Y-98328811D01*
X114727952Y-98316090D01*
X115590892Y-97453150D01*
X115819224Y-97681881D01*
X115951593Y-97736845D01*
X115574871Y-98113567D01*
X115529384Y-98113527D01*
X115185608Y-98255572D01*
X114922359Y-98518362D01*
X114779713Y-98861890D01*
X114779389Y-99233856D01*
X114921434Y-99577632D01*
X115184224Y-99840881D01*
X115527752Y-99983527D01*
X115899718Y-99983851D01*
X116243494Y-99841806D01*
X116506743Y-99579016D01*
X116649389Y-99235488D01*
X116649430Y-99188612D01*
X119299952Y-96538090D01*
X119464699Y-96291528D01*
X119522551Y-96000689D01*
X119522551Y-84862736D01*
X119620434Y-85099632D01*
X119883224Y-85362881D01*
X120226752Y-85505527D01*
X120598718Y-85505851D01*
X120942494Y-85363806D01*
X121205743Y-85101016D01*
X121348389Y-84757488D01*
X121348456Y-84680947D01*
X121453519Y-84523708D01*
X121511371Y-84232869D01*
X121511371Y-72454048D01*
X121685366Y-72382155D01*
X122150205Y-71918126D01*
X122402084Y-71311534D01*
X122402657Y-70654726D01*
X122151837Y-70047694D01*
X121687808Y-69582855D01*
X121081216Y-69330976D01*
X120424408Y-69330403D01*
X119817376Y-69581223D01*
X119352537Y-70045252D01*
X119100658Y-70651844D01*
X119100085Y-71308652D01*
X119350905Y-71915684D01*
X119814934Y-72380523D01*
X119991371Y-72453786D01*
X119991371Y-83733459D01*
X119884608Y-83777572D01*
X119621359Y-84040362D01*
X119522551Y-84278317D01*
X119522551Y-80307152D01*
X119554743Y-80275016D01*
X119697389Y-79931488D01*
X119697713Y-79559522D01*
X119555668Y-79215746D01*
X119292878Y-78952497D01*
X118949350Y-78809851D01*
X118577384Y-78809527D01*
X118233608Y-78951572D01*
X117970359Y-79214362D01*
X117827713Y-79557890D01*
X117827389Y-79929856D01*
X117969434Y-80273632D01*
X118002551Y-80306807D01*
X118002551Y-81378586D01*
X117933350Y-81349851D01*
X117857810Y-81349785D01*
X117919389Y-81201488D01*
X117919713Y-80829522D01*
X117777668Y-80485746D01*
X117514878Y-80222497D01*
X117171350Y-80079851D01*
X116799384Y-80079527D01*
X116455608Y-80221572D01*
X116192359Y-80484362D01*
X116049713Y-80827890D01*
X116049389Y-81199856D01*
X116191434Y-81543632D01*
X116224551Y-81576807D01*
X116224551Y-94669887D01*
X114050650Y-96843788D01*
X113751384Y-96843527D01*
X113553551Y-96925270D01*
X113553551Y-84697689D01*
X113495699Y-84406850D01*
X113330952Y-84160288D01*
X112077673Y-82907009D01*
X112077713Y-82861522D01*
X111935668Y-82517746D01*
X111672878Y-82254497D01*
X111329350Y-82111851D01*
X110957384Y-82111527D01*
X110613608Y-82253572D01*
X110350359Y-82516362D01*
X110207713Y-82859890D01*
X110207389Y-83231856D01*
X110349434Y-83575632D01*
X110612224Y-83838881D01*
X110955752Y-83981527D01*
X111002628Y-83981568D01*
X112033551Y-85012491D01*
X112033551Y-94303690D01*
X111846384Y-94303527D01*
X111502608Y-94445572D01*
X111460207Y-94487899D01*
X111418878Y-94446497D01*
X111075350Y-94303851D01*
X110703384Y-94303527D01*
X110359608Y-94445572D01*
X110096359Y-94708362D01*
X109953713Y-95051890D01*
X109953672Y-95098766D01*
X106795150Y-98257288D01*
X106630403Y-98503850D01*
X106572551Y-98794689D01*
X106572551Y-101788226D01*
X106540359Y-101820362D01*
X106397713Y-102163890D01*
X106397389Y-102535856D01*
X104867551Y-102535856D01*
X104867551Y-87821325D01*
X105112930Y-87923215D01*
X105739424Y-87923762D01*
X106318438Y-87684518D01*
X106761823Y-87241906D01*
X107002077Y-86663310D01*
X107002624Y-86036816D01*
X106763380Y-85457802D01*
X106384655Y-85078416D01*
X106761823Y-84701906D01*
X107002077Y-84123310D01*
X107002624Y-83496816D01*
X106763380Y-82917802D01*
X106384655Y-82538416D01*
X106761823Y-82161906D01*
X107002077Y-81583310D01*
X107002624Y-80956816D01*
X106763380Y-80377802D01*
X106384655Y-79998416D01*
X106761823Y-79621906D01*
X107002077Y-79043310D01*
X107002624Y-78416816D01*
X106763380Y-77837802D01*
X106384655Y-77458416D01*
X106761823Y-77081906D01*
X107002077Y-76503310D01*
X107002624Y-75876816D01*
X106763380Y-75297802D01*
X106384655Y-74918416D01*
X106761823Y-74541906D01*
X107002077Y-73963310D01*
X107002624Y-73336816D01*
X106763380Y-72757802D01*
X106320768Y-72314417D01*
X105742172Y-72074163D01*
X105115678Y-72073616D01*
X104867551Y-72176140D01*
X104867551Y-71308652D01*
X108602265Y-71308652D01*
X108853085Y-71915684D01*
X109317114Y-72380523D01*
X109923706Y-72632402D01*
X110580514Y-72632975D01*
X111187546Y-72382155D01*
X111652385Y-71918126D01*
X111904264Y-71311534D01*
X111904266Y-71308652D01*
X112099845Y-71308652D01*
X112350665Y-71915684D01*
X112814694Y-72380523D01*
X113421286Y-72632402D01*
X114078094Y-72632975D01*
X114685126Y-72382155D01*
X115149965Y-71918126D01*
X115401844Y-71311534D01*
X115401882Y-71267439D01*
X115600251Y-71267439D01*
X115600251Y-72123999D01*
X115696924Y-72357388D01*
X115875553Y-72536016D01*
X116108942Y-72632689D01*
X116965501Y-72632689D01*
X117124251Y-72473939D01*
X117124251Y-71108689D01*
X117378251Y-71108689D01*
X117378251Y-72473939D01*
X117537001Y-72632689D01*
X118393560Y-72632689D01*
X118626949Y-72536016D01*
X118805578Y-72357388D01*
X118902251Y-72123999D01*
X118902251Y-71267439D01*
X118743501Y-71108689D01*
X117378251Y-71108689D01*
X117124251Y-71108689D01*
X115759001Y-71108689D01*
X115600251Y-71267439D01*
X115401882Y-71267439D01*
X115402417Y-70654726D01*
X115151597Y-70047694D01*
X114943645Y-69839379D01*
X115600251Y-69839379D01*
X115600251Y-70695939D01*
X115759001Y-70854689D01*
X117124251Y-70854689D01*
X117124251Y-69489439D01*
X117378251Y-69489439D01*
X117378251Y-70854689D01*
X118743501Y-70854689D01*
X118902251Y-70695939D01*
X118902251Y-69839379D01*
X118805578Y-69605990D01*
X118626949Y-69427362D01*
X118393560Y-69330689D01*
X117537001Y-69330689D01*
X117378251Y-69489439D01*
X117124251Y-69489439D01*
X116965501Y-69330689D01*
X116108942Y-69330689D01*
X115875553Y-69427362D01*
X115696924Y-69605990D01*
X115600251Y-69839379D01*
X114943645Y-69839379D01*
X114687568Y-69582855D01*
X114080976Y-69330976D01*
X113424168Y-69330403D01*
X112817136Y-69581223D01*
X112352297Y-70045252D01*
X112100418Y-70651844D01*
X112099845Y-71308652D01*
X111904266Y-71308652D01*
X111904837Y-70654726D01*
X111654017Y-70047694D01*
X111189988Y-69582855D01*
X110583396Y-69330976D01*
X109926588Y-69330403D01*
X109319556Y-69581223D01*
X108854717Y-70045252D01*
X108602838Y-70651844D01*
X108602265Y-71308652D01*
X104867551Y-71308652D01*
X104867551Y-66230689D01*
X126307551Y-66230689D01*
X126307551Y-72176053D01*
X126307551Y-72176053D01*
G37*
X126307551Y-72176053D02*
X126062172Y-72074163D01*
X125435678Y-72073616D01*
X124856664Y-72312860D01*
X124413279Y-72755472D01*
X124173025Y-73334068D01*
X124172478Y-73960562D01*
X124411722Y-74539576D01*
X124790447Y-74918962D01*
X124413279Y-75295472D01*
X124173025Y-75874068D01*
X124172478Y-76500562D01*
X124411722Y-77079576D01*
X124790447Y-77458962D01*
X124413279Y-77835472D01*
X124173025Y-78414068D01*
X124172478Y-79040562D01*
X124411722Y-79619576D01*
X124790447Y-79998962D01*
X124413279Y-80375472D01*
X124173025Y-80954068D01*
X124172478Y-81580562D01*
X124411722Y-82159576D01*
X124790447Y-82538962D01*
X124413279Y-82915472D01*
X124173025Y-83494068D01*
X124172478Y-84120562D01*
X124411722Y-84699576D01*
X124790447Y-85078962D01*
X124413279Y-85455472D01*
X124173025Y-86034068D01*
X124172478Y-86660562D01*
X124411722Y-87239576D01*
X124854334Y-87682961D01*
X125432930Y-87923215D01*
X126059424Y-87923762D01*
X126307551Y-87821238D01*
X126307551Y-113832689D01*
X117716953Y-113832689D01*
X117767494Y-113811806D01*
X118030743Y-113549016D01*
X118173389Y-113205488D01*
X118173713Y-112833522D01*
X118031668Y-112489746D01*
X117768878Y-112226497D01*
X117425350Y-112083851D01*
X117053384Y-112083527D01*
X116709608Y-112225572D01*
X116676433Y-112258689D01*
X110695353Y-112258689D01*
X107645353Y-109208689D01*
X108282353Y-108571689D01*
X110326088Y-108571689D01*
X110358224Y-108603881D01*
X110701752Y-108746527D01*
X111073718Y-108746851D01*
X111417494Y-108604806D01*
X111680743Y-108342016D01*
X111823389Y-107998488D01*
X111823713Y-107626522D01*
X111681668Y-107282746D01*
X111418878Y-107019497D01*
X111075350Y-106876851D01*
X110703384Y-106876527D01*
X110359608Y-107018572D01*
X110326433Y-107051689D01*
X107967551Y-107051689D01*
X107676711Y-107109541D01*
X107430150Y-107274288D01*
X106430871Y-108273567D01*
X106385384Y-108273527D01*
X106041608Y-108415572D01*
X105778359Y-108678362D01*
X105635713Y-109021890D01*
X105635389Y-109393856D01*
X105777434Y-109737632D01*
X106040224Y-110000881D01*
X106383752Y-110143527D01*
X106430628Y-110143568D01*
X109843150Y-113556090D01*
X110089712Y-113720837D01*
X110380551Y-113778689D01*
X116676088Y-113778689D01*
X116708224Y-113810881D01*
X116760743Y-113832689D01*
X104867551Y-113832689D01*
X104867551Y-102535856D01*
X106397389Y-102535856D01*
X106539434Y-102879632D01*
X106802224Y-103142881D01*
X107145752Y-103285527D01*
X107517718Y-103285851D01*
X107861494Y-103143806D01*
X108124743Y-102881016D01*
X108267389Y-102537488D01*
X108267713Y-102165522D01*
X108125668Y-101821746D01*
X108092551Y-101788571D01*
X108092551Y-99109491D01*
X108604551Y-98597491D01*
X108604551Y-101788226D01*
X108572359Y-101820362D01*
X108429713Y-102163890D01*
X108429389Y-102535856D01*
X108571434Y-102879632D01*
X108834224Y-103142881D01*
X109177752Y-103285527D01*
X109549718Y-103285851D01*
X109893494Y-103143806D01*
X110156743Y-102881016D01*
X110299389Y-102537488D01*
X110299713Y-102165522D01*
X110157668Y-101821746D01*
X110124551Y-101788571D01*
X110124551Y-98220491D01*
X112033551Y-96311491D01*
X112033551Y-106076953D01*
X112091403Y-106367792D01*
X112256150Y-106614354D01*
X113355886Y-107714090D01*
X113602448Y-107878837D01*
X113720847Y-107902388D01*
X113787224Y-107968881D01*
X114130752Y-108111527D01*
X114502718Y-108111851D01*
X114846494Y-107969806D01*
X115109743Y-107707016D01*
X115252389Y-107363488D01*
X115252713Y-106991522D01*
X115110668Y-106647746D01*
X114847878Y-106384497D01*
X114504350Y-106241851D01*
X114132384Y-106241527D01*
X114062006Y-106270606D01*
X113553551Y-105762151D01*
X113553551Y-103671022D01*
X113660224Y-103777881D01*
X114003752Y-103920527D01*
X114375718Y-103920851D01*
X114719494Y-103778806D01*
X114752669Y-103745689D01*
X116097551Y-103745689D01*
X116097551Y-106668689D01*
X116155403Y-106959528D01*
X116320150Y-107206090D01*
X118081429Y-108967369D01*
X118081389Y-109012856D01*
X118223434Y-109356632D01*
X118486224Y-109619881D01*
X118829752Y-109762527D01*
X119201718Y-109762851D01*
X119545494Y-109620806D01*
X119808743Y-109358016D01*
X119951389Y-109014488D01*
X119951713Y-108642522D01*
X119809668Y-108298746D01*
X119546878Y-108035497D01*
X119203350Y-107892851D01*
X119156474Y-107892810D01*
X117617551Y-106353887D01*
X117617551Y-103300491D01*
X119156231Y-101761811D01*
X119201718Y-101761851D01*
X119545494Y-101619806D01*
X119808743Y-101357016D01*
X119951389Y-101013488D01*
X119951713Y-100641522D01*
X119809668Y-100297746D01*
X119546878Y-100034497D01*
X119203350Y-99891851D01*
X118831384Y-99891527D01*
X118487608Y-100033572D01*
X118224359Y-100296362D01*
X118081713Y-100639890D01*
X118081672Y-100686766D01*
X116542749Y-102225689D01*
X114753014Y-102225689D01*
X114720878Y-102193497D01*
X114377350Y-102050851D01*
X114005384Y-102050527D01*
X113661608Y-102192572D01*
X113553551Y-102300441D01*
X113553551Y-98632057D01*
X113749752Y-98713527D01*
X114121718Y-98713851D01*
X114465494Y-98571806D01*
X114708913Y-98328811D01*
X114727952Y-98316090D01*
X115590892Y-97453150D01*
X115819224Y-97681881D01*
X115951593Y-97736845D01*
X115574871Y-98113567D01*
X115529384Y-98113527D01*
X115185608Y-98255572D01*
X114922359Y-98518362D01*
X114779713Y-98861890D01*
X114779389Y-99233856D01*
X114921434Y-99577632D01*
X115184224Y-99840881D01*
X115527752Y-99983527D01*
X115899718Y-99983851D01*
X116243494Y-99841806D01*
X116506743Y-99579016D01*
X116649389Y-99235488D01*
X116649430Y-99188612D01*
X119299952Y-96538090D01*
X119464699Y-96291528D01*
X119522551Y-96000689D01*
X119522551Y-84862736D01*
X119620434Y-85099632D01*
X119883224Y-85362881D01*
X120226752Y-85505527D01*
X120598718Y-85505851D01*
X120942494Y-85363806D01*
X121205743Y-85101016D01*
X121348389Y-84757488D01*
X121348456Y-84680947D01*
X121453519Y-84523708D01*
X121511371Y-84232869D01*
X121511371Y-72454048D01*
X121685366Y-72382155D01*
X122150205Y-71918126D01*
X122402084Y-71311534D01*
X122402657Y-70654726D01*
X122151837Y-70047694D01*
X121687808Y-69582855D01*
X121081216Y-69330976D01*
X120424408Y-69330403D01*
X119817376Y-69581223D01*
X119352537Y-70045252D01*
X119100658Y-70651844D01*
X119100085Y-71308652D01*
X119350905Y-71915684D01*
X119814934Y-72380523D01*
X119991371Y-72453786D01*
X119991371Y-83733459D01*
X119884608Y-83777572D01*
X119621359Y-84040362D01*
X119522551Y-84278317D01*
X119522551Y-80307152D01*
X119554743Y-80275016D01*
X119697389Y-79931488D01*
X119697713Y-79559522D01*
X119555668Y-79215746D01*
X119292878Y-78952497D01*
X118949350Y-78809851D01*
X118577384Y-78809527D01*
X118233608Y-78951572D01*
X117970359Y-79214362D01*
X117827713Y-79557890D01*
X117827389Y-79929856D01*
X117969434Y-80273632D01*
X118002551Y-80306807D01*
X118002551Y-81378586D01*
X117933350Y-81349851D01*
X117857810Y-81349785D01*
X117919389Y-81201488D01*
X117919713Y-80829522D01*
X117777668Y-80485746D01*
X117514878Y-80222497D01*
X117171350Y-80079851D01*
X116799384Y-80079527D01*
X116455608Y-80221572D01*
X116192359Y-80484362D01*
X116049713Y-80827890D01*
X116049389Y-81199856D01*
X116191434Y-81543632D01*
X116224551Y-81576807D01*
X116224551Y-94669887D01*
X114050650Y-96843788D01*
X113751384Y-96843527D01*
X113553551Y-96925270D01*
X113553551Y-84697689D01*
X113495699Y-84406850D01*
X113330952Y-84160288D01*
X112077673Y-82907009D01*
X112077713Y-82861522D01*
X111935668Y-82517746D01*
X111672878Y-82254497D01*
X111329350Y-82111851D01*
X110957384Y-82111527D01*
X110613608Y-82253572D01*
X110350359Y-82516362D01*
X110207713Y-82859890D01*
X110207389Y-83231856D01*
X110349434Y-83575632D01*
X110612224Y-83838881D01*
X110955752Y-83981527D01*
X111002628Y-83981568D01*
X112033551Y-85012491D01*
X112033551Y-94303690D01*
X111846384Y-94303527D01*
X111502608Y-94445572D01*
X111460207Y-94487899D01*
X111418878Y-94446497D01*
X111075350Y-94303851D01*
X110703384Y-94303527D01*
X110359608Y-94445572D01*
X110096359Y-94708362D01*
X109953713Y-95051890D01*
X109953672Y-95098766D01*
X106795150Y-98257288D01*
X106630403Y-98503850D01*
X106572551Y-98794689D01*
X106572551Y-101788226D01*
X106540359Y-101820362D01*
X106397713Y-102163890D01*
X106397389Y-102535856D01*
X104867551Y-102535856D01*
X104867551Y-87821325D01*
X105112930Y-87923215D01*
X105739424Y-87923762D01*
X106318438Y-87684518D01*
X106761823Y-87241906D01*
X107002077Y-86663310D01*
X107002624Y-86036816D01*
X106763380Y-85457802D01*
X106384655Y-85078416D01*
X106761823Y-84701906D01*
X107002077Y-84123310D01*
X107002624Y-83496816D01*
X106763380Y-82917802D01*
X106384655Y-82538416D01*
X106761823Y-82161906D01*
X107002077Y-81583310D01*
X107002624Y-80956816D01*
X106763380Y-80377802D01*
X106384655Y-79998416D01*
X106761823Y-79621906D01*
X107002077Y-79043310D01*
X107002624Y-78416816D01*
X106763380Y-77837802D01*
X106384655Y-77458416D01*
X106761823Y-77081906D01*
X107002077Y-76503310D01*
X107002624Y-75876816D01*
X106763380Y-75297802D01*
X106384655Y-74918416D01*
X106761823Y-74541906D01*
X107002077Y-73963310D01*
X107002624Y-73336816D01*
X106763380Y-72757802D01*
X106320768Y-72314417D01*
X105742172Y-72074163D01*
X105115678Y-72073616D01*
X104867551Y-72176140D01*
X104867551Y-71308652D01*
X108602265Y-71308652D01*
X108853085Y-71915684D01*
X109317114Y-72380523D01*
X109923706Y-72632402D01*
X110580514Y-72632975D01*
X111187546Y-72382155D01*
X111652385Y-71918126D01*
X111904264Y-71311534D01*
X111904266Y-71308652D01*
X112099845Y-71308652D01*
X112350665Y-71915684D01*
X112814694Y-72380523D01*
X113421286Y-72632402D01*
X114078094Y-72632975D01*
X114685126Y-72382155D01*
X115149965Y-71918126D01*
X115401844Y-71311534D01*
X115401882Y-71267439D01*
X115600251Y-71267439D01*
X115600251Y-72123999D01*
X115696924Y-72357388D01*
X115875553Y-72536016D01*
X116108942Y-72632689D01*
X116965501Y-72632689D01*
X117124251Y-72473939D01*
X117124251Y-71108689D01*
X117378251Y-71108689D01*
X117378251Y-72473939D01*
X117537001Y-72632689D01*
X118393560Y-72632689D01*
X118626949Y-72536016D01*
X118805578Y-72357388D01*
X118902251Y-72123999D01*
X118902251Y-71267439D01*
X118743501Y-71108689D01*
X117378251Y-71108689D01*
X117124251Y-71108689D01*
X115759001Y-71108689D01*
X115600251Y-71267439D01*
X115401882Y-71267439D01*
X115402417Y-70654726D01*
X115151597Y-70047694D01*
X114943645Y-69839379D01*
X115600251Y-69839379D01*
X115600251Y-70695939D01*
X115759001Y-70854689D01*
X117124251Y-70854689D01*
X117124251Y-69489439D01*
X117378251Y-69489439D01*
X117378251Y-70854689D01*
X118743501Y-70854689D01*
X118902251Y-70695939D01*
X118902251Y-69839379D01*
X118805578Y-69605990D01*
X118626949Y-69427362D01*
X118393560Y-69330689D01*
X117537001Y-69330689D01*
X117378251Y-69489439D01*
X117124251Y-69489439D01*
X116965501Y-69330689D01*
X116108942Y-69330689D01*
X115875553Y-69427362D01*
X115696924Y-69605990D01*
X115600251Y-69839379D01*
X114943645Y-69839379D01*
X114687568Y-69582855D01*
X114080976Y-69330976D01*
X113424168Y-69330403D01*
X112817136Y-69581223D01*
X112352297Y-70045252D01*
X112100418Y-70651844D01*
X112099845Y-71308652D01*
X111904266Y-71308652D01*
X111904837Y-70654726D01*
X111654017Y-70047694D01*
X111189988Y-69582855D01*
X110583396Y-69330976D01*
X109926588Y-69330403D01*
X109319556Y-69581223D01*
X108854717Y-70045252D01*
X108602838Y-70651844D01*
X108602265Y-71308652D01*
X104867551Y-71308652D01*
X104867551Y-66230689D01*
X126307551Y-66230689D01*
X126307551Y-72176053D01*
G36*
X151707551Y-72176053D02*
X151462172Y-72074163D01*
X150835678Y-72073616D01*
X150256664Y-72312860D01*
X149813279Y-72755472D01*
X149573025Y-73334068D01*
X149572478Y-73960562D01*
X149811722Y-74539576D01*
X150190447Y-74918962D01*
X149813279Y-75295472D01*
X149573025Y-75874068D01*
X149572478Y-76500562D01*
X149811722Y-77079576D01*
X150190447Y-77458962D01*
X149813279Y-77835472D01*
X149573025Y-78414068D01*
X149572478Y-79040562D01*
X149811722Y-79619576D01*
X150190447Y-79998962D01*
X149813279Y-80375472D01*
X149573025Y-80954068D01*
X149572478Y-81580562D01*
X149811722Y-82159576D01*
X150190447Y-82538962D01*
X149813279Y-82915472D01*
X149573025Y-83494068D01*
X149572478Y-84120562D01*
X149811722Y-84699576D01*
X150190447Y-85078962D01*
X149813279Y-85455472D01*
X149573025Y-86034068D01*
X149572478Y-86660562D01*
X149811722Y-87239576D01*
X150254334Y-87682961D01*
X150832930Y-87923215D01*
X151459424Y-87923762D01*
X151707551Y-87821238D01*
X151707551Y-113832689D01*
X143116953Y-113832689D01*
X143167494Y-113811806D01*
X143430743Y-113549016D01*
X143573389Y-113205488D01*
X143573713Y-112833522D01*
X143431668Y-112489746D01*
X143168878Y-112226497D01*
X142825350Y-112083851D01*
X142453384Y-112083527D01*
X142109608Y-112225572D01*
X142076433Y-112258689D01*
X136095353Y-112258689D01*
X133045353Y-109208689D01*
X133682353Y-108571689D01*
X135726088Y-108571689D01*
X135758224Y-108603881D01*
X136101752Y-108746527D01*
X136473718Y-108746851D01*
X136817494Y-108604806D01*
X137080743Y-108342016D01*
X137223389Y-107998488D01*
X137223713Y-107626522D01*
X137081668Y-107282746D01*
X136818878Y-107019497D01*
X136475350Y-106876851D01*
X136103384Y-106876527D01*
X135759608Y-107018572D01*
X135726433Y-107051689D01*
X133367551Y-107051689D01*
X133076711Y-107109541D01*
X132830150Y-107274288D01*
X131830871Y-108273567D01*
X131785384Y-108273527D01*
X131441608Y-108415572D01*
X131178359Y-108678362D01*
X131035713Y-109021890D01*
X131035389Y-109393856D01*
X131177434Y-109737632D01*
X131440224Y-110000881D01*
X131783752Y-110143527D01*
X131830628Y-110143568D01*
X135243150Y-113556090D01*
X135489712Y-113720837D01*
X135780551Y-113778689D01*
X142076088Y-113778689D01*
X142108224Y-113810881D01*
X142160743Y-113832689D01*
X130267551Y-113832689D01*
X130267551Y-102535856D01*
X131797389Y-102535856D01*
X131939434Y-102879632D01*
X132202224Y-103142881D01*
X132545752Y-103285527D01*
X132917718Y-103285851D01*
X133261494Y-103143806D01*
X133524743Y-102881016D01*
X133667389Y-102537488D01*
X133667713Y-102165522D01*
X133525668Y-101821746D01*
X133492551Y-101788571D01*
X133492551Y-99109491D01*
X134004551Y-98597491D01*
X134004551Y-101788226D01*
X133972359Y-101820362D01*
X133829713Y-102163890D01*
X133829389Y-102535856D01*
X133971434Y-102879632D01*
X134234224Y-103142881D01*
X134577752Y-103285527D01*
X134949718Y-103285851D01*
X135293494Y-103143806D01*
X135556743Y-102881016D01*
X135699389Y-102537488D01*
X135699713Y-102165522D01*
X135557668Y-101821746D01*
X135524551Y-101788571D01*
X135524551Y-98220491D01*
X137433551Y-96311491D01*
X137433551Y-106076953D01*
X137491403Y-106367792D01*
X137656150Y-106614354D01*
X138755886Y-107714090D01*
X139002448Y-107878837D01*
X139120847Y-107902388D01*
X139187224Y-107968881D01*
X139530752Y-108111527D01*
X139902718Y-108111851D01*
X140246494Y-107969806D01*
X140509743Y-107707016D01*
X140652389Y-107363488D01*
X140652713Y-106991522D01*
X140510668Y-106647746D01*
X140247878Y-106384497D01*
X139904350Y-106241851D01*
X139532384Y-106241527D01*
X139462006Y-106270606D01*
X138953551Y-105762151D01*
X138953551Y-103671022D01*
X139060224Y-103777881D01*
X139403752Y-103920527D01*
X139775718Y-103920851D01*
X140119494Y-103778806D01*
X140152669Y-103745689D01*
X141497551Y-103745689D01*
X141497551Y-106668689D01*
X141555403Y-106959528D01*
X141720150Y-107206090D01*
X143481429Y-108967369D01*
X143481389Y-109012856D01*
X143623434Y-109356632D01*
X143886224Y-109619881D01*
X144229752Y-109762527D01*
X144601718Y-109762851D01*
X144945494Y-109620806D01*
X145208743Y-109358016D01*
X145351389Y-109014488D01*
X145351713Y-108642522D01*
X145209668Y-108298746D01*
X144946878Y-108035497D01*
X144603350Y-107892851D01*
X144556474Y-107892810D01*
X143017551Y-106353887D01*
X143017551Y-103300491D01*
X144556231Y-101761811D01*
X144601718Y-101761851D01*
X144945494Y-101619806D01*
X145208743Y-101357016D01*
X145351389Y-101013488D01*
X145351713Y-100641522D01*
X145209668Y-100297746D01*
X144946878Y-100034497D01*
X144603350Y-99891851D01*
X144231384Y-99891527D01*
X143887608Y-100033572D01*
X143624359Y-100296362D01*
X143481713Y-100639890D01*
X143481672Y-100686766D01*
X141942749Y-102225689D01*
X140153014Y-102225689D01*
X140120878Y-102193497D01*
X139777350Y-102050851D01*
X139405384Y-102050527D01*
X139061608Y-102192572D01*
X138953551Y-102300441D01*
X138953551Y-98632057D01*
X139149752Y-98713527D01*
X139521718Y-98713851D01*
X139865494Y-98571806D01*
X140108913Y-98328811D01*
X140127952Y-98316090D01*
X140990892Y-97453150D01*
X141219224Y-97681881D01*
X141351593Y-97736845D01*
X140974871Y-98113567D01*
X140929384Y-98113527D01*
X140585608Y-98255572D01*
X140322359Y-98518362D01*
X140179713Y-98861890D01*
X140179389Y-99233856D01*
X140321434Y-99577632D01*
X140584224Y-99840881D01*
X140927752Y-99983527D01*
X141299718Y-99983851D01*
X141643494Y-99841806D01*
X141906743Y-99579016D01*
X142049389Y-99235488D01*
X142049430Y-99188612D01*
X144699952Y-96538090D01*
X144864699Y-96291528D01*
X144922551Y-96000689D01*
X144922551Y-84862736D01*
X145020434Y-85099632D01*
X145283224Y-85362881D01*
X145626752Y-85505527D01*
X145998718Y-85505851D01*
X146342494Y-85363806D01*
X146605743Y-85101016D01*
X146748389Y-84757488D01*
X146748456Y-84680947D01*
X146853519Y-84523708D01*
X146911371Y-84232869D01*
X146911371Y-72454048D01*
X147085366Y-72382155D01*
X147550205Y-71918126D01*
X147802084Y-71311534D01*
X147802657Y-70654726D01*
X147551837Y-70047694D01*
X147087808Y-69582855D01*
X146481216Y-69330976D01*
X145824408Y-69330403D01*
X145217376Y-69581223D01*
X144752537Y-70045252D01*
X144500658Y-70651844D01*
X144500085Y-71308652D01*
X144750905Y-71915684D01*
X145214934Y-72380523D01*
X145391371Y-72453786D01*
X145391371Y-83733459D01*
X145284608Y-83777572D01*
X145021359Y-84040362D01*
X144922551Y-84278317D01*
X144922551Y-80307152D01*
X144954743Y-80275016D01*
X145097389Y-79931488D01*
X145097713Y-79559522D01*
X144955668Y-79215746D01*
X144692878Y-78952497D01*
X144349350Y-78809851D01*
X143977384Y-78809527D01*
X143633608Y-78951572D01*
X143370359Y-79214362D01*
X143227713Y-79557890D01*
X143227389Y-79929856D01*
X143369434Y-80273632D01*
X143402551Y-80306807D01*
X143402551Y-81378586D01*
X143333350Y-81349851D01*
X143257810Y-81349785D01*
X143319389Y-81201488D01*
X143319713Y-80829522D01*
X143177668Y-80485746D01*
X142914878Y-80222497D01*
X142571350Y-80079851D01*
X142199384Y-80079527D01*
X141855608Y-80221572D01*
X141592359Y-80484362D01*
X141449713Y-80827890D01*
X141449389Y-81199856D01*
X141591434Y-81543632D01*
X141624551Y-81576807D01*
X141624551Y-94669887D01*
X139450650Y-96843788D01*
X139151384Y-96843527D01*
X138953551Y-96925270D01*
X138953551Y-84697689D01*
X138895699Y-84406850D01*
X138730952Y-84160288D01*
X137477673Y-82907009D01*
X137477713Y-82861522D01*
X137335668Y-82517746D01*
X137072878Y-82254497D01*
X136729350Y-82111851D01*
X136357384Y-82111527D01*
X136013608Y-82253572D01*
X135750359Y-82516362D01*
X135607713Y-82859890D01*
X135607389Y-83231856D01*
X135749434Y-83575632D01*
X136012224Y-83838881D01*
X136355752Y-83981527D01*
X136402628Y-83981568D01*
X137433551Y-85012491D01*
X137433551Y-94303690D01*
X137246384Y-94303527D01*
X136902608Y-94445572D01*
X136860207Y-94487899D01*
X136818878Y-94446497D01*
X136475350Y-94303851D01*
X136103384Y-94303527D01*
X135759608Y-94445572D01*
X135496359Y-94708362D01*
X135353713Y-95051890D01*
X135353672Y-95098766D01*
X132195150Y-98257288D01*
X132030403Y-98503850D01*
X131972551Y-98794689D01*
X131972551Y-101788226D01*
X131940359Y-101820362D01*
X131797713Y-102163890D01*
X131797389Y-102535856D01*
X130267551Y-102535856D01*
X130267551Y-87821325D01*
X130512930Y-87923215D01*
X131139424Y-87923762D01*
X131718438Y-87684518D01*
X132161823Y-87241906D01*
X132402077Y-86663310D01*
X132402624Y-86036816D01*
X132163380Y-85457802D01*
X131784655Y-85078416D01*
X132161823Y-84701906D01*
X132402077Y-84123310D01*
X132402624Y-83496816D01*
X132163380Y-82917802D01*
X131784655Y-82538416D01*
X132161823Y-82161906D01*
X132402077Y-81583310D01*
X132402624Y-80956816D01*
X132163380Y-80377802D01*
X131784655Y-79998416D01*
X132161823Y-79621906D01*
X132402077Y-79043310D01*
X132402624Y-78416816D01*
X132163380Y-77837802D01*
X131784655Y-77458416D01*
X132161823Y-77081906D01*
X132402077Y-76503310D01*
X132402624Y-75876816D01*
X132163380Y-75297802D01*
X131784655Y-74918416D01*
X132161823Y-74541906D01*
X132402077Y-73963310D01*
X132402624Y-73336816D01*
X132163380Y-72757802D01*
X131720768Y-72314417D01*
X131142172Y-72074163D01*
X130515678Y-72073616D01*
X130267551Y-72176140D01*
X130267551Y-71308652D01*
X134002265Y-71308652D01*
X134253085Y-71915684D01*
X134717114Y-72380523D01*
X135323706Y-72632402D01*
X135980514Y-72632975D01*
X136587546Y-72382155D01*
X137052385Y-71918126D01*
X137304264Y-71311534D01*
X137304266Y-71308652D01*
X137499845Y-71308652D01*
X137750665Y-71915684D01*
X138214694Y-72380523D01*
X138821286Y-72632402D01*
X139478094Y-72632975D01*
X140085126Y-72382155D01*
X140549965Y-71918126D01*
X140801844Y-71311534D01*
X140801882Y-71267439D01*
X141000251Y-71267439D01*
X141000251Y-72123999D01*
X141096924Y-72357388D01*
X141275553Y-72536016D01*
X141508942Y-72632689D01*
X142365501Y-72632689D01*
X142524251Y-72473939D01*
X142524251Y-71108689D01*
X142778251Y-71108689D01*
X142778251Y-72473939D01*
X142937001Y-72632689D01*
X143793560Y-72632689D01*
X144026949Y-72536016D01*
X144205578Y-72357388D01*
X144302251Y-72123999D01*
X144302251Y-71267439D01*
X144143501Y-71108689D01*
X142778251Y-71108689D01*
X142524251Y-71108689D01*
X141159001Y-71108689D01*
X141000251Y-71267439D01*
X140801882Y-71267439D01*
X140802417Y-70654726D01*
X140551597Y-70047694D01*
X140343645Y-69839379D01*
X141000251Y-69839379D01*
X141000251Y-70695939D01*
X141159001Y-70854689D01*
X142524251Y-70854689D01*
X142524251Y-69489439D01*
X142778251Y-69489439D01*
X142778251Y-70854689D01*
X144143501Y-70854689D01*
X144302251Y-70695939D01*
X144302251Y-69839379D01*
X144205578Y-69605990D01*
X144026949Y-69427362D01*
X143793560Y-69330689D01*
X142937001Y-69330689D01*
X142778251Y-69489439D01*
X142524251Y-69489439D01*
X142365501Y-69330689D01*
X141508942Y-69330689D01*
X141275553Y-69427362D01*
X141096924Y-69605990D01*
X141000251Y-69839379D01*
X140343645Y-69839379D01*
X140087568Y-69582855D01*
X139480976Y-69330976D01*
X138824168Y-69330403D01*
X138217136Y-69581223D01*
X137752297Y-70045252D01*
X137500418Y-70651844D01*
X137499845Y-71308652D01*
X137304266Y-71308652D01*
X137304837Y-70654726D01*
X137054017Y-70047694D01*
X136589988Y-69582855D01*
X135983396Y-69330976D01*
X135326588Y-69330403D01*
X134719556Y-69581223D01*
X134254717Y-70045252D01*
X134002838Y-70651844D01*
X134002265Y-71308652D01*
X130267551Y-71308652D01*
X130267551Y-66230689D01*
X151707551Y-66230689D01*
X151707551Y-72176053D01*
X151707551Y-72176053D01*
G37*
X151707551Y-72176053D02*
X151462172Y-72074163D01*
X150835678Y-72073616D01*
X150256664Y-72312860D01*
X149813279Y-72755472D01*
X149573025Y-73334068D01*
X149572478Y-73960562D01*
X149811722Y-74539576D01*
X150190447Y-74918962D01*
X149813279Y-75295472D01*
X149573025Y-75874068D01*
X149572478Y-76500562D01*
X149811722Y-77079576D01*
X150190447Y-77458962D01*
X149813279Y-77835472D01*
X149573025Y-78414068D01*
X149572478Y-79040562D01*
X149811722Y-79619576D01*
X150190447Y-79998962D01*
X149813279Y-80375472D01*
X149573025Y-80954068D01*
X149572478Y-81580562D01*
X149811722Y-82159576D01*
X150190447Y-82538962D01*
X149813279Y-82915472D01*
X149573025Y-83494068D01*
X149572478Y-84120562D01*
X149811722Y-84699576D01*
X150190447Y-85078962D01*
X149813279Y-85455472D01*
X149573025Y-86034068D01*
X149572478Y-86660562D01*
X149811722Y-87239576D01*
X150254334Y-87682961D01*
X150832930Y-87923215D01*
X151459424Y-87923762D01*
X151707551Y-87821238D01*
X151707551Y-113832689D01*
X143116953Y-113832689D01*
X143167494Y-113811806D01*
X143430743Y-113549016D01*
X143573389Y-113205488D01*
X143573713Y-112833522D01*
X143431668Y-112489746D01*
X143168878Y-112226497D01*
X142825350Y-112083851D01*
X142453384Y-112083527D01*
X142109608Y-112225572D01*
X142076433Y-112258689D01*
X136095353Y-112258689D01*
X133045353Y-109208689D01*
X133682353Y-108571689D01*
X135726088Y-108571689D01*
X135758224Y-108603881D01*
X136101752Y-108746527D01*
X136473718Y-108746851D01*
X136817494Y-108604806D01*
X137080743Y-108342016D01*
X137223389Y-107998488D01*
X137223713Y-107626522D01*
X137081668Y-107282746D01*
X136818878Y-107019497D01*
X136475350Y-106876851D01*
X136103384Y-106876527D01*
X135759608Y-107018572D01*
X135726433Y-107051689D01*
X133367551Y-107051689D01*
X133076711Y-107109541D01*
X132830150Y-107274288D01*
X131830871Y-108273567D01*
X131785384Y-108273527D01*
X131441608Y-108415572D01*
X131178359Y-108678362D01*
X131035713Y-109021890D01*
X131035389Y-109393856D01*
X131177434Y-109737632D01*
X131440224Y-110000881D01*
X131783752Y-110143527D01*
X131830628Y-110143568D01*
X135243150Y-113556090D01*
X135489712Y-113720837D01*
X135780551Y-113778689D01*
X142076088Y-113778689D01*
X142108224Y-113810881D01*
X142160743Y-113832689D01*
X130267551Y-113832689D01*
X130267551Y-102535856D01*
X131797389Y-102535856D01*
X131939434Y-102879632D01*
X132202224Y-103142881D01*
X132545752Y-103285527D01*
X132917718Y-103285851D01*
X133261494Y-103143806D01*
X133524743Y-102881016D01*
X133667389Y-102537488D01*
X133667713Y-102165522D01*
X133525668Y-101821746D01*
X133492551Y-101788571D01*
X133492551Y-99109491D01*
X134004551Y-98597491D01*
X134004551Y-101788226D01*
X133972359Y-101820362D01*
X133829713Y-102163890D01*
X133829389Y-102535856D01*
X133971434Y-102879632D01*
X134234224Y-103142881D01*
X134577752Y-103285527D01*
X134949718Y-103285851D01*
X135293494Y-103143806D01*
X135556743Y-102881016D01*
X135699389Y-102537488D01*
X135699713Y-102165522D01*
X135557668Y-101821746D01*
X135524551Y-101788571D01*
X135524551Y-98220491D01*
X137433551Y-96311491D01*
X137433551Y-106076953D01*
X137491403Y-106367792D01*
X137656150Y-106614354D01*
X138755886Y-107714090D01*
X139002448Y-107878837D01*
X139120847Y-107902388D01*
X139187224Y-107968881D01*
X139530752Y-108111527D01*
X139902718Y-108111851D01*
X140246494Y-107969806D01*
X140509743Y-107707016D01*
X140652389Y-107363488D01*
X140652713Y-106991522D01*
X140510668Y-106647746D01*
X140247878Y-106384497D01*
X139904350Y-106241851D01*
X139532384Y-106241527D01*
X139462006Y-106270606D01*
X138953551Y-105762151D01*
X138953551Y-103671022D01*
X139060224Y-103777881D01*
X139403752Y-103920527D01*
X139775718Y-103920851D01*
X140119494Y-103778806D01*
X140152669Y-103745689D01*
X141497551Y-103745689D01*
X141497551Y-106668689D01*
X141555403Y-106959528D01*
X141720150Y-107206090D01*
X143481429Y-108967369D01*
X143481389Y-109012856D01*
X143623434Y-109356632D01*
X143886224Y-109619881D01*
X144229752Y-109762527D01*
X144601718Y-109762851D01*
X144945494Y-109620806D01*
X145208743Y-109358016D01*
X145351389Y-109014488D01*
X145351713Y-108642522D01*
X145209668Y-108298746D01*
X144946878Y-108035497D01*
X144603350Y-107892851D01*
X144556474Y-107892810D01*
X143017551Y-106353887D01*
X143017551Y-103300491D01*
X144556231Y-101761811D01*
X144601718Y-101761851D01*
X144945494Y-101619806D01*
X145208743Y-101357016D01*
X145351389Y-101013488D01*
X145351713Y-100641522D01*
X145209668Y-100297746D01*
X144946878Y-100034497D01*
X144603350Y-99891851D01*
X144231384Y-99891527D01*
X143887608Y-100033572D01*
X143624359Y-100296362D01*
X143481713Y-100639890D01*
X143481672Y-100686766D01*
X141942749Y-102225689D01*
X140153014Y-102225689D01*
X140120878Y-102193497D01*
X139777350Y-102050851D01*
X139405384Y-102050527D01*
X139061608Y-102192572D01*
X138953551Y-102300441D01*
X138953551Y-98632057D01*
X139149752Y-98713527D01*
X139521718Y-98713851D01*
X139865494Y-98571806D01*
X140108913Y-98328811D01*
X140127952Y-98316090D01*
X140990892Y-97453150D01*
X141219224Y-97681881D01*
X141351593Y-97736845D01*
X140974871Y-98113567D01*
X140929384Y-98113527D01*
X140585608Y-98255572D01*
X140322359Y-98518362D01*
X140179713Y-98861890D01*
X140179389Y-99233856D01*
X140321434Y-99577632D01*
X140584224Y-99840881D01*
X140927752Y-99983527D01*
X141299718Y-99983851D01*
X141643494Y-99841806D01*
X141906743Y-99579016D01*
X142049389Y-99235488D01*
X142049430Y-99188612D01*
X144699952Y-96538090D01*
X144864699Y-96291528D01*
X144922551Y-96000689D01*
X144922551Y-84862736D01*
X145020434Y-85099632D01*
X145283224Y-85362881D01*
X145626752Y-85505527D01*
X145998718Y-85505851D01*
X146342494Y-85363806D01*
X146605743Y-85101016D01*
X146748389Y-84757488D01*
X146748456Y-84680947D01*
X146853519Y-84523708D01*
X146911371Y-84232869D01*
X146911371Y-72454048D01*
X147085366Y-72382155D01*
X147550205Y-71918126D01*
X147802084Y-71311534D01*
X147802657Y-70654726D01*
X147551837Y-70047694D01*
X147087808Y-69582855D01*
X146481216Y-69330976D01*
X145824408Y-69330403D01*
X145217376Y-69581223D01*
X144752537Y-70045252D01*
X144500658Y-70651844D01*
X144500085Y-71308652D01*
X144750905Y-71915684D01*
X145214934Y-72380523D01*
X145391371Y-72453786D01*
X145391371Y-83733459D01*
X145284608Y-83777572D01*
X145021359Y-84040362D01*
X144922551Y-84278317D01*
X144922551Y-80307152D01*
X144954743Y-80275016D01*
X145097389Y-79931488D01*
X145097713Y-79559522D01*
X144955668Y-79215746D01*
X144692878Y-78952497D01*
X144349350Y-78809851D01*
X143977384Y-78809527D01*
X143633608Y-78951572D01*
X143370359Y-79214362D01*
X143227713Y-79557890D01*
X143227389Y-79929856D01*
X143369434Y-80273632D01*
X143402551Y-80306807D01*
X143402551Y-81378586D01*
X143333350Y-81349851D01*
X143257810Y-81349785D01*
X143319389Y-81201488D01*
X143319713Y-80829522D01*
X143177668Y-80485746D01*
X142914878Y-80222497D01*
X142571350Y-80079851D01*
X142199384Y-80079527D01*
X141855608Y-80221572D01*
X141592359Y-80484362D01*
X141449713Y-80827890D01*
X141449389Y-81199856D01*
X141591434Y-81543632D01*
X141624551Y-81576807D01*
X141624551Y-94669887D01*
X139450650Y-96843788D01*
X139151384Y-96843527D01*
X138953551Y-96925270D01*
X138953551Y-84697689D01*
X138895699Y-84406850D01*
X138730952Y-84160288D01*
X137477673Y-82907009D01*
X137477713Y-82861522D01*
X137335668Y-82517746D01*
X137072878Y-82254497D01*
X136729350Y-82111851D01*
X136357384Y-82111527D01*
X136013608Y-82253572D01*
X135750359Y-82516362D01*
X135607713Y-82859890D01*
X135607389Y-83231856D01*
X135749434Y-83575632D01*
X136012224Y-83838881D01*
X136355752Y-83981527D01*
X136402628Y-83981568D01*
X137433551Y-85012491D01*
X137433551Y-94303690D01*
X137246384Y-94303527D01*
X136902608Y-94445572D01*
X136860207Y-94487899D01*
X136818878Y-94446497D01*
X136475350Y-94303851D01*
X136103384Y-94303527D01*
X135759608Y-94445572D01*
X135496359Y-94708362D01*
X135353713Y-95051890D01*
X135353672Y-95098766D01*
X132195150Y-98257288D01*
X132030403Y-98503850D01*
X131972551Y-98794689D01*
X131972551Y-101788226D01*
X131940359Y-101820362D01*
X131797713Y-102163890D01*
X131797389Y-102535856D01*
X130267551Y-102535856D01*
X130267551Y-87821325D01*
X130512930Y-87923215D01*
X131139424Y-87923762D01*
X131718438Y-87684518D01*
X132161823Y-87241906D01*
X132402077Y-86663310D01*
X132402624Y-86036816D01*
X132163380Y-85457802D01*
X131784655Y-85078416D01*
X132161823Y-84701906D01*
X132402077Y-84123310D01*
X132402624Y-83496816D01*
X132163380Y-82917802D01*
X131784655Y-82538416D01*
X132161823Y-82161906D01*
X132402077Y-81583310D01*
X132402624Y-80956816D01*
X132163380Y-80377802D01*
X131784655Y-79998416D01*
X132161823Y-79621906D01*
X132402077Y-79043310D01*
X132402624Y-78416816D01*
X132163380Y-77837802D01*
X131784655Y-77458416D01*
X132161823Y-77081906D01*
X132402077Y-76503310D01*
X132402624Y-75876816D01*
X132163380Y-75297802D01*
X131784655Y-74918416D01*
X132161823Y-74541906D01*
X132402077Y-73963310D01*
X132402624Y-73336816D01*
X132163380Y-72757802D01*
X131720768Y-72314417D01*
X131142172Y-72074163D01*
X130515678Y-72073616D01*
X130267551Y-72176140D01*
X130267551Y-71308652D01*
X134002265Y-71308652D01*
X134253085Y-71915684D01*
X134717114Y-72380523D01*
X135323706Y-72632402D01*
X135980514Y-72632975D01*
X136587546Y-72382155D01*
X137052385Y-71918126D01*
X137304264Y-71311534D01*
X137304266Y-71308652D01*
X137499845Y-71308652D01*
X137750665Y-71915684D01*
X138214694Y-72380523D01*
X138821286Y-72632402D01*
X139478094Y-72632975D01*
X140085126Y-72382155D01*
X140549965Y-71918126D01*
X140801844Y-71311534D01*
X140801882Y-71267439D01*
X141000251Y-71267439D01*
X141000251Y-72123999D01*
X141096924Y-72357388D01*
X141275553Y-72536016D01*
X141508942Y-72632689D01*
X142365501Y-72632689D01*
X142524251Y-72473939D01*
X142524251Y-71108689D01*
X142778251Y-71108689D01*
X142778251Y-72473939D01*
X142937001Y-72632689D01*
X143793560Y-72632689D01*
X144026949Y-72536016D01*
X144205578Y-72357388D01*
X144302251Y-72123999D01*
X144302251Y-71267439D01*
X144143501Y-71108689D01*
X142778251Y-71108689D01*
X142524251Y-71108689D01*
X141159001Y-71108689D01*
X141000251Y-71267439D01*
X140801882Y-71267439D01*
X140802417Y-70654726D01*
X140551597Y-70047694D01*
X140343645Y-69839379D01*
X141000251Y-69839379D01*
X141000251Y-70695939D01*
X141159001Y-70854689D01*
X142524251Y-70854689D01*
X142524251Y-69489439D01*
X142778251Y-69489439D01*
X142778251Y-70854689D01*
X144143501Y-70854689D01*
X144302251Y-70695939D01*
X144302251Y-69839379D01*
X144205578Y-69605990D01*
X144026949Y-69427362D01*
X143793560Y-69330689D01*
X142937001Y-69330689D01*
X142778251Y-69489439D01*
X142524251Y-69489439D01*
X142365501Y-69330689D01*
X141508942Y-69330689D01*
X141275553Y-69427362D01*
X141096924Y-69605990D01*
X141000251Y-69839379D01*
X140343645Y-69839379D01*
X140087568Y-69582855D01*
X139480976Y-69330976D01*
X138824168Y-69330403D01*
X138217136Y-69581223D01*
X137752297Y-70045252D01*
X137500418Y-70651844D01*
X137499845Y-71308652D01*
X137304266Y-71308652D01*
X137304837Y-70654726D01*
X137054017Y-70047694D01*
X136589988Y-69582855D01*
X135983396Y-69330976D01*
X135326588Y-69330403D01*
X134719556Y-69581223D01*
X134254717Y-70045252D01*
X134002838Y-70651844D01*
X134002265Y-71308652D01*
X130267551Y-71308652D01*
X130267551Y-66230689D01*
X151707551Y-66230689D01*
X151707551Y-72176053D01*
G36*
X177107551Y-72176053D02*
X176862172Y-72074163D01*
X176235678Y-72073616D01*
X175656664Y-72312860D01*
X175213279Y-72755472D01*
X174973025Y-73334068D01*
X174972478Y-73960562D01*
X175211722Y-74539576D01*
X175590447Y-74918962D01*
X175213279Y-75295472D01*
X174973025Y-75874068D01*
X174972478Y-76500562D01*
X175211722Y-77079576D01*
X175590447Y-77458962D01*
X175213279Y-77835472D01*
X174973025Y-78414068D01*
X174972478Y-79040562D01*
X175211722Y-79619576D01*
X175590447Y-79998962D01*
X175213279Y-80375472D01*
X174973025Y-80954068D01*
X174972478Y-81580562D01*
X175211722Y-82159576D01*
X175590447Y-82538962D01*
X175213279Y-82915472D01*
X174973025Y-83494068D01*
X174972478Y-84120562D01*
X175211722Y-84699576D01*
X175590447Y-85078962D01*
X175213279Y-85455472D01*
X174973025Y-86034068D01*
X174972478Y-86660562D01*
X175211722Y-87239576D01*
X175654334Y-87682961D01*
X176232930Y-87923215D01*
X176859424Y-87923762D01*
X177107551Y-87821238D01*
X177107551Y-113832689D01*
X168516953Y-113832689D01*
X168567494Y-113811806D01*
X168830743Y-113549016D01*
X168973389Y-113205488D01*
X168973713Y-112833522D01*
X168831668Y-112489746D01*
X168568878Y-112226497D01*
X168225350Y-112083851D01*
X167853384Y-112083527D01*
X167509608Y-112225572D01*
X167476433Y-112258689D01*
X161495353Y-112258689D01*
X158445353Y-109208689D01*
X159082353Y-108571689D01*
X161126088Y-108571689D01*
X161158224Y-108603881D01*
X161501752Y-108746527D01*
X161873718Y-108746851D01*
X162217494Y-108604806D01*
X162480743Y-108342016D01*
X162623389Y-107998488D01*
X162623713Y-107626522D01*
X162481668Y-107282746D01*
X162218878Y-107019497D01*
X161875350Y-106876851D01*
X161503384Y-106876527D01*
X161159608Y-107018572D01*
X161126433Y-107051689D01*
X158767551Y-107051689D01*
X158476711Y-107109541D01*
X158230150Y-107274288D01*
X157230871Y-108273567D01*
X157185384Y-108273527D01*
X156841608Y-108415572D01*
X156578359Y-108678362D01*
X156435713Y-109021890D01*
X156435389Y-109393856D01*
X156577434Y-109737632D01*
X156840224Y-110000881D01*
X157183752Y-110143527D01*
X157230628Y-110143568D01*
X160643150Y-113556090D01*
X160889712Y-113720837D01*
X161180551Y-113778689D01*
X167476088Y-113778689D01*
X167508224Y-113810881D01*
X167560743Y-113832689D01*
X155667551Y-113832689D01*
X155667551Y-102535856D01*
X157197389Y-102535856D01*
X157339434Y-102879632D01*
X157602224Y-103142881D01*
X157945752Y-103285527D01*
X158317718Y-103285851D01*
X158661494Y-103143806D01*
X158924743Y-102881016D01*
X159067389Y-102537488D01*
X159067713Y-102165522D01*
X158925668Y-101821746D01*
X158892551Y-101788571D01*
X158892551Y-99109491D01*
X159404551Y-98597491D01*
X159404551Y-101788226D01*
X159372359Y-101820362D01*
X159229713Y-102163890D01*
X159229389Y-102535856D01*
X159371434Y-102879632D01*
X159634224Y-103142881D01*
X159977752Y-103285527D01*
X160349718Y-103285851D01*
X160693494Y-103143806D01*
X160956743Y-102881016D01*
X161099389Y-102537488D01*
X161099713Y-102165522D01*
X160957668Y-101821746D01*
X160924551Y-101788571D01*
X160924551Y-98220491D01*
X162833551Y-96311491D01*
X162833551Y-106076953D01*
X162891403Y-106367792D01*
X163056150Y-106614354D01*
X164155886Y-107714090D01*
X164402448Y-107878837D01*
X164520847Y-107902388D01*
X164587224Y-107968881D01*
X164930752Y-108111527D01*
X165302718Y-108111851D01*
X165646494Y-107969806D01*
X165909743Y-107707016D01*
X166052389Y-107363488D01*
X166052713Y-106991522D01*
X165910668Y-106647746D01*
X165647878Y-106384497D01*
X165304350Y-106241851D01*
X164932384Y-106241527D01*
X164862006Y-106270606D01*
X164353551Y-105762151D01*
X164353551Y-103671022D01*
X164460224Y-103777881D01*
X164803752Y-103920527D01*
X165175718Y-103920851D01*
X165519494Y-103778806D01*
X165552669Y-103745689D01*
X166897551Y-103745689D01*
X166897551Y-106668689D01*
X166955403Y-106959528D01*
X167120150Y-107206090D01*
X168881429Y-108967369D01*
X168881389Y-109012856D01*
X169023434Y-109356632D01*
X169286224Y-109619881D01*
X169629752Y-109762527D01*
X170001718Y-109762851D01*
X170345494Y-109620806D01*
X170608743Y-109358016D01*
X170751389Y-109014488D01*
X170751713Y-108642522D01*
X170609668Y-108298746D01*
X170346878Y-108035497D01*
X170003350Y-107892851D01*
X169956474Y-107892810D01*
X168417551Y-106353887D01*
X168417551Y-103300491D01*
X169956231Y-101761811D01*
X170001718Y-101761851D01*
X170345494Y-101619806D01*
X170608743Y-101357016D01*
X170751389Y-101013488D01*
X170751713Y-100641522D01*
X170609668Y-100297746D01*
X170346878Y-100034497D01*
X170003350Y-99891851D01*
X169631384Y-99891527D01*
X169287608Y-100033572D01*
X169024359Y-100296362D01*
X168881713Y-100639890D01*
X168881672Y-100686766D01*
X167342749Y-102225689D01*
X165553014Y-102225689D01*
X165520878Y-102193497D01*
X165177350Y-102050851D01*
X164805384Y-102050527D01*
X164461608Y-102192572D01*
X164353551Y-102300441D01*
X164353551Y-98632057D01*
X164549752Y-98713527D01*
X164921718Y-98713851D01*
X165265494Y-98571806D01*
X165508913Y-98328811D01*
X165527952Y-98316090D01*
X166390892Y-97453150D01*
X166619224Y-97681881D01*
X166751593Y-97736845D01*
X166374871Y-98113567D01*
X166329384Y-98113527D01*
X165985608Y-98255572D01*
X165722359Y-98518362D01*
X165579713Y-98861890D01*
X165579389Y-99233856D01*
X165721434Y-99577632D01*
X165984224Y-99840881D01*
X166327752Y-99983527D01*
X166699718Y-99983851D01*
X167043494Y-99841806D01*
X167306743Y-99579016D01*
X167449389Y-99235488D01*
X167449430Y-99188612D01*
X170099952Y-96538090D01*
X170264699Y-96291528D01*
X170322551Y-96000689D01*
X170322551Y-84862736D01*
X170420434Y-85099632D01*
X170683224Y-85362881D01*
X171026752Y-85505527D01*
X171398718Y-85505851D01*
X171742494Y-85363806D01*
X172005743Y-85101016D01*
X172148389Y-84757488D01*
X172148456Y-84680947D01*
X172253519Y-84523708D01*
X172311371Y-84232869D01*
X172311371Y-72454048D01*
X172485366Y-72382155D01*
X172950205Y-71918126D01*
X173202084Y-71311534D01*
X173202657Y-70654726D01*
X172951837Y-70047694D01*
X172487808Y-69582855D01*
X171881216Y-69330976D01*
X171224408Y-69330403D01*
X170617376Y-69581223D01*
X170152537Y-70045252D01*
X169900658Y-70651844D01*
X169900085Y-71308652D01*
X170150905Y-71915684D01*
X170614934Y-72380523D01*
X170791371Y-72453786D01*
X170791371Y-83733459D01*
X170684608Y-83777572D01*
X170421359Y-84040362D01*
X170322551Y-84278317D01*
X170322551Y-80307152D01*
X170354743Y-80275016D01*
X170497389Y-79931488D01*
X170497713Y-79559522D01*
X170355668Y-79215746D01*
X170092878Y-78952497D01*
X169749350Y-78809851D01*
X169377384Y-78809527D01*
X169033608Y-78951572D01*
X168770359Y-79214362D01*
X168627713Y-79557890D01*
X168627389Y-79929856D01*
X168769434Y-80273632D01*
X168802551Y-80306807D01*
X168802551Y-81378586D01*
X168733350Y-81349851D01*
X168657810Y-81349785D01*
X168719389Y-81201488D01*
X168719713Y-80829522D01*
X168577668Y-80485746D01*
X168314878Y-80222497D01*
X167971350Y-80079851D01*
X167599384Y-80079527D01*
X167255608Y-80221572D01*
X166992359Y-80484362D01*
X166849713Y-80827890D01*
X166849389Y-81199856D01*
X166991434Y-81543632D01*
X167024551Y-81576807D01*
X167024551Y-94669887D01*
X164850650Y-96843788D01*
X164551384Y-96843527D01*
X164353551Y-96925270D01*
X164353551Y-84697689D01*
X164295699Y-84406850D01*
X164130952Y-84160288D01*
X162877673Y-82907009D01*
X162877713Y-82861522D01*
X162735668Y-82517746D01*
X162472878Y-82254497D01*
X162129350Y-82111851D01*
X161757384Y-82111527D01*
X161413608Y-82253572D01*
X161150359Y-82516362D01*
X161007713Y-82859890D01*
X161007389Y-83231856D01*
X161149434Y-83575632D01*
X161412224Y-83838881D01*
X161755752Y-83981527D01*
X161802628Y-83981568D01*
X162833551Y-85012491D01*
X162833551Y-94303690D01*
X162646384Y-94303527D01*
X162302608Y-94445572D01*
X162260207Y-94487899D01*
X162218878Y-94446497D01*
X161875350Y-94303851D01*
X161503384Y-94303527D01*
X161159608Y-94445572D01*
X160896359Y-94708362D01*
X160753713Y-95051890D01*
X160753672Y-95098766D01*
X157595150Y-98257288D01*
X157430403Y-98503850D01*
X157372551Y-98794689D01*
X157372551Y-101788226D01*
X157340359Y-101820362D01*
X157197713Y-102163890D01*
X157197389Y-102535856D01*
X155667551Y-102535856D01*
X155667551Y-87821325D01*
X155912930Y-87923215D01*
X156539424Y-87923762D01*
X157118438Y-87684518D01*
X157561823Y-87241906D01*
X157802077Y-86663310D01*
X157802624Y-86036816D01*
X157563380Y-85457802D01*
X157184655Y-85078416D01*
X157561823Y-84701906D01*
X157802077Y-84123310D01*
X157802624Y-83496816D01*
X157563380Y-82917802D01*
X157184655Y-82538416D01*
X157561823Y-82161906D01*
X157802077Y-81583310D01*
X157802624Y-80956816D01*
X157563380Y-80377802D01*
X157184655Y-79998416D01*
X157561823Y-79621906D01*
X157802077Y-79043310D01*
X157802624Y-78416816D01*
X157563380Y-77837802D01*
X157184655Y-77458416D01*
X157561823Y-77081906D01*
X157802077Y-76503310D01*
X157802624Y-75876816D01*
X157563380Y-75297802D01*
X157184655Y-74918416D01*
X157561823Y-74541906D01*
X157802077Y-73963310D01*
X157802624Y-73336816D01*
X157563380Y-72757802D01*
X157120768Y-72314417D01*
X156542172Y-72074163D01*
X155915678Y-72073616D01*
X155667551Y-72176140D01*
X155667551Y-71308652D01*
X159402265Y-71308652D01*
X159653085Y-71915684D01*
X160117114Y-72380523D01*
X160723706Y-72632402D01*
X161380514Y-72632975D01*
X161987546Y-72382155D01*
X162452385Y-71918126D01*
X162704264Y-71311534D01*
X162704266Y-71308652D01*
X162899845Y-71308652D01*
X163150665Y-71915684D01*
X163614694Y-72380523D01*
X164221286Y-72632402D01*
X164878094Y-72632975D01*
X165485126Y-72382155D01*
X165949965Y-71918126D01*
X166201844Y-71311534D01*
X166201882Y-71267439D01*
X166400251Y-71267439D01*
X166400251Y-72123999D01*
X166496924Y-72357388D01*
X166675553Y-72536016D01*
X166908942Y-72632689D01*
X167765501Y-72632689D01*
X167924251Y-72473939D01*
X167924251Y-71108689D01*
X168178251Y-71108689D01*
X168178251Y-72473939D01*
X168337001Y-72632689D01*
X169193560Y-72632689D01*
X169426949Y-72536016D01*
X169605578Y-72357388D01*
X169702251Y-72123999D01*
X169702251Y-71267439D01*
X169543501Y-71108689D01*
X168178251Y-71108689D01*
X167924251Y-71108689D01*
X166559001Y-71108689D01*
X166400251Y-71267439D01*
X166201882Y-71267439D01*
X166202417Y-70654726D01*
X165951597Y-70047694D01*
X165743645Y-69839379D01*
X166400251Y-69839379D01*
X166400251Y-70695939D01*
X166559001Y-70854689D01*
X167924251Y-70854689D01*
X167924251Y-69489439D01*
X168178251Y-69489439D01*
X168178251Y-70854689D01*
X169543501Y-70854689D01*
X169702251Y-70695939D01*
X169702251Y-69839379D01*
X169605578Y-69605990D01*
X169426949Y-69427362D01*
X169193560Y-69330689D01*
X168337001Y-69330689D01*
X168178251Y-69489439D01*
X167924251Y-69489439D01*
X167765501Y-69330689D01*
X166908942Y-69330689D01*
X166675553Y-69427362D01*
X166496924Y-69605990D01*
X166400251Y-69839379D01*
X165743645Y-69839379D01*
X165487568Y-69582855D01*
X164880976Y-69330976D01*
X164224168Y-69330403D01*
X163617136Y-69581223D01*
X163152297Y-70045252D01*
X162900418Y-70651844D01*
X162899845Y-71308652D01*
X162704266Y-71308652D01*
X162704837Y-70654726D01*
X162454017Y-70047694D01*
X161989988Y-69582855D01*
X161383396Y-69330976D01*
X160726588Y-69330403D01*
X160119556Y-69581223D01*
X159654717Y-70045252D01*
X159402838Y-70651844D01*
X159402265Y-71308652D01*
X155667551Y-71308652D01*
X155667551Y-66230689D01*
X177107551Y-66230689D01*
X177107551Y-72176053D01*
X177107551Y-72176053D01*
G37*
X177107551Y-72176053D02*
X176862172Y-72074163D01*
X176235678Y-72073616D01*
X175656664Y-72312860D01*
X175213279Y-72755472D01*
X174973025Y-73334068D01*
X174972478Y-73960562D01*
X175211722Y-74539576D01*
X175590447Y-74918962D01*
X175213279Y-75295472D01*
X174973025Y-75874068D01*
X174972478Y-76500562D01*
X175211722Y-77079576D01*
X175590447Y-77458962D01*
X175213279Y-77835472D01*
X174973025Y-78414068D01*
X174972478Y-79040562D01*
X175211722Y-79619576D01*
X175590447Y-79998962D01*
X175213279Y-80375472D01*
X174973025Y-80954068D01*
X174972478Y-81580562D01*
X175211722Y-82159576D01*
X175590447Y-82538962D01*
X175213279Y-82915472D01*
X174973025Y-83494068D01*
X174972478Y-84120562D01*
X175211722Y-84699576D01*
X175590447Y-85078962D01*
X175213279Y-85455472D01*
X174973025Y-86034068D01*
X174972478Y-86660562D01*
X175211722Y-87239576D01*
X175654334Y-87682961D01*
X176232930Y-87923215D01*
X176859424Y-87923762D01*
X177107551Y-87821238D01*
X177107551Y-113832689D01*
X168516953Y-113832689D01*
X168567494Y-113811806D01*
X168830743Y-113549016D01*
X168973389Y-113205488D01*
X168973713Y-112833522D01*
X168831668Y-112489746D01*
X168568878Y-112226497D01*
X168225350Y-112083851D01*
X167853384Y-112083527D01*
X167509608Y-112225572D01*
X167476433Y-112258689D01*
X161495353Y-112258689D01*
X158445353Y-109208689D01*
X159082353Y-108571689D01*
X161126088Y-108571689D01*
X161158224Y-108603881D01*
X161501752Y-108746527D01*
X161873718Y-108746851D01*
X162217494Y-108604806D01*
X162480743Y-108342016D01*
X162623389Y-107998488D01*
X162623713Y-107626522D01*
X162481668Y-107282746D01*
X162218878Y-107019497D01*
X161875350Y-106876851D01*
X161503384Y-106876527D01*
X161159608Y-107018572D01*
X161126433Y-107051689D01*
X158767551Y-107051689D01*
X158476711Y-107109541D01*
X158230150Y-107274288D01*
X157230871Y-108273567D01*
X157185384Y-108273527D01*
X156841608Y-108415572D01*
X156578359Y-108678362D01*
X156435713Y-109021890D01*
X156435389Y-109393856D01*
X156577434Y-109737632D01*
X156840224Y-110000881D01*
X157183752Y-110143527D01*
X157230628Y-110143568D01*
X160643150Y-113556090D01*
X160889712Y-113720837D01*
X161180551Y-113778689D01*
X167476088Y-113778689D01*
X167508224Y-113810881D01*
X167560743Y-113832689D01*
X155667551Y-113832689D01*
X155667551Y-102535856D01*
X157197389Y-102535856D01*
X157339434Y-102879632D01*
X157602224Y-103142881D01*
X157945752Y-103285527D01*
X158317718Y-103285851D01*
X158661494Y-103143806D01*
X158924743Y-102881016D01*
X159067389Y-102537488D01*
X159067713Y-102165522D01*
X158925668Y-101821746D01*
X158892551Y-101788571D01*
X158892551Y-99109491D01*
X159404551Y-98597491D01*
X159404551Y-101788226D01*
X159372359Y-101820362D01*
X159229713Y-102163890D01*
X159229389Y-102535856D01*
X159371434Y-102879632D01*
X159634224Y-103142881D01*
X159977752Y-103285527D01*
X160349718Y-103285851D01*
X160693494Y-103143806D01*
X160956743Y-102881016D01*
X161099389Y-102537488D01*
X161099713Y-102165522D01*
X160957668Y-101821746D01*
X160924551Y-101788571D01*
X160924551Y-98220491D01*
X162833551Y-96311491D01*
X162833551Y-106076953D01*
X162891403Y-106367792D01*
X163056150Y-106614354D01*
X164155886Y-107714090D01*
X164402448Y-107878837D01*
X164520847Y-107902388D01*
X164587224Y-107968881D01*
X164930752Y-108111527D01*
X165302718Y-108111851D01*
X165646494Y-107969806D01*
X165909743Y-107707016D01*
X166052389Y-107363488D01*
X166052713Y-106991522D01*
X165910668Y-106647746D01*
X165647878Y-106384497D01*
X165304350Y-106241851D01*
X164932384Y-106241527D01*
X164862006Y-106270606D01*
X164353551Y-105762151D01*
X164353551Y-103671022D01*
X164460224Y-103777881D01*
X164803752Y-103920527D01*
X165175718Y-103920851D01*
X165519494Y-103778806D01*
X165552669Y-103745689D01*
X166897551Y-103745689D01*
X166897551Y-106668689D01*
X166955403Y-106959528D01*
X167120150Y-107206090D01*
X168881429Y-108967369D01*
X168881389Y-109012856D01*
X169023434Y-109356632D01*
X169286224Y-109619881D01*
X169629752Y-109762527D01*
X170001718Y-109762851D01*
X170345494Y-109620806D01*
X170608743Y-109358016D01*
X170751389Y-109014488D01*
X170751713Y-108642522D01*
X170609668Y-108298746D01*
X170346878Y-108035497D01*
X170003350Y-107892851D01*
X169956474Y-107892810D01*
X168417551Y-106353887D01*
X168417551Y-103300491D01*
X169956231Y-101761811D01*
X170001718Y-101761851D01*
X170345494Y-101619806D01*
X170608743Y-101357016D01*
X170751389Y-101013488D01*
X170751713Y-100641522D01*
X170609668Y-100297746D01*
X170346878Y-100034497D01*
X170003350Y-99891851D01*
X169631384Y-99891527D01*
X169287608Y-100033572D01*
X169024359Y-100296362D01*
X168881713Y-100639890D01*
X168881672Y-100686766D01*
X167342749Y-102225689D01*
X165553014Y-102225689D01*
X165520878Y-102193497D01*
X165177350Y-102050851D01*
X164805384Y-102050527D01*
X164461608Y-102192572D01*
X164353551Y-102300441D01*
X164353551Y-98632057D01*
X164549752Y-98713527D01*
X164921718Y-98713851D01*
X165265494Y-98571806D01*
X165508913Y-98328811D01*
X165527952Y-98316090D01*
X166390892Y-97453150D01*
X166619224Y-97681881D01*
X166751593Y-97736845D01*
X166374871Y-98113567D01*
X166329384Y-98113527D01*
X165985608Y-98255572D01*
X165722359Y-98518362D01*
X165579713Y-98861890D01*
X165579389Y-99233856D01*
X165721434Y-99577632D01*
X165984224Y-99840881D01*
X166327752Y-99983527D01*
X166699718Y-99983851D01*
X167043494Y-99841806D01*
X167306743Y-99579016D01*
X167449389Y-99235488D01*
X167449430Y-99188612D01*
X170099952Y-96538090D01*
X170264699Y-96291528D01*
X170322551Y-96000689D01*
X170322551Y-84862736D01*
X170420434Y-85099632D01*
X170683224Y-85362881D01*
X171026752Y-85505527D01*
X171398718Y-85505851D01*
X171742494Y-85363806D01*
X172005743Y-85101016D01*
X172148389Y-84757488D01*
X172148456Y-84680947D01*
X172253519Y-84523708D01*
X172311371Y-84232869D01*
X172311371Y-72454048D01*
X172485366Y-72382155D01*
X172950205Y-71918126D01*
X173202084Y-71311534D01*
X173202657Y-70654726D01*
X172951837Y-70047694D01*
X172487808Y-69582855D01*
X171881216Y-69330976D01*
X171224408Y-69330403D01*
X170617376Y-69581223D01*
X170152537Y-70045252D01*
X169900658Y-70651844D01*
X169900085Y-71308652D01*
X170150905Y-71915684D01*
X170614934Y-72380523D01*
X170791371Y-72453786D01*
X170791371Y-83733459D01*
X170684608Y-83777572D01*
X170421359Y-84040362D01*
X170322551Y-84278317D01*
X170322551Y-80307152D01*
X170354743Y-80275016D01*
X170497389Y-79931488D01*
X170497713Y-79559522D01*
X170355668Y-79215746D01*
X170092878Y-78952497D01*
X169749350Y-78809851D01*
X169377384Y-78809527D01*
X169033608Y-78951572D01*
X168770359Y-79214362D01*
X168627713Y-79557890D01*
X168627389Y-79929856D01*
X168769434Y-80273632D01*
X168802551Y-80306807D01*
X168802551Y-81378586D01*
X168733350Y-81349851D01*
X168657810Y-81349785D01*
X168719389Y-81201488D01*
X168719713Y-80829522D01*
X168577668Y-80485746D01*
X168314878Y-80222497D01*
X167971350Y-80079851D01*
X167599384Y-80079527D01*
X167255608Y-80221572D01*
X166992359Y-80484362D01*
X166849713Y-80827890D01*
X166849389Y-81199856D01*
X166991434Y-81543632D01*
X167024551Y-81576807D01*
X167024551Y-94669887D01*
X164850650Y-96843788D01*
X164551384Y-96843527D01*
X164353551Y-96925270D01*
X164353551Y-84697689D01*
X164295699Y-84406850D01*
X164130952Y-84160288D01*
X162877673Y-82907009D01*
X162877713Y-82861522D01*
X162735668Y-82517746D01*
X162472878Y-82254497D01*
X162129350Y-82111851D01*
X161757384Y-82111527D01*
X161413608Y-82253572D01*
X161150359Y-82516362D01*
X161007713Y-82859890D01*
X161007389Y-83231856D01*
X161149434Y-83575632D01*
X161412224Y-83838881D01*
X161755752Y-83981527D01*
X161802628Y-83981568D01*
X162833551Y-85012491D01*
X162833551Y-94303690D01*
X162646384Y-94303527D01*
X162302608Y-94445572D01*
X162260207Y-94487899D01*
X162218878Y-94446497D01*
X161875350Y-94303851D01*
X161503384Y-94303527D01*
X161159608Y-94445572D01*
X160896359Y-94708362D01*
X160753713Y-95051890D01*
X160753672Y-95098766D01*
X157595150Y-98257288D01*
X157430403Y-98503850D01*
X157372551Y-98794689D01*
X157372551Y-101788226D01*
X157340359Y-101820362D01*
X157197713Y-102163890D01*
X157197389Y-102535856D01*
X155667551Y-102535856D01*
X155667551Y-87821325D01*
X155912930Y-87923215D01*
X156539424Y-87923762D01*
X157118438Y-87684518D01*
X157561823Y-87241906D01*
X157802077Y-86663310D01*
X157802624Y-86036816D01*
X157563380Y-85457802D01*
X157184655Y-85078416D01*
X157561823Y-84701906D01*
X157802077Y-84123310D01*
X157802624Y-83496816D01*
X157563380Y-82917802D01*
X157184655Y-82538416D01*
X157561823Y-82161906D01*
X157802077Y-81583310D01*
X157802624Y-80956816D01*
X157563380Y-80377802D01*
X157184655Y-79998416D01*
X157561823Y-79621906D01*
X157802077Y-79043310D01*
X157802624Y-78416816D01*
X157563380Y-77837802D01*
X157184655Y-77458416D01*
X157561823Y-77081906D01*
X157802077Y-76503310D01*
X157802624Y-75876816D01*
X157563380Y-75297802D01*
X157184655Y-74918416D01*
X157561823Y-74541906D01*
X157802077Y-73963310D01*
X157802624Y-73336816D01*
X157563380Y-72757802D01*
X157120768Y-72314417D01*
X156542172Y-72074163D01*
X155915678Y-72073616D01*
X155667551Y-72176140D01*
X155667551Y-71308652D01*
X159402265Y-71308652D01*
X159653085Y-71915684D01*
X160117114Y-72380523D01*
X160723706Y-72632402D01*
X161380514Y-72632975D01*
X161987546Y-72382155D01*
X162452385Y-71918126D01*
X162704264Y-71311534D01*
X162704266Y-71308652D01*
X162899845Y-71308652D01*
X163150665Y-71915684D01*
X163614694Y-72380523D01*
X164221286Y-72632402D01*
X164878094Y-72632975D01*
X165485126Y-72382155D01*
X165949965Y-71918126D01*
X166201844Y-71311534D01*
X166201882Y-71267439D01*
X166400251Y-71267439D01*
X166400251Y-72123999D01*
X166496924Y-72357388D01*
X166675553Y-72536016D01*
X166908942Y-72632689D01*
X167765501Y-72632689D01*
X167924251Y-72473939D01*
X167924251Y-71108689D01*
X168178251Y-71108689D01*
X168178251Y-72473939D01*
X168337001Y-72632689D01*
X169193560Y-72632689D01*
X169426949Y-72536016D01*
X169605578Y-72357388D01*
X169702251Y-72123999D01*
X169702251Y-71267439D01*
X169543501Y-71108689D01*
X168178251Y-71108689D01*
X167924251Y-71108689D01*
X166559001Y-71108689D01*
X166400251Y-71267439D01*
X166201882Y-71267439D01*
X166202417Y-70654726D01*
X165951597Y-70047694D01*
X165743645Y-69839379D01*
X166400251Y-69839379D01*
X166400251Y-70695939D01*
X166559001Y-70854689D01*
X167924251Y-70854689D01*
X167924251Y-69489439D01*
X168178251Y-69489439D01*
X168178251Y-70854689D01*
X169543501Y-70854689D01*
X169702251Y-70695939D01*
X169702251Y-69839379D01*
X169605578Y-69605990D01*
X169426949Y-69427362D01*
X169193560Y-69330689D01*
X168337001Y-69330689D01*
X168178251Y-69489439D01*
X167924251Y-69489439D01*
X167765501Y-69330689D01*
X166908942Y-69330689D01*
X166675553Y-69427362D01*
X166496924Y-69605990D01*
X166400251Y-69839379D01*
X165743645Y-69839379D01*
X165487568Y-69582855D01*
X164880976Y-69330976D01*
X164224168Y-69330403D01*
X163617136Y-69581223D01*
X163152297Y-70045252D01*
X162900418Y-70651844D01*
X162899845Y-71308652D01*
X162704266Y-71308652D01*
X162704837Y-70654726D01*
X162454017Y-70047694D01*
X161989988Y-69582855D01*
X161383396Y-69330976D01*
X160726588Y-69330403D01*
X160119556Y-69581223D01*
X159654717Y-70045252D01*
X159402838Y-70651844D01*
X159402265Y-71308652D01*
X155667551Y-71308652D01*
X155667551Y-66230689D01*
X177107551Y-66230689D01*
X177107551Y-72176053D01*
G36*
X202507551Y-72176053D02*
X202262172Y-72074163D01*
X201635678Y-72073616D01*
X201056664Y-72312860D01*
X200613279Y-72755472D01*
X200373025Y-73334068D01*
X200372478Y-73960562D01*
X200611722Y-74539576D01*
X200990447Y-74918962D01*
X200613279Y-75295472D01*
X200373025Y-75874068D01*
X200372478Y-76500562D01*
X200611722Y-77079576D01*
X200990447Y-77458962D01*
X200613279Y-77835472D01*
X200373025Y-78414068D01*
X200372478Y-79040562D01*
X200611722Y-79619576D01*
X200990447Y-79998962D01*
X200613279Y-80375472D01*
X200373025Y-80954068D01*
X200372478Y-81580562D01*
X200611722Y-82159576D01*
X200990447Y-82538962D01*
X200613279Y-82915472D01*
X200373025Y-83494068D01*
X200372478Y-84120562D01*
X200611722Y-84699576D01*
X200990447Y-85078962D01*
X200613279Y-85455472D01*
X200373025Y-86034068D01*
X200372478Y-86660562D01*
X200611722Y-87239576D01*
X201054334Y-87682961D01*
X201632930Y-87923215D01*
X202259424Y-87923762D01*
X202507551Y-87821238D01*
X202507551Y-113832689D01*
X193916953Y-113832689D01*
X193967494Y-113811806D01*
X194230743Y-113549016D01*
X194373389Y-113205488D01*
X194373713Y-112833522D01*
X194231668Y-112489746D01*
X193968878Y-112226497D01*
X193625350Y-112083851D01*
X193253384Y-112083527D01*
X192909608Y-112225572D01*
X192876433Y-112258689D01*
X186895353Y-112258689D01*
X183845353Y-109208689D01*
X184482353Y-108571689D01*
X186526088Y-108571689D01*
X186558224Y-108603881D01*
X186901752Y-108746527D01*
X187273718Y-108746851D01*
X187617494Y-108604806D01*
X187880743Y-108342016D01*
X188023389Y-107998488D01*
X188023713Y-107626522D01*
X187881668Y-107282746D01*
X187618878Y-107019497D01*
X187275350Y-106876851D01*
X186903384Y-106876527D01*
X186559608Y-107018572D01*
X186526433Y-107051689D01*
X184167551Y-107051689D01*
X183876711Y-107109541D01*
X183630150Y-107274288D01*
X182630871Y-108273567D01*
X182585384Y-108273527D01*
X182241608Y-108415572D01*
X181978359Y-108678362D01*
X181835713Y-109021890D01*
X181835389Y-109393856D01*
X181977434Y-109737632D01*
X182240224Y-110000881D01*
X182583752Y-110143527D01*
X182630628Y-110143568D01*
X186043150Y-113556090D01*
X186289712Y-113720837D01*
X186580551Y-113778689D01*
X192876088Y-113778689D01*
X192908224Y-113810881D01*
X192960743Y-113832689D01*
X181067551Y-113832689D01*
X181067551Y-102535856D01*
X182597389Y-102535856D01*
X182739434Y-102879632D01*
X183002224Y-103142881D01*
X183345752Y-103285527D01*
X183717718Y-103285851D01*
X184061494Y-103143806D01*
X184324743Y-102881016D01*
X184467389Y-102537488D01*
X184467713Y-102165522D01*
X184325668Y-101821746D01*
X184292551Y-101788571D01*
X184292551Y-99109491D01*
X184804551Y-98597491D01*
X184804551Y-101788226D01*
X184772359Y-101820362D01*
X184629713Y-102163890D01*
X184629389Y-102535856D01*
X184771434Y-102879632D01*
X185034224Y-103142881D01*
X185377752Y-103285527D01*
X185749718Y-103285851D01*
X186093494Y-103143806D01*
X186356743Y-102881016D01*
X186499389Y-102537488D01*
X186499713Y-102165522D01*
X186357668Y-101821746D01*
X186324551Y-101788571D01*
X186324551Y-98220491D01*
X188233551Y-96311491D01*
X188233551Y-106076953D01*
X188291403Y-106367792D01*
X188456150Y-106614354D01*
X189555886Y-107714090D01*
X189802448Y-107878837D01*
X189920847Y-107902388D01*
X189987224Y-107968881D01*
X190330752Y-108111527D01*
X190702718Y-108111851D01*
X191046494Y-107969806D01*
X191309743Y-107707016D01*
X191452389Y-107363488D01*
X191452713Y-106991522D01*
X191310668Y-106647746D01*
X191047878Y-106384497D01*
X190704350Y-106241851D01*
X190332384Y-106241527D01*
X190262006Y-106270606D01*
X189753551Y-105762151D01*
X189753551Y-103671022D01*
X189860224Y-103777881D01*
X190203752Y-103920527D01*
X190575718Y-103920851D01*
X190919494Y-103778806D01*
X190952669Y-103745689D01*
X192297551Y-103745689D01*
X192297551Y-106668689D01*
X192355403Y-106959528D01*
X192520150Y-107206090D01*
X194281429Y-108967369D01*
X194281389Y-109012856D01*
X194423434Y-109356632D01*
X194686224Y-109619881D01*
X195029752Y-109762527D01*
X195401718Y-109762851D01*
X195745494Y-109620806D01*
X196008743Y-109358016D01*
X196151389Y-109014488D01*
X196151713Y-108642522D01*
X196009668Y-108298746D01*
X195746878Y-108035497D01*
X195403350Y-107892851D01*
X195356474Y-107892810D01*
X193817551Y-106353887D01*
X193817551Y-103300491D01*
X195356231Y-101761811D01*
X195401718Y-101761851D01*
X195745494Y-101619806D01*
X196008743Y-101357016D01*
X196151389Y-101013488D01*
X196151713Y-100641522D01*
X196009668Y-100297746D01*
X195746878Y-100034497D01*
X195403350Y-99891851D01*
X195031384Y-99891527D01*
X194687608Y-100033572D01*
X194424359Y-100296362D01*
X194281713Y-100639890D01*
X194281672Y-100686766D01*
X192742749Y-102225689D01*
X190953014Y-102225689D01*
X190920878Y-102193497D01*
X190577350Y-102050851D01*
X190205384Y-102050527D01*
X189861608Y-102192572D01*
X189753551Y-102300441D01*
X189753551Y-98632057D01*
X189949752Y-98713527D01*
X190321718Y-98713851D01*
X190665494Y-98571806D01*
X190908913Y-98328811D01*
X190927952Y-98316090D01*
X191790892Y-97453150D01*
X192019224Y-97681881D01*
X192151593Y-97736845D01*
X191774871Y-98113567D01*
X191729384Y-98113527D01*
X191385608Y-98255572D01*
X191122359Y-98518362D01*
X190979713Y-98861890D01*
X190979389Y-99233856D01*
X191121434Y-99577632D01*
X191384224Y-99840881D01*
X191727752Y-99983527D01*
X192099718Y-99983851D01*
X192443494Y-99841806D01*
X192706743Y-99579016D01*
X192849389Y-99235488D01*
X192849430Y-99188612D01*
X195499952Y-96538090D01*
X195664699Y-96291528D01*
X195722551Y-96000689D01*
X195722551Y-84862736D01*
X195820434Y-85099632D01*
X196083224Y-85362881D01*
X196426752Y-85505527D01*
X196798718Y-85505851D01*
X197142494Y-85363806D01*
X197405743Y-85101016D01*
X197548389Y-84757488D01*
X197548456Y-84680947D01*
X197653519Y-84523708D01*
X197711371Y-84232869D01*
X197711371Y-72454048D01*
X197885366Y-72382155D01*
X198350205Y-71918126D01*
X198602084Y-71311534D01*
X198602657Y-70654726D01*
X198351837Y-70047694D01*
X197887808Y-69582855D01*
X197281216Y-69330976D01*
X196624408Y-69330403D01*
X196017376Y-69581223D01*
X195552537Y-70045252D01*
X195300658Y-70651844D01*
X195300085Y-71308652D01*
X195550905Y-71915684D01*
X196014934Y-72380523D01*
X196191371Y-72453786D01*
X196191371Y-83733459D01*
X196084608Y-83777572D01*
X195821359Y-84040362D01*
X195722551Y-84278317D01*
X195722551Y-80307152D01*
X195754743Y-80275016D01*
X195897389Y-79931488D01*
X195897713Y-79559522D01*
X195755668Y-79215746D01*
X195492878Y-78952497D01*
X195149350Y-78809851D01*
X194777384Y-78809527D01*
X194433608Y-78951572D01*
X194170359Y-79214362D01*
X194027713Y-79557890D01*
X194027389Y-79929856D01*
X194169434Y-80273632D01*
X194202551Y-80306807D01*
X194202551Y-81378586D01*
X194133350Y-81349851D01*
X194057810Y-81349785D01*
X194119389Y-81201488D01*
X194119713Y-80829522D01*
X193977668Y-80485746D01*
X193714878Y-80222497D01*
X193371350Y-80079851D01*
X192999384Y-80079527D01*
X192655608Y-80221572D01*
X192392359Y-80484362D01*
X192249713Y-80827890D01*
X192249389Y-81199856D01*
X192391434Y-81543632D01*
X192424551Y-81576807D01*
X192424551Y-94669887D01*
X190250650Y-96843788D01*
X189951384Y-96843527D01*
X189753551Y-96925270D01*
X189753551Y-84697689D01*
X189695699Y-84406850D01*
X189530952Y-84160288D01*
X188277673Y-82907009D01*
X188277713Y-82861522D01*
X188135668Y-82517746D01*
X187872878Y-82254497D01*
X187529350Y-82111851D01*
X187157384Y-82111527D01*
X186813608Y-82253572D01*
X186550359Y-82516362D01*
X186407713Y-82859890D01*
X186407389Y-83231856D01*
X186549434Y-83575632D01*
X186812224Y-83838881D01*
X187155752Y-83981527D01*
X187202628Y-83981568D01*
X188233551Y-85012491D01*
X188233551Y-94303690D01*
X188046384Y-94303527D01*
X187702608Y-94445572D01*
X187660207Y-94487899D01*
X187618878Y-94446497D01*
X187275350Y-94303851D01*
X186903384Y-94303527D01*
X186559608Y-94445572D01*
X186296359Y-94708362D01*
X186153713Y-95051890D01*
X186153672Y-95098766D01*
X182995150Y-98257288D01*
X182830403Y-98503850D01*
X182772551Y-98794689D01*
X182772551Y-101788226D01*
X182740359Y-101820362D01*
X182597713Y-102163890D01*
X182597389Y-102535856D01*
X181067551Y-102535856D01*
X181067551Y-87821325D01*
X181312930Y-87923215D01*
X181939424Y-87923762D01*
X182518438Y-87684518D01*
X182961823Y-87241906D01*
X183202077Y-86663310D01*
X183202624Y-86036816D01*
X182963380Y-85457802D01*
X182584655Y-85078416D01*
X182961823Y-84701906D01*
X183202077Y-84123310D01*
X183202624Y-83496816D01*
X182963380Y-82917802D01*
X182584655Y-82538416D01*
X182961823Y-82161906D01*
X183202077Y-81583310D01*
X183202624Y-80956816D01*
X182963380Y-80377802D01*
X182584655Y-79998416D01*
X182961823Y-79621906D01*
X183202077Y-79043310D01*
X183202624Y-78416816D01*
X182963380Y-77837802D01*
X182584655Y-77458416D01*
X182961823Y-77081906D01*
X183202077Y-76503310D01*
X183202624Y-75876816D01*
X182963380Y-75297802D01*
X182584655Y-74918416D01*
X182961823Y-74541906D01*
X183202077Y-73963310D01*
X183202624Y-73336816D01*
X182963380Y-72757802D01*
X182520768Y-72314417D01*
X181942172Y-72074163D01*
X181315678Y-72073616D01*
X181067551Y-72176140D01*
X181067551Y-71308652D01*
X184802265Y-71308652D01*
X185053085Y-71915684D01*
X185517114Y-72380523D01*
X186123706Y-72632402D01*
X186780514Y-72632975D01*
X187387546Y-72382155D01*
X187852385Y-71918126D01*
X188104264Y-71311534D01*
X188104266Y-71308652D01*
X188299845Y-71308652D01*
X188550665Y-71915684D01*
X189014694Y-72380523D01*
X189621286Y-72632402D01*
X190278094Y-72632975D01*
X190885126Y-72382155D01*
X191349965Y-71918126D01*
X191601844Y-71311534D01*
X191601882Y-71267439D01*
X191800251Y-71267439D01*
X191800251Y-72123999D01*
X191896924Y-72357388D01*
X192075553Y-72536016D01*
X192308942Y-72632689D01*
X193165501Y-72632689D01*
X193324251Y-72473939D01*
X193324251Y-71108689D01*
X193578251Y-71108689D01*
X193578251Y-72473939D01*
X193737001Y-72632689D01*
X194593560Y-72632689D01*
X194826949Y-72536016D01*
X195005578Y-72357388D01*
X195102251Y-72123999D01*
X195102251Y-71267439D01*
X194943501Y-71108689D01*
X193578251Y-71108689D01*
X193324251Y-71108689D01*
X191959001Y-71108689D01*
X191800251Y-71267439D01*
X191601882Y-71267439D01*
X191602417Y-70654726D01*
X191351597Y-70047694D01*
X191143645Y-69839379D01*
X191800251Y-69839379D01*
X191800251Y-70695939D01*
X191959001Y-70854689D01*
X193324251Y-70854689D01*
X193324251Y-69489439D01*
X193578251Y-69489439D01*
X193578251Y-70854689D01*
X194943501Y-70854689D01*
X195102251Y-70695939D01*
X195102251Y-69839379D01*
X195005578Y-69605990D01*
X194826949Y-69427362D01*
X194593560Y-69330689D01*
X193737001Y-69330689D01*
X193578251Y-69489439D01*
X193324251Y-69489439D01*
X193165501Y-69330689D01*
X192308942Y-69330689D01*
X192075553Y-69427362D01*
X191896924Y-69605990D01*
X191800251Y-69839379D01*
X191143645Y-69839379D01*
X190887568Y-69582855D01*
X190280976Y-69330976D01*
X189624168Y-69330403D01*
X189017136Y-69581223D01*
X188552297Y-70045252D01*
X188300418Y-70651844D01*
X188299845Y-71308652D01*
X188104266Y-71308652D01*
X188104837Y-70654726D01*
X187854017Y-70047694D01*
X187389988Y-69582855D01*
X186783396Y-69330976D01*
X186126588Y-69330403D01*
X185519556Y-69581223D01*
X185054717Y-70045252D01*
X184802838Y-70651844D01*
X184802265Y-71308652D01*
X181067551Y-71308652D01*
X181067551Y-66230689D01*
X202507551Y-66230689D01*
X202507551Y-72176053D01*
X202507551Y-72176053D01*
G37*
X202507551Y-72176053D02*
X202262172Y-72074163D01*
X201635678Y-72073616D01*
X201056664Y-72312860D01*
X200613279Y-72755472D01*
X200373025Y-73334068D01*
X200372478Y-73960562D01*
X200611722Y-74539576D01*
X200990447Y-74918962D01*
X200613279Y-75295472D01*
X200373025Y-75874068D01*
X200372478Y-76500562D01*
X200611722Y-77079576D01*
X200990447Y-77458962D01*
X200613279Y-77835472D01*
X200373025Y-78414068D01*
X200372478Y-79040562D01*
X200611722Y-79619576D01*
X200990447Y-79998962D01*
X200613279Y-80375472D01*
X200373025Y-80954068D01*
X200372478Y-81580562D01*
X200611722Y-82159576D01*
X200990447Y-82538962D01*
X200613279Y-82915472D01*
X200373025Y-83494068D01*
X200372478Y-84120562D01*
X200611722Y-84699576D01*
X200990447Y-85078962D01*
X200613279Y-85455472D01*
X200373025Y-86034068D01*
X200372478Y-86660562D01*
X200611722Y-87239576D01*
X201054334Y-87682961D01*
X201632930Y-87923215D01*
X202259424Y-87923762D01*
X202507551Y-87821238D01*
X202507551Y-113832689D01*
X193916953Y-113832689D01*
X193967494Y-113811806D01*
X194230743Y-113549016D01*
X194373389Y-113205488D01*
X194373713Y-112833522D01*
X194231668Y-112489746D01*
X193968878Y-112226497D01*
X193625350Y-112083851D01*
X193253384Y-112083527D01*
X192909608Y-112225572D01*
X192876433Y-112258689D01*
X186895353Y-112258689D01*
X183845353Y-109208689D01*
X184482353Y-108571689D01*
X186526088Y-108571689D01*
X186558224Y-108603881D01*
X186901752Y-108746527D01*
X187273718Y-108746851D01*
X187617494Y-108604806D01*
X187880743Y-108342016D01*
X188023389Y-107998488D01*
X188023713Y-107626522D01*
X187881668Y-107282746D01*
X187618878Y-107019497D01*
X187275350Y-106876851D01*
X186903384Y-106876527D01*
X186559608Y-107018572D01*
X186526433Y-107051689D01*
X184167551Y-107051689D01*
X183876711Y-107109541D01*
X183630150Y-107274288D01*
X182630871Y-108273567D01*
X182585384Y-108273527D01*
X182241608Y-108415572D01*
X181978359Y-108678362D01*
X181835713Y-109021890D01*
X181835389Y-109393856D01*
X181977434Y-109737632D01*
X182240224Y-110000881D01*
X182583752Y-110143527D01*
X182630628Y-110143568D01*
X186043150Y-113556090D01*
X186289712Y-113720837D01*
X186580551Y-113778689D01*
X192876088Y-113778689D01*
X192908224Y-113810881D01*
X192960743Y-113832689D01*
X181067551Y-113832689D01*
X181067551Y-102535856D01*
X182597389Y-102535856D01*
X182739434Y-102879632D01*
X183002224Y-103142881D01*
X183345752Y-103285527D01*
X183717718Y-103285851D01*
X184061494Y-103143806D01*
X184324743Y-102881016D01*
X184467389Y-102537488D01*
X184467713Y-102165522D01*
X184325668Y-101821746D01*
X184292551Y-101788571D01*
X184292551Y-99109491D01*
X184804551Y-98597491D01*
X184804551Y-101788226D01*
X184772359Y-101820362D01*
X184629713Y-102163890D01*
X184629389Y-102535856D01*
X184771434Y-102879632D01*
X185034224Y-103142881D01*
X185377752Y-103285527D01*
X185749718Y-103285851D01*
X186093494Y-103143806D01*
X186356743Y-102881016D01*
X186499389Y-102537488D01*
X186499713Y-102165522D01*
X186357668Y-101821746D01*
X186324551Y-101788571D01*
X186324551Y-98220491D01*
X188233551Y-96311491D01*
X188233551Y-106076953D01*
X188291403Y-106367792D01*
X188456150Y-106614354D01*
X189555886Y-107714090D01*
X189802448Y-107878837D01*
X189920847Y-107902388D01*
X189987224Y-107968881D01*
X190330752Y-108111527D01*
X190702718Y-108111851D01*
X191046494Y-107969806D01*
X191309743Y-107707016D01*
X191452389Y-107363488D01*
X191452713Y-106991522D01*
X191310668Y-106647746D01*
X191047878Y-106384497D01*
X190704350Y-106241851D01*
X190332384Y-106241527D01*
X190262006Y-106270606D01*
X189753551Y-105762151D01*
X189753551Y-103671022D01*
X189860224Y-103777881D01*
X190203752Y-103920527D01*
X190575718Y-103920851D01*
X190919494Y-103778806D01*
X190952669Y-103745689D01*
X192297551Y-103745689D01*
X192297551Y-106668689D01*
X192355403Y-106959528D01*
X192520150Y-107206090D01*
X194281429Y-108967369D01*
X194281389Y-109012856D01*
X194423434Y-109356632D01*
X194686224Y-109619881D01*
X195029752Y-109762527D01*
X195401718Y-109762851D01*
X195745494Y-109620806D01*
X196008743Y-109358016D01*
X196151389Y-109014488D01*
X196151713Y-108642522D01*
X196009668Y-108298746D01*
X195746878Y-108035497D01*
X195403350Y-107892851D01*
X195356474Y-107892810D01*
X193817551Y-106353887D01*
X193817551Y-103300491D01*
X195356231Y-101761811D01*
X195401718Y-101761851D01*
X195745494Y-101619806D01*
X196008743Y-101357016D01*
X196151389Y-101013488D01*
X196151713Y-100641522D01*
X196009668Y-100297746D01*
X195746878Y-100034497D01*
X195403350Y-99891851D01*
X195031384Y-99891527D01*
X194687608Y-100033572D01*
X194424359Y-100296362D01*
X194281713Y-100639890D01*
X194281672Y-100686766D01*
X192742749Y-102225689D01*
X190953014Y-102225689D01*
X190920878Y-102193497D01*
X190577350Y-102050851D01*
X190205384Y-102050527D01*
X189861608Y-102192572D01*
X189753551Y-102300441D01*
X189753551Y-98632057D01*
X189949752Y-98713527D01*
X190321718Y-98713851D01*
X190665494Y-98571806D01*
X190908913Y-98328811D01*
X190927952Y-98316090D01*
X191790892Y-97453150D01*
X192019224Y-97681881D01*
X192151593Y-97736845D01*
X191774871Y-98113567D01*
X191729384Y-98113527D01*
X191385608Y-98255572D01*
X191122359Y-98518362D01*
X190979713Y-98861890D01*
X190979389Y-99233856D01*
X191121434Y-99577632D01*
X191384224Y-99840881D01*
X191727752Y-99983527D01*
X192099718Y-99983851D01*
X192443494Y-99841806D01*
X192706743Y-99579016D01*
X192849389Y-99235488D01*
X192849430Y-99188612D01*
X195499952Y-96538090D01*
X195664699Y-96291528D01*
X195722551Y-96000689D01*
X195722551Y-84862736D01*
X195820434Y-85099632D01*
X196083224Y-85362881D01*
X196426752Y-85505527D01*
X196798718Y-85505851D01*
X197142494Y-85363806D01*
X197405743Y-85101016D01*
X197548389Y-84757488D01*
X197548456Y-84680947D01*
X197653519Y-84523708D01*
X197711371Y-84232869D01*
X197711371Y-72454048D01*
X197885366Y-72382155D01*
X198350205Y-71918126D01*
X198602084Y-71311534D01*
X198602657Y-70654726D01*
X198351837Y-70047694D01*
X197887808Y-69582855D01*
X197281216Y-69330976D01*
X196624408Y-69330403D01*
X196017376Y-69581223D01*
X195552537Y-70045252D01*
X195300658Y-70651844D01*
X195300085Y-71308652D01*
X195550905Y-71915684D01*
X196014934Y-72380523D01*
X196191371Y-72453786D01*
X196191371Y-83733459D01*
X196084608Y-83777572D01*
X195821359Y-84040362D01*
X195722551Y-84278317D01*
X195722551Y-80307152D01*
X195754743Y-80275016D01*
X195897389Y-79931488D01*
X195897713Y-79559522D01*
X195755668Y-79215746D01*
X195492878Y-78952497D01*
X195149350Y-78809851D01*
X194777384Y-78809527D01*
X194433608Y-78951572D01*
X194170359Y-79214362D01*
X194027713Y-79557890D01*
X194027389Y-79929856D01*
X194169434Y-80273632D01*
X194202551Y-80306807D01*
X194202551Y-81378586D01*
X194133350Y-81349851D01*
X194057810Y-81349785D01*
X194119389Y-81201488D01*
X194119713Y-80829522D01*
X193977668Y-80485746D01*
X193714878Y-80222497D01*
X193371350Y-80079851D01*
X192999384Y-80079527D01*
X192655608Y-80221572D01*
X192392359Y-80484362D01*
X192249713Y-80827890D01*
X192249389Y-81199856D01*
X192391434Y-81543632D01*
X192424551Y-81576807D01*
X192424551Y-94669887D01*
X190250650Y-96843788D01*
X189951384Y-96843527D01*
X189753551Y-96925270D01*
X189753551Y-84697689D01*
X189695699Y-84406850D01*
X189530952Y-84160288D01*
X188277673Y-82907009D01*
X188277713Y-82861522D01*
X188135668Y-82517746D01*
X187872878Y-82254497D01*
X187529350Y-82111851D01*
X187157384Y-82111527D01*
X186813608Y-82253572D01*
X186550359Y-82516362D01*
X186407713Y-82859890D01*
X186407389Y-83231856D01*
X186549434Y-83575632D01*
X186812224Y-83838881D01*
X187155752Y-83981527D01*
X187202628Y-83981568D01*
X188233551Y-85012491D01*
X188233551Y-94303690D01*
X188046384Y-94303527D01*
X187702608Y-94445572D01*
X187660207Y-94487899D01*
X187618878Y-94446497D01*
X187275350Y-94303851D01*
X186903384Y-94303527D01*
X186559608Y-94445572D01*
X186296359Y-94708362D01*
X186153713Y-95051890D01*
X186153672Y-95098766D01*
X182995150Y-98257288D01*
X182830403Y-98503850D01*
X182772551Y-98794689D01*
X182772551Y-101788226D01*
X182740359Y-101820362D01*
X182597713Y-102163890D01*
X182597389Y-102535856D01*
X181067551Y-102535856D01*
X181067551Y-87821325D01*
X181312930Y-87923215D01*
X181939424Y-87923762D01*
X182518438Y-87684518D01*
X182961823Y-87241906D01*
X183202077Y-86663310D01*
X183202624Y-86036816D01*
X182963380Y-85457802D01*
X182584655Y-85078416D01*
X182961823Y-84701906D01*
X183202077Y-84123310D01*
X183202624Y-83496816D01*
X182963380Y-82917802D01*
X182584655Y-82538416D01*
X182961823Y-82161906D01*
X183202077Y-81583310D01*
X183202624Y-80956816D01*
X182963380Y-80377802D01*
X182584655Y-79998416D01*
X182961823Y-79621906D01*
X183202077Y-79043310D01*
X183202624Y-78416816D01*
X182963380Y-77837802D01*
X182584655Y-77458416D01*
X182961823Y-77081906D01*
X183202077Y-76503310D01*
X183202624Y-75876816D01*
X182963380Y-75297802D01*
X182584655Y-74918416D01*
X182961823Y-74541906D01*
X183202077Y-73963310D01*
X183202624Y-73336816D01*
X182963380Y-72757802D01*
X182520768Y-72314417D01*
X181942172Y-72074163D01*
X181315678Y-72073616D01*
X181067551Y-72176140D01*
X181067551Y-71308652D01*
X184802265Y-71308652D01*
X185053085Y-71915684D01*
X185517114Y-72380523D01*
X186123706Y-72632402D01*
X186780514Y-72632975D01*
X187387546Y-72382155D01*
X187852385Y-71918126D01*
X188104264Y-71311534D01*
X188104266Y-71308652D01*
X188299845Y-71308652D01*
X188550665Y-71915684D01*
X189014694Y-72380523D01*
X189621286Y-72632402D01*
X190278094Y-72632975D01*
X190885126Y-72382155D01*
X191349965Y-71918126D01*
X191601844Y-71311534D01*
X191601882Y-71267439D01*
X191800251Y-71267439D01*
X191800251Y-72123999D01*
X191896924Y-72357388D01*
X192075553Y-72536016D01*
X192308942Y-72632689D01*
X193165501Y-72632689D01*
X193324251Y-72473939D01*
X193324251Y-71108689D01*
X193578251Y-71108689D01*
X193578251Y-72473939D01*
X193737001Y-72632689D01*
X194593560Y-72632689D01*
X194826949Y-72536016D01*
X195005578Y-72357388D01*
X195102251Y-72123999D01*
X195102251Y-71267439D01*
X194943501Y-71108689D01*
X193578251Y-71108689D01*
X193324251Y-71108689D01*
X191959001Y-71108689D01*
X191800251Y-71267439D01*
X191601882Y-71267439D01*
X191602417Y-70654726D01*
X191351597Y-70047694D01*
X191143645Y-69839379D01*
X191800251Y-69839379D01*
X191800251Y-70695939D01*
X191959001Y-70854689D01*
X193324251Y-70854689D01*
X193324251Y-69489439D01*
X193578251Y-69489439D01*
X193578251Y-70854689D01*
X194943501Y-70854689D01*
X195102251Y-70695939D01*
X195102251Y-69839379D01*
X195005578Y-69605990D01*
X194826949Y-69427362D01*
X194593560Y-69330689D01*
X193737001Y-69330689D01*
X193578251Y-69489439D01*
X193324251Y-69489439D01*
X193165501Y-69330689D01*
X192308942Y-69330689D01*
X192075553Y-69427362D01*
X191896924Y-69605990D01*
X191800251Y-69839379D01*
X191143645Y-69839379D01*
X190887568Y-69582855D01*
X190280976Y-69330976D01*
X189624168Y-69330403D01*
X189017136Y-69581223D01*
X188552297Y-70045252D01*
X188300418Y-70651844D01*
X188299845Y-71308652D01*
X188104266Y-71308652D01*
X188104837Y-70654726D01*
X187854017Y-70047694D01*
X187389988Y-69582855D01*
X186783396Y-69330976D01*
X186126588Y-69330403D01*
X185519556Y-69581223D01*
X185054717Y-70045252D01*
X184802838Y-70651844D01*
X184802265Y-71308652D01*
X181067551Y-71308652D01*
X181067551Y-66230689D01*
X202507551Y-66230689D01*
X202507551Y-72176053D01*
G36*
X227907551Y-72176053D02*
X227662172Y-72074163D01*
X227035678Y-72073616D01*
X226456664Y-72312860D01*
X226013279Y-72755472D01*
X225773025Y-73334068D01*
X225772478Y-73960562D01*
X226011722Y-74539576D01*
X226390447Y-74918962D01*
X226013279Y-75295472D01*
X225773025Y-75874068D01*
X225772478Y-76500562D01*
X226011722Y-77079576D01*
X226390447Y-77458962D01*
X226013279Y-77835472D01*
X225773025Y-78414068D01*
X225772478Y-79040562D01*
X226011722Y-79619576D01*
X226390447Y-79998962D01*
X226013279Y-80375472D01*
X225773025Y-80954068D01*
X225772478Y-81580562D01*
X226011722Y-82159576D01*
X226390447Y-82538962D01*
X226013279Y-82915472D01*
X225773025Y-83494068D01*
X225772478Y-84120562D01*
X226011722Y-84699576D01*
X226390447Y-85078962D01*
X226013279Y-85455472D01*
X225773025Y-86034068D01*
X225772478Y-86660562D01*
X226011722Y-87239576D01*
X226454334Y-87682961D01*
X227032930Y-87923215D01*
X227659424Y-87923762D01*
X227907551Y-87821238D01*
X227907551Y-113832689D01*
X219316953Y-113832689D01*
X219367494Y-113811806D01*
X219630743Y-113549016D01*
X219773389Y-113205488D01*
X219773713Y-112833522D01*
X219631668Y-112489746D01*
X219368878Y-112226497D01*
X219025350Y-112083851D01*
X218653384Y-112083527D01*
X218309608Y-112225572D01*
X218276433Y-112258689D01*
X212295353Y-112258689D01*
X209245353Y-109208689D01*
X209882353Y-108571689D01*
X211926088Y-108571689D01*
X211958224Y-108603881D01*
X212301752Y-108746527D01*
X212673718Y-108746851D01*
X213017494Y-108604806D01*
X213280743Y-108342016D01*
X213423389Y-107998488D01*
X213423713Y-107626522D01*
X213281668Y-107282746D01*
X213018878Y-107019497D01*
X212675350Y-106876851D01*
X212303384Y-106876527D01*
X211959608Y-107018572D01*
X211926433Y-107051689D01*
X209567551Y-107051689D01*
X209276711Y-107109541D01*
X209030150Y-107274288D01*
X208030871Y-108273567D01*
X207985384Y-108273527D01*
X207641608Y-108415572D01*
X207378359Y-108678362D01*
X207235713Y-109021890D01*
X207235389Y-109393856D01*
X207377434Y-109737632D01*
X207640224Y-110000881D01*
X207983752Y-110143527D01*
X208030628Y-110143568D01*
X211443150Y-113556090D01*
X211689712Y-113720837D01*
X211980551Y-113778689D01*
X218276088Y-113778689D01*
X218308224Y-113810881D01*
X218360743Y-113832689D01*
X206467551Y-113832689D01*
X206467551Y-102535856D01*
X207997389Y-102535856D01*
X208139434Y-102879632D01*
X208402224Y-103142881D01*
X208745752Y-103285527D01*
X209117718Y-103285851D01*
X209461494Y-103143806D01*
X209724743Y-102881016D01*
X209867389Y-102537488D01*
X209867713Y-102165522D01*
X209725668Y-101821746D01*
X209692551Y-101788571D01*
X209692551Y-99109491D01*
X210204551Y-98597491D01*
X210204551Y-101788226D01*
X210172359Y-101820362D01*
X210029713Y-102163890D01*
X210029389Y-102535856D01*
X210171434Y-102879632D01*
X210434224Y-103142881D01*
X210777752Y-103285527D01*
X211149718Y-103285851D01*
X211493494Y-103143806D01*
X211756743Y-102881016D01*
X211899389Y-102537488D01*
X211899713Y-102165522D01*
X211757668Y-101821746D01*
X211724551Y-101788571D01*
X211724551Y-98220491D01*
X213633551Y-96311491D01*
X213633551Y-106076953D01*
X213691403Y-106367792D01*
X213856150Y-106614354D01*
X214955886Y-107714090D01*
X215202448Y-107878837D01*
X215320847Y-107902388D01*
X215387224Y-107968881D01*
X215730752Y-108111527D01*
X216102718Y-108111851D01*
X216446494Y-107969806D01*
X216709743Y-107707016D01*
X216852389Y-107363488D01*
X216852713Y-106991522D01*
X216710668Y-106647746D01*
X216447878Y-106384497D01*
X216104350Y-106241851D01*
X215732384Y-106241527D01*
X215662006Y-106270606D01*
X215153551Y-105762151D01*
X215153551Y-103671022D01*
X215260224Y-103777881D01*
X215603752Y-103920527D01*
X215975718Y-103920851D01*
X216319494Y-103778806D01*
X216352669Y-103745689D01*
X217697551Y-103745689D01*
X217697551Y-106668689D01*
X217755403Y-106959528D01*
X217920150Y-107206090D01*
X219681429Y-108967369D01*
X219681389Y-109012856D01*
X219823434Y-109356632D01*
X220086224Y-109619881D01*
X220429752Y-109762527D01*
X220801718Y-109762851D01*
X221145494Y-109620806D01*
X221408743Y-109358016D01*
X221551389Y-109014488D01*
X221551713Y-108642522D01*
X221409668Y-108298746D01*
X221146878Y-108035497D01*
X220803350Y-107892851D01*
X220756474Y-107892810D01*
X219217551Y-106353887D01*
X219217551Y-103300491D01*
X220756231Y-101761811D01*
X220801718Y-101761851D01*
X221145494Y-101619806D01*
X221408743Y-101357016D01*
X221551389Y-101013488D01*
X221551713Y-100641522D01*
X221409668Y-100297746D01*
X221146878Y-100034497D01*
X220803350Y-99891851D01*
X220431384Y-99891527D01*
X220087608Y-100033572D01*
X219824359Y-100296362D01*
X219681713Y-100639890D01*
X219681672Y-100686766D01*
X218142749Y-102225689D01*
X216353014Y-102225689D01*
X216320878Y-102193497D01*
X215977350Y-102050851D01*
X215605384Y-102050527D01*
X215261608Y-102192572D01*
X215153551Y-102300441D01*
X215153551Y-98632057D01*
X215349752Y-98713527D01*
X215721718Y-98713851D01*
X216065494Y-98571806D01*
X216308913Y-98328811D01*
X216327952Y-98316090D01*
X217190892Y-97453150D01*
X217419224Y-97681881D01*
X217551593Y-97736845D01*
X217174871Y-98113567D01*
X217129384Y-98113527D01*
X216785608Y-98255572D01*
X216522359Y-98518362D01*
X216379713Y-98861890D01*
X216379389Y-99233856D01*
X216521434Y-99577632D01*
X216784224Y-99840881D01*
X217127752Y-99983527D01*
X217499718Y-99983851D01*
X217843494Y-99841806D01*
X218106743Y-99579016D01*
X218249389Y-99235488D01*
X218249430Y-99188612D01*
X220899952Y-96538090D01*
X221064699Y-96291528D01*
X221122551Y-96000689D01*
X221122551Y-84862736D01*
X221220434Y-85099632D01*
X221483224Y-85362881D01*
X221826752Y-85505527D01*
X222198718Y-85505851D01*
X222542494Y-85363806D01*
X222805743Y-85101016D01*
X222948389Y-84757488D01*
X222948456Y-84680947D01*
X223053519Y-84523708D01*
X223111371Y-84232869D01*
X223111371Y-72454048D01*
X223285366Y-72382155D01*
X223750205Y-71918126D01*
X224002084Y-71311534D01*
X224002657Y-70654726D01*
X223751837Y-70047694D01*
X223287808Y-69582855D01*
X222681216Y-69330976D01*
X222024408Y-69330403D01*
X221417376Y-69581223D01*
X220952537Y-70045252D01*
X220700658Y-70651844D01*
X220700085Y-71308652D01*
X220950905Y-71915684D01*
X221414934Y-72380523D01*
X221591371Y-72453786D01*
X221591371Y-83733459D01*
X221484608Y-83777572D01*
X221221359Y-84040362D01*
X221122551Y-84278317D01*
X221122551Y-80307152D01*
X221154743Y-80275016D01*
X221297389Y-79931488D01*
X221297713Y-79559522D01*
X221155668Y-79215746D01*
X220892878Y-78952497D01*
X220549350Y-78809851D01*
X220177384Y-78809527D01*
X219833608Y-78951572D01*
X219570359Y-79214362D01*
X219427713Y-79557890D01*
X219427389Y-79929856D01*
X219569434Y-80273632D01*
X219602551Y-80306807D01*
X219602551Y-81378586D01*
X219533350Y-81349851D01*
X219457810Y-81349785D01*
X219519389Y-81201488D01*
X219519713Y-80829522D01*
X219377668Y-80485746D01*
X219114878Y-80222497D01*
X218771350Y-80079851D01*
X218399384Y-80079527D01*
X218055608Y-80221572D01*
X217792359Y-80484362D01*
X217649713Y-80827890D01*
X217649389Y-81199856D01*
X217791434Y-81543632D01*
X217824551Y-81576807D01*
X217824551Y-94669887D01*
X215650650Y-96843788D01*
X215351384Y-96843527D01*
X215153551Y-96925270D01*
X215153551Y-84697689D01*
X215095699Y-84406850D01*
X214930952Y-84160288D01*
X213677673Y-82907009D01*
X213677713Y-82861522D01*
X213535668Y-82517746D01*
X213272878Y-82254497D01*
X212929350Y-82111851D01*
X212557384Y-82111527D01*
X212213608Y-82253572D01*
X211950359Y-82516362D01*
X211807713Y-82859890D01*
X211807389Y-83231856D01*
X211949434Y-83575632D01*
X212212224Y-83838881D01*
X212555752Y-83981527D01*
X212602628Y-83981568D01*
X213633551Y-85012491D01*
X213633551Y-94303690D01*
X213446384Y-94303527D01*
X213102608Y-94445572D01*
X213060207Y-94487899D01*
X213018878Y-94446497D01*
X212675350Y-94303851D01*
X212303384Y-94303527D01*
X211959608Y-94445572D01*
X211696359Y-94708362D01*
X211553713Y-95051890D01*
X211553672Y-95098766D01*
X208395150Y-98257288D01*
X208230403Y-98503850D01*
X208172551Y-98794689D01*
X208172551Y-101788226D01*
X208140359Y-101820362D01*
X207997713Y-102163890D01*
X207997389Y-102535856D01*
X206467551Y-102535856D01*
X206467551Y-87821325D01*
X206712930Y-87923215D01*
X207339424Y-87923762D01*
X207918438Y-87684518D01*
X208361823Y-87241906D01*
X208602077Y-86663310D01*
X208602624Y-86036816D01*
X208363380Y-85457802D01*
X207984655Y-85078416D01*
X208361823Y-84701906D01*
X208602077Y-84123310D01*
X208602624Y-83496816D01*
X208363380Y-82917802D01*
X207984655Y-82538416D01*
X208361823Y-82161906D01*
X208602077Y-81583310D01*
X208602624Y-80956816D01*
X208363380Y-80377802D01*
X207984655Y-79998416D01*
X208361823Y-79621906D01*
X208602077Y-79043310D01*
X208602624Y-78416816D01*
X208363380Y-77837802D01*
X207984655Y-77458416D01*
X208361823Y-77081906D01*
X208602077Y-76503310D01*
X208602624Y-75876816D01*
X208363380Y-75297802D01*
X207984655Y-74918416D01*
X208361823Y-74541906D01*
X208602077Y-73963310D01*
X208602624Y-73336816D01*
X208363380Y-72757802D01*
X207920768Y-72314417D01*
X207342172Y-72074163D01*
X206715678Y-72073616D01*
X206467551Y-72176140D01*
X206467551Y-71308652D01*
X210202265Y-71308652D01*
X210453085Y-71915684D01*
X210917114Y-72380523D01*
X211523706Y-72632402D01*
X212180514Y-72632975D01*
X212787546Y-72382155D01*
X213252385Y-71918126D01*
X213504264Y-71311534D01*
X213504266Y-71308652D01*
X213699845Y-71308652D01*
X213950665Y-71915684D01*
X214414694Y-72380523D01*
X215021286Y-72632402D01*
X215678094Y-72632975D01*
X216285126Y-72382155D01*
X216749965Y-71918126D01*
X217001844Y-71311534D01*
X217001882Y-71267439D01*
X217200251Y-71267439D01*
X217200251Y-72123999D01*
X217296924Y-72357388D01*
X217475553Y-72536016D01*
X217708942Y-72632689D01*
X218565501Y-72632689D01*
X218724251Y-72473939D01*
X218724251Y-71108689D01*
X218978251Y-71108689D01*
X218978251Y-72473939D01*
X219137001Y-72632689D01*
X219993560Y-72632689D01*
X220226949Y-72536016D01*
X220405578Y-72357388D01*
X220502251Y-72123999D01*
X220502251Y-71267439D01*
X220343501Y-71108689D01*
X218978251Y-71108689D01*
X218724251Y-71108689D01*
X217359001Y-71108689D01*
X217200251Y-71267439D01*
X217001882Y-71267439D01*
X217002417Y-70654726D01*
X216751597Y-70047694D01*
X216543645Y-69839379D01*
X217200251Y-69839379D01*
X217200251Y-70695939D01*
X217359001Y-70854689D01*
X218724251Y-70854689D01*
X218724251Y-69489439D01*
X218978251Y-69489439D01*
X218978251Y-70854689D01*
X220343501Y-70854689D01*
X220502251Y-70695939D01*
X220502251Y-69839379D01*
X220405578Y-69605990D01*
X220226949Y-69427362D01*
X219993560Y-69330689D01*
X219137001Y-69330689D01*
X218978251Y-69489439D01*
X218724251Y-69489439D01*
X218565501Y-69330689D01*
X217708942Y-69330689D01*
X217475553Y-69427362D01*
X217296924Y-69605990D01*
X217200251Y-69839379D01*
X216543645Y-69839379D01*
X216287568Y-69582855D01*
X215680976Y-69330976D01*
X215024168Y-69330403D01*
X214417136Y-69581223D01*
X213952297Y-70045252D01*
X213700418Y-70651844D01*
X213699845Y-71308652D01*
X213504266Y-71308652D01*
X213504837Y-70654726D01*
X213254017Y-70047694D01*
X212789988Y-69582855D01*
X212183396Y-69330976D01*
X211526588Y-69330403D01*
X210919556Y-69581223D01*
X210454717Y-70045252D01*
X210202838Y-70651844D01*
X210202265Y-71308652D01*
X206467551Y-71308652D01*
X206467551Y-66230689D01*
X227907551Y-66230689D01*
X227907551Y-72176053D01*
X227907551Y-72176053D01*
G37*
X227907551Y-72176053D02*
X227662172Y-72074163D01*
X227035678Y-72073616D01*
X226456664Y-72312860D01*
X226013279Y-72755472D01*
X225773025Y-73334068D01*
X225772478Y-73960562D01*
X226011722Y-74539576D01*
X226390447Y-74918962D01*
X226013279Y-75295472D01*
X225773025Y-75874068D01*
X225772478Y-76500562D01*
X226011722Y-77079576D01*
X226390447Y-77458962D01*
X226013279Y-77835472D01*
X225773025Y-78414068D01*
X225772478Y-79040562D01*
X226011722Y-79619576D01*
X226390447Y-79998962D01*
X226013279Y-80375472D01*
X225773025Y-80954068D01*
X225772478Y-81580562D01*
X226011722Y-82159576D01*
X226390447Y-82538962D01*
X226013279Y-82915472D01*
X225773025Y-83494068D01*
X225772478Y-84120562D01*
X226011722Y-84699576D01*
X226390447Y-85078962D01*
X226013279Y-85455472D01*
X225773025Y-86034068D01*
X225772478Y-86660562D01*
X226011722Y-87239576D01*
X226454334Y-87682961D01*
X227032930Y-87923215D01*
X227659424Y-87923762D01*
X227907551Y-87821238D01*
X227907551Y-113832689D01*
X219316953Y-113832689D01*
X219367494Y-113811806D01*
X219630743Y-113549016D01*
X219773389Y-113205488D01*
X219773713Y-112833522D01*
X219631668Y-112489746D01*
X219368878Y-112226497D01*
X219025350Y-112083851D01*
X218653384Y-112083527D01*
X218309608Y-112225572D01*
X218276433Y-112258689D01*
X212295353Y-112258689D01*
X209245353Y-109208689D01*
X209882353Y-108571689D01*
X211926088Y-108571689D01*
X211958224Y-108603881D01*
X212301752Y-108746527D01*
X212673718Y-108746851D01*
X213017494Y-108604806D01*
X213280743Y-108342016D01*
X213423389Y-107998488D01*
X213423713Y-107626522D01*
X213281668Y-107282746D01*
X213018878Y-107019497D01*
X212675350Y-106876851D01*
X212303384Y-106876527D01*
X211959608Y-107018572D01*
X211926433Y-107051689D01*
X209567551Y-107051689D01*
X209276711Y-107109541D01*
X209030150Y-107274288D01*
X208030871Y-108273567D01*
X207985384Y-108273527D01*
X207641608Y-108415572D01*
X207378359Y-108678362D01*
X207235713Y-109021890D01*
X207235389Y-109393856D01*
X207377434Y-109737632D01*
X207640224Y-110000881D01*
X207983752Y-110143527D01*
X208030628Y-110143568D01*
X211443150Y-113556090D01*
X211689712Y-113720837D01*
X211980551Y-113778689D01*
X218276088Y-113778689D01*
X218308224Y-113810881D01*
X218360743Y-113832689D01*
X206467551Y-113832689D01*
X206467551Y-102535856D01*
X207997389Y-102535856D01*
X208139434Y-102879632D01*
X208402224Y-103142881D01*
X208745752Y-103285527D01*
X209117718Y-103285851D01*
X209461494Y-103143806D01*
X209724743Y-102881016D01*
X209867389Y-102537488D01*
X209867713Y-102165522D01*
X209725668Y-101821746D01*
X209692551Y-101788571D01*
X209692551Y-99109491D01*
X210204551Y-98597491D01*
X210204551Y-101788226D01*
X210172359Y-101820362D01*
X210029713Y-102163890D01*
X210029389Y-102535856D01*
X210171434Y-102879632D01*
X210434224Y-103142881D01*
X210777752Y-103285527D01*
X211149718Y-103285851D01*
X211493494Y-103143806D01*
X211756743Y-102881016D01*
X211899389Y-102537488D01*
X211899713Y-102165522D01*
X211757668Y-101821746D01*
X211724551Y-101788571D01*
X211724551Y-98220491D01*
X213633551Y-96311491D01*
X213633551Y-106076953D01*
X213691403Y-106367792D01*
X213856150Y-106614354D01*
X214955886Y-107714090D01*
X215202448Y-107878837D01*
X215320847Y-107902388D01*
X215387224Y-107968881D01*
X215730752Y-108111527D01*
X216102718Y-108111851D01*
X216446494Y-107969806D01*
X216709743Y-107707016D01*
X216852389Y-107363488D01*
X216852713Y-106991522D01*
X216710668Y-106647746D01*
X216447878Y-106384497D01*
X216104350Y-106241851D01*
X215732384Y-106241527D01*
X215662006Y-106270606D01*
X215153551Y-105762151D01*
X215153551Y-103671022D01*
X215260224Y-103777881D01*
X215603752Y-103920527D01*
X215975718Y-103920851D01*
X216319494Y-103778806D01*
X216352669Y-103745689D01*
X217697551Y-103745689D01*
X217697551Y-106668689D01*
X217755403Y-106959528D01*
X217920150Y-107206090D01*
X219681429Y-108967369D01*
X219681389Y-109012856D01*
X219823434Y-109356632D01*
X220086224Y-109619881D01*
X220429752Y-109762527D01*
X220801718Y-109762851D01*
X221145494Y-109620806D01*
X221408743Y-109358016D01*
X221551389Y-109014488D01*
X221551713Y-108642522D01*
X221409668Y-108298746D01*
X221146878Y-108035497D01*
X220803350Y-107892851D01*
X220756474Y-107892810D01*
X219217551Y-106353887D01*
X219217551Y-103300491D01*
X220756231Y-101761811D01*
X220801718Y-101761851D01*
X221145494Y-101619806D01*
X221408743Y-101357016D01*
X221551389Y-101013488D01*
X221551713Y-100641522D01*
X221409668Y-100297746D01*
X221146878Y-100034497D01*
X220803350Y-99891851D01*
X220431384Y-99891527D01*
X220087608Y-100033572D01*
X219824359Y-100296362D01*
X219681713Y-100639890D01*
X219681672Y-100686766D01*
X218142749Y-102225689D01*
X216353014Y-102225689D01*
X216320878Y-102193497D01*
X215977350Y-102050851D01*
X215605384Y-102050527D01*
X215261608Y-102192572D01*
X215153551Y-102300441D01*
X215153551Y-98632057D01*
X215349752Y-98713527D01*
X215721718Y-98713851D01*
X216065494Y-98571806D01*
X216308913Y-98328811D01*
X216327952Y-98316090D01*
X217190892Y-97453150D01*
X217419224Y-97681881D01*
X217551593Y-97736845D01*
X217174871Y-98113567D01*
X217129384Y-98113527D01*
X216785608Y-98255572D01*
X216522359Y-98518362D01*
X216379713Y-98861890D01*
X216379389Y-99233856D01*
X216521434Y-99577632D01*
X216784224Y-99840881D01*
X217127752Y-99983527D01*
X217499718Y-99983851D01*
X217843494Y-99841806D01*
X218106743Y-99579016D01*
X218249389Y-99235488D01*
X218249430Y-99188612D01*
X220899952Y-96538090D01*
X221064699Y-96291528D01*
X221122551Y-96000689D01*
X221122551Y-84862736D01*
X221220434Y-85099632D01*
X221483224Y-85362881D01*
X221826752Y-85505527D01*
X222198718Y-85505851D01*
X222542494Y-85363806D01*
X222805743Y-85101016D01*
X222948389Y-84757488D01*
X222948456Y-84680947D01*
X223053519Y-84523708D01*
X223111371Y-84232869D01*
X223111371Y-72454048D01*
X223285366Y-72382155D01*
X223750205Y-71918126D01*
X224002084Y-71311534D01*
X224002657Y-70654726D01*
X223751837Y-70047694D01*
X223287808Y-69582855D01*
X222681216Y-69330976D01*
X222024408Y-69330403D01*
X221417376Y-69581223D01*
X220952537Y-70045252D01*
X220700658Y-70651844D01*
X220700085Y-71308652D01*
X220950905Y-71915684D01*
X221414934Y-72380523D01*
X221591371Y-72453786D01*
X221591371Y-83733459D01*
X221484608Y-83777572D01*
X221221359Y-84040362D01*
X221122551Y-84278317D01*
X221122551Y-80307152D01*
X221154743Y-80275016D01*
X221297389Y-79931488D01*
X221297713Y-79559522D01*
X221155668Y-79215746D01*
X220892878Y-78952497D01*
X220549350Y-78809851D01*
X220177384Y-78809527D01*
X219833608Y-78951572D01*
X219570359Y-79214362D01*
X219427713Y-79557890D01*
X219427389Y-79929856D01*
X219569434Y-80273632D01*
X219602551Y-80306807D01*
X219602551Y-81378586D01*
X219533350Y-81349851D01*
X219457810Y-81349785D01*
X219519389Y-81201488D01*
X219519713Y-80829522D01*
X219377668Y-80485746D01*
X219114878Y-80222497D01*
X218771350Y-80079851D01*
X218399384Y-80079527D01*
X218055608Y-80221572D01*
X217792359Y-80484362D01*
X217649713Y-80827890D01*
X217649389Y-81199856D01*
X217791434Y-81543632D01*
X217824551Y-81576807D01*
X217824551Y-94669887D01*
X215650650Y-96843788D01*
X215351384Y-96843527D01*
X215153551Y-96925270D01*
X215153551Y-84697689D01*
X215095699Y-84406850D01*
X214930952Y-84160288D01*
X213677673Y-82907009D01*
X213677713Y-82861522D01*
X213535668Y-82517746D01*
X213272878Y-82254497D01*
X212929350Y-82111851D01*
X212557384Y-82111527D01*
X212213608Y-82253572D01*
X211950359Y-82516362D01*
X211807713Y-82859890D01*
X211807389Y-83231856D01*
X211949434Y-83575632D01*
X212212224Y-83838881D01*
X212555752Y-83981527D01*
X212602628Y-83981568D01*
X213633551Y-85012491D01*
X213633551Y-94303690D01*
X213446384Y-94303527D01*
X213102608Y-94445572D01*
X213060207Y-94487899D01*
X213018878Y-94446497D01*
X212675350Y-94303851D01*
X212303384Y-94303527D01*
X211959608Y-94445572D01*
X211696359Y-94708362D01*
X211553713Y-95051890D01*
X211553672Y-95098766D01*
X208395150Y-98257288D01*
X208230403Y-98503850D01*
X208172551Y-98794689D01*
X208172551Y-101788226D01*
X208140359Y-101820362D01*
X207997713Y-102163890D01*
X207997389Y-102535856D01*
X206467551Y-102535856D01*
X206467551Y-87821325D01*
X206712930Y-87923215D01*
X207339424Y-87923762D01*
X207918438Y-87684518D01*
X208361823Y-87241906D01*
X208602077Y-86663310D01*
X208602624Y-86036816D01*
X208363380Y-85457802D01*
X207984655Y-85078416D01*
X208361823Y-84701906D01*
X208602077Y-84123310D01*
X208602624Y-83496816D01*
X208363380Y-82917802D01*
X207984655Y-82538416D01*
X208361823Y-82161906D01*
X208602077Y-81583310D01*
X208602624Y-80956816D01*
X208363380Y-80377802D01*
X207984655Y-79998416D01*
X208361823Y-79621906D01*
X208602077Y-79043310D01*
X208602624Y-78416816D01*
X208363380Y-77837802D01*
X207984655Y-77458416D01*
X208361823Y-77081906D01*
X208602077Y-76503310D01*
X208602624Y-75876816D01*
X208363380Y-75297802D01*
X207984655Y-74918416D01*
X208361823Y-74541906D01*
X208602077Y-73963310D01*
X208602624Y-73336816D01*
X208363380Y-72757802D01*
X207920768Y-72314417D01*
X207342172Y-72074163D01*
X206715678Y-72073616D01*
X206467551Y-72176140D01*
X206467551Y-71308652D01*
X210202265Y-71308652D01*
X210453085Y-71915684D01*
X210917114Y-72380523D01*
X211523706Y-72632402D01*
X212180514Y-72632975D01*
X212787546Y-72382155D01*
X213252385Y-71918126D01*
X213504264Y-71311534D01*
X213504266Y-71308652D01*
X213699845Y-71308652D01*
X213950665Y-71915684D01*
X214414694Y-72380523D01*
X215021286Y-72632402D01*
X215678094Y-72632975D01*
X216285126Y-72382155D01*
X216749965Y-71918126D01*
X217001844Y-71311534D01*
X217001882Y-71267439D01*
X217200251Y-71267439D01*
X217200251Y-72123999D01*
X217296924Y-72357388D01*
X217475553Y-72536016D01*
X217708942Y-72632689D01*
X218565501Y-72632689D01*
X218724251Y-72473939D01*
X218724251Y-71108689D01*
X218978251Y-71108689D01*
X218978251Y-72473939D01*
X219137001Y-72632689D01*
X219993560Y-72632689D01*
X220226949Y-72536016D01*
X220405578Y-72357388D01*
X220502251Y-72123999D01*
X220502251Y-71267439D01*
X220343501Y-71108689D01*
X218978251Y-71108689D01*
X218724251Y-71108689D01*
X217359001Y-71108689D01*
X217200251Y-71267439D01*
X217001882Y-71267439D01*
X217002417Y-70654726D01*
X216751597Y-70047694D01*
X216543645Y-69839379D01*
X217200251Y-69839379D01*
X217200251Y-70695939D01*
X217359001Y-70854689D01*
X218724251Y-70854689D01*
X218724251Y-69489439D01*
X218978251Y-69489439D01*
X218978251Y-70854689D01*
X220343501Y-70854689D01*
X220502251Y-70695939D01*
X220502251Y-69839379D01*
X220405578Y-69605990D01*
X220226949Y-69427362D01*
X219993560Y-69330689D01*
X219137001Y-69330689D01*
X218978251Y-69489439D01*
X218724251Y-69489439D01*
X218565501Y-69330689D01*
X217708942Y-69330689D01*
X217475553Y-69427362D01*
X217296924Y-69605990D01*
X217200251Y-69839379D01*
X216543645Y-69839379D01*
X216287568Y-69582855D01*
X215680976Y-69330976D01*
X215024168Y-69330403D01*
X214417136Y-69581223D01*
X213952297Y-70045252D01*
X213700418Y-70651844D01*
X213699845Y-71308652D01*
X213504266Y-71308652D01*
X213504837Y-70654726D01*
X213254017Y-70047694D01*
X212789988Y-69582855D01*
X212183396Y-69330976D01*
X211526588Y-69330403D01*
X210919556Y-69581223D01*
X210454717Y-70045252D01*
X210202838Y-70651844D01*
X210202265Y-71308652D01*
X206467551Y-71308652D01*
X206467551Y-66230689D01*
X227907551Y-66230689D01*
X227907551Y-72176053D01*
G36*
X253307551Y-72176053D02*
X253062172Y-72074163D01*
X252435678Y-72073616D01*
X251856664Y-72312860D01*
X251413279Y-72755472D01*
X251173025Y-73334068D01*
X251172478Y-73960562D01*
X251411722Y-74539576D01*
X251790447Y-74918962D01*
X251413279Y-75295472D01*
X251173025Y-75874068D01*
X251172478Y-76500562D01*
X251411722Y-77079576D01*
X251790447Y-77458962D01*
X251413279Y-77835472D01*
X251173025Y-78414068D01*
X251172478Y-79040562D01*
X251411722Y-79619576D01*
X251790447Y-79998962D01*
X251413279Y-80375472D01*
X251173025Y-80954068D01*
X251172478Y-81580562D01*
X251411722Y-82159576D01*
X251790447Y-82538962D01*
X251413279Y-82915472D01*
X251173025Y-83494068D01*
X251172478Y-84120562D01*
X251411722Y-84699576D01*
X251790447Y-85078962D01*
X251413279Y-85455472D01*
X251173025Y-86034068D01*
X251172478Y-86660562D01*
X251411722Y-87239576D01*
X251854334Y-87682961D01*
X252432930Y-87923215D01*
X253059424Y-87923762D01*
X253307551Y-87821238D01*
X253307551Y-113832689D01*
X244716953Y-113832689D01*
X244767494Y-113811806D01*
X245030743Y-113549016D01*
X245173389Y-113205488D01*
X245173713Y-112833522D01*
X245031668Y-112489746D01*
X244768878Y-112226497D01*
X244425350Y-112083851D01*
X244053384Y-112083527D01*
X243709608Y-112225572D01*
X243676433Y-112258689D01*
X237695353Y-112258689D01*
X234645353Y-109208689D01*
X235282353Y-108571689D01*
X237326088Y-108571689D01*
X237358224Y-108603881D01*
X237701752Y-108746527D01*
X238073718Y-108746851D01*
X238417494Y-108604806D01*
X238680743Y-108342016D01*
X238823389Y-107998488D01*
X238823713Y-107626522D01*
X238681668Y-107282746D01*
X238418878Y-107019497D01*
X238075350Y-106876851D01*
X237703384Y-106876527D01*
X237359608Y-107018572D01*
X237326433Y-107051689D01*
X234967551Y-107051689D01*
X234676711Y-107109541D01*
X234430150Y-107274288D01*
X233430871Y-108273567D01*
X233385384Y-108273527D01*
X233041608Y-108415572D01*
X232778359Y-108678362D01*
X232635713Y-109021890D01*
X232635389Y-109393856D01*
X232777434Y-109737632D01*
X233040224Y-110000881D01*
X233383752Y-110143527D01*
X233430628Y-110143568D01*
X236843150Y-113556090D01*
X237089712Y-113720837D01*
X237380551Y-113778689D01*
X243676088Y-113778689D01*
X243708224Y-113810881D01*
X243760743Y-113832689D01*
X231867551Y-113832689D01*
X231867551Y-102535856D01*
X233397389Y-102535856D01*
X233539434Y-102879632D01*
X233802224Y-103142881D01*
X234145752Y-103285527D01*
X234517718Y-103285851D01*
X234861494Y-103143806D01*
X235124743Y-102881016D01*
X235267389Y-102537488D01*
X235267713Y-102165522D01*
X235125668Y-101821746D01*
X235092551Y-101788571D01*
X235092551Y-99109491D01*
X235604551Y-98597491D01*
X235604551Y-101788226D01*
X235572359Y-101820362D01*
X235429713Y-102163890D01*
X235429389Y-102535856D01*
X235571434Y-102879632D01*
X235834224Y-103142881D01*
X236177752Y-103285527D01*
X236549718Y-103285851D01*
X236893494Y-103143806D01*
X237156743Y-102881016D01*
X237299389Y-102537488D01*
X237299713Y-102165522D01*
X237157668Y-101821746D01*
X237124551Y-101788571D01*
X237124551Y-98220491D01*
X239033551Y-96311491D01*
X239033551Y-106076953D01*
X239091403Y-106367792D01*
X239256150Y-106614354D01*
X240355886Y-107714090D01*
X240602448Y-107878837D01*
X240720847Y-107902388D01*
X240787224Y-107968881D01*
X241130752Y-108111527D01*
X241502718Y-108111851D01*
X241846494Y-107969806D01*
X242109743Y-107707016D01*
X242252389Y-107363488D01*
X242252713Y-106991522D01*
X242110668Y-106647746D01*
X241847878Y-106384497D01*
X241504350Y-106241851D01*
X241132384Y-106241527D01*
X241062006Y-106270606D01*
X240553551Y-105762151D01*
X240553551Y-103671022D01*
X240660224Y-103777881D01*
X241003752Y-103920527D01*
X241375718Y-103920851D01*
X241719494Y-103778806D01*
X241752669Y-103745689D01*
X243097551Y-103745689D01*
X243097551Y-106668689D01*
X243155403Y-106959528D01*
X243320150Y-107206090D01*
X245081429Y-108967369D01*
X245081389Y-109012856D01*
X245223434Y-109356632D01*
X245486224Y-109619881D01*
X245829752Y-109762527D01*
X246201718Y-109762851D01*
X246545494Y-109620806D01*
X246808743Y-109358016D01*
X246951389Y-109014488D01*
X246951713Y-108642522D01*
X246809668Y-108298746D01*
X246546878Y-108035497D01*
X246203350Y-107892851D01*
X246156474Y-107892810D01*
X244617551Y-106353887D01*
X244617551Y-103300491D01*
X246156231Y-101761811D01*
X246201718Y-101761851D01*
X246545494Y-101619806D01*
X246808743Y-101357016D01*
X246951389Y-101013488D01*
X246951713Y-100641522D01*
X246809668Y-100297746D01*
X246546878Y-100034497D01*
X246203350Y-99891851D01*
X245831384Y-99891527D01*
X245487608Y-100033572D01*
X245224359Y-100296362D01*
X245081713Y-100639890D01*
X245081672Y-100686766D01*
X243542749Y-102225689D01*
X241753014Y-102225689D01*
X241720878Y-102193497D01*
X241377350Y-102050851D01*
X241005384Y-102050527D01*
X240661608Y-102192572D01*
X240553551Y-102300441D01*
X240553551Y-98632057D01*
X240749752Y-98713527D01*
X241121718Y-98713851D01*
X241465494Y-98571806D01*
X241708913Y-98328811D01*
X241727952Y-98316090D01*
X242590892Y-97453150D01*
X242819224Y-97681881D01*
X242951593Y-97736845D01*
X242574871Y-98113567D01*
X242529384Y-98113527D01*
X242185608Y-98255572D01*
X241922359Y-98518362D01*
X241779713Y-98861890D01*
X241779389Y-99233856D01*
X241921434Y-99577632D01*
X242184224Y-99840881D01*
X242527752Y-99983527D01*
X242899718Y-99983851D01*
X243243494Y-99841806D01*
X243506743Y-99579016D01*
X243649389Y-99235488D01*
X243649430Y-99188612D01*
X246299952Y-96538090D01*
X246464699Y-96291528D01*
X246522551Y-96000689D01*
X246522551Y-84862736D01*
X246620434Y-85099632D01*
X246883224Y-85362881D01*
X247226752Y-85505527D01*
X247598718Y-85505851D01*
X247942494Y-85363806D01*
X248205743Y-85101016D01*
X248348389Y-84757488D01*
X248348456Y-84680947D01*
X248453519Y-84523708D01*
X248511371Y-84232869D01*
X248511371Y-72454048D01*
X248685366Y-72382155D01*
X249150205Y-71918126D01*
X249402084Y-71311534D01*
X249402657Y-70654726D01*
X249151837Y-70047694D01*
X248687808Y-69582855D01*
X248081216Y-69330976D01*
X247424408Y-69330403D01*
X246817376Y-69581223D01*
X246352537Y-70045252D01*
X246100658Y-70651844D01*
X246100085Y-71308652D01*
X246350905Y-71915684D01*
X246814934Y-72380523D01*
X246991371Y-72453786D01*
X246991371Y-83733459D01*
X246884608Y-83777572D01*
X246621359Y-84040362D01*
X246522551Y-84278317D01*
X246522551Y-80307152D01*
X246554743Y-80275016D01*
X246697389Y-79931488D01*
X246697713Y-79559522D01*
X246555668Y-79215746D01*
X246292878Y-78952497D01*
X245949350Y-78809851D01*
X245577384Y-78809527D01*
X245233608Y-78951572D01*
X244970359Y-79214362D01*
X244827713Y-79557890D01*
X244827389Y-79929856D01*
X244969434Y-80273632D01*
X245002551Y-80306807D01*
X245002551Y-81378586D01*
X244933350Y-81349851D01*
X244857810Y-81349785D01*
X244919389Y-81201488D01*
X244919713Y-80829522D01*
X244777668Y-80485746D01*
X244514878Y-80222497D01*
X244171350Y-80079851D01*
X243799384Y-80079527D01*
X243455608Y-80221572D01*
X243192359Y-80484362D01*
X243049713Y-80827890D01*
X243049389Y-81199856D01*
X243191434Y-81543632D01*
X243224551Y-81576807D01*
X243224551Y-94669887D01*
X241050650Y-96843788D01*
X240751384Y-96843527D01*
X240553551Y-96925270D01*
X240553551Y-84697689D01*
X240495699Y-84406850D01*
X240330952Y-84160288D01*
X239077673Y-82907009D01*
X239077713Y-82861522D01*
X238935668Y-82517746D01*
X238672878Y-82254497D01*
X238329350Y-82111851D01*
X237957384Y-82111527D01*
X237613608Y-82253572D01*
X237350359Y-82516362D01*
X237207713Y-82859890D01*
X237207389Y-83231856D01*
X237349434Y-83575632D01*
X237612224Y-83838881D01*
X237955752Y-83981527D01*
X238002628Y-83981568D01*
X239033551Y-85012491D01*
X239033551Y-94303690D01*
X238846384Y-94303527D01*
X238502608Y-94445572D01*
X238460207Y-94487899D01*
X238418878Y-94446497D01*
X238075350Y-94303851D01*
X237703384Y-94303527D01*
X237359608Y-94445572D01*
X237096359Y-94708362D01*
X236953713Y-95051890D01*
X236953672Y-95098766D01*
X233795150Y-98257288D01*
X233630403Y-98503850D01*
X233572551Y-98794689D01*
X233572551Y-101788226D01*
X233540359Y-101820362D01*
X233397713Y-102163890D01*
X233397389Y-102535856D01*
X231867551Y-102535856D01*
X231867551Y-87821325D01*
X232112930Y-87923215D01*
X232739424Y-87923762D01*
X233318438Y-87684518D01*
X233761823Y-87241906D01*
X234002077Y-86663310D01*
X234002624Y-86036816D01*
X233763380Y-85457802D01*
X233384655Y-85078416D01*
X233761823Y-84701906D01*
X234002077Y-84123310D01*
X234002624Y-83496816D01*
X233763380Y-82917802D01*
X233384655Y-82538416D01*
X233761823Y-82161906D01*
X234002077Y-81583310D01*
X234002624Y-80956816D01*
X233763380Y-80377802D01*
X233384655Y-79998416D01*
X233761823Y-79621906D01*
X234002077Y-79043310D01*
X234002624Y-78416816D01*
X233763380Y-77837802D01*
X233384655Y-77458416D01*
X233761823Y-77081906D01*
X234002077Y-76503310D01*
X234002624Y-75876816D01*
X233763380Y-75297802D01*
X233384655Y-74918416D01*
X233761823Y-74541906D01*
X234002077Y-73963310D01*
X234002624Y-73336816D01*
X233763380Y-72757802D01*
X233320768Y-72314417D01*
X232742172Y-72074163D01*
X232115678Y-72073616D01*
X231867551Y-72176140D01*
X231867551Y-71308652D01*
X235602265Y-71308652D01*
X235853085Y-71915684D01*
X236317114Y-72380523D01*
X236923706Y-72632402D01*
X237580514Y-72632975D01*
X238187546Y-72382155D01*
X238652385Y-71918126D01*
X238904264Y-71311534D01*
X238904266Y-71308652D01*
X239099845Y-71308652D01*
X239350665Y-71915684D01*
X239814694Y-72380523D01*
X240421286Y-72632402D01*
X241078094Y-72632975D01*
X241685126Y-72382155D01*
X242149965Y-71918126D01*
X242401844Y-71311534D01*
X242401882Y-71267439D01*
X242600251Y-71267439D01*
X242600251Y-72123999D01*
X242696924Y-72357388D01*
X242875553Y-72536016D01*
X243108942Y-72632689D01*
X243965501Y-72632689D01*
X244124251Y-72473939D01*
X244124251Y-71108689D01*
X244378251Y-71108689D01*
X244378251Y-72473939D01*
X244537001Y-72632689D01*
X245393560Y-72632689D01*
X245626949Y-72536016D01*
X245805578Y-72357388D01*
X245902251Y-72123999D01*
X245902251Y-71267439D01*
X245743501Y-71108689D01*
X244378251Y-71108689D01*
X244124251Y-71108689D01*
X242759001Y-71108689D01*
X242600251Y-71267439D01*
X242401882Y-71267439D01*
X242402417Y-70654726D01*
X242151597Y-70047694D01*
X241943645Y-69839379D01*
X242600251Y-69839379D01*
X242600251Y-70695939D01*
X242759001Y-70854689D01*
X244124251Y-70854689D01*
X244124251Y-69489439D01*
X244378251Y-69489439D01*
X244378251Y-70854689D01*
X245743501Y-70854689D01*
X245902251Y-70695939D01*
X245902251Y-69839379D01*
X245805578Y-69605990D01*
X245626949Y-69427362D01*
X245393560Y-69330689D01*
X244537001Y-69330689D01*
X244378251Y-69489439D01*
X244124251Y-69489439D01*
X243965501Y-69330689D01*
X243108942Y-69330689D01*
X242875553Y-69427362D01*
X242696924Y-69605990D01*
X242600251Y-69839379D01*
X241943645Y-69839379D01*
X241687568Y-69582855D01*
X241080976Y-69330976D01*
X240424168Y-69330403D01*
X239817136Y-69581223D01*
X239352297Y-70045252D01*
X239100418Y-70651844D01*
X239099845Y-71308652D01*
X238904266Y-71308652D01*
X238904837Y-70654726D01*
X238654017Y-70047694D01*
X238189988Y-69582855D01*
X237583396Y-69330976D01*
X236926588Y-69330403D01*
X236319556Y-69581223D01*
X235854717Y-70045252D01*
X235602838Y-70651844D01*
X235602265Y-71308652D01*
X231867551Y-71308652D01*
X231867551Y-66230689D01*
X253307551Y-66230689D01*
X253307551Y-72176053D01*
X253307551Y-72176053D01*
G37*
X253307551Y-72176053D02*
X253062172Y-72074163D01*
X252435678Y-72073616D01*
X251856664Y-72312860D01*
X251413279Y-72755472D01*
X251173025Y-73334068D01*
X251172478Y-73960562D01*
X251411722Y-74539576D01*
X251790447Y-74918962D01*
X251413279Y-75295472D01*
X251173025Y-75874068D01*
X251172478Y-76500562D01*
X251411722Y-77079576D01*
X251790447Y-77458962D01*
X251413279Y-77835472D01*
X251173025Y-78414068D01*
X251172478Y-79040562D01*
X251411722Y-79619576D01*
X251790447Y-79998962D01*
X251413279Y-80375472D01*
X251173025Y-80954068D01*
X251172478Y-81580562D01*
X251411722Y-82159576D01*
X251790447Y-82538962D01*
X251413279Y-82915472D01*
X251173025Y-83494068D01*
X251172478Y-84120562D01*
X251411722Y-84699576D01*
X251790447Y-85078962D01*
X251413279Y-85455472D01*
X251173025Y-86034068D01*
X251172478Y-86660562D01*
X251411722Y-87239576D01*
X251854334Y-87682961D01*
X252432930Y-87923215D01*
X253059424Y-87923762D01*
X253307551Y-87821238D01*
X253307551Y-113832689D01*
X244716953Y-113832689D01*
X244767494Y-113811806D01*
X245030743Y-113549016D01*
X245173389Y-113205488D01*
X245173713Y-112833522D01*
X245031668Y-112489746D01*
X244768878Y-112226497D01*
X244425350Y-112083851D01*
X244053384Y-112083527D01*
X243709608Y-112225572D01*
X243676433Y-112258689D01*
X237695353Y-112258689D01*
X234645353Y-109208689D01*
X235282353Y-108571689D01*
X237326088Y-108571689D01*
X237358224Y-108603881D01*
X237701752Y-108746527D01*
X238073718Y-108746851D01*
X238417494Y-108604806D01*
X238680743Y-108342016D01*
X238823389Y-107998488D01*
X238823713Y-107626522D01*
X238681668Y-107282746D01*
X238418878Y-107019497D01*
X238075350Y-106876851D01*
X237703384Y-106876527D01*
X237359608Y-107018572D01*
X237326433Y-107051689D01*
X234967551Y-107051689D01*
X234676711Y-107109541D01*
X234430150Y-107274288D01*
X233430871Y-108273567D01*
X233385384Y-108273527D01*
X233041608Y-108415572D01*
X232778359Y-108678362D01*
X232635713Y-109021890D01*
X232635389Y-109393856D01*
X232777434Y-109737632D01*
X233040224Y-110000881D01*
X233383752Y-110143527D01*
X233430628Y-110143568D01*
X236843150Y-113556090D01*
X237089712Y-113720837D01*
X237380551Y-113778689D01*
X243676088Y-113778689D01*
X243708224Y-113810881D01*
X243760743Y-113832689D01*
X231867551Y-113832689D01*
X231867551Y-102535856D01*
X233397389Y-102535856D01*
X233539434Y-102879632D01*
X233802224Y-103142881D01*
X234145752Y-103285527D01*
X234517718Y-103285851D01*
X234861494Y-103143806D01*
X235124743Y-102881016D01*
X235267389Y-102537488D01*
X235267713Y-102165522D01*
X235125668Y-101821746D01*
X235092551Y-101788571D01*
X235092551Y-99109491D01*
X235604551Y-98597491D01*
X235604551Y-101788226D01*
X235572359Y-101820362D01*
X235429713Y-102163890D01*
X235429389Y-102535856D01*
X235571434Y-102879632D01*
X235834224Y-103142881D01*
X236177752Y-103285527D01*
X236549718Y-103285851D01*
X236893494Y-103143806D01*
X237156743Y-102881016D01*
X237299389Y-102537488D01*
X237299713Y-102165522D01*
X237157668Y-101821746D01*
X237124551Y-101788571D01*
X237124551Y-98220491D01*
X239033551Y-96311491D01*
X239033551Y-106076953D01*
X239091403Y-106367792D01*
X239256150Y-106614354D01*
X240355886Y-107714090D01*
X240602448Y-107878837D01*
X240720847Y-107902388D01*
X240787224Y-107968881D01*
X241130752Y-108111527D01*
X241502718Y-108111851D01*
X241846494Y-107969806D01*
X242109743Y-107707016D01*
X242252389Y-107363488D01*
X242252713Y-106991522D01*
X242110668Y-106647746D01*
X241847878Y-106384497D01*
X241504350Y-106241851D01*
X241132384Y-106241527D01*
X241062006Y-106270606D01*
X240553551Y-105762151D01*
X240553551Y-103671022D01*
X240660224Y-103777881D01*
X241003752Y-103920527D01*
X241375718Y-103920851D01*
X241719494Y-103778806D01*
X241752669Y-103745689D01*
X243097551Y-103745689D01*
X243097551Y-106668689D01*
X243155403Y-106959528D01*
X243320150Y-107206090D01*
X245081429Y-108967369D01*
X245081389Y-109012856D01*
X245223434Y-109356632D01*
X245486224Y-109619881D01*
X245829752Y-109762527D01*
X246201718Y-109762851D01*
X246545494Y-109620806D01*
X246808743Y-109358016D01*
X246951389Y-109014488D01*
X246951713Y-108642522D01*
X246809668Y-108298746D01*
X246546878Y-108035497D01*
X246203350Y-107892851D01*
X246156474Y-107892810D01*
X244617551Y-106353887D01*
X244617551Y-103300491D01*
X246156231Y-101761811D01*
X246201718Y-101761851D01*
X246545494Y-101619806D01*
X246808743Y-101357016D01*
X246951389Y-101013488D01*
X246951713Y-100641522D01*
X246809668Y-100297746D01*
X246546878Y-100034497D01*
X246203350Y-99891851D01*
X245831384Y-99891527D01*
X245487608Y-100033572D01*
X245224359Y-100296362D01*
X245081713Y-100639890D01*
X245081672Y-100686766D01*
X243542749Y-102225689D01*
X241753014Y-102225689D01*
X241720878Y-102193497D01*
X241377350Y-102050851D01*
X241005384Y-102050527D01*
X240661608Y-102192572D01*
X240553551Y-102300441D01*
X240553551Y-98632057D01*
X240749752Y-98713527D01*
X241121718Y-98713851D01*
X241465494Y-98571806D01*
X241708913Y-98328811D01*
X241727952Y-98316090D01*
X242590892Y-97453150D01*
X242819224Y-97681881D01*
X242951593Y-97736845D01*
X242574871Y-98113567D01*
X242529384Y-98113527D01*
X242185608Y-98255572D01*
X241922359Y-98518362D01*
X241779713Y-98861890D01*
X241779389Y-99233856D01*
X241921434Y-99577632D01*
X242184224Y-99840881D01*
X242527752Y-99983527D01*
X242899718Y-99983851D01*
X243243494Y-99841806D01*
X243506743Y-99579016D01*
X243649389Y-99235488D01*
X243649430Y-99188612D01*
X246299952Y-96538090D01*
X246464699Y-96291528D01*
X246522551Y-96000689D01*
X246522551Y-84862736D01*
X246620434Y-85099632D01*
X246883224Y-85362881D01*
X247226752Y-85505527D01*
X247598718Y-85505851D01*
X247942494Y-85363806D01*
X248205743Y-85101016D01*
X248348389Y-84757488D01*
X248348456Y-84680947D01*
X248453519Y-84523708D01*
X248511371Y-84232869D01*
X248511371Y-72454048D01*
X248685366Y-72382155D01*
X249150205Y-71918126D01*
X249402084Y-71311534D01*
X249402657Y-70654726D01*
X249151837Y-70047694D01*
X248687808Y-69582855D01*
X248081216Y-69330976D01*
X247424408Y-69330403D01*
X246817376Y-69581223D01*
X246352537Y-70045252D01*
X246100658Y-70651844D01*
X246100085Y-71308652D01*
X246350905Y-71915684D01*
X246814934Y-72380523D01*
X246991371Y-72453786D01*
X246991371Y-83733459D01*
X246884608Y-83777572D01*
X246621359Y-84040362D01*
X246522551Y-84278317D01*
X246522551Y-80307152D01*
X246554743Y-80275016D01*
X246697389Y-79931488D01*
X246697713Y-79559522D01*
X246555668Y-79215746D01*
X246292878Y-78952497D01*
X245949350Y-78809851D01*
X245577384Y-78809527D01*
X245233608Y-78951572D01*
X244970359Y-79214362D01*
X244827713Y-79557890D01*
X244827389Y-79929856D01*
X244969434Y-80273632D01*
X245002551Y-80306807D01*
X245002551Y-81378586D01*
X244933350Y-81349851D01*
X244857810Y-81349785D01*
X244919389Y-81201488D01*
X244919713Y-80829522D01*
X244777668Y-80485746D01*
X244514878Y-80222497D01*
X244171350Y-80079851D01*
X243799384Y-80079527D01*
X243455608Y-80221572D01*
X243192359Y-80484362D01*
X243049713Y-80827890D01*
X243049389Y-81199856D01*
X243191434Y-81543632D01*
X243224551Y-81576807D01*
X243224551Y-94669887D01*
X241050650Y-96843788D01*
X240751384Y-96843527D01*
X240553551Y-96925270D01*
X240553551Y-84697689D01*
X240495699Y-84406850D01*
X240330952Y-84160288D01*
X239077673Y-82907009D01*
X239077713Y-82861522D01*
X238935668Y-82517746D01*
X238672878Y-82254497D01*
X238329350Y-82111851D01*
X237957384Y-82111527D01*
X237613608Y-82253572D01*
X237350359Y-82516362D01*
X237207713Y-82859890D01*
X237207389Y-83231856D01*
X237349434Y-83575632D01*
X237612224Y-83838881D01*
X237955752Y-83981527D01*
X238002628Y-83981568D01*
X239033551Y-85012491D01*
X239033551Y-94303690D01*
X238846384Y-94303527D01*
X238502608Y-94445572D01*
X238460207Y-94487899D01*
X238418878Y-94446497D01*
X238075350Y-94303851D01*
X237703384Y-94303527D01*
X237359608Y-94445572D01*
X237096359Y-94708362D01*
X236953713Y-95051890D01*
X236953672Y-95098766D01*
X233795150Y-98257288D01*
X233630403Y-98503850D01*
X233572551Y-98794689D01*
X233572551Y-101788226D01*
X233540359Y-101820362D01*
X233397713Y-102163890D01*
X233397389Y-102535856D01*
X231867551Y-102535856D01*
X231867551Y-87821325D01*
X232112930Y-87923215D01*
X232739424Y-87923762D01*
X233318438Y-87684518D01*
X233761823Y-87241906D01*
X234002077Y-86663310D01*
X234002624Y-86036816D01*
X233763380Y-85457802D01*
X233384655Y-85078416D01*
X233761823Y-84701906D01*
X234002077Y-84123310D01*
X234002624Y-83496816D01*
X233763380Y-82917802D01*
X233384655Y-82538416D01*
X233761823Y-82161906D01*
X234002077Y-81583310D01*
X234002624Y-80956816D01*
X233763380Y-80377802D01*
X233384655Y-79998416D01*
X233761823Y-79621906D01*
X234002077Y-79043310D01*
X234002624Y-78416816D01*
X233763380Y-77837802D01*
X233384655Y-77458416D01*
X233761823Y-77081906D01*
X234002077Y-76503310D01*
X234002624Y-75876816D01*
X233763380Y-75297802D01*
X233384655Y-74918416D01*
X233761823Y-74541906D01*
X234002077Y-73963310D01*
X234002624Y-73336816D01*
X233763380Y-72757802D01*
X233320768Y-72314417D01*
X232742172Y-72074163D01*
X232115678Y-72073616D01*
X231867551Y-72176140D01*
X231867551Y-71308652D01*
X235602265Y-71308652D01*
X235853085Y-71915684D01*
X236317114Y-72380523D01*
X236923706Y-72632402D01*
X237580514Y-72632975D01*
X238187546Y-72382155D01*
X238652385Y-71918126D01*
X238904264Y-71311534D01*
X238904266Y-71308652D01*
X239099845Y-71308652D01*
X239350665Y-71915684D01*
X239814694Y-72380523D01*
X240421286Y-72632402D01*
X241078094Y-72632975D01*
X241685126Y-72382155D01*
X242149965Y-71918126D01*
X242401844Y-71311534D01*
X242401882Y-71267439D01*
X242600251Y-71267439D01*
X242600251Y-72123999D01*
X242696924Y-72357388D01*
X242875553Y-72536016D01*
X243108942Y-72632689D01*
X243965501Y-72632689D01*
X244124251Y-72473939D01*
X244124251Y-71108689D01*
X244378251Y-71108689D01*
X244378251Y-72473939D01*
X244537001Y-72632689D01*
X245393560Y-72632689D01*
X245626949Y-72536016D01*
X245805578Y-72357388D01*
X245902251Y-72123999D01*
X245902251Y-71267439D01*
X245743501Y-71108689D01*
X244378251Y-71108689D01*
X244124251Y-71108689D01*
X242759001Y-71108689D01*
X242600251Y-71267439D01*
X242401882Y-71267439D01*
X242402417Y-70654726D01*
X242151597Y-70047694D01*
X241943645Y-69839379D01*
X242600251Y-69839379D01*
X242600251Y-70695939D01*
X242759001Y-70854689D01*
X244124251Y-70854689D01*
X244124251Y-69489439D01*
X244378251Y-69489439D01*
X244378251Y-70854689D01*
X245743501Y-70854689D01*
X245902251Y-70695939D01*
X245902251Y-69839379D01*
X245805578Y-69605990D01*
X245626949Y-69427362D01*
X245393560Y-69330689D01*
X244537001Y-69330689D01*
X244378251Y-69489439D01*
X244124251Y-69489439D01*
X243965501Y-69330689D01*
X243108942Y-69330689D01*
X242875553Y-69427362D01*
X242696924Y-69605990D01*
X242600251Y-69839379D01*
X241943645Y-69839379D01*
X241687568Y-69582855D01*
X241080976Y-69330976D01*
X240424168Y-69330403D01*
X239817136Y-69581223D01*
X239352297Y-70045252D01*
X239100418Y-70651844D01*
X239099845Y-71308652D01*
X238904266Y-71308652D01*
X238904837Y-70654726D01*
X238654017Y-70047694D01*
X238189988Y-69582855D01*
X237583396Y-69330976D01*
X236926588Y-69330403D01*
X236319556Y-69581223D01*
X235854717Y-70045252D01*
X235602838Y-70651844D01*
X235602265Y-71308652D01*
X231867551Y-71308652D01*
X231867551Y-66230689D01*
X253307551Y-66230689D01*
X253307551Y-72176053D01*
M02*
