G04 #@! TF.FileFunction,Profile,NP*
%FSLAX46Y46*%
G04 Gerber Fmt 4.6, Leading zero omitted, Abs format (unit mm)*
G04 Created by KiCad (PCBNEW 4.0.6) date 11/21/17 13:37:13*
%MOMM*%
%LPD*%
G01*
G04 APERTURE LIST*
%ADD10C,0.100000*%
%ADD11C,0.150000*%
G04 APERTURE END LIST*
D10*
D11*
X247904000Y-42545000D02*
X247904000Y-138176000D01*
X224807551Y-65266689D02*
X224807551Y-114288689D01*
X201439551Y-65266689D02*
X201439551Y-114288689D01*
X178071551Y-65266689D02*
X178071551Y-114288689D01*
X154703551Y-65266689D02*
X154703551Y-114288689D01*
X131335551Y-65266689D02*
X131335551Y-114288689D01*
X107967551Y-65266689D02*
X107967551Y-114288689D01*
X84599551Y-65266689D02*
X84599551Y-114288689D01*
X61231551Y-65266689D02*
X61231551Y-114288689D01*
X224807551Y-114288689D02*
X247667551Y-114288689D01*
X201439551Y-114288689D02*
X224299551Y-114288689D01*
X178071551Y-114288689D02*
X200931551Y-114288689D01*
X154703551Y-114288689D02*
X177563551Y-114288689D01*
X131335551Y-114288689D02*
X154195551Y-114288689D01*
X107967551Y-114288689D02*
X130827551Y-114288689D01*
X84599551Y-114288689D02*
X107459551Y-114288689D01*
X61231551Y-114288689D02*
X84091551Y-114288689D01*
X247667551Y-65266689D02*
X247667551Y-114288689D01*
X224299551Y-65266689D02*
X224299551Y-114288689D01*
X200931551Y-65266689D02*
X200931551Y-114288689D01*
X177563551Y-65266689D02*
X177563551Y-114288689D01*
X154195551Y-65266689D02*
X154195551Y-114288689D01*
X130827551Y-65266689D02*
X130827551Y-114288689D01*
X107459551Y-65266689D02*
X107459551Y-114288689D01*
X84091551Y-65266689D02*
X84091551Y-114288689D01*
X224807551Y-65266689D02*
X247667551Y-65266689D01*
X201439551Y-65266689D02*
X224299551Y-65266689D01*
X178071551Y-65266689D02*
X200931551Y-65266689D01*
X154703551Y-65266689D02*
X177563551Y-65266689D01*
X131335551Y-65266689D02*
X154195551Y-65266689D01*
X107967551Y-65266689D02*
X130827551Y-65266689D01*
X84599551Y-65266689D02*
X107459551Y-65266689D01*
X61231551Y-65266689D02*
X84091551Y-65266689D01*
X54610000Y-127000647D02*
X54610000Y-114554000D01*
X252730000Y-127000000D02*
X54610000Y-127000000D01*
X252730000Y-114554000D02*
X252730000Y-127000000D01*
X54610000Y-114554000D02*
X252730000Y-114554000D01*
X60985400Y-52527200D02*
X60985400Y-40766562D01*
X60985400Y-52450943D02*
X60985400Y-142671800D01*
X84328000Y-41647521D02*
X84328000Y-136753600D01*
X107721400Y-38352124D02*
X107721400Y-137363200D01*
X131089400Y-37963694D02*
X131089400Y-139039600D01*
X154432000Y-39369268D02*
X154432000Y-138506200D01*
X177800000Y-39750918D02*
X177800000Y-137541000D01*
X201193400Y-41528997D02*
X201193400Y-135991600D01*
X201193400Y-65557400D02*
X201193400Y-45872400D01*
X224561400Y-42798326D02*
X224561400Y-136525000D01*
X224561400Y-65557400D02*
X224561400Y-47980600D01*
X247904000Y-57658000D02*
X247904000Y-47498000D01*
X29210000Y-65024000D02*
X17272000Y-65024000D01*
X278130000Y-65024000D02*
X29210000Y-65024000D01*
X278130000Y-57658000D02*
X29210000Y-57658000D01*
X278130000Y-134620000D02*
X278130000Y-57657887D01*
X29210000Y-134620000D02*
X278130000Y-134620000D01*
X29210000Y-57657547D02*
X29210000Y-134620000D01*
M02*
