G04 #@! TF.FileFunction,Soldermask,Top*
%FSLAX46Y46*%
G04 Gerber Fmt 4.6, Leading zero omitted, Abs format (unit mm)*
G04 Created by KiCad (PCBNEW 4.0.6) date 11/21/17 13:37:13*
%MOMM*%
%LPD*%
G01*
G04 APERTURE LIST*
%ADD10C,0.100000*%
%ADD11R,1.103200X0.703200*%
%ADD12C,1.500000*%
%ADD13C,2.235200*%
%ADD14R,2.235200X2.235200*%
%ADD15C,2.082800*%
%ADD16R,1.753200X0.803200*%
%ADD17R,0.953200X1.003200*%
%ADD18R,0.853200X1.263200*%
%ADD19R,1.800860X1.602740*%
%ADD20R,1.201420X2.001520*%
%ADD21R,0.551180X1.602740*%
%ADD22R,2.001520X2.103120*%
%ADD23R,2.103120X2.103120*%
%ADD24R,1.003200X0.953200*%
%ADD25C,10.800080*%
%ADD26C,2.000000*%
G04 APERTURE END LIST*
D10*
D11*
X231030551Y-80875689D03*
X231030551Y-79375689D03*
X207662551Y-80875689D03*
X207662551Y-79375689D03*
X184294551Y-80875689D03*
X184294551Y-79375689D03*
X160926551Y-80875689D03*
X160926551Y-79375689D03*
X137558551Y-80875689D03*
X137558551Y-79375689D03*
X114190551Y-80875689D03*
X114190551Y-79375689D03*
X90822551Y-80875689D03*
X90822551Y-79375689D03*
X67454551Y-80875689D03*
X67454551Y-79375689D03*
D12*
X226839551Y-67298689D03*
X203471551Y-67298689D03*
X180103551Y-67298689D03*
X156735551Y-67298689D03*
X133367551Y-67298689D03*
X109999551Y-67298689D03*
X86631551Y-67298689D03*
X63263551Y-67298689D03*
D13*
X230903551Y-70727689D03*
X234401131Y-70727689D03*
D14*
X237901251Y-70727689D03*
D13*
X241401371Y-70727689D03*
X207535551Y-70727689D03*
X211033131Y-70727689D03*
D14*
X214533251Y-70727689D03*
D13*
X218033371Y-70727689D03*
X184167551Y-70727689D03*
X187665131Y-70727689D03*
D14*
X191165251Y-70727689D03*
D13*
X194665371Y-70727689D03*
X160799551Y-70727689D03*
X164297131Y-70727689D03*
D14*
X167797251Y-70727689D03*
D13*
X171297371Y-70727689D03*
X137431551Y-70727689D03*
X140929131Y-70727689D03*
D14*
X144429251Y-70727689D03*
D13*
X147929371Y-70727689D03*
X114063551Y-70727689D03*
X117561131Y-70727689D03*
D14*
X121061251Y-70727689D03*
D13*
X124561371Y-70727689D03*
X90695551Y-70727689D03*
X94193131Y-70727689D03*
D14*
X97693251Y-70727689D03*
D13*
X101193371Y-70727689D03*
X67327551Y-70727689D03*
X70825131Y-70727689D03*
D14*
X74325251Y-70727689D03*
D13*
X77825371Y-70727689D03*
D15*
X226077551Y-86094689D03*
X226077551Y-83554689D03*
X226077551Y-81014689D03*
X226077551Y-78474689D03*
X226077551Y-75934689D03*
X226077551Y-73394689D03*
X202709551Y-86094689D03*
X202709551Y-83554689D03*
X202709551Y-81014689D03*
X202709551Y-78474689D03*
X202709551Y-75934689D03*
X202709551Y-73394689D03*
X179341551Y-86094689D03*
X179341551Y-83554689D03*
X179341551Y-81014689D03*
X179341551Y-78474689D03*
X179341551Y-75934689D03*
X179341551Y-73394689D03*
X155973551Y-86094689D03*
X155973551Y-83554689D03*
X155973551Y-81014689D03*
X155973551Y-78474689D03*
X155973551Y-75934689D03*
X155973551Y-73394689D03*
X132605551Y-86094689D03*
X132605551Y-83554689D03*
X132605551Y-81014689D03*
X132605551Y-78474689D03*
X132605551Y-75934689D03*
X132605551Y-73394689D03*
X109237551Y-86094689D03*
X109237551Y-83554689D03*
X109237551Y-81014689D03*
X109237551Y-78474689D03*
X109237551Y-75934689D03*
X109237551Y-73394689D03*
X85869551Y-86094689D03*
X85869551Y-83554689D03*
X85869551Y-81014689D03*
X85869551Y-78474689D03*
X85869551Y-75934689D03*
X85869551Y-73394689D03*
X62501551Y-86094689D03*
X62501551Y-83554689D03*
X62501551Y-81014689D03*
X62501551Y-78474689D03*
X62501551Y-75934689D03*
X62501551Y-73394689D03*
D11*
X233316551Y-77319689D03*
X233316551Y-75819689D03*
X209948551Y-77319689D03*
X209948551Y-75819689D03*
X186580551Y-77319689D03*
X186580551Y-75819689D03*
X163212551Y-77319689D03*
X163212551Y-75819689D03*
X139844551Y-77319689D03*
X139844551Y-75819689D03*
X116476551Y-77319689D03*
X116476551Y-75819689D03*
X93108551Y-77319689D03*
X93108551Y-75819689D03*
X69740551Y-77319689D03*
X69740551Y-75819689D03*
D15*
X246397551Y-73394689D03*
X246397551Y-75934689D03*
X246397551Y-78474689D03*
X246397551Y-81014689D03*
X246397551Y-83554689D03*
X246397551Y-86094689D03*
X223029551Y-73394689D03*
X223029551Y-75934689D03*
X223029551Y-78474689D03*
X223029551Y-81014689D03*
X223029551Y-83554689D03*
X223029551Y-86094689D03*
X199661551Y-73394689D03*
X199661551Y-75934689D03*
X199661551Y-78474689D03*
X199661551Y-81014689D03*
X199661551Y-83554689D03*
X199661551Y-86094689D03*
X176293551Y-73394689D03*
X176293551Y-75934689D03*
X176293551Y-78474689D03*
X176293551Y-81014689D03*
X176293551Y-83554689D03*
X176293551Y-86094689D03*
X152925551Y-73394689D03*
X152925551Y-75934689D03*
X152925551Y-78474689D03*
X152925551Y-81014689D03*
X152925551Y-83554689D03*
X152925551Y-86094689D03*
X129557551Y-73394689D03*
X129557551Y-75934689D03*
X129557551Y-78474689D03*
X129557551Y-81014689D03*
X129557551Y-83554689D03*
X129557551Y-86094689D03*
X106189551Y-73394689D03*
X106189551Y-75934689D03*
X106189551Y-78474689D03*
X106189551Y-81014689D03*
X106189551Y-83554689D03*
X106189551Y-86094689D03*
X82821551Y-73394689D03*
X82821551Y-75934689D03*
X82821551Y-78474689D03*
X82821551Y-81014689D03*
X82821551Y-83554689D03*
X82821551Y-86094689D03*
D16*
X235696551Y-78220689D03*
X235696551Y-79490689D03*
X235696551Y-80760689D03*
X235696551Y-82030689D03*
X241096551Y-82030689D03*
X241096551Y-80760689D03*
X241096551Y-79490689D03*
X241096551Y-78220689D03*
X212328551Y-78220689D03*
X212328551Y-79490689D03*
X212328551Y-80760689D03*
X212328551Y-82030689D03*
X217728551Y-82030689D03*
X217728551Y-80760689D03*
X217728551Y-79490689D03*
X217728551Y-78220689D03*
X188960551Y-78220689D03*
X188960551Y-79490689D03*
X188960551Y-80760689D03*
X188960551Y-82030689D03*
X194360551Y-82030689D03*
X194360551Y-80760689D03*
X194360551Y-79490689D03*
X194360551Y-78220689D03*
X165592551Y-78220689D03*
X165592551Y-79490689D03*
X165592551Y-80760689D03*
X165592551Y-82030689D03*
X170992551Y-82030689D03*
X170992551Y-80760689D03*
X170992551Y-79490689D03*
X170992551Y-78220689D03*
X142224551Y-78220689D03*
X142224551Y-79490689D03*
X142224551Y-80760689D03*
X142224551Y-82030689D03*
X147624551Y-82030689D03*
X147624551Y-80760689D03*
X147624551Y-79490689D03*
X147624551Y-78220689D03*
X118856551Y-78220689D03*
X118856551Y-79490689D03*
X118856551Y-80760689D03*
X118856551Y-82030689D03*
X124256551Y-82030689D03*
X124256551Y-80760689D03*
X124256551Y-79490689D03*
X124256551Y-78220689D03*
X95488551Y-78220689D03*
X95488551Y-79490689D03*
X95488551Y-80760689D03*
X95488551Y-82030689D03*
X100888551Y-82030689D03*
X100888551Y-80760689D03*
X100888551Y-79490689D03*
X100888551Y-78220689D03*
X72120551Y-78220689D03*
X72120551Y-79490689D03*
X72120551Y-80760689D03*
X72120551Y-82030689D03*
X77520551Y-82030689D03*
X77520551Y-80760689D03*
X77520551Y-79490689D03*
X77520551Y-78220689D03*
D17*
X233189551Y-84292689D03*
X233189551Y-82792689D03*
X209821551Y-84292689D03*
X209821551Y-82792689D03*
X186453551Y-84292689D03*
X186453551Y-82792689D03*
X163085551Y-84292689D03*
X163085551Y-82792689D03*
X139717551Y-84292689D03*
X139717551Y-82792689D03*
X116349551Y-84292689D03*
X116349551Y-82792689D03*
X92981551Y-84292689D03*
X92981551Y-82792689D03*
X69613551Y-84292689D03*
X69613551Y-82792689D03*
X233189551Y-80875689D03*
X233189551Y-79375689D03*
X209821551Y-80875689D03*
X209821551Y-79375689D03*
X186453551Y-80875689D03*
X186453551Y-79375689D03*
X163085551Y-80875689D03*
X163085551Y-79375689D03*
X139717551Y-80875689D03*
X139717551Y-79375689D03*
X116349551Y-80875689D03*
X116349551Y-79375689D03*
X92981551Y-80875689D03*
X92981551Y-79375689D03*
X69613551Y-80875689D03*
X69613551Y-79375689D03*
D10*
G36*
X243493139Y-97376097D02*
X244414513Y-98297471D01*
X242927383Y-99784601D01*
X242006009Y-98863227D01*
X243493139Y-97376097D01*
X243493139Y-97376097D01*
G37*
G36*
X240878089Y-99991147D02*
X241799463Y-100912521D01*
X240312333Y-102399651D01*
X239390959Y-101478277D01*
X240878089Y-99991147D01*
X240878089Y-99991147D01*
G37*
G36*
X242501719Y-101614777D02*
X243423093Y-102536151D01*
X241935963Y-104023281D01*
X241014589Y-103101907D01*
X242501719Y-101614777D01*
X242501719Y-101614777D01*
G37*
G36*
X245116769Y-98999727D02*
X246038143Y-99921101D01*
X244551013Y-101408231D01*
X243629639Y-100486857D01*
X245116769Y-98999727D01*
X245116769Y-98999727D01*
G37*
G36*
X220125139Y-97376097D02*
X221046513Y-98297471D01*
X219559383Y-99784601D01*
X218638009Y-98863227D01*
X220125139Y-97376097D01*
X220125139Y-97376097D01*
G37*
G36*
X217510089Y-99991147D02*
X218431463Y-100912521D01*
X216944333Y-102399651D01*
X216022959Y-101478277D01*
X217510089Y-99991147D01*
X217510089Y-99991147D01*
G37*
G36*
X219133719Y-101614777D02*
X220055093Y-102536151D01*
X218567963Y-104023281D01*
X217646589Y-103101907D01*
X219133719Y-101614777D01*
X219133719Y-101614777D01*
G37*
G36*
X221748769Y-98999727D02*
X222670143Y-99921101D01*
X221183013Y-101408231D01*
X220261639Y-100486857D01*
X221748769Y-98999727D01*
X221748769Y-98999727D01*
G37*
G36*
X196757139Y-97376097D02*
X197678513Y-98297471D01*
X196191383Y-99784601D01*
X195270009Y-98863227D01*
X196757139Y-97376097D01*
X196757139Y-97376097D01*
G37*
G36*
X194142089Y-99991147D02*
X195063463Y-100912521D01*
X193576333Y-102399651D01*
X192654959Y-101478277D01*
X194142089Y-99991147D01*
X194142089Y-99991147D01*
G37*
G36*
X195765719Y-101614777D02*
X196687093Y-102536151D01*
X195199963Y-104023281D01*
X194278589Y-103101907D01*
X195765719Y-101614777D01*
X195765719Y-101614777D01*
G37*
G36*
X198380769Y-98999727D02*
X199302143Y-99921101D01*
X197815013Y-101408231D01*
X196893639Y-100486857D01*
X198380769Y-98999727D01*
X198380769Y-98999727D01*
G37*
G36*
X173389139Y-97376097D02*
X174310513Y-98297471D01*
X172823383Y-99784601D01*
X171902009Y-98863227D01*
X173389139Y-97376097D01*
X173389139Y-97376097D01*
G37*
G36*
X170774089Y-99991147D02*
X171695463Y-100912521D01*
X170208333Y-102399651D01*
X169286959Y-101478277D01*
X170774089Y-99991147D01*
X170774089Y-99991147D01*
G37*
G36*
X172397719Y-101614777D02*
X173319093Y-102536151D01*
X171831963Y-104023281D01*
X170910589Y-103101907D01*
X172397719Y-101614777D01*
X172397719Y-101614777D01*
G37*
G36*
X175012769Y-98999727D02*
X175934143Y-99921101D01*
X174447013Y-101408231D01*
X173525639Y-100486857D01*
X175012769Y-98999727D01*
X175012769Y-98999727D01*
G37*
G36*
X150021139Y-97376097D02*
X150942513Y-98297471D01*
X149455383Y-99784601D01*
X148534009Y-98863227D01*
X150021139Y-97376097D01*
X150021139Y-97376097D01*
G37*
G36*
X147406089Y-99991147D02*
X148327463Y-100912521D01*
X146840333Y-102399651D01*
X145918959Y-101478277D01*
X147406089Y-99991147D01*
X147406089Y-99991147D01*
G37*
G36*
X149029719Y-101614777D02*
X149951093Y-102536151D01*
X148463963Y-104023281D01*
X147542589Y-103101907D01*
X149029719Y-101614777D01*
X149029719Y-101614777D01*
G37*
G36*
X151644769Y-98999727D02*
X152566143Y-99921101D01*
X151079013Y-101408231D01*
X150157639Y-100486857D01*
X151644769Y-98999727D01*
X151644769Y-98999727D01*
G37*
G36*
X126653139Y-97376097D02*
X127574513Y-98297471D01*
X126087383Y-99784601D01*
X125166009Y-98863227D01*
X126653139Y-97376097D01*
X126653139Y-97376097D01*
G37*
G36*
X124038089Y-99991147D02*
X124959463Y-100912521D01*
X123472333Y-102399651D01*
X122550959Y-101478277D01*
X124038089Y-99991147D01*
X124038089Y-99991147D01*
G37*
G36*
X125661719Y-101614777D02*
X126583093Y-102536151D01*
X125095963Y-104023281D01*
X124174589Y-103101907D01*
X125661719Y-101614777D01*
X125661719Y-101614777D01*
G37*
G36*
X128276769Y-98999727D02*
X129198143Y-99921101D01*
X127711013Y-101408231D01*
X126789639Y-100486857D01*
X128276769Y-98999727D01*
X128276769Y-98999727D01*
G37*
G36*
X103285139Y-97376097D02*
X104206513Y-98297471D01*
X102719383Y-99784601D01*
X101798009Y-98863227D01*
X103285139Y-97376097D01*
X103285139Y-97376097D01*
G37*
G36*
X100670089Y-99991147D02*
X101591463Y-100912521D01*
X100104333Y-102399651D01*
X99182959Y-101478277D01*
X100670089Y-99991147D01*
X100670089Y-99991147D01*
G37*
G36*
X102293719Y-101614777D02*
X103215093Y-102536151D01*
X101727963Y-104023281D01*
X100806589Y-103101907D01*
X102293719Y-101614777D01*
X102293719Y-101614777D01*
G37*
G36*
X104908769Y-98999727D02*
X105830143Y-99921101D01*
X104343013Y-101408231D01*
X103421639Y-100486857D01*
X104908769Y-98999727D01*
X104908769Y-98999727D01*
G37*
G36*
X79917139Y-97376097D02*
X80838513Y-98297471D01*
X79351383Y-99784601D01*
X78430009Y-98863227D01*
X79917139Y-97376097D01*
X79917139Y-97376097D01*
G37*
G36*
X77302089Y-99991147D02*
X78223463Y-100912521D01*
X76736333Y-102399651D01*
X75814959Y-101478277D01*
X77302089Y-99991147D01*
X77302089Y-99991147D01*
G37*
G36*
X78925719Y-101614777D02*
X79847093Y-102536151D01*
X78359963Y-104023281D01*
X77438589Y-103101907D01*
X78925719Y-101614777D01*
X78925719Y-101614777D01*
G37*
G36*
X81540769Y-98999727D02*
X82462143Y-99921101D01*
X80975013Y-101408231D01*
X80053639Y-100486857D01*
X81540769Y-98999727D01*
X81540769Y-98999727D01*
G37*
G36*
X232782562Y-103231780D02*
X233562642Y-102451700D01*
X234059880Y-102948938D01*
X233279800Y-103729018D01*
X232782562Y-103231780D01*
X232782562Y-103231780D01*
G37*
G36*
X233843222Y-104292440D02*
X234623302Y-103512360D01*
X235120540Y-104009598D01*
X234340460Y-104789678D01*
X233843222Y-104292440D01*
X233843222Y-104292440D01*
G37*
G36*
X209414562Y-103231780D02*
X210194642Y-102451700D01*
X210691880Y-102948938D01*
X209911800Y-103729018D01*
X209414562Y-103231780D01*
X209414562Y-103231780D01*
G37*
G36*
X210475222Y-104292440D02*
X211255302Y-103512360D01*
X211752540Y-104009598D01*
X210972460Y-104789678D01*
X210475222Y-104292440D01*
X210475222Y-104292440D01*
G37*
G36*
X186046562Y-103231780D02*
X186826642Y-102451700D01*
X187323880Y-102948938D01*
X186543800Y-103729018D01*
X186046562Y-103231780D01*
X186046562Y-103231780D01*
G37*
G36*
X187107222Y-104292440D02*
X187887302Y-103512360D01*
X188384540Y-104009598D01*
X187604460Y-104789678D01*
X187107222Y-104292440D01*
X187107222Y-104292440D01*
G37*
G36*
X162678562Y-103231780D02*
X163458642Y-102451700D01*
X163955880Y-102948938D01*
X163175800Y-103729018D01*
X162678562Y-103231780D01*
X162678562Y-103231780D01*
G37*
G36*
X163739222Y-104292440D02*
X164519302Y-103512360D01*
X165016540Y-104009598D01*
X164236460Y-104789678D01*
X163739222Y-104292440D01*
X163739222Y-104292440D01*
G37*
G36*
X139310562Y-103231780D02*
X140090642Y-102451700D01*
X140587880Y-102948938D01*
X139807800Y-103729018D01*
X139310562Y-103231780D01*
X139310562Y-103231780D01*
G37*
G36*
X140371222Y-104292440D02*
X141151302Y-103512360D01*
X141648540Y-104009598D01*
X140868460Y-104789678D01*
X140371222Y-104292440D01*
X140371222Y-104292440D01*
G37*
G36*
X115942562Y-103231780D02*
X116722642Y-102451700D01*
X117219880Y-102948938D01*
X116439800Y-103729018D01*
X115942562Y-103231780D01*
X115942562Y-103231780D01*
G37*
G36*
X117003222Y-104292440D02*
X117783302Y-103512360D01*
X118280540Y-104009598D01*
X117500460Y-104789678D01*
X117003222Y-104292440D01*
X117003222Y-104292440D01*
G37*
G36*
X92574562Y-103231780D02*
X93354642Y-102451700D01*
X93851880Y-102948938D01*
X93071800Y-103729018D01*
X92574562Y-103231780D01*
X92574562Y-103231780D01*
G37*
G36*
X93635222Y-104292440D02*
X94415302Y-103512360D01*
X94912540Y-104009598D01*
X94132460Y-104789678D01*
X93635222Y-104292440D01*
X93635222Y-104292440D01*
G37*
G36*
X69206562Y-103231780D02*
X69986642Y-102451700D01*
X70483880Y-102948938D01*
X69703800Y-103729018D01*
X69206562Y-103231780D01*
X69206562Y-103231780D01*
G37*
G36*
X70267222Y-104292440D02*
X71047302Y-103512360D01*
X71544540Y-104009598D01*
X70764460Y-104789678D01*
X70267222Y-104292440D01*
X70267222Y-104292440D01*
G37*
G36*
X239700913Y-103362037D02*
X239026899Y-104036051D01*
X238317529Y-103326681D01*
X238991543Y-102652667D01*
X239700913Y-103362037D01*
X239700913Y-103362037D01*
G37*
G36*
X240761573Y-104422697D02*
X240087559Y-105096711D01*
X239378189Y-104387341D01*
X240052203Y-103713327D01*
X240761573Y-104422697D01*
X240761573Y-104422697D01*
G37*
G36*
X216332913Y-103362037D02*
X215658899Y-104036051D01*
X214949529Y-103326681D01*
X215623543Y-102652667D01*
X216332913Y-103362037D01*
X216332913Y-103362037D01*
G37*
G36*
X217393573Y-104422697D02*
X216719559Y-105096711D01*
X216010189Y-104387341D01*
X216684203Y-103713327D01*
X217393573Y-104422697D01*
X217393573Y-104422697D01*
G37*
G36*
X192964913Y-103362037D02*
X192290899Y-104036051D01*
X191581529Y-103326681D01*
X192255543Y-102652667D01*
X192964913Y-103362037D01*
X192964913Y-103362037D01*
G37*
G36*
X194025573Y-104422697D02*
X193351559Y-105096711D01*
X192642189Y-104387341D01*
X193316203Y-103713327D01*
X194025573Y-104422697D01*
X194025573Y-104422697D01*
G37*
G36*
X169596913Y-103362037D02*
X168922899Y-104036051D01*
X168213529Y-103326681D01*
X168887543Y-102652667D01*
X169596913Y-103362037D01*
X169596913Y-103362037D01*
G37*
G36*
X170657573Y-104422697D02*
X169983559Y-105096711D01*
X169274189Y-104387341D01*
X169948203Y-103713327D01*
X170657573Y-104422697D01*
X170657573Y-104422697D01*
G37*
G36*
X146228913Y-103362037D02*
X145554899Y-104036051D01*
X144845529Y-103326681D01*
X145519543Y-102652667D01*
X146228913Y-103362037D01*
X146228913Y-103362037D01*
G37*
G36*
X147289573Y-104422697D02*
X146615559Y-105096711D01*
X145906189Y-104387341D01*
X146580203Y-103713327D01*
X147289573Y-104422697D01*
X147289573Y-104422697D01*
G37*
G36*
X122860913Y-103362037D02*
X122186899Y-104036051D01*
X121477529Y-103326681D01*
X122151543Y-102652667D01*
X122860913Y-103362037D01*
X122860913Y-103362037D01*
G37*
G36*
X123921573Y-104422697D02*
X123247559Y-105096711D01*
X122538189Y-104387341D01*
X123212203Y-103713327D01*
X123921573Y-104422697D01*
X123921573Y-104422697D01*
G37*
G36*
X99492913Y-103362037D02*
X98818899Y-104036051D01*
X98109529Y-103326681D01*
X98783543Y-102652667D01*
X99492913Y-103362037D01*
X99492913Y-103362037D01*
G37*
G36*
X100553573Y-104422697D02*
X99879559Y-105096711D01*
X99170189Y-104387341D01*
X99844203Y-103713327D01*
X100553573Y-104422697D01*
X100553573Y-104422697D01*
G37*
G36*
X76124913Y-103362037D02*
X75450899Y-104036051D01*
X74741529Y-103326681D01*
X75415543Y-102652667D01*
X76124913Y-103362037D01*
X76124913Y-103362037D01*
G37*
G36*
X77185573Y-104422697D02*
X76511559Y-105096711D01*
X75802189Y-104387341D01*
X76476203Y-103713327D01*
X77185573Y-104422697D01*
X77185573Y-104422697D01*
G37*
G36*
X245601189Y-97910341D02*
X246275203Y-97236327D01*
X246984573Y-97945697D01*
X246310559Y-98619711D01*
X245601189Y-97910341D01*
X245601189Y-97910341D01*
G37*
G36*
X244540529Y-96849681D02*
X245214543Y-96175667D01*
X245923913Y-96885037D01*
X245249899Y-97559051D01*
X244540529Y-96849681D01*
X244540529Y-96849681D01*
G37*
G36*
X222233189Y-97910341D02*
X222907203Y-97236327D01*
X223616573Y-97945697D01*
X222942559Y-98619711D01*
X222233189Y-97910341D01*
X222233189Y-97910341D01*
G37*
G36*
X221172529Y-96849681D02*
X221846543Y-96175667D01*
X222555913Y-96885037D01*
X221881899Y-97559051D01*
X221172529Y-96849681D01*
X221172529Y-96849681D01*
G37*
G36*
X198865189Y-97910341D02*
X199539203Y-97236327D01*
X200248573Y-97945697D01*
X199574559Y-98619711D01*
X198865189Y-97910341D01*
X198865189Y-97910341D01*
G37*
G36*
X197804529Y-96849681D02*
X198478543Y-96175667D01*
X199187913Y-96885037D01*
X198513899Y-97559051D01*
X197804529Y-96849681D01*
X197804529Y-96849681D01*
G37*
G36*
X175497189Y-97910341D02*
X176171203Y-97236327D01*
X176880573Y-97945697D01*
X176206559Y-98619711D01*
X175497189Y-97910341D01*
X175497189Y-97910341D01*
G37*
G36*
X174436529Y-96849681D02*
X175110543Y-96175667D01*
X175819913Y-96885037D01*
X175145899Y-97559051D01*
X174436529Y-96849681D01*
X174436529Y-96849681D01*
G37*
G36*
X152129189Y-97910341D02*
X152803203Y-97236327D01*
X153512573Y-97945697D01*
X152838559Y-98619711D01*
X152129189Y-97910341D01*
X152129189Y-97910341D01*
G37*
G36*
X151068529Y-96849681D02*
X151742543Y-96175667D01*
X152451913Y-96885037D01*
X151777899Y-97559051D01*
X151068529Y-96849681D01*
X151068529Y-96849681D01*
G37*
G36*
X128761189Y-97910341D02*
X129435203Y-97236327D01*
X130144573Y-97945697D01*
X129470559Y-98619711D01*
X128761189Y-97910341D01*
X128761189Y-97910341D01*
G37*
G36*
X127700529Y-96849681D02*
X128374543Y-96175667D01*
X129083913Y-96885037D01*
X128409899Y-97559051D01*
X127700529Y-96849681D01*
X127700529Y-96849681D01*
G37*
G36*
X105393189Y-97910341D02*
X106067203Y-97236327D01*
X106776573Y-97945697D01*
X106102559Y-98619711D01*
X105393189Y-97910341D01*
X105393189Y-97910341D01*
G37*
G36*
X104332529Y-96849681D02*
X105006543Y-96175667D01*
X105715913Y-96885037D01*
X105041899Y-97559051D01*
X104332529Y-96849681D01*
X104332529Y-96849681D01*
G37*
G36*
X82025189Y-97910341D02*
X82699203Y-97236327D01*
X83408573Y-97945697D01*
X82734559Y-98619711D01*
X82025189Y-97910341D01*
X82025189Y-97910341D01*
G37*
G36*
X80964529Y-96849681D02*
X81638543Y-96175667D01*
X82347913Y-96885037D01*
X81673899Y-97559051D01*
X80964529Y-96849681D01*
X80964529Y-96849681D01*
G37*
G36*
X227723899Y-89616327D02*
X228397913Y-90290341D01*
X227688543Y-90999711D01*
X227014529Y-90325697D01*
X227723899Y-89616327D01*
X227723899Y-89616327D01*
G37*
G36*
X228784559Y-88555667D02*
X229458573Y-89229681D01*
X228749203Y-89939051D01*
X228075189Y-89265037D01*
X228784559Y-88555667D01*
X228784559Y-88555667D01*
G37*
G36*
X204355899Y-89616327D02*
X205029913Y-90290341D01*
X204320543Y-90999711D01*
X203646529Y-90325697D01*
X204355899Y-89616327D01*
X204355899Y-89616327D01*
G37*
G36*
X205416559Y-88555667D02*
X206090573Y-89229681D01*
X205381203Y-89939051D01*
X204707189Y-89265037D01*
X205416559Y-88555667D01*
X205416559Y-88555667D01*
G37*
G36*
X180987899Y-89616327D02*
X181661913Y-90290341D01*
X180952543Y-90999711D01*
X180278529Y-90325697D01*
X180987899Y-89616327D01*
X180987899Y-89616327D01*
G37*
G36*
X182048559Y-88555667D02*
X182722573Y-89229681D01*
X182013203Y-89939051D01*
X181339189Y-89265037D01*
X182048559Y-88555667D01*
X182048559Y-88555667D01*
G37*
G36*
X157619899Y-89616327D02*
X158293913Y-90290341D01*
X157584543Y-90999711D01*
X156910529Y-90325697D01*
X157619899Y-89616327D01*
X157619899Y-89616327D01*
G37*
G36*
X158680559Y-88555667D02*
X159354573Y-89229681D01*
X158645203Y-89939051D01*
X157971189Y-89265037D01*
X158680559Y-88555667D01*
X158680559Y-88555667D01*
G37*
G36*
X134251899Y-89616327D02*
X134925913Y-90290341D01*
X134216543Y-90999711D01*
X133542529Y-90325697D01*
X134251899Y-89616327D01*
X134251899Y-89616327D01*
G37*
G36*
X135312559Y-88555667D02*
X135986573Y-89229681D01*
X135277203Y-89939051D01*
X134603189Y-89265037D01*
X135312559Y-88555667D01*
X135312559Y-88555667D01*
G37*
G36*
X110883899Y-89616327D02*
X111557913Y-90290341D01*
X110848543Y-90999711D01*
X110174529Y-90325697D01*
X110883899Y-89616327D01*
X110883899Y-89616327D01*
G37*
G36*
X111944559Y-88555667D02*
X112618573Y-89229681D01*
X111909203Y-89939051D01*
X111235189Y-89265037D01*
X111944559Y-88555667D01*
X111944559Y-88555667D01*
G37*
G36*
X87515899Y-89616327D02*
X88189913Y-90290341D01*
X87480543Y-90999711D01*
X86806529Y-90325697D01*
X87515899Y-89616327D01*
X87515899Y-89616327D01*
G37*
G36*
X88576559Y-88555667D02*
X89250573Y-89229681D01*
X88541203Y-89939051D01*
X87867189Y-89265037D01*
X88576559Y-88555667D01*
X88576559Y-88555667D01*
G37*
G36*
X64147899Y-89616327D02*
X64821913Y-90290341D01*
X64112543Y-90999711D01*
X63438529Y-90325697D01*
X64147899Y-89616327D01*
X64147899Y-89616327D01*
G37*
G36*
X65208559Y-88555667D02*
X65882573Y-89229681D01*
X65173203Y-89939051D01*
X64499189Y-89265037D01*
X65208559Y-88555667D01*
X65208559Y-88555667D01*
G37*
G36*
X227208519Y-97551671D02*
X227882533Y-96877657D01*
X228591903Y-97587027D01*
X227917889Y-98261041D01*
X227208519Y-97551671D01*
X227208519Y-97551671D01*
G37*
G36*
X226147859Y-96491011D02*
X226821873Y-95816997D01*
X227531243Y-96526367D01*
X226857229Y-97200381D01*
X226147859Y-96491011D01*
X226147859Y-96491011D01*
G37*
G36*
X203840519Y-97551671D02*
X204514533Y-96877657D01*
X205223903Y-97587027D01*
X204549889Y-98261041D01*
X203840519Y-97551671D01*
X203840519Y-97551671D01*
G37*
G36*
X202779859Y-96491011D02*
X203453873Y-95816997D01*
X204163243Y-96526367D01*
X203489229Y-97200381D01*
X202779859Y-96491011D01*
X202779859Y-96491011D01*
G37*
G36*
X180472519Y-97551671D02*
X181146533Y-96877657D01*
X181855903Y-97587027D01*
X181181889Y-98261041D01*
X180472519Y-97551671D01*
X180472519Y-97551671D01*
G37*
G36*
X179411859Y-96491011D02*
X180085873Y-95816997D01*
X180795243Y-96526367D01*
X180121229Y-97200381D01*
X179411859Y-96491011D01*
X179411859Y-96491011D01*
G37*
G36*
X157104519Y-97551671D02*
X157778533Y-96877657D01*
X158487903Y-97587027D01*
X157813889Y-98261041D01*
X157104519Y-97551671D01*
X157104519Y-97551671D01*
G37*
G36*
X156043859Y-96491011D02*
X156717873Y-95816997D01*
X157427243Y-96526367D01*
X156753229Y-97200381D01*
X156043859Y-96491011D01*
X156043859Y-96491011D01*
G37*
G36*
X133736519Y-97551671D02*
X134410533Y-96877657D01*
X135119903Y-97587027D01*
X134445889Y-98261041D01*
X133736519Y-97551671D01*
X133736519Y-97551671D01*
G37*
G36*
X132675859Y-96491011D02*
X133349873Y-95816997D01*
X134059243Y-96526367D01*
X133385229Y-97200381D01*
X132675859Y-96491011D01*
X132675859Y-96491011D01*
G37*
G36*
X110368519Y-97551671D02*
X111042533Y-96877657D01*
X111751903Y-97587027D01*
X111077889Y-98261041D01*
X110368519Y-97551671D01*
X110368519Y-97551671D01*
G37*
G36*
X109307859Y-96491011D02*
X109981873Y-95816997D01*
X110691243Y-96526367D01*
X110017229Y-97200381D01*
X109307859Y-96491011D01*
X109307859Y-96491011D01*
G37*
G36*
X87000519Y-97551671D02*
X87674533Y-96877657D01*
X88383903Y-97587027D01*
X87709889Y-98261041D01*
X87000519Y-97551671D01*
X87000519Y-97551671D01*
G37*
G36*
X85939859Y-96491011D02*
X86613873Y-95816997D01*
X87323243Y-96526367D01*
X86649229Y-97200381D01*
X85939859Y-96491011D01*
X85939859Y-96491011D01*
G37*
G36*
X63632519Y-97551671D02*
X64306533Y-96877657D01*
X65015903Y-97587027D01*
X64341889Y-98261041D01*
X63632519Y-97551671D01*
X63632519Y-97551671D01*
G37*
G36*
X62571859Y-96491011D02*
X63245873Y-95816997D01*
X63955243Y-96526367D01*
X63281229Y-97200381D01*
X62571859Y-96491011D01*
X62571859Y-96491011D01*
G37*
G36*
X228956359Y-95837621D02*
X228460649Y-95341911D01*
X229664003Y-94138557D01*
X230159713Y-94634267D01*
X228956359Y-95837621D01*
X228956359Y-95837621D01*
G37*
G36*
X229522116Y-96403377D02*
X229026406Y-95907667D01*
X230229760Y-94704313D01*
X230725470Y-95200023D01*
X229522116Y-96403377D01*
X229522116Y-96403377D01*
G37*
G36*
X230087872Y-96969134D02*
X229592162Y-96473424D01*
X230795516Y-95270070D01*
X231291226Y-95765780D01*
X230087872Y-96969134D01*
X230087872Y-96969134D01*
G37*
G36*
X230653628Y-97534890D02*
X230157918Y-97039180D01*
X231361272Y-95835826D01*
X231856982Y-96331536D01*
X230653628Y-97534890D01*
X230653628Y-97534890D01*
G37*
G36*
X231219384Y-98100646D02*
X230723674Y-97604936D01*
X231927028Y-96401582D01*
X232422738Y-96897292D01*
X231219384Y-98100646D01*
X231219384Y-98100646D01*
G37*
G36*
X231783344Y-98664606D02*
X231287634Y-98168896D01*
X232490988Y-96965542D01*
X232986698Y-97461252D01*
X231783344Y-98664606D01*
X231783344Y-98664606D01*
G37*
G36*
X232347304Y-99228566D02*
X231851594Y-98732856D01*
X233054948Y-97529502D01*
X233550658Y-98025212D01*
X232347304Y-99228566D01*
X232347304Y-99228566D01*
G37*
G36*
X232913060Y-99794322D02*
X232417350Y-99298612D01*
X233620704Y-98095258D01*
X234116414Y-98590968D01*
X232913060Y-99794322D01*
X232913060Y-99794322D01*
G37*
G36*
X233478816Y-100360078D02*
X232983106Y-99864368D01*
X234186460Y-98661014D01*
X234682170Y-99156724D01*
X233478816Y-100360078D01*
X233478816Y-100360078D01*
G37*
G36*
X234044573Y-100925834D02*
X233548863Y-100430124D01*
X234752217Y-99226770D01*
X235247927Y-99722480D01*
X234044573Y-100925834D01*
X234044573Y-100925834D01*
G37*
G36*
X234610329Y-101491591D02*
X234114619Y-100995881D01*
X235317973Y-99792527D01*
X235813683Y-100288237D01*
X234610329Y-101491591D01*
X234610329Y-101491591D01*
G37*
G36*
X237864773Y-101491591D02*
X236661419Y-100288237D01*
X237157129Y-99792527D01*
X238360483Y-100995881D01*
X237864773Y-101491591D01*
X237864773Y-101491591D01*
G37*
G36*
X238430529Y-100925834D02*
X237227175Y-99722480D01*
X237722885Y-99226770D01*
X238926239Y-100430124D01*
X238430529Y-100925834D01*
X238430529Y-100925834D01*
G37*
G36*
X238996286Y-100360078D02*
X237792932Y-99156724D01*
X238288642Y-98661014D01*
X239491996Y-99864368D01*
X238996286Y-100360078D01*
X238996286Y-100360078D01*
G37*
G36*
X239562042Y-99794322D02*
X238358688Y-98590968D01*
X238854398Y-98095258D01*
X240057752Y-99298612D01*
X239562042Y-99794322D01*
X239562042Y-99794322D01*
G37*
G36*
X240127798Y-99228566D02*
X238924444Y-98025212D01*
X239420154Y-97529502D01*
X240623508Y-98732856D01*
X240127798Y-99228566D01*
X240127798Y-99228566D01*
G37*
G36*
X240691758Y-98664606D02*
X239488404Y-97461252D01*
X239984114Y-96965542D01*
X241187468Y-98168896D01*
X240691758Y-98664606D01*
X240691758Y-98664606D01*
G37*
G36*
X241255718Y-98100646D02*
X240052364Y-96897292D01*
X240548074Y-96401582D01*
X241751428Y-97604936D01*
X241255718Y-98100646D01*
X241255718Y-98100646D01*
G37*
G36*
X241821474Y-97534890D02*
X240618120Y-96331536D01*
X241113830Y-95835826D01*
X242317184Y-97039180D01*
X241821474Y-97534890D01*
X241821474Y-97534890D01*
G37*
G36*
X242387230Y-96969134D02*
X241183876Y-95765780D01*
X241679586Y-95270070D01*
X242882940Y-96473424D01*
X242387230Y-96969134D01*
X242387230Y-96969134D01*
G37*
G36*
X242952986Y-96403377D02*
X241749632Y-95200023D01*
X242245342Y-94704313D01*
X243448696Y-95907667D01*
X242952986Y-96403377D01*
X242952986Y-96403377D01*
G37*
G36*
X243518743Y-95837621D02*
X242315389Y-94634267D01*
X242811099Y-94138557D01*
X244014453Y-95341911D01*
X243518743Y-95837621D01*
X243518743Y-95837621D01*
G37*
G36*
X242811099Y-93290821D02*
X242315389Y-92795111D01*
X243518743Y-91591757D01*
X244014453Y-92087467D01*
X242811099Y-93290821D01*
X242811099Y-93290821D01*
G37*
G36*
X242245342Y-92725065D02*
X241749632Y-92229355D01*
X242952986Y-91026001D01*
X243448696Y-91521711D01*
X242245342Y-92725065D01*
X242245342Y-92725065D01*
G37*
G36*
X241679586Y-92159308D02*
X241183876Y-91663598D01*
X242387230Y-90460244D01*
X242882940Y-90955954D01*
X241679586Y-92159308D01*
X241679586Y-92159308D01*
G37*
G36*
X241113830Y-91593552D02*
X240618120Y-91097842D01*
X241821474Y-89894488D01*
X242317184Y-90390198D01*
X241113830Y-91593552D01*
X241113830Y-91593552D01*
G37*
G36*
X240548074Y-91027796D02*
X240052364Y-90532086D01*
X241255718Y-89328732D01*
X241751428Y-89824442D01*
X240548074Y-91027796D01*
X240548074Y-91027796D01*
G37*
G36*
X239984114Y-90463836D02*
X239488404Y-89968126D01*
X240691758Y-88764772D01*
X241187468Y-89260482D01*
X239984114Y-90463836D01*
X239984114Y-90463836D01*
G37*
G36*
X239420154Y-89899876D02*
X238924444Y-89404166D01*
X240127798Y-88200812D01*
X240623508Y-88696522D01*
X239420154Y-89899876D01*
X239420154Y-89899876D01*
G37*
G36*
X238854398Y-89334120D02*
X238358688Y-88838410D01*
X239562042Y-87635056D01*
X240057752Y-88130766D01*
X238854398Y-89334120D01*
X238854398Y-89334120D01*
G37*
G36*
X238288642Y-88768364D02*
X237792932Y-88272654D01*
X238996286Y-87069300D01*
X239491996Y-87565010D01*
X238288642Y-88768364D01*
X238288642Y-88768364D01*
G37*
G36*
X237722885Y-88202608D02*
X237227175Y-87706898D01*
X238430529Y-86503544D01*
X238926239Y-86999254D01*
X237722885Y-88202608D01*
X237722885Y-88202608D01*
G37*
G36*
X237157129Y-87636851D02*
X236661419Y-87141141D01*
X237864773Y-85937787D01*
X238360483Y-86433497D01*
X237157129Y-87636851D01*
X237157129Y-87636851D01*
G37*
G36*
X235317973Y-87636851D02*
X234114619Y-86433497D01*
X234610329Y-85937787D01*
X235813683Y-87141141D01*
X235317973Y-87636851D01*
X235317973Y-87636851D01*
G37*
G36*
X234752217Y-88202608D02*
X233548863Y-86999254D01*
X234044573Y-86503544D01*
X235247927Y-87706898D01*
X234752217Y-88202608D01*
X234752217Y-88202608D01*
G37*
G36*
X234186460Y-88768364D02*
X232983106Y-87565010D01*
X233478816Y-87069300D01*
X234682170Y-88272654D01*
X234186460Y-88768364D01*
X234186460Y-88768364D01*
G37*
G36*
X233620704Y-89334120D02*
X232417350Y-88130766D01*
X232913060Y-87635056D01*
X234116414Y-88838410D01*
X233620704Y-89334120D01*
X233620704Y-89334120D01*
G37*
G36*
X233054948Y-89899876D02*
X231851594Y-88696522D01*
X232347304Y-88200812D01*
X233550658Y-89404166D01*
X233054948Y-89899876D01*
X233054948Y-89899876D01*
G37*
G36*
X232490988Y-90463836D02*
X231287634Y-89260482D01*
X231783344Y-88764772D01*
X232986698Y-89968126D01*
X232490988Y-90463836D01*
X232490988Y-90463836D01*
G37*
G36*
X231927028Y-91027796D02*
X230723674Y-89824442D01*
X231219384Y-89328732D01*
X232422738Y-90532086D01*
X231927028Y-91027796D01*
X231927028Y-91027796D01*
G37*
G36*
X231361272Y-91593552D02*
X230157918Y-90390198D01*
X230653628Y-89894488D01*
X231856982Y-91097842D01*
X231361272Y-91593552D01*
X231361272Y-91593552D01*
G37*
G36*
X230795516Y-92159308D02*
X229592162Y-90955954D01*
X230087872Y-90460244D01*
X231291226Y-91663598D01*
X230795516Y-92159308D01*
X230795516Y-92159308D01*
G37*
G36*
X230229760Y-92725065D02*
X229026406Y-91521711D01*
X229522116Y-91026001D01*
X230725470Y-92229355D01*
X230229760Y-92725065D01*
X230229760Y-92725065D01*
G37*
G36*
X229664003Y-93290821D02*
X228460649Y-92087467D01*
X228956359Y-91591757D01*
X230159713Y-92795111D01*
X229664003Y-93290821D01*
X229664003Y-93290821D01*
G37*
G36*
X205588359Y-95837621D02*
X205092649Y-95341911D01*
X206296003Y-94138557D01*
X206791713Y-94634267D01*
X205588359Y-95837621D01*
X205588359Y-95837621D01*
G37*
G36*
X206154116Y-96403377D02*
X205658406Y-95907667D01*
X206861760Y-94704313D01*
X207357470Y-95200023D01*
X206154116Y-96403377D01*
X206154116Y-96403377D01*
G37*
G36*
X206719872Y-96969134D02*
X206224162Y-96473424D01*
X207427516Y-95270070D01*
X207923226Y-95765780D01*
X206719872Y-96969134D01*
X206719872Y-96969134D01*
G37*
G36*
X207285628Y-97534890D02*
X206789918Y-97039180D01*
X207993272Y-95835826D01*
X208488982Y-96331536D01*
X207285628Y-97534890D01*
X207285628Y-97534890D01*
G37*
G36*
X207851384Y-98100646D02*
X207355674Y-97604936D01*
X208559028Y-96401582D01*
X209054738Y-96897292D01*
X207851384Y-98100646D01*
X207851384Y-98100646D01*
G37*
G36*
X208415344Y-98664606D02*
X207919634Y-98168896D01*
X209122988Y-96965542D01*
X209618698Y-97461252D01*
X208415344Y-98664606D01*
X208415344Y-98664606D01*
G37*
G36*
X208979304Y-99228566D02*
X208483594Y-98732856D01*
X209686948Y-97529502D01*
X210182658Y-98025212D01*
X208979304Y-99228566D01*
X208979304Y-99228566D01*
G37*
G36*
X209545060Y-99794322D02*
X209049350Y-99298612D01*
X210252704Y-98095258D01*
X210748414Y-98590968D01*
X209545060Y-99794322D01*
X209545060Y-99794322D01*
G37*
G36*
X210110816Y-100360078D02*
X209615106Y-99864368D01*
X210818460Y-98661014D01*
X211314170Y-99156724D01*
X210110816Y-100360078D01*
X210110816Y-100360078D01*
G37*
G36*
X210676573Y-100925834D02*
X210180863Y-100430124D01*
X211384217Y-99226770D01*
X211879927Y-99722480D01*
X210676573Y-100925834D01*
X210676573Y-100925834D01*
G37*
G36*
X211242329Y-101491591D02*
X210746619Y-100995881D01*
X211949973Y-99792527D01*
X212445683Y-100288237D01*
X211242329Y-101491591D01*
X211242329Y-101491591D01*
G37*
G36*
X214496773Y-101491591D02*
X213293419Y-100288237D01*
X213789129Y-99792527D01*
X214992483Y-100995881D01*
X214496773Y-101491591D01*
X214496773Y-101491591D01*
G37*
G36*
X215062529Y-100925834D02*
X213859175Y-99722480D01*
X214354885Y-99226770D01*
X215558239Y-100430124D01*
X215062529Y-100925834D01*
X215062529Y-100925834D01*
G37*
G36*
X215628286Y-100360078D02*
X214424932Y-99156724D01*
X214920642Y-98661014D01*
X216123996Y-99864368D01*
X215628286Y-100360078D01*
X215628286Y-100360078D01*
G37*
G36*
X216194042Y-99794322D02*
X214990688Y-98590968D01*
X215486398Y-98095258D01*
X216689752Y-99298612D01*
X216194042Y-99794322D01*
X216194042Y-99794322D01*
G37*
G36*
X216759798Y-99228566D02*
X215556444Y-98025212D01*
X216052154Y-97529502D01*
X217255508Y-98732856D01*
X216759798Y-99228566D01*
X216759798Y-99228566D01*
G37*
G36*
X217323758Y-98664606D02*
X216120404Y-97461252D01*
X216616114Y-96965542D01*
X217819468Y-98168896D01*
X217323758Y-98664606D01*
X217323758Y-98664606D01*
G37*
G36*
X217887718Y-98100646D02*
X216684364Y-96897292D01*
X217180074Y-96401582D01*
X218383428Y-97604936D01*
X217887718Y-98100646D01*
X217887718Y-98100646D01*
G37*
G36*
X218453474Y-97534890D02*
X217250120Y-96331536D01*
X217745830Y-95835826D01*
X218949184Y-97039180D01*
X218453474Y-97534890D01*
X218453474Y-97534890D01*
G37*
G36*
X219019230Y-96969134D02*
X217815876Y-95765780D01*
X218311586Y-95270070D01*
X219514940Y-96473424D01*
X219019230Y-96969134D01*
X219019230Y-96969134D01*
G37*
G36*
X219584986Y-96403377D02*
X218381632Y-95200023D01*
X218877342Y-94704313D01*
X220080696Y-95907667D01*
X219584986Y-96403377D01*
X219584986Y-96403377D01*
G37*
G36*
X220150743Y-95837621D02*
X218947389Y-94634267D01*
X219443099Y-94138557D01*
X220646453Y-95341911D01*
X220150743Y-95837621D01*
X220150743Y-95837621D01*
G37*
G36*
X219443099Y-93290821D02*
X218947389Y-92795111D01*
X220150743Y-91591757D01*
X220646453Y-92087467D01*
X219443099Y-93290821D01*
X219443099Y-93290821D01*
G37*
G36*
X218877342Y-92725065D02*
X218381632Y-92229355D01*
X219584986Y-91026001D01*
X220080696Y-91521711D01*
X218877342Y-92725065D01*
X218877342Y-92725065D01*
G37*
G36*
X218311586Y-92159308D02*
X217815876Y-91663598D01*
X219019230Y-90460244D01*
X219514940Y-90955954D01*
X218311586Y-92159308D01*
X218311586Y-92159308D01*
G37*
G36*
X217745830Y-91593552D02*
X217250120Y-91097842D01*
X218453474Y-89894488D01*
X218949184Y-90390198D01*
X217745830Y-91593552D01*
X217745830Y-91593552D01*
G37*
G36*
X217180074Y-91027796D02*
X216684364Y-90532086D01*
X217887718Y-89328732D01*
X218383428Y-89824442D01*
X217180074Y-91027796D01*
X217180074Y-91027796D01*
G37*
G36*
X216616114Y-90463836D02*
X216120404Y-89968126D01*
X217323758Y-88764772D01*
X217819468Y-89260482D01*
X216616114Y-90463836D01*
X216616114Y-90463836D01*
G37*
G36*
X216052154Y-89899876D02*
X215556444Y-89404166D01*
X216759798Y-88200812D01*
X217255508Y-88696522D01*
X216052154Y-89899876D01*
X216052154Y-89899876D01*
G37*
G36*
X215486398Y-89334120D02*
X214990688Y-88838410D01*
X216194042Y-87635056D01*
X216689752Y-88130766D01*
X215486398Y-89334120D01*
X215486398Y-89334120D01*
G37*
G36*
X214920642Y-88768364D02*
X214424932Y-88272654D01*
X215628286Y-87069300D01*
X216123996Y-87565010D01*
X214920642Y-88768364D01*
X214920642Y-88768364D01*
G37*
G36*
X214354885Y-88202608D02*
X213859175Y-87706898D01*
X215062529Y-86503544D01*
X215558239Y-86999254D01*
X214354885Y-88202608D01*
X214354885Y-88202608D01*
G37*
G36*
X213789129Y-87636851D02*
X213293419Y-87141141D01*
X214496773Y-85937787D01*
X214992483Y-86433497D01*
X213789129Y-87636851D01*
X213789129Y-87636851D01*
G37*
G36*
X211949973Y-87636851D02*
X210746619Y-86433497D01*
X211242329Y-85937787D01*
X212445683Y-87141141D01*
X211949973Y-87636851D01*
X211949973Y-87636851D01*
G37*
G36*
X211384217Y-88202608D02*
X210180863Y-86999254D01*
X210676573Y-86503544D01*
X211879927Y-87706898D01*
X211384217Y-88202608D01*
X211384217Y-88202608D01*
G37*
G36*
X210818460Y-88768364D02*
X209615106Y-87565010D01*
X210110816Y-87069300D01*
X211314170Y-88272654D01*
X210818460Y-88768364D01*
X210818460Y-88768364D01*
G37*
G36*
X210252704Y-89334120D02*
X209049350Y-88130766D01*
X209545060Y-87635056D01*
X210748414Y-88838410D01*
X210252704Y-89334120D01*
X210252704Y-89334120D01*
G37*
G36*
X209686948Y-89899876D02*
X208483594Y-88696522D01*
X208979304Y-88200812D01*
X210182658Y-89404166D01*
X209686948Y-89899876D01*
X209686948Y-89899876D01*
G37*
G36*
X209122988Y-90463836D02*
X207919634Y-89260482D01*
X208415344Y-88764772D01*
X209618698Y-89968126D01*
X209122988Y-90463836D01*
X209122988Y-90463836D01*
G37*
G36*
X208559028Y-91027796D02*
X207355674Y-89824442D01*
X207851384Y-89328732D01*
X209054738Y-90532086D01*
X208559028Y-91027796D01*
X208559028Y-91027796D01*
G37*
G36*
X207993272Y-91593552D02*
X206789918Y-90390198D01*
X207285628Y-89894488D01*
X208488982Y-91097842D01*
X207993272Y-91593552D01*
X207993272Y-91593552D01*
G37*
G36*
X207427516Y-92159308D02*
X206224162Y-90955954D01*
X206719872Y-90460244D01*
X207923226Y-91663598D01*
X207427516Y-92159308D01*
X207427516Y-92159308D01*
G37*
G36*
X206861760Y-92725065D02*
X205658406Y-91521711D01*
X206154116Y-91026001D01*
X207357470Y-92229355D01*
X206861760Y-92725065D01*
X206861760Y-92725065D01*
G37*
G36*
X206296003Y-93290821D02*
X205092649Y-92087467D01*
X205588359Y-91591757D01*
X206791713Y-92795111D01*
X206296003Y-93290821D01*
X206296003Y-93290821D01*
G37*
G36*
X182220359Y-95837621D02*
X181724649Y-95341911D01*
X182928003Y-94138557D01*
X183423713Y-94634267D01*
X182220359Y-95837621D01*
X182220359Y-95837621D01*
G37*
G36*
X182786116Y-96403377D02*
X182290406Y-95907667D01*
X183493760Y-94704313D01*
X183989470Y-95200023D01*
X182786116Y-96403377D01*
X182786116Y-96403377D01*
G37*
G36*
X183351872Y-96969134D02*
X182856162Y-96473424D01*
X184059516Y-95270070D01*
X184555226Y-95765780D01*
X183351872Y-96969134D01*
X183351872Y-96969134D01*
G37*
G36*
X183917628Y-97534890D02*
X183421918Y-97039180D01*
X184625272Y-95835826D01*
X185120982Y-96331536D01*
X183917628Y-97534890D01*
X183917628Y-97534890D01*
G37*
G36*
X184483384Y-98100646D02*
X183987674Y-97604936D01*
X185191028Y-96401582D01*
X185686738Y-96897292D01*
X184483384Y-98100646D01*
X184483384Y-98100646D01*
G37*
G36*
X185047344Y-98664606D02*
X184551634Y-98168896D01*
X185754988Y-96965542D01*
X186250698Y-97461252D01*
X185047344Y-98664606D01*
X185047344Y-98664606D01*
G37*
G36*
X185611304Y-99228566D02*
X185115594Y-98732856D01*
X186318948Y-97529502D01*
X186814658Y-98025212D01*
X185611304Y-99228566D01*
X185611304Y-99228566D01*
G37*
G36*
X186177060Y-99794322D02*
X185681350Y-99298612D01*
X186884704Y-98095258D01*
X187380414Y-98590968D01*
X186177060Y-99794322D01*
X186177060Y-99794322D01*
G37*
G36*
X186742816Y-100360078D02*
X186247106Y-99864368D01*
X187450460Y-98661014D01*
X187946170Y-99156724D01*
X186742816Y-100360078D01*
X186742816Y-100360078D01*
G37*
G36*
X187308573Y-100925834D02*
X186812863Y-100430124D01*
X188016217Y-99226770D01*
X188511927Y-99722480D01*
X187308573Y-100925834D01*
X187308573Y-100925834D01*
G37*
G36*
X187874329Y-101491591D02*
X187378619Y-100995881D01*
X188581973Y-99792527D01*
X189077683Y-100288237D01*
X187874329Y-101491591D01*
X187874329Y-101491591D01*
G37*
G36*
X191128773Y-101491591D02*
X189925419Y-100288237D01*
X190421129Y-99792527D01*
X191624483Y-100995881D01*
X191128773Y-101491591D01*
X191128773Y-101491591D01*
G37*
G36*
X191694529Y-100925834D02*
X190491175Y-99722480D01*
X190986885Y-99226770D01*
X192190239Y-100430124D01*
X191694529Y-100925834D01*
X191694529Y-100925834D01*
G37*
G36*
X192260286Y-100360078D02*
X191056932Y-99156724D01*
X191552642Y-98661014D01*
X192755996Y-99864368D01*
X192260286Y-100360078D01*
X192260286Y-100360078D01*
G37*
G36*
X192826042Y-99794322D02*
X191622688Y-98590968D01*
X192118398Y-98095258D01*
X193321752Y-99298612D01*
X192826042Y-99794322D01*
X192826042Y-99794322D01*
G37*
G36*
X193391798Y-99228566D02*
X192188444Y-98025212D01*
X192684154Y-97529502D01*
X193887508Y-98732856D01*
X193391798Y-99228566D01*
X193391798Y-99228566D01*
G37*
G36*
X193955758Y-98664606D02*
X192752404Y-97461252D01*
X193248114Y-96965542D01*
X194451468Y-98168896D01*
X193955758Y-98664606D01*
X193955758Y-98664606D01*
G37*
G36*
X194519718Y-98100646D02*
X193316364Y-96897292D01*
X193812074Y-96401582D01*
X195015428Y-97604936D01*
X194519718Y-98100646D01*
X194519718Y-98100646D01*
G37*
G36*
X195085474Y-97534890D02*
X193882120Y-96331536D01*
X194377830Y-95835826D01*
X195581184Y-97039180D01*
X195085474Y-97534890D01*
X195085474Y-97534890D01*
G37*
G36*
X195651230Y-96969134D02*
X194447876Y-95765780D01*
X194943586Y-95270070D01*
X196146940Y-96473424D01*
X195651230Y-96969134D01*
X195651230Y-96969134D01*
G37*
G36*
X196216986Y-96403377D02*
X195013632Y-95200023D01*
X195509342Y-94704313D01*
X196712696Y-95907667D01*
X196216986Y-96403377D01*
X196216986Y-96403377D01*
G37*
G36*
X196782743Y-95837621D02*
X195579389Y-94634267D01*
X196075099Y-94138557D01*
X197278453Y-95341911D01*
X196782743Y-95837621D01*
X196782743Y-95837621D01*
G37*
G36*
X196075099Y-93290821D02*
X195579389Y-92795111D01*
X196782743Y-91591757D01*
X197278453Y-92087467D01*
X196075099Y-93290821D01*
X196075099Y-93290821D01*
G37*
G36*
X195509342Y-92725065D02*
X195013632Y-92229355D01*
X196216986Y-91026001D01*
X196712696Y-91521711D01*
X195509342Y-92725065D01*
X195509342Y-92725065D01*
G37*
G36*
X194943586Y-92159308D02*
X194447876Y-91663598D01*
X195651230Y-90460244D01*
X196146940Y-90955954D01*
X194943586Y-92159308D01*
X194943586Y-92159308D01*
G37*
G36*
X194377830Y-91593552D02*
X193882120Y-91097842D01*
X195085474Y-89894488D01*
X195581184Y-90390198D01*
X194377830Y-91593552D01*
X194377830Y-91593552D01*
G37*
G36*
X193812074Y-91027796D02*
X193316364Y-90532086D01*
X194519718Y-89328732D01*
X195015428Y-89824442D01*
X193812074Y-91027796D01*
X193812074Y-91027796D01*
G37*
G36*
X193248114Y-90463836D02*
X192752404Y-89968126D01*
X193955758Y-88764772D01*
X194451468Y-89260482D01*
X193248114Y-90463836D01*
X193248114Y-90463836D01*
G37*
G36*
X192684154Y-89899876D02*
X192188444Y-89404166D01*
X193391798Y-88200812D01*
X193887508Y-88696522D01*
X192684154Y-89899876D01*
X192684154Y-89899876D01*
G37*
G36*
X192118398Y-89334120D02*
X191622688Y-88838410D01*
X192826042Y-87635056D01*
X193321752Y-88130766D01*
X192118398Y-89334120D01*
X192118398Y-89334120D01*
G37*
G36*
X191552642Y-88768364D02*
X191056932Y-88272654D01*
X192260286Y-87069300D01*
X192755996Y-87565010D01*
X191552642Y-88768364D01*
X191552642Y-88768364D01*
G37*
G36*
X190986885Y-88202608D02*
X190491175Y-87706898D01*
X191694529Y-86503544D01*
X192190239Y-86999254D01*
X190986885Y-88202608D01*
X190986885Y-88202608D01*
G37*
G36*
X190421129Y-87636851D02*
X189925419Y-87141141D01*
X191128773Y-85937787D01*
X191624483Y-86433497D01*
X190421129Y-87636851D01*
X190421129Y-87636851D01*
G37*
G36*
X188581973Y-87636851D02*
X187378619Y-86433497D01*
X187874329Y-85937787D01*
X189077683Y-87141141D01*
X188581973Y-87636851D01*
X188581973Y-87636851D01*
G37*
G36*
X188016217Y-88202608D02*
X186812863Y-86999254D01*
X187308573Y-86503544D01*
X188511927Y-87706898D01*
X188016217Y-88202608D01*
X188016217Y-88202608D01*
G37*
G36*
X187450460Y-88768364D02*
X186247106Y-87565010D01*
X186742816Y-87069300D01*
X187946170Y-88272654D01*
X187450460Y-88768364D01*
X187450460Y-88768364D01*
G37*
G36*
X186884704Y-89334120D02*
X185681350Y-88130766D01*
X186177060Y-87635056D01*
X187380414Y-88838410D01*
X186884704Y-89334120D01*
X186884704Y-89334120D01*
G37*
G36*
X186318948Y-89899876D02*
X185115594Y-88696522D01*
X185611304Y-88200812D01*
X186814658Y-89404166D01*
X186318948Y-89899876D01*
X186318948Y-89899876D01*
G37*
G36*
X185754988Y-90463836D02*
X184551634Y-89260482D01*
X185047344Y-88764772D01*
X186250698Y-89968126D01*
X185754988Y-90463836D01*
X185754988Y-90463836D01*
G37*
G36*
X185191028Y-91027796D02*
X183987674Y-89824442D01*
X184483384Y-89328732D01*
X185686738Y-90532086D01*
X185191028Y-91027796D01*
X185191028Y-91027796D01*
G37*
G36*
X184625272Y-91593552D02*
X183421918Y-90390198D01*
X183917628Y-89894488D01*
X185120982Y-91097842D01*
X184625272Y-91593552D01*
X184625272Y-91593552D01*
G37*
G36*
X184059516Y-92159308D02*
X182856162Y-90955954D01*
X183351872Y-90460244D01*
X184555226Y-91663598D01*
X184059516Y-92159308D01*
X184059516Y-92159308D01*
G37*
G36*
X183493760Y-92725065D02*
X182290406Y-91521711D01*
X182786116Y-91026001D01*
X183989470Y-92229355D01*
X183493760Y-92725065D01*
X183493760Y-92725065D01*
G37*
G36*
X182928003Y-93290821D02*
X181724649Y-92087467D01*
X182220359Y-91591757D01*
X183423713Y-92795111D01*
X182928003Y-93290821D01*
X182928003Y-93290821D01*
G37*
G36*
X158852359Y-95837621D02*
X158356649Y-95341911D01*
X159560003Y-94138557D01*
X160055713Y-94634267D01*
X158852359Y-95837621D01*
X158852359Y-95837621D01*
G37*
G36*
X159418116Y-96403377D02*
X158922406Y-95907667D01*
X160125760Y-94704313D01*
X160621470Y-95200023D01*
X159418116Y-96403377D01*
X159418116Y-96403377D01*
G37*
G36*
X159983872Y-96969134D02*
X159488162Y-96473424D01*
X160691516Y-95270070D01*
X161187226Y-95765780D01*
X159983872Y-96969134D01*
X159983872Y-96969134D01*
G37*
G36*
X160549628Y-97534890D02*
X160053918Y-97039180D01*
X161257272Y-95835826D01*
X161752982Y-96331536D01*
X160549628Y-97534890D01*
X160549628Y-97534890D01*
G37*
G36*
X161115384Y-98100646D02*
X160619674Y-97604936D01*
X161823028Y-96401582D01*
X162318738Y-96897292D01*
X161115384Y-98100646D01*
X161115384Y-98100646D01*
G37*
G36*
X161679344Y-98664606D02*
X161183634Y-98168896D01*
X162386988Y-96965542D01*
X162882698Y-97461252D01*
X161679344Y-98664606D01*
X161679344Y-98664606D01*
G37*
G36*
X162243304Y-99228566D02*
X161747594Y-98732856D01*
X162950948Y-97529502D01*
X163446658Y-98025212D01*
X162243304Y-99228566D01*
X162243304Y-99228566D01*
G37*
G36*
X162809060Y-99794322D02*
X162313350Y-99298612D01*
X163516704Y-98095258D01*
X164012414Y-98590968D01*
X162809060Y-99794322D01*
X162809060Y-99794322D01*
G37*
G36*
X163374816Y-100360078D02*
X162879106Y-99864368D01*
X164082460Y-98661014D01*
X164578170Y-99156724D01*
X163374816Y-100360078D01*
X163374816Y-100360078D01*
G37*
G36*
X163940573Y-100925834D02*
X163444863Y-100430124D01*
X164648217Y-99226770D01*
X165143927Y-99722480D01*
X163940573Y-100925834D01*
X163940573Y-100925834D01*
G37*
G36*
X164506329Y-101491591D02*
X164010619Y-100995881D01*
X165213973Y-99792527D01*
X165709683Y-100288237D01*
X164506329Y-101491591D01*
X164506329Y-101491591D01*
G37*
G36*
X167760773Y-101491591D02*
X166557419Y-100288237D01*
X167053129Y-99792527D01*
X168256483Y-100995881D01*
X167760773Y-101491591D01*
X167760773Y-101491591D01*
G37*
G36*
X168326529Y-100925834D02*
X167123175Y-99722480D01*
X167618885Y-99226770D01*
X168822239Y-100430124D01*
X168326529Y-100925834D01*
X168326529Y-100925834D01*
G37*
G36*
X168892286Y-100360078D02*
X167688932Y-99156724D01*
X168184642Y-98661014D01*
X169387996Y-99864368D01*
X168892286Y-100360078D01*
X168892286Y-100360078D01*
G37*
G36*
X169458042Y-99794322D02*
X168254688Y-98590968D01*
X168750398Y-98095258D01*
X169953752Y-99298612D01*
X169458042Y-99794322D01*
X169458042Y-99794322D01*
G37*
G36*
X170023798Y-99228566D02*
X168820444Y-98025212D01*
X169316154Y-97529502D01*
X170519508Y-98732856D01*
X170023798Y-99228566D01*
X170023798Y-99228566D01*
G37*
G36*
X170587758Y-98664606D02*
X169384404Y-97461252D01*
X169880114Y-96965542D01*
X171083468Y-98168896D01*
X170587758Y-98664606D01*
X170587758Y-98664606D01*
G37*
G36*
X171151718Y-98100646D02*
X169948364Y-96897292D01*
X170444074Y-96401582D01*
X171647428Y-97604936D01*
X171151718Y-98100646D01*
X171151718Y-98100646D01*
G37*
G36*
X171717474Y-97534890D02*
X170514120Y-96331536D01*
X171009830Y-95835826D01*
X172213184Y-97039180D01*
X171717474Y-97534890D01*
X171717474Y-97534890D01*
G37*
G36*
X172283230Y-96969134D02*
X171079876Y-95765780D01*
X171575586Y-95270070D01*
X172778940Y-96473424D01*
X172283230Y-96969134D01*
X172283230Y-96969134D01*
G37*
G36*
X172848986Y-96403377D02*
X171645632Y-95200023D01*
X172141342Y-94704313D01*
X173344696Y-95907667D01*
X172848986Y-96403377D01*
X172848986Y-96403377D01*
G37*
G36*
X173414743Y-95837621D02*
X172211389Y-94634267D01*
X172707099Y-94138557D01*
X173910453Y-95341911D01*
X173414743Y-95837621D01*
X173414743Y-95837621D01*
G37*
G36*
X172707099Y-93290821D02*
X172211389Y-92795111D01*
X173414743Y-91591757D01*
X173910453Y-92087467D01*
X172707099Y-93290821D01*
X172707099Y-93290821D01*
G37*
G36*
X172141342Y-92725065D02*
X171645632Y-92229355D01*
X172848986Y-91026001D01*
X173344696Y-91521711D01*
X172141342Y-92725065D01*
X172141342Y-92725065D01*
G37*
G36*
X171575586Y-92159308D02*
X171079876Y-91663598D01*
X172283230Y-90460244D01*
X172778940Y-90955954D01*
X171575586Y-92159308D01*
X171575586Y-92159308D01*
G37*
G36*
X171009830Y-91593552D02*
X170514120Y-91097842D01*
X171717474Y-89894488D01*
X172213184Y-90390198D01*
X171009830Y-91593552D01*
X171009830Y-91593552D01*
G37*
G36*
X170444074Y-91027796D02*
X169948364Y-90532086D01*
X171151718Y-89328732D01*
X171647428Y-89824442D01*
X170444074Y-91027796D01*
X170444074Y-91027796D01*
G37*
G36*
X169880114Y-90463836D02*
X169384404Y-89968126D01*
X170587758Y-88764772D01*
X171083468Y-89260482D01*
X169880114Y-90463836D01*
X169880114Y-90463836D01*
G37*
G36*
X169316154Y-89899876D02*
X168820444Y-89404166D01*
X170023798Y-88200812D01*
X170519508Y-88696522D01*
X169316154Y-89899876D01*
X169316154Y-89899876D01*
G37*
G36*
X168750398Y-89334120D02*
X168254688Y-88838410D01*
X169458042Y-87635056D01*
X169953752Y-88130766D01*
X168750398Y-89334120D01*
X168750398Y-89334120D01*
G37*
G36*
X168184642Y-88768364D02*
X167688932Y-88272654D01*
X168892286Y-87069300D01*
X169387996Y-87565010D01*
X168184642Y-88768364D01*
X168184642Y-88768364D01*
G37*
G36*
X167618885Y-88202608D02*
X167123175Y-87706898D01*
X168326529Y-86503544D01*
X168822239Y-86999254D01*
X167618885Y-88202608D01*
X167618885Y-88202608D01*
G37*
G36*
X167053129Y-87636851D02*
X166557419Y-87141141D01*
X167760773Y-85937787D01*
X168256483Y-86433497D01*
X167053129Y-87636851D01*
X167053129Y-87636851D01*
G37*
G36*
X165213973Y-87636851D02*
X164010619Y-86433497D01*
X164506329Y-85937787D01*
X165709683Y-87141141D01*
X165213973Y-87636851D01*
X165213973Y-87636851D01*
G37*
G36*
X164648217Y-88202608D02*
X163444863Y-86999254D01*
X163940573Y-86503544D01*
X165143927Y-87706898D01*
X164648217Y-88202608D01*
X164648217Y-88202608D01*
G37*
G36*
X164082460Y-88768364D02*
X162879106Y-87565010D01*
X163374816Y-87069300D01*
X164578170Y-88272654D01*
X164082460Y-88768364D01*
X164082460Y-88768364D01*
G37*
G36*
X163516704Y-89334120D02*
X162313350Y-88130766D01*
X162809060Y-87635056D01*
X164012414Y-88838410D01*
X163516704Y-89334120D01*
X163516704Y-89334120D01*
G37*
G36*
X162950948Y-89899876D02*
X161747594Y-88696522D01*
X162243304Y-88200812D01*
X163446658Y-89404166D01*
X162950948Y-89899876D01*
X162950948Y-89899876D01*
G37*
G36*
X162386988Y-90463836D02*
X161183634Y-89260482D01*
X161679344Y-88764772D01*
X162882698Y-89968126D01*
X162386988Y-90463836D01*
X162386988Y-90463836D01*
G37*
G36*
X161823028Y-91027796D02*
X160619674Y-89824442D01*
X161115384Y-89328732D01*
X162318738Y-90532086D01*
X161823028Y-91027796D01*
X161823028Y-91027796D01*
G37*
G36*
X161257272Y-91593552D02*
X160053918Y-90390198D01*
X160549628Y-89894488D01*
X161752982Y-91097842D01*
X161257272Y-91593552D01*
X161257272Y-91593552D01*
G37*
G36*
X160691516Y-92159308D02*
X159488162Y-90955954D01*
X159983872Y-90460244D01*
X161187226Y-91663598D01*
X160691516Y-92159308D01*
X160691516Y-92159308D01*
G37*
G36*
X160125760Y-92725065D02*
X158922406Y-91521711D01*
X159418116Y-91026001D01*
X160621470Y-92229355D01*
X160125760Y-92725065D01*
X160125760Y-92725065D01*
G37*
G36*
X159560003Y-93290821D02*
X158356649Y-92087467D01*
X158852359Y-91591757D01*
X160055713Y-92795111D01*
X159560003Y-93290821D01*
X159560003Y-93290821D01*
G37*
G36*
X135484359Y-95837621D02*
X134988649Y-95341911D01*
X136192003Y-94138557D01*
X136687713Y-94634267D01*
X135484359Y-95837621D01*
X135484359Y-95837621D01*
G37*
G36*
X136050116Y-96403377D02*
X135554406Y-95907667D01*
X136757760Y-94704313D01*
X137253470Y-95200023D01*
X136050116Y-96403377D01*
X136050116Y-96403377D01*
G37*
G36*
X136615872Y-96969134D02*
X136120162Y-96473424D01*
X137323516Y-95270070D01*
X137819226Y-95765780D01*
X136615872Y-96969134D01*
X136615872Y-96969134D01*
G37*
G36*
X137181628Y-97534890D02*
X136685918Y-97039180D01*
X137889272Y-95835826D01*
X138384982Y-96331536D01*
X137181628Y-97534890D01*
X137181628Y-97534890D01*
G37*
G36*
X137747384Y-98100646D02*
X137251674Y-97604936D01*
X138455028Y-96401582D01*
X138950738Y-96897292D01*
X137747384Y-98100646D01*
X137747384Y-98100646D01*
G37*
G36*
X138311344Y-98664606D02*
X137815634Y-98168896D01*
X139018988Y-96965542D01*
X139514698Y-97461252D01*
X138311344Y-98664606D01*
X138311344Y-98664606D01*
G37*
G36*
X138875304Y-99228566D02*
X138379594Y-98732856D01*
X139582948Y-97529502D01*
X140078658Y-98025212D01*
X138875304Y-99228566D01*
X138875304Y-99228566D01*
G37*
G36*
X139441060Y-99794322D02*
X138945350Y-99298612D01*
X140148704Y-98095258D01*
X140644414Y-98590968D01*
X139441060Y-99794322D01*
X139441060Y-99794322D01*
G37*
G36*
X140006816Y-100360078D02*
X139511106Y-99864368D01*
X140714460Y-98661014D01*
X141210170Y-99156724D01*
X140006816Y-100360078D01*
X140006816Y-100360078D01*
G37*
G36*
X140572573Y-100925834D02*
X140076863Y-100430124D01*
X141280217Y-99226770D01*
X141775927Y-99722480D01*
X140572573Y-100925834D01*
X140572573Y-100925834D01*
G37*
G36*
X141138329Y-101491591D02*
X140642619Y-100995881D01*
X141845973Y-99792527D01*
X142341683Y-100288237D01*
X141138329Y-101491591D01*
X141138329Y-101491591D01*
G37*
G36*
X144392773Y-101491591D02*
X143189419Y-100288237D01*
X143685129Y-99792527D01*
X144888483Y-100995881D01*
X144392773Y-101491591D01*
X144392773Y-101491591D01*
G37*
G36*
X144958529Y-100925834D02*
X143755175Y-99722480D01*
X144250885Y-99226770D01*
X145454239Y-100430124D01*
X144958529Y-100925834D01*
X144958529Y-100925834D01*
G37*
G36*
X145524286Y-100360078D02*
X144320932Y-99156724D01*
X144816642Y-98661014D01*
X146019996Y-99864368D01*
X145524286Y-100360078D01*
X145524286Y-100360078D01*
G37*
G36*
X146090042Y-99794322D02*
X144886688Y-98590968D01*
X145382398Y-98095258D01*
X146585752Y-99298612D01*
X146090042Y-99794322D01*
X146090042Y-99794322D01*
G37*
G36*
X146655798Y-99228566D02*
X145452444Y-98025212D01*
X145948154Y-97529502D01*
X147151508Y-98732856D01*
X146655798Y-99228566D01*
X146655798Y-99228566D01*
G37*
G36*
X147219758Y-98664606D02*
X146016404Y-97461252D01*
X146512114Y-96965542D01*
X147715468Y-98168896D01*
X147219758Y-98664606D01*
X147219758Y-98664606D01*
G37*
G36*
X147783718Y-98100646D02*
X146580364Y-96897292D01*
X147076074Y-96401582D01*
X148279428Y-97604936D01*
X147783718Y-98100646D01*
X147783718Y-98100646D01*
G37*
G36*
X148349474Y-97534890D02*
X147146120Y-96331536D01*
X147641830Y-95835826D01*
X148845184Y-97039180D01*
X148349474Y-97534890D01*
X148349474Y-97534890D01*
G37*
G36*
X148915230Y-96969134D02*
X147711876Y-95765780D01*
X148207586Y-95270070D01*
X149410940Y-96473424D01*
X148915230Y-96969134D01*
X148915230Y-96969134D01*
G37*
G36*
X149480986Y-96403377D02*
X148277632Y-95200023D01*
X148773342Y-94704313D01*
X149976696Y-95907667D01*
X149480986Y-96403377D01*
X149480986Y-96403377D01*
G37*
G36*
X150046743Y-95837621D02*
X148843389Y-94634267D01*
X149339099Y-94138557D01*
X150542453Y-95341911D01*
X150046743Y-95837621D01*
X150046743Y-95837621D01*
G37*
G36*
X149339099Y-93290821D02*
X148843389Y-92795111D01*
X150046743Y-91591757D01*
X150542453Y-92087467D01*
X149339099Y-93290821D01*
X149339099Y-93290821D01*
G37*
G36*
X148773342Y-92725065D02*
X148277632Y-92229355D01*
X149480986Y-91026001D01*
X149976696Y-91521711D01*
X148773342Y-92725065D01*
X148773342Y-92725065D01*
G37*
G36*
X148207586Y-92159308D02*
X147711876Y-91663598D01*
X148915230Y-90460244D01*
X149410940Y-90955954D01*
X148207586Y-92159308D01*
X148207586Y-92159308D01*
G37*
G36*
X147641830Y-91593552D02*
X147146120Y-91097842D01*
X148349474Y-89894488D01*
X148845184Y-90390198D01*
X147641830Y-91593552D01*
X147641830Y-91593552D01*
G37*
G36*
X147076074Y-91027796D02*
X146580364Y-90532086D01*
X147783718Y-89328732D01*
X148279428Y-89824442D01*
X147076074Y-91027796D01*
X147076074Y-91027796D01*
G37*
G36*
X146512114Y-90463836D02*
X146016404Y-89968126D01*
X147219758Y-88764772D01*
X147715468Y-89260482D01*
X146512114Y-90463836D01*
X146512114Y-90463836D01*
G37*
G36*
X145948154Y-89899876D02*
X145452444Y-89404166D01*
X146655798Y-88200812D01*
X147151508Y-88696522D01*
X145948154Y-89899876D01*
X145948154Y-89899876D01*
G37*
G36*
X145382398Y-89334120D02*
X144886688Y-88838410D01*
X146090042Y-87635056D01*
X146585752Y-88130766D01*
X145382398Y-89334120D01*
X145382398Y-89334120D01*
G37*
G36*
X144816642Y-88768364D02*
X144320932Y-88272654D01*
X145524286Y-87069300D01*
X146019996Y-87565010D01*
X144816642Y-88768364D01*
X144816642Y-88768364D01*
G37*
G36*
X144250885Y-88202608D02*
X143755175Y-87706898D01*
X144958529Y-86503544D01*
X145454239Y-86999254D01*
X144250885Y-88202608D01*
X144250885Y-88202608D01*
G37*
G36*
X143685129Y-87636851D02*
X143189419Y-87141141D01*
X144392773Y-85937787D01*
X144888483Y-86433497D01*
X143685129Y-87636851D01*
X143685129Y-87636851D01*
G37*
G36*
X141845973Y-87636851D02*
X140642619Y-86433497D01*
X141138329Y-85937787D01*
X142341683Y-87141141D01*
X141845973Y-87636851D01*
X141845973Y-87636851D01*
G37*
G36*
X141280217Y-88202608D02*
X140076863Y-86999254D01*
X140572573Y-86503544D01*
X141775927Y-87706898D01*
X141280217Y-88202608D01*
X141280217Y-88202608D01*
G37*
G36*
X140714460Y-88768364D02*
X139511106Y-87565010D01*
X140006816Y-87069300D01*
X141210170Y-88272654D01*
X140714460Y-88768364D01*
X140714460Y-88768364D01*
G37*
G36*
X140148704Y-89334120D02*
X138945350Y-88130766D01*
X139441060Y-87635056D01*
X140644414Y-88838410D01*
X140148704Y-89334120D01*
X140148704Y-89334120D01*
G37*
G36*
X139582948Y-89899876D02*
X138379594Y-88696522D01*
X138875304Y-88200812D01*
X140078658Y-89404166D01*
X139582948Y-89899876D01*
X139582948Y-89899876D01*
G37*
G36*
X139018988Y-90463836D02*
X137815634Y-89260482D01*
X138311344Y-88764772D01*
X139514698Y-89968126D01*
X139018988Y-90463836D01*
X139018988Y-90463836D01*
G37*
G36*
X138455028Y-91027796D02*
X137251674Y-89824442D01*
X137747384Y-89328732D01*
X138950738Y-90532086D01*
X138455028Y-91027796D01*
X138455028Y-91027796D01*
G37*
G36*
X137889272Y-91593552D02*
X136685918Y-90390198D01*
X137181628Y-89894488D01*
X138384982Y-91097842D01*
X137889272Y-91593552D01*
X137889272Y-91593552D01*
G37*
G36*
X137323516Y-92159308D02*
X136120162Y-90955954D01*
X136615872Y-90460244D01*
X137819226Y-91663598D01*
X137323516Y-92159308D01*
X137323516Y-92159308D01*
G37*
G36*
X136757760Y-92725065D02*
X135554406Y-91521711D01*
X136050116Y-91026001D01*
X137253470Y-92229355D01*
X136757760Y-92725065D01*
X136757760Y-92725065D01*
G37*
G36*
X136192003Y-93290821D02*
X134988649Y-92087467D01*
X135484359Y-91591757D01*
X136687713Y-92795111D01*
X136192003Y-93290821D01*
X136192003Y-93290821D01*
G37*
G36*
X112116359Y-95837621D02*
X111620649Y-95341911D01*
X112824003Y-94138557D01*
X113319713Y-94634267D01*
X112116359Y-95837621D01*
X112116359Y-95837621D01*
G37*
G36*
X112682116Y-96403377D02*
X112186406Y-95907667D01*
X113389760Y-94704313D01*
X113885470Y-95200023D01*
X112682116Y-96403377D01*
X112682116Y-96403377D01*
G37*
G36*
X113247872Y-96969134D02*
X112752162Y-96473424D01*
X113955516Y-95270070D01*
X114451226Y-95765780D01*
X113247872Y-96969134D01*
X113247872Y-96969134D01*
G37*
G36*
X113813628Y-97534890D02*
X113317918Y-97039180D01*
X114521272Y-95835826D01*
X115016982Y-96331536D01*
X113813628Y-97534890D01*
X113813628Y-97534890D01*
G37*
G36*
X114379384Y-98100646D02*
X113883674Y-97604936D01*
X115087028Y-96401582D01*
X115582738Y-96897292D01*
X114379384Y-98100646D01*
X114379384Y-98100646D01*
G37*
G36*
X114943344Y-98664606D02*
X114447634Y-98168896D01*
X115650988Y-96965542D01*
X116146698Y-97461252D01*
X114943344Y-98664606D01*
X114943344Y-98664606D01*
G37*
G36*
X115507304Y-99228566D02*
X115011594Y-98732856D01*
X116214948Y-97529502D01*
X116710658Y-98025212D01*
X115507304Y-99228566D01*
X115507304Y-99228566D01*
G37*
G36*
X116073060Y-99794322D02*
X115577350Y-99298612D01*
X116780704Y-98095258D01*
X117276414Y-98590968D01*
X116073060Y-99794322D01*
X116073060Y-99794322D01*
G37*
G36*
X116638816Y-100360078D02*
X116143106Y-99864368D01*
X117346460Y-98661014D01*
X117842170Y-99156724D01*
X116638816Y-100360078D01*
X116638816Y-100360078D01*
G37*
G36*
X117204573Y-100925834D02*
X116708863Y-100430124D01*
X117912217Y-99226770D01*
X118407927Y-99722480D01*
X117204573Y-100925834D01*
X117204573Y-100925834D01*
G37*
G36*
X117770329Y-101491591D02*
X117274619Y-100995881D01*
X118477973Y-99792527D01*
X118973683Y-100288237D01*
X117770329Y-101491591D01*
X117770329Y-101491591D01*
G37*
G36*
X121024773Y-101491591D02*
X119821419Y-100288237D01*
X120317129Y-99792527D01*
X121520483Y-100995881D01*
X121024773Y-101491591D01*
X121024773Y-101491591D01*
G37*
G36*
X121590529Y-100925834D02*
X120387175Y-99722480D01*
X120882885Y-99226770D01*
X122086239Y-100430124D01*
X121590529Y-100925834D01*
X121590529Y-100925834D01*
G37*
G36*
X122156286Y-100360078D02*
X120952932Y-99156724D01*
X121448642Y-98661014D01*
X122651996Y-99864368D01*
X122156286Y-100360078D01*
X122156286Y-100360078D01*
G37*
G36*
X122722042Y-99794322D02*
X121518688Y-98590968D01*
X122014398Y-98095258D01*
X123217752Y-99298612D01*
X122722042Y-99794322D01*
X122722042Y-99794322D01*
G37*
G36*
X123287798Y-99228566D02*
X122084444Y-98025212D01*
X122580154Y-97529502D01*
X123783508Y-98732856D01*
X123287798Y-99228566D01*
X123287798Y-99228566D01*
G37*
G36*
X123851758Y-98664606D02*
X122648404Y-97461252D01*
X123144114Y-96965542D01*
X124347468Y-98168896D01*
X123851758Y-98664606D01*
X123851758Y-98664606D01*
G37*
G36*
X124415718Y-98100646D02*
X123212364Y-96897292D01*
X123708074Y-96401582D01*
X124911428Y-97604936D01*
X124415718Y-98100646D01*
X124415718Y-98100646D01*
G37*
G36*
X124981474Y-97534890D02*
X123778120Y-96331536D01*
X124273830Y-95835826D01*
X125477184Y-97039180D01*
X124981474Y-97534890D01*
X124981474Y-97534890D01*
G37*
G36*
X125547230Y-96969134D02*
X124343876Y-95765780D01*
X124839586Y-95270070D01*
X126042940Y-96473424D01*
X125547230Y-96969134D01*
X125547230Y-96969134D01*
G37*
G36*
X126112986Y-96403377D02*
X124909632Y-95200023D01*
X125405342Y-94704313D01*
X126608696Y-95907667D01*
X126112986Y-96403377D01*
X126112986Y-96403377D01*
G37*
G36*
X126678743Y-95837621D02*
X125475389Y-94634267D01*
X125971099Y-94138557D01*
X127174453Y-95341911D01*
X126678743Y-95837621D01*
X126678743Y-95837621D01*
G37*
G36*
X125971099Y-93290821D02*
X125475389Y-92795111D01*
X126678743Y-91591757D01*
X127174453Y-92087467D01*
X125971099Y-93290821D01*
X125971099Y-93290821D01*
G37*
G36*
X125405342Y-92725065D02*
X124909632Y-92229355D01*
X126112986Y-91026001D01*
X126608696Y-91521711D01*
X125405342Y-92725065D01*
X125405342Y-92725065D01*
G37*
G36*
X124839586Y-92159308D02*
X124343876Y-91663598D01*
X125547230Y-90460244D01*
X126042940Y-90955954D01*
X124839586Y-92159308D01*
X124839586Y-92159308D01*
G37*
G36*
X124273830Y-91593552D02*
X123778120Y-91097842D01*
X124981474Y-89894488D01*
X125477184Y-90390198D01*
X124273830Y-91593552D01*
X124273830Y-91593552D01*
G37*
G36*
X123708074Y-91027796D02*
X123212364Y-90532086D01*
X124415718Y-89328732D01*
X124911428Y-89824442D01*
X123708074Y-91027796D01*
X123708074Y-91027796D01*
G37*
G36*
X123144114Y-90463836D02*
X122648404Y-89968126D01*
X123851758Y-88764772D01*
X124347468Y-89260482D01*
X123144114Y-90463836D01*
X123144114Y-90463836D01*
G37*
G36*
X122580154Y-89899876D02*
X122084444Y-89404166D01*
X123287798Y-88200812D01*
X123783508Y-88696522D01*
X122580154Y-89899876D01*
X122580154Y-89899876D01*
G37*
G36*
X122014398Y-89334120D02*
X121518688Y-88838410D01*
X122722042Y-87635056D01*
X123217752Y-88130766D01*
X122014398Y-89334120D01*
X122014398Y-89334120D01*
G37*
G36*
X121448642Y-88768364D02*
X120952932Y-88272654D01*
X122156286Y-87069300D01*
X122651996Y-87565010D01*
X121448642Y-88768364D01*
X121448642Y-88768364D01*
G37*
G36*
X120882885Y-88202608D02*
X120387175Y-87706898D01*
X121590529Y-86503544D01*
X122086239Y-86999254D01*
X120882885Y-88202608D01*
X120882885Y-88202608D01*
G37*
G36*
X120317129Y-87636851D02*
X119821419Y-87141141D01*
X121024773Y-85937787D01*
X121520483Y-86433497D01*
X120317129Y-87636851D01*
X120317129Y-87636851D01*
G37*
G36*
X118477973Y-87636851D02*
X117274619Y-86433497D01*
X117770329Y-85937787D01*
X118973683Y-87141141D01*
X118477973Y-87636851D01*
X118477973Y-87636851D01*
G37*
G36*
X117912217Y-88202608D02*
X116708863Y-86999254D01*
X117204573Y-86503544D01*
X118407927Y-87706898D01*
X117912217Y-88202608D01*
X117912217Y-88202608D01*
G37*
G36*
X117346460Y-88768364D02*
X116143106Y-87565010D01*
X116638816Y-87069300D01*
X117842170Y-88272654D01*
X117346460Y-88768364D01*
X117346460Y-88768364D01*
G37*
G36*
X116780704Y-89334120D02*
X115577350Y-88130766D01*
X116073060Y-87635056D01*
X117276414Y-88838410D01*
X116780704Y-89334120D01*
X116780704Y-89334120D01*
G37*
G36*
X116214948Y-89899876D02*
X115011594Y-88696522D01*
X115507304Y-88200812D01*
X116710658Y-89404166D01*
X116214948Y-89899876D01*
X116214948Y-89899876D01*
G37*
G36*
X115650988Y-90463836D02*
X114447634Y-89260482D01*
X114943344Y-88764772D01*
X116146698Y-89968126D01*
X115650988Y-90463836D01*
X115650988Y-90463836D01*
G37*
G36*
X115087028Y-91027796D02*
X113883674Y-89824442D01*
X114379384Y-89328732D01*
X115582738Y-90532086D01*
X115087028Y-91027796D01*
X115087028Y-91027796D01*
G37*
G36*
X114521272Y-91593552D02*
X113317918Y-90390198D01*
X113813628Y-89894488D01*
X115016982Y-91097842D01*
X114521272Y-91593552D01*
X114521272Y-91593552D01*
G37*
G36*
X113955516Y-92159308D02*
X112752162Y-90955954D01*
X113247872Y-90460244D01*
X114451226Y-91663598D01*
X113955516Y-92159308D01*
X113955516Y-92159308D01*
G37*
G36*
X113389760Y-92725065D02*
X112186406Y-91521711D01*
X112682116Y-91026001D01*
X113885470Y-92229355D01*
X113389760Y-92725065D01*
X113389760Y-92725065D01*
G37*
G36*
X112824003Y-93290821D02*
X111620649Y-92087467D01*
X112116359Y-91591757D01*
X113319713Y-92795111D01*
X112824003Y-93290821D01*
X112824003Y-93290821D01*
G37*
G36*
X88748359Y-95837621D02*
X88252649Y-95341911D01*
X89456003Y-94138557D01*
X89951713Y-94634267D01*
X88748359Y-95837621D01*
X88748359Y-95837621D01*
G37*
G36*
X89314116Y-96403377D02*
X88818406Y-95907667D01*
X90021760Y-94704313D01*
X90517470Y-95200023D01*
X89314116Y-96403377D01*
X89314116Y-96403377D01*
G37*
G36*
X89879872Y-96969134D02*
X89384162Y-96473424D01*
X90587516Y-95270070D01*
X91083226Y-95765780D01*
X89879872Y-96969134D01*
X89879872Y-96969134D01*
G37*
G36*
X90445628Y-97534890D02*
X89949918Y-97039180D01*
X91153272Y-95835826D01*
X91648982Y-96331536D01*
X90445628Y-97534890D01*
X90445628Y-97534890D01*
G37*
G36*
X91011384Y-98100646D02*
X90515674Y-97604936D01*
X91719028Y-96401582D01*
X92214738Y-96897292D01*
X91011384Y-98100646D01*
X91011384Y-98100646D01*
G37*
G36*
X91575344Y-98664606D02*
X91079634Y-98168896D01*
X92282988Y-96965542D01*
X92778698Y-97461252D01*
X91575344Y-98664606D01*
X91575344Y-98664606D01*
G37*
G36*
X92139304Y-99228566D02*
X91643594Y-98732856D01*
X92846948Y-97529502D01*
X93342658Y-98025212D01*
X92139304Y-99228566D01*
X92139304Y-99228566D01*
G37*
G36*
X92705060Y-99794322D02*
X92209350Y-99298612D01*
X93412704Y-98095258D01*
X93908414Y-98590968D01*
X92705060Y-99794322D01*
X92705060Y-99794322D01*
G37*
G36*
X93270816Y-100360078D02*
X92775106Y-99864368D01*
X93978460Y-98661014D01*
X94474170Y-99156724D01*
X93270816Y-100360078D01*
X93270816Y-100360078D01*
G37*
G36*
X93836573Y-100925834D02*
X93340863Y-100430124D01*
X94544217Y-99226770D01*
X95039927Y-99722480D01*
X93836573Y-100925834D01*
X93836573Y-100925834D01*
G37*
G36*
X94402329Y-101491591D02*
X93906619Y-100995881D01*
X95109973Y-99792527D01*
X95605683Y-100288237D01*
X94402329Y-101491591D01*
X94402329Y-101491591D01*
G37*
G36*
X97656773Y-101491591D02*
X96453419Y-100288237D01*
X96949129Y-99792527D01*
X98152483Y-100995881D01*
X97656773Y-101491591D01*
X97656773Y-101491591D01*
G37*
G36*
X98222529Y-100925834D02*
X97019175Y-99722480D01*
X97514885Y-99226770D01*
X98718239Y-100430124D01*
X98222529Y-100925834D01*
X98222529Y-100925834D01*
G37*
G36*
X98788286Y-100360078D02*
X97584932Y-99156724D01*
X98080642Y-98661014D01*
X99283996Y-99864368D01*
X98788286Y-100360078D01*
X98788286Y-100360078D01*
G37*
G36*
X99354042Y-99794322D02*
X98150688Y-98590968D01*
X98646398Y-98095258D01*
X99849752Y-99298612D01*
X99354042Y-99794322D01*
X99354042Y-99794322D01*
G37*
G36*
X99919798Y-99228566D02*
X98716444Y-98025212D01*
X99212154Y-97529502D01*
X100415508Y-98732856D01*
X99919798Y-99228566D01*
X99919798Y-99228566D01*
G37*
G36*
X100483758Y-98664606D02*
X99280404Y-97461252D01*
X99776114Y-96965542D01*
X100979468Y-98168896D01*
X100483758Y-98664606D01*
X100483758Y-98664606D01*
G37*
G36*
X101047718Y-98100646D02*
X99844364Y-96897292D01*
X100340074Y-96401582D01*
X101543428Y-97604936D01*
X101047718Y-98100646D01*
X101047718Y-98100646D01*
G37*
G36*
X101613474Y-97534890D02*
X100410120Y-96331536D01*
X100905830Y-95835826D01*
X102109184Y-97039180D01*
X101613474Y-97534890D01*
X101613474Y-97534890D01*
G37*
G36*
X102179230Y-96969134D02*
X100975876Y-95765780D01*
X101471586Y-95270070D01*
X102674940Y-96473424D01*
X102179230Y-96969134D01*
X102179230Y-96969134D01*
G37*
G36*
X102744986Y-96403377D02*
X101541632Y-95200023D01*
X102037342Y-94704313D01*
X103240696Y-95907667D01*
X102744986Y-96403377D01*
X102744986Y-96403377D01*
G37*
G36*
X103310743Y-95837621D02*
X102107389Y-94634267D01*
X102603099Y-94138557D01*
X103806453Y-95341911D01*
X103310743Y-95837621D01*
X103310743Y-95837621D01*
G37*
G36*
X102603099Y-93290821D02*
X102107389Y-92795111D01*
X103310743Y-91591757D01*
X103806453Y-92087467D01*
X102603099Y-93290821D01*
X102603099Y-93290821D01*
G37*
G36*
X102037342Y-92725065D02*
X101541632Y-92229355D01*
X102744986Y-91026001D01*
X103240696Y-91521711D01*
X102037342Y-92725065D01*
X102037342Y-92725065D01*
G37*
G36*
X101471586Y-92159308D02*
X100975876Y-91663598D01*
X102179230Y-90460244D01*
X102674940Y-90955954D01*
X101471586Y-92159308D01*
X101471586Y-92159308D01*
G37*
G36*
X100905830Y-91593552D02*
X100410120Y-91097842D01*
X101613474Y-89894488D01*
X102109184Y-90390198D01*
X100905830Y-91593552D01*
X100905830Y-91593552D01*
G37*
G36*
X100340074Y-91027796D02*
X99844364Y-90532086D01*
X101047718Y-89328732D01*
X101543428Y-89824442D01*
X100340074Y-91027796D01*
X100340074Y-91027796D01*
G37*
G36*
X99776114Y-90463836D02*
X99280404Y-89968126D01*
X100483758Y-88764772D01*
X100979468Y-89260482D01*
X99776114Y-90463836D01*
X99776114Y-90463836D01*
G37*
G36*
X99212154Y-89899876D02*
X98716444Y-89404166D01*
X99919798Y-88200812D01*
X100415508Y-88696522D01*
X99212154Y-89899876D01*
X99212154Y-89899876D01*
G37*
G36*
X98646398Y-89334120D02*
X98150688Y-88838410D01*
X99354042Y-87635056D01*
X99849752Y-88130766D01*
X98646398Y-89334120D01*
X98646398Y-89334120D01*
G37*
G36*
X98080642Y-88768364D02*
X97584932Y-88272654D01*
X98788286Y-87069300D01*
X99283996Y-87565010D01*
X98080642Y-88768364D01*
X98080642Y-88768364D01*
G37*
G36*
X97514885Y-88202608D02*
X97019175Y-87706898D01*
X98222529Y-86503544D01*
X98718239Y-86999254D01*
X97514885Y-88202608D01*
X97514885Y-88202608D01*
G37*
G36*
X96949129Y-87636851D02*
X96453419Y-87141141D01*
X97656773Y-85937787D01*
X98152483Y-86433497D01*
X96949129Y-87636851D01*
X96949129Y-87636851D01*
G37*
G36*
X95109973Y-87636851D02*
X93906619Y-86433497D01*
X94402329Y-85937787D01*
X95605683Y-87141141D01*
X95109973Y-87636851D01*
X95109973Y-87636851D01*
G37*
G36*
X94544217Y-88202608D02*
X93340863Y-86999254D01*
X93836573Y-86503544D01*
X95039927Y-87706898D01*
X94544217Y-88202608D01*
X94544217Y-88202608D01*
G37*
G36*
X93978460Y-88768364D02*
X92775106Y-87565010D01*
X93270816Y-87069300D01*
X94474170Y-88272654D01*
X93978460Y-88768364D01*
X93978460Y-88768364D01*
G37*
G36*
X93412704Y-89334120D02*
X92209350Y-88130766D01*
X92705060Y-87635056D01*
X93908414Y-88838410D01*
X93412704Y-89334120D01*
X93412704Y-89334120D01*
G37*
G36*
X92846948Y-89899876D02*
X91643594Y-88696522D01*
X92139304Y-88200812D01*
X93342658Y-89404166D01*
X92846948Y-89899876D01*
X92846948Y-89899876D01*
G37*
G36*
X92282988Y-90463836D02*
X91079634Y-89260482D01*
X91575344Y-88764772D01*
X92778698Y-89968126D01*
X92282988Y-90463836D01*
X92282988Y-90463836D01*
G37*
G36*
X91719028Y-91027796D02*
X90515674Y-89824442D01*
X91011384Y-89328732D01*
X92214738Y-90532086D01*
X91719028Y-91027796D01*
X91719028Y-91027796D01*
G37*
G36*
X91153272Y-91593552D02*
X89949918Y-90390198D01*
X90445628Y-89894488D01*
X91648982Y-91097842D01*
X91153272Y-91593552D01*
X91153272Y-91593552D01*
G37*
G36*
X90587516Y-92159308D02*
X89384162Y-90955954D01*
X89879872Y-90460244D01*
X91083226Y-91663598D01*
X90587516Y-92159308D01*
X90587516Y-92159308D01*
G37*
G36*
X90021760Y-92725065D02*
X88818406Y-91521711D01*
X89314116Y-91026001D01*
X90517470Y-92229355D01*
X90021760Y-92725065D01*
X90021760Y-92725065D01*
G37*
G36*
X89456003Y-93290821D02*
X88252649Y-92087467D01*
X88748359Y-91591757D01*
X89951713Y-92795111D01*
X89456003Y-93290821D01*
X89456003Y-93290821D01*
G37*
G36*
X65380359Y-95837621D02*
X64884649Y-95341911D01*
X66088003Y-94138557D01*
X66583713Y-94634267D01*
X65380359Y-95837621D01*
X65380359Y-95837621D01*
G37*
G36*
X65946116Y-96403377D02*
X65450406Y-95907667D01*
X66653760Y-94704313D01*
X67149470Y-95200023D01*
X65946116Y-96403377D01*
X65946116Y-96403377D01*
G37*
G36*
X66511872Y-96969134D02*
X66016162Y-96473424D01*
X67219516Y-95270070D01*
X67715226Y-95765780D01*
X66511872Y-96969134D01*
X66511872Y-96969134D01*
G37*
G36*
X67077628Y-97534890D02*
X66581918Y-97039180D01*
X67785272Y-95835826D01*
X68280982Y-96331536D01*
X67077628Y-97534890D01*
X67077628Y-97534890D01*
G37*
G36*
X67643384Y-98100646D02*
X67147674Y-97604936D01*
X68351028Y-96401582D01*
X68846738Y-96897292D01*
X67643384Y-98100646D01*
X67643384Y-98100646D01*
G37*
G36*
X68207344Y-98664606D02*
X67711634Y-98168896D01*
X68914988Y-96965542D01*
X69410698Y-97461252D01*
X68207344Y-98664606D01*
X68207344Y-98664606D01*
G37*
G36*
X68771304Y-99228566D02*
X68275594Y-98732856D01*
X69478948Y-97529502D01*
X69974658Y-98025212D01*
X68771304Y-99228566D01*
X68771304Y-99228566D01*
G37*
G36*
X69337060Y-99794322D02*
X68841350Y-99298612D01*
X70044704Y-98095258D01*
X70540414Y-98590968D01*
X69337060Y-99794322D01*
X69337060Y-99794322D01*
G37*
G36*
X69902816Y-100360078D02*
X69407106Y-99864368D01*
X70610460Y-98661014D01*
X71106170Y-99156724D01*
X69902816Y-100360078D01*
X69902816Y-100360078D01*
G37*
G36*
X70468573Y-100925834D02*
X69972863Y-100430124D01*
X71176217Y-99226770D01*
X71671927Y-99722480D01*
X70468573Y-100925834D01*
X70468573Y-100925834D01*
G37*
G36*
X71034329Y-101491591D02*
X70538619Y-100995881D01*
X71741973Y-99792527D01*
X72237683Y-100288237D01*
X71034329Y-101491591D01*
X71034329Y-101491591D01*
G37*
G36*
X74288773Y-101491591D02*
X73085419Y-100288237D01*
X73581129Y-99792527D01*
X74784483Y-100995881D01*
X74288773Y-101491591D01*
X74288773Y-101491591D01*
G37*
G36*
X74854529Y-100925834D02*
X73651175Y-99722480D01*
X74146885Y-99226770D01*
X75350239Y-100430124D01*
X74854529Y-100925834D01*
X74854529Y-100925834D01*
G37*
G36*
X75420286Y-100360078D02*
X74216932Y-99156724D01*
X74712642Y-98661014D01*
X75915996Y-99864368D01*
X75420286Y-100360078D01*
X75420286Y-100360078D01*
G37*
G36*
X75986042Y-99794322D02*
X74782688Y-98590968D01*
X75278398Y-98095258D01*
X76481752Y-99298612D01*
X75986042Y-99794322D01*
X75986042Y-99794322D01*
G37*
G36*
X76551798Y-99228566D02*
X75348444Y-98025212D01*
X75844154Y-97529502D01*
X77047508Y-98732856D01*
X76551798Y-99228566D01*
X76551798Y-99228566D01*
G37*
G36*
X77115758Y-98664606D02*
X75912404Y-97461252D01*
X76408114Y-96965542D01*
X77611468Y-98168896D01*
X77115758Y-98664606D01*
X77115758Y-98664606D01*
G37*
G36*
X77679718Y-98100646D02*
X76476364Y-96897292D01*
X76972074Y-96401582D01*
X78175428Y-97604936D01*
X77679718Y-98100646D01*
X77679718Y-98100646D01*
G37*
G36*
X78245474Y-97534890D02*
X77042120Y-96331536D01*
X77537830Y-95835826D01*
X78741184Y-97039180D01*
X78245474Y-97534890D01*
X78245474Y-97534890D01*
G37*
G36*
X78811230Y-96969134D02*
X77607876Y-95765780D01*
X78103586Y-95270070D01*
X79306940Y-96473424D01*
X78811230Y-96969134D01*
X78811230Y-96969134D01*
G37*
G36*
X79376986Y-96403377D02*
X78173632Y-95200023D01*
X78669342Y-94704313D01*
X79872696Y-95907667D01*
X79376986Y-96403377D01*
X79376986Y-96403377D01*
G37*
G36*
X79942743Y-95837621D02*
X78739389Y-94634267D01*
X79235099Y-94138557D01*
X80438453Y-95341911D01*
X79942743Y-95837621D01*
X79942743Y-95837621D01*
G37*
G36*
X79235099Y-93290821D02*
X78739389Y-92795111D01*
X79942743Y-91591757D01*
X80438453Y-92087467D01*
X79235099Y-93290821D01*
X79235099Y-93290821D01*
G37*
G36*
X78669342Y-92725065D02*
X78173632Y-92229355D01*
X79376986Y-91026001D01*
X79872696Y-91521711D01*
X78669342Y-92725065D01*
X78669342Y-92725065D01*
G37*
G36*
X78103586Y-92159308D02*
X77607876Y-91663598D01*
X78811230Y-90460244D01*
X79306940Y-90955954D01*
X78103586Y-92159308D01*
X78103586Y-92159308D01*
G37*
G36*
X77537830Y-91593552D02*
X77042120Y-91097842D01*
X78245474Y-89894488D01*
X78741184Y-90390198D01*
X77537830Y-91593552D01*
X77537830Y-91593552D01*
G37*
G36*
X76972074Y-91027796D02*
X76476364Y-90532086D01*
X77679718Y-89328732D01*
X78175428Y-89824442D01*
X76972074Y-91027796D01*
X76972074Y-91027796D01*
G37*
G36*
X76408114Y-90463836D02*
X75912404Y-89968126D01*
X77115758Y-88764772D01*
X77611468Y-89260482D01*
X76408114Y-90463836D01*
X76408114Y-90463836D01*
G37*
G36*
X75844154Y-89899876D02*
X75348444Y-89404166D01*
X76551798Y-88200812D01*
X77047508Y-88696522D01*
X75844154Y-89899876D01*
X75844154Y-89899876D01*
G37*
G36*
X75278398Y-89334120D02*
X74782688Y-88838410D01*
X75986042Y-87635056D01*
X76481752Y-88130766D01*
X75278398Y-89334120D01*
X75278398Y-89334120D01*
G37*
G36*
X74712642Y-88768364D02*
X74216932Y-88272654D01*
X75420286Y-87069300D01*
X75915996Y-87565010D01*
X74712642Y-88768364D01*
X74712642Y-88768364D01*
G37*
G36*
X74146885Y-88202608D02*
X73651175Y-87706898D01*
X74854529Y-86503544D01*
X75350239Y-86999254D01*
X74146885Y-88202608D01*
X74146885Y-88202608D01*
G37*
G36*
X73581129Y-87636851D02*
X73085419Y-87141141D01*
X74288773Y-85937787D01*
X74784483Y-86433497D01*
X73581129Y-87636851D01*
X73581129Y-87636851D01*
G37*
G36*
X71741973Y-87636851D02*
X70538619Y-86433497D01*
X71034329Y-85937787D01*
X72237683Y-87141141D01*
X71741973Y-87636851D01*
X71741973Y-87636851D01*
G37*
G36*
X71176217Y-88202608D02*
X69972863Y-86999254D01*
X70468573Y-86503544D01*
X71671927Y-87706898D01*
X71176217Y-88202608D01*
X71176217Y-88202608D01*
G37*
G36*
X70610460Y-88768364D02*
X69407106Y-87565010D01*
X69902816Y-87069300D01*
X71106170Y-88272654D01*
X70610460Y-88768364D01*
X70610460Y-88768364D01*
G37*
G36*
X70044704Y-89334120D02*
X68841350Y-88130766D01*
X69337060Y-87635056D01*
X70540414Y-88838410D01*
X70044704Y-89334120D01*
X70044704Y-89334120D01*
G37*
G36*
X69478948Y-89899876D02*
X68275594Y-88696522D01*
X68771304Y-88200812D01*
X69974658Y-89404166D01*
X69478948Y-89899876D01*
X69478948Y-89899876D01*
G37*
G36*
X68914988Y-90463836D02*
X67711634Y-89260482D01*
X68207344Y-88764772D01*
X69410698Y-89968126D01*
X68914988Y-90463836D01*
X68914988Y-90463836D01*
G37*
G36*
X68351028Y-91027796D02*
X67147674Y-89824442D01*
X67643384Y-89328732D01*
X68846738Y-90532086D01*
X68351028Y-91027796D01*
X68351028Y-91027796D01*
G37*
G36*
X67785272Y-91593552D02*
X66581918Y-90390198D01*
X67077628Y-89894488D01*
X68280982Y-91097842D01*
X67785272Y-91593552D01*
X67785272Y-91593552D01*
G37*
G36*
X67219516Y-92159308D02*
X66016162Y-90955954D01*
X66511872Y-90460244D01*
X67715226Y-91663598D01*
X67219516Y-92159308D01*
X67219516Y-92159308D01*
G37*
G36*
X66653760Y-92725065D02*
X65450406Y-91521711D01*
X65946116Y-91026001D01*
X67149470Y-92229355D01*
X66653760Y-92725065D01*
X66653760Y-92725065D01*
G37*
G36*
X66088003Y-93290821D02*
X64884649Y-92087467D01*
X65380359Y-91591757D01*
X66583713Y-92795111D01*
X66088003Y-93290821D01*
X66088003Y-93290821D01*
G37*
G36*
X230071243Y-99066367D02*
X229397229Y-99740381D01*
X228687859Y-99031011D01*
X229361873Y-98356997D01*
X230071243Y-99066367D01*
X230071243Y-99066367D01*
G37*
G36*
X231131903Y-100127027D02*
X230457889Y-100801041D01*
X229748519Y-100091671D01*
X230422533Y-99417657D01*
X231131903Y-100127027D01*
X231131903Y-100127027D01*
G37*
G36*
X206703243Y-99066367D02*
X206029229Y-99740381D01*
X205319859Y-99031011D01*
X205993873Y-98356997D01*
X206703243Y-99066367D01*
X206703243Y-99066367D01*
G37*
G36*
X207763903Y-100127027D02*
X207089889Y-100801041D01*
X206380519Y-100091671D01*
X207054533Y-99417657D01*
X207763903Y-100127027D01*
X207763903Y-100127027D01*
G37*
G36*
X183335243Y-99066367D02*
X182661229Y-99740381D01*
X181951859Y-99031011D01*
X182625873Y-98356997D01*
X183335243Y-99066367D01*
X183335243Y-99066367D01*
G37*
G36*
X184395903Y-100127027D02*
X183721889Y-100801041D01*
X183012519Y-100091671D01*
X183686533Y-99417657D01*
X184395903Y-100127027D01*
X184395903Y-100127027D01*
G37*
G36*
X159967243Y-99066367D02*
X159293229Y-99740381D01*
X158583859Y-99031011D01*
X159257873Y-98356997D01*
X159967243Y-99066367D01*
X159967243Y-99066367D01*
G37*
G36*
X161027903Y-100127027D02*
X160353889Y-100801041D01*
X159644519Y-100091671D01*
X160318533Y-99417657D01*
X161027903Y-100127027D01*
X161027903Y-100127027D01*
G37*
G36*
X136599243Y-99066367D02*
X135925229Y-99740381D01*
X135215859Y-99031011D01*
X135889873Y-98356997D01*
X136599243Y-99066367D01*
X136599243Y-99066367D01*
G37*
G36*
X137659903Y-100127027D02*
X136985889Y-100801041D01*
X136276519Y-100091671D01*
X136950533Y-99417657D01*
X137659903Y-100127027D01*
X137659903Y-100127027D01*
G37*
G36*
X113231243Y-99066367D02*
X112557229Y-99740381D01*
X111847859Y-99031011D01*
X112521873Y-98356997D01*
X113231243Y-99066367D01*
X113231243Y-99066367D01*
G37*
G36*
X114291903Y-100127027D02*
X113617889Y-100801041D01*
X112908519Y-100091671D01*
X113582533Y-99417657D01*
X114291903Y-100127027D01*
X114291903Y-100127027D01*
G37*
G36*
X89863243Y-99066367D02*
X89189229Y-99740381D01*
X88479859Y-99031011D01*
X89153873Y-98356997D01*
X89863243Y-99066367D01*
X89863243Y-99066367D01*
G37*
G36*
X90923903Y-100127027D02*
X90249889Y-100801041D01*
X89540519Y-100091671D01*
X90214533Y-99417657D01*
X90923903Y-100127027D01*
X90923903Y-100127027D01*
G37*
G36*
X66495243Y-99066367D02*
X65821229Y-99740381D01*
X65111859Y-99031011D01*
X65785873Y-98356997D01*
X66495243Y-99066367D01*
X66495243Y-99066367D01*
G37*
G36*
X67555903Y-100127027D02*
X66881889Y-100801041D01*
X66172519Y-100091671D01*
X66846533Y-99417657D01*
X67555903Y-100127027D01*
X67555903Y-100127027D01*
G37*
D12*
X245762551Y-112510689D03*
X222394551Y-112510689D03*
X199026551Y-112510689D03*
X175658551Y-112510689D03*
X152290551Y-112510689D03*
X128922551Y-112510689D03*
X105554551Y-112510689D03*
X82186551Y-112510689D03*
D18*
X241002551Y-109546689D03*
X241952551Y-109546689D03*
X242902551Y-109546689D03*
X242902551Y-107346689D03*
X241002551Y-107346689D03*
X217634551Y-109546689D03*
X218584551Y-109546689D03*
X219534551Y-109546689D03*
X219534551Y-107346689D03*
X217634551Y-107346689D03*
X194266551Y-109546689D03*
X195216551Y-109546689D03*
X196166551Y-109546689D03*
X196166551Y-107346689D03*
X194266551Y-107346689D03*
X170898551Y-109546689D03*
X171848551Y-109546689D03*
X172798551Y-109546689D03*
X172798551Y-107346689D03*
X170898551Y-107346689D03*
X147530551Y-109546689D03*
X148480551Y-109546689D03*
X149430551Y-109546689D03*
X149430551Y-107346689D03*
X147530551Y-107346689D03*
X124162551Y-109546689D03*
X125112551Y-109546689D03*
X126062551Y-109546689D03*
X126062551Y-107346689D03*
X124162551Y-107346689D03*
X100794551Y-109546689D03*
X101744551Y-109546689D03*
X102694551Y-109546689D03*
X102694551Y-107346689D03*
X100794551Y-107346689D03*
X77426551Y-109546689D03*
X78376551Y-109546689D03*
X79326551Y-109546689D03*
X79326551Y-107346689D03*
X77426551Y-107346689D03*
D19*
X238142551Y-107174149D03*
X238142551Y-109973229D03*
X214774551Y-107174149D03*
X214774551Y-109973229D03*
X191406551Y-107174149D03*
X191406551Y-109973229D03*
X168038551Y-107174149D03*
X168038551Y-109973229D03*
X144670551Y-107174149D03*
X144670551Y-109973229D03*
X121302551Y-107174149D03*
X121302551Y-109973229D03*
X97934551Y-107174149D03*
X97934551Y-109973229D03*
X74566551Y-107174149D03*
X74566551Y-109973229D03*
X245762551Y-107049689D03*
X245762551Y-109848769D03*
X222394551Y-107049689D03*
X222394551Y-109848769D03*
X199026551Y-107049689D03*
X199026551Y-109848769D03*
X175658551Y-107049689D03*
X175658551Y-109848769D03*
X152290551Y-107049689D03*
X152290551Y-109848769D03*
X128922551Y-107049689D03*
X128922551Y-109848769D03*
X105554551Y-107049689D03*
X105554551Y-109848769D03*
X82186551Y-107049689D03*
X82186551Y-109848769D03*
D20*
X240172011Y-112764689D03*
X243479091Y-112764689D03*
X216804011Y-112764689D03*
X220111091Y-112764689D03*
X193436011Y-112764689D03*
X196743091Y-112764689D03*
X170068011Y-112764689D03*
X173375091Y-112764689D03*
X146700011Y-112764689D03*
X150007091Y-112764689D03*
X123332011Y-112764689D03*
X126639091Y-112764689D03*
X99964011Y-112764689D03*
X103271091Y-112764689D03*
X76596011Y-112764689D03*
X79903091Y-112764689D03*
D11*
X230014551Y-105640689D03*
X230014551Y-104140689D03*
X206646551Y-105640689D03*
X206646551Y-104140689D03*
X183278551Y-105640689D03*
X183278551Y-104140689D03*
X159910551Y-105640689D03*
X159910551Y-104140689D03*
X136542551Y-105640689D03*
X136542551Y-104140689D03*
X113174551Y-105640689D03*
X113174551Y-104140689D03*
X89806551Y-105640689D03*
X89806551Y-104140689D03*
X66438551Y-105640689D03*
X66438551Y-104140689D03*
D21*
X230268551Y-110115469D03*
X229620851Y-110115469D03*
X231566491Y-110115469D03*
X230916251Y-110115469D03*
D22*
X226270591Y-112764689D03*
X234266511Y-112764689D03*
D23*
X228998551Y-112764689D03*
X231538551Y-112764689D03*
D21*
X228970611Y-110115469D03*
X206900551Y-110115469D03*
X206252851Y-110115469D03*
X208198491Y-110115469D03*
X207548251Y-110115469D03*
D22*
X202902591Y-112764689D03*
X210898511Y-112764689D03*
D23*
X205630551Y-112764689D03*
X208170551Y-112764689D03*
D21*
X205602611Y-110115469D03*
X183532551Y-110115469D03*
X182884851Y-110115469D03*
X184830491Y-110115469D03*
X184180251Y-110115469D03*
D22*
X179534591Y-112764689D03*
X187530511Y-112764689D03*
D23*
X182262551Y-112764689D03*
X184802551Y-112764689D03*
D21*
X182234611Y-110115469D03*
X160164551Y-110115469D03*
X159516851Y-110115469D03*
X161462491Y-110115469D03*
X160812251Y-110115469D03*
D22*
X156166591Y-112764689D03*
X164162511Y-112764689D03*
D23*
X158894551Y-112764689D03*
X161434551Y-112764689D03*
D21*
X158866611Y-110115469D03*
X136796551Y-110115469D03*
X136148851Y-110115469D03*
X138094491Y-110115469D03*
X137444251Y-110115469D03*
D22*
X132798591Y-112764689D03*
X140794511Y-112764689D03*
D23*
X135526551Y-112764689D03*
X138066551Y-112764689D03*
D21*
X135498611Y-110115469D03*
X113428551Y-110115469D03*
X112780851Y-110115469D03*
X114726491Y-110115469D03*
X114076251Y-110115469D03*
D22*
X109430591Y-112764689D03*
X117426511Y-112764689D03*
D23*
X112158551Y-112764689D03*
X114698551Y-112764689D03*
D21*
X112130611Y-110115469D03*
X90060551Y-110115469D03*
X89412851Y-110115469D03*
X91358491Y-110115469D03*
X90708251Y-110115469D03*
D22*
X86062591Y-112764689D03*
X94058511Y-112764689D03*
D23*
X88790551Y-112764689D03*
X91330551Y-112764689D03*
D21*
X88762611Y-110115469D03*
X66692551Y-110115469D03*
X66044851Y-110115469D03*
X67990491Y-110115469D03*
X67340251Y-110115469D03*
D22*
X62694591Y-112764689D03*
X70690511Y-112764689D03*
D23*
X65422551Y-112764689D03*
X67962551Y-112764689D03*
D21*
X65394611Y-110115469D03*
D24*
X233467551Y-107938689D03*
X234967551Y-107938689D03*
X210099551Y-107938689D03*
X211599551Y-107938689D03*
X186731551Y-107938689D03*
X188231551Y-107938689D03*
X163363551Y-107938689D03*
X164863551Y-107938689D03*
X139995551Y-107938689D03*
X141495551Y-107938689D03*
X116627551Y-107938689D03*
X118127551Y-107938689D03*
X93259551Y-107938689D03*
X94759551Y-107938689D03*
X69891551Y-107938689D03*
X71391551Y-107938689D03*
D11*
X227982551Y-105640689D03*
X227982551Y-104140689D03*
X204614551Y-105640689D03*
X204614551Y-104140689D03*
X181246551Y-105640689D03*
X181246551Y-104140689D03*
X157878551Y-105640689D03*
X157878551Y-104140689D03*
X134510551Y-105640689D03*
X134510551Y-104140689D03*
X111142551Y-105640689D03*
X111142551Y-104140689D03*
X87774551Y-105640689D03*
X87774551Y-104140689D03*
X64406551Y-105640689D03*
X64406551Y-104140689D03*
D25*
X35560000Y-121920000D03*
D26*
X33020000Y-130810000D03*
X274320000Y-61722000D03*
D25*
X271780000Y-71120000D03*
M02*
