G04 #@! TF.FileFunction,Copper,L2,Bot,Signal*
%FSLAX46Y46*%
G04 Gerber Fmt 4.6, Leading zero omitted, Abs format (unit mm)*
G04 Created by KiCad (PCBNEW 4.0.6) date 11/21/17 13:37:13*
%MOMM*%
%LPD*%
G01*
G04 APERTURE LIST*
%ADD10C,0.100000*%
%ADD11C,2.032000*%
%ADD12R,2.032000X2.032000*%
%ADD13C,1.879600*%
%ADD14C,0.600000*%
%ADD15C,0.250000*%
%ADD16C,0.254000*%
G04 APERTURE END LIST*
D10*
D11*
X230903551Y-70727689D03*
X234401131Y-70727689D03*
D12*
X237901251Y-70727689D03*
D11*
X241401371Y-70727689D03*
X207535551Y-70727689D03*
X211033131Y-70727689D03*
D12*
X214533251Y-70727689D03*
D11*
X218033371Y-70727689D03*
X184167551Y-70727689D03*
X187665131Y-70727689D03*
D12*
X191165251Y-70727689D03*
D11*
X194665371Y-70727689D03*
X160799551Y-70727689D03*
X164297131Y-70727689D03*
D12*
X167797251Y-70727689D03*
D11*
X171297371Y-70727689D03*
X137431551Y-70727689D03*
X140929131Y-70727689D03*
D12*
X144429251Y-70727689D03*
D11*
X147929371Y-70727689D03*
X114063551Y-70727689D03*
X117561131Y-70727689D03*
D12*
X121061251Y-70727689D03*
D11*
X124561371Y-70727689D03*
X90695551Y-70727689D03*
X94193131Y-70727689D03*
D12*
X97693251Y-70727689D03*
D11*
X101193371Y-70727689D03*
X67327551Y-70727689D03*
X70825131Y-70727689D03*
D12*
X74325251Y-70727689D03*
D11*
X77825371Y-70727689D03*
D13*
X226077551Y-86094689D03*
X226077551Y-83554689D03*
X226077551Y-81014689D03*
X226077551Y-78474689D03*
X226077551Y-75934689D03*
X226077551Y-73394689D03*
X202709551Y-86094689D03*
X202709551Y-83554689D03*
X202709551Y-81014689D03*
X202709551Y-78474689D03*
X202709551Y-75934689D03*
X202709551Y-73394689D03*
X179341551Y-86094689D03*
X179341551Y-83554689D03*
X179341551Y-81014689D03*
X179341551Y-78474689D03*
X179341551Y-75934689D03*
X179341551Y-73394689D03*
X155973551Y-86094689D03*
X155973551Y-83554689D03*
X155973551Y-81014689D03*
X155973551Y-78474689D03*
X155973551Y-75934689D03*
X155973551Y-73394689D03*
X132605551Y-86094689D03*
X132605551Y-83554689D03*
X132605551Y-81014689D03*
X132605551Y-78474689D03*
X132605551Y-75934689D03*
X132605551Y-73394689D03*
X109237551Y-86094689D03*
X109237551Y-83554689D03*
X109237551Y-81014689D03*
X109237551Y-78474689D03*
X109237551Y-75934689D03*
X109237551Y-73394689D03*
X85869551Y-86094689D03*
X85869551Y-83554689D03*
X85869551Y-81014689D03*
X85869551Y-78474689D03*
X85869551Y-75934689D03*
X85869551Y-73394689D03*
X62501551Y-86094689D03*
X62501551Y-83554689D03*
X62501551Y-81014689D03*
X62501551Y-78474689D03*
X62501551Y-75934689D03*
X62501551Y-73394689D03*
X246397551Y-73394689D03*
X246397551Y-75934689D03*
X246397551Y-78474689D03*
X246397551Y-81014689D03*
X246397551Y-83554689D03*
X246397551Y-86094689D03*
X223029551Y-73394689D03*
X223029551Y-75934689D03*
X223029551Y-78474689D03*
X223029551Y-81014689D03*
X223029551Y-83554689D03*
X223029551Y-86094689D03*
X199661551Y-73394689D03*
X199661551Y-75934689D03*
X199661551Y-78474689D03*
X199661551Y-81014689D03*
X199661551Y-83554689D03*
X199661551Y-86094689D03*
X176293551Y-73394689D03*
X176293551Y-75934689D03*
X176293551Y-78474689D03*
X176293551Y-81014689D03*
X176293551Y-83554689D03*
X176293551Y-86094689D03*
X152925551Y-73394689D03*
X152925551Y-75934689D03*
X152925551Y-78474689D03*
X152925551Y-81014689D03*
X152925551Y-83554689D03*
X152925551Y-86094689D03*
X129557551Y-73394689D03*
X129557551Y-75934689D03*
X129557551Y-78474689D03*
X129557551Y-81014689D03*
X129557551Y-83554689D03*
X129557551Y-86094689D03*
X106189551Y-73394689D03*
X106189551Y-75934689D03*
X106189551Y-78474689D03*
X106189551Y-81014689D03*
X106189551Y-83554689D03*
X106189551Y-86094689D03*
X82821551Y-73394689D03*
X82821551Y-75934689D03*
X82821551Y-78474689D03*
X82821551Y-81014689D03*
X82821551Y-83554689D03*
X82821551Y-86094689D03*
D14*
X244238551Y-110605689D03*
X220870551Y-110605689D03*
X197502551Y-110605689D03*
X174134551Y-110605689D03*
X150766551Y-110605689D03*
X127398551Y-110605689D03*
X104030551Y-110605689D03*
X80662551Y-110605689D03*
X239793551Y-102604689D03*
X216425551Y-102604689D03*
X193057551Y-102604689D03*
X169689551Y-102604689D03*
X146321551Y-102604689D03*
X122953551Y-102604689D03*
X99585551Y-102604689D03*
X76217551Y-102604689D03*
X226331551Y-91682689D03*
X202963551Y-91682689D03*
X179595551Y-91682689D03*
X156227551Y-91682689D03*
X132859551Y-91682689D03*
X109491551Y-91682689D03*
X86123551Y-91682689D03*
X62755551Y-91682689D03*
X240301551Y-99937689D03*
X216933551Y-99937689D03*
X193565551Y-99937689D03*
X170197551Y-99937689D03*
X146829551Y-99937689D03*
X123461551Y-99937689D03*
X100093551Y-99937689D03*
X76725551Y-99937689D03*
X234967551Y-106922689D03*
X211599551Y-106922689D03*
X188231551Y-106922689D03*
X164863551Y-106922689D03*
X141495551Y-106922689D03*
X118127551Y-106922689D03*
X94759551Y-106922689D03*
X71391551Y-106922689D03*
X231792551Y-82792689D03*
X208424551Y-82792689D03*
X185056551Y-82792689D03*
X161688551Y-82792689D03*
X138320551Y-82792689D03*
X114952551Y-82792689D03*
X91584551Y-82792689D03*
X68216551Y-82792689D03*
X237888551Y-112764689D03*
X214520551Y-112764689D03*
X191152551Y-112764689D03*
X167784551Y-112764689D03*
X144416551Y-112764689D03*
X121048551Y-112764689D03*
X97680551Y-112764689D03*
X74312551Y-112764689D03*
X231538551Y-107557689D03*
X208170551Y-107557689D03*
X184802551Y-107557689D03*
X161434551Y-107557689D03*
X138066551Y-107557689D03*
X114698551Y-107557689D03*
X91330551Y-107557689D03*
X67962551Y-107557689D03*
X227220551Y-108954689D03*
X203852551Y-108954689D03*
X180484551Y-108954689D03*
X157116551Y-108954689D03*
X133748551Y-108954689D03*
X110380551Y-108954689D03*
X87012551Y-108954689D03*
X63644551Y-108954689D03*
X239666551Y-108573689D03*
X216298551Y-108573689D03*
X192930551Y-108573689D03*
X169562551Y-108573689D03*
X146194551Y-108573689D03*
X122826551Y-108573689D03*
X99458551Y-108573689D03*
X76090551Y-108573689D03*
X239666551Y-100572689D03*
X216298551Y-100572689D03*
X192930551Y-100572689D03*
X169562551Y-100572689D03*
X146194551Y-100572689D03*
X122826551Y-100572689D03*
X99458551Y-100572689D03*
X76090551Y-100572689D03*
X234840551Y-102731689D03*
X211472551Y-102731689D03*
X188104551Y-102731689D03*
X164736551Y-102731689D03*
X141368551Y-102731689D03*
X118000551Y-102731689D03*
X94632551Y-102731689D03*
X71264551Y-102731689D03*
X231538551Y-94984689D03*
X208170551Y-94984689D03*
X184802551Y-94984689D03*
X161434551Y-94984689D03*
X138066551Y-94984689D03*
X114698551Y-94984689D03*
X91330551Y-94984689D03*
X67962551Y-94984689D03*
X227982551Y-102096689D03*
X204614551Y-102096689D03*
X181246551Y-102096689D03*
X157878551Y-102096689D03*
X134510551Y-102096689D03*
X111142551Y-102096689D03*
X87774551Y-102096689D03*
X64406551Y-102096689D03*
X232681551Y-94984689D03*
X209313551Y-94984689D03*
X185945551Y-94984689D03*
X162577551Y-94984689D03*
X139209551Y-94984689D03*
X115841551Y-94984689D03*
X92473551Y-94984689D03*
X69105551Y-94984689D03*
X230014551Y-102096689D03*
X206646551Y-102096689D03*
X183278551Y-102096689D03*
X159910551Y-102096689D03*
X136542551Y-102096689D03*
X113174551Y-102096689D03*
X89806551Y-102096689D03*
X66438551Y-102096689D03*
X237634551Y-80760689D03*
X214266551Y-80760689D03*
X190898551Y-80760689D03*
X167530551Y-80760689D03*
X144162551Y-80760689D03*
X120794551Y-80760689D03*
X97426551Y-80760689D03*
X74058551Y-80760689D03*
X234586551Y-97524689D03*
X211218551Y-97524689D03*
X187850551Y-97524689D03*
X164482551Y-97524689D03*
X141114551Y-97524689D03*
X117746551Y-97524689D03*
X94378551Y-97524689D03*
X71010551Y-97524689D03*
X238396551Y-82030689D03*
X215028551Y-82030689D03*
X191660551Y-82030689D03*
X168292551Y-82030689D03*
X144924551Y-82030689D03*
X121556551Y-82030689D03*
X98188551Y-82030689D03*
X74820551Y-82030689D03*
X236999551Y-96635689D03*
X213631551Y-96635689D03*
X190263551Y-96635689D03*
X166895551Y-96635689D03*
X143527551Y-96635689D03*
X120159551Y-96635689D03*
X96791551Y-96635689D03*
X73423551Y-96635689D03*
X239412551Y-79490689D03*
X216044551Y-79490689D03*
X192676551Y-79490689D03*
X169308551Y-79490689D03*
X145940551Y-79490689D03*
X122572551Y-79490689D03*
X99204551Y-79490689D03*
X75836551Y-79490689D03*
X236364551Y-98794689D03*
X212996551Y-98794689D03*
X189628551Y-98794689D03*
X166260551Y-98794689D03*
X142892551Y-98794689D03*
X119524551Y-98794689D03*
X96156551Y-98794689D03*
X72788551Y-98794689D03*
X241063551Y-84316689D03*
X217695551Y-84316689D03*
X194327551Y-84316689D03*
X170959551Y-84316689D03*
X147591551Y-84316689D03*
X124223551Y-84316689D03*
X100855551Y-84316689D03*
X77487551Y-84316689D03*
D15*
X240301551Y-99937689D02*
X240601550Y-99637690D01*
X216933551Y-99937689D02*
X217233550Y-99637690D01*
X193565551Y-99937689D02*
X193865550Y-99637690D01*
X170197551Y-99937689D02*
X170497550Y-99637690D01*
X146829551Y-99937689D02*
X147129550Y-99637690D01*
X123461551Y-99937689D02*
X123761550Y-99637690D01*
X100093551Y-99937689D02*
X100393550Y-99637690D01*
X76725551Y-99937689D02*
X77025550Y-99637690D01*
X240093550Y-102304690D02*
X240220550Y-102304690D01*
X216725550Y-102304690D02*
X216852550Y-102304690D01*
X193357550Y-102304690D02*
X193484550Y-102304690D01*
X169989550Y-102304690D02*
X170116550Y-102304690D01*
X146621550Y-102304690D02*
X146748550Y-102304690D01*
X123253550Y-102304690D02*
X123380550Y-102304690D01*
X99885550Y-102304690D02*
X100012550Y-102304690D01*
X76517550Y-102304690D02*
X76644550Y-102304690D01*
X239793551Y-102604689D02*
X240093550Y-102304690D01*
X216425551Y-102604689D02*
X216725550Y-102304690D01*
X193057551Y-102604689D02*
X193357550Y-102304690D01*
X169689551Y-102604689D02*
X169989550Y-102304690D01*
X146321551Y-102604689D02*
X146621550Y-102304690D01*
X122953551Y-102604689D02*
X123253550Y-102304690D01*
X99585551Y-102604689D02*
X99885550Y-102304690D01*
X76217551Y-102604689D02*
X76517550Y-102304690D01*
X241063551Y-101461689D02*
X241063551Y-100699689D01*
X217695551Y-101461689D02*
X217695551Y-100699689D01*
X194327551Y-101461689D02*
X194327551Y-100699689D01*
X170959551Y-101461689D02*
X170959551Y-100699689D01*
X147591551Y-101461689D02*
X147591551Y-100699689D01*
X124223551Y-101461689D02*
X124223551Y-100699689D01*
X100855551Y-101461689D02*
X100855551Y-100699689D01*
X77487551Y-101461689D02*
X77487551Y-100699689D01*
X240220550Y-102304690D02*
X241063551Y-101461689D01*
X216852550Y-102304690D02*
X217695551Y-101461689D01*
X193484550Y-102304690D02*
X194327551Y-101461689D01*
X170116550Y-102304690D02*
X170959551Y-101461689D01*
X146748550Y-102304690D02*
X147591551Y-101461689D01*
X123380550Y-102304690D02*
X124223551Y-101461689D01*
X100012550Y-102304690D02*
X100855551Y-101461689D01*
X76644550Y-102304690D02*
X77487551Y-101461689D01*
X241063551Y-100699689D02*
X240301551Y-99937689D01*
X217695551Y-100699689D02*
X216933551Y-99937689D01*
X194327551Y-100699689D02*
X193565551Y-99937689D01*
X170959551Y-100699689D02*
X170197551Y-99937689D01*
X147591551Y-100699689D02*
X146829551Y-99937689D01*
X124223551Y-100699689D02*
X123461551Y-99937689D01*
X100855551Y-100699689D02*
X100093551Y-99937689D01*
X77487551Y-100699689D02*
X76725551Y-99937689D01*
X233443551Y-105822953D02*
X233443551Y-84443689D01*
X210075551Y-105822953D02*
X210075551Y-84443689D01*
X186707551Y-105822953D02*
X186707551Y-84443689D01*
X163339551Y-105822953D02*
X163339551Y-84443689D01*
X139971551Y-105822953D02*
X139971551Y-84443689D01*
X116603551Y-105822953D02*
X116603551Y-84443689D01*
X93235551Y-105822953D02*
X93235551Y-84443689D01*
X69867551Y-105822953D02*
X69867551Y-84443689D01*
X234967551Y-106922689D02*
X234543287Y-106922689D01*
X211599551Y-106922689D02*
X211175287Y-106922689D01*
X188231551Y-106922689D02*
X187807287Y-106922689D01*
X164863551Y-106922689D02*
X164439287Y-106922689D01*
X141495551Y-106922689D02*
X141071287Y-106922689D01*
X118127551Y-106922689D02*
X117703287Y-106922689D01*
X94759551Y-106922689D02*
X94335287Y-106922689D01*
X71391551Y-106922689D02*
X70967287Y-106922689D01*
X233443551Y-84443689D02*
X231792551Y-82792689D01*
X210075551Y-84443689D02*
X208424551Y-82792689D01*
X186707551Y-84443689D02*
X185056551Y-82792689D01*
X163339551Y-84443689D02*
X161688551Y-82792689D01*
X139971551Y-84443689D02*
X138320551Y-82792689D01*
X116603551Y-84443689D02*
X114952551Y-82792689D01*
X93235551Y-84443689D02*
X91584551Y-82792689D01*
X69867551Y-84443689D02*
X68216551Y-82792689D01*
X234543287Y-106922689D02*
X233443551Y-105822953D01*
X211175287Y-106922689D02*
X210075551Y-105822953D01*
X187807287Y-106922689D02*
X186707551Y-105822953D01*
X164439287Y-106922689D02*
X163339551Y-105822953D01*
X141071287Y-106922689D02*
X139971551Y-105822953D01*
X117703287Y-106922689D02*
X116603551Y-105822953D01*
X94335287Y-106922689D02*
X93235551Y-105822953D01*
X70967287Y-106922689D02*
X69867551Y-105822953D01*
X231538551Y-107557689D02*
X228617551Y-107557689D01*
X208170551Y-107557689D02*
X205249551Y-107557689D01*
X184802551Y-107557689D02*
X181881551Y-107557689D01*
X161434551Y-107557689D02*
X158513551Y-107557689D01*
X138066551Y-107557689D02*
X135145551Y-107557689D01*
X114698551Y-107557689D02*
X111777551Y-107557689D01*
X91330551Y-107557689D02*
X88409551Y-107557689D01*
X67962551Y-107557689D02*
X65041551Y-107557689D01*
X228617551Y-107557689D02*
X227220551Y-108954689D01*
X205249551Y-107557689D02*
X203852551Y-108954689D01*
X181881551Y-107557689D02*
X180484551Y-108954689D01*
X158513551Y-107557689D02*
X157116551Y-108954689D01*
X135145551Y-107557689D02*
X133748551Y-108954689D01*
X111777551Y-107557689D02*
X110380551Y-108954689D01*
X88409551Y-107557689D02*
X87012551Y-108954689D01*
X65041551Y-107557689D02*
X63644551Y-108954689D01*
X237888551Y-112764689D02*
X231030551Y-112764689D01*
X214520551Y-112764689D02*
X207662551Y-112764689D01*
X191152551Y-112764689D02*
X184294551Y-112764689D01*
X167784551Y-112764689D02*
X160926551Y-112764689D01*
X144416551Y-112764689D02*
X137558551Y-112764689D01*
X121048551Y-112764689D02*
X114190551Y-112764689D01*
X97680551Y-112764689D02*
X90822551Y-112764689D01*
X74312551Y-112764689D02*
X67454551Y-112764689D01*
X231030551Y-112764689D02*
X227220551Y-108954689D01*
X207662551Y-112764689D02*
X203852551Y-108954689D01*
X184294551Y-112764689D02*
X180484551Y-108954689D01*
X160926551Y-112764689D02*
X157116551Y-108954689D01*
X137558551Y-112764689D02*
X133748551Y-108954689D01*
X114190551Y-112764689D02*
X110380551Y-108954689D01*
X90822551Y-112764689D02*
X87012551Y-108954689D01*
X67454551Y-112764689D02*
X63644551Y-108954689D01*
X237507551Y-102731689D02*
X234840551Y-102731689D01*
X214139551Y-102731689D02*
X211472551Y-102731689D01*
X190771551Y-102731689D02*
X188104551Y-102731689D01*
X167403551Y-102731689D02*
X164736551Y-102731689D01*
X144035551Y-102731689D02*
X141368551Y-102731689D01*
X120667551Y-102731689D02*
X118000551Y-102731689D01*
X97299551Y-102731689D02*
X94632551Y-102731689D01*
X73931551Y-102731689D02*
X71264551Y-102731689D01*
X239666551Y-100572689D02*
X237507551Y-102731689D01*
X216298551Y-100572689D02*
X214139551Y-102731689D01*
X192930551Y-100572689D02*
X190771551Y-102731689D01*
X169562551Y-100572689D02*
X167403551Y-102731689D01*
X146194551Y-100572689D02*
X144035551Y-102731689D01*
X122826551Y-100572689D02*
X120667551Y-102731689D01*
X99458551Y-100572689D02*
X97299551Y-102731689D01*
X76090551Y-100572689D02*
X73931551Y-102731689D01*
X239666551Y-108573689D02*
X237507551Y-106414689D01*
X216298551Y-108573689D02*
X214139551Y-106414689D01*
X192930551Y-108573689D02*
X190771551Y-106414689D01*
X169562551Y-108573689D02*
X167403551Y-106414689D01*
X146194551Y-108573689D02*
X144035551Y-106414689D01*
X122826551Y-108573689D02*
X120667551Y-106414689D01*
X99458551Y-108573689D02*
X97299551Y-106414689D01*
X76090551Y-108573689D02*
X73931551Y-106414689D01*
X237507551Y-106414689D02*
X237507551Y-102731689D01*
X214139551Y-106414689D02*
X214139551Y-102731689D01*
X190771551Y-106414689D02*
X190771551Y-102731689D01*
X167403551Y-106414689D02*
X167403551Y-102731689D01*
X144035551Y-106414689D02*
X144035551Y-102731689D01*
X120667551Y-106414689D02*
X120667551Y-102731689D01*
X97299551Y-106414689D02*
X97299551Y-102731689D01*
X73931551Y-106414689D02*
X73931551Y-102731689D01*
X227982551Y-98540689D02*
X231538551Y-94984689D01*
X204614551Y-98540689D02*
X208170551Y-94984689D01*
X181246551Y-98540689D02*
X184802551Y-94984689D01*
X157878551Y-98540689D02*
X161434551Y-94984689D01*
X134510551Y-98540689D02*
X138066551Y-94984689D01*
X111142551Y-98540689D02*
X114698551Y-94984689D01*
X87774551Y-98540689D02*
X91330551Y-94984689D01*
X64406551Y-98540689D02*
X67962551Y-94984689D01*
X227982551Y-102096689D02*
X227982551Y-98540689D01*
X204614551Y-102096689D02*
X204614551Y-98540689D01*
X181246551Y-102096689D02*
X181246551Y-98540689D01*
X157878551Y-102096689D02*
X157878551Y-98540689D01*
X134510551Y-102096689D02*
X134510551Y-98540689D01*
X111142551Y-102096689D02*
X111142551Y-98540689D01*
X87774551Y-102096689D02*
X87774551Y-98540689D01*
X64406551Y-102096689D02*
X64406551Y-98540689D01*
X230014551Y-97651689D02*
X232681551Y-94984689D01*
X206646551Y-97651689D02*
X209313551Y-94984689D01*
X183278551Y-97651689D02*
X185945551Y-94984689D01*
X159910551Y-97651689D02*
X162577551Y-94984689D01*
X136542551Y-97651689D02*
X139209551Y-94984689D01*
X113174551Y-97651689D02*
X115841551Y-94984689D01*
X89806551Y-97651689D02*
X92473551Y-94984689D01*
X66438551Y-97651689D02*
X69105551Y-94984689D01*
X230014551Y-102096689D02*
X230014551Y-97651689D01*
X206646551Y-102096689D02*
X206646551Y-97651689D01*
X183278551Y-102096689D02*
X183278551Y-97651689D01*
X159910551Y-102096689D02*
X159910551Y-97651689D01*
X136542551Y-102096689D02*
X136542551Y-97651689D01*
X113174551Y-102096689D02*
X113174551Y-97651689D01*
X89806551Y-102096689D02*
X89806551Y-97651689D01*
X66438551Y-102096689D02*
X66438551Y-97651689D01*
X237634551Y-94730689D02*
X236491551Y-95873689D01*
X214266551Y-94730689D02*
X213123551Y-95873689D01*
X190898551Y-94730689D02*
X189755551Y-95873689D01*
X167530551Y-94730689D02*
X166387551Y-95873689D01*
X144162551Y-94730689D02*
X143019551Y-95873689D01*
X120794551Y-94730689D02*
X119651551Y-95873689D01*
X97426551Y-94730689D02*
X96283551Y-95873689D01*
X74058551Y-94730689D02*
X72915551Y-95873689D01*
X234840551Y-97524689D02*
X234586551Y-97524689D01*
X211472551Y-97524689D02*
X211218551Y-97524689D01*
X188104551Y-97524689D02*
X187850551Y-97524689D01*
X164736551Y-97524689D02*
X164482551Y-97524689D01*
X141368551Y-97524689D02*
X141114551Y-97524689D01*
X118000551Y-97524689D02*
X117746551Y-97524689D01*
X94632551Y-97524689D02*
X94378551Y-97524689D01*
X71264551Y-97524689D02*
X71010551Y-97524689D01*
X236491551Y-95873689D02*
X234840551Y-97524689D01*
X213123551Y-95873689D02*
X211472551Y-97524689D01*
X189755551Y-95873689D02*
X188104551Y-97524689D01*
X166387551Y-95873689D02*
X164736551Y-97524689D01*
X143019551Y-95873689D02*
X141368551Y-97524689D01*
X119651551Y-95873689D02*
X118000551Y-97524689D01*
X96283551Y-95873689D02*
X94632551Y-97524689D01*
X72915551Y-95873689D02*
X71264551Y-97524689D01*
X237634551Y-80760689D02*
X237634551Y-94730689D01*
X214266551Y-80760689D02*
X214266551Y-94730689D01*
X190898551Y-80760689D02*
X190898551Y-94730689D01*
X167530551Y-80760689D02*
X167530551Y-94730689D01*
X144162551Y-80760689D02*
X144162551Y-94730689D01*
X120794551Y-80760689D02*
X120794551Y-94730689D01*
X97426551Y-80760689D02*
X97426551Y-94730689D01*
X74058551Y-80760689D02*
X74058551Y-94730689D01*
X238096552Y-95157688D02*
X238096552Y-95538688D01*
X214728552Y-95157688D02*
X214728552Y-95538688D01*
X191360552Y-95157688D02*
X191360552Y-95538688D01*
X167992552Y-95157688D02*
X167992552Y-95538688D01*
X144624552Y-95157688D02*
X144624552Y-95538688D01*
X121256552Y-95157688D02*
X121256552Y-95538688D01*
X97888552Y-95157688D02*
X97888552Y-95538688D01*
X74520552Y-95157688D02*
X74520552Y-95538688D01*
X238096552Y-95538688D02*
X236999551Y-96635689D01*
X214728552Y-95538688D02*
X213631551Y-96635689D01*
X191360552Y-95538688D02*
X190263551Y-96635689D01*
X167992552Y-95538688D02*
X166895551Y-96635689D01*
X144624552Y-95538688D02*
X143527551Y-96635689D01*
X121256552Y-95538688D02*
X120159551Y-96635689D01*
X97888552Y-95538688D02*
X96791551Y-96635689D01*
X74520552Y-95538688D02*
X73423551Y-96635689D01*
X238096552Y-82330688D02*
X238096552Y-95157688D01*
X214728552Y-82330688D02*
X214728552Y-95157688D01*
X191360552Y-82330688D02*
X191360552Y-95157688D01*
X167992552Y-82330688D02*
X167992552Y-95157688D01*
X144624552Y-82330688D02*
X144624552Y-95157688D01*
X121256552Y-82330688D02*
X121256552Y-95157688D01*
X97888552Y-82330688D02*
X97888552Y-95157688D01*
X74520552Y-82330688D02*
X74520552Y-95157688D01*
X238396551Y-82030689D02*
X238096552Y-82330688D01*
X215028551Y-82030689D02*
X214728552Y-82330688D01*
X191660551Y-82030689D02*
X191360552Y-82330688D01*
X168292551Y-82030689D02*
X167992552Y-82330688D01*
X144924551Y-82030689D02*
X144624552Y-82330688D01*
X121556551Y-82030689D02*
X121256552Y-82330688D01*
X98188551Y-82030689D02*
X97888552Y-82330688D01*
X74820551Y-82030689D02*
X74520552Y-82330688D01*
X239412551Y-79490689D02*
X239412551Y-95746689D01*
X216044551Y-79490689D02*
X216044551Y-95746689D01*
X192676551Y-79490689D02*
X192676551Y-95746689D01*
X169308551Y-79490689D02*
X169308551Y-95746689D01*
X145940551Y-79490689D02*
X145940551Y-95746689D01*
X122572551Y-79490689D02*
X122572551Y-95746689D01*
X99204551Y-79490689D02*
X99204551Y-95746689D01*
X75836551Y-79490689D02*
X75836551Y-95746689D01*
X239412551Y-95746689D02*
X236364551Y-98794689D01*
X216044551Y-95746689D02*
X212996551Y-98794689D01*
X192676551Y-95746689D02*
X189628551Y-98794689D01*
X169308551Y-95746689D02*
X166260551Y-98794689D01*
X145940551Y-95746689D02*
X142892551Y-98794689D01*
X122572551Y-95746689D02*
X119524551Y-98794689D01*
X99204551Y-95746689D02*
X96156551Y-98794689D01*
X75836551Y-95746689D02*
X72788551Y-98794689D01*
X241063551Y-84316689D02*
X241401371Y-83978869D01*
X217695551Y-84316689D02*
X218033371Y-83978869D01*
X194327551Y-84316689D02*
X194665371Y-83978869D01*
X170959551Y-84316689D02*
X171297371Y-83978869D01*
X147591551Y-84316689D02*
X147929371Y-83978869D01*
X124223551Y-84316689D02*
X124561371Y-83978869D01*
X100855551Y-84316689D02*
X101193371Y-83978869D01*
X77487551Y-84316689D02*
X77825371Y-83978869D01*
X241401371Y-83978869D02*
X241401371Y-70727689D01*
X218033371Y-83978869D02*
X218033371Y-70727689D01*
X194665371Y-83978869D02*
X194665371Y-70727689D01*
X171297371Y-83978869D02*
X171297371Y-70727689D01*
X147929371Y-83978869D02*
X147929371Y-70727689D01*
X124561371Y-83978869D02*
X124561371Y-70727689D01*
X101193371Y-83978869D02*
X101193371Y-70727689D01*
X77825371Y-83978869D02*
X77825371Y-70727689D01*
D16*
G36*
X83381551Y-71922053D02*
X83136172Y-71820163D01*
X82509678Y-71819616D01*
X81930664Y-72058860D01*
X81487279Y-72501472D01*
X81247025Y-73080068D01*
X81246478Y-73706562D01*
X81485722Y-74285576D01*
X81864447Y-74664962D01*
X81487279Y-75041472D01*
X81247025Y-75620068D01*
X81246478Y-76246562D01*
X81485722Y-76825576D01*
X81864447Y-77204962D01*
X81487279Y-77581472D01*
X81247025Y-78160068D01*
X81246478Y-78786562D01*
X81485722Y-79365576D01*
X81864447Y-79744962D01*
X81487279Y-80121472D01*
X81247025Y-80700068D01*
X81246478Y-81326562D01*
X81485722Y-81905576D01*
X81864447Y-82284962D01*
X81487279Y-82661472D01*
X81247025Y-83240068D01*
X81246478Y-83866562D01*
X81485722Y-84445576D01*
X81864447Y-84824962D01*
X81487279Y-85201472D01*
X81247025Y-85780068D01*
X81246478Y-86406562D01*
X81485722Y-86985576D01*
X81928334Y-87428961D01*
X82506930Y-87669215D01*
X83133424Y-87669762D01*
X83381551Y-87567238D01*
X83381551Y-113578689D01*
X74790953Y-113578689D01*
X74841494Y-113557806D01*
X75104743Y-113295016D01*
X75247389Y-112951488D01*
X75247713Y-112579522D01*
X75105668Y-112235746D01*
X74842878Y-111972497D01*
X74499350Y-111829851D01*
X74127384Y-111829527D01*
X73783608Y-111971572D01*
X73750433Y-112004689D01*
X67769353Y-112004689D01*
X64719353Y-108954689D01*
X65356353Y-108317689D01*
X67400088Y-108317689D01*
X67432224Y-108349881D01*
X67775752Y-108492527D01*
X68147718Y-108492851D01*
X68491494Y-108350806D01*
X68754743Y-108088016D01*
X68897389Y-107744488D01*
X68897713Y-107372522D01*
X68755668Y-107028746D01*
X68492878Y-106765497D01*
X68149350Y-106622851D01*
X67777384Y-106622527D01*
X67433608Y-106764572D01*
X67400433Y-106797689D01*
X65041551Y-106797689D01*
X64750711Y-106855541D01*
X64504150Y-107020288D01*
X63504871Y-108019567D01*
X63459384Y-108019527D01*
X63115608Y-108161572D01*
X62852359Y-108424362D01*
X62709713Y-108767890D01*
X62709389Y-109139856D01*
X62851434Y-109483632D01*
X63114224Y-109746881D01*
X63457752Y-109889527D01*
X63504628Y-109889568D01*
X66917150Y-113302090D01*
X67163712Y-113466837D01*
X67454551Y-113524689D01*
X73750088Y-113524689D01*
X73782224Y-113556881D01*
X73834743Y-113578689D01*
X61941551Y-113578689D01*
X61941551Y-102281856D01*
X63471389Y-102281856D01*
X63613434Y-102625632D01*
X63876224Y-102888881D01*
X64219752Y-103031527D01*
X64591718Y-103031851D01*
X64935494Y-102889806D01*
X65198743Y-102627016D01*
X65341389Y-102283488D01*
X65341713Y-101911522D01*
X65199668Y-101567746D01*
X65166551Y-101534571D01*
X65166551Y-98855491D01*
X65678551Y-98343491D01*
X65678551Y-101534226D01*
X65646359Y-101566362D01*
X65503713Y-101909890D01*
X65503389Y-102281856D01*
X65645434Y-102625632D01*
X65908224Y-102888881D01*
X66251752Y-103031527D01*
X66623718Y-103031851D01*
X66967494Y-102889806D01*
X67230743Y-102627016D01*
X67373389Y-102283488D01*
X67373713Y-101911522D01*
X67231668Y-101567746D01*
X67198551Y-101534571D01*
X67198551Y-97966491D01*
X69107551Y-96057491D01*
X69107551Y-105822953D01*
X69165403Y-106113792D01*
X69330150Y-106360354D01*
X70429886Y-107460090D01*
X70676448Y-107624837D01*
X70794847Y-107648388D01*
X70861224Y-107714881D01*
X71204752Y-107857527D01*
X71576718Y-107857851D01*
X71920494Y-107715806D01*
X72183743Y-107453016D01*
X72326389Y-107109488D01*
X72326713Y-106737522D01*
X72184668Y-106393746D01*
X71921878Y-106130497D01*
X71578350Y-105987851D01*
X71206384Y-105987527D01*
X71136006Y-106016606D01*
X70627551Y-105508151D01*
X70627551Y-103417022D01*
X70734224Y-103523881D01*
X71077752Y-103666527D01*
X71449718Y-103666851D01*
X71793494Y-103524806D01*
X71826669Y-103491689D01*
X73171551Y-103491689D01*
X73171551Y-106414689D01*
X73229403Y-106705528D01*
X73394150Y-106952090D01*
X75155429Y-108713369D01*
X75155389Y-108758856D01*
X75297434Y-109102632D01*
X75560224Y-109365881D01*
X75903752Y-109508527D01*
X76275718Y-109508851D01*
X76619494Y-109366806D01*
X76882743Y-109104016D01*
X77025389Y-108760488D01*
X77025713Y-108388522D01*
X76883668Y-108044746D01*
X76620878Y-107781497D01*
X76277350Y-107638851D01*
X76230474Y-107638810D01*
X74691551Y-106099887D01*
X74691551Y-103046491D01*
X76230231Y-101507811D01*
X76275718Y-101507851D01*
X76619494Y-101365806D01*
X76882743Y-101103016D01*
X77025389Y-100759488D01*
X77025713Y-100387522D01*
X76883668Y-100043746D01*
X76620878Y-99780497D01*
X76277350Y-99637851D01*
X75905384Y-99637527D01*
X75561608Y-99779572D01*
X75298359Y-100042362D01*
X75155713Y-100385890D01*
X75155672Y-100432766D01*
X73616749Y-101971689D01*
X71827014Y-101971689D01*
X71794878Y-101939497D01*
X71451350Y-101796851D01*
X71079384Y-101796527D01*
X70735608Y-101938572D01*
X70627551Y-102046441D01*
X70627551Y-98378057D01*
X70823752Y-98459527D01*
X71195718Y-98459851D01*
X71539494Y-98317806D01*
X71782913Y-98074811D01*
X71801952Y-98062090D01*
X72664892Y-97199150D01*
X72893224Y-97427881D01*
X73025593Y-97482845D01*
X72648871Y-97859567D01*
X72603384Y-97859527D01*
X72259608Y-98001572D01*
X71996359Y-98264362D01*
X71853713Y-98607890D01*
X71853389Y-98979856D01*
X71995434Y-99323632D01*
X72258224Y-99586881D01*
X72601752Y-99729527D01*
X72973718Y-99729851D01*
X73317494Y-99587806D01*
X73580743Y-99325016D01*
X73723389Y-98981488D01*
X73723430Y-98934612D01*
X76373952Y-96284090D01*
X76538699Y-96037528D01*
X76596551Y-95746689D01*
X76596551Y-84608736D01*
X76694434Y-84845632D01*
X76957224Y-85108881D01*
X77300752Y-85251527D01*
X77672718Y-85251851D01*
X78016494Y-85109806D01*
X78279743Y-84847016D01*
X78422389Y-84503488D01*
X78422456Y-84426947D01*
X78527519Y-84269708D01*
X78585371Y-83978869D01*
X78585371Y-72200048D01*
X78759366Y-72128155D01*
X79224205Y-71664126D01*
X79476084Y-71057534D01*
X79476657Y-70400726D01*
X79225837Y-69793694D01*
X78761808Y-69328855D01*
X78155216Y-69076976D01*
X77498408Y-69076403D01*
X76891376Y-69327223D01*
X76426537Y-69791252D01*
X76174658Y-70397844D01*
X76174085Y-71054652D01*
X76424905Y-71661684D01*
X76888934Y-72126523D01*
X77065371Y-72199786D01*
X77065371Y-83479459D01*
X76958608Y-83523572D01*
X76695359Y-83786362D01*
X76596551Y-84024317D01*
X76596551Y-80053152D01*
X76628743Y-80021016D01*
X76771389Y-79677488D01*
X76771713Y-79305522D01*
X76629668Y-78961746D01*
X76366878Y-78698497D01*
X76023350Y-78555851D01*
X75651384Y-78555527D01*
X75307608Y-78697572D01*
X75044359Y-78960362D01*
X74901713Y-79303890D01*
X74901389Y-79675856D01*
X75043434Y-80019632D01*
X75076551Y-80052807D01*
X75076551Y-81124586D01*
X75007350Y-81095851D01*
X74931810Y-81095785D01*
X74993389Y-80947488D01*
X74993713Y-80575522D01*
X74851668Y-80231746D01*
X74588878Y-79968497D01*
X74245350Y-79825851D01*
X73873384Y-79825527D01*
X73529608Y-79967572D01*
X73266359Y-80230362D01*
X73123713Y-80573890D01*
X73123389Y-80945856D01*
X73265434Y-81289632D01*
X73298551Y-81322807D01*
X73298551Y-94415887D01*
X71124650Y-96589788D01*
X70825384Y-96589527D01*
X70627551Y-96671270D01*
X70627551Y-84443689D01*
X70569699Y-84152850D01*
X70404952Y-83906288D01*
X69151673Y-82653009D01*
X69151713Y-82607522D01*
X69009668Y-82263746D01*
X68746878Y-82000497D01*
X68403350Y-81857851D01*
X68031384Y-81857527D01*
X67687608Y-81999572D01*
X67424359Y-82262362D01*
X67281713Y-82605890D01*
X67281389Y-82977856D01*
X67423434Y-83321632D01*
X67686224Y-83584881D01*
X68029752Y-83727527D01*
X68076628Y-83727568D01*
X69107551Y-84758491D01*
X69107551Y-94049690D01*
X68920384Y-94049527D01*
X68576608Y-94191572D01*
X68534207Y-94233899D01*
X68492878Y-94192497D01*
X68149350Y-94049851D01*
X67777384Y-94049527D01*
X67433608Y-94191572D01*
X67170359Y-94454362D01*
X67027713Y-94797890D01*
X67027672Y-94844766D01*
X63869150Y-98003288D01*
X63704403Y-98249850D01*
X63646551Y-98540689D01*
X63646551Y-101534226D01*
X63614359Y-101566362D01*
X63471713Y-101909890D01*
X63471389Y-102281856D01*
X61941551Y-102281856D01*
X61941551Y-87567325D01*
X62186930Y-87669215D01*
X62813424Y-87669762D01*
X63392438Y-87430518D01*
X63835823Y-86987906D01*
X64076077Y-86409310D01*
X64076624Y-85782816D01*
X63837380Y-85203802D01*
X63458655Y-84824416D01*
X63835823Y-84447906D01*
X64076077Y-83869310D01*
X64076624Y-83242816D01*
X63837380Y-82663802D01*
X63458655Y-82284416D01*
X63835823Y-81907906D01*
X64076077Y-81329310D01*
X64076624Y-80702816D01*
X63837380Y-80123802D01*
X63458655Y-79744416D01*
X63835823Y-79367906D01*
X64076077Y-78789310D01*
X64076624Y-78162816D01*
X63837380Y-77583802D01*
X63458655Y-77204416D01*
X63835823Y-76827906D01*
X64076077Y-76249310D01*
X64076624Y-75622816D01*
X63837380Y-75043802D01*
X63458655Y-74664416D01*
X63835823Y-74287906D01*
X64076077Y-73709310D01*
X64076624Y-73082816D01*
X63837380Y-72503802D01*
X63394768Y-72060417D01*
X62816172Y-71820163D01*
X62189678Y-71819616D01*
X61941551Y-71922140D01*
X61941551Y-71054652D01*
X65676265Y-71054652D01*
X65927085Y-71661684D01*
X66391114Y-72126523D01*
X66997706Y-72378402D01*
X67654514Y-72378975D01*
X68261546Y-72128155D01*
X68726385Y-71664126D01*
X68978264Y-71057534D01*
X68978266Y-71054652D01*
X69173845Y-71054652D01*
X69424665Y-71661684D01*
X69888694Y-72126523D01*
X70495286Y-72378402D01*
X71152094Y-72378975D01*
X71759126Y-72128155D01*
X72223965Y-71664126D01*
X72475844Y-71057534D01*
X72475882Y-71013439D01*
X72674251Y-71013439D01*
X72674251Y-71869999D01*
X72770924Y-72103388D01*
X72949553Y-72282016D01*
X73182942Y-72378689D01*
X74039501Y-72378689D01*
X74198251Y-72219939D01*
X74198251Y-70854689D01*
X74452251Y-70854689D01*
X74452251Y-72219939D01*
X74611001Y-72378689D01*
X75467560Y-72378689D01*
X75700949Y-72282016D01*
X75879578Y-72103388D01*
X75976251Y-71869999D01*
X75976251Y-71013439D01*
X75817501Y-70854689D01*
X74452251Y-70854689D01*
X74198251Y-70854689D01*
X72833001Y-70854689D01*
X72674251Y-71013439D01*
X72475882Y-71013439D01*
X72476417Y-70400726D01*
X72225597Y-69793694D01*
X72017645Y-69585379D01*
X72674251Y-69585379D01*
X72674251Y-70441939D01*
X72833001Y-70600689D01*
X74198251Y-70600689D01*
X74198251Y-69235439D01*
X74452251Y-69235439D01*
X74452251Y-70600689D01*
X75817501Y-70600689D01*
X75976251Y-70441939D01*
X75976251Y-69585379D01*
X75879578Y-69351990D01*
X75700949Y-69173362D01*
X75467560Y-69076689D01*
X74611001Y-69076689D01*
X74452251Y-69235439D01*
X74198251Y-69235439D01*
X74039501Y-69076689D01*
X73182942Y-69076689D01*
X72949553Y-69173362D01*
X72770924Y-69351990D01*
X72674251Y-69585379D01*
X72017645Y-69585379D01*
X71761568Y-69328855D01*
X71154976Y-69076976D01*
X70498168Y-69076403D01*
X69891136Y-69327223D01*
X69426297Y-69791252D01*
X69174418Y-70397844D01*
X69173845Y-71054652D01*
X68978266Y-71054652D01*
X68978837Y-70400726D01*
X68728017Y-69793694D01*
X68263988Y-69328855D01*
X67657396Y-69076976D01*
X67000588Y-69076403D01*
X66393556Y-69327223D01*
X65928717Y-69791252D01*
X65676838Y-70397844D01*
X65676265Y-71054652D01*
X61941551Y-71054652D01*
X61941551Y-65976689D01*
X83381551Y-65976689D01*
X83381551Y-71922053D01*
X83381551Y-71922053D01*
G37*
X83381551Y-71922053D02*
X83136172Y-71820163D01*
X82509678Y-71819616D01*
X81930664Y-72058860D01*
X81487279Y-72501472D01*
X81247025Y-73080068D01*
X81246478Y-73706562D01*
X81485722Y-74285576D01*
X81864447Y-74664962D01*
X81487279Y-75041472D01*
X81247025Y-75620068D01*
X81246478Y-76246562D01*
X81485722Y-76825576D01*
X81864447Y-77204962D01*
X81487279Y-77581472D01*
X81247025Y-78160068D01*
X81246478Y-78786562D01*
X81485722Y-79365576D01*
X81864447Y-79744962D01*
X81487279Y-80121472D01*
X81247025Y-80700068D01*
X81246478Y-81326562D01*
X81485722Y-81905576D01*
X81864447Y-82284962D01*
X81487279Y-82661472D01*
X81247025Y-83240068D01*
X81246478Y-83866562D01*
X81485722Y-84445576D01*
X81864447Y-84824962D01*
X81487279Y-85201472D01*
X81247025Y-85780068D01*
X81246478Y-86406562D01*
X81485722Y-86985576D01*
X81928334Y-87428961D01*
X82506930Y-87669215D01*
X83133424Y-87669762D01*
X83381551Y-87567238D01*
X83381551Y-113578689D01*
X74790953Y-113578689D01*
X74841494Y-113557806D01*
X75104743Y-113295016D01*
X75247389Y-112951488D01*
X75247713Y-112579522D01*
X75105668Y-112235746D01*
X74842878Y-111972497D01*
X74499350Y-111829851D01*
X74127384Y-111829527D01*
X73783608Y-111971572D01*
X73750433Y-112004689D01*
X67769353Y-112004689D01*
X64719353Y-108954689D01*
X65356353Y-108317689D01*
X67400088Y-108317689D01*
X67432224Y-108349881D01*
X67775752Y-108492527D01*
X68147718Y-108492851D01*
X68491494Y-108350806D01*
X68754743Y-108088016D01*
X68897389Y-107744488D01*
X68897713Y-107372522D01*
X68755668Y-107028746D01*
X68492878Y-106765497D01*
X68149350Y-106622851D01*
X67777384Y-106622527D01*
X67433608Y-106764572D01*
X67400433Y-106797689D01*
X65041551Y-106797689D01*
X64750711Y-106855541D01*
X64504150Y-107020288D01*
X63504871Y-108019567D01*
X63459384Y-108019527D01*
X63115608Y-108161572D01*
X62852359Y-108424362D01*
X62709713Y-108767890D01*
X62709389Y-109139856D01*
X62851434Y-109483632D01*
X63114224Y-109746881D01*
X63457752Y-109889527D01*
X63504628Y-109889568D01*
X66917150Y-113302090D01*
X67163712Y-113466837D01*
X67454551Y-113524689D01*
X73750088Y-113524689D01*
X73782224Y-113556881D01*
X73834743Y-113578689D01*
X61941551Y-113578689D01*
X61941551Y-102281856D01*
X63471389Y-102281856D01*
X63613434Y-102625632D01*
X63876224Y-102888881D01*
X64219752Y-103031527D01*
X64591718Y-103031851D01*
X64935494Y-102889806D01*
X65198743Y-102627016D01*
X65341389Y-102283488D01*
X65341713Y-101911522D01*
X65199668Y-101567746D01*
X65166551Y-101534571D01*
X65166551Y-98855491D01*
X65678551Y-98343491D01*
X65678551Y-101534226D01*
X65646359Y-101566362D01*
X65503713Y-101909890D01*
X65503389Y-102281856D01*
X65645434Y-102625632D01*
X65908224Y-102888881D01*
X66251752Y-103031527D01*
X66623718Y-103031851D01*
X66967494Y-102889806D01*
X67230743Y-102627016D01*
X67373389Y-102283488D01*
X67373713Y-101911522D01*
X67231668Y-101567746D01*
X67198551Y-101534571D01*
X67198551Y-97966491D01*
X69107551Y-96057491D01*
X69107551Y-105822953D01*
X69165403Y-106113792D01*
X69330150Y-106360354D01*
X70429886Y-107460090D01*
X70676448Y-107624837D01*
X70794847Y-107648388D01*
X70861224Y-107714881D01*
X71204752Y-107857527D01*
X71576718Y-107857851D01*
X71920494Y-107715806D01*
X72183743Y-107453016D01*
X72326389Y-107109488D01*
X72326713Y-106737522D01*
X72184668Y-106393746D01*
X71921878Y-106130497D01*
X71578350Y-105987851D01*
X71206384Y-105987527D01*
X71136006Y-106016606D01*
X70627551Y-105508151D01*
X70627551Y-103417022D01*
X70734224Y-103523881D01*
X71077752Y-103666527D01*
X71449718Y-103666851D01*
X71793494Y-103524806D01*
X71826669Y-103491689D01*
X73171551Y-103491689D01*
X73171551Y-106414689D01*
X73229403Y-106705528D01*
X73394150Y-106952090D01*
X75155429Y-108713369D01*
X75155389Y-108758856D01*
X75297434Y-109102632D01*
X75560224Y-109365881D01*
X75903752Y-109508527D01*
X76275718Y-109508851D01*
X76619494Y-109366806D01*
X76882743Y-109104016D01*
X77025389Y-108760488D01*
X77025713Y-108388522D01*
X76883668Y-108044746D01*
X76620878Y-107781497D01*
X76277350Y-107638851D01*
X76230474Y-107638810D01*
X74691551Y-106099887D01*
X74691551Y-103046491D01*
X76230231Y-101507811D01*
X76275718Y-101507851D01*
X76619494Y-101365806D01*
X76882743Y-101103016D01*
X77025389Y-100759488D01*
X77025713Y-100387522D01*
X76883668Y-100043746D01*
X76620878Y-99780497D01*
X76277350Y-99637851D01*
X75905384Y-99637527D01*
X75561608Y-99779572D01*
X75298359Y-100042362D01*
X75155713Y-100385890D01*
X75155672Y-100432766D01*
X73616749Y-101971689D01*
X71827014Y-101971689D01*
X71794878Y-101939497D01*
X71451350Y-101796851D01*
X71079384Y-101796527D01*
X70735608Y-101938572D01*
X70627551Y-102046441D01*
X70627551Y-98378057D01*
X70823752Y-98459527D01*
X71195718Y-98459851D01*
X71539494Y-98317806D01*
X71782913Y-98074811D01*
X71801952Y-98062090D01*
X72664892Y-97199150D01*
X72893224Y-97427881D01*
X73025593Y-97482845D01*
X72648871Y-97859567D01*
X72603384Y-97859527D01*
X72259608Y-98001572D01*
X71996359Y-98264362D01*
X71853713Y-98607890D01*
X71853389Y-98979856D01*
X71995434Y-99323632D01*
X72258224Y-99586881D01*
X72601752Y-99729527D01*
X72973718Y-99729851D01*
X73317494Y-99587806D01*
X73580743Y-99325016D01*
X73723389Y-98981488D01*
X73723430Y-98934612D01*
X76373952Y-96284090D01*
X76538699Y-96037528D01*
X76596551Y-95746689D01*
X76596551Y-84608736D01*
X76694434Y-84845632D01*
X76957224Y-85108881D01*
X77300752Y-85251527D01*
X77672718Y-85251851D01*
X78016494Y-85109806D01*
X78279743Y-84847016D01*
X78422389Y-84503488D01*
X78422456Y-84426947D01*
X78527519Y-84269708D01*
X78585371Y-83978869D01*
X78585371Y-72200048D01*
X78759366Y-72128155D01*
X79224205Y-71664126D01*
X79476084Y-71057534D01*
X79476657Y-70400726D01*
X79225837Y-69793694D01*
X78761808Y-69328855D01*
X78155216Y-69076976D01*
X77498408Y-69076403D01*
X76891376Y-69327223D01*
X76426537Y-69791252D01*
X76174658Y-70397844D01*
X76174085Y-71054652D01*
X76424905Y-71661684D01*
X76888934Y-72126523D01*
X77065371Y-72199786D01*
X77065371Y-83479459D01*
X76958608Y-83523572D01*
X76695359Y-83786362D01*
X76596551Y-84024317D01*
X76596551Y-80053152D01*
X76628743Y-80021016D01*
X76771389Y-79677488D01*
X76771713Y-79305522D01*
X76629668Y-78961746D01*
X76366878Y-78698497D01*
X76023350Y-78555851D01*
X75651384Y-78555527D01*
X75307608Y-78697572D01*
X75044359Y-78960362D01*
X74901713Y-79303890D01*
X74901389Y-79675856D01*
X75043434Y-80019632D01*
X75076551Y-80052807D01*
X75076551Y-81124586D01*
X75007350Y-81095851D01*
X74931810Y-81095785D01*
X74993389Y-80947488D01*
X74993713Y-80575522D01*
X74851668Y-80231746D01*
X74588878Y-79968497D01*
X74245350Y-79825851D01*
X73873384Y-79825527D01*
X73529608Y-79967572D01*
X73266359Y-80230362D01*
X73123713Y-80573890D01*
X73123389Y-80945856D01*
X73265434Y-81289632D01*
X73298551Y-81322807D01*
X73298551Y-94415887D01*
X71124650Y-96589788D01*
X70825384Y-96589527D01*
X70627551Y-96671270D01*
X70627551Y-84443689D01*
X70569699Y-84152850D01*
X70404952Y-83906288D01*
X69151673Y-82653009D01*
X69151713Y-82607522D01*
X69009668Y-82263746D01*
X68746878Y-82000497D01*
X68403350Y-81857851D01*
X68031384Y-81857527D01*
X67687608Y-81999572D01*
X67424359Y-82262362D01*
X67281713Y-82605890D01*
X67281389Y-82977856D01*
X67423434Y-83321632D01*
X67686224Y-83584881D01*
X68029752Y-83727527D01*
X68076628Y-83727568D01*
X69107551Y-84758491D01*
X69107551Y-94049690D01*
X68920384Y-94049527D01*
X68576608Y-94191572D01*
X68534207Y-94233899D01*
X68492878Y-94192497D01*
X68149350Y-94049851D01*
X67777384Y-94049527D01*
X67433608Y-94191572D01*
X67170359Y-94454362D01*
X67027713Y-94797890D01*
X67027672Y-94844766D01*
X63869150Y-98003288D01*
X63704403Y-98249850D01*
X63646551Y-98540689D01*
X63646551Y-101534226D01*
X63614359Y-101566362D01*
X63471713Y-101909890D01*
X63471389Y-102281856D01*
X61941551Y-102281856D01*
X61941551Y-87567325D01*
X62186930Y-87669215D01*
X62813424Y-87669762D01*
X63392438Y-87430518D01*
X63835823Y-86987906D01*
X64076077Y-86409310D01*
X64076624Y-85782816D01*
X63837380Y-85203802D01*
X63458655Y-84824416D01*
X63835823Y-84447906D01*
X64076077Y-83869310D01*
X64076624Y-83242816D01*
X63837380Y-82663802D01*
X63458655Y-82284416D01*
X63835823Y-81907906D01*
X64076077Y-81329310D01*
X64076624Y-80702816D01*
X63837380Y-80123802D01*
X63458655Y-79744416D01*
X63835823Y-79367906D01*
X64076077Y-78789310D01*
X64076624Y-78162816D01*
X63837380Y-77583802D01*
X63458655Y-77204416D01*
X63835823Y-76827906D01*
X64076077Y-76249310D01*
X64076624Y-75622816D01*
X63837380Y-75043802D01*
X63458655Y-74664416D01*
X63835823Y-74287906D01*
X64076077Y-73709310D01*
X64076624Y-73082816D01*
X63837380Y-72503802D01*
X63394768Y-72060417D01*
X62816172Y-71820163D01*
X62189678Y-71819616D01*
X61941551Y-71922140D01*
X61941551Y-71054652D01*
X65676265Y-71054652D01*
X65927085Y-71661684D01*
X66391114Y-72126523D01*
X66997706Y-72378402D01*
X67654514Y-72378975D01*
X68261546Y-72128155D01*
X68726385Y-71664126D01*
X68978264Y-71057534D01*
X68978266Y-71054652D01*
X69173845Y-71054652D01*
X69424665Y-71661684D01*
X69888694Y-72126523D01*
X70495286Y-72378402D01*
X71152094Y-72378975D01*
X71759126Y-72128155D01*
X72223965Y-71664126D01*
X72475844Y-71057534D01*
X72475882Y-71013439D01*
X72674251Y-71013439D01*
X72674251Y-71869999D01*
X72770924Y-72103388D01*
X72949553Y-72282016D01*
X73182942Y-72378689D01*
X74039501Y-72378689D01*
X74198251Y-72219939D01*
X74198251Y-70854689D01*
X74452251Y-70854689D01*
X74452251Y-72219939D01*
X74611001Y-72378689D01*
X75467560Y-72378689D01*
X75700949Y-72282016D01*
X75879578Y-72103388D01*
X75976251Y-71869999D01*
X75976251Y-71013439D01*
X75817501Y-70854689D01*
X74452251Y-70854689D01*
X74198251Y-70854689D01*
X72833001Y-70854689D01*
X72674251Y-71013439D01*
X72475882Y-71013439D01*
X72476417Y-70400726D01*
X72225597Y-69793694D01*
X72017645Y-69585379D01*
X72674251Y-69585379D01*
X72674251Y-70441939D01*
X72833001Y-70600689D01*
X74198251Y-70600689D01*
X74198251Y-69235439D01*
X74452251Y-69235439D01*
X74452251Y-70600689D01*
X75817501Y-70600689D01*
X75976251Y-70441939D01*
X75976251Y-69585379D01*
X75879578Y-69351990D01*
X75700949Y-69173362D01*
X75467560Y-69076689D01*
X74611001Y-69076689D01*
X74452251Y-69235439D01*
X74198251Y-69235439D01*
X74039501Y-69076689D01*
X73182942Y-69076689D01*
X72949553Y-69173362D01*
X72770924Y-69351990D01*
X72674251Y-69585379D01*
X72017645Y-69585379D01*
X71761568Y-69328855D01*
X71154976Y-69076976D01*
X70498168Y-69076403D01*
X69891136Y-69327223D01*
X69426297Y-69791252D01*
X69174418Y-70397844D01*
X69173845Y-71054652D01*
X68978266Y-71054652D01*
X68978837Y-70400726D01*
X68728017Y-69793694D01*
X68263988Y-69328855D01*
X67657396Y-69076976D01*
X67000588Y-69076403D01*
X66393556Y-69327223D01*
X65928717Y-69791252D01*
X65676838Y-70397844D01*
X65676265Y-71054652D01*
X61941551Y-71054652D01*
X61941551Y-65976689D01*
X83381551Y-65976689D01*
X83381551Y-71922053D01*
G36*
X106749551Y-71922053D02*
X106504172Y-71820163D01*
X105877678Y-71819616D01*
X105298664Y-72058860D01*
X104855279Y-72501472D01*
X104615025Y-73080068D01*
X104614478Y-73706562D01*
X104853722Y-74285576D01*
X105232447Y-74664962D01*
X104855279Y-75041472D01*
X104615025Y-75620068D01*
X104614478Y-76246562D01*
X104853722Y-76825576D01*
X105232447Y-77204962D01*
X104855279Y-77581472D01*
X104615025Y-78160068D01*
X104614478Y-78786562D01*
X104853722Y-79365576D01*
X105232447Y-79744962D01*
X104855279Y-80121472D01*
X104615025Y-80700068D01*
X104614478Y-81326562D01*
X104853722Y-81905576D01*
X105232447Y-82284962D01*
X104855279Y-82661472D01*
X104615025Y-83240068D01*
X104614478Y-83866562D01*
X104853722Y-84445576D01*
X105232447Y-84824962D01*
X104855279Y-85201472D01*
X104615025Y-85780068D01*
X104614478Y-86406562D01*
X104853722Y-86985576D01*
X105296334Y-87428961D01*
X105874930Y-87669215D01*
X106501424Y-87669762D01*
X106749551Y-87567238D01*
X106749551Y-113578689D01*
X98158953Y-113578689D01*
X98209494Y-113557806D01*
X98472743Y-113295016D01*
X98615389Y-112951488D01*
X98615713Y-112579522D01*
X98473668Y-112235746D01*
X98210878Y-111972497D01*
X97867350Y-111829851D01*
X97495384Y-111829527D01*
X97151608Y-111971572D01*
X97118433Y-112004689D01*
X91137353Y-112004689D01*
X88087353Y-108954689D01*
X88724353Y-108317689D01*
X90768088Y-108317689D01*
X90800224Y-108349881D01*
X91143752Y-108492527D01*
X91515718Y-108492851D01*
X91859494Y-108350806D01*
X92122743Y-108088016D01*
X92265389Y-107744488D01*
X92265713Y-107372522D01*
X92123668Y-107028746D01*
X91860878Y-106765497D01*
X91517350Y-106622851D01*
X91145384Y-106622527D01*
X90801608Y-106764572D01*
X90768433Y-106797689D01*
X88409551Y-106797689D01*
X88118711Y-106855541D01*
X87872150Y-107020288D01*
X86872871Y-108019567D01*
X86827384Y-108019527D01*
X86483608Y-108161572D01*
X86220359Y-108424362D01*
X86077713Y-108767890D01*
X86077389Y-109139856D01*
X86219434Y-109483632D01*
X86482224Y-109746881D01*
X86825752Y-109889527D01*
X86872628Y-109889568D01*
X90285150Y-113302090D01*
X90531712Y-113466837D01*
X90822551Y-113524689D01*
X97118088Y-113524689D01*
X97150224Y-113556881D01*
X97202743Y-113578689D01*
X85309551Y-113578689D01*
X85309551Y-102281856D01*
X86839389Y-102281856D01*
X86981434Y-102625632D01*
X87244224Y-102888881D01*
X87587752Y-103031527D01*
X87959718Y-103031851D01*
X88303494Y-102889806D01*
X88566743Y-102627016D01*
X88709389Y-102283488D01*
X88709713Y-101911522D01*
X88567668Y-101567746D01*
X88534551Y-101534571D01*
X88534551Y-98855491D01*
X89046551Y-98343491D01*
X89046551Y-101534226D01*
X89014359Y-101566362D01*
X88871713Y-101909890D01*
X88871389Y-102281856D01*
X89013434Y-102625632D01*
X89276224Y-102888881D01*
X89619752Y-103031527D01*
X89991718Y-103031851D01*
X90335494Y-102889806D01*
X90598743Y-102627016D01*
X90741389Y-102283488D01*
X90741713Y-101911522D01*
X90599668Y-101567746D01*
X90566551Y-101534571D01*
X90566551Y-97966491D01*
X92475551Y-96057491D01*
X92475551Y-105822953D01*
X92533403Y-106113792D01*
X92698150Y-106360354D01*
X93797886Y-107460090D01*
X94044448Y-107624837D01*
X94162847Y-107648388D01*
X94229224Y-107714881D01*
X94572752Y-107857527D01*
X94944718Y-107857851D01*
X95288494Y-107715806D01*
X95551743Y-107453016D01*
X95694389Y-107109488D01*
X95694713Y-106737522D01*
X95552668Y-106393746D01*
X95289878Y-106130497D01*
X94946350Y-105987851D01*
X94574384Y-105987527D01*
X94504006Y-106016606D01*
X93995551Y-105508151D01*
X93995551Y-103417022D01*
X94102224Y-103523881D01*
X94445752Y-103666527D01*
X94817718Y-103666851D01*
X95161494Y-103524806D01*
X95194669Y-103491689D01*
X96539551Y-103491689D01*
X96539551Y-106414689D01*
X96597403Y-106705528D01*
X96762150Y-106952090D01*
X98523429Y-108713369D01*
X98523389Y-108758856D01*
X98665434Y-109102632D01*
X98928224Y-109365881D01*
X99271752Y-109508527D01*
X99643718Y-109508851D01*
X99987494Y-109366806D01*
X100250743Y-109104016D01*
X100393389Y-108760488D01*
X100393713Y-108388522D01*
X100251668Y-108044746D01*
X99988878Y-107781497D01*
X99645350Y-107638851D01*
X99598474Y-107638810D01*
X98059551Y-106099887D01*
X98059551Y-103046491D01*
X99598231Y-101507811D01*
X99643718Y-101507851D01*
X99987494Y-101365806D01*
X100250743Y-101103016D01*
X100393389Y-100759488D01*
X100393713Y-100387522D01*
X100251668Y-100043746D01*
X99988878Y-99780497D01*
X99645350Y-99637851D01*
X99273384Y-99637527D01*
X98929608Y-99779572D01*
X98666359Y-100042362D01*
X98523713Y-100385890D01*
X98523672Y-100432766D01*
X96984749Y-101971689D01*
X95195014Y-101971689D01*
X95162878Y-101939497D01*
X94819350Y-101796851D01*
X94447384Y-101796527D01*
X94103608Y-101938572D01*
X93995551Y-102046441D01*
X93995551Y-98378057D01*
X94191752Y-98459527D01*
X94563718Y-98459851D01*
X94907494Y-98317806D01*
X95150913Y-98074811D01*
X95169952Y-98062090D01*
X96032892Y-97199150D01*
X96261224Y-97427881D01*
X96393593Y-97482845D01*
X96016871Y-97859567D01*
X95971384Y-97859527D01*
X95627608Y-98001572D01*
X95364359Y-98264362D01*
X95221713Y-98607890D01*
X95221389Y-98979856D01*
X95363434Y-99323632D01*
X95626224Y-99586881D01*
X95969752Y-99729527D01*
X96341718Y-99729851D01*
X96685494Y-99587806D01*
X96948743Y-99325016D01*
X97091389Y-98981488D01*
X97091430Y-98934612D01*
X99741952Y-96284090D01*
X99906699Y-96037528D01*
X99964551Y-95746689D01*
X99964551Y-84608736D01*
X100062434Y-84845632D01*
X100325224Y-85108881D01*
X100668752Y-85251527D01*
X101040718Y-85251851D01*
X101384494Y-85109806D01*
X101647743Y-84847016D01*
X101790389Y-84503488D01*
X101790456Y-84426947D01*
X101895519Y-84269708D01*
X101953371Y-83978869D01*
X101953371Y-72200048D01*
X102127366Y-72128155D01*
X102592205Y-71664126D01*
X102844084Y-71057534D01*
X102844657Y-70400726D01*
X102593837Y-69793694D01*
X102129808Y-69328855D01*
X101523216Y-69076976D01*
X100866408Y-69076403D01*
X100259376Y-69327223D01*
X99794537Y-69791252D01*
X99542658Y-70397844D01*
X99542085Y-71054652D01*
X99792905Y-71661684D01*
X100256934Y-72126523D01*
X100433371Y-72199786D01*
X100433371Y-83479459D01*
X100326608Y-83523572D01*
X100063359Y-83786362D01*
X99964551Y-84024317D01*
X99964551Y-80053152D01*
X99996743Y-80021016D01*
X100139389Y-79677488D01*
X100139713Y-79305522D01*
X99997668Y-78961746D01*
X99734878Y-78698497D01*
X99391350Y-78555851D01*
X99019384Y-78555527D01*
X98675608Y-78697572D01*
X98412359Y-78960362D01*
X98269713Y-79303890D01*
X98269389Y-79675856D01*
X98411434Y-80019632D01*
X98444551Y-80052807D01*
X98444551Y-81124586D01*
X98375350Y-81095851D01*
X98299810Y-81095785D01*
X98361389Y-80947488D01*
X98361713Y-80575522D01*
X98219668Y-80231746D01*
X97956878Y-79968497D01*
X97613350Y-79825851D01*
X97241384Y-79825527D01*
X96897608Y-79967572D01*
X96634359Y-80230362D01*
X96491713Y-80573890D01*
X96491389Y-80945856D01*
X96633434Y-81289632D01*
X96666551Y-81322807D01*
X96666551Y-94415887D01*
X94492650Y-96589788D01*
X94193384Y-96589527D01*
X93995551Y-96671270D01*
X93995551Y-84443689D01*
X93937699Y-84152850D01*
X93772952Y-83906288D01*
X92519673Y-82653009D01*
X92519713Y-82607522D01*
X92377668Y-82263746D01*
X92114878Y-82000497D01*
X91771350Y-81857851D01*
X91399384Y-81857527D01*
X91055608Y-81999572D01*
X90792359Y-82262362D01*
X90649713Y-82605890D01*
X90649389Y-82977856D01*
X90791434Y-83321632D01*
X91054224Y-83584881D01*
X91397752Y-83727527D01*
X91444628Y-83727568D01*
X92475551Y-84758491D01*
X92475551Y-94049690D01*
X92288384Y-94049527D01*
X91944608Y-94191572D01*
X91902207Y-94233899D01*
X91860878Y-94192497D01*
X91517350Y-94049851D01*
X91145384Y-94049527D01*
X90801608Y-94191572D01*
X90538359Y-94454362D01*
X90395713Y-94797890D01*
X90395672Y-94844766D01*
X87237150Y-98003288D01*
X87072403Y-98249850D01*
X87014551Y-98540689D01*
X87014551Y-101534226D01*
X86982359Y-101566362D01*
X86839713Y-101909890D01*
X86839389Y-102281856D01*
X85309551Y-102281856D01*
X85309551Y-87567325D01*
X85554930Y-87669215D01*
X86181424Y-87669762D01*
X86760438Y-87430518D01*
X87203823Y-86987906D01*
X87444077Y-86409310D01*
X87444624Y-85782816D01*
X87205380Y-85203802D01*
X86826655Y-84824416D01*
X87203823Y-84447906D01*
X87444077Y-83869310D01*
X87444624Y-83242816D01*
X87205380Y-82663802D01*
X86826655Y-82284416D01*
X87203823Y-81907906D01*
X87444077Y-81329310D01*
X87444624Y-80702816D01*
X87205380Y-80123802D01*
X86826655Y-79744416D01*
X87203823Y-79367906D01*
X87444077Y-78789310D01*
X87444624Y-78162816D01*
X87205380Y-77583802D01*
X86826655Y-77204416D01*
X87203823Y-76827906D01*
X87444077Y-76249310D01*
X87444624Y-75622816D01*
X87205380Y-75043802D01*
X86826655Y-74664416D01*
X87203823Y-74287906D01*
X87444077Y-73709310D01*
X87444624Y-73082816D01*
X87205380Y-72503802D01*
X86762768Y-72060417D01*
X86184172Y-71820163D01*
X85557678Y-71819616D01*
X85309551Y-71922140D01*
X85309551Y-71054652D01*
X89044265Y-71054652D01*
X89295085Y-71661684D01*
X89759114Y-72126523D01*
X90365706Y-72378402D01*
X91022514Y-72378975D01*
X91629546Y-72128155D01*
X92094385Y-71664126D01*
X92346264Y-71057534D01*
X92346266Y-71054652D01*
X92541845Y-71054652D01*
X92792665Y-71661684D01*
X93256694Y-72126523D01*
X93863286Y-72378402D01*
X94520094Y-72378975D01*
X95127126Y-72128155D01*
X95591965Y-71664126D01*
X95843844Y-71057534D01*
X95843882Y-71013439D01*
X96042251Y-71013439D01*
X96042251Y-71869999D01*
X96138924Y-72103388D01*
X96317553Y-72282016D01*
X96550942Y-72378689D01*
X97407501Y-72378689D01*
X97566251Y-72219939D01*
X97566251Y-70854689D01*
X97820251Y-70854689D01*
X97820251Y-72219939D01*
X97979001Y-72378689D01*
X98835560Y-72378689D01*
X99068949Y-72282016D01*
X99247578Y-72103388D01*
X99344251Y-71869999D01*
X99344251Y-71013439D01*
X99185501Y-70854689D01*
X97820251Y-70854689D01*
X97566251Y-70854689D01*
X96201001Y-70854689D01*
X96042251Y-71013439D01*
X95843882Y-71013439D01*
X95844417Y-70400726D01*
X95593597Y-69793694D01*
X95385645Y-69585379D01*
X96042251Y-69585379D01*
X96042251Y-70441939D01*
X96201001Y-70600689D01*
X97566251Y-70600689D01*
X97566251Y-69235439D01*
X97820251Y-69235439D01*
X97820251Y-70600689D01*
X99185501Y-70600689D01*
X99344251Y-70441939D01*
X99344251Y-69585379D01*
X99247578Y-69351990D01*
X99068949Y-69173362D01*
X98835560Y-69076689D01*
X97979001Y-69076689D01*
X97820251Y-69235439D01*
X97566251Y-69235439D01*
X97407501Y-69076689D01*
X96550942Y-69076689D01*
X96317553Y-69173362D01*
X96138924Y-69351990D01*
X96042251Y-69585379D01*
X95385645Y-69585379D01*
X95129568Y-69328855D01*
X94522976Y-69076976D01*
X93866168Y-69076403D01*
X93259136Y-69327223D01*
X92794297Y-69791252D01*
X92542418Y-70397844D01*
X92541845Y-71054652D01*
X92346266Y-71054652D01*
X92346837Y-70400726D01*
X92096017Y-69793694D01*
X91631988Y-69328855D01*
X91025396Y-69076976D01*
X90368588Y-69076403D01*
X89761556Y-69327223D01*
X89296717Y-69791252D01*
X89044838Y-70397844D01*
X89044265Y-71054652D01*
X85309551Y-71054652D01*
X85309551Y-65976689D01*
X106749551Y-65976689D01*
X106749551Y-71922053D01*
X106749551Y-71922053D01*
G37*
X106749551Y-71922053D02*
X106504172Y-71820163D01*
X105877678Y-71819616D01*
X105298664Y-72058860D01*
X104855279Y-72501472D01*
X104615025Y-73080068D01*
X104614478Y-73706562D01*
X104853722Y-74285576D01*
X105232447Y-74664962D01*
X104855279Y-75041472D01*
X104615025Y-75620068D01*
X104614478Y-76246562D01*
X104853722Y-76825576D01*
X105232447Y-77204962D01*
X104855279Y-77581472D01*
X104615025Y-78160068D01*
X104614478Y-78786562D01*
X104853722Y-79365576D01*
X105232447Y-79744962D01*
X104855279Y-80121472D01*
X104615025Y-80700068D01*
X104614478Y-81326562D01*
X104853722Y-81905576D01*
X105232447Y-82284962D01*
X104855279Y-82661472D01*
X104615025Y-83240068D01*
X104614478Y-83866562D01*
X104853722Y-84445576D01*
X105232447Y-84824962D01*
X104855279Y-85201472D01*
X104615025Y-85780068D01*
X104614478Y-86406562D01*
X104853722Y-86985576D01*
X105296334Y-87428961D01*
X105874930Y-87669215D01*
X106501424Y-87669762D01*
X106749551Y-87567238D01*
X106749551Y-113578689D01*
X98158953Y-113578689D01*
X98209494Y-113557806D01*
X98472743Y-113295016D01*
X98615389Y-112951488D01*
X98615713Y-112579522D01*
X98473668Y-112235746D01*
X98210878Y-111972497D01*
X97867350Y-111829851D01*
X97495384Y-111829527D01*
X97151608Y-111971572D01*
X97118433Y-112004689D01*
X91137353Y-112004689D01*
X88087353Y-108954689D01*
X88724353Y-108317689D01*
X90768088Y-108317689D01*
X90800224Y-108349881D01*
X91143752Y-108492527D01*
X91515718Y-108492851D01*
X91859494Y-108350806D01*
X92122743Y-108088016D01*
X92265389Y-107744488D01*
X92265713Y-107372522D01*
X92123668Y-107028746D01*
X91860878Y-106765497D01*
X91517350Y-106622851D01*
X91145384Y-106622527D01*
X90801608Y-106764572D01*
X90768433Y-106797689D01*
X88409551Y-106797689D01*
X88118711Y-106855541D01*
X87872150Y-107020288D01*
X86872871Y-108019567D01*
X86827384Y-108019527D01*
X86483608Y-108161572D01*
X86220359Y-108424362D01*
X86077713Y-108767890D01*
X86077389Y-109139856D01*
X86219434Y-109483632D01*
X86482224Y-109746881D01*
X86825752Y-109889527D01*
X86872628Y-109889568D01*
X90285150Y-113302090D01*
X90531712Y-113466837D01*
X90822551Y-113524689D01*
X97118088Y-113524689D01*
X97150224Y-113556881D01*
X97202743Y-113578689D01*
X85309551Y-113578689D01*
X85309551Y-102281856D01*
X86839389Y-102281856D01*
X86981434Y-102625632D01*
X87244224Y-102888881D01*
X87587752Y-103031527D01*
X87959718Y-103031851D01*
X88303494Y-102889806D01*
X88566743Y-102627016D01*
X88709389Y-102283488D01*
X88709713Y-101911522D01*
X88567668Y-101567746D01*
X88534551Y-101534571D01*
X88534551Y-98855491D01*
X89046551Y-98343491D01*
X89046551Y-101534226D01*
X89014359Y-101566362D01*
X88871713Y-101909890D01*
X88871389Y-102281856D01*
X89013434Y-102625632D01*
X89276224Y-102888881D01*
X89619752Y-103031527D01*
X89991718Y-103031851D01*
X90335494Y-102889806D01*
X90598743Y-102627016D01*
X90741389Y-102283488D01*
X90741713Y-101911522D01*
X90599668Y-101567746D01*
X90566551Y-101534571D01*
X90566551Y-97966491D01*
X92475551Y-96057491D01*
X92475551Y-105822953D01*
X92533403Y-106113792D01*
X92698150Y-106360354D01*
X93797886Y-107460090D01*
X94044448Y-107624837D01*
X94162847Y-107648388D01*
X94229224Y-107714881D01*
X94572752Y-107857527D01*
X94944718Y-107857851D01*
X95288494Y-107715806D01*
X95551743Y-107453016D01*
X95694389Y-107109488D01*
X95694713Y-106737522D01*
X95552668Y-106393746D01*
X95289878Y-106130497D01*
X94946350Y-105987851D01*
X94574384Y-105987527D01*
X94504006Y-106016606D01*
X93995551Y-105508151D01*
X93995551Y-103417022D01*
X94102224Y-103523881D01*
X94445752Y-103666527D01*
X94817718Y-103666851D01*
X95161494Y-103524806D01*
X95194669Y-103491689D01*
X96539551Y-103491689D01*
X96539551Y-106414689D01*
X96597403Y-106705528D01*
X96762150Y-106952090D01*
X98523429Y-108713369D01*
X98523389Y-108758856D01*
X98665434Y-109102632D01*
X98928224Y-109365881D01*
X99271752Y-109508527D01*
X99643718Y-109508851D01*
X99987494Y-109366806D01*
X100250743Y-109104016D01*
X100393389Y-108760488D01*
X100393713Y-108388522D01*
X100251668Y-108044746D01*
X99988878Y-107781497D01*
X99645350Y-107638851D01*
X99598474Y-107638810D01*
X98059551Y-106099887D01*
X98059551Y-103046491D01*
X99598231Y-101507811D01*
X99643718Y-101507851D01*
X99987494Y-101365806D01*
X100250743Y-101103016D01*
X100393389Y-100759488D01*
X100393713Y-100387522D01*
X100251668Y-100043746D01*
X99988878Y-99780497D01*
X99645350Y-99637851D01*
X99273384Y-99637527D01*
X98929608Y-99779572D01*
X98666359Y-100042362D01*
X98523713Y-100385890D01*
X98523672Y-100432766D01*
X96984749Y-101971689D01*
X95195014Y-101971689D01*
X95162878Y-101939497D01*
X94819350Y-101796851D01*
X94447384Y-101796527D01*
X94103608Y-101938572D01*
X93995551Y-102046441D01*
X93995551Y-98378057D01*
X94191752Y-98459527D01*
X94563718Y-98459851D01*
X94907494Y-98317806D01*
X95150913Y-98074811D01*
X95169952Y-98062090D01*
X96032892Y-97199150D01*
X96261224Y-97427881D01*
X96393593Y-97482845D01*
X96016871Y-97859567D01*
X95971384Y-97859527D01*
X95627608Y-98001572D01*
X95364359Y-98264362D01*
X95221713Y-98607890D01*
X95221389Y-98979856D01*
X95363434Y-99323632D01*
X95626224Y-99586881D01*
X95969752Y-99729527D01*
X96341718Y-99729851D01*
X96685494Y-99587806D01*
X96948743Y-99325016D01*
X97091389Y-98981488D01*
X97091430Y-98934612D01*
X99741952Y-96284090D01*
X99906699Y-96037528D01*
X99964551Y-95746689D01*
X99964551Y-84608736D01*
X100062434Y-84845632D01*
X100325224Y-85108881D01*
X100668752Y-85251527D01*
X101040718Y-85251851D01*
X101384494Y-85109806D01*
X101647743Y-84847016D01*
X101790389Y-84503488D01*
X101790456Y-84426947D01*
X101895519Y-84269708D01*
X101953371Y-83978869D01*
X101953371Y-72200048D01*
X102127366Y-72128155D01*
X102592205Y-71664126D01*
X102844084Y-71057534D01*
X102844657Y-70400726D01*
X102593837Y-69793694D01*
X102129808Y-69328855D01*
X101523216Y-69076976D01*
X100866408Y-69076403D01*
X100259376Y-69327223D01*
X99794537Y-69791252D01*
X99542658Y-70397844D01*
X99542085Y-71054652D01*
X99792905Y-71661684D01*
X100256934Y-72126523D01*
X100433371Y-72199786D01*
X100433371Y-83479459D01*
X100326608Y-83523572D01*
X100063359Y-83786362D01*
X99964551Y-84024317D01*
X99964551Y-80053152D01*
X99996743Y-80021016D01*
X100139389Y-79677488D01*
X100139713Y-79305522D01*
X99997668Y-78961746D01*
X99734878Y-78698497D01*
X99391350Y-78555851D01*
X99019384Y-78555527D01*
X98675608Y-78697572D01*
X98412359Y-78960362D01*
X98269713Y-79303890D01*
X98269389Y-79675856D01*
X98411434Y-80019632D01*
X98444551Y-80052807D01*
X98444551Y-81124586D01*
X98375350Y-81095851D01*
X98299810Y-81095785D01*
X98361389Y-80947488D01*
X98361713Y-80575522D01*
X98219668Y-80231746D01*
X97956878Y-79968497D01*
X97613350Y-79825851D01*
X97241384Y-79825527D01*
X96897608Y-79967572D01*
X96634359Y-80230362D01*
X96491713Y-80573890D01*
X96491389Y-80945856D01*
X96633434Y-81289632D01*
X96666551Y-81322807D01*
X96666551Y-94415887D01*
X94492650Y-96589788D01*
X94193384Y-96589527D01*
X93995551Y-96671270D01*
X93995551Y-84443689D01*
X93937699Y-84152850D01*
X93772952Y-83906288D01*
X92519673Y-82653009D01*
X92519713Y-82607522D01*
X92377668Y-82263746D01*
X92114878Y-82000497D01*
X91771350Y-81857851D01*
X91399384Y-81857527D01*
X91055608Y-81999572D01*
X90792359Y-82262362D01*
X90649713Y-82605890D01*
X90649389Y-82977856D01*
X90791434Y-83321632D01*
X91054224Y-83584881D01*
X91397752Y-83727527D01*
X91444628Y-83727568D01*
X92475551Y-84758491D01*
X92475551Y-94049690D01*
X92288384Y-94049527D01*
X91944608Y-94191572D01*
X91902207Y-94233899D01*
X91860878Y-94192497D01*
X91517350Y-94049851D01*
X91145384Y-94049527D01*
X90801608Y-94191572D01*
X90538359Y-94454362D01*
X90395713Y-94797890D01*
X90395672Y-94844766D01*
X87237150Y-98003288D01*
X87072403Y-98249850D01*
X87014551Y-98540689D01*
X87014551Y-101534226D01*
X86982359Y-101566362D01*
X86839713Y-101909890D01*
X86839389Y-102281856D01*
X85309551Y-102281856D01*
X85309551Y-87567325D01*
X85554930Y-87669215D01*
X86181424Y-87669762D01*
X86760438Y-87430518D01*
X87203823Y-86987906D01*
X87444077Y-86409310D01*
X87444624Y-85782816D01*
X87205380Y-85203802D01*
X86826655Y-84824416D01*
X87203823Y-84447906D01*
X87444077Y-83869310D01*
X87444624Y-83242816D01*
X87205380Y-82663802D01*
X86826655Y-82284416D01*
X87203823Y-81907906D01*
X87444077Y-81329310D01*
X87444624Y-80702816D01*
X87205380Y-80123802D01*
X86826655Y-79744416D01*
X87203823Y-79367906D01*
X87444077Y-78789310D01*
X87444624Y-78162816D01*
X87205380Y-77583802D01*
X86826655Y-77204416D01*
X87203823Y-76827906D01*
X87444077Y-76249310D01*
X87444624Y-75622816D01*
X87205380Y-75043802D01*
X86826655Y-74664416D01*
X87203823Y-74287906D01*
X87444077Y-73709310D01*
X87444624Y-73082816D01*
X87205380Y-72503802D01*
X86762768Y-72060417D01*
X86184172Y-71820163D01*
X85557678Y-71819616D01*
X85309551Y-71922140D01*
X85309551Y-71054652D01*
X89044265Y-71054652D01*
X89295085Y-71661684D01*
X89759114Y-72126523D01*
X90365706Y-72378402D01*
X91022514Y-72378975D01*
X91629546Y-72128155D01*
X92094385Y-71664126D01*
X92346264Y-71057534D01*
X92346266Y-71054652D01*
X92541845Y-71054652D01*
X92792665Y-71661684D01*
X93256694Y-72126523D01*
X93863286Y-72378402D01*
X94520094Y-72378975D01*
X95127126Y-72128155D01*
X95591965Y-71664126D01*
X95843844Y-71057534D01*
X95843882Y-71013439D01*
X96042251Y-71013439D01*
X96042251Y-71869999D01*
X96138924Y-72103388D01*
X96317553Y-72282016D01*
X96550942Y-72378689D01*
X97407501Y-72378689D01*
X97566251Y-72219939D01*
X97566251Y-70854689D01*
X97820251Y-70854689D01*
X97820251Y-72219939D01*
X97979001Y-72378689D01*
X98835560Y-72378689D01*
X99068949Y-72282016D01*
X99247578Y-72103388D01*
X99344251Y-71869999D01*
X99344251Y-71013439D01*
X99185501Y-70854689D01*
X97820251Y-70854689D01*
X97566251Y-70854689D01*
X96201001Y-70854689D01*
X96042251Y-71013439D01*
X95843882Y-71013439D01*
X95844417Y-70400726D01*
X95593597Y-69793694D01*
X95385645Y-69585379D01*
X96042251Y-69585379D01*
X96042251Y-70441939D01*
X96201001Y-70600689D01*
X97566251Y-70600689D01*
X97566251Y-69235439D01*
X97820251Y-69235439D01*
X97820251Y-70600689D01*
X99185501Y-70600689D01*
X99344251Y-70441939D01*
X99344251Y-69585379D01*
X99247578Y-69351990D01*
X99068949Y-69173362D01*
X98835560Y-69076689D01*
X97979001Y-69076689D01*
X97820251Y-69235439D01*
X97566251Y-69235439D01*
X97407501Y-69076689D01*
X96550942Y-69076689D01*
X96317553Y-69173362D01*
X96138924Y-69351990D01*
X96042251Y-69585379D01*
X95385645Y-69585379D01*
X95129568Y-69328855D01*
X94522976Y-69076976D01*
X93866168Y-69076403D01*
X93259136Y-69327223D01*
X92794297Y-69791252D01*
X92542418Y-70397844D01*
X92541845Y-71054652D01*
X92346266Y-71054652D01*
X92346837Y-70400726D01*
X92096017Y-69793694D01*
X91631988Y-69328855D01*
X91025396Y-69076976D01*
X90368588Y-69076403D01*
X89761556Y-69327223D01*
X89296717Y-69791252D01*
X89044838Y-70397844D01*
X89044265Y-71054652D01*
X85309551Y-71054652D01*
X85309551Y-65976689D01*
X106749551Y-65976689D01*
X106749551Y-71922053D01*
G36*
X130117551Y-71922053D02*
X129872172Y-71820163D01*
X129245678Y-71819616D01*
X128666664Y-72058860D01*
X128223279Y-72501472D01*
X127983025Y-73080068D01*
X127982478Y-73706562D01*
X128221722Y-74285576D01*
X128600447Y-74664962D01*
X128223279Y-75041472D01*
X127983025Y-75620068D01*
X127982478Y-76246562D01*
X128221722Y-76825576D01*
X128600447Y-77204962D01*
X128223279Y-77581472D01*
X127983025Y-78160068D01*
X127982478Y-78786562D01*
X128221722Y-79365576D01*
X128600447Y-79744962D01*
X128223279Y-80121472D01*
X127983025Y-80700068D01*
X127982478Y-81326562D01*
X128221722Y-81905576D01*
X128600447Y-82284962D01*
X128223279Y-82661472D01*
X127983025Y-83240068D01*
X127982478Y-83866562D01*
X128221722Y-84445576D01*
X128600447Y-84824962D01*
X128223279Y-85201472D01*
X127983025Y-85780068D01*
X127982478Y-86406562D01*
X128221722Y-86985576D01*
X128664334Y-87428961D01*
X129242930Y-87669215D01*
X129869424Y-87669762D01*
X130117551Y-87567238D01*
X130117551Y-113578689D01*
X121526953Y-113578689D01*
X121577494Y-113557806D01*
X121840743Y-113295016D01*
X121983389Y-112951488D01*
X121983713Y-112579522D01*
X121841668Y-112235746D01*
X121578878Y-111972497D01*
X121235350Y-111829851D01*
X120863384Y-111829527D01*
X120519608Y-111971572D01*
X120486433Y-112004689D01*
X114505353Y-112004689D01*
X111455353Y-108954689D01*
X112092353Y-108317689D01*
X114136088Y-108317689D01*
X114168224Y-108349881D01*
X114511752Y-108492527D01*
X114883718Y-108492851D01*
X115227494Y-108350806D01*
X115490743Y-108088016D01*
X115633389Y-107744488D01*
X115633713Y-107372522D01*
X115491668Y-107028746D01*
X115228878Y-106765497D01*
X114885350Y-106622851D01*
X114513384Y-106622527D01*
X114169608Y-106764572D01*
X114136433Y-106797689D01*
X111777551Y-106797689D01*
X111486711Y-106855541D01*
X111240150Y-107020288D01*
X110240871Y-108019567D01*
X110195384Y-108019527D01*
X109851608Y-108161572D01*
X109588359Y-108424362D01*
X109445713Y-108767890D01*
X109445389Y-109139856D01*
X109587434Y-109483632D01*
X109850224Y-109746881D01*
X110193752Y-109889527D01*
X110240628Y-109889568D01*
X113653150Y-113302090D01*
X113899712Y-113466837D01*
X114190551Y-113524689D01*
X120486088Y-113524689D01*
X120518224Y-113556881D01*
X120570743Y-113578689D01*
X108677551Y-113578689D01*
X108677551Y-102281856D01*
X110207389Y-102281856D01*
X110349434Y-102625632D01*
X110612224Y-102888881D01*
X110955752Y-103031527D01*
X111327718Y-103031851D01*
X111671494Y-102889806D01*
X111934743Y-102627016D01*
X112077389Y-102283488D01*
X112077713Y-101911522D01*
X111935668Y-101567746D01*
X111902551Y-101534571D01*
X111902551Y-98855491D01*
X112414551Y-98343491D01*
X112414551Y-101534226D01*
X112382359Y-101566362D01*
X112239713Y-101909890D01*
X112239389Y-102281856D01*
X112381434Y-102625632D01*
X112644224Y-102888881D01*
X112987752Y-103031527D01*
X113359718Y-103031851D01*
X113703494Y-102889806D01*
X113966743Y-102627016D01*
X114109389Y-102283488D01*
X114109713Y-101911522D01*
X113967668Y-101567746D01*
X113934551Y-101534571D01*
X113934551Y-97966491D01*
X115843551Y-96057491D01*
X115843551Y-105822953D01*
X115901403Y-106113792D01*
X116066150Y-106360354D01*
X117165886Y-107460090D01*
X117412448Y-107624837D01*
X117530847Y-107648388D01*
X117597224Y-107714881D01*
X117940752Y-107857527D01*
X118312718Y-107857851D01*
X118656494Y-107715806D01*
X118919743Y-107453016D01*
X119062389Y-107109488D01*
X119062713Y-106737522D01*
X118920668Y-106393746D01*
X118657878Y-106130497D01*
X118314350Y-105987851D01*
X117942384Y-105987527D01*
X117872006Y-106016606D01*
X117363551Y-105508151D01*
X117363551Y-103417022D01*
X117470224Y-103523881D01*
X117813752Y-103666527D01*
X118185718Y-103666851D01*
X118529494Y-103524806D01*
X118562669Y-103491689D01*
X119907551Y-103491689D01*
X119907551Y-106414689D01*
X119965403Y-106705528D01*
X120130150Y-106952090D01*
X121891429Y-108713369D01*
X121891389Y-108758856D01*
X122033434Y-109102632D01*
X122296224Y-109365881D01*
X122639752Y-109508527D01*
X123011718Y-109508851D01*
X123355494Y-109366806D01*
X123618743Y-109104016D01*
X123761389Y-108760488D01*
X123761713Y-108388522D01*
X123619668Y-108044746D01*
X123356878Y-107781497D01*
X123013350Y-107638851D01*
X122966474Y-107638810D01*
X121427551Y-106099887D01*
X121427551Y-103046491D01*
X122966231Y-101507811D01*
X123011718Y-101507851D01*
X123355494Y-101365806D01*
X123618743Y-101103016D01*
X123761389Y-100759488D01*
X123761713Y-100387522D01*
X123619668Y-100043746D01*
X123356878Y-99780497D01*
X123013350Y-99637851D01*
X122641384Y-99637527D01*
X122297608Y-99779572D01*
X122034359Y-100042362D01*
X121891713Y-100385890D01*
X121891672Y-100432766D01*
X120352749Y-101971689D01*
X118563014Y-101971689D01*
X118530878Y-101939497D01*
X118187350Y-101796851D01*
X117815384Y-101796527D01*
X117471608Y-101938572D01*
X117363551Y-102046441D01*
X117363551Y-98378057D01*
X117559752Y-98459527D01*
X117931718Y-98459851D01*
X118275494Y-98317806D01*
X118518913Y-98074811D01*
X118537952Y-98062090D01*
X119400892Y-97199150D01*
X119629224Y-97427881D01*
X119761593Y-97482845D01*
X119384871Y-97859567D01*
X119339384Y-97859527D01*
X118995608Y-98001572D01*
X118732359Y-98264362D01*
X118589713Y-98607890D01*
X118589389Y-98979856D01*
X118731434Y-99323632D01*
X118994224Y-99586881D01*
X119337752Y-99729527D01*
X119709718Y-99729851D01*
X120053494Y-99587806D01*
X120316743Y-99325016D01*
X120459389Y-98981488D01*
X120459430Y-98934612D01*
X123109952Y-96284090D01*
X123274699Y-96037528D01*
X123332551Y-95746689D01*
X123332551Y-84608736D01*
X123430434Y-84845632D01*
X123693224Y-85108881D01*
X124036752Y-85251527D01*
X124408718Y-85251851D01*
X124752494Y-85109806D01*
X125015743Y-84847016D01*
X125158389Y-84503488D01*
X125158456Y-84426947D01*
X125263519Y-84269708D01*
X125321371Y-83978869D01*
X125321371Y-72200048D01*
X125495366Y-72128155D01*
X125960205Y-71664126D01*
X126212084Y-71057534D01*
X126212657Y-70400726D01*
X125961837Y-69793694D01*
X125497808Y-69328855D01*
X124891216Y-69076976D01*
X124234408Y-69076403D01*
X123627376Y-69327223D01*
X123162537Y-69791252D01*
X122910658Y-70397844D01*
X122910085Y-71054652D01*
X123160905Y-71661684D01*
X123624934Y-72126523D01*
X123801371Y-72199786D01*
X123801371Y-83479459D01*
X123694608Y-83523572D01*
X123431359Y-83786362D01*
X123332551Y-84024317D01*
X123332551Y-80053152D01*
X123364743Y-80021016D01*
X123507389Y-79677488D01*
X123507713Y-79305522D01*
X123365668Y-78961746D01*
X123102878Y-78698497D01*
X122759350Y-78555851D01*
X122387384Y-78555527D01*
X122043608Y-78697572D01*
X121780359Y-78960362D01*
X121637713Y-79303890D01*
X121637389Y-79675856D01*
X121779434Y-80019632D01*
X121812551Y-80052807D01*
X121812551Y-81124586D01*
X121743350Y-81095851D01*
X121667810Y-81095785D01*
X121729389Y-80947488D01*
X121729713Y-80575522D01*
X121587668Y-80231746D01*
X121324878Y-79968497D01*
X120981350Y-79825851D01*
X120609384Y-79825527D01*
X120265608Y-79967572D01*
X120002359Y-80230362D01*
X119859713Y-80573890D01*
X119859389Y-80945856D01*
X120001434Y-81289632D01*
X120034551Y-81322807D01*
X120034551Y-94415887D01*
X117860650Y-96589788D01*
X117561384Y-96589527D01*
X117363551Y-96671270D01*
X117363551Y-84443689D01*
X117305699Y-84152850D01*
X117140952Y-83906288D01*
X115887673Y-82653009D01*
X115887713Y-82607522D01*
X115745668Y-82263746D01*
X115482878Y-82000497D01*
X115139350Y-81857851D01*
X114767384Y-81857527D01*
X114423608Y-81999572D01*
X114160359Y-82262362D01*
X114017713Y-82605890D01*
X114017389Y-82977856D01*
X114159434Y-83321632D01*
X114422224Y-83584881D01*
X114765752Y-83727527D01*
X114812628Y-83727568D01*
X115843551Y-84758491D01*
X115843551Y-94049690D01*
X115656384Y-94049527D01*
X115312608Y-94191572D01*
X115270207Y-94233899D01*
X115228878Y-94192497D01*
X114885350Y-94049851D01*
X114513384Y-94049527D01*
X114169608Y-94191572D01*
X113906359Y-94454362D01*
X113763713Y-94797890D01*
X113763672Y-94844766D01*
X110605150Y-98003288D01*
X110440403Y-98249850D01*
X110382551Y-98540689D01*
X110382551Y-101534226D01*
X110350359Y-101566362D01*
X110207713Y-101909890D01*
X110207389Y-102281856D01*
X108677551Y-102281856D01*
X108677551Y-87567325D01*
X108922930Y-87669215D01*
X109549424Y-87669762D01*
X110128438Y-87430518D01*
X110571823Y-86987906D01*
X110812077Y-86409310D01*
X110812624Y-85782816D01*
X110573380Y-85203802D01*
X110194655Y-84824416D01*
X110571823Y-84447906D01*
X110812077Y-83869310D01*
X110812624Y-83242816D01*
X110573380Y-82663802D01*
X110194655Y-82284416D01*
X110571823Y-81907906D01*
X110812077Y-81329310D01*
X110812624Y-80702816D01*
X110573380Y-80123802D01*
X110194655Y-79744416D01*
X110571823Y-79367906D01*
X110812077Y-78789310D01*
X110812624Y-78162816D01*
X110573380Y-77583802D01*
X110194655Y-77204416D01*
X110571823Y-76827906D01*
X110812077Y-76249310D01*
X110812624Y-75622816D01*
X110573380Y-75043802D01*
X110194655Y-74664416D01*
X110571823Y-74287906D01*
X110812077Y-73709310D01*
X110812624Y-73082816D01*
X110573380Y-72503802D01*
X110130768Y-72060417D01*
X109552172Y-71820163D01*
X108925678Y-71819616D01*
X108677551Y-71922140D01*
X108677551Y-71054652D01*
X112412265Y-71054652D01*
X112663085Y-71661684D01*
X113127114Y-72126523D01*
X113733706Y-72378402D01*
X114390514Y-72378975D01*
X114997546Y-72128155D01*
X115462385Y-71664126D01*
X115714264Y-71057534D01*
X115714266Y-71054652D01*
X115909845Y-71054652D01*
X116160665Y-71661684D01*
X116624694Y-72126523D01*
X117231286Y-72378402D01*
X117888094Y-72378975D01*
X118495126Y-72128155D01*
X118959965Y-71664126D01*
X119211844Y-71057534D01*
X119211882Y-71013439D01*
X119410251Y-71013439D01*
X119410251Y-71869999D01*
X119506924Y-72103388D01*
X119685553Y-72282016D01*
X119918942Y-72378689D01*
X120775501Y-72378689D01*
X120934251Y-72219939D01*
X120934251Y-70854689D01*
X121188251Y-70854689D01*
X121188251Y-72219939D01*
X121347001Y-72378689D01*
X122203560Y-72378689D01*
X122436949Y-72282016D01*
X122615578Y-72103388D01*
X122712251Y-71869999D01*
X122712251Y-71013439D01*
X122553501Y-70854689D01*
X121188251Y-70854689D01*
X120934251Y-70854689D01*
X119569001Y-70854689D01*
X119410251Y-71013439D01*
X119211882Y-71013439D01*
X119212417Y-70400726D01*
X118961597Y-69793694D01*
X118753645Y-69585379D01*
X119410251Y-69585379D01*
X119410251Y-70441939D01*
X119569001Y-70600689D01*
X120934251Y-70600689D01*
X120934251Y-69235439D01*
X121188251Y-69235439D01*
X121188251Y-70600689D01*
X122553501Y-70600689D01*
X122712251Y-70441939D01*
X122712251Y-69585379D01*
X122615578Y-69351990D01*
X122436949Y-69173362D01*
X122203560Y-69076689D01*
X121347001Y-69076689D01*
X121188251Y-69235439D01*
X120934251Y-69235439D01*
X120775501Y-69076689D01*
X119918942Y-69076689D01*
X119685553Y-69173362D01*
X119506924Y-69351990D01*
X119410251Y-69585379D01*
X118753645Y-69585379D01*
X118497568Y-69328855D01*
X117890976Y-69076976D01*
X117234168Y-69076403D01*
X116627136Y-69327223D01*
X116162297Y-69791252D01*
X115910418Y-70397844D01*
X115909845Y-71054652D01*
X115714266Y-71054652D01*
X115714837Y-70400726D01*
X115464017Y-69793694D01*
X114999988Y-69328855D01*
X114393396Y-69076976D01*
X113736588Y-69076403D01*
X113129556Y-69327223D01*
X112664717Y-69791252D01*
X112412838Y-70397844D01*
X112412265Y-71054652D01*
X108677551Y-71054652D01*
X108677551Y-65976689D01*
X130117551Y-65976689D01*
X130117551Y-71922053D01*
X130117551Y-71922053D01*
G37*
X130117551Y-71922053D02*
X129872172Y-71820163D01*
X129245678Y-71819616D01*
X128666664Y-72058860D01*
X128223279Y-72501472D01*
X127983025Y-73080068D01*
X127982478Y-73706562D01*
X128221722Y-74285576D01*
X128600447Y-74664962D01*
X128223279Y-75041472D01*
X127983025Y-75620068D01*
X127982478Y-76246562D01*
X128221722Y-76825576D01*
X128600447Y-77204962D01*
X128223279Y-77581472D01*
X127983025Y-78160068D01*
X127982478Y-78786562D01*
X128221722Y-79365576D01*
X128600447Y-79744962D01*
X128223279Y-80121472D01*
X127983025Y-80700068D01*
X127982478Y-81326562D01*
X128221722Y-81905576D01*
X128600447Y-82284962D01*
X128223279Y-82661472D01*
X127983025Y-83240068D01*
X127982478Y-83866562D01*
X128221722Y-84445576D01*
X128600447Y-84824962D01*
X128223279Y-85201472D01*
X127983025Y-85780068D01*
X127982478Y-86406562D01*
X128221722Y-86985576D01*
X128664334Y-87428961D01*
X129242930Y-87669215D01*
X129869424Y-87669762D01*
X130117551Y-87567238D01*
X130117551Y-113578689D01*
X121526953Y-113578689D01*
X121577494Y-113557806D01*
X121840743Y-113295016D01*
X121983389Y-112951488D01*
X121983713Y-112579522D01*
X121841668Y-112235746D01*
X121578878Y-111972497D01*
X121235350Y-111829851D01*
X120863384Y-111829527D01*
X120519608Y-111971572D01*
X120486433Y-112004689D01*
X114505353Y-112004689D01*
X111455353Y-108954689D01*
X112092353Y-108317689D01*
X114136088Y-108317689D01*
X114168224Y-108349881D01*
X114511752Y-108492527D01*
X114883718Y-108492851D01*
X115227494Y-108350806D01*
X115490743Y-108088016D01*
X115633389Y-107744488D01*
X115633713Y-107372522D01*
X115491668Y-107028746D01*
X115228878Y-106765497D01*
X114885350Y-106622851D01*
X114513384Y-106622527D01*
X114169608Y-106764572D01*
X114136433Y-106797689D01*
X111777551Y-106797689D01*
X111486711Y-106855541D01*
X111240150Y-107020288D01*
X110240871Y-108019567D01*
X110195384Y-108019527D01*
X109851608Y-108161572D01*
X109588359Y-108424362D01*
X109445713Y-108767890D01*
X109445389Y-109139856D01*
X109587434Y-109483632D01*
X109850224Y-109746881D01*
X110193752Y-109889527D01*
X110240628Y-109889568D01*
X113653150Y-113302090D01*
X113899712Y-113466837D01*
X114190551Y-113524689D01*
X120486088Y-113524689D01*
X120518224Y-113556881D01*
X120570743Y-113578689D01*
X108677551Y-113578689D01*
X108677551Y-102281856D01*
X110207389Y-102281856D01*
X110349434Y-102625632D01*
X110612224Y-102888881D01*
X110955752Y-103031527D01*
X111327718Y-103031851D01*
X111671494Y-102889806D01*
X111934743Y-102627016D01*
X112077389Y-102283488D01*
X112077713Y-101911522D01*
X111935668Y-101567746D01*
X111902551Y-101534571D01*
X111902551Y-98855491D01*
X112414551Y-98343491D01*
X112414551Y-101534226D01*
X112382359Y-101566362D01*
X112239713Y-101909890D01*
X112239389Y-102281856D01*
X112381434Y-102625632D01*
X112644224Y-102888881D01*
X112987752Y-103031527D01*
X113359718Y-103031851D01*
X113703494Y-102889806D01*
X113966743Y-102627016D01*
X114109389Y-102283488D01*
X114109713Y-101911522D01*
X113967668Y-101567746D01*
X113934551Y-101534571D01*
X113934551Y-97966491D01*
X115843551Y-96057491D01*
X115843551Y-105822953D01*
X115901403Y-106113792D01*
X116066150Y-106360354D01*
X117165886Y-107460090D01*
X117412448Y-107624837D01*
X117530847Y-107648388D01*
X117597224Y-107714881D01*
X117940752Y-107857527D01*
X118312718Y-107857851D01*
X118656494Y-107715806D01*
X118919743Y-107453016D01*
X119062389Y-107109488D01*
X119062713Y-106737522D01*
X118920668Y-106393746D01*
X118657878Y-106130497D01*
X118314350Y-105987851D01*
X117942384Y-105987527D01*
X117872006Y-106016606D01*
X117363551Y-105508151D01*
X117363551Y-103417022D01*
X117470224Y-103523881D01*
X117813752Y-103666527D01*
X118185718Y-103666851D01*
X118529494Y-103524806D01*
X118562669Y-103491689D01*
X119907551Y-103491689D01*
X119907551Y-106414689D01*
X119965403Y-106705528D01*
X120130150Y-106952090D01*
X121891429Y-108713369D01*
X121891389Y-108758856D01*
X122033434Y-109102632D01*
X122296224Y-109365881D01*
X122639752Y-109508527D01*
X123011718Y-109508851D01*
X123355494Y-109366806D01*
X123618743Y-109104016D01*
X123761389Y-108760488D01*
X123761713Y-108388522D01*
X123619668Y-108044746D01*
X123356878Y-107781497D01*
X123013350Y-107638851D01*
X122966474Y-107638810D01*
X121427551Y-106099887D01*
X121427551Y-103046491D01*
X122966231Y-101507811D01*
X123011718Y-101507851D01*
X123355494Y-101365806D01*
X123618743Y-101103016D01*
X123761389Y-100759488D01*
X123761713Y-100387522D01*
X123619668Y-100043746D01*
X123356878Y-99780497D01*
X123013350Y-99637851D01*
X122641384Y-99637527D01*
X122297608Y-99779572D01*
X122034359Y-100042362D01*
X121891713Y-100385890D01*
X121891672Y-100432766D01*
X120352749Y-101971689D01*
X118563014Y-101971689D01*
X118530878Y-101939497D01*
X118187350Y-101796851D01*
X117815384Y-101796527D01*
X117471608Y-101938572D01*
X117363551Y-102046441D01*
X117363551Y-98378057D01*
X117559752Y-98459527D01*
X117931718Y-98459851D01*
X118275494Y-98317806D01*
X118518913Y-98074811D01*
X118537952Y-98062090D01*
X119400892Y-97199150D01*
X119629224Y-97427881D01*
X119761593Y-97482845D01*
X119384871Y-97859567D01*
X119339384Y-97859527D01*
X118995608Y-98001572D01*
X118732359Y-98264362D01*
X118589713Y-98607890D01*
X118589389Y-98979856D01*
X118731434Y-99323632D01*
X118994224Y-99586881D01*
X119337752Y-99729527D01*
X119709718Y-99729851D01*
X120053494Y-99587806D01*
X120316743Y-99325016D01*
X120459389Y-98981488D01*
X120459430Y-98934612D01*
X123109952Y-96284090D01*
X123274699Y-96037528D01*
X123332551Y-95746689D01*
X123332551Y-84608736D01*
X123430434Y-84845632D01*
X123693224Y-85108881D01*
X124036752Y-85251527D01*
X124408718Y-85251851D01*
X124752494Y-85109806D01*
X125015743Y-84847016D01*
X125158389Y-84503488D01*
X125158456Y-84426947D01*
X125263519Y-84269708D01*
X125321371Y-83978869D01*
X125321371Y-72200048D01*
X125495366Y-72128155D01*
X125960205Y-71664126D01*
X126212084Y-71057534D01*
X126212657Y-70400726D01*
X125961837Y-69793694D01*
X125497808Y-69328855D01*
X124891216Y-69076976D01*
X124234408Y-69076403D01*
X123627376Y-69327223D01*
X123162537Y-69791252D01*
X122910658Y-70397844D01*
X122910085Y-71054652D01*
X123160905Y-71661684D01*
X123624934Y-72126523D01*
X123801371Y-72199786D01*
X123801371Y-83479459D01*
X123694608Y-83523572D01*
X123431359Y-83786362D01*
X123332551Y-84024317D01*
X123332551Y-80053152D01*
X123364743Y-80021016D01*
X123507389Y-79677488D01*
X123507713Y-79305522D01*
X123365668Y-78961746D01*
X123102878Y-78698497D01*
X122759350Y-78555851D01*
X122387384Y-78555527D01*
X122043608Y-78697572D01*
X121780359Y-78960362D01*
X121637713Y-79303890D01*
X121637389Y-79675856D01*
X121779434Y-80019632D01*
X121812551Y-80052807D01*
X121812551Y-81124586D01*
X121743350Y-81095851D01*
X121667810Y-81095785D01*
X121729389Y-80947488D01*
X121729713Y-80575522D01*
X121587668Y-80231746D01*
X121324878Y-79968497D01*
X120981350Y-79825851D01*
X120609384Y-79825527D01*
X120265608Y-79967572D01*
X120002359Y-80230362D01*
X119859713Y-80573890D01*
X119859389Y-80945856D01*
X120001434Y-81289632D01*
X120034551Y-81322807D01*
X120034551Y-94415887D01*
X117860650Y-96589788D01*
X117561384Y-96589527D01*
X117363551Y-96671270D01*
X117363551Y-84443689D01*
X117305699Y-84152850D01*
X117140952Y-83906288D01*
X115887673Y-82653009D01*
X115887713Y-82607522D01*
X115745668Y-82263746D01*
X115482878Y-82000497D01*
X115139350Y-81857851D01*
X114767384Y-81857527D01*
X114423608Y-81999572D01*
X114160359Y-82262362D01*
X114017713Y-82605890D01*
X114017389Y-82977856D01*
X114159434Y-83321632D01*
X114422224Y-83584881D01*
X114765752Y-83727527D01*
X114812628Y-83727568D01*
X115843551Y-84758491D01*
X115843551Y-94049690D01*
X115656384Y-94049527D01*
X115312608Y-94191572D01*
X115270207Y-94233899D01*
X115228878Y-94192497D01*
X114885350Y-94049851D01*
X114513384Y-94049527D01*
X114169608Y-94191572D01*
X113906359Y-94454362D01*
X113763713Y-94797890D01*
X113763672Y-94844766D01*
X110605150Y-98003288D01*
X110440403Y-98249850D01*
X110382551Y-98540689D01*
X110382551Y-101534226D01*
X110350359Y-101566362D01*
X110207713Y-101909890D01*
X110207389Y-102281856D01*
X108677551Y-102281856D01*
X108677551Y-87567325D01*
X108922930Y-87669215D01*
X109549424Y-87669762D01*
X110128438Y-87430518D01*
X110571823Y-86987906D01*
X110812077Y-86409310D01*
X110812624Y-85782816D01*
X110573380Y-85203802D01*
X110194655Y-84824416D01*
X110571823Y-84447906D01*
X110812077Y-83869310D01*
X110812624Y-83242816D01*
X110573380Y-82663802D01*
X110194655Y-82284416D01*
X110571823Y-81907906D01*
X110812077Y-81329310D01*
X110812624Y-80702816D01*
X110573380Y-80123802D01*
X110194655Y-79744416D01*
X110571823Y-79367906D01*
X110812077Y-78789310D01*
X110812624Y-78162816D01*
X110573380Y-77583802D01*
X110194655Y-77204416D01*
X110571823Y-76827906D01*
X110812077Y-76249310D01*
X110812624Y-75622816D01*
X110573380Y-75043802D01*
X110194655Y-74664416D01*
X110571823Y-74287906D01*
X110812077Y-73709310D01*
X110812624Y-73082816D01*
X110573380Y-72503802D01*
X110130768Y-72060417D01*
X109552172Y-71820163D01*
X108925678Y-71819616D01*
X108677551Y-71922140D01*
X108677551Y-71054652D01*
X112412265Y-71054652D01*
X112663085Y-71661684D01*
X113127114Y-72126523D01*
X113733706Y-72378402D01*
X114390514Y-72378975D01*
X114997546Y-72128155D01*
X115462385Y-71664126D01*
X115714264Y-71057534D01*
X115714266Y-71054652D01*
X115909845Y-71054652D01*
X116160665Y-71661684D01*
X116624694Y-72126523D01*
X117231286Y-72378402D01*
X117888094Y-72378975D01*
X118495126Y-72128155D01*
X118959965Y-71664126D01*
X119211844Y-71057534D01*
X119211882Y-71013439D01*
X119410251Y-71013439D01*
X119410251Y-71869999D01*
X119506924Y-72103388D01*
X119685553Y-72282016D01*
X119918942Y-72378689D01*
X120775501Y-72378689D01*
X120934251Y-72219939D01*
X120934251Y-70854689D01*
X121188251Y-70854689D01*
X121188251Y-72219939D01*
X121347001Y-72378689D01*
X122203560Y-72378689D01*
X122436949Y-72282016D01*
X122615578Y-72103388D01*
X122712251Y-71869999D01*
X122712251Y-71013439D01*
X122553501Y-70854689D01*
X121188251Y-70854689D01*
X120934251Y-70854689D01*
X119569001Y-70854689D01*
X119410251Y-71013439D01*
X119211882Y-71013439D01*
X119212417Y-70400726D01*
X118961597Y-69793694D01*
X118753645Y-69585379D01*
X119410251Y-69585379D01*
X119410251Y-70441939D01*
X119569001Y-70600689D01*
X120934251Y-70600689D01*
X120934251Y-69235439D01*
X121188251Y-69235439D01*
X121188251Y-70600689D01*
X122553501Y-70600689D01*
X122712251Y-70441939D01*
X122712251Y-69585379D01*
X122615578Y-69351990D01*
X122436949Y-69173362D01*
X122203560Y-69076689D01*
X121347001Y-69076689D01*
X121188251Y-69235439D01*
X120934251Y-69235439D01*
X120775501Y-69076689D01*
X119918942Y-69076689D01*
X119685553Y-69173362D01*
X119506924Y-69351990D01*
X119410251Y-69585379D01*
X118753645Y-69585379D01*
X118497568Y-69328855D01*
X117890976Y-69076976D01*
X117234168Y-69076403D01*
X116627136Y-69327223D01*
X116162297Y-69791252D01*
X115910418Y-70397844D01*
X115909845Y-71054652D01*
X115714266Y-71054652D01*
X115714837Y-70400726D01*
X115464017Y-69793694D01*
X114999988Y-69328855D01*
X114393396Y-69076976D01*
X113736588Y-69076403D01*
X113129556Y-69327223D01*
X112664717Y-69791252D01*
X112412838Y-70397844D01*
X112412265Y-71054652D01*
X108677551Y-71054652D01*
X108677551Y-65976689D01*
X130117551Y-65976689D01*
X130117551Y-71922053D01*
G36*
X153485551Y-71922053D02*
X153240172Y-71820163D01*
X152613678Y-71819616D01*
X152034664Y-72058860D01*
X151591279Y-72501472D01*
X151351025Y-73080068D01*
X151350478Y-73706562D01*
X151589722Y-74285576D01*
X151968447Y-74664962D01*
X151591279Y-75041472D01*
X151351025Y-75620068D01*
X151350478Y-76246562D01*
X151589722Y-76825576D01*
X151968447Y-77204962D01*
X151591279Y-77581472D01*
X151351025Y-78160068D01*
X151350478Y-78786562D01*
X151589722Y-79365576D01*
X151968447Y-79744962D01*
X151591279Y-80121472D01*
X151351025Y-80700068D01*
X151350478Y-81326562D01*
X151589722Y-81905576D01*
X151968447Y-82284962D01*
X151591279Y-82661472D01*
X151351025Y-83240068D01*
X151350478Y-83866562D01*
X151589722Y-84445576D01*
X151968447Y-84824962D01*
X151591279Y-85201472D01*
X151351025Y-85780068D01*
X151350478Y-86406562D01*
X151589722Y-86985576D01*
X152032334Y-87428961D01*
X152610930Y-87669215D01*
X153237424Y-87669762D01*
X153485551Y-87567238D01*
X153485551Y-113578689D01*
X144894953Y-113578689D01*
X144945494Y-113557806D01*
X145208743Y-113295016D01*
X145351389Y-112951488D01*
X145351713Y-112579522D01*
X145209668Y-112235746D01*
X144946878Y-111972497D01*
X144603350Y-111829851D01*
X144231384Y-111829527D01*
X143887608Y-111971572D01*
X143854433Y-112004689D01*
X137873353Y-112004689D01*
X134823353Y-108954689D01*
X135460353Y-108317689D01*
X137504088Y-108317689D01*
X137536224Y-108349881D01*
X137879752Y-108492527D01*
X138251718Y-108492851D01*
X138595494Y-108350806D01*
X138858743Y-108088016D01*
X139001389Y-107744488D01*
X139001713Y-107372522D01*
X138859668Y-107028746D01*
X138596878Y-106765497D01*
X138253350Y-106622851D01*
X137881384Y-106622527D01*
X137537608Y-106764572D01*
X137504433Y-106797689D01*
X135145551Y-106797689D01*
X134854711Y-106855541D01*
X134608150Y-107020288D01*
X133608871Y-108019567D01*
X133563384Y-108019527D01*
X133219608Y-108161572D01*
X132956359Y-108424362D01*
X132813713Y-108767890D01*
X132813389Y-109139856D01*
X132955434Y-109483632D01*
X133218224Y-109746881D01*
X133561752Y-109889527D01*
X133608628Y-109889568D01*
X137021150Y-113302090D01*
X137267712Y-113466837D01*
X137558551Y-113524689D01*
X143854088Y-113524689D01*
X143886224Y-113556881D01*
X143938743Y-113578689D01*
X132045551Y-113578689D01*
X132045551Y-102281856D01*
X133575389Y-102281856D01*
X133717434Y-102625632D01*
X133980224Y-102888881D01*
X134323752Y-103031527D01*
X134695718Y-103031851D01*
X135039494Y-102889806D01*
X135302743Y-102627016D01*
X135445389Y-102283488D01*
X135445713Y-101911522D01*
X135303668Y-101567746D01*
X135270551Y-101534571D01*
X135270551Y-98855491D01*
X135782551Y-98343491D01*
X135782551Y-101534226D01*
X135750359Y-101566362D01*
X135607713Y-101909890D01*
X135607389Y-102281856D01*
X135749434Y-102625632D01*
X136012224Y-102888881D01*
X136355752Y-103031527D01*
X136727718Y-103031851D01*
X137071494Y-102889806D01*
X137334743Y-102627016D01*
X137477389Y-102283488D01*
X137477713Y-101911522D01*
X137335668Y-101567746D01*
X137302551Y-101534571D01*
X137302551Y-97966491D01*
X139211551Y-96057491D01*
X139211551Y-105822953D01*
X139269403Y-106113792D01*
X139434150Y-106360354D01*
X140533886Y-107460090D01*
X140780448Y-107624837D01*
X140898847Y-107648388D01*
X140965224Y-107714881D01*
X141308752Y-107857527D01*
X141680718Y-107857851D01*
X142024494Y-107715806D01*
X142287743Y-107453016D01*
X142430389Y-107109488D01*
X142430713Y-106737522D01*
X142288668Y-106393746D01*
X142025878Y-106130497D01*
X141682350Y-105987851D01*
X141310384Y-105987527D01*
X141240006Y-106016606D01*
X140731551Y-105508151D01*
X140731551Y-103417022D01*
X140838224Y-103523881D01*
X141181752Y-103666527D01*
X141553718Y-103666851D01*
X141897494Y-103524806D01*
X141930669Y-103491689D01*
X143275551Y-103491689D01*
X143275551Y-106414689D01*
X143333403Y-106705528D01*
X143498150Y-106952090D01*
X145259429Y-108713369D01*
X145259389Y-108758856D01*
X145401434Y-109102632D01*
X145664224Y-109365881D01*
X146007752Y-109508527D01*
X146379718Y-109508851D01*
X146723494Y-109366806D01*
X146986743Y-109104016D01*
X147129389Y-108760488D01*
X147129713Y-108388522D01*
X146987668Y-108044746D01*
X146724878Y-107781497D01*
X146381350Y-107638851D01*
X146334474Y-107638810D01*
X144795551Y-106099887D01*
X144795551Y-103046491D01*
X146334231Y-101507811D01*
X146379718Y-101507851D01*
X146723494Y-101365806D01*
X146986743Y-101103016D01*
X147129389Y-100759488D01*
X147129713Y-100387522D01*
X146987668Y-100043746D01*
X146724878Y-99780497D01*
X146381350Y-99637851D01*
X146009384Y-99637527D01*
X145665608Y-99779572D01*
X145402359Y-100042362D01*
X145259713Y-100385890D01*
X145259672Y-100432766D01*
X143720749Y-101971689D01*
X141931014Y-101971689D01*
X141898878Y-101939497D01*
X141555350Y-101796851D01*
X141183384Y-101796527D01*
X140839608Y-101938572D01*
X140731551Y-102046441D01*
X140731551Y-98378057D01*
X140927752Y-98459527D01*
X141299718Y-98459851D01*
X141643494Y-98317806D01*
X141886913Y-98074811D01*
X141905952Y-98062090D01*
X142768892Y-97199150D01*
X142997224Y-97427881D01*
X143129593Y-97482845D01*
X142752871Y-97859567D01*
X142707384Y-97859527D01*
X142363608Y-98001572D01*
X142100359Y-98264362D01*
X141957713Y-98607890D01*
X141957389Y-98979856D01*
X142099434Y-99323632D01*
X142362224Y-99586881D01*
X142705752Y-99729527D01*
X143077718Y-99729851D01*
X143421494Y-99587806D01*
X143684743Y-99325016D01*
X143827389Y-98981488D01*
X143827430Y-98934612D01*
X146477952Y-96284090D01*
X146642699Y-96037528D01*
X146700551Y-95746689D01*
X146700551Y-84608736D01*
X146798434Y-84845632D01*
X147061224Y-85108881D01*
X147404752Y-85251527D01*
X147776718Y-85251851D01*
X148120494Y-85109806D01*
X148383743Y-84847016D01*
X148526389Y-84503488D01*
X148526456Y-84426947D01*
X148631519Y-84269708D01*
X148689371Y-83978869D01*
X148689371Y-72200048D01*
X148863366Y-72128155D01*
X149328205Y-71664126D01*
X149580084Y-71057534D01*
X149580657Y-70400726D01*
X149329837Y-69793694D01*
X148865808Y-69328855D01*
X148259216Y-69076976D01*
X147602408Y-69076403D01*
X146995376Y-69327223D01*
X146530537Y-69791252D01*
X146278658Y-70397844D01*
X146278085Y-71054652D01*
X146528905Y-71661684D01*
X146992934Y-72126523D01*
X147169371Y-72199786D01*
X147169371Y-83479459D01*
X147062608Y-83523572D01*
X146799359Y-83786362D01*
X146700551Y-84024317D01*
X146700551Y-80053152D01*
X146732743Y-80021016D01*
X146875389Y-79677488D01*
X146875713Y-79305522D01*
X146733668Y-78961746D01*
X146470878Y-78698497D01*
X146127350Y-78555851D01*
X145755384Y-78555527D01*
X145411608Y-78697572D01*
X145148359Y-78960362D01*
X145005713Y-79303890D01*
X145005389Y-79675856D01*
X145147434Y-80019632D01*
X145180551Y-80052807D01*
X145180551Y-81124586D01*
X145111350Y-81095851D01*
X145035810Y-81095785D01*
X145097389Y-80947488D01*
X145097713Y-80575522D01*
X144955668Y-80231746D01*
X144692878Y-79968497D01*
X144349350Y-79825851D01*
X143977384Y-79825527D01*
X143633608Y-79967572D01*
X143370359Y-80230362D01*
X143227713Y-80573890D01*
X143227389Y-80945856D01*
X143369434Y-81289632D01*
X143402551Y-81322807D01*
X143402551Y-94415887D01*
X141228650Y-96589788D01*
X140929384Y-96589527D01*
X140731551Y-96671270D01*
X140731551Y-84443689D01*
X140673699Y-84152850D01*
X140508952Y-83906288D01*
X139255673Y-82653009D01*
X139255713Y-82607522D01*
X139113668Y-82263746D01*
X138850878Y-82000497D01*
X138507350Y-81857851D01*
X138135384Y-81857527D01*
X137791608Y-81999572D01*
X137528359Y-82262362D01*
X137385713Y-82605890D01*
X137385389Y-82977856D01*
X137527434Y-83321632D01*
X137790224Y-83584881D01*
X138133752Y-83727527D01*
X138180628Y-83727568D01*
X139211551Y-84758491D01*
X139211551Y-94049690D01*
X139024384Y-94049527D01*
X138680608Y-94191572D01*
X138638207Y-94233899D01*
X138596878Y-94192497D01*
X138253350Y-94049851D01*
X137881384Y-94049527D01*
X137537608Y-94191572D01*
X137274359Y-94454362D01*
X137131713Y-94797890D01*
X137131672Y-94844766D01*
X133973150Y-98003288D01*
X133808403Y-98249850D01*
X133750551Y-98540689D01*
X133750551Y-101534226D01*
X133718359Y-101566362D01*
X133575713Y-101909890D01*
X133575389Y-102281856D01*
X132045551Y-102281856D01*
X132045551Y-87567325D01*
X132290930Y-87669215D01*
X132917424Y-87669762D01*
X133496438Y-87430518D01*
X133939823Y-86987906D01*
X134180077Y-86409310D01*
X134180624Y-85782816D01*
X133941380Y-85203802D01*
X133562655Y-84824416D01*
X133939823Y-84447906D01*
X134180077Y-83869310D01*
X134180624Y-83242816D01*
X133941380Y-82663802D01*
X133562655Y-82284416D01*
X133939823Y-81907906D01*
X134180077Y-81329310D01*
X134180624Y-80702816D01*
X133941380Y-80123802D01*
X133562655Y-79744416D01*
X133939823Y-79367906D01*
X134180077Y-78789310D01*
X134180624Y-78162816D01*
X133941380Y-77583802D01*
X133562655Y-77204416D01*
X133939823Y-76827906D01*
X134180077Y-76249310D01*
X134180624Y-75622816D01*
X133941380Y-75043802D01*
X133562655Y-74664416D01*
X133939823Y-74287906D01*
X134180077Y-73709310D01*
X134180624Y-73082816D01*
X133941380Y-72503802D01*
X133498768Y-72060417D01*
X132920172Y-71820163D01*
X132293678Y-71819616D01*
X132045551Y-71922140D01*
X132045551Y-71054652D01*
X135780265Y-71054652D01*
X136031085Y-71661684D01*
X136495114Y-72126523D01*
X137101706Y-72378402D01*
X137758514Y-72378975D01*
X138365546Y-72128155D01*
X138830385Y-71664126D01*
X139082264Y-71057534D01*
X139082266Y-71054652D01*
X139277845Y-71054652D01*
X139528665Y-71661684D01*
X139992694Y-72126523D01*
X140599286Y-72378402D01*
X141256094Y-72378975D01*
X141863126Y-72128155D01*
X142327965Y-71664126D01*
X142579844Y-71057534D01*
X142579882Y-71013439D01*
X142778251Y-71013439D01*
X142778251Y-71869999D01*
X142874924Y-72103388D01*
X143053553Y-72282016D01*
X143286942Y-72378689D01*
X144143501Y-72378689D01*
X144302251Y-72219939D01*
X144302251Y-70854689D01*
X144556251Y-70854689D01*
X144556251Y-72219939D01*
X144715001Y-72378689D01*
X145571560Y-72378689D01*
X145804949Y-72282016D01*
X145983578Y-72103388D01*
X146080251Y-71869999D01*
X146080251Y-71013439D01*
X145921501Y-70854689D01*
X144556251Y-70854689D01*
X144302251Y-70854689D01*
X142937001Y-70854689D01*
X142778251Y-71013439D01*
X142579882Y-71013439D01*
X142580417Y-70400726D01*
X142329597Y-69793694D01*
X142121645Y-69585379D01*
X142778251Y-69585379D01*
X142778251Y-70441939D01*
X142937001Y-70600689D01*
X144302251Y-70600689D01*
X144302251Y-69235439D01*
X144556251Y-69235439D01*
X144556251Y-70600689D01*
X145921501Y-70600689D01*
X146080251Y-70441939D01*
X146080251Y-69585379D01*
X145983578Y-69351990D01*
X145804949Y-69173362D01*
X145571560Y-69076689D01*
X144715001Y-69076689D01*
X144556251Y-69235439D01*
X144302251Y-69235439D01*
X144143501Y-69076689D01*
X143286942Y-69076689D01*
X143053553Y-69173362D01*
X142874924Y-69351990D01*
X142778251Y-69585379D01*
X142121645Y-69585379D01*
X141865568Y-69328855D01*
X141258976Y-69076976D01*
X140602168Y-69076403D01*
X139995136Y-69327223D01*
X139530297Y-69791252D01*
X139278418Y-70397844D01*
X139277845Y-71054652D01*
X139082266Y-71054652D01*
X139082837Y-70400726D01*
X138832017Y-69793694D01*
X138367988Y-69328855D01*
X137761396Y-69076976D01*
X137104588Y-69076403D01*
X136497556Y-69327223D01*
X136032717Y-69791252D01*
X135780838Y-70397844D01*
X135780265Y-71054652D01*
X132045551Y-71054652D01*
X132045551Y-65976689D01*
X153485551Y-65976689D01*
X153485551Y-71922053D01*
X153485551Y-71922053D01*
G37*
X153485551Y-71922053D02*
X153240172Y-71820163D01*
X152613678Y-71819616D01*
X152034664Y-72058860D01*
X151591279Y-72501472D01*
X151351025Y-73080068D01*
X151350478Y-73706562D01*
X151589722Y-74285576D01*
X151968447Y-74664962D01*
X151591279Y-75041472D01*
X151351025Y-75620068D01*
X151350478Y-76246562D01*
X151589722Y-76825576D01*
X151968447Y-77204962D01*
X151591279Y-77581472D01*
X151351025Y-78160068D01*
X151350478Y-78786562D01*
X151589722Y-79365576D01*
X151968447Y-79744962D01*
X151591279Y-80121472D01*
X151351025Y-80700068D01*
X151350478Y-81326562D01*
X151589722Y-81905576D01*
X151968447Y-82284962D01*
X151591279Y-82661472D01*
X151351025Y-83240068D01*
X151350478Y-83866562D01*
X151589722Y-84445576D01*
X151968447Y-84824962D01*
X151591279Y-85201472D01*
X151351025Y-85780068D01*
X151350478Y-86406562D01*
X151589722Y-86985576D01*
X152032334Y-87428961D01*
X152610930Y-87669215D01*
X153237424Y-87669762D01*
X153485551Y-87567238D01*
X153485551Y-113578689D01*
X144894953Y-113578689D01*
X144945494Y-113557806D01*
X145208743Y-113295016D01*
X145351389Y-112951488D01*
X145351713Y-112579522D01*
X145209668Y-112235746D01*
X144946878Y-111972497D01*
X144603350Y-111829851D01*
X144231384Y-111829527D01*
X143887608Y-111971572D01*
X143854433Y-112004689D01*
X137873353Y-112004689D01*
X134823353Y-108954689D01*
X135460353Y-108317689D01*
X137504088Y-108317689D01*
X137536224Y-108349881D01*
X137879752Y-108492527D01*
X138251718Y-108492851D01*
X138595494Y-108350806D01*
X138858743Y-108088016D01*
X139001389Y-107744488D01*
X139001713Y-107372522D01*
X138859668Y-107028746D01*
X138596878Y-106765497D01*
X138253350Y-106622851D01*
X137881384Y-106622527D01*
X137537608Y-106764572D01*
X137504433Y-106797689D01*
X135145551Y-106797689D01*
X134854711Y-106855541D01*
X134608150Y-107020288D01*
X133608871Y-108019567D01*
X133563384Y-108019527D01*
X133219608Y-108161572D01*
X132956359Y-108424362D01*
X132813713Y-108767890D01*
X132813389Y-109139856D01*
X132955434Y-109483632D01*
X133218224Y-109746881D01*
X133561752Y-109889527D01*
X133608628Y-109889568D01*
X137021150Y-113302090D01*
X137267712Y-113466837D01*
X137558551Y-113524689D01*
X143854088Y-113524689D01*
X143886224Y-113556881D01*
X143938743Y-113578689D01*
X132045551Y-113578689D01*
X132045551Y-102281856D01*
X133575389Y-102281856D01*
X133717434Y-102625632D01*
X133980224Y-102888881D01*
X134323752Y-103031527D01*
X134695718Y-103031851D01*
X135039494Y-102889806D01*
X135302743Y-102627016D01*
X135445389Y-102283488D01*
X135445713Y-101911522D01*
X135303668Y-101567746D01*
X135270551Y-101534571D01*
X135270551Y-98855491D01*
X135782551Y-98343491D01*
X135782551Y-101534226D01*
X135750359Y-101566362D01*
X135607713Y-101909890D01*
X135607389Y-102281856D01*
X135749434Y-102625632D01*
X136012224Y-102888881D01*
X136355752Y-103031527D01*
X136727718Y-103031851D01*
X137071494Y-102889806D01*
X137334743Y-102627016D01*
X137477389Y-102283488D01*
X137477713Y-101911522D01*
X137335668Y-101567746D01*
X137302551Y-101534571D01*
X137302551Y-97966491D01*
X139211551Y-96057491D01*
X139211551Y-105822953D01*
X139269403Y-106113792D01*
X139434150Y-106360354D01*
X140533886Y-107460090D01*
X140780448Y-107624837D01*
X140898847Y-107648388D01*
X140965224Y-107714881D01*
X141308752Y-107857527D01*
X141680718Y-107857851D01*
X142024494Y-107715806D01*
X142287743Y-107453016D01*
X142430389Y-107109488D01*
X142430713Y-106737522D01*
X142288668Y-106393746D01*
X142025878Y-106130497D01*
X141682350Y-105987851D01*
X141310384Y-105987527D01*
X141240006Y-106016606D01*
X140731551Y-105508151D01*
X140731551Y-103417022D01*
X140838224Y-103523881D01*
X141181752Y-103666527D01*
X141553718Y-103666851D01*
X141897494Y-103524806D01*
X141930669Y-103491689D01*
X143275551Y-103491689D01*
X143275551Y-106414689D01*
X143333403Y-106705528D01*
X143498150Y-106952090D01*
X145259429Y-108713369D01*
X145259389Y-108758856D01*
X145401434Y-109102632D01*
X145664224Y-109365881D01*
X146007752Y-109508527D01*
X146379718Y-109508851D01*
X146723494Y-109366806D01*
X146986743Y-109104016D01*
X147129389Y-108760488D01*
X147129713Y-108388522D01*
X146987668Y-108044746D01*
X146724878Y-107781497D01*
X146381350Y-107638851D01*
X146334474Y-107638810D01*
X144795551Y-106099887D01*
X144795551Y-103046491D01*
X146334231Y-101507811D01*
X146379718Y-101507851D01*
X146723494Y-101365806D01*
X146986743Y-101103016D01*
X147129389Y-100759488D01*
X147129713Y-100387522D01*
X146987668Y-100043746D01*
X146724878Y-99780497D01*
X146381350Y-99637851D01*
X146009384Y-99637527D01*
X145665608Y-99779572D01*
X145402359Y-100042362D01*
X145259713Y-100385890D01*
X145259672Y-100432766D01*
X143720749Y-101971689D01*
X141931014Y-101971689D01*
X141898878Y-101939497D01*
X141555350Y-101796851D01*
X141183384Y-101796527D01*
X140839608Y-101938572D01*
X140731551Y-102046441D01*
X140731551Y-98378057D01*
X140927752Y-98459527D01*
X141299718Y-98459851D01*
X141643494Y-98317806D01*
X141886913Y-98074811D01*
X141905952Y-98062090D01*
X142768892Y-97199150D01*
X142997224Y-97427881D01*
X143129593Y-97482845D01*
X142752871Y-97859567D01*
X142707384Y-97859527D01*
X142363608Y-98001572D01*
X142100359Y-98264362D01*
X141957713Y-98607890D01*
X141957389Y-98979856D01*
X142099434Y-99323632D01*
X142362224Y-99586881D01*
X142705752Y-99729527D01*
X143077718Y-99729851D01*
X143421494Y-99587806D01*
X143684743Y-99325016D01*
X143827389Y-98981488D01*
X143827430Y-98934612D01*
X146477952Y-96284090D01*
X146642699Y-96037528D01*
X146700551Y-95746689D01*
X146700551Y-84608736D01*
X146798434Y-84845632D01*
X147061224Y-85108881D01*
X147404752Y-85251527D01*
X147776718Y-85251851D01*
X148120494Y-85109806D01*
X148383743Y-84847016D01*
X148526389Y-84503488D01*
X148526456Y-84426947D01*
X148631519Y-84269708D01*
X148689371Y-83978869D01*
X148689371Y-72200048D01*
X148863366Y-72128155D01*
X149328205Y-71664126D01*
X149580084Y-71057534D01*
X149580657Y-70400726D01*
X149329837Y-69793694D01*
X148865808Y-69328855D01*
X148259216Y-69076976D01*
X147602408Y-69076403D01*
X146995376Y-69327223D01*
X146530537Y-69791252D01*
X146278658Y-70397844D01*
X146278085Y-71054652D01*
X146528905Y-71661684D01*
X146992934Y-72126523D01*
X147169371Y-72199786D01*
X147169371Y-83479459D01*
X147062608Y-83523572D01*
X146799359Y-83786362D01*
X146700551Y-84024317D01*
X146700551Y-80053152D01*
X146732743Y-80021016D01*
X146875389Y-79677488D01*
X146875713Y-79305522D01*
X146733668Y-78961746D01*
X146470878Y-78698497D01*
X146127350Y-78555851D01*
X145755384Y-78555527D01*
X145411608Y-78697572D01*
X145148359Y-78960362D01*
X145005713Y-79303890D01*
X145005389Y-79675856D01*
X145147434Y-80019632D01*
X145180551Y-80052807D01*
X145180551Y-81124586D01*
X145111350Y-81095851D01*
X145035810Y-81095785D01*
X145097389Y-80947488D01*
X145097713Y-80575522D01*
X144955668Y-80231746D01*
X144692878Y-79968497D01*
X144349350Y-79825851D01*
X143977384Y-79825527D01*
X143633608Y-79967572D01*
X143370359Y-80230362D01*
X143227713Y-80573890D01*
X143227389Y-80945856D01*
X143369434Y-81289632D01*
X143402551Y-81322807D01*
X143402551Y-94415887D01*
X141228650Y-96589788D01*
X140929384Y-96589527D01*
X140731551Y-96671270D01*
X140731551Y-84443689D01*
X140673699Y-84152850D01*
X140508952Y-83906288D01*
X139255673Y-82653009D01*
X139255713Y-82607522D01*
X139113668Y-82263746D01*
X138850878Y-82000497D01*
X138507350Y-81857851D01*
X138135384Y-81857527D01*
X137791608Y-81999572D01*
X137528359Y-82262362D01*
X137385713Y-82605890D01*
X137385389Y-82977856D01*
X137527434Y-83321632D01*
X137790224Y-83584881D01*
X138133752Y-83727527D01*
X138180628Y-83727568D01*
X139211551Y-84758491D01*
X139211551Y-94049690D01*
X139024384Y-94049527D01*
X138680608Y-94191572D01*
X138638207Y-94233899D01*
X138596878Y-94192497D01*
X138253350Y-94049851D01*
X137881384Y-94049527D01*
X137537608Y-94191572D01*
X137274359Y-94454362D01*
X137131713Y-94797890D01*
X137131672Y-94844766D01*
X133973150Y-98003288D01*
X133808403Y-98249850D01*
X133750551Y-98540689D01*
X133750551Y-101534226D01*
X133718359Y-101566362D01*
X133575713Y-101909890D01*
X133575389Y-102281856D01*
X132045551Y-102281856D01*
X132045551Y-87567325D01*
X132290930Y-87669215D01*
X132917424Y-87669762D01*
X133496438Y-87430518D01*
X133939823Y-86987906D01*
X134180077Y-86409310D01*
X134180624Y-85782816D01*
X133941380Y-85203802D01*
X133562655Y-84824416D01*
X133939823Y-84447906D01*
X134180077Y-83869310D01*
X134180624Y-83242816D01*
X133941380Y-82663802D01*
X133562655Y-82284416D01*
X133939823Y-81907906D01*
X134180077Y-81329310D01*
X134180624Y-80702816D01*
X133941380Y-80123802D01*
X133562655Y-79744416D01*
X133939823Y-79367906D01*
X134180077Y-78789310D01*
X134180624Y-78162816D01*
X133941380Y-77583802D01*
X133562655Y-77204416D01*
X133939823Y-76827906D01*
X134180077Y-76249310D01*
X134180624Y-75622816D01*
X133941380Y-75043802D01*
X133562655Y-74664416D01*
X133939823Y-74287906D01*
X134180077Y-73709310D01*
X134180624Y-73082816D01*
X133941380Y-72503802D01*
X133498768Y-72060417D01*
X132920172Y-71820163D01*
X132293678Y-71819616D01*
X132045551Y-71922140D01*
X132045551Y-71054652D01*
X135780265Y-71054652D01*
X136031085Y-71661684D01*
X136495114Y-72126523D01*
X137101706Y-72378402D01*
X137758514Y-72378975D01*
X138365546Y-72128155D01*
X138830385Y-71664126D01*
X139082264Y-71057534D01*
X139082266Y-71054652D01*
X139277845Y-71054652D01*
X139528665Y-71661684D01*
X139992694Y-72126523D01*
X140599286Y-72378402D01*
X141256094Y-72378975D01*
X141863126Y-72128155D01*
X142327965Y-71664126D01*
X142579844Y-71057534D01*
X142579882Y-71013439D01*
X142778251Y-71013439D01*
X142778251Y-71869999D01*
X142874924Y-72103388D01*
X143053553Y-72282016D01*
X143286942Y-72378689D01*
X144143501Y-72378689D01*
X144302251Y-72219939D01*
X144302251Y-70854689D01*
X144556251Y-70854689D01*
X144556251Y-72219939D01*
X144715001Y-72378689D01*
X145571560Y-72378689D01*
X145804949Y-72282016D01*
X145983578Y-72103388D01*
X146080251Y-71869999D01*
X146080251Y-71013439D01*
X145921501Y-70854689D01*
X144556251Y-70854689D01*
X144302251Y-70854689D01*
X142937001Y-70854689D01*
X142778251Y-71013439D01*
X142579882Y-71013439D01*
X142580417Y-70400726D01*
X142329597Y-69793694D01*
X142121645Y-69585379D01*
X142778251Y-69585379D01*
X142778251Y-70441939D01*
X142937001Y-70600689D01*
X144302251Y-70600689D01*
X144302251Y-69235439D01*
X144556251Y-69235439D01*
X144556251Y-70600689D01*
X145921501Y-70600689D01*
X146080251Y-70441939D01*
X146080251Y-69585379D01*
X145983578Y-69351990D01*
X145804949Y-69173362D01*
X145571560Y-69076689D01*
X144715001Y-69076689D01*
X144556251Y-69235439D01*
X144302251Y-69235439D01*
X144143501Y-69076689D01*
X143286942Y-69076689D01*
X143053553Y-69173362D01*
X142874924Y-69351990D01*
X142778251Y-69585379D01*
X142121645Y-69585379D01*
X141865568Y-69328855D01*
X141258976Y-69076976D01*
X140602168Y-69076403D01*
X139995136Y-69327223D01*
X139530297Y-69791252D01*
X139278418Y-70397844D01*
X139277845Y-71054652D01*
X139082266Y-71054652D01*
X139082837Y-70400726D01*
X138832017Y-69793694D01*
X138367988Y-69328855D01*
X137761396Y-69076976D01*
X137104588Y-69076403D01*
X136497556Y-69327223D01*
X136032717Y-69791252D01*
X135780838Y-70397844D01*
X135780265Y-71054652D01*
X132045551Y-71054652D01*
X132045551Y-65976689D01*
X153485551Y-65976689D01*
X153485551Y-71922053D01*
G36*
X176853551Y-71922053D02*
X176608172Y-71820163D01*
X175981678Y-71819616D01*
X175402664Y-72058860D01*
X174959279Y-72501472D01*
X174719025Y-73080068D01*
X174718478Y-73706562D01*
X174957722Y-74285576D01*
X175336447Y-74664962D01*
X174959279Y-75041472D01*
X174719025Y-75620068D01*
X174718478Y-76246562D01*
X174957722Y-76825576D01*
X175336447Y-77204962D01*
X174959279Y-77581472D01*
X174719025Y-78160068D01*
X174718478Y-78786562D01*
X174957722Y-79365576D01*
X175336447Y-79744962D01*
X174959279Y-80121472D01*
X174719025Y-80700068D01*
X174718478Y-81326562D01*
X174957722Y-81905576D01*
X175336447Y-82284962D01*
X174959279Y-82661472D01*
X174719025Y-83240068D01*
X174718478Y-83866562D01*
X174957722Y-84445576D01*
X175336447Y-84824962D01*
X174959279Y-85201472D01*
X174719025Y-85780068D01*
X174718478Y-86406562D01*
X174957722Y-86985576D01*
X175400334Y-87428961D01*
X175978930Y-87669215D01*
X176605424Y-87669762D01*
X176853551Y-87567238D01*
X176853551Y-113578689D01*
X168262953Y-113578689D01*
X168313494Y-113557806D01*
X168576743Y-113295016D01*
X168719389Y-112951488D01*
X168719713Y-112579522D01*
X168577668Y-112235746D01*
X168314878Y-111972497D01*
X167971350Y-111829851D01*
X167599384Y-111829527D01*
X167255608Y-111971572D01*
X167222433Y-112004689D01*
X161241353Y-112004689D01*
X158191353Y-108954689D01*
X158828353Y-108317689D01*
X160872088Y-108317689D01*
X160904224Y-108349881D01*
X161247752Y-108492527D01*
X161619718Y-108492851D01*
X161963494Y-108350806D01*
X162226743Y-108088016D01*
X162369389Y-107744488D01*
X162369713Y-107372522D01*
X162227668Y-107028746D01*
X161964878Y-106765497D01*
X161621350Y-106622851D01*
X161249384Y-106622527D01*
X160905608Y-106764572D01*
X160872433Y-106797689D01*
X158513551Y-106797689D01*
X158222711Y-106855541D01*
X157976150Y-107020288D01*
X156976871Y-108019567D01*
X156931384Y-108019527D01*
X156587608Y-108161572D01*
X156324359Y-108424362D01*
X156181713Y-108767890D01*
X156181389Y-109139856D01*
X156323434Y-109483632D01*
X156586224Y-109746881D01*
X156929752Y-109889527D01*
X156976628Y-109889568D01*
X160389150Y-113302090D01*
X160635712Y-113466837D01*
X160926551Y-113524689D01*
X167222088Y-113524689D01*
X167254224Y-113556881D01*
X167306743Y-113578689D01*
X155413551Y-113578689D01*
X155413551Y-102281856D01*
X156943389Y-102281856D01*
X157085434Y-102625632D01*
X157348224Y-102888881D01*
X157691752Y-103031527D01*
X158063718Y-103031851D01*
X158407494Y-102889806D01*
X158670743Y-102627016D01*
X158813389Y-102283488D01*
X158813713Y-101911522D01*
X158671668Y-101567746D01*
X158638551Y-101534571D01*
X158638551Y-98855491D01*
X159150551Y-98343491D01*
X159150551Y-101534226D01*
X159118359Y-101566362D01*
X158975713Y-101909890D01*
X158975389Y-102281856D01*
X159117434Y-102625632D01*
X159380224Y-102888881D01*
X159723752Y-103031527D01*
X160095718Y-103031851D01*
X160439494Y-102889806D01*
X160702743Y-102627016D01*
X160845389Y-102283488D01*
X160845713Y-101911522D01*
X160703668Y-101567746D01*
X160670551Y-101534571D01*
X160670551Y-97966491D01*
X162579551Y-96057491D01*
X162579551Y-105822953D01*
X162637403Y-106113792D01*
X162802150Y-106360354D01*
X163901886Y-107460090D01*
X164148448Y-107624837D01*
X164266847Y-107648388D01*
X164333224Y-107714881D01*
X164676752Y-107857527D01*
X165048718Y-107857851D01*
X165392494Y-107715806D01*
X165655743Y-107453016D01*
X165798389Y-107109488D01*
X165798713Y-106737522D01*
X165656668Y-106393746D01*
X165393878Y-106130497D01*
X165050350Y-105987851D01*
X164678384Y-105987527D01*
X164608006Y-106016606D01*
X164099551Y-105508151D01*
X164099551Y-103417022D01*
X164206224Y-103523881D01*
X164549752Y-103666527D01*
X164921718Y-103666851D01*
X165265494Y-103524806D01*
X165298669Y-103491689D01*
X166643551Y-103491689D01*
X166643551Y-106414689D01*
X166701403Y-106705528D01*
X166866150Y-106952090D01*
X168627429Y-108713369D01*
X168627389Y-108758856D01*
X168769434Y-109102632D01*
X169032224Y-109365881D01*
X169375752Y-109508527D01*
X169747718Y-109508851D01*
X170091494Y-109366806D01*
X170354743Y-109104016D01*
X170497389Y-108760488D01*
X170497713Y-108388522D01*
X170355668Y-108044746D01*
X170092878Y-107781497D01*
X169749350Y-107638851D01*
X169702474Y-107638810D01*
X168163551Y-106099887D01*
X168163551Y-103046491D01*
X169702231Y-101507811D01*
X169747718Y-101507851D01*
X170091494Y-101365806D01*
X170354743Y-101103016D01*
X170497389Y-100759488D01*
X170497713Y-100387522D01*
X170355668Y-100043746D01*
X170092878Y-99780497D01*
X169749350Y-99637851D01*
X169377384Y-99637527D01*
X169033608Y-99779572D01*
X168770359Y-100042362D01*
X168627713Y-100385890D01*
X168627672Y-100432766D01*
X167088749Y-101971689D01*
X165299014Y-101971689D01*
X165266878Y-101939497D01*
X164923350Y-101796851D01*
X164551384Y-101796527D01*
X164207608Y-101938572D01*
X164099551Y-102046441D01*
X164099551Y-98378057D01*
X164295752Y-98459527D01*
X164667718Y-98459851D01*
X165011494Y-98317806D01*
X165254913Y-98074811D01*
X165273952Y-98062090D01*
X166136892Y-97199150D01*
X166365224Y-97427881D01*
X166497593Y-97482845D01*
X166120871Y-97859567D01*
X166075384Y-97859527D01*
X165731608Y-98001572D01*
X165468359Y-98264362D01*
X165325713Y-98607890D01*
X165325389Y-98979856D01*
X165467434Y-99323632D01*
X165730224Y-99586881D01*
X166073752Y-99729527D01*
X166445718Y-99729851D01*
X166789494Y-99587806D01*
X167052743Y-99325016D01*
X167195389Y-98981488D01*
X167195430Y-98934612D01*
X169845952Y-96284090D01*
X170010699Y-96037528D01*
X170068551Y-95746689D01*
X170068551Y-84608736D01*
X170166434Y-84845632D01*
X170429224Y-85108881D01*
X170772752Y-85251527D01*
X171144718Y-85251851D01*
X171488494Y-85109806D01*
X171751743Y-84847016D01*
X171894389Y-84503488D01*
X171894456Y-84426947D01*
X171999519Y-84269708D01*
X172057371Y-83978869D01*
X172057371Y-72200048D01*
X172231366Y-72128155D01*
X172696205Y-71664126D01*
X172948084Y-71057534D01*
X172948657Y-70400726D01*
X172697837Y-69793694D01*
X172233808Y-69328855D01*
X171627216Y-69076976D01*
X170970408Y-69076403D01*
X170363376Y-69327223D01*
X169898537Y-69791252D01*
X169646658Y-70397844D01*
X169646085Y-71054652D01*
X169896905Y-71661684D01*
X170360934Y-72126523D01*
X170537371Y-72199786D01*
X170537371Y-83479459D01*
X170430608Y-83523572D01*
X170167359Y-83786362D01*
X170068551Y-84024317D01*
X170068551Y-80053152D01*
X170100743Y-80021016D01*
X170243389Y-79677488D01*
X170243713Y-79305522D01*
X170101668Y-78961746D01*
X169838878Y-78698497D01*
X169495350Y-78555851D01*
X169123384Y-78555527D01*
X168779608Y-78697572D01*
X168516359Y-78960362D01*
X168373713Y-79303890D01*
X168373389Y-79675856D01*
X168515434Y-80019632D01*
X168548551Y-80052807D01*
X168548551Y-81124586D01*
X168479350Y-81095851D01*
X168403810Y-81095785D01*
X168465389Y-80947488D01*
X168465713Y-80575522D01*
X168323668Y-80231746D01*
X168060878Y-79968497D01*
X167717350Y-79825851D01*
X167345384Y-79825527D01*
X167001608Y-79967572D01*
X166738359Y-80230362D01*
X166595713Y-80573890D01*
X166595389Y-80945856D01*
X166737434Y-81289632D01*
X166770551Y-81322807D01*
X166770551Y-94415887D01*
X164596650Y-96589788D01*
X164297384Y-96589527D01*
X164099551Y-96671270D01*
X164099551Y-84443689D01*
X164041699Y-84152850D01*
X163876952Y-83906288D01*
X162623673Y-82653009D01*
X162623713Y-82607522D01*
X162481668Y-82263746D01*
X162218878Y-82000497D01*
X161875350Y-81857851D01*
X161503384Y-81857527D01*
X161159608Y-81999572D01*
X160896359Y-82262362D01*
X160753713Y-82605890D01*
X160753389Y-82977856D01*
X160895434Y-83321632D01*
X161158224Y-83584881D01*
X161501752Y-83727527D01*
X161548628Y-83727568D01*
X162579551Y-84758491D01*
X162579551Y-94049690D01*
X162392384Y-94049527D01*
X162048608Y-94191572D01*
X162006207Y-94233899D01*
X161964878Y-94192497D01*
X161621350Y-94049851D01*
X161249384Y-94049527D01*
X160905608Y-94191572D01*
X160642359Y-94454362D01*
X160499713Y-94797890D01*
X160499672Y-94844766D01*
X157341150Y-98003288D01*
X157176403Y-98249850D01*
X157118551Y-98540689D01*
X157118551Y-101534226D01*
X157086359Y-101566362D01*
X156943713Y-101909890D01*
X156943389Y-102281856D01*
X155413551Y-102281856D01*
X155413551Y-87567325D01*
X155658930Y-87669215D01*
X156285424Y-87669762D01*
X156864438Y-87430518D01*
X157307823Y-86987906D01*
X157548077Y-86409310D01*
X157548624Y-85782816D01*
X157309380Y-85203802D01*
X156930655Y-84824416D01*
X157307823Y-84447906D01*
X157548077Y-83869310D01*
X157548624Y-83242816D01*
X157309380Y-82663802D01*
X156930655Y-82284416D01*
X157307823Y-81907906D01*
X157548077Y-81329310D01*
X157548624Y-80702816D01*
X157309380Y-80123802D01*
X156930655Y-79744416D01*
X157307823Y-79367906D01*
X157548077Y-78789310D01*
X157548624Y-78162816D01*
X157309380Y-77583802D01*
X156930655Y-77204416D01*
X157307823Y-76827906D01*
X157548077Y-76249310D01*
X157548624Y-75622816D01*
X157309380Y-75043802D01*
X156930655Y-74664416D01*
X157307823Y-74287906D01*
X157548077Y-73709310D01*
X157548624Y-73082816D01*
X157309380Y-72503802D01*
X156866768Y-72060417D01*
X156288172Y-71820163D01*
X155661678Y-71819616D01*
X155413551Y-71922140D01*
X155413551Y-71054652D01*
X159148265Y-71054652D01*
X159399085Y-71661684D01*
X159863114Y-72126523D01*
X160469706Y-72378402D01*
X161126514Y-72378975D01*
X161733546Y-72128155D01*
X162198385Y-71664126D01*
X162450264Y-71057534D01*
X162450266Y-71054652D01*
X162645845Y-71054652D01*
X162896665Y-71661684D01*
X163360694Y-72126523D01*
X163967286Y-72378402D01*
X164624094Y-72378975D01*
X165231126Y-72128155D01*
X165695965Y-71664126D01*
X165947844Y-71057534D01*
X165947882Y-71013439D01*
X166146251Y-71013439D01*
X166146251Y-71869999D01*
X166242924Y-72103388D01*
X166421553Y-72282016D01*
X166654942Y-72378689D01*
X167511501Y-72378689D01*
X167670251Y-72219939D01*
X167670251Y-70854689D01*
X167924251Y-70854689D01*
X167924251Y-72219939D01*
X168083001Y-72378689D01*
X168939560Y-72378689D01*
X169172949Y-72282016D01*
X169351578Y-72103388D01*
X169448251Y-71869999D01*
X169448251Y-71013439D01*
X169289501Y-70854689D01*
X167924251Y-70854689D01*
X167670251Y-70854689D01*
X166305001Y-70854689D01*
X166146251Y-71013439D01*
X165947882Y-71013439D01*
X165948417Y-70400726D01*
X165697597Y-69793694D01*
X165489645Y-69585379D01*
X166146251Y-69585379D01*
X166146251Y-70441939D01*
X166305001Y-70600689D01*
X167670251Y-70600689D01*
X167670251Y-69235439D01*
X167924251Y-69235439D01*
X167924251Y-70600689D01*
X169289501Y-70600689D01*
X169448251Y-70441939D01*
X169448251Y-69585379D01*
X169351578Y-69351990D01*
X169172949Y-69173362D01*
X168939560Y-69076689D01*
X168083001Y-69076689D01*
X167924251Y-69235439D01*
X167670251Y-69235439D01*
X167511501Y-69076689D01*
X166654942Y-69076689D01*
X166421553Y-69173362D01*
X166242924Y-69351990D01*
X166146251Y-69585379D01*
X165489645Y-69585379D01*
X165233568Y-69328855D01*
X164626976Y-69076976D01*
X163970168Y-69076403D01*
X163363136Y-69327223D01*
X162898297Y-69791252D01*
X162646418Y-70397844D01*
X162645845Y-71054652D01*
X162450266Y-71054652D01*
X162450837Y-70400726D01*
X162200017Y-69793694D01*
X161735988Y-69328855D01*
X161129396Y-69076976D01*
X160472588Y-69076403D01*
X159865556Y-69327223D01*
X159400717Y-69791252D01*
X159148838Y-70397844D01*
X159148265Y-71054652D01*
X155413551Y-71054652D01*
X155413551Y-65976689D01*
X176853551Y-65976689D01*
X176853551Y-71922053D01*
X176853551Y-71922053D01*
G37*
X176853551Y-71922053D02*
X176608172Y-71820163D01*
X175981678Y-71819616D01*
X175402664Y-72058860D01*
X174959279Y-72501472D01*
X174719025Y-73080068D01*
X174718478Y-73706562D01*
X174957722Y-74285576D01*
X175336447Y-74664962D01*
X174959279Y-75041472D01*
X174719025Y-75620068D01*
X174718478Y-76246562D01*
X174957722Y-76825576D01*
X175336447Y-77204962D01*
X174959279Y-77581472D01*
X174719025Y-78160068D01*
X174718478Y-78786562D01*
X174957722Y-79365576D01*
X175336447Y-79744962D01*
X174959279Y-80121472D01*
X174719025Y-80700068D01*
X174718478Y-81326562D01*
X174957722Y-81905576D01*
X175336447Y-82284962D01*
X174959279Y-82661472D01*
X174719025Y-83240068D01*
X174718478Y-83866562D01*
X174957722Y-84445576D01*
X175336447Y-84824962D01*
X174959279Y-85201472D01*
X174719025Y-85780068D01*
X174718478Y-86406562D01*
X174957722Y-86985576D01*
X175400334Y-87428961D01*
X175978930Y-87669215D01*
X176605424Y-87669762D01*
X176853551Y-87567238D01*
X176853551Y-113578689D01*
X168262953Y-113578689D01*
X168313494Y-113557806D01*
X168576743Y-113295016D01*
X168719389Y-112951488D01*
X168719713Y-112579522D01*
X168577668Y-112235746D01*
X168314878Y-111972497D01*
X167971350Y-111829851D01*
X167599384Y-111829527D01*
X167255608Y-111971572D01*
X167222433Y-112004689D01*
X161241353Y-112004689D01*
X158191353Y-108954689D01*
X158828353Y-108317689D01*
X160872088Y-108317689D01*
X160904224Y-108349881D01*
X161247752Y-108492527D01*
X161619718Y-108492851D01*
X161963494Y-108350806D01*
X162226743Y-108088016D01*
X162369389Y-107744488D01*
X162369713Y-107372522D01*
X162227668Y-107028746D01*
X161964878Y-106765497D01*
X161621350Y-106622851D01*
X161249384Y-106622527D01*
X160905608Y-106764572D01*
X160872433Y-106797689D01*
X158513551Y-106797689D01*
X158222711Y-106855541D01*
X157976150Y-107020288D01*
X156976871Y-108019567D01*
X156931384Y-108019527D01*
X156587608Y-108161572D01*
X156324359Y-108424362D01*
X156181713Y-108767890D01*
X156181389Y-109139856D01*
X156323434Y-109483632D01*
X156586224Y-109746881D01*
X156929752Y-109889527D01*
X156976628Y-109889568D01*
X160389150Y-113302090D01*
X160635712Y-113466837D01*
X160926551Y-113524689D01*
X167222088Y-113524689D01*
X167254224Y-113556881D01*
X167306743Y-113578689D01*
X155413551Y-113578689D01*
X155413551Y-102281856D01*
X156943389Y-102281856D01*
X157085434Y-102625632D01*
X157348224Y-102888881D01*
X157691752Y-103031527D01*
X158063718Y-103031851D01*
X158407494Y-102889806D01*
X158670743Y-102627016D01*
X158813389Y-102283488D01*
X158813713Y-101911522D01*
X158671668Y-101567746D01*
X158638551Y-101534571D01*
X158638551Y-98855491D01*
X159150551Y-98343491D01*
X159150551Y-101534226D01*
X159118359Y-101566362D01*
X158975713Y-101909890D01*
X158975389Y-102281856D01*
X159117434Y-102625632D01*
X159380224Y-102888881D01*
X159723752Y-103031527D01*
X160095718Y-103031851D01*
X160439494Y-102889806D01*
X160702743Y-102627016D01*
X160845389Y-102283488D01*
X160845713Y-101911522D01*
X160703668Y-101567746D01*
X160670551Y-101534571D01*
X160670551Y-97966491D01*
X162579551Y-96057491D01*
X162579551Y-105822953D01*
X162637403Y-106113792D01*
X162802150Y-106360354D01*
X163901886Y-107460090D01*
X164148448Y-107624837D01*
X164266847Y-107648388D01*
X164333224Y-107714881D01*
X164676752Y-107857527D01*
X165048718Y-107857851D01*
X165392494Y-107715806D01*
X165655743Y-107453016D01*
X165798389Y-107109488D01*
X165798713Y-106737522D01*
X165656668Y-106393746D01*
X165393878Y-106130497D01*
X165050350Y-105987851D01*
X164678384Y-105987527D01*
X164608006Y-106016606D01*
X164099551Y-105508151D01*
X164099551Y-103417022D01*
X164206224Y-103523881D01*
X164549752Y-103666527D01*
X164921718Y-103666851D01*
X165265494Y-103524806D01*
X165298669Y-103491689D01*
X166643551Y-103491689D01*
X166643551Y-106414689D01*
X166701403Y-106705528D01*
X166866150Y-106952090D01*
X168627429Y-108713369D01*
X168627389Y-108758856D01*
X168769434Y-109102632D01*
X169032224Y-109365881D01*
X169375752Y-109508527D01*
X169747718Y-109508851D01*
X170091494Y-109366806D01*
X170354743Y-109104016D01*
X170497389Y-108760488D01*
X170497713Y-108388522D01*
X170355668Y-108044746D01*
X170092878Y-107781497D01*
X169749350Y-107638851D01*
X169702474Y-107638810D01*
X168163551Y-106099887D01*
X168163551Y-103046491D01*
X169702231Y-101507811D01*
X169747718Y-101507851D01*
X170091494Y-101365806D01*
X170354743Y-101103016D01*
X170497389Y-100759488D01*
X170497713Y-100387522D01*
X170355668Y-100043746D01*
X170092878Y-99780497D01*
X169749350Y-99637851D01*
X169377384Y-99637527D01*
X169033608Y-99779572D01*
X168770359Y-100042362D01*
X168627713Y-100385890D01*
X168627672Y-100432766D01*
X167088749Y-101971689D01*
X165299014Y-101971689D01*
X165266878Y-101939497D01*
X164923350Y-101796851D01*
X164551384Y-101796527D01*
X164207608Y-101938572D01*
X164099551Y-102046441D01*
X164099551Y-98378057D01*
X164295752Y-98459527D01*
X164667718Y-98459851D01*
X165011494Y-98317806D01*
X165254913Y-98074811D01*
X165273952Y-98062090D01*
X166136892Y-97199150D01*
X166365224Y-97427881D01*
X166497593Y-97482845D01*
X166120871Y-97859567D01*
X166075384Y-97859527D01*
X165731608Y-98001572D01*
X165468359Y-98264362D01*
X165325713Y-98607890D01*
X165325389Y-98979856D01*
X165467434Y-99323632D01*
X165730224Y-99586881D01*
X166073752Y-99729527D01*
X166445718Y-99729851D01*
X166789494Y-99587806D01*
X167052743Y-99325016D01*
X167195389Y-98981488D01*
X167195430Y-98934612D01*
X169845952Y-96284090D01*
X170010699Y-96037528D01*
X170068551Y-95746689D01*
X170068551Y-84608736D01*
X170166434Y-84845632D01*
X170429224Y-85108881D01*
X170772752Y-85251527D01*
X171144718Y-85251851D01*
X171488494Y-85109806D01*
X171751743Y-84847016D01*
X171894389Y-84503488D01*
X171894456Y-84426947D01*
X171999519Y-84269708D01*
X172057371Y-83978869D01*
X172057371Y-72200048D01*
X172231366Y-72128155D01*
X172696205Y-71664126D01*
X172948084Y-71057534D01*
X172948657Y-70400726D01*
X172697837Y-69793694D01*
X172233808Y-69328855D01*
X171627216Y-69076976D01*
X170970408Y-69076403D01*
X170363376Y-69327223D01*
X169898537Y-69791252D01*
X169646658Y-70397844D01*
X169646085Y-71054652D01*
X169896905Y-71661684D01*
X170360934Y-72126523D01*
X170537371Y-72199786D01*
X170537371Y-83479459D01*
X170430608Y-83523572D01*
X170167359Y-83786362D01*
X170068551Y-84024317D01*
X170068551Y-80053152D01*
X170100743Y-80021016D01*
X170243389Y-79677488D01*
X170243713Y-79305522D01*
X170101668Y-78961746D01*
X169838878Y-78698497D01*
X169495350Y-78555851D01*
X169123384Y-78555527D01*
X168779608Y-78697572D01*
X168516359Y-78960362D01*
X168373713Y-79303890D01*
X168373389Y-79675856D01*
X168515434Y-80019632D01*
X168548551Y-80052807D01*
X168548551Y-81124586D01*
X168479350Y-81095851D01*
X168403810Y-81095785D01*
X168465389Y-80947488D01*
X168465713Y-80575522D01*
X168323668Y-80231746D01*
X168060878Y-79968497D01*
X167717350Y-79825851D01*
X167345384Y-79825527D01*
X167001608Y-79967572D01*
X166738359Y-80230362D01*
X166595713Y-80573890D01*
X166595389Y-80945856D01*
X166737434Y-81289632D01*
X166770551Y-81322807D01*
X166770551Y-94415887D01*
X164596650Y-96589788D01*
X164297384Y-96589527D01*
X164099551Y-96671270D01*
X164099551Y-84443689D01*
X164041699Y-84152850D01*
X163876952Y-83906288D01*
X162623673Y-82653009D01*
X162623713Y-82607522D01*
X162481668Y-82263746D01*
X162218878Y-82000497D01*
X161875350Y-81857851D01*
X161503384Y-81857527D01*
X161159608Y-81999572D01*
X160896359Y-82262362D01*
X160753713Y-82605890D01*
X160753389Y-82977856D01*
X160895434Y-83321632D01*
X161158224Y-83584881D01*
X161501752Y-83727527D01*
X161548628Y-83727568D01*
X162579551Y-84758491D01*
X162579551Y-94049690D01*
X162392384Y-94049527D01*
X162048608Y-94191572D01*
X162006207Y-94233899D01*
X161964878Y-94192497D01*
X161621350Y-94049851D01*
X161249384Y-94049527D01*
X160905608Y-94191572D01*
X160642359Y-94454362D01*
X160499713Y-94797890D01*
X160499672Y-94844766D01*
X157341150Y-98003288D01*
X157176403Y-98249850D01*
X157118551Y-98540689D01*
X157118551Y-101534226D01*
X157086359Y-101566362D01*
X156943713Y-101909890D01*
X156943389Y-102281856D01*
X155413551Y-102281856D01*
X155413551Y-87567325D01*
X155658930Y-87669215D01*
X156285424Y-87669762D01*
X156864438Y-87430518D01*
X157307823Y-86987906D01*
X157548077Y-86409310D01*
X157548624Y-85782816D01*
X157309380Y-85203802D01*
X156930655Y-84824416D01*
X157307823Y-84447906D01*
X157548077Y-83869310D01*
X157548624Y-83242816D01*
X157309380Y-82663802D01*
X156930655Y-82284416D01*
X157307823Y-81907906D01*
X157548077Y-81329310D01*
X157548624Y-80702816D01*
X157309380Y-80123802D01*
X156930655Y-79744416D01*
X157307823Y-79367906D01*
X157548077Y-78789310D01*
X157548624Y-78162816D01*
X157309380Y-77583802D01*
X156930655Y-77204416D01*
X157307823Y-76827906D01*
X157548077Y-76249310D01*
X157548624Y-75622816D01*
X157309380Y-75043802D01*
X156930655Y-74664416D01*
X157307823Y-74287906D01*
X157548077Y-73709310D01*
X157548624Y-73082816D01*
X157309380Y-72503802D01*
X156866768Y-72060417D01*
X156288172Y-71820163D01*
X155661678Y-71819616D01*
X155413551Y-71922140D01*
X155413551Y-71054652D01*
X159148265Y-71054652D01*
X159399085Y-71661684D01*
X159863114Y-72126523D01*
X160469706Y-72378402D01*
X161126514Y-72378975D01*
X161733546Y-72128155D01*
X162198385Y-71664126D01*
X162450264Y-71057534D01*
X162450266Y-71054652D01*
X162645845Y-71054652D01*
X162896665Y-71661684D01*
X163360694Y-72126523D01*
X163967286Y-72378402D01*
X164624094Y-72378975D01*
X165231126Y-72128155D01*
X165695965Y-71664126D01*
X165947844Y-71057534D01*
X165947882Y-71013439D01*
X166146251Y-71013439D01*
X166146251Y-71869999D01*
X166242924Y-72103388D01*
X166421553Y-72282016D01*
X166654942Y-72378689D01*
X167511501Y-72378689D01*
X167670251Y-72219939D01*
X167670251Y-70854689D01*
X167924251Y-70854689D01*
X167924251Y-72219939D01*
X168083001Y-72378689D01*
X168939560Y-72378689D01*
X169172949Y-72282016D01*
X169351578Y-72103388D01*
X169448251Y-71869999D01*
X169448251Y-71013439D01*
X169289501Y-70854689D01*
X167924251Y-70854689D01*
X167670251Y-70854689D01*
X166305001Y-70854689D01*
X166146251Y-71013439D01*
X165947882Y-71013439D01*
X165948417Y-70400726D01*
X165697597Y-69793694D01*
X165489645Y-69585379D01*
X166146251Y-69585379D01*
X166146251Y-70441939D01*
X166305001Y-70600689D01*
X167670251Y-70600689D01*
X167670251Y-69235439D01*
X167924251Y-69235439D01*
X167924251Y-70600689D01*
X169289501Y-70600689D01*
X169448251Y-70441939D01*
X169448251Y-69585379D01*
X169351578Y-69351990D01*
X169172949Y-69173362D01*
X168939560Y-69076689D01*
X168083001Y-69076689D01*
X167924251Y-69235439D01*
X167670251Y-69235439D01*
X167511501Y-69076689D01*
X166654942Y-69076689D01*
X166421553Y-69173362D01*
X166242924Y-69351990D01*
X166146251Y-69585379D01*
X165489645Y-69585379D01*
X165233568Y-69328855D01*
X164626976Y-69076976D01*
X163970168Y-69076403D01*
X163363136Y-69327223D01*
X162898297Y-69791252D01*
X162646418Y-70397844D01*
X162645845Y-71054652D01*
X162450266Y-71054652D01*
X162450837Y-70400726D01*
X162200017Y-69793694D01*
X161735988Y-69328855D01*
X161129396Y-69076976D01*
X160472588Y-69076403D01*
X159865556Y-69327223D01*
X159400717Y-69791252D01*
X159148838Y-70397844D01*
X159148265Y-71054652D01*
X155413551Y-71054652D01*
X155413551Y-65976689D01*
X176853551Y-65976689D01*
X176853551Y-71922053D01*
G36*
X200221551Y-71922053D02*
X199976172Y-71820163D01*
X199349678Y-71819616D01*
X198770664Y-72058860D01*
X198327279Y-72501472D01*
X198087025Y-73080068D01*
X198086478Y-73706562D01*
X198325722Y-74285576D01*
X198704447Y-74664962D01*
X198327279Y-75041472D01*
X198087025Y-75620068D01*
X198086478Y-76246562D01*
X198325722Y-76825576D01*
X198704447Y-77204962D01*
X198327279Y-77581472D01*
X198087025Y-78160068D01*
X198086478Y-78786562D01*
X198325722Y-79365576D01*
X198704447Y-79744962D01*
X198327279Y-80121472D01*
X198087025Y-80700068D01*
X198086478Y-81326562D01*
X198325722Y-81905576D01*
X198704447Y-82284962D01*
X198327279Y-82661472D01*
X198087025Y-83240068D01*
X198086478Y-83866562D01*
X198325722Y-84445576D01*
X198704447Y-84824962D01*
X198327279Y-85201472D01*
X198087025Y-85780068D01*
X198086478Y-86406562D01*
X198325722Y-86985576D01*
X198768334Y-87428961D01*
X199346930Y-87669215D01*
X199973424Y-87669762D01*
X200221551Y-87567238D01*
X200221551Y-113578689D01*
X191630953Y-113578689D01*
X191681494Y-113557806D01*
X191944743Y-113295016D01*
X192087389Y-112951488D01*
X192087713Y-112579522D01*
X191945668Y-112235746D01*
X191682878Y-111972497D01*
X191339350Y-111829851D01*
X190967384Y-111829527D01*
X190623608Y-111971572D01*
X190590433Y-112004689D01*
X184609353Y-112004689D01*
X181559353Y-108954689D01*
X182196353Y-108317689D01*
X184240088Y-108317689D01*
X184272224Y-108349881D01*
X184615752Y-108492527D01*
X184987718Y-108492851D01*
X185331494Y-108350806D01*
X185594743Y-108088016D01*
X185737389Y-107744488D01*
X185737713Y-107372522D01*
X185595668Y-107028746D01*
X185332878Y-106765497D01*
X184989350Y-106622851D01*
X184617384Y-106622527D01*
X184273608Y-106764572D01*
X184240433Y-106797689D01*
X181881551Y-106797689D01*
X181590711Y-106855541D01*
X181344150Y-107020288D01*
X180344871Y-108019567D01*
X180299384Y-108019527D01*
X179955608Y-108161572D01*
X179692359Y-108424362D01*
X179549713Y-108767890D01*
X179549389Y-109139856D01*
X179691434Y-109483632D01*
X179954224Y-109746881D01*
X180297752Y-109889527D01*
X180344628Y-109889568D01*
X183757150Y-113302090D01*
X184003712Y-113466837D01*
X184294551Y-113524689D01*
X190590088Y-113524689D01*
X190622224Y-113556881D01*
X190674743Y-113578689D01*
X178781551Y-113578689D01*
X178781551Y-102281856D01*
X180311389Y-102281856D01*
X180453434Y-102625632D01*
X180716224Y-102888881D01*
X181059752Y-103031527D01*
X181431718Y-103031851D01*
X181775494Y-102889806D01*
X182038743Y-102627016D01*
X182181389Y-102283488D01*
X182181713Y-101911522D01*
X182039668Y-101567746D01*
X182006551Y-101534571D01*
X182006551Y-98855491D01*
X182518551Y-98343491D01*
X182518551Y-101534226D01*
X182486359Y-101566362D01*
X182343713Y-101909890D01*
X182343389Y-102281856D01*
X182485434Y-102625632D01*
X182748224Y-102888881D01*
X183091752Y-103031527D01*
X183463718Y-103031851D01*
X183807494Y-102889806D01*
X184070743Y-102627016D01*
X184213389Y-102283488D01*
X184213713Y-101911522D01*
X184071668Y-101567746D01*
X184038551Y-101534571D01*
X184038551Y-97966491D01*
X185947551Y-96057491D01*
X185947551Y-105822953D01*
X186005403Y-106113792D01*
X186170150Y-106360354D01*
X187269886Y-107460090D01*
X187516448Y-107624837D01*
X187634847Y-107648388D01*
X187701224Y-107714881D01*
X188044752Y-107857527D01*
X188416718Y-107857851D01*
X188760494Y-107715806D01*
X189023743Y-107453016D01*
X189166389Y-107109488D01*
X189166713Y-106737522D01*
X189024668Y-106393746D01*
X188761878Y-106130497D01*
X188418350Y-105987851D01*
X188046384Y-105987527D01*
X187976006Y-106016606D01*
X187467551Y-105508151D01*
X187467551Y-103417022D01*
X187574224Y-103523881D01*
X187917752Y-103666527D01*
X188289718Y-103666851D01*
X188633494Y-103524806D01*
X188666669Y-103491689D01*
X190011551Y-103491689D01*
X190011551Y-106414689D01*
X190069403Y-106705528D01*
X190234150Y-106952090D01*
X191995429Y-108713369D01*
X191995389Y-108758856D01*
X192137434Y-109102632D01*
X192400224Y-109365881D01*
X192743752Y-109508527D01*
X193115718Y-109508851D01*
X193459494Y-109366806D01*
X193722743Y-109104016D01*
X193865389Y-108760488D01*
X193865713Y-108388522D01*
X193723668Y-108044746D01*
X193460878Y-107781497D01*
X193117350Y-107638851D01*
X193070474Y-107638810D01*
X191531551Y-106099887D01*
X191531551Y-103046491D01*
X193070231Y-101507811D01*
X193115718Y-101507851D01*
X193459494Y-101365806D01*
X193722743Y-101103016D01*
X193865389Y-100759488D01*
X193865713Y-100387522D01*
X193723668Y-100043746D01*
X193460878Y-99780497D01*
X193117350Y-99637851D01*
X192745384Y-99637527D01*
X192401608Y-99779572D01*
X192138359Y-100042362D01*
X191995713Y-100385890D01*
X191995672Y-100432766D01*
X190456749Y-101971689D01*
X188667014Y-101971689D01*
X188634878Y-101939497D01*
X188291350Y-101796851D01*
X187919384Y-101796527D01*
X187575608Y-101938572D01*
X187467551Y-102046441D01*
X187467551Y-98378057D01*
X187663752Y-98459527D01*
X188035718Y-98459851D01*
X188379494Y-98317806D01*
X188622913Y-98074811D01*
X188641952Y-98062090D01*
X189504892Y-97199150D01*
X189733224Y-97427881D01*
X189865593Y-97482845D01*
X189488871Y-97859567D01*
X189443384Y-97859527D01*
X189099608Y-98001572D01*
X188836359Y-98264362D01*
X188693713Y-98607890D01*
X188693389Y-98979856D01*
X188835434Y-99323632D01*
X189098224Y-99586881D01*
X189441752Y-99729527D01*
X189813718Y-99729851D01*
X190157494Y-99587806D01*
X190420743Y-99325016D01*
X190563389Y-98981488D01*
X190563430Y-98934612D01*
X193213952Y-96284090D01*
X193378699Y-96037528D01*
X193436551Y-95746689D01*
X193436551Y-84608736D01*
X193534434Y-84845632D01*
X193797224Y-85108881D01*
X194140752Y-85251527D01*
X194512718Y-85251851D01*
X194856494Y-85109806D01*
X195119743Y-84847016D01*
X195262389Y-84503488D01*
X195262456Y-84426947D01*
X195367519Y-84269708D01*
X195425371Y-83978869D01*
X195425371Y-72200048D01*
X195599366Y-72128155D01*
X196064205Y-71664126D01*
X196316084Y-71057534D01*
X196316657Y-70400726D01*
X196065837Y-69793694D01*
X195601808Y-69328855D01*
X194995216Y-69076976D01*
X194338408Y-69076403D01*
X193731376Y-69327223D01*
X193266537Y-69791252D01*
X193014658Y-70397844D01*
X193014085Y-71054652D01*
X193264905Y-71661684D01*
X193728934Y-72126523D01*
X193905371Y-72199786D01*
X193905371Y-83479459D01*
X193798608Y-83523572D01*
X193535359Y-83786362D01*
X193436551Y-84024317D01*
X193436551Y-80053152D01*
X193468743Y-80021016D01*
X193611389Y-79677488D01*
X193611713Y-79305522D01*
X193469668Y-78961746D01*
X193206878Y-78698497D01*
X192863350Y-78555851D01*
X192491384Y-78555527D01*
X192147608Y-78697572D01*
X191884359Y-78960362D01*
X191741713Y-79303890D01*
X191741389Y-79675856D01*
X191883434Y-80019632D01*
X191916551Y-80052807D01*
X191916551Y-81124586D01*
X191847350Y-81095851D01*
X191771810Y-81095785D01*
X191833389Y-80947488D01*
X191833713Y-80575522D01*
X191691668Y-80231746D01*
X191428878Y-79968497D01*
X191085350Y-79825851D01*
X190713384Y-79825527D01*
X190369608Y-79967572D01*
X190106359Y-80230362D01*
X189963713Y-80573890D01*
X189963389Y-80945856D01*
X190105434Y-81289632D01*
X190138551Y-81322807D01*
X190138551Y-94415887D01*
X187964650Y-96589788D01*
X187665384Y-96589527D01*
X187467551Y-96671270D01*
X187467551Y-84443689D01*
X187409699Y-84152850D01*
X187244952Y-83906288D01*
X185991673Y-82653009D01*
X185991713Y-82607522D01*
X185849668Y-82263746D01*
X185586878Y-82000497D01*
X185243350Y-81857851D01*
X184871384Y-81857527D01*
X184527608Y-81999572D01*
X184264359Y-82262362D01*
X184121713Y-82605890D01*
X184121389Y-82977856D01*
X184263434Y-83321632D01*
X184526224Y-83584881D01*
X184869752Y-83727527D01*
X184916628Y-83727568D01*
X185947551Y-84758491D01*
X185947551Y-94049690D01*
X185760384Y-94049527D01*
X185416608Y-94191572D01*
X185374207Y-94233899D01*
X185332878Y-94192497D01*
X184989350Y-94049851D01*
X184617384Y-94049527D01*
X184273608Y-94191572D01*
X184010359Y-94454362D01*
X183867713Y-94797890D01*
X183867672Y-94844766D01*
X180709150Y-98003288D01*
X180544403Y-98249850D01*
X180486551Y-98540689D01*
X180486551Y-101534226D01*
X180454359Y-101566362D01*
X180311713Y-101909890D01*
X180311389Y-102281856D01*
X178781551Y-102281856D01*
X178781551Y-87567325D01*
X179026930Y-87669215D01*
X179653424Y-87669762D01*
X180232438Y-87430518D01*
X180675823Y-86987906D01*
X180916077Y-86409310D01*
X180916624Y-85782816D01*
X180677380Y-85203802D01*
X180298655Y-84824416D01*
X180675823Y-84447906D01*
X180916077Y-83869310D01*
X180916624Y-83242816D01*
X180677380Y-82663802D01*
X180298655Y-82284416D01*
X180675823Y-81907906D01*
X180916077Y-81329310D01*
X180916624Y-80702816D01*
X180677380Y-80123802D01*
X180298655Y-79744416D01*
X180675823Y-79367906D01*
X180916077Y-78789310D01*
X180916624Y-78162816D01*
X180677380Y-77583802D01*
X180298655Y-77204416D01*
X180675823Y-76827906D01*
X180916077Y-76249310D01*
X180916624Y-75622816D01*
X180677380Y-75043802D01*
X180298655Y-74664416D01*
X180675823Y-74287906D01*
X180916077Y-73709310D01*
X180916624Y-73082816D01*
X180677380Y-72503802D01*
X180234768Y-72060417D01*
X179656172Y-71820163D01*
X179029678Y-71819616D01*
X178781551Y-71922140D01*
X178781551Y-71054652D01*
X182516265Y-71054652D01*
X182767085Y-71661684D01*
X183231114Y-72126523D01*
X183837706Y-72378402D01*
X184494514Y-72378975D01*
X185101546Y-72128155D01*
X185566385Y-71664126D01*
X185818264Y-71057534D01*
X185818266Y-71054652D01*
X186013845Y-71054652D01*
X186264665Y-71661684D01*
X186728694Y-72126523D01*
X187335286Y-72378402D01*
X187992094Y-72378975D01*
X188599126Y-72128155D01*
X189063965Y-71664126D01*
X189315844Y-71057534D01*
X189315882Y-71013439D01*
X189514251Y-71013439D01*
X189514251Y-71869999D01*
X189610924Y-72103388D01*
X189789553Y-72282016D01*
X190022942Y-72378689D01*
X190879501Y-72378689D01*
X191038251Y-72219939D01*
X191038251Y-70854689D01*
X191292251Y-70854689D01*
X191292251Y-72219939D01*
X191451001Y-72378689D01*
X192307560Y-72378689D01*
X192540949Y-72282016D01*
X192719578Y-72103388D01*
X192816251Y-71869999D01*
X192816251Y-71013439D01*
X192657501Y-70854689D01*
X191292251Y-70854689D01*
X191038251Y-70854689D01*
X189673001Y-70854689D01*
X189514251Y-71013439D01*
X189315882Y-71013439D01*
X189316417Y-70400726D01*
X189065597Y-69793694D01*
X188857645Y-69585379D01*
X189514251Y-69585379D01*
X189514251Y-70441939D01*
X189673001Y-70600689D01*
X191038251Y-70600689D01*
X191038251Y-69235439D01*
X191292251Y-69235439D01*
X191292251Y-70600689D01*
X192657501Y-70600689D01*
X192816251Y-70441939D01*
X192816251Y-69585379D01*
X192719578Y-69351990D01*
X192540949Y-69173362D01*
X192307560Y-69076689D01*
X191451001Y-69076689D01*
X191292251Y-69235439D01*
X191038251Y-69235439D01*
X190879501Y-69076689D01*
X190022942Y-69076689D01*
X189789553Y-69173362D01*
X189610924Y-69351990D01*
X189514251Y-69585379D01*
X188857645Y-69585379D01*
X188601568Y-69328855D01*
X187994976Y-69076976D01*
X187338168Y-69076403D01*
X186731136Y-69327223D01*
X186266297Y-69791252D01*
X186014418Y-70397844D01*
X186013845Y-71054652D01*
X185818266Y-71054652D01*
X185818837Y-70400726D01*
X185568017Y-69793694D01*
X185103988Y-69328855D01*
X184497396Y-69076976D01*
X183840588Y-69076403D01*
X183233556Y-69327223D01*
X182768717Y-69791252D01*
X182516838Y-70397844D01*
X182516265Y-71054652D01*
X178781551Y-71054652D01*
X178781551Y-65976689D01*
X200221551Y-65976689D01*
X200221551Y-71922053D01*
X200221551Y-71922053D01*
G37*
X200221551Y-71922053D02*
X199976172Y-71820163D01*
X199349678Y-71819616D01*
X198770664Y-72058860D01*
X198327279Y-72501472D01*
X198087025Y-73080068D01*
X198086478Y-73706562D01*
X198325722Y-74285576D01*
X198704447Y-74664962D01*
X198327279Y-75041472D01*
X198087025Y-75620068D01*
X198086478Y-76246562D01*
X198325722Y-76825576D01*
X198704447Y-77204962D01*
X198327279Y-77581472D01*
X198087025Y-78160068D01*
X198086478Y-78786562D01*
X198325722Y-79365576D01*
X198704447Y-79744962D01*
X198327279Y-80121472D01*
X198087025Y-80700068D01*
X198086478Y-81326562D01*
X198325722Y-81905576D01*
X198704447Y-82284962D01*
X198327279Y-82661472D01*
X198087025Y-83240068D01*
X198086478Y-83866562D01*
X198325722Y-84445576D01*
X198704447Y-84824962D01*
X198327279Y-85201472D01*
X198087025Y-85780068D01*
X198086478Y-86406562D01*
X198325722Y-86985576D01*
X198768334Y-87428961D01*
X199346930Y-87669215D01*
X199973424Y-87669762D01*
X200221551Y-87567238D01*
X200221551Y-113578689D01*
X191630953Y-113578689D01*
X191681494Y-113557806D01*
X191944743Y-113295016D01*
X192087389Y-112951488D01*
X192087713Y-112579522D01*
X191945668Y-112235746D01*
X191682878Y-111972497D01*
X191339350Y-111829851D01*
X190967384Y-111829527D01*
X190623608Y-111971572D01*
X190590433Y-112004689D01*
X184609353Y-112004689D01*
X181559353Y-108954689D01*
X182196353Y-108317689D01*
X184240088Y-108317689D01*
X184272224Y-108349881D01*
X184615752Y-108492527D01*
X184987718Y-108492851D01*
X185331494Y-108350806D01*
X185594743Y-108088016D01*
X185737389Y-107744488D01*
X185737713Y-107372522D01*
X185595668Y-107028746D01*
X185332878Y-106765497D01*
X184989350Y-106622851D01*
X184617384Y-106622527D01*
X184273608Y-106764572D01*
X184240433Y-106797689D01*
X181881551Y-106797689D01*
X181590711Y-106855541D01*
X181344150Y-107020288D01*
X180344871Y-108019567D01*
X180299384Y-108019527D01*
X179955608Y-108161572D01*
X179692359Y-108424362D01*
X179549713Y-108767890D01*
X179549389Y-109139856D01*
X179691434Y-109483632D01*
X179954224Y-109746881D01*
X180297752Y-109889527D01*
X180344628Y-109889568D01*
X183757150Y-113302090D01*
X184003712Y-113466837D01*
X184294551Y-113524689D01*
X190590088Y-113524689D01*
X190622224Y-113556881D01*
X190674743Y-113578689D01*
X178781551Y-113578689D01*
X178781551Y-102281856D01*
X180311389Y-102281856D01*
X180453434Y-102625632D01*
X180716224Y-102888881D01*
X181059752Y-103031527D01*
X181431718Y-103031851D01*
X181775494Y-102889806D01*
X182038743Y-102627016D01*
X182181389Y-102283488D01*
X182181713Y-101911522D01*
X182039668Y-101567746D01*
X182006551Y-101534571D01*
X182006551Y-98855491D01*
X182518551Y-98343491D01*
X182518551Y-101534226D01*
X182486359Y-101566362D01*
X182343713Y-101909890D01*
X182343389Y-102281856D01*
X182485434Y-102625632D01*
X182748224Y-102888881D01*
X183091752Y-103031527D01*
X183463718Y-103031851D01*
X183807494Y-102889806D01*
X184070743Y-102627016D01*
X184213389Y-102283488D01*
X184213713Y-101911522D01*
X184071668Y-101567746D01*
X184038551Y-101534571D01*
X184038551Y-97966491D01*
X185947551Y-96057491D01*
X185947551Y-105822953D01*
X186005403Y-106113792D01*
X186170150Y-106360354D01*
X187269886Y-107460090D01*
X187516448Y-107624837D01*
X187634847Y-107648388D01*
X187701224Y-107714881D01*
X188044752Y-107857527D01*
X188416718Y-107857851D01*
X188760494Y-107715806D01*
X189023743Y-107453016D01*
X189166389Y-107109488D01*
X189166713Y-106737522D01*
X189024668Y-106393746D01*
X188761878Y-106130497D01*
X188418350Y-105987851D01*
X188046384Y-105987527D01*
X187976006Y-106016606D01*
X187467551Y-105508151D01*
X187467551Y-103417022D01*
X187574224Y-103523881D01*
X187917752Y-103666527D01*
X188289718Y-103666851D01*
X188633494Y-103524806D01*
X188666669Y-103491689D01*
X190011551Y-103491689D01*
X190011551Y-106414689D01*
X190069403Y-106705528D01*
X190234150Y-106952090D01*
X191995429Y-108713369D01*
X191995389Y-108758856D01*
X192137434Y-109102632D01*
X192400224Y-109365881D01*
X192743752Y-109508527D01*
X193115718Y-109508851D01*
X193459494Y-109366806D01*
X193722743Y-109104016D01*
X193865389Y-108760488D01*
X193865713Y-108388522D01*
X193723668Y-108044746D01*
X193460878Y-107781497D01*
X193117350Y-107638851D01*
X193070474Y-107638810D01*
X191531551Y-106099887D01*
X191531551Y-103046491D01*
X193070231Y-101507811D01*
X193115718Y-101507851D01*
X193459494Y-101365806D01*
X193722743Y-101103016D01*
X193865389Y-100759488D01*
X193865713Y-100387522D01*
X193723668Y-100043746D01*
X193460878Y-99780497D01*
X193117350Y-99637851D01*
X192745384Y-99637527D01*
X192401608Y-99779572D01*
X192138359Y-100042362D01*
X191995713Y-100385890D01*
X191995672Y-100432766D01*
X190456749Y-101971689D01*
X188667014Y-101971689D01*
X188634878Y-101939497D01*
X188291350Y-101796851D01*
X187919384Y-101796527D01*
X187575608Y-101938572D01*
X187467551Y-102046441D01*
X187467551Y-98378057D01*
X187663752Y-98459527D01*
X188035718Y-98459851D01*
X188379494Y-98317806D01*
X188622913Y-98074811D01*
X188641952Y-98062090D01*
X189504892Y-97199150D01*
X189733224Y-97427881D01*
X189865593Y-97482845D01*
X189488871Y-97859567D01*
X189443384Y-97859527D01*
X189099608Y-98001572D01*
X188836359Y-98264362D01*
X188693713Y-98607890D01*
X188693389Y-98979856D01*
X188835434Y-99323632D01*
X189098224Y-99586881D01*
X189441752Y-99729527D01*
X189813718Y-99729851D01*
X190157494Y-99587806D01*
X190420743Y-99325016D01*
X190563389Y-98981488D01*
X190563430Y-98934612D01*
X193213952Y-96284090D01*
X193378699Y-96037528D01*
X193436551Y-95746689D01*
X193436551Y-84608736D01*
X193534434Y-84845632D01*
X193797224Y-85108881D01*
X194140752Y-85251527D01*
X194512718Y-85251851D01*
X194856494Y-85109806D01*
X195119743Y-84847016D01*
X195262389Y-84503488D01*
X195262456Y-84426947D01*
X195367519Y-84269708D01*
X195425371Y-83978869D01*
X195425371Y-72200048D01*
X195599366Y-72128155D01*
X196064205Y-71664126D01*
X196316084Y-71057534D01*
X196316657Y-70400726D01*
X196065837Y-69793694D01*
X195601808Y-69328855D01*
X194995216Y-69076976D01*
X194338408Y-69076403D01*
X193731376Y-69327223D01*
X193266537Y-69791252D01*
X193014658Y-70397844D01*
X193014085Y-71054652D01*
X193264905Y-71661684D01*
X193728934Y-72126523D01*
X193905371Y-72199786D01*
X193905371Y-83479459D01*
X193798608Y-83523572D01*
X193535359Y-83786362D01*
X193436551Y-84024317D01*
X193436551Y-80053152D01*
X193468743Y-80021016D01*
X193611389Y-79677488D01*
X193611713Y-79305522D01*
X193469668Y-78961746D01*
X193206878Y-78698497D01*
X192863350Y-78555851D01*
X192491384Y-78555527D01*
X192147608Y-78697572D01*
X191884359Y-78960362D01*
X191741713Y-79303890D01*
X191741389Y-79675856D01*
X191883434Y-80019632D01*
X191916551Y-80052807D01*
X191916551Y-81124586D01*
X191847350Y-81095851D01*
X191771810Y-81095785D01*
X191833389Y-80947488D01*
X191833713Y-80575522D01*
X191691668Y-80231746D01*
X191428878Y-79968497D01*
X191085350Y-79825851D01*
X190713384Y-79825527D01*
X190369608Y-79967572D01*
X190106359Y-80230362D01*
X189963713Y-80573890D01*
X189963389Y-80945856D01*
X190105434Y-81289632D01*
X190138551Y-81322807D01*
X190138551Y-94415887D01*
X187964650Y-96589788D01*
X187665384Y-96589527D01*
X187467551Y-96671270D01*
X187467551Y-84443689D01*
X187409699Y-84152850D01*
X187244952Y-83906288D01*
X185991673Y-82653009D01*
X185991713Y-82607522D01*
X185849668Y-82263746D01*
X185586878Y-82000497D01*
X185243350Y-81857851D01*
X184871384Y-81857527D01*
X184527608Y-81999572D01*
X184264359Y-82262362D01*
X184121713Y-82605890D01*
X184121389Y-82977856D01*
X184263434Y-83321632D01*
X184526224Y-83584881D01*
X184869752Y-83727527D01*
X184916628Y-83727568D01*
X185947551Y-84758491D01*
X185947551Y-94049690D01*
X185760384Y-94049527D01*
X185416608Y-94191572D01*
X185374207Y-94233899D01*
X185332878Y-94192497D01*
X184989350Y-94049851D01*
X184617384Y-94049527D01*
X184273608Y-94191572D01*
X184010359Y-94454362D01*
X183867713Y-94797890D01*
X183867672Y-94844766D01*
X180709150Y-98003288D01*
X180544403Y-98249850D01*
X180486551Y-98540689D01*
X180486551Y-101534226D01*
X180454359Y-101566362D01*
X180311713Y-101909890D01*
X180311389Y-102281856D01*
X178781551Y-102281856D01*
X178781551Y-87567325D01*
X179026930Y-87669215D01*
X179653424Y-87669762D01*
X180232438Y-87430518D01*
X180675823Y-86987906D01*
X180916077Y-86409310D01*
X180916624Y-85782816D01*
X180677380Y-85203802D01*
X180298655Y-84824416D01*
X180675823Y-84447906D01*
X180916077Y-83869310D01*
X180916624Y-83242816D01*
X180677380Y-82663802D01*
X180298655Y-82284416D01*
X180675823Y-81907906D01*
X180916077Y-81329310D01*
X180916624Y-80702816D01*
X180677380Y-80123802D01*
X180298655Y-79744416D01*
X180675823Y-79367906D01*
X180916077Y-78789310D01*
X180916624Y-78162816D01*
X180677380Y-77583802D01*
X180298655Y-77204416D01*
X180675823Y-76827906D01*
X180916077Y-76249310D01*
X180916624Y-75622816D01*
X180677380Y-75043802D01*
X180298655Y-74664416D01*
X180675823Y-74287906D01*
X180916077Y-73709310D01*
X180916624Y-73082816D01*
X180677380Y-72503802D01*
X180234768Y-72060417D01*
X179656172Y-71820163D01*
X179029678Y-71819616D01*
X178781551Y-71922140D01*
X178781551Y-71054652D01*
X182516265Y-71054652D01*
X182767085Y-71661684D01*
X183231114Y-72126523D01*
X183837706Y-72378402D01*
X184494514Y-72378975D01*
X185101546Y-72128155D01*
X185566385Y-71664126D01*
X185818264Y-71057534D01*
X185818266Y-71054652D01*
X186013845Y-71054652D01*
X186264665Y-71661684D01*
X186728694Y-72126523D01*
X187335286Y-72378402D01*
X187992094Y-72378975D01*
X188599126Y-72128155D01*
X189063965Y-71664126D01*
X189315844Y-71057534D01*
X189315882Y-71013439D01*
X189514251Y-71013439D01*
X189514251Y-71869999D01*
X189610924Y-72103388D01*
X189789553Y-72282016D01*
X190022942Y-72378689D01*
X190879501Y-72378689D01*
X191038251Y-72219939D01*
X191038251Y-70854689D01*
X191292251Y-70854689D01*
X191292251Y-72219939D01*
X191451001Y-72378689D01*
X192307560Y-72378689D01*
X192540949Y-72282016D01*
X192719578Y-72103388D01*
X192816251Y-71869999D01*
X192816251Y-71013439D01*
X192657501Y-70854689D01*
X191292251Y-70854689D01*
X191038251Y-70854689D01*
X189673001Y-70854689D01*
X189514251Y-71013439D01*
X189315882Y-71013439D01*
X189316417Y-70400726D01*
X189065597Y-69793694D01*
X188857645Y-69585379D01*
X189514251Y-69585379D01*
X189514251Y-70441939D01*
X189673001Y-70600689D01*
X191038251Y-70600689D01*
X191038251Y-69235439D01*
X191292251Y-69235439D01*
X191292251Y-70600689D01*
X192657501Y-70600689D01*
X192816251Y-70441939D01*
X192816251Y-69585379D01*
X192719578Y-69351990D01*
X192540949Y-69173362D01*
X192307560Y-69076689D01*
X191451001Y-69076689D01*
X191292251Y-69235439D01*
X191038251Y-69235439D01*
X190879501Y-69076689D01*
X190022942Y-69076689D01*
X189789553Y-69173362D01*
X189610924Y-69351990D01*
X189514251Y-69585379D01*
X188857645Y-69585379D01*
X188601568Y-69328855D01*
X187994976Y-69076976D01*
X187338168Y-69076403D01*
X186731136Y-69327223D01*
X186266297Y-69791252D01*
X186014418Y-70397844D01*
X186013845Y-71054652D01*
X185818266Y-71054652D01*
X185818837Y-70400726D01*
X185568017Y-69793694D01*
X185103988Y-69328855D01*
X184497396Y-69076976D01*
X183840588Y-69076403D01*
X183233556Y-69327223D01*
X182768717Y-69791252D01*
X182516838Y-70397844D01*
X182516265Y-71054652D01*
X178781551Y-71054652D01*
X178781551Y-65976689D01*
X200221551Y-65976689D01*
X200221551Y-71922053D01*
G36*
X223589551Y-71922053D02*
X223344172Y-71820163D01*
X222717678Y-71819616D01*
X222138664Y-72058860D01*
X221695279Y-72501472D01*
X221455025Y-73080068D01*
X221454478Y-73706562D01*
X221693722Y-74285576D01*
X222072447Y-74664962D01*
X221695279Y-75041472D01*
X221455025Y-75620068D01*
X221454478Y-76246562D01*
X221693722Y-76825576D01*
X222072447Y-77204962D01*
X221695279Y-77581472D01*
X221455025Y-78160068D01*
X221454478Y-78786562D01*
X221693722Y-79365576D01*
X222072447Y-79744962D01*
X221695279Y-80121472D01*
X221455025Y-80700068D01*
X221454478Y-81326562D01*
X221693722Y-81905576D01*
X222072447Y-82284962D01*
X221695279Y-82661472D01*
X221455025Y-83240068D01*
X221454478Y-83866562D01*
X221693722Y-84445576D01*
X222072447Y-84824962D01*
X221695279Y-85201472D01*
X221455025Y-85780068D01*
X221454478Y-86406562D01*
X221693722Y-86985576D01*
X222136334Y-87428961D01*
X222714930Y-87669215D01*
X223341424Y-87669762D01*
X223589551Y-87567238D01*
X223589551Y-113578689D01*
X214998953Y-113578689D01*
X215049494Y-113557806D01*
X215312743Y-113295016D01*
X215455389Y-112951488D01*
X215455713Y-112579522D01*
X215313668Y-112235746D01*
X215050878Y-111972497D01*
X214707350Y-111829851D01*
X214335384Y-111829527D01*
X213991608Y-111971572D01*
X213958433Y-112004689D01*
X207977353Y-112004689D01*
X204927353Y-108954689D01*
X205564353Y-108317689D01*
X207608088Y-108317689D01*
X207640224Y-108349881D01*
X207983752Y-108492527D01*
X208355718Y-108492851D01*
X208699494Y-108350806D01*
X208962743Y-108088016D01*
X209105389Y-107744488D01*
X209105713Y-107372522D01*
X208963668Y-107028746D01*
X208700878Y-106765497D01*
X208357350Y-106622851D01*
X207985384Y-106622527D01*
X207641608Y-106764572D01*
X207608433Y-106797689D01*
X205249551Y-106797689D01*
X204958711Y-106855541D01*
X204712150Y-107020288D01*
X203712871Y-108019567D01*
X203667384Y-108019527D01*
X203323608Y-108161572D01*
X203060359Y-108424362D01*
X202917713Y-108767890D01*
X202917389Y-109139856D01*
X203059434Y-109483632D01*
X203322224Y-109746881D01*
X203665752Y-109889527D01*
X203712628Y-109889568D01*
X207125150Y-113302090D01*
X207371712Y-113466837D01*
X207662551Y-113524689D01*
X213958088Y-113524689D01*
X213990224Y-113556881D01*
X214042743Y-113578689D01*
X202149551Y-113578689D01*
X202149551Y-102281856D01*
X203679389Y-102281856D01*
X203821434Y-102625632D01*
X204084224Y-102888881D01*
X204427752Y-103031527D01*
X204799718Y-103031851D01*
X205143494Y-102889806D01*
X205406743Y-102627016D01*
X205549389Y-102283488D01*
X205549713Y-101911522D01*
X205407668Y-101567746D01*
X205374551Y-101534571D01*
X205374551Y-98855491D01*
X205886551Y-98343491D01*
X205886551Y-101534226D01*
X205854359Y-101566362D01*
X205711713Y-101909890D01*
X205711389Y-102281856D01*
X205853434Y-102625632D01*
X206116224Y-102888881D01*
X206459752Y-103031527D01*
X206831718Y-103031851D01*
X207175494Y-102889806D01*
X207438743Y-102627016D01*
X207581389Y-102283488D01*
X207581713Y-101911522D01*
X207439668Y-101567746D01*
X207406551Y-101534571D01*
X207406551Y-97966491D01*
X209315551Y-96057491D01*
X209315551Y-105822953D01*
X209373403Y-106113792D01*
X209538150Y-106360354D01*
X210637886Y-107460090D01*
X210884448Y-107624837D01*
X211002847Y-107648388D01*
X211069224Y-107714881D01*
X211412752Y-107857527D01*
X211784718Y-107857851D01*
X212128494Y-107715806D01*
X212391743Y-107453016D01*
X212534389Y-107109488D01*
X212534713Y-106737522D01*
X212392668Y-106393746D01*
X212129878Y-106130497D01*
X211786350Y-105987851D01*
X211414384Y-105987527D01*
X211344006Y-106016606D01*
X210835551Y-105508151D01*
X210835551Y-103417022D01*
X210942224Y-103523881D01*
X211285752Y-103666527D01*
X211657718Y-103666851D01*
X212001494Y-103524806D01*
X212034669Y-103491689D01*
X213379551Y-103491689D01*
X213379551Y-106414689D01*
X213437403Y-106705528D01*
X213602150Y-106952090D01*
X215363429Y-108713369D01*
X215363389Y-108758856D01*
X215505434Y-109102632D01*
X215768224Y-109365881D01*
X216111752Y-109508527D01*
X216483718Y-109508851D01*
X216827494Y-109366806D01*
X217090743Y-109104016D01*
X217233389Y-108760488D01*
X217233713Y-108388522D01*
X217091668Y-108044746D01*
X216828878Y-107781497D01*
X216485350Y-107638851D01*
X216438474Y-107638810D01*
X214899551Y-106099887D01*
X214899551Y-103046491D01*
X216438231Y-101507811D01*
X216483718Y-101507851D01*
X216827494Y-101365806D01*
X217090743Y-101103016D01*
X217233389Y-100759488D01*
X217233713Y-100387522D01*
X217091668Y-100043746D01*
X216828878Y-99780497D01*
X216485350Y-99637851D01*
X216113384Y-99637527D01*
X215769608Y-99779572D01*
X215506359Y-100042362D01*
X215363713Y-100385890D01*
X215363672Y-100432766D01*
X213824749Y-101971689D01*
X212035014Y-101971689D01*
X212002878Y-101939497D01*
X211659350Y-101796851D01*
X211287384Y-101796527D01*
X210943608Y-101938572D01*
X210835551Y-102046441D01*
X210835551Y-98378057D01*
X211031752Y-98459527D01*
X211403718Y-98459851D01*
X211747494Y-98317806D01*
X211990913Y-98074811D01*
X212009952Y-98062090D01*
X212872892Y-97199150D01*
X213101224Y-97427881D01*
X213233593Y-97482845D01*
X212856871Y-97859567D01*
X212811384Y-97859527D01*
X212467608Y-98001572D01*
X212204359Y-98264362D01*
X212061713Y-98607890D01*
X212061389Y-98979856D01*
X212203434Y-99323632D01*
X212466224Y-99586881D01*
X212809752Y-99729527D01*
X213181718Y-99729851D01*
X213525494Y-99587806D01*
X213788743Y-99325016D01*
X213931389Y-98981488D01*
X213931430Y-98934612D01*
X216581952Y-96284090D01*
X216746699Y-96037528D01*
X216804551Y-95746689D01*
X216804551Y-84608736D01*
X216902434Y-84845632D01*
X217165224Y-85108881D01*
X217508752Y-85251527D01*
X217880718Y-85251851D01*
X218224494Y-85109806D01*
X218487743Y-84847016D01*
X218630389Y-84503488D01*
X218630456Y-84426947D01*
X218735519Y-84269708D01*
X218793371Y-83978869D01*
X218793371Y-72200048D01*
X218967366Y-72128155D01*
X219432205Y-71664126D01*
X219684084Y-71057534D01*
X219684657Y-70400726D01*
X219433837Y-69793694D01*
X218969808Y-69328855D01*
X218363216Y-69076976D01*
X217706408Y-69076403D01*
X217099376Y-69327223D01*
X216634537Y-69791252D01*
X216382658Y-70397844D01*
X216382085Y-71054652D01*
X216632905Y-71661684D01*
X217096934Y-72126523D01*
X217273371Y-72199786D01*
X217273371Y-83479459D01*
X217166608Y-83523572D01*
X216903359Y-83786362D01*
X216804551Y-84024317D01*
X216804551Y-80053152D01*
X216836743Y-80021016D01*
X216979389Y-79677488D01*
X216979713Y-79305522D01*
X216837668Y-78961746D01*
X216574878Y-78698497D01*
X216231350Y-78555851D01*
X215859384Y-78555527D01*
X215515608Y-78697572D01*
X215252359Y-78960362D01*
X215109713Y-79303890D01*
X215109389Y-79675856D01*
X215251434Y-80019632D01*
X215284551Y-80052807D01*
X215284551Y-81124586D01*
X215215350Y-81095851D01*
X215139810Y-81095785D01*
X215201389Y-80947488D01*
X215201713Y-80575522D01*
X215059668Y-80231746D01*
X214796878Y-79968497D01*
X214453350Y-79825851D01*
X214081384Y-79825527D01*
X213737608Y-79967572D01*
X213474359Y-80230362D01*
X213331713Y-80573890D01*
X213331389Y-80945856D01*
X213473434Y-81289632D01*
X213506551Y-81322807D01*
X213506551Y-94415887D01*
X211332650Y-96589788D01*
X211033384Y-96589527D01*
X210835551Y-96671270D01*
X210835551Y-84443689D01*
X210777699Y-84152850D01*
X210612952Y-83906288D01*
X209359673Y-82653009D01*
X209359713Y-82607522D01*
X209217668Y-82263746D01*
X208954878Y-82000497D01*
X208611350Y-81857851D01*
X208239384Y-81857527D01*
X207895608Y-81999572D01*
X207632359Y-82262362D01*
X207489713Y-82605890D01*
X207489389Y-82977856D01*
X207631434Y-83321632D01*
X207894224Y-83584881D01*
X208237752Y-83727527D01*
X208284628Y-83727568D01*
X209315551Y-84758491D01*
X209315551Y-94049690D01*
X209128384Y-94049527D01*
X208784608Y-94191572D01*
X208742207Y-94233899D01*
X208700878Y-94192497D01*
X208357350Y-94049851D01*
X207985384Y-94049527D01*
X207641608Y-94191572D01*
X207378359Y-94454362D01*
X207235713Y-94797890D01*
X207235672Y-94844766D01*
X204077150Y-98003288D01*
X203912403Y-98249850D01*
X203854551Y-98540689D01*
X203854551Y-101534226D01*
X203822359Y-101566362D01*
X203679713Y-101909890D01*
X203679389Y-102281856D01*
X202149551Y-102281856D01*
X202149551Y-87567325D01*
X202394930Y-87669215D01*
X203021424Y-87669762D01*
X203600438Y-87430518D01*
X204043823Y-86987906D01*
X204284077Y-86409310D01*
X204284624Y-85782816D01*
X204045380Y-85203802D01*
X203666655Y-84824416D01*
X204043823Y-84447906D01*
X204284077Y-83869310D01*
X204284624Y-83242816D01*
X204045380Y-82663802D01*
X203666655Y-82284416D01*
X204043823Y-81907906D01*
X204284077Y-81329310D01*
X204284624Y-80702816D01*
X204045380Y-80123802D01*
X203666655Y-79744416D01*
X204043823Y-79367906D01*
X204284077Y-78789310D01*
X204284624Y-78162816D01*
X204045380Y-77583802D01*
X203666655Y-77204416D01*
X204043823Y-76827906D01*
X204284077Y-76249310D01*
X204284624Y-75622816D01*
X204045380Y-75043802D01*
X203666655Y-74664416D01*
X204043823Y-74287906D01*
X204284077Y-73709310D01*
X204284624Y-73082816D01*
X204045380Y-72503802D01*
X203602768Y-72060417D01*
X203024172Y-71820163D01*
X202397678Y-71819616D01*
X202149551Y-71922140D01*
X202149551Y-71054652D01*
X205884265Y-71054652D01*
X206135085Y-71661684D01*
X206599114Y-72126523D01*
X207205706Y-72378402D01*
X207862514Y-72378975D01*
X208469546Y-72128155D01*
X208934385Y-71664126D01*
X209186264Y-71057534D01*
X209186266Y-71054652D01*
X209381845Y-71054652D01*
X209632665Y-71661684D01*
X210096694Y-72126523D01*
X210703286Y-72378402D01*
X211360094Y-72378975D01*
X211967126Y-72128155D01*
X212431965Y-71664126D01*
X212683844Y-71057534D01*
X212683882Y-71013439D01*
X212882251Y-71013439D01*
X212882251Y-71869999D01*
X212978924Y-72103388D01*
X213157553Y-72282016D01*
X213390942Y-72378689D01*
X214247501Y-72378689D01*
X214406251Y-72219939D01*
X214406251Y-70854689D01*
X214660251Y-70854689D01*
X214660251Y-72219939D01*
X214819001Y-72378689D01*
X215675560Y-72378689D01*
X215908949Y-72282016D01*
X216087578Y-72103388D01*
X216184251Y-71869999D01*
X216184251Y-71013439D01*
X216025501Y-70854689D01*
X214660251Y-70854689D01*
X214406251Y-70854689D01*
X213041001Y-70854689D01*
X212882251Y-71013439D01*
X212683882Y-71013439D01*
X212684417Y-70400726D01*
X212433597Y-69793694D01*
X212225645Y-69585379D01*
X212882251Y-69585379D01*
X212882251Y-70441939D01*
X213041001Y-70600689D01*
X214406251Y-70600689D01*
X214406251Y-69235439D01*
X214660251Y-69235439D01*
X214660251Y-70600689D01*
X216025501Y-70600689D01*
X216184251Y-70441939D01*
X216184251Y-69585379D01*
X216087578Y-69351990D01*
X215908949Y-69173362D01*
X215675560Y-69076689D01*
X214819001Y-69076689D01*
X214660251Y-69235439D01*
X214406251Y-69235439D01*
X214247501Y-69076689D01*
X213390942Y-69076689D01*
X213157553Y-69173362D01*
X212978924Y-69351990D01*
X212882251Y-69585379D01*
X212225645Y-69585379D01*
X211969568Y-69328855D01*
X211362976Y-69076976D01*
X210706168Y-69076403D01*
X210099136Y-69327223D01*
X209634297Y-69791252D01*
X209382418Y-70397844D01*
X209381845Y-71054652D01*
X209186266Y-71054652D01*
X209186837Y-70400726D01*
X208936017Y-69793694D01*
X208471988Y-69328855D01*
X207865396Y-69076976D01*
X207208588Y-69076403D01*
X206601556Y-69327223D01*
X206136717Y-69791252D01*
X205884838Y-70397844D01*
X205884265Y-71054652D01*
X202149551Y-71054652D01*
X202149551Y-65976689D01*
X223589551Y-65976689D01*
X223589551Y-71922053D01*
X223589551Y-71922053D01*
G37*
X223589551Y-71922053D02*
X223344172Y-71820163D01*
X222717678Y-71819616D01*
X222138664Y-72058860D01*
X221695279Y-72501472D01*
X221455025Y-73080068D01*
X221454478Y-73706562D01*
X221693722Y-74285576D01*
X222072447Y-74664962D01*
X221695279Y-75041472D01*
X221455025Y-75620068D01*
X221454478Y-76246562D01*
X221693722Y-76825576D01*
X222072447Y-77204962D01*
X221695279Y-77581472D01*
X221455025Y-78160068D01*
X221454478Y-78786562D01*
X221693722Y-79365576D01*
X222072447Y-79744962D01*
X221695279Y-80121472D01*
X221455025Y-80700068D01*
X221454478Y-81326562D01*
X221693722Y-81905576D01*
X222072447Y-82284962D01*
X221695279Y-82661472D01*
X221455025Y-83240068D01*
X221454478Y-83866562D01*
X221693722Y-84445576D01*
X222072447Y-84824962D01*
X221695279Y-85201472D01*
X221455025Y-85780068D01*
X221454478Y-86406562D01*
X221693722Y-86985576D01*
X222136334Y-87428961D01*
X222714930Y-87669215D01*
X223341424Y-87669762D01*
X223589551Y-87567238D01*
X223589551Y-113578689D01*
X214998953Y-113578689D01*
X215049494Y-113557806D01*
X215312743Y-113295016D01*
X215455389Y-112951488D01*
X215455713Y-112579522D01*
X215313668Y-112235746D01*
X215050878Y-111972497D01*
X214707350Y-111829851D01*
X214335384Y-111829527D01*
X213991608Y-111971572D01*
X213958433Y-112004689D01*
X207977353Y-112004689D01*
X204927353Y-108954689D01*
X205564353Y-108317689D01*
X207608088Y-108317689D01*
X207640224Y-108349881D01*
X207983752Y-108492527D01*
X208355718Y-108492851D01*
X208699494Y-108350806D01*
X208962743Y-108088016D01*
X209105389Y-107744488D01*
X209105713Y-107372522D01*
X208963668Y-107028746D01*
X208700878Y-106765497D01*
X208357350Y-106622851D01*
X207985384Y-106622527D01*
X207641608Y-106764572D01*
X207608433Y-106797689D01*
X205249551Y-106797689D01*
X204958711Y-106855541D01*
X204712150Y-107020288D01*
X203712871Y-108019567D01*
X203667384Y-108019527D01*
X203323608Y-108161572D01*
X203060359Y-108424362D01*
X202917713Y-108767890D01*
X202917389Y-109139856D01*
X203059434Y-109483632D01*
X203322224Y-109746881D01*
X203665752Y-109889527D01*
X203712628Y-109889568D01*
X207125150Y-113302090D01*
X207371712Y-113466837D01*
X207662551Y-113524689D01*
X213958088Y-113524689D01*
X213990224Y-113556881D01*
X214042743Y-113578689D01*
X202149551Y-113578689D01*
X202149551Y-102281856D01*
X203679389Y-102281856D01*
X203821434Y-102625632D01*
X204084224Y-102888881D01*
X204427752Y-103031527D01*
X204799718Y-103031851D01*
X205143494Y-102889806D01*
X205406743Y-102627016D01*
X205549389Y-102283488D01*
X205549713Y-101911522D01*
X205407668Y-101567746D01*
X205374551Y-101534571D01*
X205374551Y-98855491D01*
X205886551Y-98343491D01*
X205886551Y-101534226D01*
X205854359Y-101566362D01*
X205711713Y-101909890D01*
X205711389Y-102281856D01*
X205853434Y-102625632D01*
X206116224Y-102888881D01*
X206459752Y-103031527D01*
X206831718Y-103031851D01*
X207175494Y-102889806D01*
X207438743Y-102627016D01*
X207581389Y-102283488D01*
X207581713Y-101911522D01*
X207439668Y-101567746D01*
X207406551Y-101534571D01*
X207406551Y-97966491D01*
X209315551Y-96057491D01*
X209315551Y-105822953D01*
X209373403Y-106113792D01*
X209538150Y-106360354D01*
X210637886Y-107460090D01*
X210884448Y-107624837D01*
X211002847Y-107648388D01*
X211069224Y-107714881D01*
X211412752Y-107857527D01*
X211784718Y-107857851D01*
X212128494Y-107715806D01*
X212391743Y-107453016D01*
X212534389Y-107109488D01*
X212534713Y-106737522D01*
X212392668Y-106393746D01*
X212129878Y-106130497D01*
X211786350Y-105987851D01*
X211414384Y-105987527D01*
X211344006Y-106016606D01*
X210835551Y-105508151D01*
X210835551Y-103417022D01*
X210942224Y-103523881D01*
X211285752Y-103666527D01*
X211657718Y-103666851D01*
X212001494Y-103524806D01*
X212034669Y-103491689D01*
X213379551Y-103491689D01*
X213379551Y-106414689D01*
X213437403Y-106705528D01*
X213602150Y-106952090D01*
X215363429Y-108713369D01*
X215363389Y-108758856D01*
X215505434Y-109102632D01*
X215768224Y-109365881D01*
X216111752Y-109508527D01*
X216483718Y-109508851D01*
X216827494Y-109366806D01*
X217090743Y-109104016D01*
X217233389Y-108760488D01*
X217233713Y-108388522D01*
X217091668Y-108044746D01*
X216828878Y-107781497D01*
X216485350Y-107638851D01*
X216438474Y-107638810D01*
X214899551Y-106099887D01*
X214899551Y-103046491D01*
X216438231Y-101507811D01*
X216483718Y-101507851D01*
X216827494Y-101365806D01*
X217090743Y-101103016D01*
X217233389Y-100759488D01*
X217233713Y-100387522D01*
X217091668Y-100043746D01*
X216828878Y-99780497D01*
X216485350Y-99637851D01*
X216113384Y-99637527D01*
X215769608Y-99779572D01*
X215506359Y-100042362D01*
X215363713Y-100385890D01*
X215363672Y-100432766D01*
X213824749Y-101971689D01*
X212035014Y-101971689D01*
X212002878Y-101939497D01*
X211659350Y-101796851D01*
X211287384Y-101796527D01*
X210943608Y-101938572D01*
X210835551Y-102046441D01*
X210835551Y-98378057D01*
X211031752Y-98459527D01*
X211403718Y-98459851D01*
X211747494Y-98317806D01*
X211990913Y-98074811D01*
X212009952Y-98062090D01*
X212872892Y-97199150D01*
X213101224Y-97427881D01*
X213233593Y-97482845D01*
X212856871Y-97859567D01*
X212811384Y-97859527D01*
X212467608Y-98001572D01*
X212204359Y-98264362D01*
X212061713Y-98607890D01*
X212061389Y-98979856D01*
X212203434Y-99323632D01*
X212466224Y-99586881D01*
X212809752Y-99729527D01*
X213181718Y-99729851D01*
X213525494Y-99587806D01*
X213788743Y-99325016D01*
X213931389Y-98981488D01*
X213931430Y-98934612D01*
X216581952Y-96284090D01*
X216746699Y-96037528D01*
X216804551Y-95746689D01*
X216804551Y-84608736D01*
X216902434Y-84845632D01*
X217165224Y-85108881D01*
X217508752Y-85251527D01*
X217880718Y-85251851D01*
X218224494Y-85109806D01*
X218487743Y-84847016D01*
X218630389Y-84503488D01*
X218630456Y-84426947D01*
X218735519Y-84269708D01*
X218793371Y-83978869D01*
X218793371Y-72200048D01*
X218967366Y-72128155D01*
X219432205Y-71664126D01*
X219684084Y-71057534D01*
X219684657Y-70400726D01*
X219433837Y-69793694D01*
X218969808Y-69328855D01*
X218363216Y-69076976D01*
X217706408Y-69076403D01*
X217099376Y-69327223D01*
X216634537Y-69791252D01*
X216382658Y-70397844D01*
X216382085Y-71054652D01*
X216632905Y-71661684D01*
X217096934Y-72126523D01*
X217273371Y-72199786D01*
X217273371Y-83479459D01*
X217166608Y-83523572D01*
X216903359Y-83786362D01*
X216804551Y-84024317D01*
X216804551Y-80053152D01*
X216836743Y-80021016D01*
X216979389Y-79677488D01*
X216979713Y-79305522D01*
X216837668Y-78961746D01*
X216574878Y-78698497D01*
X216231350Y-78555851D01*
X215859384Y-78555527D01*
X215515608Y-78697572D01*
X215252359Y-78960362D01*
X215109713Y-79303890D01*
X215109389Y-79675856D01*
X215251434Y-80019632D01*
X215284551Y-80052807D01*
X215284551Y-81124586D01*
X215215350Y-81095851D01*
X215139810Y-81095785D01*
X215201389Y-80947488D01*
X215201713Y-80575522D01*
X215059668Y-80231746D01*
X214796878Y-79968497D01*
X214453350Y-79825851D01*
X214081384Y-79825527D01*
X213737608Y-79967572D01*
X213474359Y-80230362D01*
X213331713Y-80573890D01*
X213331389Y-80945856D01*
X213473434Y-81289632D01*
X213506551Y-81322807D01*
X213506551Y-94415887D01*
X211332650Y-96589788D01*
X211033384Y-96589527D01*
X210835551Y-96671270D01*
X210835551Y-84443689D01*
X210777699Y-84152850D01*
X210612952Y-83906288D01*
X209359673Y-82653009D01*
X209359713Y-82607522D01*
X209217668Y-82263746D01*
X208954878Y-82000497D01*
X208611350Y-81857851D01*
X208239384Y-81857527D01*
X207895608Y-81999572D01*
X207632359Y-82262362D01*
X207489713Y-82605890D01*
X207489389Y-82977856D01*
X207631434Y-83321632D01*
X207894224Y-83584881D01*
X208237752Y-83727527D01*
X208284628Y-83727568D01*
X209315551Y-84758491D01*
X209315551Y-94049690D01*
X209128384Y-94049527D01*
X208784608Y-94191572D01*
X208742207Y-94233899D01*
X208700878Y-94192497D01*
X208357350Y-94049851D01*
X207985384Y-94049527D01*
X207641608Y-94191572D01*
X207378359Y-94454362D01*
X207235713Y-94797890D01*
X207235672Y-94844766D01*
X204077150Y-98003288D01*
X203912403Y-98249850D01*
X203854551Y-98540689D01*
X203854551Y-101534226D01*
X203822359Y-101566362D01*
X203679713Y-101909890D01*
X203679389Y-102281856D01*
X202149551Y-102281856D01*
X202149551Y-87567325D01*
X202394930Y-87669215D01*
X203021424Y-87669762D01*
X203600438Y-87430518D01*
X204043823Y-86987906D01*
X204284077Y-86409310D01*
X204284624Y-85782816D01*
X204045380Y-85203802D01*
X203666655Y-84824416D01*
X204043823Y-84447906D01*
X204284077Y-83869310D01*
X204284624Y-83242816D01*
X204045380Y-82663802D01*
X203666655Y-82284416D01*
X204043823Y-81907906D01*
X204284077Y-81329310D01*
X204284624Y-80702816D01*
X204045380Y-80123802D01*
X203666655Y-79744416D01*
X204043823Y-79367906D01*
X204284077Y-78789310D01*
X204284624Y-78162816D01*
X204045380Y-77583802D01*
X203666655Y-77204416D01*
X204043823Y-76827906D01*
X204284077Y-76249310D01*
X204284624Y-75622816D01*
X204045380Y-75043802D01*
X203666655Y-74664416D01*
X204043823Y-74287906D01*
X204284077Y-73709310D01*
X204284624Y-73082816D01*
X204045380Y-72503802D01*
X203602768Y-72060417D01*
X203024172Y-71820163D01*
X202397678Y-71819616D01*
X202149551Y-71922140D01*
X202149551Y-71054652D01*
X205884265Y-71054652D01*
X206135085Y-71661684D01*
X206599114Y-72126523D01*
X207205706Y-72378402D01*
X207862514Y-72378975D01*
X208469546Y-72128155D01*
X208934385Y-71664126D01*
X209186264Y-71057534D01*
X209186266Y-71054652D01*
X209381845Y-71054652D01*
X209632665Y-71661684D01*
X210096694Y-72126523D01*
X210703286Y-72378402D01*
X211360094Y-72378975D01*
X211967126Y-72128155D01*
X212431965Y-71664126D01*
X212683844Y-71057534D01*
X212683882Y-71013439D01*
X212882251Y-71013439D01*
X212882251Y-71869999D01*
X212978924Y-72103388D01*
X213157553Y-72282016D01*
X213390942Y-72378689D01*
X214247501Y-72378689D01*
X214406251Y-72219939D01*
X214406251Y-70854689D01*
X214660251Y-70854689D01*
X214660251Y-72219939D01*
X214819001Y-72378689D01*
X215675560Y-72378689D01*
X215908949Y-72282016D01*
X216087578Y-72103388D01*
X216184251Y-71869999D01*
X216184251Y-71013439D01*
X216025501Y-70854689D01*
X214660251Y-70854689D01*
X214406251Y-70854689D01*
X213041001Y-70854689D01*
X212882251Y-71013439D01*
X212683882Y-71013439D01*
X212684417Y-70400726D01*
X212433597Y-69793694D01*
X212225645Y-69585379D01*
X212882251Y-69585379D01*
X212882251Y-70441939D01*
X213041001Y-70600689D01*
X214406251Y-70600689D01*
X214406251Y-69235439D01*
X214660251Y-69235439D01*
X214660251Y-70600689D01*
X216025501Y-70600689D01*
X216184251Y-70441939D01*
X216184251Y-69585379D01*
X216087578Y-69351990D01*
X215908949Y-69173362D01*
X215675560Y-69076689D01*
X214819001Y-69076689D01*
X214660251Y-69235439D01*
X214406251Y-69235439D01*
X214247501Y-69076689D01*
X213390942Y-69076689D01*
X213157553Y-69173362D01*
X212978924Y-69351990D01*
X212882251Y-69585379D01*
X212225645Y-69585379D01*
X211969568Y-69328855D01*
X211362976Y-69076976D01*
X210706168Y-69076403D01*
X210099136Y-69327223D01*
X209634297Y-69791252D01*
X209382418Y-70397844D01*
X209381845Y-71054652D01*
X209186266Y-71054652D01*
X209186837Y-70400726D01*
X208936017Y-69793694D01*
X208471988Y-69328855D01*
X207865396Y-69076976D01*
X207208588Y-69076403D01*
X206601556Y-69327223D01*
X206136717Y-69791252D01*
X205884838Y-70397844D01*
X205884265Y-71054652D01*
X202149551Y-71054652D01*
X202149551Y-65976689D01*
X223589551Y-65976689D01*
X223589551Y-71922053D01*
G36*
X246957551Y-71922053D02*
X246712172Y-71820163D01*
X246085678Y-71819616D01*
X245506664Y-72058860D01*
X245063279Y-72501472D01*
X244823025Y-73080068D01*
X244822478Y-73706562D01*
X245061722Y-74285576D01*
X245440447Y-74664962D01*
X245063279Y-75041472D01*
X244823025Y-75620068D01*
X244822478Y-76246562D01*
X245061722Y-76825576D01*
X245440447Y-77204962D01*
X245063279Y-77581472D01*
X244823025Y-78160068D01*
X244822478Y-78786562D01*
X245061722Y-79365576D01*
X245440447Y-79744962D01*
X245063279Y-80121472D01*
X244823025Y-80700068D01*
X244822478Y-81326562D01*
X245061722Y-81905576D01*
X245440447Y-82284962D01*
X245063279Y-82661472D01*
X244823025Y-83240068D01*
X244822478Y-83866562D01*
X245061722Y-84445576D01*
X245440447Y-84824962D01*
X245063279Y-85201472D01*
X244823025Y-85780068D01*
X244822478Y-86406562D01*
X245061722Y-86985576D01*
X245504334Y-87428961D01*
X246082930Y-87669215D01*
X246709424Y-87669762D01*
X246957551Y-87567238D01*
X246957551Y-113578689D01*
X238366953Y-113578689D01*
X238417494Y-113557806D01*
X238680743Y-113295016D01*
X238823389Y-112951488D01*
X238823713Y-112579522D01*
X238681668Y-112235746D01*
X238418878Y-111972497D01*
X238075350Y-111829851D01*
X237703384Y-111829527D01*
X237359608Y-111971572D01*
X237326433Y-112004689D01*
X231345353Y-112004689D01*
X228295353Y-108954689D01*
X228932353Y-108317689D01*
X230976088Y-108317689D01*
X231008224Y-108349881D01*
X231351752Y-108492527D01*
X231723718Y-108492851D01*
X232067494Y-108350806D01*
X232330743Y-108088016D01*
X232473389Y-107744488D01*
X232473713Y-107372522D01*
X232331668Y-107028746D01*
X232068878Y-106765497D01*
X231725350Y-106622851D01*
X231353384Y-106622527D01*
X231009608Y-106764572D01*
X230976433Y-106797689D01*
X228617551Y-106797689D01*
X228326711Y-106855541D01*
X228080150Y-107020288D01*
X227080871Y-108019567D01*
X227035384Y-108019527D01*
X226691608Y-108161572D01*
X226428359Y-108424362D01*
X226285713Y-108767890D01*
X226285389Y-109139856D01*
X226427434Y-109483632D01*
X226690224Y-109746881D01*
X227033752Y-109889527D01*
X227080628Y-109889568D01*
X230493150Y-113302090D01*
X230739712Y-113466837D01*
X231030551Y-113524689D01*
X237326088Y-113524689D01*
X237358224Y-113556881D01*
X237410743Y-113578689D01*
X225517551Y-113578689D01*
X225517551Y-102281856D01*
X227047389Y-102281856D01*
X227189434Y-102625632D01*
X227452224Y-102888881D01*
X227795752Y-103031527D01*
X228167718Y-103031851D01*
X228511494Y-102889806D01*
X228774743Y-102627016D01*
X228917389Y-102283488D01*
X228917713Y-101911522D01*
X228775668Y-101567746D01*
X228742551Y-101534571D01*
X228742551Y-98855491D01*
X229254551Y-98343491D01*
X229254551Y-101534226D01*
X229222359Y-101566362D01*
X229079713Y-101909890D01*
X229079389Y-102281856D01*
X229221434Y-102625632D01*
X229484224Y-102888881D01*
X229827752Y-103031527D01*
X230199718Y-103031851D01*
X230543494Y-102889806D01*
X230806743Y-102627016D01*
X230949389Y-102283488D01*
X230949713Y-101911522D01*
X230807668Y-101567746D01*
X230774551Y-101534571D01*
X230774551Y-97966491D01*
X232683551Y-96057491D01*
X232683551Y-105822953D01*
X232741403Y-106113792D01*
X232906150Y-106360354D01*
X234005886Y-107460090D01*
X234252448Y-107624837D01*
X234370847Y-107648388D01*
X234437224Y-107714881D01*
X234780752Y-107857527D01*
X235152718Y-107857851D01*
X235496494Y-107715806D01*
X235759743Y-107453016D01*
X235902389Y-107109488D01*
X235902713Y-106737522D01*
X235760668Y-106393746D01*
X235497878Y-106130497D01*
X235154350Y-105987851D01*
X234782384Y-105987527D01*
X234712006Y-106016606D01*
X234203551Y-105508151D01*
X234203551Y-103417022D01*
X234310224Y-103523881D01*
X234653752Y-103666527D01*
X235025718Y-103666851D01*
X235369494Y-103524806D01*
X235402669Y-103491689D01*
X236747551Y-103491689D01*
X236747551Y-106414689D01*
X236805403Y-106705528D01*
X236970150Y-106952090D01*
X238731429Y-108713369D01*
X238731389Y-108758856D01*
X238873434Y-109102632D01*
X239136224Y-109365881D01*
X239479752Y-109508527D01*
X239851718Y-109508851D01*
X240195494Y-109366806D01*
X240458743Y-109104016D01*
X240601389Y-108760488D01*
X240601713Y-108388522D01*
X240459668Y-108044746D01*
X240196878Y-107781497D01*
X239853350Y-107638851D01*
X239806474Y-107638810D01*
X238267551Y-106099887D01*
X238267551Y-103046491D01*
X239806231Y-101507811D01*
X239851718Y-101507851D01*
X240195494Y-101365806D01*
X240458743Y-101103016D01*
X240601389Y-100759488D01*
X240601713Y-100387522D01*
X240459668Y-100043746D01*
X240196878Y-99780497D01*
X239853350Y-99637851D01*
X239481384Y-99637527D01*
X239137608Y-99779572D01*
X238874359Y-100042362D01*
X238731713Y-100385890D01*
X238731672Y-100432766D01*
X237192749Y-101971689D01*
X235403014Y-101971689D01*
X235370878Y-101939497D01*
X235027350Y-101796851D01*
X234655384Y-101796527D01*
X234311608Y-101938572D01*
X234203551Y-102046441D01*
X234203551Y-98378057D01*
X234399752Y-98459527D01*
X234771718Y-98459851D01*
X235115494Y-98317806D01*
X235358913Y-98074811D01*
X235377952Y-98062090D01*
X236240892Y-97199150D01*
X236469224Y-97427881D01*
X236601593Y-97482845D01*
X236224871Y-97859567D01*
X236179384Y-97859527D01*
X235835608Y-98001572D01*
X235572359Y-98264362D01*
X235429713Y-98607890D01*
X235429389Y-98979856D01*
X235571434Y-99323632D01*
X235834224Y-99586881D01*
X236177752Y-99729527D01*
X236549718Y-99729851D01*
X236893494Y-99587806D01*
X237156743Y-99325016D01*
X237299389Y-98981488D01*
X237299430Y-98934612D01*
X239949952Y-96284090D01*
X240114699Y-96037528D01*
X240172551Y-95746689D01*
X240172551Y-84608736D01*
X240270434Y-84845632D01*
X240533224Y-85108881D01*
X240876752Y-85251527D01*
X241248718Y-85251851D01*
X241592494Y-85109806D01*
X241855743Y-84847016D01*
X241998389Y-84503488D01*
X241998456Y-84426947D01*
X242103519Y-84269708D01*
X242161371Y-83978869D01*
X242161371Y-72200048D01*
X242335366Y-72128155D01*
X242800205Y-71664126D01*
X243052084Y-71057534D01*
X243052657Y-70400726D01*
X242801837Y-69793694D01*
X242337808Y-69328855D01*
X241731216Y-69076976D01*
X241074408Y-69076403D01*
X240467376Y-69327223D01*
X240002537Y-69791252D01*
X239750658Y-70397844D01*
X239750085Y-71054652D01*
X240000905Y-71661684D01*
X240464934Y-72126523D01*
X240641371Y-72199786D01*
X240641371Y-83479459D01*
X240534608Y-83523572D01*
X240271359Y-83786362D01*
X240172551Y-84024317D01*
X240172551Y-80053152D01*
X240204743Y-80021016D01*
X240347389Y-79677488D01*
X240347713Y-79305522D01*
X240205668Y-78961746D01*
X239942878Y-78698497D01*
X239599350Y-78555851D01*
X239227384Y-78555527D01*
X238883608Y-78697572D01*
X238620359Y-78960362D01*
X238477713Y-79303890D01*
X238477389Y-79675856D01*
X238619434Y-80019632D01*
X238652551Y-80052807D01*
X238652551Y-81124586D01*
X238583350Y-81095851D01*
X238507810Y-81095785D01*
X238569389Y-80947488D01*
X238569713Y-80575522D01*
X238427668Y-80231746D01*
X238164878Y-79968497D01*
X237821350Y-79825851D01*
X237449384Y-79825527D01*
X237105608Y-79967572D01*
X236842359Y-80230362D01*
X236699713Y-80573890D01*
X236699389Y-80945856D01*
X236841434Y-81289632D01*
X236874551Y-81322807D01*
X236874551Y-94415887D01*
X234700650Y-96589788D01*
X234401384Y-96589527D01*
X234203551Y-96671270D01*
X234203551Y-84443689D01*
X234145699Y-84152850D01*
X233980952Y-83906288D01*
X232727673Y-82653009D01*
X232727713Y-82607522D01*
X232585668Y-82263746D01*
X232322878Y-82000497D01*
X231979350Y-81857851D01*
X231607384Y-81857527D01*
X231263608Y-81999572D01*
X231000359Y-82262362D01*
X230857713Y-82605890D01*
X230857389Y-82977856D01*
X230999434Y-83321632D01*
X231262224Y-83584881D01*
X231605752Y-83727527D01*
X231652628Y-83727568D01*
X232683551Y-84758491D01*
X232683551Y-94049690D01*
X232496384Y-94049527D01*
X232152608Y-94191572D01*
X232110207Y-94233899D01*
X232068878Y-94192497D01*
X231725350Y-94049851D01*
X231353384Y-94049527D01*
X231009608Y-94191572D01*
X230746359Y-94454362D01*
X230603713Y-94797890D01*
X230603672Y-94844766D01*
X227445150Y-98003288D01*
X227280403Y-98249850D01*
X227222551Y-98540689D01*
X227222551Y-101534226D01*
X227190359Y-101566362D01*
X227047713Y-101909890D01*
X227047389Y-102281856D01*
X225517551Y-102281856D01*
X225517551Y-87567325D01*
X225762930Y-87669215D01*
X226389424Y-87669762D01*
X226968438Y-87430518D01*
X227411823Y-86987906D01*
X227652077Y-86409310D01*
X227652624Y-85782816D01*
X227413380Y-85203802D01*
X227034655Y-84824416D01*
X227411823Y-84447906D01*
X227652077Y-83869310D01*
X227652624Y-83242816D01*
X227413380Y-82663802D01*
X227034655Y-82284416D01*
X227411823Y-81907906D01*
X227652077Y-81329310D01*
X227652624Y-80702816D01*
X227413380Y-80123802D01*
X227034655Y-79744416D01*
X227411823Y-79367906D01*
X227652077Y-78789310D01*
X227652624Y-78162816D01*
X227413380Y-77583802D01*
X227034655Y-77204416D01*
X227411823Y-76827906D01*
X227652077Y-76249310D01*
X227652624Y-75622816D01*
X227413380Y-75043802D01*
X227034655Y-74664416D01*
X227411823Y-74287906D01*
X227652077Y-73709310D01*
X227652624Y-73082816D01*
X227413380Y-72503802D01*
X226970768Y-72060417D01*
X226392172Y-71820163D01*
X225765678Y-71819616D01*
X225517551Y-71922140D01*
X225517551Y-71054652D01*
X229252265Y-71054652D01*
X229503085Y-71661684D01*
X229967114Y-72126523D01*
X230573706Y-72378402D01*
X231230514Y-72378975D01*
X231837546Y-72128155D01*
X232302385Y-71664126D01*
X232554264Y-71057534D01*
X232554266Y-71054652D01*
X232749845Y-71054652D01*
X233000665Y-71661684D01*
X233464694Y-72126523D01*
X234071286Y-72378402D01*
X234728094Y-72378975D01*
X235335126Y-72128155D01*
X235799965Y-71664126D01*
X236051844Y-71057534D01*
X236051882Y-71013439D01*
X236250251Y-71013439D01*
X236250251Y-71869999D01*
X236346924Y-72103388D01*
X236525553Y-72282016D01*
X236758942Y-72378689D01*
X237615501Y-72378689D01*
X237774251Y-72219939D01*
X237774251Y-70854689D01*
X238028251Y-70854689D01*
X238028251Y-72219939D01*
X238187001Y-72378689D01*
X239043560Y-72378689D01*
X239276949Y-72282016D01*
X239455578Y-72103388D01*
X239552251Y-71869999D01*
X239552251Y-71013439D01*
X239393501Y-70854689D01*
X238028251Y-70854689D01*
X237774251Y-70854689D01*
X236409001Y-70854689D01*
X236250251Y-71013439D01*
X236051882Y-71013439D01*
X236052417Y-70400726D01*
X235801597Y-69793694D01*
X235593645Y-69585379D01*
X236250251Y-69585379D01*
X236250251Y-70441939D01*
X236409001Y-70600689D01*
X237774251Y-70600689D01*
X237774251Y-69235439D01*
X238028251Y-69235439D01*
X238028251Y-70600689D01*
X239393501Y-70600689D01*
X239552251Y-70441939D01*
X239552251Y-69585379D01*
X239455578Y-69351990D01*
X239276949Y-69173362D01*
X239043560Y-69076689D01*
X238187001Y-69076689D01*
X238028251Y-69235439D01*
X237774251Y-69235439D01*
X237615501Y-69076689D01*
X236758942Y-69076689D01*
X236525553Y-69173362D01*
X236346924Y-69351990D01*
X236250251Y-69585379D01*
X235593645Y-69585379D01*
X235337568Y-69328855D01*
X234730976Y-69076976D01*
X234074168Y-69076403D01*
X233467136Y-69327223D01*
X233002297Y-69791252D01*
X232750418Y-70397844D01*
X232749845Y-71054652D01*
X232554266Y-71054652D01*
X232554837Y-70400726D01*
X232304017Y-69793694D01*
X231839988Y-69328855D01*
X231233396Y-69076976D01*
X230576588Y-69076403D01*
X229969556Y-69327223D01*
X229504717Y-69791252D01*
X229252838Y-70397844D01*
X229252265Y-71054652D01*
X225517551Y-71054652D01*
X225517551Y-65976689D01*
X246957551Y-65976689D01*
X246957551Y-71922053D01*
X246957551Y-71922053D01*
G37*
X246957551Y-71922053D02*
X246712172Y-71820163D01*
X246085678Y-71819616D01*
X245506664Y-72058860D01*
X245063279Y-72501472D01*
X244823025Y-73080068D01*
X244822478Y-73706562D01*
X245061722Y-74285576D01*
X245440447Y-74664962D01*
X245063279Y-75041472D01*
X244823025Y-75620068D01*
X244822478Y-76246562D01*
X245061722Y-76825576D01*
X245440447Y-77204962D01*
X245063279Y-77581472D01*
X244823025Y-78160068D01*
X244822478Y-78786562D01*
X245061722Y-79365576D01*
X245440447Y-79744962D01*
X245063279Y-80121472D01*
X244823025Y-80700068D01*
X244822478Y-81326562D01*
X245061722Y-81905576D01*
X245440447Y-82284962D01*
X245063279Y-82661472D01*
X244823025Y-83240068D01*
X244822478Y-83866562D01*
X245061722Y-84445576D01*
X245440447Y-84824962D01*
X245063279Y-85201472D01*
X244823025Y-85780068D01*
X244822478Y-86406562D01*
X245061722Y-86985576D01*
X245504334Y-87428961D01*
X246082930Y-87669215D01*
X246709424Y-87669762D01*
X246957551Y-87567238D01*
X246957551Y-113578689D01*
X238366953Y-113578689D01*
X238417494Y-113557806D01*
X238680743Y-113295016D01*
X238823389Y-112951488D01*
X238823713Y-112579522D01*
X238681668Y-112235746D01*
X238418878Y-111972497D01*
X238075350Y-111829851D01*
X237703384Y-111829527D01*
X237359608Y-111971572D01*
X237326433Y-112004689D01*
X231345353Y-112004689D01*
X228295353Y-108954689D01*
X228932353Y-108317689D01*
X230976088Y-108317689D01*
X231008224Y-108349881D01*
X231351752Y-108492527D01*
X231723718Y-108492851D01*
X232067494Y-108350806D01*
X232330743Y-108088016D01*
X232473389Y-107744488D01*
X232473713Y-107372522D01*
X232331668Y-107028746D01*
X232068878Y-106765497D01*
X231725350Y-106622851D01*
X231353384Y-106622527D01*
X231009608Y-106764572D01*
X230976433Y-106797689D01*
X228617551Y-106797689D01*
X228326711Y-106855541D01*
X228080150Y-107020288D01*
X227080871Y-108019567D01*
X227035384Y-108019527D01*
X226691608Y-108161572D01*
X226428359Y-108424362D01*
X226285713Y-108767890D01*
X226285389Y-109139856D01*
X226427434Y-109483632D01*
X226690224Y-109746881D01*
X227033752Y-109889527D01*
X227080628Y-109889568D01*
X230493150Y-113302090D01*
X230739712Y-113466837D01*
X231030551Y-113524689D01*
X237326088Y-113524689D01*
X237358224Y-113556881D01*
X237410743Y-113578689D01*
X225517551Y-113578689D01*
X225517551Y-102281856D01*
X227047389Y-102281856D01*
X227189434Y-102625632D01*
X227452224Y-102888881D01*
X227795752Y-103031527D01*
X228167718Y-103031851D01*
X228511494Y-102889806D01*
X228774743Y-102627016D01*
X228917389Y-102283488D01*
X228917713Y-101911522D01*
X228775668Y-101567746D01*
X228742551Y-101534571D01*
X228742551Y-98855491D01*
X229254551Y-98343491D01*
X229254551Y-101534226D01*
X229222359Y-101566362D01*
X229079713Y-101909890D01*
X229079389Y-102281856D01*
X229221434Y-102625632D01*
X229484224Y-102888881D01*
X229827752Y-103031527D01*
X230199718Y-103031851D01*
X230543494Y-102889806D01*
X230806743Y-102627016D01*
X230949389Y-102283488D01*
X230949713Y-101911522D01*
X230807668Y-101567746D01*
X230774551Y-101534571D01*
X230774551Y-97966491D01*
X232683551Y-96057491D01*
X232683551Y-105822953D01*
X232741403Y-106113792D01*
X232906150Y-106360354D01*
X234005886Y-107460090D01*
X234252448Y-107624837D01*
X234370847Y-107648388D01*
X234437224Y-107714881D01*
X234780752Y-107857527D01*
X235152718Y-107857851D01*
X235496494Y-107715806D01*
X235759743Y-107453016D01*
X235902389Y-107109488D01*
X235902713Y-106737522D01*
X235760668Y-106393746D01*
X235497878Y-106130497D01*
X235154350Y-105987851D01*
X234782384Y-105987527D01*
X234712006Y-106016606D01*
X234203551Y-105508151D01*
X234203551Y-103417022D01*
X234310224Y-103523881D01*
X234653752Y-103666527D01*
X235025718Y-103666851D01*
X235369494Y-103524806D01*
X235402669Y-103491689D01*
X236747551Y-103491689D01*
X236747551Y-106414689D01*
X236805403Y-106705528D01*
X236970150Y-106952090D01*
X238731429Y-108713369D01*
X238731389Y-108758856D01*
X238873434Y-109102632D01*
X239136224Y-109365881D01*
X239479752Y-109508527D01*
X239851718Y-109508851D01*
X240195494Y-109366806D01*
X240458743Y-109104016D01*
X240601389Y-108760488D01*
X240601713Y-108388522D01*
X240459668Y-108044746D01*
X240196878Y-107781497D01*
X239853350Y-107638851D01*
X239806474Y-107638810D01*
X238267551Y-106099887D01*
X238267551Y-103046491D01*
X239806231Y-101507811D01*
X239851718Y-101507851D01*
X240195494Y-101365806D01*
X240458743Y-101103016D01*
X240601389Y-100759488D01*
X240601713Y-100387522D01*
X240459668Y-100043746D01*
X240196878Y-99780497D01*
X239853350Y-99637851D01*
X239481384Y-99637527D01*
X239137608Y-99779572D01*
X238874359Y-100042362D01*
X238731713Y-100385890D01*
X238731672Y-100432766D01*
X237192749Y-101971689D01*
X235403014Y-101971689D01*
X235370878Y-101939497D01*
X235027350Y-101796851D01*
X234655384Y-101796527D01*
X234311608Y-101938572D01*
X234203551Y-102046441D01*
X234203551Y-98378057D01*
X234399752Y-98459527D01*
X234771718Y-98459851D01*
X235115494Y-98317806D01*
X235358913Y-98074811D01*
X235377952Y-98062090D01*
X236240892Y-97199150D01*
X236469224Y-97427881D01*
X236601593Y-97482845D01*
X236224871Y-97859567D01*
X236179384Y-97859527D01*
X235835608Y-98001572D01*
X235572359Y-98264362D01*
X235429713Y-98607890D01*
X235429389Y-98979856D01*
X235571434Y-99323632D01*
X235834224Y-99586881D01*
X236177752Y-99729527D01*
X236549718Y-99729851D01*
X236893494Y-99587806D01*
X237156743Y-99325016D01*
X237299389Y-98981488D01*
X237299430Y-98934612D01*
X239949952Y-96284090D01*
X240114699Y-96037528D01*
X240172551Y-95746689D01*
X240172551Y-84608736D01*
X240270434Y-84845632D01*
X240533224Y-85108881D01*
X240876752Y-85251527D01*
X241248718Y-85251851D01*
X241592494Y-85109806D01*
X241855743Y-84847016D01*
X241998389Y-84503488D01*
X241998456Y-84426947D01*
X242103519Y-84269708D01*
X242161371Y-83978869D01*
X242161371Y-72200048D01*
X242335366Y-72128155D01*
X242800205Y-71664126D01*
X243052084Y-71057534D01*
X243052657Y-70400726D01*
X242801837Y-69793694D01*
X242337808Y-69328855D01*
X241731216Y-69076976D01*
X241074408Y-69076403D01*
X240467376Y-69327223D01*
X240002537Y-69791252D01*
X239750658Y-70397844D01*
X239750085Y-71054652D01*
X240000905Y-71661684D01*
X240464934Y-72126523D01*
X240641371Y-72199786D01*
X240641371Y-83479459D01*
X240534608Y-83523572D01*
X240271359Y-83786362D01*
X240172551Y-84024317D01*
X240172551Y-80053152D01*
X240204743Y-80021016D01*
X240347389Y-79677488D01*
X240347713Y-79305522D01*
X240205668Y-78961746D01*
X239942878Y-78698497D01*
X239599350Y-78555851D01*
X239227384Y-78555527D01*
X238883608Y-78697572D01*
X238620359Y-78960362D01*
X238477713Y-79303890D01*
X238477389Y-79675856D01*
X238619434Y-80019632D01*
X238652551Y-80052807D01*
X238652551Y-81124586D01*
X238583350Y-81095851D01*
X238507810Y-81095785D01*
X238569389Y-80947488D01*
X238569713Y-80575522D01*
X238427668Y-80231746D01*
X238164878Y-79968497D01*
X237821350Y-79825851D01*
X237449384Y-79825527D01*
X237105608Y-79967572D01*
X236842359Y-80230362D01*
X236699713Y-80573890D01*
X236699389Y-80945856D01*
X236841434Y-81289632D01*
X236874551Y-81322807D01*
X236874551Y-94415887D01*
X234700650Y-96589788D01*
X234401384Y-96589527D01*
X234203551Y-96671270D01*
X234203551Y-84443689D01*
X234145699Y-84152850D01*
X233980952Y-83906288D01*
X232727673Y-82653009D01*
X232727713Y-82607522D01*
X232585668Y-82263746D01*
X232322878Y-82000497D01*
X231979350Y-81857851D01*
X231607384Y-81857527D01*
X231263608Y-81999572D01*
X231000359Y-82262362D01*
X230857713Y-82605890D01*
X230857389Y-82977856D01*
X230999434Y-83321632D01*
X231262224Y-83584881D01*
X231605752Y-83727527D01*
X231652628Y-83727568D01*
X232683551Y-84758491D01*
X232683551Y-94049690D01*
X232496384Y-94049527D01*
X232152608Y-94191572D01*
X232110207Y-94233899D01*
X232068878Y-94192497D01*
X231725350Y-94049851D01*
X231353384Y-94049527D01*
X231009608Y-94191572D01*
X230746359Y-94454362D01*
X230603713Y-94797890D01*
X230603672Y-94844766D01*
X227445150Y-98003288D01*
X227280403Y-98249850D01*
X227222551Y-98540689D01*
X227222551Y-101534226D01*
X227190359Y-101566362D01*
X227047713Y-101909890D01*
X227047389Y-102281856D01*
X225517551Y-102281856D01*
X225517551Y-87567325D01*
X225762930Y-87669215D01*
X226389424Y-87669762D01*
X226968438Y-87430518D01*
X227411823Y-86987906D01*
X227652077Y-86409310D01*
X227652624Y-85782816D01*
X227413380Y-85203802D01*
X227034655Y-84824416D01*
X227411823Y-84447906D01*
X227652077Y-83869310D01*
X227652624Y-83242816D01*
X227413380Y-82663802D01*
X227034655Y-82284416D01*
X227411823Y-81907906D01*
X227652077Y-81329310D01*
X227652624Y-80702816D01*
X227413380Y-80123802D01*
X227034655Y-79744416D01*
X227411823Y-79367906D01*
X227652077Y-78789310D01*
X227652624Y-78162816D01*
X227413380Y-77583802D01*
X227034655Y-77204416D01*
X227411823Y-76827906D01*
X227652077Y-76249310D01*
X227652624Y-75622816D01*
X227413380Y-75043802D01*
X227034655Y-74664416D01*
X227411823Y-74287906D01*
X227652077Y-73709310D01*
X227652624Y-73082816D01*
X227413380Y-72503802D01*
X226970768Y-72060417D01*
X226392172Y-71820163D01*
X225765678Y-71819616D01*
X225517551Y-71922140D01*
X225517551Y-71054652D01*
X229252265Y-71054652D01*
X229503085Y-71661684D01*
X229967114Y-72126523D01*
X230573706Y-72378402D01*
X231230514Y-72378975D01*
X231837546Y-72128155D01*
X232302385Y-71664126D01*
X232554264Y-71057534D01*
X232554266Y-71054652D01*
X232749845Y-71054652D01*
X233000665Y-71661684D01*
X233464694Y-72126523D01*
X234071286Y-72378402D01*
X234728094Y-72378975D01*
X235335126Y-72128155D01*
X235799965Y-71664126D01*
X236051844Y-71057534D01*
X236051882Y-71013439D01*
X236250251Y-71013439D01*
X236250251Y-71869999D01*
X236346924Y-72103388D01*
X236525553Y-72282016D01*
X236758942Y-72378689D01*
X237615501Y-72378689D01*
X237774251Y-72219939D01*
X237774251Y-70854689D01*
X238028251Y-70854689D01*
X238028251Y-72219939D01*
X238187001Y-72378689D01*
X239043560Y-72378689D01*
X239276949Y-72282016D01*
X239455578Y-72103388D01*
X239552251Y-71869999D01*
X239552251Y-71013439D01*
X239393501Y-70854689D01*
X238028251Y-70854689D01*
X237774251Y-70854689D01*
X236409001Y-70854689D01*
X236250251Y-71013439D01*
X236051882Y-71013439D01*
X236052417Y-70400726D01*
X235801597Y-69793694D01*
X235593645Y-69585379D01*
X236250251Y-69585379D01*
X236250251Y-70441939D01*
X236409001Y-70600689D01*
X237774251Y-70600689D01*
X237774251Y-69235439D01*
X238028251Y-69235439D01*
X238028251Y-70600689D01*
X239393501Y-70600689D01*
X239552251Y-70441939D01*
X239552251Y-69585379D01*
X239455578Y-69351990D01*
X239276949Y-69173362D01*
X239043560Y-69076689D01*
X238187001Y-69076689D01*
X238028251Y-69235439D01*
X237774251Y-69235439D01*
X237615501Y-69076689D01*
X236758942Y-69076689D01*
X236525553Y-69173362D01*
X236346924Y-69351990D01*
X236250251Y-69585379D01*
X235593645Y-69585379D01*
X235337568Y-69328855D01*
X234730976Y-69076976D01*
X234074168Y-69076403D01*
X233467136Y-69327223D01*
X233002297Y-69791252D01*
X232750418Y-70397844D01*
X232749845Y-71054652D01*
X232554266Y-71054652D01*
X232554837Y-70400726D01*
X232304017Y-69793694D01*
X231839988Y-69328855D01*
X231233396Y-69076976D01*
X230576588Y-69076403D01*
X229969556Y-69327223D01*
X229504717Y-69791252D01*
X229252838Y-70397844D01*
X229252265Y-71054652D01*
X225517551Y-71054652D01*
X225517551Y-65976689D01*
X246957551Y-65976689D01*
X246957551Y-71922053D01*
M02*
