G04 #@! TF.FileFunction,Soldermask,Bot*
%FSLAX46Y46*%
G04 Gerber Fmt 4.6, Leading zero omitted, Abs format (unit mm)*
G04 Created by KiCad (PCBNEW 4.0.6) date 11/21/17 13:37:13*
%MOMM*%
%LPD*%
G01*
G04 APERTURE LIST*
%ADD10C,0.100000*%
%ADD11C,2.235200*%
%ADD12R,2.235200X2.235200*%
%ADD13C,2.082800*%
G04 APERTURE END LIST*
D10*
D11*
X230903551Y-70727689D03*
X234401131Y-70727689D03*
D12*
X237901251Y-70727689D03*
D11*
X241401371Y-70727689D03*
X207535551Y-70727689D03*
X211033131Y-70727689D03*
D12*
X214533251Y-70727689D03*
D11*
X218033371Y-70727689D03*
X184167551Y-70727689D03*
X187665131Y-70727689D03*
D12*
X191165251Y-70727689D03*
D11*
X194665371Y-70727689D03*
X160799551Y-70727689D03*
X164297131Y-70727689D03*
D12*
X167797251Y-70727689D03*
D11*
X171297371Y-70727689D03*
X137431551Y-70727689D03*
X140929131Y-70727689D03*
D12*
X144429251Y-70727689D03*
D11*
X147929371Y-70727689D03*
X114063551Y-70727689D03*
X117561131Y-70727689D03*
D12*
X121061251Y-70727689D03*
D11*
X124561371Y-70727689D03*
X90695551Y-70727689D03*
X94193131Y-70727689D03*
D12*
X97693251Y-70727689D03*
D11*
X101193371Y-70727689D03*
X67327551Y-70727689D03*
X70825131Y-70727689D03*
D12*
X74325251Y-70727689D03*
D11*
X77825371Y-70727689D03*
D13*
X226077551Y-86094689D03*
X226077551Y-83554689D03*
X226077551Y-81014689D03*
X226077551Y-78474689D03*
X226077551Y-75934689D03*
X226077551Y-73394689D03*
X202709551Y-86094689D03*
X202709551Y-83554689D03*
X202709551Y-81014689D03*
X202709551Y-78474689D03*
X202709551Y-75934689D03*
X202709551Y-73394689D03*
X179341551Y-86094689D03*
X179341551Y-83554689D03*
X179341551Y-81014689D03*
X179341551Y-78474689D03*
X179341551Y-75934689D03*
X179341551Y-73394689D03*
X155973551Y-86094689D03*
X155973551Y-83554689D03*
X155973551Y-81014689D03*
X155973551Y-78474689D03*
X155973551Y-75934689D03*
X155973551Y-73394689D03*
X132605551Y-86094689D03*
X132605551Y-83554689D03*
X132605551Y-81014689D03*
X132605551Y-78474689D03*
X132605551Y-75934689D03*
X132605551Y-73394689D03*
X109237551Y-86094689D03*
X109237551Y-83554689D03*
X109237551Y-81014689D03*
X109237551Y-78474689D03*
X109237551Y-75934689D03*
X109237551Y-73394689D03*
X85869551Y-86094689D03*
X85869551Y-83554689D03*
X85869551Y-81014689D03*
X85869551Y-78474689D03*
X85869551Y-75934689D03*
X85869551Y-73394689D03*
X62501551Y-86094689D03*
X62501551Y-83554689D03*
X62501551Y-81014689D03*
X62501551Y-78474689D03*
X62501551Y-75934689D03*
X62501551Y-73394689D03*
X246397551Y-73394689D03*
X246397551Y-75934689D03*
X246397551Y-78474689D03*
X246397551Y-81014689D03*
X246397551Y-83554689D03*
X246397551Y-86094689D03*
X223029551Y-73394689D03*
X223029551Y-75934689D03*
X223029551Y-78474689D03*
X223029551Y-81014689D03*
X223029551Y-83554689D03*
X223029551Y-86094689D03*
X199661551Y-73394689D03*
X199661551Y-75934689D03*
X199661551Y-78474689D03*
X199661551Y-81014689D03*
X199661551Y-83554689D03*
X199661551Y-86094689D03*
X176293551Y-73394689D03*
X176293551Y-75934689D03*
X176293551Y-78474689D03*
X176293551Y-81014689D03*
X176293551Y-83554689D03*
X176293551Y-86094689D03*
X152925551Y-73394689D03*
X152925551Y-75934689D03*
X152925551Y-78474689D03*
X152925551Y-81014689D03*
X152925551Y-83554689D03*
X152925551Y-86094689D03*
X129557551Y-73394689D03*
X129557551Y-75934689D03*
X129557551Y-78474689D03*
X129557551Y-81014689D03*
X129557551Y-83554689D03*
X129557551Y-86094689D03*
X106189551Y-73394689D03*
X106189551Y-75934689D03*
X106189551Y-78474689D03*
X106189551Y-81014689D03*
X106189551Y-83554689D03*
X106189551Y-86094689D03*
X82821551Y-73394689D03*
X82821551Y-75934689D03*
X82821551Y-78474689D03*
X82821551Y-81014689D03*
X82821551Y-83554689D03*
X82821551Y-86094689D03*
M02*
