M48
;DRILL file {KiCad 4.0.6} date 11/21/17 13:37:09
;FORMAT={-:-/ absolute / inch / decimal}
FMAT,2
INCH,TZ
T1C0.016
T2C0.040
T3C0.047
%
G90
G05
M72
T1
X2.4707Y-3.6096
X2.5057Y-4.2896
X2.5357Y-4.0196
X2.6157Y-4.0196
X2.6757Y-3.7396
X2.6757Y-4.2346
X2.6857Y-3.2596
X2.7207Y-3.7396
X2.7957Y-3.8396
X2.8057Y-4.0446
X2.8107Y-4.2096
X2.8657Y-3.8896
X2.8907Y-3.8046
X2.9157Y-3.1796
X2.9257Y-4.4396
X2.9457Y-3.2296
X2.9857Y-3.1296
X2.9957Y-3.9596
X2.9957Y-4.2746
X3.0007Y-4.0396
X3.0207Y-3.9346
X3.0507Y-3.3196
X3.1757Y-4.3546
X3.3907Y-3.6096
X3.4257Y-4.2896
X3.4557Y-4.0196
X3.5357Y-4.0196
X3.5957Y-3.7396
X3.5957Y-4.2346
X3.6057Y-3.2596
X3.6407Y-3.7396
X3.7157Y-3.8396
X3.7257Y-4.0446
X3.7307Y-4.2096
X3.7857Y-3.8896
X3.8107Y-3.8046
X3.8357Y-3.1796
X3.8457Y-4.4396
X3.8657Y-3.2296
X3.9057Y-3.1296
X3.9157Y-3.9596
X3.9157Y-4.2746
X3.9207Y-4.0396
X3.9407Y-3.9346
X3.9707Y-3.3196
X4.0957Y-4.3546
X4.3107Y-3.6096
X4.3457Y-4.2896
X4.3757Y-4.0196
X4.4557Y-4.0196
X4.5157Y-3.7396
X4.5157Y-4.2346
X4.5257Y-3.2596
X4.5607Y-3.7396
X4.6357Y-3.8396
X4.6457Y-4.0446
X4.6507Y-4.2096
X4.7057Y-3.8896
X4.7307Y-3.8046
X4.7557Y-3.1796
X4.7657Y-4.4396
X4.7857Y-3.2296
X4.8257Y-3.1296
X4.8357Y-3.9596
X4.8357Y-4.2746
X4.8407Y-4.0396
X4.8607Y-3.9346
X4.8907Y-3.3196
X5.0157Y-4.3546
X5.2307Y-3.6096
X5.2657Y-4.2896
X5.2957Y-4.0196
X5.3757Y-4.0196
X5.4357Y-3.7396
X5.4357Y-4.2346
X5.4457Y-3.2596
X5.4807Y-3.7396
X5.5557Y-3.8396
X5.5657Y-4.0446
X5.5707Y-4.2096
X5.6257Y-3.8896
X5.6507Y-3.8046
X5.6757Y-3.1796
X5.6857Y-4.4396
X5.7057Y-3.2296
X5.7457Y-3.1296
X5.7557Y-3.9596
X5.7557Y-4.2746
X5.7607Y-4.0396
X5.7807Y-3.9346
X5.8107Y-3.3196
X5.9357Y-4.3546
X6.1507Y-3.6096
X6.1857Y-4.2896
X6.2157Y-4.0196
X6.2957Y-4.0196
X6.3557Y-3.7396
X6.3557Y-4.2346
X6.3657Y-3.2596
X6.4007Y-3.7396
X6.4757Y-3.8396
X6.4857Y-4.0446
X6.4907Y-4.2096
X6.5457Y-3.8896
X6.5707Y-3.8046
X6.5957Y-3.1796
X6.6057Y-4.4396
X6.6257Y-3.2296
X6.6657Y-3.1296
X6.6757Y-3.9596
X6.6757Y-4.2746
X6.6807Y-4.0396
X6.7007Y-3.9346
X6.7307Y-3.3196
X6.8557Y-4.3546
X7.0707Y-3.6096
X7.1057Y-4.2896
X7.1357Y-4.0196
X7.2157Y-4.0196
X7.2757Y-3.7396
X7.2757Y-4.2346
X7.2857Y-3.2596
X7.3207Y-3.7396
X7.3957Y-3.8396
X7.4057Y-4.0446
X7.4107Y-4.2096
X7.4657Y-3.8896
X7.4907Y-3.8046
X7.5157Y-3.1796
X7.5257Y-4.4396
X7.5457Y-3.2296
X7.5857Y-3.1296
X7.5957Y-3.9596
X7.5957Y-4.2746
X7.6007Y-4.0396
X7.6207Y-3.9346
X7.6507Y-3.3196
X7.7757Y-4.3546
X7.9907Y-3.6096
X8.0257Y-4.2896
X8.0557Y-4.0196
X8.1357Y-4.0196
X8.1957Y-3.7396
X8.1957Y-4.2346
X8.2057Y-3.2596
X8.2407Y-3.7396
X8.3157Y-3.8396
X8.3257Y-4.0446
X8.3307Y-4.2096
X8.3857Y-3.8896
X8.4107Y-3.8046
X8.4357Y-3.1796
X8.4457Y-4.4396
X8.4657Y-3.2296
X8.5057Y-3.1296
X8.5157Y-3.9596
X8.5157Y-4.2746
X8.5207Y-4.0396
X8.5407Y-3.9346
X8.5707Y-3.3196
X8.6957Y-4.3546
X8.9107Y-3.6096
X8.9457Y-4.2896
X8.9757Y-4.0196
X9.0557Y-4.0196
X9.1157Y-3.7396
X9.1157Y-4.2346
X9.1257Y-3.2596
X9.1607Y-3.7396
X9.2357Y-3.8396
X9.2457Y-4.0446
X9.2507Y-4.2096
X9.3057Y-3.8896
X9.3307Y-3.8046
X9.3557Y-3.1796
X9.3657Y-4.4396
X9.3857Y-3.2296
X9.4257Y-3.1296
X9.4357Y-3.9596
X9.4357Y-4.2746
X9.4407Y-4.0396
X9.4607Y-3.9346
X9.4907Y-3.3196
X9.6157Y-4.3546
T2
X2.4607Y-2.8896
X2.4607Y-2.9896
X2.4607Y-3.0896
X2.4607Y-3.1896
X2.4607Y-3.2896
X2.4607Y-3.3896
X3.2607Y-2.8896
X3.2607Y-2.9896
X3.2607Y-3.0896
X3.2607Y-3.1896
X3.2607Y-3.2896
X3.2607Y-3.3896
X3.3807Y-2.8896
X3.3807Y-2.9896
X3.3807Y-3.0896
X3.3807Y-3.1896
X3.3807Y-3.2896
X3.3807Y-3.3896
X4.1807Y-2.8896
X4.1807Y-2.9896
X4.1807Y-3.0896
X4.1807Y-3.1896
X4.1807Y-3.2896
X4.1807Y-3.3896
X4.3007Y-2.8896
X4.3007Y-2.9896
X4.3007Y-3.0896
X4.3007Y-3.1896
X4.3007Y-3.2896
X4.3007Y-3.3896
X5.1007Y-2.8896
X5.1007Y-2.9896
X5.1007Y-3.0896
X5.1007Y-3.1896
X5.1007Y-3.2896
X5.1007Y-3.3896
X5.2207Y-2.8896
X5.2207Y-2.9896
X5.2207Y-3.0896
X5.2207Y-3.1896
X5.2207Y-3.2896
X5.2207Y-3.3896
X6.0207Y-2.8896
X6.0207Y-2.9896
X6.0207Y-3.0896
X6.0207Y-3.1896
X6.0207Y-3.2896
X6.0207Y-3.3896
X6.1407Y-2.8896
X6.1407Y-2.9896
X6.1407Y-3.0896
X6.1407Y-3.1896
X6.1407Y-3.2896
X6.1407Y-3.3896
X6.9407Y-2.8896
X6.9407Y-2.9896
X6.9407Y-3.0896
X6.9407Y-3.1896
X6.9407Y-3.2896
X6.9407Y-3.3896
X7.0607Y-2.8896
X7.0607Y-2.9896
X7.0607Y-3.0896
X7.0607Y-3.1896
X7.0607Y-3.2896
X7.0607Y-3.3896
X7.8607Y-2.8896
X7.8607Y-2.9896
X7.8607Y-3.0896
X7.8607Y-3.1896
X7.8607Y-3.2896
X7.8607Y-3.3896
X7.9807Y-2.8896
X7.9807Y-2.9896
X7.9807Y-3.0896
X7.9807Y-3.1896
X7.9807Y-3.2896
X7.9807Y-3.3896
X8.7807Y-2.8896
X8.7807Y-2.9896
X8.7807Y-3.0896
X8.7807Y-3.1896
X8.7807Y-3.2896
X8.7807Y-3.3896
X8.9007Y-2.8896
X8.9007Y-2.9896
X8.9007Y-3.0896
X8.9007Y-3.1896
X8.9007Y-3.2896
X8.9007Y-3.3896
X9.7007Y-2.8896
X9.7007Y-2.9896
X9.7007Y-3.0896
X9.7007Y-3.1896
X9.7007Y-3.2896
X9.7007Y-3.3896
T3
X2.6507Y-2.7846
X2.7884Y-2.7846
X2.9262Y-2.7846
X3.064Y-2.7846
X3.5707Y-2.7846
X3.7084Y-2.7846
X3.8462Y-2.7846
X3.984Y-2.7846
X4.4907Y-2.7846
X4.6284Y-2.7846
X4.7662Y-2.7846
X4.904Y-2.7846
X5.4107Y-2.7846
X5.5484Y-2.7846
X5.6862Y-2.7846
X5.824Y-2.7846
X6.3307Y-2.7846
X6.4684Y-2.7846
X6.6062Y-2.7846
X6.744Y-2.7846
X7.2507Y-2.7846
X7.3884Y-2.7846
X7.5262Y-2.7846
X7.664Y-2.7846
X8.1707Y-2.7846
X8.3084Y-2.7846
X8.4462Y-2.7846
X8.584Y-2.7846
X9.0907Y-2.7846
X9.2284Y-2.7846
X9.3662Y-2.7846
X9.504Y-2.7846
T0
M30
