G04 #@! TF.FileFunction,Profile,NP*
%FSLAX46Y46*%
G04 Gerber Fmt 4.6, Leading zero omitted, Abs format (unit mm)*
G04 Created by KiCad (PCBNEW 4.0.6) date 11/19/17 22:49:51*
%MOMM*%
%LPD*%
G01*
G04 APERTURE LIST*
%ADD10C,0.100000*%
%ADD11C,0.150000*%
G04 APERTURE END LIST*
D10*
D11*
X220489551Y-94984689D02*
X220489551Y-144006689D01*
X197121551Y-94984689D02*
X197121551Y-144006689D01*
X173753551Y-94984689D02*
X173753551Y-144006689D01*
X150385551Y-94984689D02*
X150385551Y-144006689D01*
X127017551Y-94984689D02*
X127017551Y-144006689D01*
X103649551Y-94984689D02*
X103649551Y-144006689D01*
X80281551Y-94984689D02*
X80281551Y-144006689D01*
X56913551Y-94984689D02*
X56913551Y-144006689D01*
X220489551Y-39104689D02*
X220489551Y-88126689D01*
X197121551Y-39104689D02*
X197121551Y-88126689D01*
X173753551Y-39104689D02*
X173753551Y-88126689D01*
X150385551Y-39104689D02*
X150385551Y-88126689D01*
X127017551Y-39104689D02*
X127017551Y-88126689D01*
X103649551Y-39104689D02*
X103649551Y-88126689D01*
X80281551Y-39104689D02*
X80281551Y-88126689D01*
X220489551Y-144006689D02*
X243349551Y-144006689D01*
X197121551Y-144006689D02*
X219981551Y-144006689D01*
X173753551Y-144006689D02*
X196613551Y-144006689D01*
X150385551Y-144006689D02*
X173245551Y-144006689D01*
X127017551Y-144006689D02*
X149877551Y-144006689D01*
X103649551Y-144006689D02*
X126509551Y-144006689D01*
X80281551Y-144006689D02*
X103141551Y-144006689D01*
X56913551Y-144006689D02*
X79773551Y-144006689D01*
X220489551Y-88126689D02*
X243349551Y-88126689D01*
X197121551Y-88126689D02*
X219981551Y-88126689D01*
X173753551Y-88126689D02*
X196613551Y-88126689D01*
X150385551Y-88126689D02*
X173245551Y-88126689D01*
X127017551Y-88126689D02*
X149877551Y-88126689D01*
X103649551Y-88126689D02*
X126509551Y-88126689D01*
X80281551Y-88126689D02*
X103141551Y-88126689D01*
X243349551Y-94984689D02*
X243349551Y-144006689D01*
X219981551Y-94984689D02*
X219981551Y-144006689D01*
X196613551Y-94984689D02*
X196613551Y-144006689D01*
X173245551Y-94984689D02*
X173245551Y-144006689D01*
X149877551Y-94984689D02*
X149877551Y-144006689D01*
X126509551Y-94984689D02*
X126509551Y-144006689D01*
X103141551Y-94984689D02*
X103141551Y-144006689D01*
X79773551Y-94984689D02*
X79773551Y-144006689D01*
X243349551Y-39104689D02*
X243349551Y-88126689D01*
X219981551Y-39104689D02*
X219981551Y-88126689D01*
X196613551Y-39104689D02*
X196613551Y-88126689D01*
X173245551Y-39104689D02*
X173245551Y-88126689D01*
X149877551Y-39104689D02*
X149877551Y-88126689D01*
X126509551Y-39104689D02*
X126509551Y-88126689D01*
X103141551Y-39104689D02*
X103141551Y-88126689D01*
X220489551Y-94984689D02*
X243349551Y-94984689D01*
X197121551Y-94984689D02*
X219981551Y-94984689D01*
X173753551Y-94984689D02*
X196613551Y-94984689D01*
X150385551Y-94984689D02*
X173245551Y-94984689D01*
X127017551Y-94984689D02*
X149877551Y-94984689D01*
X103649551Y-94984689D02*
X126509551Y-94984689D01*
X80281551Y-94984689D02*
X103141551Y-94984689D01*
X56913551Y-94984689D02*
X79773551Y-94984689D01*
X220489551Y-39104689D02*
X243349551Y-39104689D01*
X197121551Y-39104689D02*
X219981551Y-39104689D01*
X173753551Y-39104689D02*
X196613551Y-39104689D01*
X150385551Y-39104689D02*
X173245551Y-39104689D01*
X127017551Y-39104689D02*
X149877551Y-39104689D01*
X103649551Y-39104689D02*
X126509551Y-39104689D01*
X80281551Y-39104689D02*
X103141551Y-39104689D01*
X50292000Y-150876000D02*
X50292000Y-144272000D01*
X248412000Y-150876000D02*
X50292000Y-150876000D01*
X248412000Y-144272000D02*
X248412000Y-150876000D01*
X50292000Y-144272000D02*
X248412000Y-144272000D01*
X50292000Y-94742000D02*
X50292000Y-88392000D01*
X248412000Y-94742000D02*
X50292000Y-94742000D01*
X248412000Y-88392000D02*
X248412000Y-94742000D01*
X50292000Y-88392000D02*
X248412000Y-88392000D01*
X56667400Y-26365200D02*
X56667400Y-20548600D01*
X56667400Y-26390600D02*
X56667400Y-172389800D01*
X80010000Y-20472400D02*
X80010000Y-166471600D01*
X103403400Y-21082000D02*
X103403400Y-167081200D01*
X126771400Y-22758400D02*
X126771400Y-168757600D01*
X150114000Y-22225000D02*
X150114000Y-168224200D01*
X173482000Y-21259800D02*
X173482000Y-167259000D01*
X196875400Y-19710400D02*
X196875400Y-165709600D01*
X196875400Y-39395400D02*
X196875400Y-19710400D01*
X220243400Y-21818600D02*
X220243400Y-166243000D01*
X220243400Y-39395400D02*
X220243400Y-21818600D01*
X243586000Y-31496000D02*
X243586000Y-21336000D01*
X243586000Y-31496000D02*
X243586000Y-167894000D01*
X273812000Y-38862000D02*
X283210000Y-38862000D01*
X24892000Y-38862000D02*
X12954000Y-38862000D01*
X273812000Y-38862000D02*
X24892000Y-38862000D01*
X273812000Y-31496000D02*
X24892000Y-31496000D01*
X273812000Y-158496000D02*
X273812000Y-31496000D01*
X24892000Y-158496000D02*
X273812000Y-158496000D01*
X24892000Y-31496000D02*
X24892000Y-158496000D01*
X56913551Y-88126689D02*
X79773551Y-88126689D01*
X56913551Y-39104689D02*
X56913551Y-88126689D01*
X79773551Y-39104689D02*
X79773551Y-88126689D01*
X56913551Y-39104689D02*
X79773551Y-39104689D01*
M02*
