G04 #@! TF.FileFunction,Soldermask,Bot*
%FSLAX46Y46*%
G04 Gerber Fmt 4.6, Leading zero omitted, Abs format (unit mm)*
G04 Created by KiCad (PCBNEW 4.0.6) date 11/19/17 22:49:51*
%MOMM*%
%LPD*%
G01*
G04 APERTURE LIST*
%ADD10C,0.100000*%
%ADD11C,2.235200*%
%ADD12R,2.235200X2.235200*%
%ADD13C,2.082800*%
G04 APERTURE END LIST*
D10*
D11*
X226585551Y-100445689D03*
X230083131Y-100445689D03*
D12*
X233583251Y-100445689D03*
D11*
X237083371Y-100445689D03*
X203217551Y-100445689D03*
X206715131Y-100445689D03*
D12*
X210215251Y-100445689D03*
D11*
X213715371Y-100445689D03*
X179849551Y-100445689D03*
X183347131Y-100445689D03*
D12*
X186847251Y-100445689D03*
D11*
X190347371Y-100445689D03*
X156481551Y-100445689D03*
X159979131Y-100445689D03*
D12*
X163479251Y-100445689D03*
D11*
X166979371Y-100445689D03*
X133113551Y-100445689D03*
X136611131Y-100445689D03*
D12*
X140111251Y-100445689D03*
D11*
X143611371Y-100445689D03*
X109745551Y-100445689D03*
X113243131Y-100445689D03*
D12*
X116743251Y-100445689D03*
D11*
X120243371Y-100445689D03*
X86377551Y-100445689D03*
X89875131Y-100445689D03*
D12*
X93375251Y-100445689D03*
D11*
X96875371Y-100445689D03*
X63009551Y-100445689D03*
X66507131Y-100445689D03*
D12*
X70007251Y-100445689D03*
D11*
X73507371Y-100445689D03*
X226585551Y-44565689D03*
X230083131Y-44565689D03*
D12*
X233583251Y-44565689D03*
D11*
X237083371Y-44565689D03*
X203217551Y-44565689D03*
X206715131Y-44565689D03*
D12*
X210215251Y-44565689D03*
D11*
X213715371Y-44565689D03*
X179849551Y-44565689D03*
X183347131Y-44565689D03*
D12*
X186847251Y-44565689D03*
D11*
X190347371Y-44565689D03*
X156481551Y-44565689D03*
X159979131Y-44565689D03*
D12*
X163479251Y-44565689D03*
D11*
X166979371Y-44565689D03*
X133113551Y-44565689D03*
X136611131Y-44565689D03*
D12*
X140111251Y-44565689D03*
D11*
X143611371Y-44565689D03*
X109745551Y-44565689D03*
X113243131Y-44565689D03*
D12*
X116743251Y-44565689D03*
D11*
X120243371Y-44565689D03*
X86377551Y-44565689D03*
X89875131Y-44565689D03*
D12*
X93375251Y-44565689D03*
D11*
X96875371Y-44565689D03*
D13*
X221759551Y-115812689D03*
X221759551Y-113272689D03*
X221759551Y-110732689D03*
X221759551Y-108192689D03*
X221759551Y-105652689D03*
X221759551Y-103112689D03*
X198391551Y-115812689D03*
X198391551Y-113272689D03*
X198391551Y-110732689D03*
X198391551Y-108192689D03*
X198391551Y-105652689D03*
X198391551Y-103112689D03*
X175023551Y-115812689D03*
X175023551Y-113272689D03*
X175023551Y-110732689D03*
X175023551Y-108192689D03*
X175023551Y-105652689D03*
X175023551Y-103112689D03*
X151655551Y-115812689D03*
X151655551Y-113272689D03*
X151655551Y-110732689D03*
X151655551Y-108192689D03*
X151655551Y-105652689D03*
X151655551Y-103112689D03*
X128287551Y-115812689D03*
X128287551Y-113272689D03*
X128287551Y-110732689D03*
X128287551Y-108192689D03*
X128287551Y-105652689D03*
X128287551Y-103112689D03*
X104919551Y-115812689D03*
X104919551Y-113272689D03*
X104919551Y-110732689D03*
X104919551Y-108192689D03*
X104919551Y-105652689D03*
X104919551Y-103112689D03*
X81551551Y-115812689D03*
X81551551Y-113272689D03*
X81551551Y-110732689D03*
X81551551Y-108192689D03*
X81551551Y-105652689D03*
X81551551Y-103112689D03*
X58183551Y-115812689D03*
X58183551Y-113272689D03*
X58183551Y-110732689D03*
X58183551Y-108192689D03*
X58183551Y-105652689D03*
X58183551Y-103112689D03*
X221759551Y-59932689D03*
X221759551Y-57392689D03*
X221759551Y-54852689D03*
X221759551Y-52312689D03*
X221759551Y-49772689D03*
X221759551Y-47232689D03*
X198391551Y-59932689D03*
X198391551Y-57392689D03*
X198391551Y-54852689D03*
X198391551Y-52312689D03*
X198391551Y-49772689D03*
X198391551Y-47232689D03*
X175023551Y-59932689D03*
X175023551Y-57392689D03*
X175023551Y-54852689D03*
X175023551Y-52312689D03*
X175023551Y-49772689D03*
X175023551Y-47232689D03*
X151655551Y-59932689D03*
X151655551Y-57392689D03*
X151655551Y-54852689D03*
X151655551Y-52312689D03*
X151655551Y-49772689D03*
X151655551Y-47232689D03*
X128287551Y-59932689D03*
X128287551Y-57392689D03*
X128287551Y-54852689D03*
X128287551Y-52312689D03*
X128287551Y-49772689D03*
X128287551Y-47232689D03*
X104919551Y-59932689D03*
X104919551Y-57392689D03*
X104919551Y-54852689D03*
X104919551Y-52312689D03*
X104919551Y-49772689D03*
X104919551Y-47232689D03*
X81551551Y-59932689D03*
X81551551Y-57392689D03*
X81551551Y-54852689D03*
X81551551Y-52312689D03*
X81551551Y-49772689D03*
X81551551Y-47232689D03*
X242079551Y-103112689D03*
X242079551Y-105652689D03*
X242079551Y-108192689D03*
X242079551Y-110732689D03*
X242079551Y-113272689D03*
X242079551Y-115812689D03*
X218711551Y-103112689D03*
X218711551Y-105652689D03*
X218711551Y-108192689D03*
X218711551Y-110732689D03*
X218711551Y-113272689D03*
X218711551Y-115812689D03*
X195343551Y-103112689D03*
X195343551Y-105652689D03*
X195343551Y-108192689D03*
X195343551Y-110732689D03*
X195343551Y-113272689D03*
X195343551Y-115812689D03*
X171975551Y-103112689D03*
X171975551Y-105652689D03*
X171975551Y-108192689D03*
X171975551Y-110732689D03*
X171975551Y-113272689D03*
X171975551Y-115812689D03*
X148607551Y-103112689D03*
X148607551Y-105652689D03*
X148607551Y-108192689D03*
X148607551Y-110732689D03*
X148607551Y-113272689D03*
X148607551Y-115812689D03*
X125239551Y-103112689D03*
X125239551Y-105652689D03*
X125239551Y-108192689D03*
X125239551Y-110732689D03*
X125239551Y-113272689D03*
X125239551Y-115812689D03*
X101871551Y-103112689D03*
X101871551Y-105652689D03*
X101871551Y-108192689D03*
X101871551Y-110732689D03*
X101871551Y-113272689D03*
X101871551Y-115812689D03*
X78503551Y-103112689D03*
X78503551Y-105652689D03*
X78503551Y-108192689D03*
X78503551Y-110732689D03*
X78503551Y-113272689D03*
X78503551Y-115812689D03*
X242079551Y-47232689D03*
X242079551Y-49772689D03*
X242079551Y-52312689D03*
X242079551Y-54852689D03*
X242079551Y-57392689D03*
X242079551Y-59932689D03*
X218711551Y-47232689D03*
X218711551Y-49772689D03*
X218711551Y-52312689D03*
X218711551Y-54852689D03*
X218711551Y-57392689D03*
X218711551Y-59932689D03*
X195343551Y-47232689D03*
X195343551Y-49772689D03*
X195343551Y-52312689D03*
X195343551Y-54852689D03*
X195343551Y-57392689D03*
X195343551Y-59932689D03*
X171975551Y-47232689D03*
X171975551Y-49772689D03*
X171975551Y-52312689D03*
X171975551Y-54852689D03*
X171975551Y-57392689D03*
X171975551Y-59932689D03*
X148607551Y-47232689D03*
X148607551Y-49772689D03*
X148607551Y-52312689D03*
X148607551Y-54852689D03*
X148607551Y-57392689D03*
X148607551Y-59932689D03*
X125239551Y-47232689D03*
X125239551Y-49772689D03*
X125239551Y-52312689D03*
X125239551Y-54852689D03*
X125239551Y-57392689D03*
X125239551Y-59932689D03*
X101871551Y-47232689D03*
X101871551Y-49772689D03*
X101871551Y-52312689D03*
X101871551Y-54852689D03*
X101871551Y-57392689D03*
X101871551Y-59932689D03*
X78503551Y-47232689D03*
X78503551Y-49772689D03*
X78503551Y-52312689D03*
X78503551Y-54852689D03*
X78503551Y-57392689D03*
X78503551Y-59932689D03*
D11*
X63009551Y-44565689D03*
X66507131Y-44565689D03*
D12*
X70007251Y-44565689D03*
D11*
X73507371Y-44565689D03*
D13*
X58183551Y-59932689D03*
X58183551Y-57392689D03*
X58183551Y-54852689D03*
X58183551Y-52312689D03*
X58183551Y-49772689D03*
X58183551Y-47232689D03*
M02*
