M48
;DRILL file {KiCad 4.0.6} date 11/19/17 22:49:33
;FORMAT={-:-/ absolute / inch / decimal}
FMAT,2
INCH,TZ
T1C0.016
T2C0.040
T3C0.047
%
G90
G05
M72
T1
X2.3007Y-2.5796
X2.3007Y-4.7796
X2.3357Y-3.2596
X2.3357Y-5.4596
X2.3657Y-2.9896
X2.3657Y-5.1896
X2.4457Y-2.9896
X2.4457Y-5.1896
X2.5057Y-2.7096
X2.5057Y-3.2046
X2.5057Y-4.9096
X2.5057Y-5.4046
X2.5157Y-2.2296
X2.5157Y-4.4296
X2.5507Y-2.7096
X2.5507Y-4.9096
X2.6257Y-2.8096
X2.6257Y-5.0096
X2.6357Y-3.0146
X2.6357Y-5.2146
X2.6407Y-3.1796
X2.6407Y-5.3796
X2.6957Y-2.8596
X2.6957Y-5.0596
X2.7207Y-2.7746
X2.7207Y-4.9746
X2.7457Y-2.1496
X2.7457Y-4.3496
X2.7557Y-3.4096
X2.7557Y-5.6096
X2.7757Y-2.1996
X2.7757Y-4.3996
X2.8157Y-2.0996
X2.8157Y-4.2996
X2.8257Y-2.9296
X2.8257Y-3.2446
X2.8257Y-5.1296
X2.8257Y-5.4446
X2.8307Y-3.0096
X2.8307Y-5.2096
X2.8507Y-2.9046
X2.8507Y-5.1046
X2.8807Y-2.2896
X2.8807Y-4.4896
X3.0057Y-3.3246
X3.0057Y-5.5246
X3.2207Y-2.5796
X3.2207Y-4.7796
X3.2557Y-3.2596
X3.2557Y-5.4596
X3.2857Y-2.9896
X3.2857Y-5.1896
X3.3657Y-2.9896
X3.3657Y-5.1896
X3.4257Y-2.7096
X3.4257Y-3.2046
X3.4257Y-4.9096
X3.4257Y-5.4046
X3.4357Y-2.2296
X3.4357Y-4.4296
X3.4707Y-2.7096
X3.4707Y-4.9096
X3.5457Y-2.8096
X3.5457Y-5.0096
X3.5557Y-3.0146
X3.5557Y-5.2146
X3.5607Y-3.1796
X3.5607Y-5.3796
X3.6157Y-2.8596
X3.6157Y-5.0596
X3.6407Y-2.7746
X3.6407Y-4.9746
X3.6657Y-2.1496
X3.6657Y-4.3496
X3.6757Y-3.4096
X3.6757Y-5.6096
X3.6957Y-2.1996
X3.6957Y-4.3996
X3.7357Y-2.0996
X3.7357Y-4.2996
X3.7457Y-2.9296
X3.7457Y-3.2446
X3.7457Y-5.1296
X3.7457Y-5.4446
X3.7507Y-3.0096
X3.7507Y-5.2096
X3.7707Y-2.9046
X3.7707Y-5.1046
X3.8007Y-2.2896
X3.8007Y-4.4896
X3.9257Y-3.3246
X3.9257Y-5.5246
X4.1407Y-2.5796
X4.1407Y-4.7796
X4.1757Y-3.2596
X4.1757Y-5.4596
X4.2057Y-2.9896
X4.2057Y-5.1896
X4.2857Y-2.9896
X4.2857Y-5.1896
X4.3457Y-2.7096
X4.3457Y-3.2046
X4.3457Y-4.9096
X4.3457Y-5.4046
X4.3557Y-2.2296
X4.3557Y-4.4296
X4.3907Y-2.7096
X4.3907Y-4.9096
X4.4657Y-2.8096
X4.4657Y-5.0096
X4.4757Y-3.0146
X4.4757Y-5.2146
X4.4807Y-3.1796
X4.4807Y-5.3796
X4.5357Y-2.8596
X4.5357Y-5.0596
X4.5607Y-2.7746
X4.5607Y-4.9746
X4.5857Y-2.1496
X4.5857Y-4.3496
X4.5957Y-3.4096
X4.5957Y-5.6096
X4.6157Y-2.1996
X4.6157Y-4.3996
X4.6557Y-2.0996
X4.6557Y-4.2996
X4.6657Y-2.9296
X4.6657Y-3.2446
X4.6657Y-5.1296
X4.6657Y-5.4446
X4.6707Y-3.0096
X4.6707Y-5.2096
X4.6907Y-2.9046
X4.6907Y-5.1046
X4.7207Y-2.2896
X4.7207Y-4.4896
X4.8457Y-3.3246
X4.8457Y-5.5246
X5.0607Y-2.5796
X5.0607Y-4.7796
X5.0957Y-3.2596
X5.0957Y-5.4596
X5.1257Y-2.9896
X5.1257Y-5.1896
X5.2057Y-2.9896
X5.2057Y-5.1896
X5.2657Y-2.7096
X5.2657Y-3.2046
X5.2657Y-4.9096
X5.2657Y-5.4046
X5.2757Y-2.2296
X5.2757Y-4.4296
X5.3107Y-2.7096
X5.3107Y-4.9096
X5.3857Y-2.8096
X5.3857Y-5.0096
X5.3957Y-3.0146
X5.3957Y-5.2146
X5.4007Y-3.1796
X5.4007Y-5.3796
X5.4557Y-2.8596
X5.4557Y-5.0596
X5.4807Y-2.7746
X5.4807Y-4.9746
X5.5057Y-2.1496
X5.5057Y-4.3496
X5.5157Y-3.4096
X5.5157Y-5.6096
X5.5357Y-2.1996
X5.5357Y-4.3996
X5.5757Y-2.0996
X5.5757Y-4.2996
X5.5857Y-2.9296
X5.5857Y-3.2446
X5.5857Y-5.1296
X5.5857Y-5.4446
X5.5907Y-3.0096
X5.5907Y-5.2096
X5.6107Y-2.9046
X5.6107Y-5.1046
X5.6407Y-2.2896
X5.6407Y-4.4896
X5.7657Y-3.3246
X5.7657Y-5.5246
X5.9807Y-2.5796
X5.9807Y-4.7796
X6.0157Y-3.2596
X6.0157Y-5.4596
X6.0457Y-2.9896
X6.0457Y-5.1896
X6.1257Y-2.9896
X6.1257Y-5.1896
X6.1857Y-2.7096
X6.1857Y-3.2046
X6.1857Y-4.9096
X6.1857Y-5.4046
X6.1957Y-2.2296
X6.1957Y-4.4296
X6.2307Y-2.7096
X6.2307Y-4.9096
X6.3057Y-2.8096
X6.3057Y-5.0096
X6.3157Y-3.0146
X6.3157Y-5.2146
X6.3207Y-3.1796
X6.3207Y-5.3796
X6.3757Y-2.8596
X6.3757Y-5.0596
X6.4007Y-2.7746
X6.4007Y-4.9746
X6.4257Y-2.1496
X6.4257Y-4.3496
X6.4357Y-3.4096
X6.4357Y-5.6096
X6.4557Y-2.1996
X6.4557Y-4.3996
X6.4957Y-2.0996
X6.4957Y-4.2996
X6.5057Y-2.9296
X6.5057Y-3.2446
X6.5057Y-5.1296
X6.5057Y-5.4446
X6.5107Y-3.0096
X6.5107Y-5.2096
X6.5307Y-2.9046
X6.5307Y-5.1046
X6.5607Y-2.2896
X6.5607Y-4.4896
X6.6857Y-3.3246
X6.6857Y-5.5246
X6.9007Y-2.5796
X6.9007Y-4.7796
X6.9357Y-3.2596
X6.9357Y-5.4596
X6.9657Y-2.9896
X6.9657Y-5.1896
X7.0457Y-2.9896
X7.0457Y-5.1896
X7.1057Y-2.7096
X7.1057Y-3.2046
X7.1057Y-4.9096
X7.1057Y-5.4046
X7.1157Y-2.2296
X7.1157Y-4.4296
X7.1507Y-2.7096
X7.1507Y-4.9096
X7.2257Y-2.8096
X7.2257Y-5.0096
X7.2357Y-3.0146
X7.2357Y-5.2146
X7.2407Y-3.1796
X7.2407Y-5.3796
X7.2957Y-2.8596
X7.2957Y-5.0596
X7.3207Y-2.7746
X7.3207Y-4.9746
X7.3457Y-2.1496
X7.3457Y-4.3496
X7.3557Y-3.4096
X7.3557Y-5.6096
X7.3757Y-2.1996
X7.3757Y-4.3996
X7.4157Y-2.0996
X7.4157Y-4.2996
X7.4257Y-2.9296
X7.4257Y-3.2446
X7.4257Y-5.1296
X7.4257Y-5.4446
X7.4307Y-3.0096
X7.4307Y-5.2096
X7.4507Y-2.9046
X7.4507Y-5.1046
X7.4807Y-2.2896
X7.4807Y-4.4896
X7.6057Y-3.3246
X7.6057Y-5.5246
X7.8207Y-2.5796
X7.8207Y-4.7796
X7.8557Y-3.2596
X7.8557Y-5.4596
X7.8857Y-2.9896
X7.8857Y-5.1896
X7.9657Y-2.9896
X7.9657Y-5.1896
X8.0257Y-2.7096
X8.0257Y-3.2046
X8.0257Y-4.9096
X8.0257Y-5.4046
X8.0357Y-2.2296
X8.0357Y-4.4296
X8.0707Y-2.7096
X8.0707Y-4.9096
X8.1457Y-2.8096
X8.1457Y-5.0096
X8.1557Y-3.0146
X8.1557Y-5.2146
X8.1607Y-3.1796
X8.1607Y-5.3796
X8.2157Y-2.8596
X8.2157Y-5.0596
X8.2407Y-2.7746
X8.2407Y-4.9746
X8.2657Y-2.1496
X8.2657Y-4.3496
X8.2757Y-3.4096
X8.2757Y-5.6096
X8.2957Y-2.1996
X8.2957Y-4.3996
X8.3357Y-2.0996
X8.3357Y-4.2996
X8.3457Y-2.9296
X8.3457Y-3.2446
X8.3457Y-5.1296
X8.3457Y-5.4446
X8.3507Y-3.0096
X8.3507Y-5.2096
X8.3707Y-2.9046
X8.3707Y-5.1046
X8.4007Y-2.2896
X8.4007Y-4.4896
X8.5257Y-3.3246
X8.5257Y-5.5246
X8.7407Y-2.5796
X8.7407Y-4.7796
X8.7757Y-3.2596
X8.7757Y-5.4596
X8.8057Y-2.9896
X8.8057Y-5.1896
X8.8857Y-2.9896
X8.8857Y-5.1896
X8.9457Y-2.7096
X8.9457Y-3.2046
X8.9457Y-4.9096
X8.9457Y-5.4046
X8.9557Y-2.2296
X8.9557Y-4.4296
X8.9907Y-2.7096
X8.9907Y-4.9096
X9.0657Y-2.8096
X9.0657Y-5.0096
X9.0757Y-3.0146
X9.0757Y-5.2146
X9.0807Y-3.1796
X9.0807Y-5.3796
X9.1357Y-2.8596
X9.1357Y-5.0596
X9.1607Y-2.7746
X9.1607Y-4.9746
X9.1857Y-2.1496
X9.1857Y-4.3496
X9.1957Y-3.4096
X9.1957Y-5.6096
X9.2157Y-2.1996
X9.2157Y-4.3996
X9.2557Y-2.0996
X9.2557Y-4.2996
X9.2657Y-2.9296
X9.2657Y-3.2446
X9.2657Y-5.1296
X9.2657Y-5.4446
X9.2707Y-3.0096
X9.2707Y-5.2096
X9.2907Y-2.9046
X9.2907Y-5.1046
X9.3207Y-2.2896
X9.3207Y-4.4896
X9.4457Y-3.3246
X9.4457Y-5.5246
T2
X2.2907Y-1.8596
X2.2907Y-1.9596
X2.2907Y-2.0596
X2.2907Y-2.1596
X2.2907Y-2.2596
X2.2907Y-2.3596
X2.2907Y-4.0596
X2.2907Y-4.1596
X2.2907Y-4.2596
X2.2907Y-4.3596
X2.2907Y-4.4596
X2.2907Y-4.5596
X3.0907Y-1.8596
X3.0907Y-1.9596
X3.0907Y-2.0596
X3.0907Y-2.1596
X3.0907Y-2.2596
X3.0907Y-2.3596
X3.0907Y-4.0596
X3.0907Y-4.1596
X3.0907Y-4.2596
X3.0907Y-4.3596
X3.0907Y-4.4596
X3.0907Y-4.5596
X3.2107Y-1.8596
X3.2107Y-1.9596
X3.2107Y-2.0596
X3.2107Y-2.1596
X3.2107Y-2.2596
X3.2107Y-2.3596
X3.2107Y-4.0596
X3.2107Y-4.1596
X3.2107Y-4.2596
X3.2107Y-4.3596
X3.2107Y-4.4596
X3.2107Y-4.5596
X4.0107Y-1.8596
X4.0107Y-1.9596
X4.0107Y-2.0596
X4.0107Y-2.1596
X4.0107Y-2.2596
X4.0107Y-2.3596
X4.0107Y-4.0596
X4.0107Y-4.1596
X4.0107Y-4.2596
X4.0107Y-4.3596
X4.0107Y-4.4596
X4.0107Y-4.5596
X4.1307Y-1.8596
X4.1307Y-1.9596
X4.1307Y-2.0596
X4.1307Y-2.1596
X4.1307Y-2.2596
X4.1307Y-2.3596
X4.1307Y-4.0596
X4.1307Y-4.1596
X4.1307Y-4.2596
X4.1307Y-4.3596
X4.1307Y-4.4596
X4.1307Y-4.5596
X4.9307Y-1.8596
X4.9307Y-1.9596
X4.9307Y-2.0596
X4.9307Y-2.1596
X4.9307Y-2.2596
X4.9307Y-2.3596
X4.9307Y-4.0596
X4.9307Y-4.1596
X4.9307Y-4.2596
X4.9307Y-4.3596
X4.9307Y-4.4596
X4.9307Y-4.5596
X5.0507Y-1.8596
X5.0507Y-1.9596
X5.0507Y-2.0596
X5.0507Y-2.1596
X5.0507Y-2.2596
X5.0507Y-2.3596
X5.0507Y-4.0596
X5.0507Y-4.1596
X5.0507Y-4.2596
X5.0507Y-4.3596
X5.0507Y-4.4596
X5.0507Y-4.5596
X5.8507Y-1.8596
X5.8507Y-1.9596
X5.8507Y-2.0596
X5.8507Y-2.1596
X5.8507Y-2.2596
X5.8507Y-2.3596
X5.8507Y-4.0596
X5.8507Y-4.1596
X5.8507Y-4.2596
X5.8507Y-4.3596
X5.8507Y-4.4596
X5.8507Y-4.5596
X5.9707Y-1.8596
X5.9707Y-1.9596
X5.9707Y-2.0596
X5.9707Y-2.1596
X5.9707Y-2.2596
X5.9707Y-2.3596
X5.9707Y-4.0596
X5.9707Y-4.1596
X5.9707Y-4.2596
X5.9707Y-4.3596
X5.9707Y-4.4596
X5.9707Y-4.5596
X6.7707Y-1.8596
X6.7707Y-1.9596
X6.7707Y-2.0596
X6.7707Y-2.1596
X6.7707Y-2.2596
X6.7707Y-2.3596
X6.7707Y-4.0596
X6.7707Y-4.1596
X6.7707Y-4.2596
X6.7707Y-4.3596
X6.7707Y-4.4596
X6.7707Y-4.5596
X6.8907Y-1.8596
X6.8907Y-1.9596
X6.8907Y-2.0596
X6.8907Y-2.1596
X6.8907Y-2.2596
X6.8907Y-2.3596
X6.8907Y-4.0596
X6.8907Y-4.1596
X6.8907Y-4.2596
X6.8907Y-4.3596
X6.8907Y-4.4596
X6.8907Y-4.5596
X7.6907Y-1.8596
X7.6907Y-1.9596
X7.6907Y-2.0596
X7.6907Y-2.1596
X7.6907Y-2.2596
X7.6907Y-2.3596
X7.6907Y-4.0596
X7.6907Y-4.1596
X7.6907Y-4.2596
X7.6907Y-4.3596
X7.6907Y-4.4596
X7.6907Y-4.5596
X7.8107Y-1.8596
X7.8107Y-1.9596
X7.8107Y-2.0596
X7.8107Y-2.1596
X7.8107Y-2.2596
X7.8107Y-2.3596
X7.8107Y-4.0596
X7.8107Y-4.1596
X7.8107Y-4.2596
X7.8107Y-4.3596
X7.8107Y-4.4596
X7.8107Y-4.5596
X8.6107Y-1.8596
X8.6107Y-1.9596
X8.6107Y-2.0596
X8.6107Y-2.1596
X8.6107Y-2.2596
X8.6107Y-2.3596
X8.6107Y-4.0596
X8.6107Y-4.1596
X8.6107Y-4.2596
X8.6107Y-4.3596
X8.6107Y-4.4596
X8.6107Y-4.5596
X8.7307Y-1.8596
X8.7307Y-1.9596
X8.7307Y-2.0596
X8.7307Y-2.1596
X8.7307Y-2.2596
X8.7307Y-2.3596
X8.7307Y-4.0596
X8.7307Y-4.1596
X8.7307Y-4.2596
X8.7307Y-4.3596
X8.7307Y-4.4596
X8.7307Y-4.5596
X9.5307Y-1.8596
X9.5307Y-1.9596
X9.5307Y-2.0596
X9.5307Y-2.1596
X9.5307Y-2.2596
X9.5307Y-2.3596
X9.5307Y-4.0596
X9.5307Y-4.1596
X9.5307Y-4.2596
X9.5307Y-4.3596
X9.5307Y-4.4596
X9.5307Y-4.5596
T3
X2.4807Y-1.7546
X2.4807Y-3.9546
X2.6184Y-1.7546
X2.6184Y-3.9546
X2.7562Y-1.7546
X2.7562Y-3.9546
X2.894Y-1.7546
X2.894Y-3.9546
X3.4007Y-1.7546
X3.4007Y-3.9546
X3.5384Y-1.7546
X3.5384Y-3.9546
X3.6762Y-1.7546
X3.6762Y-3.9546
X3.814Y-1.7546
X3.814Y-3.9546
X4.3207Y-1.7546
X4.3207Y-3.9546
X4.4584Y-1.7546
X4.4584Y-3.9546
X4.5962Y-1.7546
X4.5962Y-3.9546
X4.734Y-1.7546
X4.734Y-3.9546
X5.2407Y-1.7546
X5.2407Y-3.9546
X5.3784Y-1.7546
X5.3784Y-3.9546
X5.5162Y-1.7546
X5.5162Y-3.9546
X5.654Y-1.7546
X5.654Y-3.9546
X6.1607Y-1.7546
X6.1607Y-3.9546
X6.2984Y-1.7546
X6.2984Y-3.9546
X6.4362Y-1.7546
X6.4362Y-3.9546
X6.574Y-1.7546
X6.574Y-3.9546
X7.0807Y-1.7546
X7.0807Y-3.9546
X7.2184Y-1.7546
X7.2184Y-3.9546
X7.3562Y-1.7546
X7.3562Y-3.9546
X7.494Y-1.7546
X7.494Y-3.9546
X8.0007Y-1.7546
X8.0007Y-3.9546
X8.1384Y-1.7546
X8.1384Y-3.9546
X8.2762Y-1.7546
X8.2762Y-3.9546
X8.414Y-1.7546
X8.414Y-3.9546
X8.9207Y-1.7546
X8.9207Y-3.9546
X9.0584Y-1.7546
X9.0584Y-3.9546
X9.1962Y-1.7546
X9.1962Y-3.9546
X9.334Y-1.7546
X9.334Y-3.9546
T0
M30
