G04 #@! TF.FileFunction,Paste,Top*
%FSLAX46Y46*%
G04 Gerber Fmt 4.6, Leading zero omitted, Abs format (unit mm)*
G04 Created by KiCad (PCBNEW 4.0.6) date 11/19/17 22:49:51*
%MOMM*%
%LPD*%
G01*
G04 APERTURE LIST*
%ADD10C,0.100000*%
%ADD11R,0.900000X0.500000*%
%ADD12R,1.550000X0.600000*%
%ADD13R,0.750000X0.800000*%
%ADD14R,0.650000X1.060000*%
%ADD15R,1.597660X1.399540*%
%ADD16R,0.998220X1.798320*%
%ADD17R,0.347980X1.399540*%
%ADD18R,1.798320X1.899920*%
%ADD19R,1.899920X1.899920*%
%ADD20R,0.800000X0.750000*%
G04 APERTURE END LIST*
D10*
D11*
X226712551Y-110593689D03*
X226712551Y-109093689D03*
X203344551Y-110593689D03*
X203344551Y-109093689D03*
X179976551Y-110593689D03*
X179976551Y-109093689D03*
X156608551Y-110593689D03*
X156608551Y-109093689D03*
X133240551Y-110593689D03*
X133240551Y-109093689D03*
X109872551Y-110593689D03*
X109872551Y-109093689D03*
X86504551Y-110593689D03*
X86504551Y-109093689D03*
X63136551Y-110593689D03*
X63136551Y-109093689D03*
X226712551Y-54713689D03*
X226712551Y-53213689D03*
X203344551Y-54713689D03*
X203344551Y-53213689D03*
X179976551Y-54713689D03*
X179976551Y-53213689D03*
X156608551Y-54713689D03*
X156608551Y-53213689D03*
X133240551Y-54713689D03*
X133240551Y-53213689D03*
X109872551Y-54713689D03*
X109872551Y-53213689D03*
X86504551Y-54713689D03*
X86504551Y-53213689D03*
X228998551Y-107037689D03*
X228998551Y-105537689D03*
X205630551Y-107037689D03*
X205630551Y-105537689D03*
X182262551Y-107037689D03*
X182262551Y-105537689D03*
X158894551Y-107037689D03*
X158894551Y-105537689D03*
X135526551Y-107037689D03*
X135526551Y-105537689D03*
X112158551Y-107037689D03*
X112158551Y-105537689D03*
X88790551Y-107037689D03*
X88790551Y-105537689D03*
X65422551Y-107037689D03*
X65422551Y-105537689D03*
X228998551Y-51157689D03*
X228998551Y-49657689D03*
X205630551Y-51157689D03*
X205630551Y-49657689D03*
X182262551Y-51157689D03*
X182262551Y-49657689D03*
X158894551Y-51157689D03*
X158894551Y-49657689D03*
X135526551Y-51157689D03*
X135526551Y-49657689D03*
X112158551Y-51157689D03*
X112158551Y-49657689D03*
X88790551Y-51157689D03*
X88790551Y-49657689D03*
D12*
X231378551Y-107938689D03*
X231378551Y-109208689D03*
X231378551Y-110478689D03*
X231378551Y-111748689D03*
X236778551Y-111748689D03*
X236778551Y-110478689D03*
X236778551Y-109208689D03*
X236778551Y-107938689D03*
X208010551Y-107938689D03*
X208010551Y-109208689D03*
X208010551Y-110478689D03*
X208010551Y-111748689D03*
X213410551Y-111748689D03*
X213410551Y-110478689D03*
X213410551Y-109208689D03*
X213410551Y-107938689D03*
X184642551Y-107938689D03*
X184642551Y-109208689D03*
X184642551Y-110478689D03*
X184642551Y-111748689D03*
X190042551Y-111748689D03*
X190042551Y-110478689D03*
X190042551Y-109208689D03*
X190042551Y-107938689D03*
X161274551Y-107938689D03*
X161274551Y-109208689D03*
X161274551Y-110478689D03*
X161274551Y-111748689D03*
X166674551Y-111748689D03*
X166674551Y-110478689D03*
X166674551Y-109208689D03*
X166674551Y-107938689D03*
X137906551Y-107938689D03*
X137906551Y-109208689D03*
X137906551Y-110478689D03*
X137906551Y-111748689D03*
X143306551Y-111748689D03*
X143306551Y-110478689D03*
X143306551Y-109208689D03*
X143306551Y-107938689D03*
X114538551Y-107938689D03*
X114538551Y-109208689D03*
X114538551Y-110478689D03*
X114538551Y-111748689D03*
X119938551Y-111748689D03*
X119938551Y-110478689D03*
X119938551Y-109208689D03*
X119938551Y-107938689D03*
X91170551Y-107938689D03*
X91170551Y-109208689D03*
X91170551Y-110478689D03*
X91170551Y-111748689D03*
X96570551Y-111748689D03*
X96570551Y-110478689D03*
X96570551Y-109208689D03*
X96570551Y-107938689D03*
X67802551Y-107938689D03*
X67802551Y-109208689D03*
X67802551Y-110478689D03*
X67802551Y-111748689D03*
X73202551Y-111748689D03*
X73202551Y-110478689D03*
X73202551Y-109208689D03*
X73202551Y-107938689D03*
X231378551Y-52058689D03*
X231378551Y-53328689D03*
X231378551Y-54598689D03*
X231378551Y-55868689D03*
X236778551Y-55868689D03*
X236778551Y-54598689D03*
X236778551Y-53328689D03*
X236778551Y-52058689D03*
X208010551Y-52058689D03*
X208010551Y-53328689D03*
X208010551Y-54598689D03*
X208010551Y-55868689D03*
X213410551Y-55868689D03*
X213410551Y-54598689D03*
X213410551Y-53328689D03*
X213410551Y-52058689D03*
X184642551Y-52058689D03*
X184642551Y-53328689D03*
X184642551Y-54598689D03*
X184642551Y-55868689D03*
X190042551Y-55868689D03*
X190042551Y-54598689D03*
X190042551Y-53328689D03*
X190042551Y-52058689D03*
X161274551Y-52058689D03*
X161274551Y-53328689D03*
X161274551Y-54598689D03*
X161274551Y-55868689D03*
X166674551Y-55868689D03*
X166674551Y-54598689D03*
X166674551Y-53328689D03*
X166674551Y-52058689D03*
X137906551Y-52058689D03*
X137906551Y-53328689D03*
X137906551Y-54598689D03*
X137906551Y-55868689D03*
X143306551Y-55868689D03*
X143306551Y-54598689D03*
X143306551Y-53328689D03*
X143306551Y-52058689D03*
X114538551Y-52058689D03*
X114538551Y-53328689D03*
X114538551Y-54598689D03*
X114538551Y-55868689D03*
X119938551Y-55868689D03*
X119938551Y-54598689D03*
X119938551Y-53328689D03*
X119938551Y-52058689D03*
X91170551Y-52058689D03*
X91170551Y-53328689D03*
X91170551Y-54598689D03*
X91170551Y-55868689D03*
X96570551Y-55868689D03*
X96570551Y-54598689D03*
X96570551Y-53328689D03*
X96570551Y-52058689D03*
D13*
X228871551Y-114010689D03*
X228871551Y-112510689D03*
X205503551Y-114010689D03*
X205503551Y-112510689D03*
X182135551Y-114010689D03*
X182135551Y-112510689D03*
X158767551Y-114010689D03*
X158767551Y-112510689D03*
X135399551Y-114010689D03*
X135399551Y-112510689D03*
X112031551Y-114010689D03*
X112031551Y-112510689D03*
X88663551Y-114010689D03*
X88663551Y-112510689D03*
X65295551Y-114010689D03*
X65295551Y-112510689D03*
X228871551Y-58130689D03*
X228871551Y-56630689D03*
X205503551Y-58130689D03*
X205503551Y-56630689D03*
X182135551Y-58130689D03*
X182135551Y-56630689D03*
X158767551Y-58130689D03*
X158767551Y-56630689D03*
X135399551Y-58130689D03*
X135399551Y-56630689D03*
X112031551Y-58130689D03*
X112031551Y-56630689D03*
X88663551Y-58130689D03*
X88663551Y-56630689D03*
X228871551Y-110593689D03*
X228871551Y-109093689D03*
X205503551Y-110593689D03*
X205503551Y-109093689D03*
X182135551Y-110593689D03*
X182135551Y-109093689D03*
X158767551Y-110593689D03*
X158767551Y-109093689D03*
X135399551Y-110593689D03*
X135399551Y-109093689D03*
X112031551Y-110593689D03*
X112031551Y-109093689D03*
X88663551Y-110593689D03*
X88663551Y-109093689D03*
X65295551Y-110593689D03*
X65295551Y-109093689D03*
X228871551Y-54713689D03*
X228871551Y-53213689D03*
X205503551Y-54713689D03*
X205503551Y-53213689D03*
X182135551Y-54713689D03*
X182135551Y-53213689D03*
X158767551Y-54713689D03*
X158767551Y-53213689D03*
X135399551Y-54713689D03*
X135399551Y-53213689D03*
X112031551Y-54713689D03*
X112031551Y-53213689D03*
X88663551Y-54713689D03*
X88663551Y-53213689D03*
D10*
G36*
X239175139Y-127237781D02*
X239952829Y-128015471D01*
X238609383Y-129358917D01*
X237831693Y-128581227D01*
X239175139Y-127237781D01*
X239175139Y-127237781D01*
G37*
G36*
X236560089Y-129852831D02*
X237337779Y-130630521D01*
X235994333Y-131973967D01*
X235216643Y-131196277D01*
X236560089Y-129852831D01*
X236560089Y-129852831D01*
G37*
G36*
X238183719Y-131476461D02*
X238961409Y-132254151D01*
X237617963Y-133597597D01*
X236840273Y-132819907D01*
X238183719Y-131476461D01*
X238183719Y-131476461D01*
G37*
G36*
X240798769Y-128861411D02*
X241576459Y-129639101D01*
X240233013Y-130982547D01*
X239455323Y-130204857D01*
X240798769Y-128861411D01*
X240798769Y-128861411D01*
G37*
G36*
X215807139Y-127237781D02*
X216584829Y-128015471D01*
X215241383Y-129358917D01*
X214463693Y-128581227D01*
X215807139Y-127237781D01*
X215807139Y-127237781D01*
G37*
G36*
X213192089Y-129852831D02*
X213969779Y-130630521D01*
X212626333Y-131973967D01*
X211848643Y-131196277D01*
X213192089Y-129852831D01*
X213192089Y-129852831D01*
G37*
G36*
X214815719Y-131476461D02*
X215593409Y-132254151D01*
X214249963Y-133597597D01*
X213472273Y-132819907D01*
X214815719Y-131476461D01*
X214815719Y-131476461D01*
G37*
G36*
X217430769Y-128861411D02*
X218208459Y-129639101D01*
X216865013Y-130982547D01*
X216087323Y-130204857D01*
X217430769Y-128861411D01*
X217430769Y-128861411D01*
G37*
G36*
X192439139Y-127237781D02*
X193216829Y-128015471D01*
X191873383Y-129358917D01*
X191095693Y-128581227D01*
X192439139Y-127237781D01*
X192439139Y-127237781D01*
G37*
G36*
X189824089Y-129852831D02*
X190601779Y-130630521D01*
X189258333Y-131973967D01*
X188480643Y-131196277D01*
X189824089Y-129852831D01*
X189824089Y-129852831D01*
G37*
G36*
X191447719Y-131476461D02*
X192225409Y-132254151D01*
X190881963Y-133597597D01*
X190104273Y-132819907D01*
X191447719Y-131476461D01*
X191447719Y-131476461D01*
G37*
G36*
X194062769Y-128861411D02*
X194840459Y-129639101D01*
X193497013Y-130982547D01*
X192719323Y-130204857D01*
X194062769Y-128861411D01*
X194062769Y-128861411D01*
G37*
G36*
X169071139Y-127237781D02*
X169848829Y-128015471D01*
X168505383Y-129358917D01*
X167727693Y-128581227D01*
X169071139Y-127237781D01*
X169071139Y-127237781D01*
G37*
G36*
X166456089Y-129852831D02*
X167233779Y-130630521D01*
X165890333Y-131973967D01*
X165112643Y-131196277D01*
X166456089Y-129852831D01*
X166456089Y-129852831D01*
G37*
G36*
X168079719Y-131476461D02*
X168857409Y-132254151D01*
X167513963Y-133597597D01*
X166736273Y-132819907D01*
X168079719Y-131476461D01*
X168079719Y-131476461D01*
G37*
G36*
X170694769Y-128861411D02*
X171472459Y-129639101D01*
X170129013Y-130982547D01*
X169351323Y-130204857D01*
X170694769Y-128861411D01*
X170694769Y-128861411D01*
G37*
G36*
X145703139Y-127237781D02*
X146480829Y-128015471D01*
X145137383Y-129358917D01*
X144359693Y-128581227D01*
X145703139Y-127237781D01*
X145703139Y-127237781D01*
G37*
G36*
X143088089Y-129852831D02*
X143865779Y-130630521D01*
X142522333Y-131973967D01*
X141744643Y-131196277D01*
X143088089Y-129852831D01*
X143088089Y-129852831D01*
G37*
G36*
X144711719Y-131476461D02*
X145489409Y-132254151D01*
X144145963Y-133597597D01*
X143368273Y-132819907D01*
X144711719Y-131476461D01*
X144711719Y-131476461D01*
G37*
G36*
X147326769Y-128861411D02*
X148104459Y-129639101D01*
X146761013Y-130982547D01*
X145983323Y-130204857D01*
X147326769Y-128861411D01*
X147326769Y-128861411D01*
G37*
G36*
X122335139Y-127237781D02*
X123112829Y-128015471D01*
X121769383Y-129358917D01*
X120991693Y-128581227D01*
X122335139Y-127237781D01*
X122335139Y-127237781D01*
G37*
G36*
X119720089Y-129852831D02*
X120497779Y-130630521D01*
X119154333Y-131973967D01*
X118376643Y-131196277D01*
X119720089Y-129852831D01*
X119720089Y-129852831D01*
G37*
G36*
X121343719Y-131476461D02*
X122121409Y-132254151D01*
X120777963Y-133597597D01*
X120000273Y-132819907D01*
X121343719Y-131476461D01*
X121343719Y-131476461D01*
G37*
G36*
X123958769Y-128861411D02*
X124736459Y-129639101D01*
X123393013Y-130982547D01*
X122615323Y-130204857D01*
X123958769Y-128861411D01*
X123958769Y-128861411D01*
G37*
G36*
X98967139Y-127237781D02*
X99744829Y-128015471D01*
X98401383Y-129358917D01*
X97623693Y-128581227D01*
X98967139Y-127237781D01*
X98967139Y-127237781D01*
G37*
G36*
X96352089Y-129852831D02*
X97129779Y-130630521D01*
X95786333Y-131973967D01*
X95008643Y-131196277D01*
X96352089Y-129852831D01*
X96352089Y-129852831D01*
G37*
G36*
X97975719Y-131476461D02*
X98753409Y-132254151D01*
X97409963Y-133597597D01*
X96632273Y-132819907D01*
X97975719Y-131476461D01*
X97975719Y-131476461D01*
G37*
G36*
X100590769Y-128861411D02*
X101368459Y-129639101D01*
X100025013Y-130982547D01*
X99247323Y-130204857D01*
X100590769Y-128861411D01*
X100590769Y-128861411D01*
G37*
G36*
X75599139Y-127237781D02*
X76376829Y-128015471D01*
X75033383Y-129358917D01*
X74255693Y-128581227D01*
X75599139Y-127237781D01*
X75599139Y-127237781D01*
G37*
G36*
X72984089Y-129852831D02*
X73761779Y-130630521D01*
X72418333Y-131973967D01*
X71640643Y-131196277D01*
X72984089Y-129852831D01*
X72984089Y-129852831D01*
G37*
G36*
X74607719Y-131476461D02*
X75385409Y-132254151D01*
X74041963Y-133597597D01*
X73264273Y-132819907D01*
X74607719Y-131476461D01*
X74607719Y-131476461D01*
G37*
G36*
X77222769Y-128861411D02*
X78000459Y-129639101D01*
X76657013Y-130982547D01*
X75879323Y-130204857D01*
X77222769Y-128861411D01*
X77222769Y-128861411D01*
G37*
G36*
X239175139Y-71357781D02*
X239952829Y-72135471D01*
X238609383Y-73478917D01*
X237831693Y-72701227D01*
X239175139Y-71357781D01*
X239175139Y-71357781D01*
G37*
G36*
X236560089Y-73972831D02*
X237337779Y-74750521D01*
X235994333Y-76093967D01*
X235216643Y-75316277D01*
X236560089Y-73972831D01*
X236560089Y-73972831D01*
G37*
G36*
X238183719Y-75596461D02*
X238961409Y-76374151D01*
X237617963Y-77717597D01*
X236840273Y-76939907D01*
X238183719Y-75596461D01*
X238183719Y-75596461D01*
G37*
G36*
X240798769Y-72981411D02*
X241576459Y-73759101D01*
X240233013Y-75102547D01*
X239455323Y-74324857D01*
X240798769Y-72981411D01*
X240798769Y-72981411D01*
G37*
G36*
X215807139Y-71357781D02*
X216584829Y-72135471D01*
X215241383Y-73478917D01*
X214463693Y-72701227D01*
X215807139Y-71357781D01*
X215807139Y-71357781D01*
G37*
G36*
X213192089Y-73972831D02*
X213969779Y-74750521D01*
X212626333Y-76093967D01*
X211848643Y-75316277D01*
X213192089Y-73972831D01*
X213192089Y-73972831D01*
G37*
G36*
X214815719Y-75596461D02*
X215593409Y-76374151D01*
X214249963Y-77717597D01*
X213472273Y-76939907D01*
X214815719Y-75596461D01*
X214815719Y-75596461D01*
G37*
G36*
X217430769Y-72981411D02*
X218208459Y-73759101D01*
X216865013Y-75102547D01*
X216087323Y-74324857D01*
X217430769Y-72981411D01*
X217430769Y-72981411D01*
G37*
G36*
X192439139Y-71357781D02*
X193216829Y-72135471D01*
X191873383Y-73478917D01*
X191095693Y-72701227D01*
X192439139Y-71357781D01*
X192439139Y-71357781D01*
G37*
G36*
X189824089Y-73972831D02*
X190601779Y-74750521D01*
X189258333Y-76093967D01*
X188480643Y-75316277D01*
X189824089Y-73972831D01*
X189824089Y-73972831D01*
G37*
G36*
X191447719Y-75596461D02*
X192225409Y-76374151D01*
X190881963Y-77717597D01*
X190104273Y-76939907D01*
X191447719Y-75596461D01*
X191447719Y-75596461D01*
G37*
G36*
X194062769Y-72981411D02*
X194840459Y-73759101D01*
X193497013Y-75102547D01*
X192719323Y-74324857D01*
X194062769Y-72981411D01*
X194062769Y-72981411D01*
G37*
G36*
X169071139Y-71357781D02*
X169848829Y-72135471D01*
X168505383Y-73478917D01*
X167727693Y-72701227D01*
X169071139Y-71357781D01*
X169071139Y-71357781D01*
G37*
G36*
X166456089Y-73972831D02*
X167233779Y-74750521D01*
X165890333Y-76093967D01*
X165112643Y-75316277D01*
X166456089Y-73972831D01*
X166456089Y-73972831D01*
G37*
G36*
X168079719Y-75596461D02*
X168857409Y-76374151D01*
X167513963Y-77717597D01*
X166736273Y-76939907D01*
X168079719Y-75596461D01*
X168079719Y-75596461D01*
G37*
G36*
X170694769Y-72981411D02*
X171472459Y-73759101D01*
X170129013Y-75102547D01*
X169351323Y-74324857D01*
X170694769Y-72981411D01*
X170694769Y-72981411D01*
G37*
G36*
X145703139Y-71357781D02*
X146480829Y-72135471D01*
X145137383Y-73478917D01*
X144359693Y-72701227D01*
X145703139Y-71357781D01*
X145703139Y-71357781D01*
G37*
G36*
X143088089Y-73972831D02*
X143865779Y-74750521D01*
X142522333Y-76093967D01*
X141744643Y-75316277D01*
X143088089Y-73972831D01*
X143088089Y-73972831D01*
G37*
G36*
X144711719Y-75596461D02*
X145489409Y-76374151D01*
X144145963Y-77717597D01*
X143368273Y-76939907D01*
X144711719Y-75596461D01*
X144711719Y-75596461D01*
G37*
G36*
X147326769Y-72981411D02*
X148104459Y-73759101D01*
X146761013Y-75102547D01*
X145983323Y-74324857D01*
X147326769Y-72981411D01*
X147326769Y-72981411D01*
G37*
G36*
X122335139Y-71357781D02*
X123112829Y-72135471D01*
X121769383Y-73478917D01*
X120991693Y-72701227D01*
X122335139Y-71357781D01*
X122335139Y-71357781D01*
G37*
G36*
X119720089Y-73972831D02*
X120497779Y-74750521D01*
X119154333Y-76093967D01*
X118376643Y-75316277D01*
X119720089Y-73972831D01*
X119720089Y-73972831D01*
G37*
G36*
X121343719Y-75596461D02*
X122121409Y-76374151D01*
X120777963Y-77717597D01*
X120000273Y-76939907D01*
X121343719Y-75596461D01*
X121343719Y-75596461D01*
G37*
G36*
X123958769Y-72981411D02*
X124736459Y-73759101D01*
X123393013Y-75102547D01*
X122615323Y-74324857D01*
X123958769Y-72981411D01*
X123958769Y-72981411D01*
G37*
G36*
X98967139Y-71357781D02*
X99744829Y-72135471D01*
X98401383Y-73478917D01*
X97623693Y-72701227D01*
X98967139Y-71357781D01*
X98967139Y-71357781D01*
G37*
G36*
X96352089Y-73972831D02*
X97129779Y-74750521D01*
X95786333Y-76093967D01*
X95008643Y-75316277D01*
X96352089Y-73972831D01*
X96352089Y-73972831D01*
G37*
G36*
X97975719Y-75596461D02*
X98753409Y-76374151D01*
X97409963Y-77717597D01*
X96632273Y-76939907D01*
X97975719Y-75596461D01*
X97975719Y-75596461D01*
G37*
G36*
X100590769Y-72981411D02*
X101368459Y-73759101D01*
X100025013Y-75102547D01*
X99247323Y-74324857D01*
X100590769Y-72981411D01*
X100590769Y-72981411D01*
G37*
G36*
X228608246Y-132949780D02*
X229244642Y-132313384D01*
X229598196Y-132666938D01*
X228961800Y-133303334D01*
X228608246Y-132949780D01*
X228608246Y-132949780D01*
G37*
G36*
X229668906Y-134010440D02*
X230305302Y-133374044D01*
X230658856Y-133727598D01*
X230022460Y-134363994D01*
X229668906Y-134010440D01*
X229668906Y-134010440D01*
G37*
G36*
X205240246Y-132949780D02*
X205876642Y-132313384D01*
X206230196Y-132666938D01*
X205593800Y-133303334D01*
X205240246Y-132949780D01*
X205240246Y-132949780D01*
G37*
G36*
X206300906Y-134010440D02*
X206937302Y-133374044D01*
X207290856Y-133727598D01*
X206654460Y-134363994D01*
X206300906Y-134010440D01*
X206300906Y-134010440D01*
G37*
G36*
X181872246Y-132949780D02*
X182508642Y-132313384D01*
X182862196Y-132666938D01*
X182225800Y-133303334D01*
X181872246Y-132949780D01*
X181872246Y-132949780D01*
G37*
G36*
X182932906Y-134010440D02*
X183569302Y-133374044D01*
X183922856Y-133727598D01*
X183286460Y-134363994D01*
X182932906Y-134010440D01*
X182932906Y-134010440D01*
G37*
G36*
X158504246Y-132949780D02*
X159140642Y-132313384D01*
X159494196Y-132666938D01*
X158857800Y-133303334D01*
X158504246Y-132949780D01*
X158504246Y-132949780D01*
G37*
G36*
X159564906Y-134010440D02*
X160201302Y-133374044D01*
X160554856Y-133727598D01*
X159918460Y-134363994D01*
X159564906Y-134010440D01*
X159564906Y-134010440D01*
G37*
G36*
X135136246Y-132949780D02*
X135772642Y-132313384D01*
X136126196Y-132666938D01*
X135489800Y-133303334D01*
X135136246Y-132949780D01*
X135136246Y-132949780D01*
G37*
G36*
X136196906Y-134010440D02*
X136833302Y-133374044D01*
X137186856Y-133727598D01*
X136550460Y-134363994D01*
X136196906Y-134010440D01*
X136196906Y-134010440D01*
G37*
G36*
X111768246Y-132949780D02*
X112404642Y-132313384D01*
X112758196Y-132666938D01*
X112121800Y-133303334D01*
X111768246Y-132949780D01*
X111768246Y-132949780D01*
G37*
G36*
X112828906Y-134010440D02*
X113465302Y-133374044D01*
X113818856Y-133727598D01*
X113182460Y-134363994D01*
X112828906Y-134010440D01*
X112828906Y-134010440D01*
G37*
G36*
X88400246Y-132949780D02*
X89036642Y-132313384D01*
X89390196Y-132666938D01*
X88753800Y-133303334D01*
X88400246Y-132949780D01*
X88400246Y-132949780D01*
G37*
G36*
X89460906Y-134010440D02*
X90097302Y-133374044D01*
X90450856Y-133727598D01*
X89814460Y-134363994D01*
X89460906Y-134010440D01*
X89460906Y-134010440D01*
G37*
G36*
X65032246Y-132949780D02*
X65668642Y-132313384D01*
X66022196Y-132666938D01*
X65385800Y-133303334D01*
X65032246Y-132949780D01*
X65032246Y-132949780D01*
G37*
G36*
X66092906Y-134010440D02*
X66729302Y-133374044D01*
X67082856Y-133727598D01*
X66446460Y-134363994D01*
X66092906Y-134010440D01*
X66092906Y-134010440D01*
G37*
G36*
X228608246Y-77069780D02*
X229244642Y-76433384D01*
X229598196Y-76786938D01*
X228961800Y-77423334D01*
X228608246Y-77069780D01*
X228608246Y-77069780D01*
G37*
G36*
X229668906Y-78130440D02*
X230305302Y-77494044D01*
X230658856Y-77847598D01*
X230022460Y-78483994D01*
X229668906Y-78130440D01*
X229668906Y-78130440D01*
G37*
G36*
X205240246Y-77069780D02*
X205876642Y-76433384D01*
X206230196Y-76786938D01*
X205593800Y-77423334D01*
X205240246Y-77069780D01*
X205240246Y-77069780D01*
G37*
G36*
X206300906Y-78130440D02*
X206937302Y-77494044D01*
X207290856Y-77847598D01*
X206654460Y-78483994D01*
X206300906Y-78130440D01*
X206300906Y-78130440D01*
G37*
G36*
X181872246Y-77069780D02*
X182508642Y-76433384D01*
X182862196Y-76786938D01*
X182225800Y-77423334D01*
X181872246Y-77069780D01*
X181872246Y-77069780D01*
G37*
G36*
X182932906Y-78130440D02*
X183569302Y-77494044D01*
X183922856Y-77847598D01*
X183286460Y-78483994D01*
X182932906Y-78130440D01*
X182932906Y-78130440D01*
G37*
G36*
X158504246Y-77069780D02*
X159140642Y-76433384D01*
X159494196Y-76786938D01*
X158857800Y-77423334D01*
X158504246Y-77069780D01*
X158504246Y-77069780D01*
G37*
G36*
X159564906Y-78130440D02*
X160201302Y-77494044D01*
X160554856Y-77847598D01*
X159918460Y-78483994D01*
X159564906Y-78130440D01*
X159564906Y-78130440D01*
G37*
G36*
X135136246Y-77069780D02*
X135772642Y-76433384D01*
X136126196Y-76786938D01*
X135489800Y-77423334D01*
X135136246Y-77069780D01*
X135136246Y-77069780D01*
G37*
G36*
X136196906Y-78130440D02*
X136833302Y-77494044D01*
X137186856Y-77847598D01*
X136550460Y-78483994D01*
X136196906Y-78130440D01*
X136196906Y-78130440D01*
G37*
G36*
X111768246Y-77069780D02*
X112404642Y-76433384D01*
X112758196Y-76786938D01*
X112121800Y-77423334D01*
X111768246Y-77069780D01*
X111768246Y-77069780D01*
G37*
G36*
X112828906Y-78130440D02*
X113465302Y-77494044D01*
X113818856Y-77847598D01*
X113182460Y-78483994D01*
X112828906Y-78130440D01*
X112828906Y-78130440D01*
G37*
G36*
X88400246Y-77069780D02*
X89036642Y-76433384D01*
X89390196Y-76786938D01*
X88753800Y-77423334D01*
X88400246Y-77069780D01*
X88400246Y-77069780D01*
G37*
G36*
X89460906Y-78130440D02*
X90097302Y-77494044D01*
X90450856Y-77847598D01*
X89814460Y-78483994D01*
X89460906Y-78130440D01*
X89460906Y-78130440D01*
G37*
G36*
X235239229Y-133080037D02*
X234708899Y-133610367D01*
X234143213Y-133044681D01*
X234673543Y-132514351D01*
X235239229Y-133080037D01*
X235239229Y-133080037D01*
G37*
G36*
X236299889Y-134140697D02*
X235769559Y-134671027D01*
X235203873Y-134105341D01*
X235734203Y-133575011D01*
X236299889Y-134140697D01*
X236299889Y-134140697D01*
G37*
G36*
X211871229Y-133080037D02*
X211340899Y-133610367D01*
X210775213Y-133044681D01*
X211305543Y-132514351D01*
X211871229Y-133080037D01*
X211871229Y-133080037D01*
G37*
G36*
X212931889Y-134140697D02*
X212401559Y-134671027D01*
X211835873Y-134105341D01*
X212366203Y-133575011D01*
X212931889Y-134140697D01*
X212931889Y-134140697D01*
G37*
G36*
X188503229Y-133080037D02*
X187972899Y-133610367D01*
X187407213Y-133044681D01*
X187937543Y-132514351D01*
X188503229Y-133080037D01*
X188503229Y-133080037D01*
G37*
G36*
X189563889Y-134140697D02*
X189033559Y-134671027D01*
X188467873Y-134105341D01*
X188998203Y-133575011D01*
X189563889Y-134140697D01*
X189563889Y-134140697D01*
G37*
G36*
X165135229Y-133080037D02*
X164604899Y-133610367D01*
X164039213Y-133044681D01*
X164569543Y-132514351D01*
X165135229Y-133080037D01*
X165135229Y-133080037D01*
G37*
G36*
X166195889Y-134140697D02*
X165665559Y-134671027D01*
X165099873Y-134105341D01*
X165630203Y-133575011D01*
X166195889Y-134140697D01*
X166195889Y-134140697D01*
G37*
G36*
X141767229Y-133080037D02*
X141236899Y-133610367D01*
X140671213Y-133044681D01*
X141201543Y-132514351D01*
X141767229Y-133080037D01*
X141767229Y-133080037D01*
G37*
G36*
X142827889Y-134140697D02*
X142297559Y-134671027D01*
X141731873Y-134105341D01*
X142262203Y-133575011D01*
X142827889Y-134140697D01*
X142827889Y-134140697D01*
G37*
G36*
X118399229Y-133080037D02*
X117868899Y-133610367D01*
X117303213Y-133044681D01*
X117833543Y-132514351D01*
X118399229Y-133080037D01*
X118399229Y-133080037D01*
G37*
G36*
X119459889Y-134140697D02*
X118929559Y-134671027D01*
X118363873Y-134105341D01*
X118894203Y-133575011D01*
X119459889Y-134140697D01*
X119459889Y-134140697D01*
G37*
G36*
X95031229Y-133080037D02*
X94500899Y-133610367D01*
X93935213Y-133044681D01*
X94465543Y-132514351D01*
X95031229Y-133080037D01*
X95031229Y-133080037D01*
G37*
G36*
X96091889Y-134140697D02*
X95561559Y-134671027D01*
X94995873Y-134105341D01*
X95526203Y-133575011D01*
X96091889Y-134140697D01*
X96091889Y-134140697D01*
G37*
G36*
X71663229Y-133080037D02*
X71132899Y-133610367D01*
X70567213Y-133044681D01*
X71097543Y-132514351D01*
X71663229Y-133080037D01*
X71663229Y-133080037D01*
G37*
G36*
X72723889Y-134140697D02*
X72193559Y-134671027D01*
X71627873Y-134105341D01*
X72158203Y-133575011D01*
X72723889Y-134140697D01*
X72723889Y-134140697D01*
G37*
G36*
X235239229Y-77200037D02*
X234708899Y-77730367D01*
X234143213Y-77164681D01*
X234673543Y-76634351D01*
X235239229Y-77200037D01*
X235239229Y-77200037D01*
G37*
G36*
X236299889Y-78260697D02*
X235769559Y-78791027D01*
X235203873Y-78225341D01*
X235734203Y-77695011D01*
X236299889Y-78260697D01*
X236299889Y-78260697D01*
G37*
G36*
X211871229Y-77200037D02*
X211340899Y-77730367D01*
X210775213Y-77164681D01*
X211305543Y-76634351D01*
X211871229Y-77200037D01*
X211871229Y-77200037D01*
G37*
G36*
X212931889Y-78260697D02*
X212401559Y-78791027D01*
X211835873Y-78225341D01*
X212366203Y-77695011D01*
X212931889Y-78260697D01*
X212931889Y-78260697D01*
G37*
G36*
X188503229Y-77200037D02*
X187972899Y-77730367D01*
X187407213Y-77164681D01*
X187937543Y-76634351D01*
X188503229Y-77200037D01*
X188503229Y-77200037D01*
G37*
G36*
X189563889Y-78260697D02*
X189033559Y-78791027D01*
X188467873Y-78225341D01*
X188998203Y-77695011D01*
X189563889Y-78260697D01*
X189563889Y-78260697D01*
G37*
G36*
X165135229Y-77200037D02*
X164604899Y-77730367D01*
X164039213Y-77164681D01*
X164569543Y-76634351D01*
X165135229Y-77200037D01*
X165135229Y-77200037D01*
G37*
G36*
X166195889Y-78260697D02*
X165665559Y-78791027D01*
X165099873Y-78225341D01*
X165630203Y-77695011D01*
X166195889Y-78260697D01*
X166195889Y-78260697D01*
G37*
G36*
X141767229Y-77200037D02*
X141236899Y-77730367D01*
X140671213Y-77164681D01*
X141201543Y-76634351D01*
X141767229Y-77200037D01*
X141767229Y-77200037D01*
G37*
G36*
X142827889Y-78260697D02*
X142297559Y-78791027D01*
X141731873Y-78225341D01*
X142262203Y-77695011D01*
X142827889Y-78260697D01*
X142827889Y-78260697D01*
G37*
G36*
X118399229Y-77200037D02*
X117868899Y-77730367D01*
X117303213Y-77164681D01*
X117833543Y-76634351D01*
X118399229Y-77200037D01*
X118399229Y-77200037D01*
G37*
G36*
X119459889Y-78260697D02*
X118929559Y-78791027D01*
X118363873Y-78225341D01*
X118894203Y-77695011D01*
X119459889Y-78260697D01*
X119459889Y-78260697D01*
G37*
G36*
X95031229Y-77200037D02*
X94500899Y-77730367D01*
X93935213Y-77164681D01*
X94465543Y-76634351D01*
X95031229Y-77200037D01*
X95031229Y-77200037D01*
G37*
G36*
X96091889Y-78260697D02*
X95561559Y-78791027D01*
X94995873Y-78225341D01*
X95526203Y-77695011D01*
X96091889Y-78260697D01*
X96091889Y-78260697D01*
G37*
G36*
X241426873Y-127628341D02*
X241957203Y-127098011D01*
X242522889Y-127663697D01*
X241992559Y-128194027D01*
X241426873Y-127628341D01*
X241426873Y-127628341D01*
G37*
G36*
X240366213Y-126567681D02*
X240896543Y-126037351D01*
X241462229Y-126603037D01*
X240931899Y-127133367D01*
X240366213Y-126567681D01*
X240366213Y-126567681D01*
G37*
G36*
X218058873Y-127628341D02*
X218589203Y-127098011D01*
X219154889Y-127663697D01*
X218624559Y-128194027D01*
X218058873Y-127628341D01*
X218058873Y-127628341D01*
G37*
G36*
X216998213Y-126567681D02*
X217528543Y-126037351D01*
X218094229Y-126603037D01*
X217563899Y-127133367D01*
X216998213Y-126567681D01*
X216998213Y-126567681D01*
G37*
G36*
X194690873Y-127628341D02*
X195221203Y-127098011D01*
X195786889Y-127663697D01*
X195256559Y-128194027D01*
X194690873Y-127628341D01*
X194690873Y-127628341D01*
G37*
G36*
X193630213Y-126567681D02*
X194160543Y-126037351D01*
X194726229Y-126603037D01*
X194195899Y-127133367D01*
X193630213Y-126567681D01*
X193630213Y-126567681D01*
G37*
G36*
X171322873Y-127628341D02*
X171853203Y-127098011D01*
X172418889Y-127663697D01*
X171888559Y-128194027D01*
X171322873Y-127628341D01*
X171322873Y-127628341D01*
G37*
G36*
X170262213Y-126567681D02*
X170792543Y-126037351D01*
X171358229Y-126603037D01*
X170827899Y-127133367D01*
X170262213Y-126567681D01*
X170262213Y-126567681D01*
G37*
G36*
X147954873Y-127628341D02*
X148485203Y-127098011D01*
X149050889Y-127663697D01*
X148520559Y-128194027D01*
X147954873Y-127628341D01*
X147954873Y-127628341D01*
G37*
G36*
X146894213Y-126567681D02*
X147424543Y-126037351D01*
X147990229Y-126603037D01*
X147459899Y-127133367D01*
X146894213Y-126567681D01*
X146894213Y-126567681D01*
G37*
G36*
X124586873Y-127628341D02*
X125117203Y-127098011D01*
X125682889Y-127663697D01*
X125152559Y-128194027D01*
X124586873Y-127628341D01*
X124586873Y-127628341D01*
G37*
G36*
X123526213Y-126567681D02*
X124056543Y-126037351D01*
X124622229Y-126603037D01*
X124091899Y-127133367D01*
X123526213Y-126567681D01*
X123526213Y-126567681D01*
G37*
G36*
X101218873Y-127628341D02*
X101749203Y-127098011D01*
X102314889Y-127663697D01*
X101784559Y-128194027D01*
X101218873Y-127628341D01*
X101218873Y-127628341D01*
G37*
G36*
X100158213Y-126567681D02*
X100688543Y-126037351D01*
X101254229Y-126603037D01*
X100723899Y-127133367D01*
X100158213Y-126567681D01*
X100158213Y-126567681D01*
G37*
G36*
X77850873Y-127628341D02*
X78381203Y-127098011D01*
X78946889Y-127663697D01*
X78416559Y-128194027D01*
X77850873Y-127628341D01*
X77850873Y-127628341D01*
G37*
G36*
X76790213Y-126567681D02*
X77320543Y-126037351D01*
X77886229Y-126603037D01*
X77355899Y-127133367D01*
X76790213Y-126567681D01*
X76790213Y-126567681D01*
G37*
G36*
X241426873Y-71748341D02*
X241957203Y-71218011D01*
X242522889Y-71783697D01*
X241992559Y-72314027D01*
X241426873Y-71748341D01*
X241426873Y-71748341D01*
G37*
G36*
X240366213Y-70687681D02*
X240896543Y-70157351D01*
X241462229Y-70723037D01*
X240931899Y-71253367D01*
X240366213Y-70687681D01*
X240366213Y-70687681D01*
G37*
G36*
X218058873Y-71748341D02*
X218589203Y-71218011D01*
X219154889Y-71783697D01*
X218624559Y-72314027D01*
X218058873Y-71748341D01*
X218058873Y-71748341D01*
G37*
G36*
X216998213Y-70687681D02*
X217528543Y-70157351D01*
X218094229Y-70723037D01*
X217563899Y-71253367D01*
X216998213Y-70687681D01*
X216998213Y-70687681D01*
G37*
G36*
X194690873Y-71748341D02*
X195221203Y-71218011D01*
X195786889Y-71783697D01*
X195256559Y-72314027D01*
X194690873Y-71748341D01*
X194690873Y-71748341D01*
G37*
G36*
X193630213Y-70687681D02*
X194160543Y-70157351D01*
X194726229Y-70723037D01*
X194195899Y-71253367D01*
X193630213Y-70687681D01*
X193630213Y-70687681D01*
G37*
G36*
X171322873Y-71748341D02*
X171853203Y-71218011D01*
X172418889Y-71783697D01*
X171888559Y-72314027D01*
X171322873Y-71748341D01*
X171322873Y-71748341D01*
G37*
G36*
X170262213Y-70687681D02*
X170792543Y-70157351D01*
X171358229Y-70723037D01*
X170827899Y-71253367D01*
X170262213Y-70687681D01*
X170262213Y-70687681D01*
G37*
G36*
X147954873Y-71748341D02*
X148485203Y-71218011D01*
X149050889Y-71783697D01*
X148520559Y-72314027D01*
X147954873Y-71748341D01*
X147954873Y-71748341D01*
G37*
G36*
X146894213Y-70687681D02*
X147424543Y-70157351D01*
X147990229Y-70723037D01*
X147459899Y-71253367D01*
X146894213Y-70687681D01*
X146894213Y-70687681D01*
G37*
G36*
X124586873Y-71748341D02*
X125117203Y-71218011D01*
X125682889Y-71783697D01*
X125152559Y-72314027D01*
X124586873Y-71748341D01*
X124586873Y-71748341D01*
G37*
G36*
X123526213Y-70687681D02*
X124056543Y-70157351D01*
X124622229Y-70723037D01*
X124091899Y-71253367D01*
X123526213Y-70687681D01*
X123526213Y-70687681D01*
G37*
G36*
X101218873Y-71748341D02*
X101749203Y-71218011D01*
X102314889Y-71783697D01*
X101784559Y-72314027D01*
X101218873Y-71748341D01*
X101218873Y-71748341D01*
G37*
G36*
X100158213Y-70687681D02*
X100688543Y-70157351D01*
X101254229Y-70723037D01*
X100723899Y-71253367D01*
X100158213Y-70687681D01*
X100158213Y-70687681D01*
G37*
G36*
X223405899Y-119478011D02*
X223936229Y-120008341D01*
X223370543Y-120574027D01*
X222840213Y-120043697D01*
X223405899Y-119478011D01*
X223405899Y-119478011D01*
G37*
G36*
X224466559Y-118417351D02*
X224996889Y-118947681D01*
X224431203Y-119513367D01*
X223900873Y-118983037D01*
X224466559Y-118417351D01*
X224466559Y-118417351D01*
G37*
G36*
X200037899Y-119478011D02*
X200568229Y-120008341D01*
X200002543Y-120574027D01*
X199472213Y-120043697D01*
X200037899Y-119478011D01*
X200037899Y-119478011D01*
G37*
G36*
X201098559Y-118417351D02*
X201628889Y-118947681D01*
X201063203Y-119513367D01*
X200532873Y-118983037D01*
X201098559Y-118417351D01*
X201098559Y-118417351D01*
G37*
G36*
X176669899Y-119478011D02*
X177200229Y-120008341D01*
X176634543Y-120574027D01*
X176104213Y-120043697D01*
X176669899Y-119478011D01*
X176669899Y-119478011D01*
G37*
G36*
X177730559Y-118417351D02*
X178260889Y-118947681D01*
X177695203Y-119513367D01*
X177164873Y-118983037D01*
X177730559Y-118417351D01*
X177730559Y-118417351D01*
G37*
G36*
X153301899Y-119478011D02*
X153832229Y-120008341D01*
X153266543Y-120574027D01*
X152736213Y-120043697D01*
X153301899Y-119478011D01*
X153301899Y-119478011D01*
G37*
G36*
X154362559Y-118417351D02*
X154892889Y-118947681D01*
X154327203Y-119513367D01*
X153796873Y-118983037D01*
X154362559Y-118417351D01*
X154362559Y-118417351D01*
G37*
G36*
X129933899Y-119478011D02*
X130464229Y-120008341D01*
X129898543Y-120574027D01*
X129368213Y-120043697D01*
X129933899Y-119478011D01*
X129933899Y-119478011D01*
G37*
G36*
X130994559Y-118417351D02*
X131524889Y-118947681D01*
X130959203Y-119513367D01*
X130428873Y-118983037D01*
X130994559Y-118417351D01*
X130994559Y-118417351D01*
G37*
G36*
X106565899Y-119478011D02*
X107096229Y-120008341D01*
X106530543Y-120574027D01*
X106000213Y-120043697D01*
X106565899Y-119478011D01*
X106565899Y-119478011D01*
G37*
G36*
X107626559Y-118417351D02*
X108156889Y-118947681D01*
X107591203Y-119513367D01*
X107060873Y-118983037D01*
X107626559Y-118417351D01*
X107626559Y-118417351D01*
G37*
G36*
X83197899Y-119478011D02*
X83728229Y-120008341D01*
X83162543Y-120574027D01*
X82632213Y-120043697D01*
X83197899Y-119478011D01*
X83197899Y-119478011D01*
G37*
G36*
X84258559Y-118417351D02*
X84788889Y-118947681D01*
X84223203Y-119513367D01*
X83692873Y-118983037D01*
X84258559Y-118417351D01*
X84258559Y-118417351D01*
G37*
G36*
X59829899Y-119478011D02*
X60360229Y-120008341D01*
X59794543Y-120574027D01*
X59264213Y-120043697D01*
X59829899Y-119478011D01*
X59829899Y-119478011D01*
G37*
G36*
X60890559Y-118417351D02*
X61420889Y-118947681D01*
X60855203Y-119513367D01*
X60324873Y-118983037D01*
X60890559Y-118417351D01*
X60890559Y-118417351D01*
G37*
G36*
X223405899Y-63598011D02*
X223936229Y-64128341D01*
X223370543Y-64694027D01*
X222840213Y-64163697D01*
X223405899Y-63598011D01*
X223405899Y-63598011D01*
G37*
G36*
X224466559Y-62537351D02*
X224996889Y-63067681D01*
X224431203Y-63633367D01*
X223900873Y-63103037D01*
X224466559Y-62537351D01*
X224466559Y-62537351D01*
G37*
G36*
X200037899Y-63598011D02*
X200568229Y-64128341D01*
X200002543Y-64694027D01*
X199472213Y-64163697D01*
X200037899Y-63598011D01*
X200037899Y-63598011D01*
G37*
G36*
X201098559Y-62537351D02*
X201628889Y-63067681D01*
X201063203Y-63633367D01*
X200532873Y-63103037D01*
X201098559Y-62537351D01*
X201098559Y-62537351D01*
G37*
G36*
X176669899Y-63598011D02*
X177200229Y-64128341D01*
X176634543Y-64694027D01*
X176104213Y-64163697D01*
X176669899Y-63598011D01*
X176669899Y-63598011D01*
G37*
G36*
X177730559Y-62537351D02*
X178260889Y-63067681D01*
X177695203Y-63633367D01*
X177164873Y-63103037D01*
X177730559Y-62537351D01*
X177730559Y-62537351D01*
G37*
G36*
X153301899Y-63598011D02*
X153832229Y-64128341D01*
X153266543Y-64694027D01*
X152736213Y-64163697D01*
X153301899Y-63598011D01*
X153301899Y-63598011D01*
G37*
G36*
X154362559Y-62537351D02*
X154892889Y-63067681D01*
X154327203Y-63633367D01*
X153796873Y-63103037D01*
X154362559Y-62537351D01*
X154362559Y-62537351D01*
G37*
G36*
X129933899Y-63598011D02*
X130464229Y-64128341D01*
X129898543Y-64694027D01*
X129368213Y-64163697D01*
X129933899Y-63598011D01*
X129933899Y-63598011D01*
G37*
G36*
X130994559Y-62537351D02*
X131524889Y-63067681D01*
X130959203Y-63633367D01*
X130428873Y-63103037D01*
X130994559Y-62537351D01*
X130994559Y-62537351D01*
G37*
G36*
X106565899Y-63598011D02*
X107096229Y-64128341D01*
X106530543Y-64694027D01*
X106000213Y-64163697D01*
X106565899Y-63598011D01*
X106565899Y-63598011D01*
G37*
G36*
X107626559Y-62537351D02*
X108156889Y-63067681D01*
X107591203Y-63633367D01*
X107060873Y-63103037D01*
X107626559Y-62537351D01*
X107626559Y-62537351D01*
G37*
G36*
X83197899Y-63598011D02*
X83728229Y-64128341D01*
X83162543Y-64694027D01*
X82632213Y-64163697D01*
X83197899Y-63598011D01*
X83197899Y-63598011D01*
G37*
G36*
X84258559Y-62537351D02*
X84788889Y-63067681D01*
X84223203Y-63633367D01*
X83692873Y-63103037D01*
X84258559Y-62537351D01*
X84258559Y-62537351D01*
G37*
G36*
X223034203Y-127269671D02*
X223564533Y-126739341D01*
X224130219Y-127305027D01*
X223599889Y-127835357D01*
X223034203Y-127269671D01*
X223034203Y-127269671D01*
G37*
G36*
X221973543Y-126209011D02*
X222503873Y-125678681D01*
X223069559Y-126244367D01*
X222539229Y-126774697D01*
X221973543Y-126209011D01*
X221973543Y-126209011D01*
G37*
G36*
X199666203Y-127269671D02*
X200196533Y-126739341D01*
X200762219Y-127305027D01*
X200231889Y-127835357D01*
X199666203Y-127269671D01*
X199666203Y-127269671D01*
G37*
G36*
X198605543Y-126209011D02*
X199135873Y-125678681D01*
X199701559Y-126244367D01*
X199171229Y-126774697D01*
X198605543Y-126209011D01*
X198605543Y-126209011D01*
G37*
G36*
X176298203Y-127269671D02*
X176828533Y-126739341D01*
X177394219Y-127305027D01*
X176863889Y-127835357D01*
X176298203Y-127269671D01*
X176298203Y-127269671D01*
G37*
G36*
X175237543Y-126209011D02*
X175767873Y-125678681D01*
X176333559Y-126244367D01*
X175803229Y-126774697D01*
X175237543Y-126209011D01*
X175237543Y-126209011D01*
G37*
G36*
X152930203Y-127269671D02*
X153460533Y-126739341D01*
X154026219Y-127305027D01*
X153495889Y-127835357D01*
X152930203Y-127269671D01*
X152930203Y-127269671D01*
G37*
G36*
X151869543Y-126209011D02*
X152399873Y-125678681D01*
X152965559Y-126244367D01*
X152435229Y-126774697D01*
X151869543Y-126209011D01*
X151869543Y-126209011D01*
G37*
G36*
X129562203Y-127269671D02*
X130092533Y-126739341D01*
X130658219Y-127305027D01*
X130127889Y-127835357D01*
X129562203Y-127269671D01*
X129562203Y-127269671D01*
G37*
G36*
X128501543Y-126209011D02*
X129031873Y-125678681D01*
X129597559Y-126244367D01*
X129067229Y-126774697D01*
X128501543Y-126209011D01*
X128501543Y-126209011D01*
G37*
G36*
X106194203Y-127269671D02*
X106724533Y-126739341D01*
X107290219Y-127305027D01*
X106759889Y-127835357D01*
X106194203Y-127269671D01*
X106194203Y-127269671D01*
G37*
G36*
X105133543Y-126209011D02*
X105663873Y-125678681D01*
X106229559Y-126244367D01*
X105699229Y-126774697D01*
X105133543Y-126209011D01*
X105133543Y-126209011D01*
G37*
G36*
X82826203Y-127269671D02*
X83356533Y-126739341D01*
X83922219Y-127305027D01*
X83391889Y-127835357D01*
X82826203Y-127269671D01*
X82826203Y-127269671D01*
G37*
G36*
X81765543Y-126209011D02*
X82295873Y-125678681D01*
X82861559Y-126244367D01*
X82331229Y-126774697D01*
X81765543Y-126209011D01*
X81765543Y-126209011D01*
G37*
G36*
X59458203Y-127269671D02*
X59988533Y-126739341D01*
X60554219Y-127305027D01*
X60023889Y-127835357D01*
X59458203Y-127269671D01*
X59458203Y-127269671D01*
G37*
G36*
X58397543Y-126209011D02*
X58927873Y-125678681D01*
X59493559Y-126244367D01*
X58963229Y-126774697D01*
X58397543Y-126209011D01*
X58397543Y-126209011D01*
G37*
G36*
X223034203Y-71389671D02*
X223564533Y-70859341D01*
X224130219Y-71425027D01*
X223599889Y-71955357D01*
X223034203Y-71389671D01*
X223034203Y-71389671D01*
G37*
G36*
X221973543Y-70329011D02*
X222503873Y-69798681D01*
X223069559Y-70364367D01*
X222539229Y-70894697D01*
X221973543Y-70329011D01*
X221973543Y-70329011D01*
G37*
G36*
X199666203Y-71389671D02*
X200196533Y-70859341D01*
X200762219Y-71425027D01*
X200231889Y-71955357D01*
X199666203Y-71389671D01*
X199666203Y-71389671D01*
G37*
G36*
X198605543Y-70329011D02*
X199135873Y-69798681D01*
X199701559Y-70364367D01*
X199171229Y-70894697D01*
X198605543Y-70329011D01*
X198605543Y-70329011D01*
G37*
G36*
X176298203Y-71389671D02*
X176828533Y-70859341D01*
X177394219Y-71425027D01*
X176863889Y-71955357D01*
X176298203Y-71389671D01*
X176298203Y-71389671D01*
G37*
G36*
X175237543Y-70329011D02*
X175767873Y-69798681D01*
X176333559Y-70364367D01*
X175803229Y-70894697D01*
X175237543Y-70329011D01*
X175237543Y-70329011D01*
G37*
G36*
X152930203Y-71389671D02*
X153460533Y-70859341D01*
X154026219Y-71425027D01*
X153495889Y-71955357D01*
X152930203Y-71389671D01*
X152930203Y-71389671D01*
G37*
G36*
X151869543Y-70329011D02*
X152399873Y-69798681D01*
X152965559Y-70364367D01*
X152435229Y-70894697D01*
X151869543Y-70329011D01*
X151869543Y-70329011D01*
G37*
G36*
X129562203Y-71389671D02*
X130092533Y-70859341D01*
X130658219Y-71425027D01*
X130127889Y-71955357D01*
X129562203Y-71389671D01*
X129562203Y-71389671D01*
G37*
G36*
X128501543Y-70329011D02*
X129031873Y-69798681D01*
X129597559Y-70364367D01*
X129067229Y-70894697D01*
X128501543Y-70329011D01*
X128501543Y-70329011D01*
G37*
G36*
X106194203Y-71389671D02*
X106724533Y-70859341D01*
X107290219Y-71425027D01*
X106759889Y-71955357D01*
X106194203Y-71389671D01*
X106194203Y-71389671D01*
G37*
G36*
X105133543Y-70329011D02*
X105663873Y-69798681D01*
X106229559Y-70364367D01*
X105699229Y-70894697D01*
X105133543Y-70329011D01*
X105133543Y-70329011D01*
G37*
G36*
X82826203Y-71389671D02*
X83356533Y-70859341D01*
X83922219Y-71425027D01*
X83391889Y-71955357D01*
X82826203Y-71389671D01*
X82826203Y-71389671D01*
G37*
G36*
X81765543Y-70329011D02*
X82295873Y-69798681D01*
X82861559Y-70364367D01*
X82331229Y-70894697D01*
X81765543Y-70329011D01*
X81765543Y-70329011D01*
G37*
G36*
X224638359Y-125411937D02*
X224286333Y-125059911D01*
X225346003Y-124000241D01*
X225698029Y-124352267D01*
X224638359Y-125411937D01*
X224638359Y-125411937D01*
G37*
G36*
X225204116Y-125977693D02*
X224852090Y-125625667D01*
X225911760Y-124565997D01*
X226263786Y-124918023D01*
X225204116Y-125977693D01*
X225204116Y-125977693D01*
G37*
G36*
X225769872Y-126543450D02*
X225417846Y-126191424D01*
X226477516Y-125131754D01*
X226829542Y-125483780D01*
X225769872Y-126543450D01*
X225769872Y-126543450D01*
G37*
G36*
X226335628Y-127109206D02*
X225983602Y-126757180D01*
X227043272Y-125697510D01*
X227395298Y-126049536D01*
X226335628Y-127109206D01*
X226335628Y-127109206D01*
G37*
G36*
X226901384Y-127674962D02*
X226549358Y-127322936D01*
X227609028Y-126263266D01*
X227961054Y-126615292D01*
X226901384Y-127674962D01*
X226901384Y-127674962D01*
G37*
G36*
X227465344Y-128238922D02*
X227113318Y-127886896D01*
X228172988Y-126827226D01*
X228525014Y-127179252D01*
X227465344Y-128238922D01*
X227465344Y-128238922D01*
G37*
G36*
X228029304Y-128802882D02*
X227677278Y-128450856D01*
X228736948Y-127391186D01*
X229088974Y-127743212D01*
X228029304Y-128802882D01*
X228029304Y-128802882D01*
G37*
G36*
X228595060Y-129368638D02*
X228243034Y-129016612D01*
X229302704Y-127956942D01*
X229654730Y-128308968D01*
X228595060Y-129368638D01*
X228595060Y-129368638D01*
G37*
G36*
X229160816Y-129934394D02*
X228808790Y-129582368D01*
X229868460Y-128522698D01*
X230220486Y-128874724D01*
X229160816Y-129934394D01*
X229160816Y-129934394D01*
G37*
G36*
X229726573Y-130500150D02*
X229374547Y-130148124D01*
X230434217Y-129088454D01*
X230786243Y-129440480D01*
X229726573Y-130500150D01*
X229726573Y-130500150D01*
G37*
G36*
X230292329Y-131065907D02*
X229940303Y-130713881D01*
X230999973Y-129654211D01*
X231351999Y-130006237D01*
X230292329Y-131065907D01*
X230292329Y-131065907D01*
G37*
G36*
X233546773Y-131065907D02*
X232487103Y-130006237D01*
X232839129Y-129654211D01*
X233898799Y-130713881D01*
X233546773Y-131065907D01*
X233546773Y-131065907D01*
G37*
G36*
X234112529Y-130500150D02*
X233052859Y-129440480D01*
X233404885Y-129088454D01*
X234464555Y-130148124D01*
X234112529Y-130500150D01*
X234112529Y-130500150D01*
G37*
G36*
X234678286Y-129934394D02*
X233618616Y-128874724D01*
X233970642Y-128522698D01*
X235030312Y-129582368D01*
X234678286Y-129934394D01*
X234678286Y-129934394D01*
G37*
G36*
X235244042Y-129368638D02*
X234184372Y-128308968D01*
X234536398Y-127956942D01*
X235596068Y-129016612D01*
X235244042Y-129368638D01*
X235244042Y-129368638D01*
G37*
G36*
X235809798Y-128802882D02*
X234750128Y-127743212D01*
X235102154Y-127391186D01*
X236161824Y-128450856D01*
X235809798Y-128802882D01*
X235809798Y-128802882D01*
G37*
G36*
X236373758Y-128238922D02*
X235314088Y-127179252D01*
X235666114Y-126827226D01*
X236725784Y-127886896D01*
X236373758Y-128238922D01*
X236373758Y-128238922D01*
G37*
G36*
X236937718Y-127674962D02*
X235878048Y-126615292D01*
X236230074Y-126263266D01*
X237289744Y-127322936D01*
X236937718Y-127674962D01*
X236937718Y-127674962D01*
G37*
G36*
X237503474Y-127109206D02*
X236443804Y-126049536D01*
X236795830Y-125697510D01*
X237855500Y-126757180D01*
X237503474Y-127109206D01*
X237503474Y-127109206D01*
G37*
G36*
X238069230Y-126543450D02*
X237009560Y-125483780D01*
X237361586Y-125131754D01*
X238421256Y-126191424D01*
X238069230Y-126543450D01*
X238069230Y-126543450D01*
G37*
G36*
X238634986Y-125977693D02*
X237575316Y-124918023D01*
X237927342Y-124565997D01*
X238987012Y-125625667D01*
X238634986Y-125977693D01*
X238634986Y-125977693D01*
G37*
G36*
X239200743Y-125411937D02*
X238141073Y-124352267D01*
X238493099Y-124000241D01*
X239552769Y-125059911D01*
X239200743Y-125411937D01*
X239200743Y-125411937D01*
G37*
G36*
X238493099Y-122865137D02*
X238141073Y-122513111D01*
X239200743Y-121453441D01*
X239552769Y-121805467D01*
X238493099Y-122865137D01*
X238493099Y-122865137D01*
G37*
G36*
X237927342Y-122299381D02*
X237575316Y-121947355D01*
X238634986Y-120887685D01*
X238987012Y-121239711D01*
X237927342Y-122299381D01*
X237927342Y-122299381D01*
G37*
G36*
X237361586Y-121733624D02*
X237009560Y-121381598D01*
X238069230Y-120321928D01*
X238421256Y-120673954D01*
X237361586Y-121733624D01*
X237361586Y-121733624D01*
G37*
G36*
X236795830Y-121167868D02*
X236443804Y-120815842D01*
X237503474Y-119756172D01*
X237855500Y-120108198D01*
X236795830Y-121167868D01*
X236795830Y-121167868D01*
G37*
G36*
X236230074Y-120602112D02*
X235878048Y-120250086D01*
X236937718Y-119190416D01*
X237289744Y-119542442D01*
X236230074Y-120602112D01*
X236230074Y-120602112D01*
G37*
G36*
X235666114Y-120038152D02*
X235314088Y-119686126D01*
X236373758Y-118626456D01*
X236725784Y-118978482D01*
X235666114Y-120038152D01*
X235666114Y-120038152D01*
G37*
G36*
X235102154Y-119474192D02*
X234750128Y-119122166D01*
X235809798Y-118062496D01*
X236161824Y-118414522D01*
X235102154Y-119474192D01*
X235102154Y-119474192D01*
G37*
G36*
X234536398Y-118908436D02*
X234184372Y-118556410D01*
X235244042Y-117496740D01*
X235596068Y-117848766D01*
X234536398Y-118908436D01*
X234536398Y-118908436D01*
G37*
G36*
X233970642Y-118342680D02*
X233618616Y-117990654D01*
X234678286Y-116930984D01*
X235030312Y-117283010D01*
X233970642Y-118342680D01*
X233970642Y-118342680D01*
G37*
G36*
X233404885Y-117776924D02*
X233052859Y-117424898D01*
X234112529Y-116365228D01*
X234464555Y-116717254D01*
X233404885Y-117776924D01*
X233404885Y-117776924D01*
G37*
G36*
X232839129Y-117211167D02*
X232487103Y-116859141D01*
X233546773Y-115799471D01*
X233898799Y-116151497D01*
X232839129Y-117211167D01*
X232839129Y-117211167D01*
G37*
G36*
X230999973Y-117211167D02*
X229940303Y-116151497D01*
X230292329Y-115799471D01*
X231351999Y-116859141D01*
X230999973Y-117211167D01*
X230999973Y-117211167D01*
G37*
G36*
X230434217Y-117776924D02*
X229374547Y-116717254D01*
X229726573Y-116365228D01*
X230786243Y-117424898D01*
X230434217Y-117776924D01*
X230434217Y-117776924D01*
G37*
G36*
X229868460Y-118342680D02*
X228808790Y-117283010D01*
X229160816Y-116930984D01*
X230220486Y-117990654D01*
X229868460Y-118342680D01*
X229868460Y-118342680D01*
G37*
G36*
X229302704Y-118908436D02*
X228243034Y-117848766D01*
X228595060Y-117496740D01*
X229654730Y-118556410D01*
X229302704Y-118908436D01*
X229302704Y-118908436D01*
G37*
G36*
X228736948Y-119474192D02*
X227677278Y-118414522D01*
X228029304Y-118062496D01*
X229088974Y-119122166D01*
X228736948Y-119474192D01*
X228736948Y-119474192D01*
G37*
G36*
X228172988Y-120038152D02*
X227113318Y-118978482D01*
X227465344Y-118626456D01*
X228525014Y-119686126D01*
X228172988Y-120038152D01*
X228172988Y-120038152D01*
G37*
G36*
X227609028Y-120602112D02*
X226549358Y-119542442D01*
X226901384Y-119190416D01*
X227961054Y-120250086D01*
X227609028Y-120602112D01*
X227609028Y-120602112D01*
G37*
G36*
X227043272Y-121167868D02*
X225983602Y-120108198D01*
X226335628Y-119756172D01*
X227395298Y-120815842D01*
X227043272Y-121167868D01*
X227043272Y-121167868D01*
G37*
G36*
X226477516Y-121733624D02*
X225417846Y-120673954D01*
X225769872Y-120321928D01*
X226829542Y-121381598D01*
X226477516Y-121733624D01*
X226477516Y-121733624D01*
G37*
G36*
X225911760Y-122299381D02*
X224852090Y-121239711D01*
X225204116Y-120887685D01*
X226263786Y-121947355D01*
X225911760Y-122299381D01*
X225911760Y-122299381D01*
G37*
G36*
X225346003Y-122865137D02*
X224286333Y-121805467D01*
X224638359Y-121453441D01*
X225698029Y-122513111D01*
X225346003Y-122865137D01*
X225346003Y-122865137D01*
G37*
G36*
X201270359Y-125411937D02*
X200918333Y-125059911D01*
X201978003Y-124000241D01*
X202330029Y-124352267D01*
X201270359Y-125411937D01*
X201270359Y-125411937D01*
G37*
G36*
X201836116Y-125977693D02*
X201484090Y-125625667D01*
X202543760Y-124565997D01*
X202895786Y-124918023D01*
X201836116Y-125977693D01*
X201836116Y-125977693D01*
G37*
G36*
X202401872Y-126543450D02*
X202049846Y-126191424D01*
X203109516Y-125131754D01*
X203461542Y-125483780D01*
X202401872Y-126543450D01*
X202401872Y-126543450D01*
G37*
G36*
X202967628Y-127109206D02*
X202615602Y-126757180D01*
X203675272Y-125697510D01*
X204027298Y-126049536D01*
X202967628Y-127109206D01*
X202967628Y-127109206D01*
G37*
G36*
X203533384Y-127674962D02*
X203181358Y-127322936D01*
X204241028Y-126263266D01*
X204593054Y-126615292D01*
X203533384Y-127674962D01*
X203533384Y-127674962D01*
G37*
G36*
X204097344Y-128238922D02*
X203745318Y-127886896D01*
X204804988Y-126827226D01*
X205157014Y-127179252D01*
X204097344Y-128238922D01*
X204097344Y-128238922D01*
G37*
G36*
X204661304Y-128802882D02*
X204309278Y-128450856D01*
X205368948Y-127391186D01*
X205720974Y-127743212D01*
X204661304Y-128802882D01*
X204661304Y-128802882D01*
G37*
G36*
X205227060Y-129368638D02*
X204875034Y-129016612D01*
X205934704Y-127956942D01*
X206286730Y-128308968D01*
X205227060Y-129368638D01*
X205227060Y-129368638D01*
G37*
G36*
X205792816Y-129934394D02*
X205440790Y-129582368D01*
X206500460Y-128522698D01*
X206852486Y-128874724D01*
X205792816Y-129934394D01*
X205792816Y-129934394D01*
G37*
G36*
X206358573Y-130500150D02*
X206006547Y-130148124D01*
X207066217Y-129088454D01*
X207418243Y-129440480D01*
X206358573Y-130500150D01*
X206358573Y-130500150D01*
G37*
G36*
X206924329Y-131065907D02*
X206572303Y-130713881D01*
X207631973Y-129654211D01*
X207983999Y-130006237D01*
X206924329Y-131065907D01*
X206924329Y-131065907D01*
G37*
G36*
X210178773Y-131065907D02*
X209119103Y-130006237D01*
X209471129Y-129654211D01*
X210530799Y-130713881D01*
X210178773Y-131065907D01*
X210178773Y-131065907D01*
G37*
G36*
X210744529Y-130500150D02*
X209684859Y-129440480D01*
X210036885Y-129088454D01*
X211096555Y-130148124D01*
X210744529Y-130500150D01*
X210744529Y-130500150D01*
G37*
G36*
X211310286Y-129934394D02*
X210250616Y-128874724D01*
X210602642Y-128522698D01*
X211662312Y-129582368D01*
X211310286Y-129934394D01*
X211310286Y-129934394D01*
G37*
G36*
X211876042Y-129368638D02*
X210816372Y-128308968D01*
X211168398Y-127956942D01*
X212228068Y-129016612D01*
X211876042Y-129368638D01*
X211876042Y-129368638D01*
G37*
G36*
X212441798Y-128802882D02*
X211382128Y-127743212D01*
X211734154Y-127391186D01*
X212793824Y-128450856D01*
X212441798Y-128802882D01*
X212441798Y-128802882D01*
G37*
G36*
X213005758Y-128238922D02*
X211946088Y-127179252D01*
X212298114Y-126827226D01*
X213357784Y-127886896D01*
X213005758Y-128238922D01*
X213005758Y-128238922D01*
G37*
G36*
X213569718Y-127674962D02*
X212510048Y-126615292D01*
X212862074Y-126263266D01*
X213921744Y-127322936D01*
X213569718Y-127674962D01*
X213569718Y-127674962D01*
G37*
G36*
X214135474Y-127109206D02*
X213075804Y-126049536D01*
X213427830Y-125697510D01*
X214487500Y-126757180D01*
X214135474Y-127109206D01*
X214135474Y-127109206D01*
G37*
G36*
X214701230Y-126543450D02*
X213641560Y-125483780D01*
X213993586Y-125131754D01*
X215053256Y-126191424D01*
X214701230Y-126543450D01*
X214701230Y-126543450D01*
G37*
G36*
X215266986Y-125977693D02*
X214207316Y-124918023D01*
X214559342Y-124565997D01*
X215619012Y-125625667D01*
X215266986Y-125977693D01*
X215266986Y-125977693D01*
G37*
G36*
X215832743Y-125411937D02*
X214773073Y-124352267D01*
X215125099Y-124000241D01*
X216184769Y-125059911D01*
X215832743Y-125411937D01*
X215832743Y-125411937D01*
G37*
G36*
X215125099Y-122865137D02*
X214773073Y-122513111D01*
X215832743Y-121453441D01*
X216184769Y-121805467D01*
X215125099Y-122865137D01*
X215125099Y-122865137D01*
G37*
G36*
X214559342Y-122299381D02*
X214207316Y-121947355D01*
X215266986Y-120887685D01*
X215619012Y-121239711D01*
X214559342Y-122299381D01*
X214559342Y-122299381D01*
G37*
G36*
X213993586Y-121733624D02*
X213641560Y-121381598D01*
X214701230Y-120321928D01*
X215053256Y-120673954D01*
X213993586Y-121733624D01*
X213993586Y-121733624D01*
G37*
G36*
X213427830Y-121167868D02*
X213075804Y-120815842D01*
X214135474Y-119756172D01*
X214487500Y-120108198D01*
X213427830Y-121167868D01*
X213427830Y-121167868D01*
G37*
G36*
X212862074Y-120602112D02*
X212510048Y-120250086D01*
X213569718Y-119190416D01*
X213921744Y-119542442D01*
X212862074Y-120602112D01*
X212862074Y-120602112D01*
G37*
G36*
X212298114Y-120038152D02*
X211946088Y-119686126D01*
X213005758Y-118626456D01*
X213357784Y-118978482D01*
X212298114Y-120038152D01*
X212298114Y-120038152D01*
G37*
G36*
X211734154Y-119474192D02*
X211382128Y-119122166D01*
X212441798Y-118062496D01*
X212793824Y-118414522D01*
X211734154Y-119474192D01*
X211734154Y-119474192D01*
G37*
G36*
X211168398Y-118908436D02*
X210816372Y-118556410D01*
X211876042Y-117496740D01*
X212228068Y-117848766D01*
X211168398Y-118908436D01*
X211168398Y-118908436D01*
G37*
G36*
X210602642Y-118342680D02*
X210250616Y-117990654D01*
X211310286Y-116930984D01*
X211662312Y-117283010D01*
X210602642Y-118342680D01*
X210602642Y-118342680D01*
G37*
G36*
X210036885Y-117776924D02*
X209684859Y-117424898D01*
X210744529Y-116365228D01*
X211096555Y-116717254D01*
X210036885Y-117776924D01*
X210036885Y-117776924D01*
G37*
G36*
X209471129Y-117211167D02*
X209119103Y-116859141D01*
X210178773Y-115799471D01*
X210530799Y-116151497D01*
X209471129Y-117211167D01*
X209471129Y-117211167D01*
G37*
G36*
X207631973Y-117211167D02*
X206572303Y-116151497D01*
X206924329Y-115799471D01*
X207983999Y-116859141D01*
X207631973Y-117211167D01*
X207631973Y-117211167D01*
G37*
G36*
X207066217Y-117776924D02*
X206006547Y-116717254D01*
X206358573Y-116365228D01*
X207418243Y-117424898D01*
X207066217Y-117776924D01*
X207066217Y-117776924D01*
G37*
G36*
X206500460Y-118342680D02*
X205440790Y-117283010D01*
X205792816Y-116930984D01*
X206852486Y-117990654D01*
X206500460Y-118342680D01*
X206500460Y-118342680D01*
G37*
G36*
X205934704Y-118908436D02*
X204875034Y-117848766D01*
X205227060Y-117496740D01*
X206286730Y-118556410D01*
X205934704Y-118908436D01*
X205934704Y-118908436D01*
G37*
G36*
X205368948Y-119474192D02*
X204309278Y-118414522D01*
X204661304Y-118062496D01*
X205720974Y-119122166D01*
X205368948Y-119474192D01*
X205368948Y-119474192D01*
G37*
G36*
X204804988Y-120038152D02*
X203745318Y-118978482D01*
X204097344Y-118626456D01*
X205157014Y-119686126D01*
X204804988Y-120038152D01*
X204804988Y-120038152D01*
G37*
G36*
X204241028Y-120602112D02*
X203181358Y-119542442D01*
X203533384Y-119190416D01*
X204593054Y-120250086D01*
X204241028Y-120602112D01*
X204241028Y-120602112D01*
G37*
G36*
X203675272Y-121167868D02*
X202615602Y-120108198D01*
X202967628Y-119756172D01*
X204027298Y-120815842D01*
X203675272Y-121167868D01*
X203675272Y-121167868D01*
G37*
G36*
X203109516Y-121733624D02*
X202049846Y-120673954D01*
X202401872Y-120321928D01*
X203461542Y-121381598D01*
X203109516Y-121733624D01*
X203109516Y-121733624D01*
G37*
G36*
X202543760Y-122299381D02*
X201484090Y-121239711D01*
X201836116Y-120887685D01*
X202895786Y-121947355D01*
X202543760Y-122299381D01*
X202543760Y-122299381D01*
G37*
G36*
X201978003Y-122865137D02*
X200918333Y-121805467D01*
X201270359Y-121453441D01*
X202330029Y-122513111D01*
X201978003Y-122865137D01*
X201978003Y-122865137D01*
G37*
G36*
X177902359Y-125411937D02*
X177550333Y-125059911D01*
X178610003Y-124000241D01*
X178962029Y-124352267D01*
X177902359Y-125411937D01*
X177902359Y-125411937D01*
G37*
G36*
X178468116Y-125977693D02*
X178116090Y-125625667D01*
X179175760Y-124565997D01*
X179527786Y-124918023D01*
X178468116Y-125977693D01*
X178468116Y-125977693D01*
G37*
G36*
X179033872Y-126543450D02*
X178681846Y-126191424D01*
X179741516Y-125131754D01*
X180093542Y-125483780D01*
X179033872Y-126543450D01*
X179033872Y-126543450D01*
G37*
G36*
X179599628Y-127109206D02*
X179247602Y-126757180D01*
X180307272Y-125697510D01*
X180659298Y-126049536D01*
X179599628Y-127109206D01*
X179599628Y-127109206D01*
G37*
G36*
X180165384Y-127674962D02*
X179813358Y-127322936D01*
X180873028Y-126263266D01*
X181225054Y-126615292D01*
X180165384Y-127674962D01*
X180165384Y-127674962D01*
G37*
G36*
X180729344Y-128238922D02*
X180377318Y-127886896D01*
X181436988Y-126827226D01*
X181789014Y-127179252D01*
X180729344Y-128238922D01*
X180729344Y-128238922D01*
G37*
G36*
X181293304Y-128802882D02*
X180941278Y-128450856D01*
X182000948Y-127391186D01*
X182352974Y-127743212D01*
X181293304Y-128802882D01*
X181293304Y-128802882D01*
G37*
G36*
X181859060Y-129368638D02*
X181507034Y-129016612D01*
X182566704Y-127956942D01*
X182918730Y-128308968D01*
X181859060Y-129368638D01*
X181859060Y-129368638D01*
G37*
G36*
X182424816Y-129934394D02*
X182072790Y-129582368D01*
X183132460Y-128522698D01*
X183484486Y-128874724D01*
X182424816Y-129934394D01*
X182424816Y-129934394D01*
G37*
G36*
X182990573Y-130500150D02*
X182638547Y-130148124D01*
X183698217Y-129088454D01*
X184050243Y-129440480D01*
X182990573Y-130500150D01*
X182990573Y-130500150D01*
G37*
G36*
X183556329Y-131065907D02*
X183204303Y-130713881D01*
X184263973Y-129654211D01*
X184615999Y-130006237D01*
X183556329Y-131065907D01*
X183556329Y-131065907D01*
G37*
G36*
X186810773Y-131065907D02*
X185751103Y-130006237D01*
X186103129Y-129654211D01*
X187162799Y-130713881D01*
X186810773Y-131065907D01*
X186810773Y-131065907D01*
G37*
G36*
X187376529Y-130500150D02*
X186316859Y-129440480D01*
X186668885Y-129088454D01*
X187728555Y-130148124D01*
X187376529Y-130500150D01*
X187376529Y-130500150D01*
G37*
G36*
X187942286Y-129934394D02*
X186882616Y-128874724D01*
X187234642Y-128522698D01*
X188294312Y-129582368D01*
X187942286Y-129934394D01*
X187942286Y-129934394D01*
G37*
G36*
X188508042Y-129368638D02*
X187448372Y-128308968D01*
X187800398Y-127956942D01*
X188860068Y-129016612D01*
X188508042Y-129368638D01*
X188508042Y-129368638D01*
G37*
G36*
X189073798Y-128802882D02*
X188014128Y-127743212D01*
X188366154Y-127391186D01*
X189425824Y-128450856D01*
X189073798Y-128802882D01*
X189073798Y-128802882D01*
G37*
G36*
X189637758Y-128238922D02*
X188578088Y-127179252D01*
X188930114Y-126827226D01*
X189989784Y-127886896D01*
X189637758Y-128238922D01*
X189637758Y-128238922D01*
G37*
G36*
X190201718Y-127674962D02*
X189142048Y-126615292D01*
X189494074Y-126263266D01*
X190553744Y-127322936D01*
X190201718Y-127674962D01*
X190201718Y-127674962D01*
G37*
G36*
X190767474Y-127109206D02*
X189707804Y-126049536D01*
X190059830Y-125697510D01*
X191119500Y-126757180D01*
X190767474Y-127109206D01*
X190767474Y-127109206D01*
G37*
G36*
X191333230Y-126543450D02*
X190273560Y-125483780D01*
X190625586Y-125131754D01*
X191685256Y-126191424D01*
X191333230Y-126543450D01*
X191333230Y-126543450D01*
G37*
G36*
X191898986Y-125977693D02*
X190839316Y-124918023D01*
X191191342Y-124565997D01*
X192251012Y-125625667D01*
X191898986Y-125977693D01*
X191898986Y-125977693D01*
G37*
G36*
X192464743Y-125411937D02*
X191405073Y-124352267D01*
X191757099Y-124000241D01*
X192816769Y-125059911D01*
X192464743Y-125411937D01*
X192464743Y-125411937D01*
G37*
G36*
X191757099Y-122865137D02*
X191405073Y-122513111D01*
X192464743Y-121453441D01*
X192816769Y-121805467D01*
X191757099Y-122865137D01*
X191757099Y-122865137D01*
G37*
G36*
X191191342Y-122299381D02*
X190839316Y-121947355D01*
X191898986Y-120887685D01*
X192251012Y-121239711D01*
X191191342Y-122299381D01*
X191191342Y-122299381D01*
G37*
G36*
X190625586Y-121733624D02*
X190273560Y-121381598D01*
X191333230Y-120321928D01*
X191685256Y-120673954D01*
X190625586Y-121733624D01*
X190625586Y-121733624D01*
G37*
G36*
X190059830Y-121167868D02*
X189707804Y-120815842D01*
X190767474Y-119756172D01*
X191119500Y-120108198D01*
X190059830Y-121167868D01*
X190059830Y-121167868D01*
G37*
G36*
X189494074Y-120602112D02*
X189142048Y-120250086D01*
X190201718Y-119190416D01*
X190553744Y-119542442D01*
X189494074Y-120602112D01*
X189494074Y-120602112D01*
G37*
G36*
X188930114Y-120038152D02*
X188578088Y-119686126D01*
X189637758Y-118626456D01*
X189989784Y-118978482D01*
X188930114Y-120038152D01*
X188930114Y-120038152D01*
G37*
G36*
X188366154Y-119474192D02*
X188014128Y-119122166D01*
X189073798Y-118062496D01*
X189425824Y-118414522D01*
X188366154Y-119474192D01*
X188366154Y-119474192D01*
G37*
G36*
X187800398Y-118908436D02*
X187448372Y-118556410D01*
X188508042Y-117496740D01*
X188860068Y-117848766D01*
X187800398Y-118908436D01*
X187800398Y-118908436D01*
G37*
G36*
X187234642Y-118342680D02*
X186882616Y-117990654D01*
X187942286Y-116930984D01*
X188294312Y-117283010D01*
X187234642Y-118342680D01*
X187234642Y-118342680D01*
G37*
G36*
X186668885Y-117776924D02*
X186316859Y-117424898D01*
X187376529Y-116365228D01*
X187728555Y-116717254D01*
X186668885Y-117776924D01*
X186668885Y-117776924D01*
G37*
G36*
X186103129Y-117211167D02*
X185751103Y-116859141D01*
X186810773Y-115799471D01*
X187162799Y-116151497D01*
X186103129Y-117211167D01*
X186103129Y-117211167D01*
G37*
G36*
X184263973Y-117211167D02*
X183204303Y-116151497D01*
X183556329Y-115799471D01*
X184615999Y-116859141D01*
X184263973Y-117211167D01*
X184263973Y-117211167D01*
G37*
G36*
X183698217Y-117776924D02*
X182638547Y-116717254D01*
X182990573Y-116365228D01*
X184050243Y-117424898D01*
X183698217Y-117776924D01*
X183698217Y-117776924D01*
G37*
G36*
X183132460Y-118342680D02*
X182072790Y-117283010D01*
X182424816Y-116930984D01*
X183484486Y-117990654D01*
X183132460Y-118342680D01*
X183132460Y-118342680D01*
G37*
G36*
X182566704Y-118908436D02*
X181507034Y-117848766D01*
X181859060Y-117496740D01*
X182918730Y-118556410D01*
X182566704Y-118908436D01*
X182566704Y-118908436D01*
G37*
G36*
X182000948Y-119474192D02*
X180941278Y-118414522D01*
X181293304Y-118062496D01*
X182352974Y-119122166D01*
X182000948Y-119474192D01*
X182000948Y-119474192D01*
G37*
G36*
X181436988Y-120038152D02*
X180377318Y-118978482D01*
X180729344Y-118626456D01*
X181789014Y-119686126D01*
X181436988Y-120038152D01*
X181436988Y-120038152D01*
G37*
G36*
X180873028Y-120602112D02*
X179813358Y-119542442D01*
X180165384Y-119190416D01*
X181225054Y-120250086D01*
X180873028Y-120602112D01*
X180873028Y-120602112D01*
G37*
G36*
X180307272Y-121167868D02*
X179247602Y-120108198D01*
X179599628Y-119756172D01*
X180659298Y-120815842D01*
X180307272Y-121167868D01*
X180307272Y-121167868D01*
G37*
G36*
X179741516Y-121733624D02*
X178681846Y-120673954D01*
X179033872Y-120321928D01*
X180093542Y-121381598D01*
X179741516Y-121733624D01*
X179741516Y-121733624D01*
G37*
G36*
X179175760Y-122299381D02*
X178116090Y-121239711D01*
X178468116Y-120887685D01*
X179527786Y-121947355D01*
X179175760Y-122299381D01*
X179175760Y-122299381D01*
G37*
G36*
X178610003Y-122865137D02*
X177550333Y-121805467D01*
X177902359Y-121453441D01*
X178962029Y-122513111D01*
X178610003Y-122865137D01*
X178610003Y-122865137D01*
G37*
G36*
X154534359Y-125411937D02*
X154182333Y-125059911D01*
X155242003Y-124000241D01*
X155594029Y-124352267D01*
X154534359Y-125411937D01*
X154534359Y-125411937D01*
G37*
G36*
X155100116Y-125977693D02*
X154748090Y-125625667D01*
X155807760Y-124565997D01*
X156159786Y-124918023D01*
X155100116Y-125977693D01*
X155100116Y-125977693D01*
G37*
G36*
X155665872Y-126543450D02*
X155313846Y-126191424D01*
X156373516Y-125131754D01*
X156725542Y-125483780D01*
X155665872Y-126543450D01*
X155665872Y-126543450D01*
G37*
G36*
X156231628Y-127109206D02*
X155879602Y-126757180D01*
X156939272Y-125697510D01*
X157291298Y-126049536D01*
X156231628Y-127109206D01*
X156231628Y-127109206D01*
G37*
G36*
X156797384Y-127674962D02*
X156445358Y-127322936D01*
X157505028Y-126263266D01*
X157857054Y-126615292D01*
X156797384Y-127674962D01*
X156797384Y-127674962D01*
G37*
G36*
X157361344Y-128238922D02*
X157009318Y-127886896D01*
X158068988Y-126827226D01*
X158421014Y-127179252D01*
X157361344Y-128238922D01*
X157361344Y-128238922D01*
G37*
G36*
X157925304Y-128802882D02*
X157573278Y-128450856D01*
X158632948Y-127391186D01*
X158984974Y-127743212D01*
X157925304Y-128802882D01*
X157925304Y-128802882D01*
G37*
G36*
X158491060Y-129368638D02*
X158139034Y-129016612D01*
X159198704Y-127956942D01*
X159550730Y-128308968D01*
X158491060Y-129368638D01*
X158491060Y-129368638D01*
G37*
G36*
X159056816Y-129934394D02*
X158704790Y-129582368D01*
X159764460Y-128522698D01*
X160116486Y-128874724D01*
X159056816Y-129934394D01*
X159056816Y-129934394D01*
G37*
G36*
X159622573Y-130500150D02*
X159270547Y-130148124D01*
X160330217Y-129088454D01*
X160682243Y-129440480D01*
X159622573Y-130500150D01*
X159622573Y-130500150D01*
G37*
G36*
X160188329Y-131065907D02*
X159836303Y-130713881D01*
X160895973Y-129654211D01*
X161247999Y-130006237D01*
X160188329Y-131065907D01*
X160188329Y-131065907D01*
G37*
G36*
X163442773Y-131065907D02*
X162383103Y-130006237D01*
X162735129Y-129654211D01*
X163794799Y-130713881D01*
X163442773Y-131065907D01*
X163442773Y-131065907D01*
G37*
G36*
X164008529Y-130500150D02*
X162948859Y-129440480D01*
X163300885Y-129088454D01*
X164360555Y-130148124D01*
X164008529Y-130500150D01*
X164008529Y-130500150D01*
G37*
G36*
X164574286Y-129934394D02*
X163514616Y-128874724D01*
X163866642Y-128522698D01*
X164926312Y-129582368D01*
X164574286Y-129934394D01*
X164574286Y-129934394D01*
G37*
G36*
X165140042Y-129368638D02*
X164080372Y-128308968D01*
X164432398Y-127956942D01*
X165492068Y-129016612D01*
X165140042Y-129368638D01*
X165140042Y-129368638D01*
G37*
G36*
X165705798Y-128802882D02*
X164646128Y-127743212D01*
X164998154Y-127391186D01*
X166057824Y-128450856D01*
X165705798Y-128802882D01*
X165705798Y-128802882D01*
G37*
G36*
X166269758Y-128238922D02*
X165210088Y-127179252D01*
X165562114Y-126827226D01*
X166621784Y-127886896D01*
X166269758Y-128238922D01*
X166269758Y-128238922D01*
G37*
G36*
X166833718Y-127674962D02*
X165774048Y-126615292D01*
X166126074Y-126263266D01*
X167185744Y-127322936D01*
X166833718Y-127674962D01*
X166833718Y-127674962D01*
G37*
G36*
X167399474Y-127109206D02*
X166339804Y-126049536D01*
X166691830Y-125697510D01*
X167751500Y-126757180D01*
X167399474Y-127109206D01*
X167399474Y-127109206D01*
G37*
G36*
X167965230Y-126543450D02*
X166905560Y-125483780D01*
X167257586Y-125131754D01*
X168317256Y-126191424D01*
X167965230Y-126543450D01*
X167965230Y-126543450D01*
G37*
G36*
X168530986Y-125977693D02*
X167471316Y-124918023D01*
X167823342Y-124565997D01*
X168883012Y-125625667D01*
X168530986Y-125977693D01*
X168530986Y-125977693D01*
G37*
G36*
X169096743Y-125411937D02*
X168037073Y-124352267D01*
X168389099Y-124000241D01*
X169448769Y-125059911D01*
X169096743Y-125411937D01*
X169096743Y-125411937D01*
G37*
G36*
X168389099Y-122865137D02*
X168037073Y-122513111D01*
X169096743Y-121453441D01*
X169448769Y-121805467D01*
X168389099Y-122865137D01*
X168389099Y-122865137D01*
G37*
G36*
X167823342Y-122299381D02*
X167471316Y-121947355D01*
X168530986Y-120887685D01*
X168883012Y-121239711D01*
X167823342Y-122299381D01*
X167823342Y-122299381D01*
G37*
G36*
X167257586Y-121733624D02*
X166905560Y-121381598D01*
X167965230Y-120321928D01*
X168317256Y-120673954D01*
X167257586Y-121733624D01*
X167257586Y-121733624D01*
G37*
G36*
X166691830Y-121167868D02*
X166339804Y-120815842D01*
X167399474Y-119756172D01*
X167751500Y-120108198D01*
X166691830Y-121167868D01*
X166691830Y-121167868D01*
G37*
G36*
X166126074Y-120602112D02*
X165774048Y-120250086D01*
X166833718Y-119190416D01*
X167185744Y-119542442D01*
X166126074Y-120602112D01*
X166126074Y-120602112D01*
G37*
G36*
X165562114Y-120038152D02*
X165210088Y-119686126D01*
X166269758Y-118626456D01*
X166621784Y-118978482D01*
X165562114Y-120038152D01*
X165562114Y-120038152D01*
G37*
G36*
X164998154Y-119474192D02*
X164646128Y-119122166D01*
X165705798Y-118062496D01*
X166057824Y-118414522D01*
X164998154Y-119474192D01*
X164998154Y-119474192D01*
G37*
G36*
X164432398Y-118908436D02*
X164080372Y-118556410D01*
X165140042Y-117496740D01*
X165492068Y-117848766D01*
X164432398Y-118908436D01*
X164432398Y-118908436D01*
G37*
G36*
X163866642Y-118342680D02*
X163514616Y-117990654D01*
X164574286Y-116930984D01*
X164926312Y-117283010D01*
X163866642Y-118342680D01*
X163866642Y-118342680D01*
G37*
G36*
X163300885Y-117776924D02*
X162948859Y-117424898D01*
X164008529Y-116365228D01*
X164360555Y-116717254D01*
X163300885Y-117776924D01*
X163300885Y-117776924D01*
G37*
G36*
X162735129Y-117211167D02*
X162383103Y-116859141D01*
X163442773Y-115799471D01*
X163794799Y-116151497D01*
X162735129Y-117211167D01*
X162735129Y-117211167D01*
G37*
G36*
X160895973Y-117211167D02*
X159836303Y-116151497D01*
X160188329Y-115799471D01*
X161247999Y-116859141D01*
X160895973Y-117211167D01*
X160895973Y-117211167D01*
G37*
G36*
X160330217Y-117776924D02*
X159270547Y-116717254D01*
X159622573Y-116365228D01*
X160682243Y-117424898D01*
X160330217Y-117776924D01*
X160330217Y-117776924D01*
G37*
G36*
X159764460Y-118342680D02*
X158704790Y-117283010D01*
X159056816Y-116930984D01*
X160116486Y-117990654D01*
X159764460Y-118342680D01*
X159764460Y-118342680D01*
G37*
G36*
X159198704Y-118908436D02*
X158139034Y-117848766D01*
X158491060Y-117496740D01*
X159550730Y-118556410D01*
X159198704Y-118908436D01*
X159198704Y-118908436D01*
G37*
G36*
X158632948Y-119474192D02*
X157573278Y-118414522D01*
X157925304Y-118062496D01*
X158984974Y-119122166D01*
X158632948Y-119474192D01*
X158632948Y-119474192D01*
G37*
G36*
X158068988Y-120038152D02*
X157009318Y-118978482D01*
X157361344Y-118626456D01*
X158421014Y-119686126D01*
X158068988Y-120038152D01*
X158068988Y-120038152D01*
G37*
G36*
X157505028Y-120602112D02*
X156445358Y-119542442D01*
X156797384Y-119190416D01*
X157857054Y-120250086D01*
X157505028Y-120602112D01*
X157505028Y-120602112D01*
G37*
G36*
X156939272Y-121167868D02*
X155879602Y-120108198D01*
X156231628Y-119756172D01*
X157291298Y-120815842D01*
X156939272Y-121167868D01*
X156939272Y-121167868D01*
G37*
G36*
X156373516Y-121733624D02*
X155313846Y-120673954D01*
X155665872Y-120321928D01*
X156725542Y-121381598D01*
X156373516Y-121733624D01*
X156373516Y-121733624D01*
G37*
G36*
X155807760Y-122299381D02*
X154748090Y-121239711D01*
X155100116Y-120887685D01*
X156159786Y-121947355D01*
X155807760Y-122299381D01*
X155807760Y-122299381D01*
G37*
G36*
X155242003Y-122865137D02*
X154182333Y-121805467D01*
X154534359Y-121453441D01*
X155594029Y-122513111D01*
X155242003Y-122865137D01*
X155242003Y-122865137D01*
G37*
G36*
X131166359Y-125411937D02*
X130814333Y-125059911D01*
X131874003Y-124000241D01*
X132226029Y-124352267D01*
X131166359Y-125411937D01*
X131166359Y-125411937D01*
G37*
G36*
X131732116Y-125977693D02*
X131380090Y-125625667D01*
X132439760Y-124565997D01*
X132791786Y-124918023D01*
X131732116Y-125977693D01*
X131732116Y-125977693D01*
G37*
G36*
X132297872Y-126543450D02*
X131945846Y-126191424D01*
X133005516Y-125131754D01*
X133357542Y-125483780D01*
X132297872Y-126543450D01*
X132297872Y-126543450D01*
G37*
G36*
X132863628Y-127109206D02*
X132511602Y-126757180D01*
X133571272Y-125697510D01*
X133923298Y-126049536D01*
X132863628Y-127109206D01*
X132863628Y-127109206D01*
G37*
G36*
X133429384Y-127674962D02*
X133077358Y-127322936D01*
X134137028Y-126263266D01*
X134489054Y-126615292D01*
X133429384Y-127674962D01*
X133429384Y-127674962D01*
G37*
G36*
X133993344Y-128238922D02*
X133641318Y-127886896D01*
X134700988Y-126827226D01*
X135053014Y-127179252D01*
X133993344Y-128238922D01*
X133993344Y-128238922D01*
G37*
G36*
X134557304Y-128802882D02*
X134205278Y-128450856D01*
X135264948Y-127391186D01*
X135616974Y-127743212D01*
X134557304Y-128802882D01*
X134557304Y-128802882D01*
G37*
G36*
X135123060Y-129368638D02*
X134771034Y-129016612D01*
X135830704Y-127956942D01*
X136182730Y-128308968D01*
X135123060Y-129368638D01*
X135123060Y-129368638D01*
G37*
G36*
X135688816Y-129934394D02*
X135336790Y-129582368D01*
X136396460Y-128522698D01*
X136748486Y-128874724D01*
X135688816Y-129934394D01*
X135688816Y-129934394D01*
G37*
G36*
X136254573Y-130500150D02*
X135902547Y-130148124D01*
X136962217Y-129088454D01*
X137314243Y-129440480D01*
X136254573Y-130500150D01*
X136254573Y-130500150D01*
G37*
G36*
X136820329Y-131065907D02*
X136468303Y-130713881D01*
X137527973Y-129654211D01*
X137879999Y-130006237D01*
X136820329Y-131065907D01*
X136820329Y-131065907D01*
G37*
G36*
X140074773Y-131065907D02*
X139015103Y-130006237D01*
X139367129Y-129654211D01*
X140426799Y-130713881D01*
X140074773Y-131065907D01*
X140074773Y-131065907D01*
G37*
G36*
X140640529Y-130500150D02*
X139580859Y-129440480D01*
X139932885Y-129088454D01*
X140992555Y-130148124D01*
X140640529Y-130500150D01*
X140640529Y-130500150D01*
G37*
G36*
X141206286Y-129934394D02*
X140146616Y-128874724D01*
X140498642Y-128522698D01*
X141558312Y-129582368D01*
X141206286Y-129934394D01*
X141206286Y-129934394D01*
G37*
G36*
X141772042Y-129368638D02*
X140712372Y-128308968D01*
X141064398Y-127956942D01*
X142124068Y-129016612D01*
X141772042Y-129368638D01*
X141772042Y-129368638D01*
G37*
G36*
X142337798Y-128802882D02*
X141278128Y-127743212D01*
X141630154Y-127391186D01*
X142689824Y-128450856D01*
X142337798Y-128802882D01*
X142337798Y-128802882D01*
G37*
G36*
X142901758Y-128238922D02*
X141842088Y-127179252D01*
X142194114Y-126827226D01*
X143253784Y-127886896D01*
X142901758Y-128238922D01*
X142901758Y-128238922D01*
G37*
G36*
X143465718Y-127674962D02*
X142406048Y-126615292D01*
X142758074Y-126263266D01*
X143817744Y-127322936D01*
X143465718Y-127674962D01*
X143465718Y-127674962D01*
G37*
G36*
X144031474Y-127109206D02*
X142971804Y-126049536D01*
X143323830Y-125697510D01*
X144383500Y-126757180D01*
X144031474Y-127109206D01*
X144031474Y-127109206D01*
G37*
G36*
X144597230Y-126543450D02*
X143537560Y-125483780D01*
X143889586Y-125131754D01*
X144949256Y-126191424D01*
X144597230Y-126543450D01*
X144597230Y-126543450D01*
G37*
G36*
X145162986Y-125977693D02*
X144103316Y-124918023D01*
X144455342Y-124565997D01*
X145515012Y-125625667D01*
X145162986Y-125977693D01*
X145162986Y-125977693D01*
G37*
G36*
X145728743Y-125411937D02*
X144669073Y-124352267D01*
X145021099Y-124000241D01*
X146080769Y-125059911D01*
X145728743Y-125411937D01*
X145728743Y-125411937D01*
G37*
G36*
X145021099Y-122865137D02*
X144669073Y-122513111D01*
X145728743Y-121453441D01*
X146080769Y-121805467D01*
X145021099Y-122865137D01*
X145021099Y-122865137D01*
G37*
G36*
X144455342Y-122299381D02*
X144103316Y-121947355D01*
X145162986Y-120887685D01*
X145515012Y-121239711D01*
X144455342Y-122299381D01*
X144455342Y-122299381D01*
G37*
G36*
X143889586Y-121733624D02*
X143537560Y-121381598D01*
X144597230Y-120321928D01*
X144949256Y-120673954D01*
X143889586Y-121733624D01*
X143889586Y-121733624D01*
G37*
G36*
X143323830Y-121167868D02*
X142971804Y-120815842D01*
X144031474Y-119756172D01*
X144383500Y-120108198D01*
X143323830Y-121167868D01*
X143323830Y-121167868D01*
G37*
G36*
X142758074Y-120602112D02*
X142406048Y-120250086D01*
X143465718Y-119190416D01*
X143817744Y-119542442D01*
X142758074Y-120602112D01*
X142758074Y-120602112D01*
G37*
G36*
X142194114Y-120038152D02*
X141842088Y-119686126D01*
X142901758Y-118626456D01*
X143253784Y-118978482D01*
X142194114Y-120038152D01*
X142194114Y-120038152D01*
G37*
G36*
X141630154Y-119474192D02*
X141278128Y-119122166D01*
X142337798Y-118062496D01*
X142689824Y-118414522D01*
X141630154Y-119474192D01*
X141630154Y-119474192D01*
G37*
G36*
X141064398Y-118908436D02*
X140712372Y-118556410D01*
X141772042Y-117496740D01*
X142124068Y-117848766D01*
X141064398Y-118908436D01*
X141064398Y-118908436D01*
G37*
G36*
X140498642Y-118342680D02*
X140146616Y-117990654D01*
X141206286Y-116930984D01*
X141558312Y-117283010D01*
X140498642Y-118342680D01*
X140498642Y-118342680D01*
G37*
G36*
X139932885Y-117776924D02*
X139580859Y-117424898D01*
X140640529Y-116365228D01*
X140992555Y-116717254D01*
X139932885Y-117776924D01*
X139932885Y-117776924D01*
G37*
G36*
X139367129Y-117211167D02*
X139015103Y-116859141D01*
X140074773Y-115799471D01*
X140426799Y-116151497D01*
X139367129Y-117211167D01*
X139367129Y-117211167D01*
G37*
G36*
X137527973Y-117211167D02*
X136468303Y-116151497D01*
X136820329Y-115799471D01*
X137879999Y-116859141D01*
X137527973Y-117211167D01*
X137527973Y-117211167D01*
G37*
G36*
X136962217Y-117776924D02*
X135902547Y-116717254D01*
X136254573Y-116365228D01*
X137314243Y-117424898D01*
X136962217Y-117776924D01*
X136962217Y-117776924D01*
G37*
G36*
X136396460Y-118342680D02*
X135336790Y-117283010D01*
X135688816Y-116930984D01*
X136748486Y-117990654D01*
X136396460Y-118342680D01*
X136396460Y-118342680D01*
G37*
G36*
X135830704Y-118908436D02*
X134771034Y-117848766D01*
X135123060Y-117496740D01*
X136182730Y-118556410D01*
X135830704Y-118908436D01*
X135830704Y-118908436D01*
G37*
G36*
X135264948Y-119474192D02*
X134205278Y-118414522D01*
X134557304Y-118062496D01*
X135616974Y-119122166D01*
X135264948Y-119474192D01*
X135264948Y-119474192D01*
G37*
G36*
X134700988Y-120038152D02*
X133641318Y-118978482D01*
X133993344Y-118626456D01*
X135053014Y-119686126D01*
X134700988Y-120038152D01*
X134700988Y-120038152D01*
G37*
G36*
X134137028Y-120602112D02*
X133077358Y-119542442D01*
X133429384Y-119190416D01*
X134489054Y-120250086D01*
X134137028Y-120602112D01*
X134137028Y-120602112D01*
G37*
G36*
X133571272Y-121167868D02*
X132511602Y-120108198D01*
X132863628Y-119756172D01*
X133923298Y-120815842D01*
X133571272Y-121167868D01*
X133571272Y-121167868D01*
G37*
G36*
X133005516Y-121733624D02*
X131945846Y-120673954D01*
X132297872Y-120321928D01*
X133357542Y-121381598D01*
X133005516Y-121733624D01*
X133005516Y-121733624D01*
G37*
G36*
X132439760Y-122299381D02*
X131380090Y-121239711D01*
X131732116Y-120887685D01*
X132791786Y-121947355D01*
X132439760Y-122299381D01*
X132439760Y-122299381D01*
G37*
G36*
X131874003Y-122865137D02*
X130814333Y-121805467D01*
X131166359Y-121453441D01*
X132226029Y-122513111D01*
X131874003Y-122865137D01*
X131874003Y-122865137D01*
G37*
G36*
X107798359Y-125411937D02*
X107446333Y-125059911D01*
X108506003Y-124000241D01*
X108858029Y-124352267D01*
X107798359Y-125411937D01*
X107798359Y-125411937D01*
G37*
G36*
X108364116Y-125977693D02*
X108012090Y-125625667D01*
X109071760Y-124565997D01*
X109423786Y-124918023D01*
X108364116Y-125977693D01*
X108364116Y-125977693D01*
G37*
G36*
X108929872Y-126543450D02*
X108577846Y-126191424D01*
X109637516Y-125131754D01*
X109989542Y-125483780D01*
X108929872Y-126543450D01*
X108929872Y-126543450D01*
G37*
G36*
X109495628Y-127109206D02*
X109143602Y-126757180D01*
X110203272Y-125697510D01*
X110555298Y-126049536D01*
X109495628Y-127109206D01*
X109495628Y-127109206D01*
G37*
G36*
X110061384Y-127674962D02*
X109709358Y-127322936D01*
X110769028Y-126263266D01*
X111121054Y-126615292D01*
X110061384Y-127674962D01*
X110061384Y-127674962D01*
G37*
G36*
X110625344Y-128238922D02*
X110273318Y-127886896D01*
X111332988Y-126827226D01*
X111685014Y-127179252D01*
X110625344Y-128238922D01*
X110625344Y-128238922D01*
G37*
G36*
X111189304Y-128802882D02*
X110837278Y-128450856D01*
X111896948Y-127391186D01*
X112248974Y-127743212D01*
X111189304Y-128802882D01*
X111189304Y-128802882D01*
G37*
G36*
X111755060Y-129368638D02*
X111403034Y-129016612D01*
X112462704Y-127956942D01*
X112814730Y-128308968D01*
X111755060Y-129368638D01*
X111755060Y-129368638D01*
G37*
G36*
X112320816Y-129934394D02*
X111968790Y-129582368D01*
X113028460Y-128522698D01*
X113380486Y-128874724D01*
X112320816Y-129934394D01*
X112320816Y-129934394D01*
G37*
G36*
X112886573Y-130500150D02*
X112534547Y-130148124D01*
X113594217Y-129088454D01*
X113946243Y-129440480D01*
X112886573Y-130500150D01*
X112886573Y-130500150D01*
G37*
G36*
X113452329Y-131065907D02*
X113100303Y-130713881D01*
X114159973Y-129654211D01*
X114511999Y-130006237D01*
X113452329Y-131065907D01*
X113452329Y-131065907D01*
G37*
G36*
X116706773Y-131065907D02*
X115647103Y-130006237D01*
X115999129Y-129654211D01*
X117058799Y-130713881D01*
X116706773Y-131065907D01*
X116706773Y-131065907D01*
G37*
G36*
X117272529Y-130500150D02*
X116212859Y-129440480D01*
X116564885Y-129088454D01*
X117624555Y-130148124D01*
X117272529Y-130500150D01*
X117272529Y-130500150D01*
G37*
G36*
X117838286Y-129934394D02*
X116778616Y-128874724D01*
X117130642Y-128522698D01*
X118190312Y-129582368D01*
X117838286Y-129934394D01*
X117838286Y-129934394D01*
G37*
G36*
X118404042Y-129368638D02*
X117344372Y-128308968D01*
X117696398Y-127956942D01*
X118756068Y-129016612D01*
X118404042Y-129368638D01*
X118404042Y-129368638D01*
G37*
G36*
X118969798Y-128802882D02*
X117910128Y-127743212D01*
X118262154Y-127391186D01*
X119321824Y-128450856D01*
X118969798Y-128802882D01*
X118969798Y-128802882D01*
G37*
G36*
X119533758Y-128238922D02*
X118474088Y-127179252D01*
X118826114Y-126827226D01*
X119885784Y-127886896D01*
X119533758Y-128238922D01*
X119533758Y-128238922D01*
G37*
G36*
X120097718Y-127674962D02*
X119038048Y-126615292D01*
X119390074Y-126263266D01*
X120449744Y-127322936D01*
X120097718Y-127674962D01*
X120097718Y-127674962D01*
G37*
G36*
X120663474Y-127109206D02*
X119603804Y-126049536D01*
X119955830Y-125697510D01*
X121015500Y-126757180D01*
X120663474Y-127109206D01*
X120663474Y-127109206D01*
G37*
G36*
X121229230Y-126543450D02*
X120169560Y-125483780D01*
X120521586Y-125131754D01*
X121581256Y-126191424D01*
X121229230Y-126543450D01*
X121229230Y-126543450D01*
G37*
G36*
X121794986Y-125977693D02*
X120735316Y-124918023D01*
X121087342Y-124565997D01*
X122147012Y-125625667D01*
X121794986Y-125977693D01*
X121794986Y-125977693D01*
G37*
G36*
X122360743Y-125411937D02*
X121301073Y-124352267D01*
X121653099Y-124000241D01*
X122712769Y-125059911D01*
X122360743Y-125411937D01*
X122360743Y-125411937D01*
G37*
G36*
X121653099Y-122865137D02*
X121301073Y-122513111D01*
X122360743Y-121453441D01*
X122712769Y-121805467D01*
X121653099Y-122865137D01*
X121653099Y-122865137D01*
G37*
G36*
X121087342Y-122299381D02*
X120735316Y-121947355D01*
X121794986Y-120887685D01*
X122147012Y-121239711D01*
X121087342Y-122299381D01*
X121087342Y-122299381D01*
G37*
G36*
X120521586Y-121733624D02*
X120169560Y-121381598D01*
X121229230Y-120321928D01*
X121581256Y-120673954D01*
X120521586Y-121733624D01*
X120521586Y-121733624D01*
G37*
G36*
X119955830Y-121167868D02*
X119603804Y-120815842D01*
X120663474Y-119756172D01*
X121015500Y-120108198D01*
X119955830Y-121167868D01*
X119955830Y-121167868D01*
G37*
G36*
X119390074Y-120602112D02*
X119038048Y-120250086D01*
X120097718Y-119190416D01*
X120449744Y-119542442D01*
X119390074Y-120602112D01*
X119390074Y-120602112D01*
G37*
G36*
X118826114Y-120038152D02*
X118474088Y-119686126D01*
X119533758Y-118626456D01*
X119885784Y-118978482D01*
X118826114Y-120038152D01*
X118826114Y-120038152D01*
G37*
G36*
X118262154Y-119474192D02*
X117910128Y-119122166D01*
X118969798Y-118062496D01*
X119321824Y-118414522D01*
X118262154Y-119474192D01*
X118262154Y-119474192D01*
G37*
G36*
X117696398Y-118908436D02*
X117344372Y-118556410D01*
X118404042Y-117496740D01*
X118756068Y-117848766D01*
X117696398Y-118908436D01*
X117696398Y-118908436D01*
G37*
G36*
X117130642Y-118342680D02*
X116778616Y-117990654D01*
X117838286Y-116930984D01*
X118190312Y-117283010D01*
X117130642Y-118342680D01*
X117130642Y-118342680D01*
G37*
G36*
X116564885Y-117776924D02*
X116212859Y-117424898D01*
X117272529Y-116365228D01*
X117624555Y-116717254D01*
X116564885Y-117776924D01*
X116564885Y-117776924D01*
G37*
G36*
X115999129Y-117211167D02*
X115647103Y-116859141D01*
X116706773Y-115799471D01*
X117058799Y-116151497D01*
X115999129Y-117211167D01*
X115999129Y-117211167D01*
G37*
G36*
X114159973Y-117211167D02*
X113100303Y-116151497D01*
X113452329Y-115799471D01*
X114511999Y-116859141D01*
X114159973Y-117211167D01*
X114159973Y-117211167D01*
G37*
G36*
X113594217Y-117776924D02*
X112534547Y-116717254D01*
X112886573Y-116365228D01*
X113946243Y-117424898D01*
X113594217Y-117776924D01*
X113594217Y-117776924D01*
G37*
G36*
X113028460Y-118342680D02*
X111968790Y-117283010D01*
X112320816Y-116930984D01*
X113380486Y-117990654D01*
X113028460Y-118342680D01*
X113028460Y-118342680D01*
G37*
G36*
X112462704Y-118908436D02*
X111403034Y-117848766D01*
X111755060Y-117496740D01*
X112814730Y-118556410D01*
X112462704Y-118908436D01*
X112462704Y-118908436D01*
G37*
G36*
X111896948Y-119474192D02*
X110837278Y-118414522D01*
X111189304Y-118062496D01*
X112248974Y-119122166D01*
X111896948Y-119474192D01*
X111896948Y-119474192D01*
G37*
G36*
X111332988Y-120038152D02*
X110273318Y-118978482D01*
X110625344Y-118626456D01*
X111685014Y-119686126D01*
X111332988Y-120038152D01*
X111332988Y-120038152D01*
G37*
G36*
X110769028Y-120602112D02*
X109709358Y-119542442D01*
X110061384Y-119190416D01*
X111121054Y-120250086D01*
X110769028Y-120602112D01*
X110769028Y-120602112D01*
G37*
G36*
X110203272Y-121167868D02*
X109143602Y-120108198D01*
X109495628Y-119756172D01*
X110555298Y-120815842D01*
X110203272Y-121167868D01*
X110203272Y-121167868D01*
G37*
G36*
X109637516Y-121733624D02*
X108577846Y-120673954D01*
X108929872Y-120321928D01*
X109989542Y-121381598D01*
X109637516Y-121733624D01*
X109637516Y-121733624D01*
G37*
G36*
X109071760Y-122299381D02*
X108012090Y-121239711D01*
X108364116Y-120887685D01*
X109423786Y-121947355D01*
X109071760Y-122299381D01*
X109071760Y-122299381D01*
G37*
G36*
X108506003Y-122865137D02*
X107446333Y-121805467D01*
X107798359Y-121453441D01*
X108858029Y-122513111D01*
X108506003Y-122865137D01*
X108506003Y-122865137D01*
G37*
G36*
X84430359Y-125411937D02*
X84078333Y-125059911D01*
X85138003Y-124000241D01*
X85490029Y-124352267D01*
X84430359Y-125411937D01*
X84430359Y-125411937D01*
G37*
G36*
X84996116Y-125977693D02*
X84644090Y-125625667D01*
X85703760Y-124565997D01*
X86055786Y-124918023D01*
X84996116Y-125977693D01*
X84996116Y-125977693D01*
G37*
G36*
X85561872Y-126543450D02*
X85209846Y-126191424D01*
X86269516Y-125131754D01*
X86621542Y-125483780D01*
X85561872Y-126543450D01*
X85561872Y-126543450D01*
G37*
G36*
X86127628Y-127109206D02*
X85775602Y-126757180D01*
X86835272Y-125697510D01*
X87187298Y-126049536D01*
X86127628Y-127109206D01*
X86127628Y-127109206D01*
G37*
G36*
X86693384Y-127674962D02*
X86341358Y-127322936D01*
X87401028Y-126263266D01*
X87753054Y-126615292D01*
X86693384Y-127674962D01*
X86693384Y-127674962D01*
G37*
G36*
X87257344Y-128238922D02*
X86905318Y-127886896D01*
X87964988Y-126827226D01*
X88317014Y-127179252D01*
X87257344Y-128238922D01*
X87257344Y-128238922D01*
G37*
G36*
X87821304Y-128802882D02*
X87469278Y-128450856D01*
X88528948Y-127391186D01*
X88880974Y-127743212D01*
X87821304Y-128802882D01*
X87821304Y-128802882D01*
G37*
G36*
X88387060Y-129368638D02*
X88035034Y-129016612D01*
X89094704Y-127956942D01*
X89446730Y-128308968D01*
X88387060Y-129368638D01*
X88387060Y-129368638D01*
G37*
G36*
X88952816Y-129934394D02*
X88600790Y-129582368D01*
X89660460Y-128522698D01*
X90012486Y-128874724D01*
X88952816Y-129934394D01*
X88952816Y-129934394D01*
G37*
G36*
X89518573Y-130500150D02*
X89166547Y-130148124D01*
X90226217Y-129088454D01*
X90578243Y-129440480D01*
X89518573Y-130500150D01*
X89518573Y-130500150D01*
G37*
G36*
X90084329Y-131065907D02*
X89732303Y-130713881D01*
X90791973Y-129654211D01*
X91143999Y-130006237D01*
X90084329Y-131065907D01*
X90084329Y-131065907D01*
G37*
G36*
X93338773Y-131065907D02*
X92279103Y-130006237D01*
X92631129Y-129654211D01*
X93690799Y-130713881D01*
X93338773Y-131065907D01*
X93338773Y-131065907D01*
G37*
G36*
X93904529Y-130500150D02*
X92844859Y-129440480D01*
X93196885Y-129088454D01*
X94256555Y-130148124D01*
X93904529Y-130500150D01*
X93904529Y-130500150D01*
G37*
G36*
X94470286Y-129934394D02*
X93410616Y-128874724D01*
X93762642Y-128522698D01*
X94822312Y-129582368D01*
X94470286Y-129934394D01*
X94470286Y-129934394D01*
G37*
G36*
X95036042Y-129368638D02*
X93976372Y-128308968D01*
X94328398Y-127956942D01*
X95388068Y-129016612D01*
X95036042Y-129368638D01*
X95036042Y-129368638D01*
G37*
G36*
X95601798Y-128802882D02*
X94542128Y-127743212D01*
X94894154Y-127391186D01*
X95953824Y-128450856D01*
X95601798Y-128802882D01*
X95601798Y-128802882D01*
G37*
G36*
X96165758Y-128238922D02*
X95106088Y-127179252D01*
X95458114Y-126827226D01*
X96517784Y-127886896D01*
X96165758Y-128238922D01*
X96165758Y-128238922D01*
G37*
G36*
X96729718Y-127674962D02*
X95670048Y-126615292D01*
X96022074Y-126263266D01*
X97081744Y-127322936D01*
X96729718Y-127674962D01*
X96729718Y-127674962D01*
G37*
G36*
X97295474Y-127109206D02*
X96235804Y-126049536D01*
X96587830Y-125697510D01*
X97647500Y-126757180D01*
X97295474Y-127109206D01*
X97295474Y-127109206D01*
G37*
G36*
X97861230Y-126543450D02*
X96801560Y-125483780D01*
X97153586Y-125131754D01*
X98213256Y-126191424D01*
X97861230Y-126543450D01*
X97861230Y-126543450D01*
G37*
G36*
X98426986Y-125977693D02*
X97367316Y-124918023D01*
X97719342Y-124565997D01*
X98779012Y-125625667D01*
X98426986Y-125977693D01*
X98426986Y-125977693D01*
G37*
G36*
X98992743Y-125411937D02*
X97933073Y-124352267D01*
X98285099Y-124000241D01*
X99344769Y-125059911D01*
X98992743Y-125411937D01*
X98992743Y-125411937D01*
G37*
G36*
X98285099Y-122865137D02*
X97933073Y-122513111D01*
X98992743Y-121453441D01*
X99344769Y-121805467D01*
X98285099Y-122865137D01*
X98285099Y-122865137D01*
G37*
G36*
X97719342Y-122299381D02*
X97367316Y-121947355D01*
X98426986Y-120887685D01*
X98779012Y-121239711D01*
X97719342Y-122299381D01*
X97719342Y-122299381D01*
G37*
G36*
X97153586Y-121733624D02*
X96801560Y-121381598D01*
X97861230Y-120321928D01*
X98213256Y-120673954D01*
X97153586Y-121733624D01*
X97153586Y-121733624D01*
G37*
G36*
X96587830Y-121167868D02*
X96235804Y-120815842D01*
X97295474Y-119756172D01*
X97647500Y-120108198D01*
X96587830Y-121167868D01*
X96587830Y-121167868D01*
G37*
G36*
X96022074Y-120602112D02*
X95670048Y-120250086D01*
X96729718Y-119190416D01*
X97081744Y-119542442D01*
X96022074Y-120602112D01*
X96022074Y-120602112D01*
G37*
G36*
X95458114Y-120038152D02*
X95106088Y-119686126D01*
X96165758Y-118626456D01*
X96517784Y-118978482D01*
X95458114Y-120038152D01*
X95458114Y-120038152D01*
G37*
G36*
X94894154Y-119474192D02*
X94542128Y-119122166D01*
X95601798Y-118062496D01*
X95953824Y-118414522D01*
X94894154Y-119474192D01*
X94894154Y-119474192D01*
G37*
G36*
X94328398Y-118908436D02*
X93976372Y-118556410D01*
X95036042Y-117496740D01*
X95388068Y-117848766D01*
X94328398Y-118908436D01*
X94328398Y-118908436D01*
G37*
G36*
X93762642Y-118342680D02*
X93410616Y-117990654D01*
X94470286Y-116930984D01*
X94822312Y-117283010D01*
X93762642Y-118342680D01*
X93762642Y-118342680D01*
G37*
G36*
X93196885Y-117776924D02*
X92844859Y-117424898D01*
X93904529Y-116365228D01*
X94256555Y-116717254D01*
X93196885Y-117776924D01*
X93196885Y-117776924D01*
G37*
G36*
X92631129Y-117211167D02*
X92279103Y-116859141D01*
X93338773Y-115799471D01*
X93690799Y-116151497D01*
X92631129Y-117211167D01*
X92631129Y-117211167D01*
G37*
G36*
X90791973Y-117211167D02*
X89732303Y-116151497D01*
X90084329Y-115799471D01*
X91143999Y-116859141D01*
X90791973Y-117211167D01*
X90791973Y-117211167D01*
G37*
G36*
X90226217Y-117776924D02*
X89166547Y-116717254D01*
X89518573Y-116365228D01*
X90578243Y-117424898D01*
X90226217Y-117776924D01*
X90226217Y-117776924D01*
G37*
G36*
X89660460Y-118342680D02*
X88600790Y-117283010D01*
X88952816Y-116930984D01*
X90012486Y-117990654D01*
X89660460Y-118342680D01*
X89660460Y-118342680D01*
G37*
G36*
X89094704Y-118908436D02*
X88035034Y-117848766D01*
X88387060Y-117496740D01*
X89446730Y-118556410D01*
X89094704Y-118908436D01*
X89094704Y-118908436D01*
G37*
G36*
X88528948Y-119474192D02*
X87469278Y-118414522D01*
X87821304Y-118062496D01*
X88880974Y-119122166D01*
X88528948Y-119474192D01*
X88528948Y-119474192D01*
G37*
G36*
X87964988Y-120038152D02*
X86905318Y-118978482D01*
X87257344Y-118626456D01*
X88317014Y-119686126D01*
X87964988Y-120038152D01*
X87964988Y-120038152D01*
G37*
G36*
X87401028Y-120602112D02*
X86341358Y-119542442D01*
X86693384Y-119190416D01*
X87753054Y-120250086D01*
X87401028Y-120602112D01*
X87401028Y-120602112D01*
G37*
G36*
X86835272Y-121167868D02*
X85775602Y-120108198D01*
X86127628Y-119756172D01*
X87187298Y-120815842D01*
X86835272Y-121167868D01*
X86835272Y-121167868D01*
G37*
G36*
X86269516Y-121733624D02*
X85209846Y-120673954D01*
X85561872Y-120321928D01*
X86621542Y-121381598D01*
X86269516Y-121733624D01*
X86269516Y-121733624D01*
G37*
G36*
X85703760Y-122299381D02*
X84644090Y-121239711D01*
X84996116Y-120887685D01*
X86055786Y-121947355D01*
X85703760Y-122299381D01*
X85703760Y-122299381D01*
G37*
G36*
X85138003Y-122865137D02*
X84078333Y-121805467D01*
X84430359Y-121453441D01*
X85490029Y-122513111D01*
X85138003Y-122865137D01*
X85138003Y-122865137D01*
G37*
G36*
X61062359Y-125411937D02*
X60710333Y-125059911D01*
X61770003Y-124000241D01*
X62122029Y-124352267D01*
X61062359Y-125411937D01*
X61062359Y-125411937D01*
G37*
G36*
X61628116Y-125977693D02*
X61276090Y-125625667D01*
X62335760Y-124565997D01*
X62687786Y-124918023D01*
X61628116Y-125977693D01*
X61628116Y-125977693D01*
G37*
G36*
X62193872Y-126543450D02*
X61841846Y-126191424D01*
X62901516Y-125131754D01*
X63253542Y-125483780D01*
X62193872Y-126543450D01*
X62193872Y-126543450D01*
G37*
G36*
X62759628Y-127109206D02*
X62407602Y-126757180D01*
X63467272Y-125697510D01*
X63819298Y-126049536D01*
X62759628Y-127109206D01*
X62759628Y-127109206D01*
G37*
G36*
X63325384Y-127674962D02*
X62973358Y-127322936D01*
X64033028Y-126263266D01*
X64385054Y-126615292D01*
X63325384Y-127674962D01*
X63325384Y-127674962D01*
G37*
G36*
X63889344Y-128238922D02*
X63537318Y-127886896D01*
X64596988Y-126827226D01*
X64949014Y-127179252D01*
X63889344Y-128238922D01*
X63889344Y-128238922D01*
G37*
G36*
X64453304Y-128802882D02*
X64101278Y-128450856D01*
X65160948Y-127391186D01*
X65512974Y-127743212D01*
X64453304Y-128802882D01*
X64453304Y-128802882D01*
G37*
G36*
X65019060Y-129368638D02*
X64667034Y-129016612D01*
X65726704Y-127956942D01*
X66078730Y-128308968D01*
X65019060Y-129368638D01*
X65019060Y-129368638D01*
G37*
G36*
X65584816Y-129934394D02*
X65232790Y-129582368D01*
X66292460Y-128522698D01*
X66644486Y-128874724D01*
X65584816Y-129934394D01*
X65584816Y-129934394D01*
G37*
G36*
X66150573Y-130500150D02*
X65798547Y-130148124D01*
X66858217Y-129088454D01*
X67210243Y-129440480D01*
X66150573Y-130500150D01*
X66150573Y-130500150D01*
G37*
G36*
X66716329Y-131065907D02*
X66364303Y-130713881D01*
X67423973Y-129654211D01*
X67775999Y-130006237D01*
X66716329Y-131065907D01*
X66716329Y-131065907D01*
G37*
G36*
X69970773Y-131065907D02*
X68911103Y-130006237D01*
X69263129Y-129654211D01*
X70322799Y-130713881D01*
X69970773Y-131065907D01*
X69970773Y-131065907D01*
G37*
G36*
X70536529Y-130500150D02*
X69476859Y-129440480D01*
X69828885Y-129088454D01*
X70888555Y-130148124D01*
X70536529Y-130500150D01*
X70536529Y-130500150D01*
G37*
G36*
X71102286Y-129934394D02*
X70042616Y-128874724D01*
X70394642Y-128522698D01*
X71454312Y-129582368D01*
X71102286Y-129934394D01*
X71102286Y-129934394D01*
G37*
G36*
X71668042Y-129368638D02*
X70608372Y-128308968D01*
X70960398Y-127956942D01*
X72020068Y-129016612D01*
X71668042Y-129368638D01*
X71668042Y-129368638D01*
G37*
G36*
X72233798Y-128802882D02*
X71174128Y-127743212D01*
X71526154Y-127391186D01*
X72585824Y-128450856D01*
X72233798Y-128802882D01*
X72233798Y-128802882D01*
G37*
G36*
X72797758Y-128238922D02*
X71738088Y-127179252D01*
X72090114Y-126827226D01*
X73149784Y-127886896D01*
X72797758Y-128238922D01*
X72797758Y-128238922D01*
G37*
G36*
X73361718Y-127674962D02*
X72302048Y-126615292D01*
X72654074Y-126263266D01*
X73713744Y-127322936D01*
X73361718Y-127674962D01*
X73361718Y-127674962D01*
G37*
G36*
X73927474Y-127109206D02*
X72867804Y-126049536D01*
X73219830Y-125697510D01*
X74279500Y-126757180D01*
X73927474Y-127109206D01*
X73927474Y-127109206D01*
G37*
G36*
X74493230Y-126543450D02*
X73433560Y-125483780D01*
X73785586Y-125131754D01*
X74845256Y-126191424D01*
X74493230Y-126543450D01*
X74493230Y-126543450D01*
G37*
G36*
X75058986Y-125977693D02*
X73999316Y-124918023D01*
X74351342Y-124565997D01*
X75411012Y-125625667D01*
X75058986Y-125977693D01*
X75058986Y-125977693D01*
G37*
G36*
X75624743Y-125411937D02*
X74565073Y-124352267D01*
X74917099Y-124000241D01*
X75976769Y-125059911D01*
X75624743Y-125411937D01*
X75624743Y-125411937D01*
G37*
G36*
X74917099Y-122865137D02*
X74565073Y-122513111D01*
X75624743Y-121453441D01*
X75976769Y-121805467D01*
X74917099Y-122865137D01*
X74917099Y-122865137D01*
G37*
G36*
X74351342Y-122299381D02*
X73999316Y-121947355D01*
X75058986Y-120887685D01*
X75411012Y-121239711D01*
X74351342Y-122299381D01*
X74351342Y-122299381D01*
G37*
G36*
X73785586Y-121733624D02*
X73433560Y-121381598D01*
X74493230Y-120321928D01*
X74845256Y-120673954D01*
X73785586Y-121733624D01*
X73785586Y-121733624D01*
G37*
G36*
X73219830Y-121167868D02*
X72867804Y-120815842D01*
X73927474Y-119756172D01*
X74279500Y-120108198D01*
X73219830Y-121167868D01*
X73219830Y-121167868D01*
G37*
G36*
X72654074Y-120602112D02*
X72302048Y-120250086D01*
X73361718Y-119190416D01*
X73713744Y-119542442D01*
X72654074Y-120602112D01*
X72654074Y-120602112D01*
G37*
G36*
X72090114Y-120038152D02*
X71738088Y-119686126D01*
X72797758Y-118626456D01*
X73149784Y-118978482D01*
X72090114Y-120038152D01*
X72090114Y-120038152D01*
G37*
G36*
X71526154Y-119474192D02*
X71174128Y-119122166D01*
X72233798Y-118062496D01*
X72585824Y-118414522D01*
X71526154Y-119474192D01*
X71526154Y-119474192D01*
G37*
G36*
X70960398Y-118908436D02*
X70608372Y-118556410D01*
X71668042Y-117496740D01*
X72020068Y-117848766D01*
X70960398Y-118908436D01*
X70960398Y-118908436D01*
G37*
G36*
X70394642Y-118342680D02*
X70042616Y-117990654D01*
X71102286Y-116930984D01*
X71454312Y-117283010D01*
X70394642Y-118342680D01*
X70394642Y-118342680D01*
G37*
G36*
X69828885Y-117776924D02*
X69476859Y-117424898D01*
X70536529Y-116365228D01*
X70888555Y-116717254D01*
X69828885Y-117776924D01*
X69828885Y-117776924D01*
G37*
G36*
X69263129Y-117211167D02*
X68911103Y-116859141D01*
X69970773Y-115799471D01*
X70322799Y-116151497D01*
X69263129Y-117211167D01*
X69263129Y-117211167D01*
G37*
G36*
X67423973Y-117211167D02*
X66364303Y-116151497D01*
X66716329Y-115799471D01*
X67775999Y-116859141D01*
X67423973Y-117211167D01*
X67423973Y-117211167D01*
G37*
G36*
X66858217Y-117776924D02*
X65798547Y-116717254D01*
X66150573Y-116365228D01*
X67210243Y-117424898D01*
X66858217Y-117776924D01*
X66858217Y-117776924D01*
G37*
G36*
X66292460Y-118342680D02*
X65232790Y-117283010D01*
X65584816Y-116930984D01*
X66644486Y-117990654D01*
X66292460Y-118342680D01*
X66292460Y-118342680D01*
G37*
G36*
X65726704Y-118908436D02*
X64667034Y-117848766D01*
X65019060Y-117496740D01*
X66078730Y-118556410D01*
X65726704Y-118908436D01*
X65726704Y-118908436D01*
G37*
G36*
X65160948Y-119474192D02*
X64101278Y-118414522D01*
X64453304Y-118062496D01*
X65512974Y-119122166D01*
X65160948Y-119474192D01*
X65160948Y-119474192D01*
G37*
G36*
X64596988Y-120038152D02*
X63537318Y-118978482D01*
X63889344Y-118626456D01*
X64949014Y-119686126D01*
X64596988Y-120038152D01*
X64596988Y-120038152D01*
G37*
G36*
X64033028Y-120602112D02*
X62973358Y-119542442D01*
X63325384Y-119190416D01*
X64385054Y-120250086D01*
X64033028Y-120602112D01*
X64033028Y-120602112D01*
G37*
G36*
X63467272Y-121167868D02*
X62407602Y-120108198D01*
X62759628Y-119756172D01*
X63819298Y-120815842D01*
X63467272Y-121167868D01*
X63467272Y-121167868D01*
G37*
G36*
X62901516Y-121733624D02*
X61841846Y-120673954D01*
X62193872Y-120321928D01*
X63253542Y-121381598D01*
X62901516Y-121733624D01*
X62901516Y-121733624D01*
G37*
G36*
X62335760Y-122299381D02*
X61276090Y-121239711D01*
X61628116Y-120887685D01*
X62687786Y-121947355D01*
X62335760Y-122299381D01*
X62335760Y-122299381D01*
G37*
G36*
X61770003Y-122865137D02*
X60710333Y-121805467D01*
X61062359Y-121453441D01*
X62122029Y-122513111D01*
X61770003Y-122865137D01*
X61770003Y-122865137D01*
G37*
G36*
X224638359Y-69531937D02*
X224286333Y-69179911D01*
X225346003Y-68120241D01*
X225698029Y-68472267D01*
X224638359Y-69531937D01*
X224638359Y-69531937D01*
G37*
G36*
X225204116Y-70097693D02*
X224852090Y-69745667D01*
X225911760Y-68685997D01*
X226263786Y-69038023D01*
X225204116Y-70097693D01*
X225204116Y-70097693D01*
G37*
G36*
X225769872Y-70663450D02*
X225417846Y-70311424D01*
X226477516Y-69251754D01*
X226829542Y-69603780D01*
X225769872Y-70663450D01*
X225769872Y-70663450D01*
G37*
G36*
X226335628Y-71229206D02*
X225983602Y-70877180D01*
X227043272Y-69817510D01*
X227395298Y-70169536D01*
X226335628Y-71229206D01*
X226335628Y-71229206D01*
G37*
G36*
X226901384Y-71794962D02*
X226549358Y-71442936D01*
X227609028Y-70383266D01*
X227961054Y-70735292D01*
X226901384Y-71794962D01*
X226901384Y-71794962D01*
G37*
G36*
X227465344Y-72358922D02*
X227113318Y-72006896D01*
X228172988Y-70947226D01*
X228525014Y-71299252D01*
X227465344Y-72358922D01*
X227465344Y-72358922D01*
G37*
G36*
X228029304Y-72922882D02*
X227677278Y-72570856D01*
X228736948Y-71511186D01*
X229088974Y-71863212D01*
X228029304Y-72922882D01*
X228029304Y-72922882D01*
G37*
G36*
X228595060Y-73488638D02*
X228243034Y-73136612D01*
X229302704Y-72076942D01*
X229654730Y-72428968D01*
X228595060Y-73488638D01*
X228595060Y-73488638D01*
G37*
G36*
X229160816Y-74054394D02*
X228808790Y-73702368D01*
X229868460Y-72642698D01*
X230220486Y-72994724D01*
X229160816Y-74054394D01*
X229160816Y-74054394D01*
G37*
G36*
X229726573Y-74620150D02*
X229374547Y-74268124D01*
X230434217Y-73208454D01*
X230786243Y-73560480D01*
X229726573Y-74620150D01*
X229726573Y-74620150D01*
G37*
G36*
X230292329Y-75185907D02*
X229940303Y-74833881D01*
X230999973Y-73774211D01*
X231351999Y-74126237D01*
X230292329Y-75185907D01*
X230292329Y-75185907D01*
G37*
G36*
X233546773Y-75185907D02*
X232487103Y-74126237D01*
X232839129Y-73774211D01*
X233898799Y-74833881D01*
X233546773Y-75185907D01*
X233546773Y-75185907D01*
G37*
G36*
X234112529Y-74620150D02*
X233052859Y-73560480D01*
X233404885Y-73208454D01*
X234464555Y-74268124D01*
X234112529Y-74620150D01*
X234112529Y-74620150D01*
G37*
G36*
X234678286Y-74054394D02*
X233618616Y-72994724D01*
X233970642Y-72642698D01*
X235030312Y-73702368D01*
X234678286Y-74054394D01*
X234678286Y-74054394D01*
G37*
G36*
X235244042Y-73488638D02*
X234184372Y-72428968D01*
X234536398Y-72076942D01*
X235596068Y-73136612D01*
X235244042Y-73488638D01*
X235244042Y-73488638D01*
G37*
G36*
X235809798Y-72922882D02*
X234750128Y-71863212D01*
X235102154Y-71511186D01*
X236161824Y-72570856D01*
X235809798Y-72922882D01*
X235809798Y-72922882D01*
G37*
G36*
X236373758Y-72358922D02*
X235314088Y-71299252D01*
X235666114Y-70947226D01*
X236725784Y-72006896D01*
X236373758Y-72358922D01*
X236373758Y-72358922D01*
G37*
G36*
X236937718Y-71794962D02*
X235878048Y-70735292D01*
X236230074Y-70383266D01*
X237289744Y-71442936D01*
X236937718Y-71794962D01*
X236937718Y-71794962D01*
G37*
G36*
X237503474Y-71229206D02*
X236443804Y-70169536D01*
X236795830Y-69817510D01*
X237855500Y-70877180D01*
X237503474Y-71229206D01*
X237503474Y-71229206D01*
G37*
G36*
X238069230Y-70663450D02*
X237009560Y-69603780D01*
X237361586Y-69251754D01*
X238421256Y-70311424D01*
X238069230Y-70663450D01*
X238069230Y-70663450D01*
G37*
G36*
X238634986Y-70097693D02*
X237575316Y-69038023D01*
X237927342Y-68685997D01*
X238987012Y-69745667D01*
X238634986Y-70097693D01*
X238634986Y-70097693D01*
G37*
G36*
X239200743Y-69531937D02*
X238141073Y-68472267D01*
X238493099Y-68120241D01*
X239552769Y-69179911D01*
X239200743Y-69531937D01*
X239200743Y-69531937D01*
G37*
G36*
X238493099Y-66985137D02*
X238141073Y-66633111D01*
X239200743Y-65573441D01*
X239552769Y-65925467D01*
X238493099Y-66985137D01*
X238493099Y-66985137D01*
G37*
G36*
X237927342Y-66419381D02*
X237575316Y-66067355D01*
X238634986Y-65007685D01*
X238987012Y-65359711D01*
X237927342Y-66419381D01*
X237927342Y-66419381D01*
G37*
G36*
X237361586Y-65853624D02*
X237009560Y-65501598D01*
X238069230Y-64441928D01*
X238421256Y-64793954D01*
X237361586Y-65853624D01*
X237361586Y-65853624D01*
G37*
G36*
X236795830Y-65287868D02*
X236443804Y-64935842D01*
X237503474Y-63876172D01*
X237855500Y-64228198D01*
X236795830Y-65287868D01*
X236795830Y-65287868D01*
G37*
G36*
X236230074Y-64722112D02*
X235878048Y-64370086D01*
X236937718Y-63310416D01*
X237289744Y-63662442D01*
X236230074Y-64722112D01*
X236230074Y-64722112D01*
G37*
G36*
X235666114Y-64158152D02*
X235314088Y-63806126D01*
X236373758Y-62746456D01*
X236725784Y-63098482D01*
X235666114Y-64158152D01*
X235666114Y-64158152D01*
G37*
G36*
X235102154Y-63594192D02*
X234750128Y-63242166D01*
X235809798Y-62182496D01*
X236161824Y-62534522D01*
X235102154Y-63594192D01*
X235102154Y-63594192D01*
G37*
G36*
X234536398Y-63028436D02*
X234184372Y-62676410D01*
X235244042Y-61616740D01*
X235596068Y-61968766D01*
X234536398Y-63028436D01*
X234536398Y-63028436D01*
G37*
G36*
X233970642Y-62462680D02*
X233618616Y-62110654D01*
X234678286Y-61050984D01*
X235030312Y-61403010D01*
X233970642Y-62462680D01*
X233970642Y-62462680D01*
G37*
G36*
X233404885Y-61896924D02*
X233052859Y-61544898D01*
X234112529Y-60485228D01*
X234464555Y-60837254D01*
X233404885Y-61896924D01*
X233404885Y-61896924D01*
G37*
G36*
X232839129Y-61331167D02*
X232487103Y-60979141D01*
X233546773Y-59919471D01*
X233898799Y-60271497D01*
X232839129Y-61331167D01*
X232839129Y-61331167D01*
G37*
G36*
X230999973Y-61331167D02*
X229940303Y-60271497D01*
X230292329Y-59919471D01*
X231351999Y-60979141D01*
X230999973Y-61331167D01*
X230999973Y-61331167D01*
G37*
G36*
X230434217Y-61896924D02*
X229374547Y-60837254D01*
X229726573Y-60485228D01*
X230786243Y-61544898D01*
X230434217Y-61896924D01*
X230434217Y-61896924D01*
G37*
G36*
X229868460Y-62462680D02*
X228808790Y-61403010D01*
X229160816Y-61050984D01*
X230220486Y-62110654D01*
X229868460Y-62462680D01*
X229868460Y-62462680D01*
G37*
G36*
X229302704Y-63028436D02*
X228243034Y-61968766D01*
X228595060Y-61616740D01*
X229654730Y-62676410D01*
X229302704Y-63028436D01*
X229302704Y-63028436D01*
G37*
G36*
X228736948Y-63594192D02*
X227677278Y-62534522D01*
X228029304Y-62182496D01*
X229088974Y-63242166D01*
X228736948Y-63594192D01*
X228736948Y-63594192D01*
G37*
G36*
X228172988Y-64158152D02*
X227113318Y-63098482D01*
X227465344Y-62746456D01*
X228525014Y-63806126D01*
X228172988Y-64158152D01*
X228172988Y-64158152D01*
G37*
G36*
X227609028Y-64722112D02*
X226549358Y-63662442D01*
X226901384Y-63310416D01*
X227961054Y-64370086D01*
X227609028Y-64722112D01*
X227609028Y-64722112D01*
G37*
G36*
X227043272Y-65287868D02*
X225983602Y-64228198D01*
X226335628Y-63876172D01*
X227395298Y-64935842D01*
X227043272Y-65287868D01*
X227043272Y-65287868D01*
G37*
G36*
X226477516Y-65853624D02*
X225417846Y-64793954D01*
X225769872Y-64441928D01*
X226829542Y-65501598D01*
X226477516Y-65853624D01*
X226477516Y-65853624D01*
G37*
G36*
X225911760Y-66419381D02*
X224852090Y-65359711D01*
X225204116Y-65007685D01*
X226263786Y-66067355D01*
X225911760Y-66419381D01*
X225911760Y-66419381D01*
G37*
G36*
X225346003Y-66985137D02*
X224286333Y-65925467D01*
X224638359Y-65573441D01*
X225698029Y-66633111D01*
X225346003Y-66985137D01*
X225346003Y-66985137D01*
G37*
G36*
X201270359Y-69531937D02*
X200918333Y-69179911D01*
X201978003Y-68120241D01*
X202330029Y-68472267D01*
X201270359Y-69531937D01*
X201270359Y-69531937D01*
G37*
G36*
X201836116Y-70097693D02*
X201484090Y-69745667D01*
X202543760Y-68685997D01*
X202895786Y-69038023D01*
X201836116Y-70097693D01*
X201836116Y-70097693D01*
G37*
G36*
X202401872Y-70663450D02*
X202049846Y-70311424D01*
X203109516Y-69251754D01*
X203461542Y-69603780D01*
X202401872Y-70663450D01*
X202401872Y-70663450D01*
G37*
G36*
X202967628Y-71229206D02*
X202615602Y-70877180D01*
X203675272Y-69817510D01*
X204027298Y-70169536D01*
X202967628Y-71229206D01*
X202967628Y-71229206D01*
G37*
G36*
X203533384Y-71794962D02*
X203181358Y-71442936D01*
X204241028Y-70383266D01*
X204593054Y-70735292D01*
X203533384Y-71794962D01*
X203533384Y-71794962D01*
G37*
G36*
X204097344Y-72358922D02*
X203745318Y-72006896D01*
X204804988Y-70947226D01*
X205157014Y-71299252D01*
X204097344Y-72358922D01*
X204097344Y-72358922D01*
G37*
G36*
X204661304Y-72922882D02*
X204309278Y-72570856D01*
X205368948Y-71511186D01*
X205720974Y-71863212D01*
X204661304Y-72922882D01*
X204661304Y-72922882D01*
G37*
G36*
X205227060Y-73488638D02*
X204875034Y-73136612D01*
X205934704Y-72076942D01*
X206286730Y-72428968D01*
X205227060Y-73488638D01*
X205227060Y-73488638D01*
G37*
G36*
X205792816Y-74054394D02*
X205440790Y-73702368D01*
X206500460Y-72642698D01*
X206852486Y-72994724D01*
X205792816Y-74054394D01*
X205792816Y-74054394D01*
G37*
G36*
X206358573Y-74620150D02*
X206006547Y-74268124D01*
X207066217Y-73208454D01*
X207418243Y-73560480D01*
X206358573Y-74620150D01*
X206358573Y-74620150D01*
G37*
G36*
X206924329Y-75185907D02*
X206572303Y-74833881D01*
X207631973Y-73774211D01*
X207983999Y-74126237D01*
X206924329Y-75185907D01*
X206924329Y-75185907D01*
G37*
G36*
X210178773Y-75185907D02*
X209119103Y-74126237D01*
X209471129Y-73774211D01*
X210530799Y-74833881D01*
X210178773Y-75185907D01*
X210178773Y-75185907D01*
G37*
G36*
X210744529Y-74620150D02*
X209684859Y-73560480D01*
X210036885Y-73208454D01*
X211096555Y-74268124D01*
X210744529Y-74620150D01*
X210744529Y-74620150D01*
G37*
G36*
X211310286Y-74054394D02*
X210250616Y-72994724D01*
X210602642Y-72642698D01*
X211662312Y-73702368D01*
X211310286Y-74054394D01*
X211310286Y-74054394D01*
G37*
G36*
X211876042Y-73488638D02*
X210816372Y-72428968D01*
X211168398Y-72076942D01*
X212228068Y-73136612D01*
X211876042Y-73488638D01*
X211876042Y-73488638D01*
G37*
G36*
X212441798Y-72922882D02*
X211382128Y-71863212D01*
X211734154Y-71511186D01*
X212793824Y-72570856D01*
X212441798Y-72922882D01*
X212441798Y-72922882D01*
G37*
G36*
X213005758Y-72358922D02*
X211946088Y-71299252D01*
X212298114Y-70947226D01*
X213357784Y-72006896D01*
X213005758Y-72358922D01*
X213005758Y-72358922D01*
G37*
G36*
X213569718Y-71794962D02*
X212510048Y-70735292D01*
X212862074Y-70383266D01*
X213921744Y-71442936D01*
X213569718Y-71794962D01*
X213569718Y-71794962D01*
G37*
G36*
X214135474Y-71229206D02*
X213075804Y-70169536D01*
X213427830Y-69817510D01*
X214487500Y-70877180D01*
X214135474Y-71229206D01*
X214135474Y-71229206D01*
G37*
G36*
X214701230Y-70663450D02*
X213641560Y-69603780D01*
X213993586Y-69251754D01*
X215053256Y-70311424D01*
X214701230Y-70663450D01*
X214701230Y-70663450D01*
G37*
G36*
X215266986Y-70097693D02*
X214207316Y-69038023D01*
X214559342Y-68685997D01*
X215619012Y-69745667D01*
X215266986Y-70097693D01*
X215266986Y-70097693D01*
G37*
G36*
X215832743Y-69531937D02*
X214773073Y-68472267D01*
X215125099Y-68120241D01*
X216184769Y-69179911D01*
X215832743Y-69531937D01*
X215832743Y-69531937D01*
G37*
G36*
X215125099Y-66985137D02*
X214773073Y-66633111D01*
X215832743Y-65573441D01*
X216184769Y-65925467D01*
X215125099Y-66985137D01*
X215125099Y-66985137D01*
G37*
G36*
X214559342Y-66419381D02*
X214207316Y-66067355D01*
X215266986Y-65007685D01*
X215619012Y-65359711D01*
X214559342Y-66419381D01*
X214559342Y-66419381D01*
G37*
G36*
X213993586Y-65853624D02*
X213641560Y-65501598D01*
X214701230Y-64441928D01*
X215053256Y-64793954D01*
X213993586Y-65853624D01*
X213993586Y-65853624D01*
G37*
G36*
X213427830Y-65287868D02*
X213075804Y-64935842D01*
X214135474Y-63876172D01*
X214487500Y-64228198D01*
X213427830Y-65287868D01*
X213427830Y-65287868D01*
G37*
G36*
X212862074Y-64722112D02*
X212510048Y-64370086D01*
X213569718Y-63310416D01*
X213921744Y-63662442D01*
X212862074Y-64722112D01*
X212862074Y-64722112D01*
G37*
G36*
X212298114Y-64158152D02*
X211946088Y-63806126D01*
X213005758Y-62746456D01*
X213357784Y-63098482D01*
X212298114Y-64158152D01*
X212298114Y-64158152D01*
G37*
G36*
X211734154Y-63594192D02*
X211382128Y-63242166D01*
X212441798Y-62182496D01*
X212793824Y-62534522D01*
X211734154Y-63594192D01*
X211734154Y-63594192D01*
G37*
G36*
X211168398Y-63028436D02*
X210816372Y-62676410D01*
X211876042Y-61616740D01*
X212228068Y-61968766D01*
X211168398Y-63028436D01*
X211168398Y-63028436D01*
G37*
G36*
X210602642Y-62462680D02*
X210250616Y-62110654D01*
X211310286Y-61050984D01*
X211662312Y-61403010D01*
X210602642Y-62462680D01*
X210602642Y-62462680D01*
G37*
G36*
X210036885Y-61896924D02*
X209684859Y-61544898D01*
X210744529Y-60485228D01*
X211096555Y-60837254D01*
X210036885Y-61896924D01*
X210036885Y-61896924D01*
G37*
G36*
X209471129Y-61331167D02*
X209119103Y-60979141D01*
X210178773Y-59919471D01*
X210530799Y-60271497D01*
X209471129Y-61331167D01*
X209471129Y-61331167D01*
G37*
G36*
X207631973Y-61331167D02*
X206572303Y-60271497D01*
X206924329Y-59919471D01*
X207983999Y-60979141D01*
X207631973Y-61331167D01*
X207631973Y-61331167D01*
G37*
G36*
X207066217Y-61896924D02*
X206006547Y-60837254D01*
X206358573Y-60485228D01*
X207418243Y-61544898D01*
X207066217Y-61896924D01*
X207066217Y-61896924D01*
G37*
G36*
X206500460Y-62462680D02*
X205440790Y-61403010D01*
X205792816Y-61050984D01*
X206852486Y-62110654D01*
X206500460Y-62462680D01*
X206500460Y-62462680D01*
G37*
G36*
X205934704Y-63028436D02*
X204875034Y-61968766D01*
X205227060Y-61616740D01*
X206286730Y-62676410D01*
X205934704Y-63028436D01*
X205934704Y-63028436D01*
G37*
G36*
X205368948Y-63594192D02*
X204309278Y-62534522D01*
X204661304Y-62182496D01*
X205720974Y-63242166D01*
X205368948Y-63594192D01*
X205368948Y-63594192D01*
G37*
G36*
X204804988Y-64158152D02*
X203745318Y-63098482D01*
X204097344Y-62746456D01*
X205157014Y-63806126D01*
X204804988Y-64158152D01*
X204804988Y-64158152D01*
G37*
G36*
X204241028Y-64722112D02*
X203181358Y-63662442D01*
X203533384Y-63310416D01*
X204593054Y-64370086D01*
X204241028Y-64722112D01*
X204241028Y-64722112D01*
G37*
G36*
X203675272Y-65287868D02*
X202615602Y-64228198D01*
X202967628Y-63876172D01*
X204027298Y-64935842D01*
X203675272Y-65287868D01*
X203675272Y-65287868D01*
G37*
G36*
X203109516Y-65853624D02*
X202049846Y-64793954D01*
X202401872Y-64441928D01*
X203461542Y-65501598D01*
X203109516Y-65853624D01*
X203109516Y-65853624D01*
G37*
G36*
X202543760Y-66419381D02*
X201484090Y-65359711D01*
X201836116Y-65007685D01*
X202895786Y-66067355D01*
X202543760Y-66419381D01*
X202543760Y-66419381D01*
G37*
G36*
X201978003Y-66985137D02*
X200918333Y-65925467D01*
X201270359Y-65573441D01*
X202330029Y-66633111D01*
X201978003Y-66985137D01*
X201978003Y-66985137D01*
G37*
G36*
X177902359Y-69531937D02*
X177550333Y-69179911D01*
X178610003Y-68120241D01*
X178962029Y-68472267D01*
X177902359Y-69531937D01*
X177902359Y-69531937D01*
G37*
G36*
X178468116Y-70097693D02*
X178116090Y-69745667D01*
X179175760Y-68685997D01*
X179527786Y-69038023D01*
X178468116Y-70097693D01*
X178468116Y-70097693D01*
G37*
G36*
X179033872Y-70663450D02*
X178681846Y-70311424D01*
X179741516Y-69251754D01*
X180093542Y-69603780D01*
X179033872Y-70663450D01*
X179033872Y-70663450D01*
G37*
G36*
X179599628Y-71229206D02*
X179247602Y-70877180D01*
X180307272Y-69817510D01*
X180659298Y-70169536D01*
X179599628Y-71229206D01*
X179599628Y-71229206D01*
G37*
G36*
X180165384Y-71794962D02*
X179813358Y-71442936D01*
X180873028Y-70383266D01*
X181225054Y-70735292D01*
X180165384Y-71794962D01*
X180165384Y-71794962D01*
G37*
G36*
X180729344Y-72358922D02*
X180377318Y-72006896D01*
X181436988Y-70947226D01*
X181789014Y-71299252D01*
X180729344Y-72358922D01*
X180729344Y-72358922D01*
G37*
G36*
X181293304Y-72922882D02*
X180941278Y-72570856D01*
X182000948Y-71511186D01*
X182352974Y-71863212D01*
X181293304Y-72922882D01*
X181293304Y-72922882D01*
G37*
G36*
X181859060Y-73488638D02*
X181507034Y-73136612D01*
X182566704Y-72076942D01*
X182918730Y-72428968D01*
X181859060Y-73488638D01*
X181859060Y-73488638D01*
G37*
G36*
X182424816Y-74054394D02*
X182072790Y-73702368D01*
X183132460Y-72642698D01*
X183484486Y-72994724D01*
X182424816Y-74054394D01*
X182424816Y-74054394D01*
G37*
G36*
X182990573Y-74620150D02*
X182638547Y-74268124D01*
X183698217Y-73208454D01*
X184050243Y-73560480D01*
X182990573Y-74620150D01*
X182990573Y-74620150D01*
G37*
G36*
X183556329Y-75185907D02*
X183204303Y-74833881D01*
X184263973Y-73774211D01*
X184615999Y-74126237D01*
X183556329Y-75185907D01*
X183556329Y-75185907D01*
G37*
G36*
X186810773Y-75185907D02*
X185751103Y-74126237D01*
X186103129Y-73774211D01*
X187162799Y-74833881D01*
X186810773Y-75185907D01*
X186810773Y-75185907D01*
G37*
G36*
X187376529Y-74620150D02*
X186316859Y-73560480D01*
X186668885Y-73208454D01*
X187728555Y-74268124D01*
X187376529Y-74620150D01*
X187376529Y-74620150D01*
G37*
G36*
X187942286Y-74054394D02*
X186882616Y-72994724D01*
X187234642Y-72642698D01*
X188294312Y-73702368D01*
X187942286Y-74054394D01*
X187942286Y-74054394D01*
G37*
G36*
X188508042Y-73488638D02*
X187448372Y-72428968D01*
X187800398Y-72076942D01*
X188860068Y-73136612D01*
X188508042Y-73488638D01*
X188508042Y-73488638D01*
G37*
G36*
X189073798Y-72922882D02*
X188014128Y-71863212D01*
X188366154Y-71511186D01*
X189425824Y-72570856D01*
X189073798Y-72922882D01*
X189073798Y-72922882D01*
G37*
G36*
X189637758Y-72358922D02*
X188578088Y-71299252D01*
X188930114Y-70947226D01*
X189989784Y-72006896D01*
X189637758Y-72358922D01*
X189637758Y-72358922D01*
G37*
G36*
X190201718Y-71794962D02*
X189142048Y-70735292D01*
X189494074Y-70383266D01*
X190553744Y-71442936D01*
X190201718Y-71794962D01*
X190201718Y-71794962D01*
G37*
G36*
X190767474Y-71229206D02*
X189707804Y-70169536D01*
X190059830Y-69817510D01*
X191119500Y-70877180D01*
X190767474Y-71229206D01*
X190767474Y-71229206D01*
G37*
G36*
X191333230Y-70663450D02*
X190273560Y-69603780D01*
X190625586Y-69251754D01*
X191685256Y-70311424D01*
X191333230Y-70663450D01*
X191333230Y-70663450D01*
G37*
G36*
X191898986Y-70097693D02*
X190839316Y-69038023D01*
X191191342Y-68685997D01*
X192251012Y-69745667D01*
X191898986Y-70097693D01*
X191898986Y-70097693D01*
G37*
G36*
X192464743Y-69531937D02*
X191405073Y-68472267D01*
X191757099Y-68120241D01*
X192816769Y-69179911D01*
X192464743Y-69531937D01*
X192464743Y-69531937D01*
G37*
G36*
X191757099Y-66985137D02*
X191405073Y-66633111D01*
X192464743Y-65573441D01*
X192816769Y-65925467D01*
X191757099Y-66985137D01*
X191757099Y-66985137D01*
G37*
G36*
X191191342Y-66419381D02*
X190839316Y-66067355D01*
X191898986Y-65007685D01*
X192251012Y-65359711D01*
X191191342Y-66419381D01*
X191191342Y-66419381D01*
G37*
G36*
X190625586Y-65853624D02*
X190273560Y-65501598D01*
X191333230Y-64441928D01*
X191685256Y-64793954D01*
X190625586Y-65853624D01*
X190625586Y-65853624D01*
G37*
G36*
X190059830Y-65287868D02*
X189707804Y-64935842D01*
X190767474Y-63876172D01*
X191119500Y-64228198D01*
X190059830Y-65287868D01*
X190059830Y-65287868D01*
G37*
G36*
X189494074Y-64722112D02*
X189142048Y-64370086D01*
X190201718Y-63310416D01*
X190553744Y-63662442D01*
X189494074Y-64722112D01*
X189494074Y-64722112D01*
G37*
G36*
X188930114Y-64158152D02*
X188578088Y-63806126D01*
X189637758Y-62746456D01*
X189989784Y-63098482D01*
X188930114Y-64158152D01*
X188930114Y-64158152D01*
G37*
G36*
X188366154Y-63594192D02*
X188014128Y-63242166D01*
X189073798Y-62182496D01*
X189425824Y-62534522D01*
X188366154Y-63594192D01*
X188366154Y-63594192D01*
G37*
G36*
X187800398Y-63028436D02*
X187448372Y-62676410D01*
X188508042Y-61616740D01*
X188860068Y-61968766D01*
X187800398Y-63028436D01*
X187800398Y-63028436D01*
G37*
G36*
X187234642Y-62462680D02*
X186882616Y-62110654D01*
X187942286Y-61050984D01*
X188294312Y-61403010D01*
X187234642Y-62462680D01*
X187234642Y-62462680D01*
G37*
G36*
X186668885Y-61896924D02*
X186316859Y-61544898D01*
X187376529Y-60485228D01*
X187728555Y-60837254D01*
X186668885Y-61896924D01*
X186668885Y-61896924D01*
G37*
G36*
X186103129Y-61331167D02*
X185751103Y-60979141D01*
X186810773Y-59919471D01*
X187162799Y-60271497D01*
X186103129Y-61331167D01*
X186103129Y-61331167D01*
G37*
G36*
X184263973Y-61331167D02*
X183204303Y-60271497D01*
X183556329Y-59919471D01*
X184615999Y-60979141D01*
X184263973Y-61331167D01*
X184263973Y-61331167D01*
G37*
G36*
X183698217Y-61896924D02*
X182638547Y-60837254D01*
X182990573Y-60485228D01*
X184050243Y-61544898D01*
X183698217Y-61896924D01*
X183698217Y-61896924D01*
G37*
G36*
X183132460Y-62462680D02*
X182072790Y-61403010D01*
X182424816Y-61050984D01*
X183484486Y-62110654D01*
X183132460Y-62462680D01*
X183132460Y-62462680D01*
G37*
G36*
X182566704Y-63028436D02*
X181507034Y-61968766D01*
X181859060Y-61616740D01*
X182918730Y-62676410D01*
X182566704Y-63028436D01*
X182566704Y-63028436D01*
G37*
G36*
X182000948Y-63594192D02*
X180941278Y-62534522D01*
X181293304Y-62182496D01*
X182352974Y-63242166D01*
X182000948Y-63594192D01*
X182000948Y-63594192D01*
G37*
G36*
X181436988Y-64158152D02*
X180377318Y-63098482D01*
X180729344Y-62746456D01*
X181789014Y-63806126D01*
X181436988Y-64158152D01*
X181436988Y-64158152D01*
G37*
G36*
X180873028Y-64722112D02*
X179813358Y-63662442D01*
X180165384Y-63310416D01*
X181225054Y-64370086D01*
X180873028Y-64722112D01*
X180873028Y-64722112D01*
G37*
G36*
X180307272Y-65287868D02*
X179247602Y-64228198D01*
X179599628Y-63876172D01*
X180659298Y-64935842D01*
X180307272Y-65287868D01*
X180307272Y-65287868D01*
G37*
G36*
X179741516Y-65853624D02*
X178681846Y-64793954D01*
X179033872Y-64441928D01*
X180093542Y-65501598D01*
X179741516Y-65853624D01*
X179741516Y-65853624D01*
G37*
G36*
X179175760Y-66419381D02*
X178116090Y-65359711D01*
X178468116Y-65007685D01*
X179527786Y-66067355D01*
X179175760Y-66419381D01*
X179175760Y-66419381D01*
G37*
G36*
X178610003Y-66985137D02*
X177550333Y-65925467D01*
X177902359Y-65573441D01*
X178962029Y-66633111D01*
X178610003Y-66985137D01*
X178610003Y-66985137D01*
G37*
G36*
X154534359Y-69531937D02*
X154182333Y-69179911D01*
X155242003Y-68120241D01*
X155594029Y-68472267D01*
X154534359Y-69531937D01*
X154534359Y-69531937D01*
G37*
G36*
X155100116Y-70097693D02*
X154748090Y-69745667D01*
X155807760Y-68685997D01*
X156159786Y-69038023D01*
X155100116Y-70097693D01*
X155100116Y-70097693D01*
G37*
G36*
X155665872Y-70663450D02*
X155313846Y-70311424D01*
X156373516Y-69251754D01*
X156725542Y-69603780D01*
X155665872Y-70663450D01*
X155665872Y-70663450D01*
G37*
G36*
X156231628Y-71229206D02*
X155879602Y-70877180D01*
X156939272Y-69817510D01*
X157291298Y-70169536D01*
X156231628Y-71229206D01*
X156231628Y-71229206D01*
G37*
G36*
X156797384Y-71794962D02*
X156445358Y-71442936D01*
X157505028Y-70383266D01*
X157857054Y-70735292D01*
X156797384Y-71794962D01*
X156797384Y-71794962D01*
G37*
G36*
X157361344Y-72358922D02*
X157009318Y-72006896D01*
X158068988Y-70947226D01*
X158421014Y-71299252D01*
X157361344Y-72358922D01*
X157361344Y-72358922D01*
G37*
G36*
X157925304Y-72922882D02*
X157573278Y-72570856D01*
X158632948Y-71511186D01*
X158984974Y-71863212D01*
X157925304Y-72922882D01*
X157925304Y-72922882D01*
G37*
G36*
X158491060Y-73488638D02*
X158139034Y-73136612D01*
X159198704Y-72076942D01*
X159550730Y-72428968D01*
X158491060Y-73488638D01*
X158491060Y-73488638D01*
G37*
G36*
X159056816Y-74054394D02*
X158704790Y-73702368D01*
X159764460Y-72642698D01*
X160116486Y-72994724D01*
X159056816Y-74054394D01*
X159056816Y-74054394D01*
G37*
G36*
X159622573Y-74620150D02*
X159270547Y-74268124D01*
X160330217Y-73208454D01*
X160682243Y-73560480D01*
X159622573Y-74620150D01*
X159622573Y-74620150D01*
G37*
G36*
X160188329Y-75185907D02*
X159836303Y-74833881D01*
X160895973Y-73774211D01*
X161247999Y-74126237D01*
X160188329Y-75185907D01*
X160188329Y-75185907D01*
G37*
G36*
X163442773Y-75185907D02*
X162383103Y-74126237D01*
X162735129Y-73774211D01*
X163794799Y-74833881D01*
X163442773Y-75185907D01*
X163442773Y-75185907D01*
G37*
G36*
X164008529Y-74620150D02*
X162948859Y-73560480D01*
X163300885Y-73208454D01*
X164360555Y-74268124D01*
X164008529Y-74620150D01*
X164008529Y-74620150D01*
G37*
G36*
X164574286Y-74054394D02*
X163514616Y-72994724D01*
X163866642Y-72642698D01*
X164926312Y-73702368D01*
X164574286Y-74054394D01*
X164574286Y-74054394D01*
G37*
G36*
X165140042Y-73488638D02*
X164080372Y-72428968D01*
X164432398Y-72076942D01*
X165492068Y-73136612D01*
X165140042Y-73488638D01*
X165140042Y-73488638D01*
G37*
G36*
X165705798Y-72922882D02*
X164646128Y-71863212D01*
X164998154Y-71511186D01*
X166057824Y-72570856D01*
X165705798Y-72922882D01*
X165705798Y-72922882D01*
G37*
G36*
X166269758Y-72358922D02*
X165210088Y-71299252D01*
X165562114Y-70947226D01*
X166621784Y-72006896D01*
X166269758Y-72358922D01*
X166269758Y-72358922D01*
G37*
G36*
X166833718Y-71794962D02*
X165774048Y-70735292D01*
X166126074Y-70383266D01*
X167185744Y-71442936D01*
X166833718Y-71794962D01*
X166833718Y-71794962D01*
G37*
G36*
X167399474Y-71229206D02*
X166339804Y-70169536D01*
X166691830Y-69817510D01*
X167751500Y-70877180D01*
X167399474Y-71229206D01*
X167399474Y-71229206D01*
G37*
G36*
X167965230Y-70663450D02*
X166905560Y-69603780D01*
X167257586Y-69251754D01*
X168317256Y-70311424D01*
X167965230Y-70663450D01*
X167965230Y-70663450D01*
G37*
G36*
X168530986Y-70097693D02*
X167471316Y-69038023D01*
X167823342Y-68685997D01*
X168883012Y-69745667D01*
X168530986Y-70097693D01*
X168530986Y-70097693D01*
G37*
G36*
X169096743Y-69531937D02*
X168037073Y-68472267D01*
X168389099Y-68120241D01*
X169448769Y-69179911D01*
X169096743Y-69531937D01*
X169096743Y-69531937D01*
G37*
G36*
X168389099Y-66985137D02*
X168037073Y-66633111D01*
X169096743Y-65573441D01*
X169448769Y-65925467D01*
X168389099Y-66985137D01*
X168389099Y-66985137D01*
G37*
G36*
X167823342Y-66419381D02*
X167471316Y-66067355D01*
X168530986Y-65007685D01*
X168883012Y-65359711D01*
X167823342Y-66419381D01*
X167823342Y-66419381D01*
G37*
G36*
X167257586Y-65853624D02*
X166905560Y-65501598D01*
X167965230Y-64441928D01*
X168317256Y-64793954D01*
X167257586Y-65853624D01*
X167257586Y-65853624D01*
G37*
G36*
X166691830Y-65287868D02*
X166339804Y-64935842D01*
X167399474Y-63876172D01*
X167751500Y-64228198D01*
X166691830Y-65287868D01*
X166691830Y-65287868D01*
G37*
G36*
X166126074Y-64722112D02*
X165774048Y-64370086D01*
X166833718Y-63310416D01*
X167185744Y-63662442D01*
X166126074Y-64722112D01*
X166126074Y-64722112D01*
G37*
G36*
X165562114Y-64158152D02*
X165210088Y-63806126D01*
X166269758Y-62746456D01*
X166621784Y-63098482D01*
X165562114Y-64158152D01*
X165562114Y-64158152D01*
G37*
G36*
X164998154Y-63594192D02*
X164646128Y-63242166D01*
X165705798Y-62182496D01*
X166057824Y-62534522D01*
X164998154Y-63594192D01*
X164998154Y-63594192D01*
G37*
G36*
X164432398Y-63028436D02*
X164080372Y-62676410D01*
X165140042Y-61616740D01*
X165492068Y-61968766D01*
X164432398Y-63028436D01*
X164432398Y-63028436D01*
G37*
G36*
X163866642Y-62462680D02*
X163514616Y-62110654D01*
X164574286Y-61050984D01*
X164926312Y-61403010D01*
X163866642Y-62462680D01*
X163866642Y-62462680D01*
G37*
G36*
X163300885Y-61896924D02*
X162948859Y-61544898D01*
X164008529Y-60485228D01*
X164360555Y-60837254D01*
X163300885Y-61896924D01*
X163300885Y-61896924D01*
G37*
G36*
X162735129Y-61331167D02*
X162383103Y-60979141D01*
X163442773Y-59919471D01*
X163794799Y-60271497D01*
X162735129Y-61331167D01*
X162735129Y-61331167D01*
G37*
G36*
X160895973Y-61331167D02*
X159836303Y-60271497D01*
X160188329Y-59919471D01*
X161247999Y-60979141D01*
X160895973Y-61331167D01*
X160895973Y-61331167D01*
G37*
G36*
X160330217Y-61896924D02*
X159270547Y-60837254D01*
X159622573Y-60485228D01*
X160682243Y-61544898D01*
X160330217Y-61896924D01*
X160330217Y-61896924D01*
G37*
G36*
X159764460Y-62462680D02*
X158704790Y-61403010D01*
X159056816Y-61050984D01*
X160116486Y-62110654D01*
X159764460Y-62462680D01*
X159764460Y-62462680D01*
G37*
G36*
X159198704Y-63028436D02*
X158139034Y-61968766D01*
X158491060Y-61616740D01*
X159550730Y-62676410D01*
X159198704Y-63028436D01*
X159198704Y-63028436D01*
G37*
G36*
X158632948Y-63594192D02*
X157573278Y-62534522D01*
X157925304Y-62182496D01*
X158984974Y-63242166D01*
X158632948Y-63594192D01*
X158632948Y-63594192D01*
G37*
G36*
X158068988Y-64158152D02*
X157009318Y-63098482D01*
X157361344Y-62746456D01*
X158421014Y-63806126D01*
X158068988Y-64158152D01*
X158068988Y-64158152D01*
G37*
G36*
X157505028Y-64722112D02*
X156445358Y-63662442D01*
X156797384Y-63310416D01*
X157857054Y-64370086D01*
X157505028Y-64722112D01*
X157505028Y-64722112D01*
G37*
G36*
X156939272Y-65287868D02*
X155879602Y-64228198D01*
X156231628Y-63876172D01*
X157291298Y-64935842D01*
X156939272Y-65287868D01*
X156939272Y-65287868D01*
G37*
G36*
X156373516Y-65853624D02*
X155313846Y-64793954D01*
X155665872Y-64441928D01*
X156725542Y-65501598D01*
X156373516Y-65853624D01*
X156373516Y-65853624D01*
G37*
G36*
X155807760Y-66419381D02*
X154748090Y-65359711D01*
X155100116Y-65007685D01*
X156159786Y-66067355D01*
X155807760Y-66419381D01*
X155807760Y-66419381D01*
G37*
G36*
X155242003Y-66985137D02*
X154182333Y-65925467D01*
X154534359Y-65573441D01*
X155594029Y-66633111D01*
X155242003Y-66985137D01*
X155242003Y-66985137D01*
G37*
G36*
X131166359Y-69531937D02*
X130814333Y-69179911D01*
X131874003Y-68120241D01*
X132226029Y-68472267D01*
X131166359Y-69531937D01*
X131166359Y-69531937D01*
G37*
G36*
X131732116Y-70097693D02*
X131380090Y-69745667D01*
X132439760Y-68685997D01*
X132791786Y-69038023D01*
X131732116Y-70097693D01*
X131732116Y-70097693D01*
G37*
G36*
X132297872Y-70663450D02*
X131945846Y-70311424D01*
X133005516Y-69251754D01*
X133357542Y-69603780D01*
X132297872Y-70663450D01*
X132297872Y-70663450D01*
G37*
G36*
X132863628Y-71229206D02*
X132511602Y-70877180D01*
X133571272Y-69817510D01*
X133923298Y-70169536D01*
X132863628Y-71229206D01*
X132863628Y-71229206D01*
G37*
G36*
X133429384Y-71794962D02*
X133077358Y-71442936D01*
X134137028Y-70383266D01*
X134489054Y-70735292D01*
X133429384Y-71794962D01*
X133429384Y-71794962D01*
G37*
G36*
X133993344Y-72358922D02*
X133641318Y-72006896D01*
X134700988Y-70947226D01*
X135053014Y-71299252D01*
X133993344Y-72358922D01*
X133993344Y-72358922D01*
G37*
G36*
X134557304Y-72922882D02*
X134205278Y-72570856D01*
X135264948Y-71511186D01*
X135616974Y-71863212D01*
X134557304Y-72922882D01*
X134557304Y-72922882D01*
G37*
G36*
X135123060Y-73488638D02*
X134771034Y-73136612D01*
X135830704Y-72076942D01*
X136182730Y-72428968D01*
X135123060Y-73488638D01*
X135123060Y-73488638D01*
G37*
G36*
X135688816Y-74054394D02*
X135336790Y-73702368D01*
X136396460Y-72642698D01*
X136748486Y-72994724D01*
X135688816Y-74054394D01*
X135688816Y-74054394D01*
G37*
G36*
X136254573Y-74620150D02*
X135902547Y-74268124D01*
X136962217Y-73208454D01*
X137314243Y-73560480D01*
X136254573Y-74620150D01*
X136254573Y-74620150D01*
G37*
G36*
X136820329Y-75185907D02*
X136468303Y-74833881D01*
X137527973Y-73774211D01*
X137879999Y-74126237D01*
X136820329Y-75185907D01*
X136820329Y-75185907D01*
G37*
G36*
X140074773Y-75185907D02*
X139015103Y-74126237D01*
X139367129Y-73774211D01*
X140426799Y-74833881D01*
X140074773Y-75185907D01*
X140074773Y-75185907D01*
G37*
G36*
X140640529Y-74620150D02*
X139580859Y-73560480D01*
X139932885Y-73208454D01*
X140992555Y-74268124D01*
X140640529Y-74620150D01*
X140640529Y-74620150D01*
G37*
G36*
X141206286Y-74054394D02*
X140146616Y-72994724D01*
X140498642Y-72642698D01*
X141558312Y-73702368D01*
X141206286Y-74054394D01*
X141206286Y-74054394D01*
G37*
G36*
X141772042Y-73488638D02*
X140712372Y-72428968D01*
X141064398Y-72076942D01*
X142124068Y-73136612D01*
X141772042Y-73488638D01*
X141772042Y-73488638D01*
G37*
G36*
X142337798Y-72922882D02*
X141278128Y-71863212D01*
X141630154Y-71511186D01*
X142689824Y-72570856D01*
X142337798Y-72922882D01*
X142337798Y-72922882D01*
G37*
G36*
X142901758Y-72358922D02*
X141842088Y-71299252D01*
X142194114Y-70947226D01*
X143253784Y-72006896D01*
X142901758Y-72358922D01*
X142901758Y-72358922D01*
G37*
G36*
X143465718Y-71794962D02*
X142406048Y-70735292D01*
X142758074Y-70383266D01*
X143817744Y-71442936D01*
X143465718Y-71794962D01*
X143465718Y-71794962D01*
G37*
G36*
X144031474Y-71229206D02*
X142971804Y-70169536D01*
X143323830Y-69817510D01*
X144383500Y-70877180D01*
X144031474Y-71229206D01*
X144031474Y-71229206D01*
G37*
G36*
X144597230Y-70663450D02*
X143537560Y-69603780D01*
X143889586Y-69251754D01*
X144949256Y-70311424D01*
X144597230Y-70663450D01*
X144597230Y-70663450D01*
G37*
G36*
X145162986Y-70097693D02*
X144103316Y-69038023D01*
X144455342Y-68685997D01*
X145515012Y-69745667D01*
X145162986Y-70097693D01*
X145162986Y-70097693D01*
G37*
G36*
X145728743Y-69531937D02*
X144669073Y-68472267D01*
X145021099Y-68120241D01*
X146080769Y-69179911D01*
X145728743Y-69531937D01*
X145728743Y-69531937D01*
G37*
G36*
X145021099Y-66985137D02*
X144669073Y-66633111D01*
X145728743Y-65573441D01*
X146080769Y-65925467D01*
X145021099Y-66985137D01*
X145021099Y-66985137D01*
G37*
G36*
X144455342Y-66419381D02*
X144103316Y-66067355D01*
X145162986Y-65007685D01*
X145515012Y-65359711D01*
X144455342Y-66419381D01*
X144455342Y-66419381D01*
G37*
G36*
X143889586Y-65853624D02*
X143537560Y-65501598D01*
X144597230Y-64441928D01*
X144949256Y-64793954D01*
X143889586Y-65853624D01*
X143889586Y-65853624D01*
G37*
G36*
X143323830Y-65287868D02*
X142971804Y-64935842D01*
X144031474Y-63876172D01*
X144383500Y-64228198D01*
X143323830Y-65287868D01*
X143323830Y-65287868D01*
G37*
G36*
X142758074Y-64722112D02*
X142406048Y-64370086D01*
X143465718Y-63310416D01*
X143817744Y-63662442D01*
X142758074Y-64722112D01*
X142758074Y-64722112D01*
G37*
G36*
X142194114Y-64158152D02*
X141842088Y-63806126D01*
X142901758Y-62746456D01*
X143253784Y-63098482D01*
X142194114Y-64158152D01*
X142194114Y-64158152D01*
G37*
G36*
X141630154Y-63594192D02*
X141278128Y-63242166D01*
X142337798Y-62182496D01*
X142689824Y-62534522D01*
X141630154Y-63594192D01*
X141630154Y-63594192D01*
G37*
G36*
X141064398Y-63028436D02*
X140712372Y-62676410D01*
X141772042Y-61616740D01*
X142124068Y-61968766D01*
X141064398Y-63028436D01*
X141064398Y-63028436D01*
G37*
G36*
X140498642Y-62462680D02*
X140146616Y-62110654D01*
X141206286Y-61050984D01*
X141558312Y-61403010D01*
X140498642Y-62462680D01*
X140498642Y-62462680D01*
G37*
G36*
X139932885Y-61896924D02*
X139580859Y-61544898D01*
X140640529Y-60485228D01*
X140992555Y-60837254D01*
X139932885Y-61896924D01*
X139932885Y-61896924D01*
G37*
G36*
X139367129Y-61331167D02*
X139015103Y-60979141D01*
X140074773Y-59919471D01*
X140426799Y-60271497D01*
X139367129Y-61331167D01*
X139367129Y-61331167D01*
G37*
G36*
X137527973Y-61331167D02*
X136468303Y-60271497D01*
X136820329Y-59919471D01*
X137879999Y-60979141D01*
X137527973Y-61331167D01*
X137527973Y-61331167D01*
G37*
G36*
X136962217Y-61896924D02*
X135902547Y-60837254D01*
X136254573Y-60485228D01*
X137314243Y-61544898D01*
X136962217Y-61896924D01*
X136962217Y-61896924D01*
G37*
G36*
X136396460Y-62462680D02*
X135336790Y-61403010D01*
X135688816Y-61050984D01*
X136748486Y-62110654D01*
X136396460Y-62462680D01*
X136396460Y-62462680D01*
G37*
G36*
X135830704Y-63028436D02*
X134771034Y-61968766D01*
X135123060Y-61616740D01*
X136182730Y-62676410D01*
X135830704Y-63028436D01*
X135830704Y-63028436D01*
G37*
G36*
X135264948Y-63594192D02*
X134205278Y-62534522D01*
X134557304Y-62182496D01*
X135616974Y-63242166D01*
X135264948Y-63594192D01*
X135264948Y-63594192D01*
G37*
G36*
X134700988Y-64158152D02*
X133641318Y-63098482D01*
X133993344Y-62746456D01*
X135053014Y-63806126D01*
X134700988Y-64158152D01*
X134700988Y-64158152D01*
G37*
G36*
X134137028Y-64722112D02*
X133077358Y-63662442D01*
X133429384Y-63310416D01*
X134489054Y-64370086D01*
X134137028Y-64722112D01*
X134137028Y-64722112D01*
G37*
G36*
X133571272Y-65287868D02*
X132511602Y-64228198D01*
X132863628Y-63876172D01*
X133923298Y-64935842D01*
X133571272Y-65287868D01*
X133571272Y-65287868D01*
G37*
G36*
X133005516Y-65853624D02*
X131945846Y-64793954D01*
X132297872Y-64441928D01*
X133357542Y-65501598D01*
X133005516Y-65853624D01*
X133005516Y-65853624D01*
G37*
G36*
X132439760Y-66419381D02*
X131380090Y-65359711D01*
X131732116Y-65007685D01*
X132791786Y-66067355D01*
X132439760Y-66419381D01*
X132439760Y-66419381D01*
G37*
G36*
X131874003Y-66985137D02*
X130814333Y-65925467D01*
X131166359Y-65573441D01*
X132226029Y-66633111D01*
X131874003Y-66985137D01*
X131874003Y-66985137D01*
G37*
G36*
X107798359Y-69531937D02*
X107446333Y-69179911D01*
X108506003Y-68120241D01*
X108858029Y-68472267D01*
X107798359Y-69531937D01*
X107798359Y-69531937D01*
G37*
G36*
X108364116Y-70097693D02*
X108012090Y-69745667D01*
X109071760Y-68685997D01*
X109423786Y-69038023D01*
X108364116Y-70097693D01*
X108364116Y-70097693D01*
G37*
G36*
X108929872Y-70663450D02*
X108577846Y-70311424D01*
X109637516Y-69251754D01*
X109989542Y-69603780D01*
X108929872Y-70663450D01*
X108929872Y-70663450D01*
G37*
G36*
X109495628Y-71229206D02*
X109143602Y-70877180D01*
X110203272Y-69817510D01*
X110555298Y-70169536D01*
X109495628Y-71229206D01*
X109495628Y-71229206D01*
G37*
G36*
X110061384Y-71794962D02*
X109709358Y-71442936D01*
X110769028Y-70383266D01*
X111121054Y-70735292D01*
X110061384Y-71794962D01*
X110061384Y-71794962D01*
G37*
G36*
X110625344Y-72358922D02*
X110273318Y-72006896D01*
X111332988Y-70947226D01*
X111685014Y-71299252D01*
X110625344Y-72358922D01*
X110625344Y-72358922D01*
G37*
G36*
X111189304Y-72922882D02*
X110837278Y-72570856D01*
X111896948Y-71511186D01*
X112248974Y-71863212D01*
X111189304Y-72922882D01*
X111189304Y-72922882D01*
G37*
G36*
X111755060Y-73488638D02*
X111403034Y-73136612D01*
X112462704Y-72076942D01*
X112814730Y-72428968D01*
X111755060Y-73488638D01*
X111755060Y-73488638D01*
G37*
G36*
X112320816Y-74054394D02*
X111968790Y-73702368D01*
X113028460Y-72642698D01*
X113380486Y-72994724D01*
X112320816Y-74054394D01*
X112320816Y-74054394D01*
G37*
G36*
X112886573Y-74620150D02*
X112534547Y-74268124D01*
X113594217Y-73208454D01*
X113946243Y-73560480D01*
X112886573Y-74620150D01*
X112886573Y-74620150D01*
G37*
G36*
X113452329Y-75185907D02*
X113100303Y-74833881D01*
X114159973Y-73774211D01*
X114511999Y-74126237D01*
X113452329Y-75185907D01*
X113452329Y-75185907D01*
G37*
G36*
X116706773Y-75185907D02*
X115647103Y-74126237D01*
X115999129Y-73774211D01*
X117058799Y-74833881D01*
X116706773Y-75185907D01*
X116706773Y-75185907D01*
G37*
G36*
X117272529Y-74620150D02*
X116212859Y-73560480D01*
X116564885Y-73208454D01*
X117624555Y-74268124D01*
X117272529Y-74620150D01*
X117272529Y-74620150D01*
G37*
G36*
X117838286Y-74054394D02*
X116778616Y-72994724D01*
X117130642Y-72642698D01*
X118190312Y-73702368D01*
X117838286Y-74054394D01*
X117838286Y-74054394D01*
G37*
G36*
X118404042Y-73488638D02*
X117344372Y-72428968D01*
X117696398Y-72076942D01*
X118756068Y-73136612D01*
X118404042Y-73488638D01*
X118404042Y-73488638D01*
G37*
G36*
X118969798Y-72922882D02*
X117910128Y-71863212D01*
X118262154Y-71511186D01*
X119321824Y-72570856D01*
X118969798Y-72922882D01*
X118969798Y-72922882D01*
G37*
G36*
X119533758Y-72358922D02*
X118474088Y-71299252D01*
X118826114Y-70947226D01*
X119885784Y-72006896D01*
X119533758Y-72358922D01*
X119533758Y-72358922D01*
G37*
G36*
X120097718Y-71794962D02*
X119038048Y-70735292D01*
X119390074Y-70383266D01*
X120449744Y-71442936D01*
X120097718Y-71794962D01*
X120097718Y-71794962D01*
G37*
G36*
X120663474Y-71229206D02*
X119603804Y-70169536D01*
X119955830Y-69817510D01*
X121015500Y-70877180D01*
X120663474Y-71229206D01*
X120663474Y-71229206D01*
G37*
G36*
X121229230Y-70663450D02*
X120169560Y-69603780D01*
X120521586Y-69251754D01*
X121581256Y-70311424D01*
X121229230Y-70663450D01*
X121229230Y-70663450D01*
G37*
G36*
X121794986Y-70097693D02*
X120735316Y-69038023D01*
X121087342Y-68685997D01*
X122147012Y-69745667D01*
X121794986Y-70097693D01*
X121794986Y-70097693D01*
G37*
G36*
X122360743Y-69531937D02*
X121301073Y-68472267D01*
X121653099Y-68120241D01*
X122712769Y-69179911D01*
X122360743Y-69531937D01*
X122360743Y-69531937D01*
G37*
G36*
X121653099Y-66985137D02*
X121301073Y-66633111D01*
X122360743Y-65573441D01*
X122712769Y-65925467D01*
X121653099Y-66985137D01*
X121653099Y-66985137D01*
G37*
G36*
X121087342Y-66419381D02*
X120735316Y-66067355D01*
X121794986Y-65007685D01*
X122147012Y-65359711D01*
X121087342Y-66419381D01*
X121087342Y-66419381D01*
G37*
G36*
X120521586Y-65853624D02*
X120169560Y-65501598D01*
X121229230Y-64441928D01*
X121581256Y-64793954D01*
X120521586Y-65853624D01*
X120521586Y-65853624D01*
G37*
G36*
X119955830Y-65287868D02*
X119603804Y-64935842D01*
X120663474Y-63876172D01*
X121015500Y-64228198D01*
X119955830Y-65287868D01*
X119955830Y-65287868D01*
G37*
G36*
X119390074Y-64722112D02*
X119038048Y-64370086D01*
X120097718Y-63310416D01*
X120449744Y-63662442D01*
X119390074Y-64722112D01*
X119390074Y-64722112D01*
G37*
G36*
X118826114Y-64158152D02*
X118474088Y-63806126D01*
X119533758Y-62746456D01*
X119885784Y-63098482D01*
X118826114Y-64158152D01*
X118826114Y-64158152D01*
G37*
G36*
X118262154Y-63594192D02*
X117910128Y-63242166D01*
X118969798Y-62182496D01*
X119321824Y-62534522D01*
X118262154Y-63594192D01*
X118262154Y-63594192D01*
G37*
G36*
X117696398Y-63028436D02*
X117344372Y-62676410D01*
X118404042Y-61616740D01*
X118756068Y-61968766D01*
X117696398Y-63028436D01*
X117696398Y-63028436D01*
G37*
G36*
X117130642Y-62462680D02*
X116778616Y-62110654D01*
X117838286Y-61050984D01*
X118190312Y-61403010D01*
X117130642Y-62462680D01*
X117130642Y-62462680D01*
G37*
G36*
X116564885Y-61896924D02*
X116212859Y-61544898D01*
X117272529Y-60485228D01*
X117624555Y-60837254D01*
X116564885Y-61896924D01*
X116564885Y-61896924D01*
G37*
G36*
X115999129Y-61331167D02*
X115647103Y-60979141D01*
X116706773Y-59919471D01*
X117058799Y-60271497D01*
X115999129Y-61331167D01*
X115999129Y-61331167D01*
G37*
G36*
X114159973Y-61331167D02*
X113100303Y-60271497D01*
X113452329Y-59919471D01*
X114511999Y-60979141D01*
X114159973Y-61331167D01*
X114159973Y-61331167D01*
G37*
G36*
X113594217Y-61896924D02*
X112534547Y-60837254D01*
X112886573Y-60485228D01*
X113946243Y-61544898D01*
X113594217Y-61896924D01*
X113594217Y-61896924D01*
G37*
G36*
X113028460Y-62462680D02*
X111968790Y-61403010D01*
X112320816Y-61050984D01*
X113380486Y-62110654D01*
X113028460Y-62462680D01*
X113028460Y-62462680D01*
G37*
G36*
X112462704Y-63028436D02*
X111403034Y-61968766D01*
X111755060Y-61616740D01*
X112814730Y-62676410D01*
X112462704Y-63028436D01*
X112462704Y-63028436D01*
G37*
G36*
X111896948Y-63594192D02*
X110837278Y-62534522D01*
X111189304Y-62182496D01*
X112248974Y-63242166D01*
X111896948Y-63594192D01*
X111896948Y-63594192D01*
G37*
G36*
X111332988Y-64158152D02*
X110273318Y-63098482D01*
X110625344Y-62746456D01*
X111685014Y-63806126D01*
X111332988Y-64158152D01*
X111332988Y-64158152D01*
G37*
G36*
X110769028Y-64722112D02*
X109709358Y-63662442D01*
X110061384Y-63310416D01*
X111121054Y-64370086D01*
X110769028Y-64722112D01*
X110769028Y-64722112D01*
G37*
G36*
X110203272Y-65287868D02*
X109143602Y-64228198D01*
X109495628Y-63876172D01*
X110555298Y-64935842D01*
X110203272Y-65287868D01*
X110203272Y-65287868D01*
G37*
G36*
X109637516Y-65853624D02*
X108577846Y-64793954D01*
X108929872Y-64441928D01*
X109989542Y-65501598D01*
X109637516Y-65853624D01*
X109637516Y-65853624D01*
G37*
G36*
X109071760Y-66419381D02*
X108012090Y-65359711D01*
X108364116Y-65007685D01*
X109423786Y-66067355D01*
X109071760Y-66419381D01*
X109071760Y-66419381D01*
G37*
G36*
X108506003Y-66985137D02*
X107446333Y-65925467D01*
X107798359Y-65573441D01*
X108858029Y-66633111D01*
X108506003Y-66985137D01*
X108506003Y-66985137D01*
G37*
G36*
X84430359Y-69531937D02*
X84078333Y-69179911D01*
X85138003Y-68120241D01*
X85490029Y-68472267D01*
X84430359Y-69531937D01*
X84430359Y-69531937D01*
G37*
G36*
X84996116Y-70097693D02*
X84644090Y-69745667D01*
X85703760Y-68685997D01*
X86055786Y-69038023D01*
X84996116Y-70097693D01*
X84996116Y-70097693D01*
G37*
G36*
X85561872Y-70663450D02*
X85209846Y-70311424D01*
X86269516Y-69251754D01*
X86621542Y-69603780D01*
X85561872Y-70663450D01*
X85561872Y-70663450D01*
G37*
G36*
X86127628Y-71229206D02*
X85775602Y-70877180D01*
X86835272Y-69817510D01*
X87187298Y-70169536D01*
X86127628Y-71229206D01*
X86127628Y-71229206D01*
G37*
G36*
X86693384Y-71794962D02*
X86341358Y-71442936D01*
X87401028Y-70383266D01*
X87753054Y-70735292D01*
X86693384Y-71794962D01*
X86693384Y-71794962D01*
G37*
G36*
X87257344Y-72358922D02*
X86905318Y-72006896D01*
X87964988Y-70947226D01*
X88317014Y-71299252D01*
X87257344Y-72358922D01*
X87257344Y-72358922D01*
G37*
G36*
X87821304Y-72922882D02*
X87469278Y-72570856D01*
X88528948Y-71511186D01*
X88880974Y-71863212D01*
X87821304Y-72922882D01*
X87821304Y-72922882D01*
G37*
G36*
X88387060Y-73488638D02*
X88035034Y-73136612D01*
X89094704Y-72076942D01*
X89446730Y-72428968D01*
X88387060Y-73488638D01*
X88387060Y-73488638D01*
G37*
G36*
X88952816Y-74054394D02*
X88600790Y-73702368D01*
X89660460Y-72642698D01*
X90012486Y-72994724D01*
X88952816Y-74054394D01*
X88952816Y-74054394D01*
G37*
G36*
X89518573Y-74620150D02*
X89166547Y-74268124D01*
X90226217Y-73208454D01*
X90578243Y-73560480D01*
X89518573Y-74620150D01*
X89518573Y-74620150D01*
G37*
G36*
X90084329Y-75185907D02*
X89732303Y-74833881D01*
X90791973Y-73774211D01*
X91143999Y-74126237D01*
X90084329Y-75185907D01*
X90084329Y-75185907D01*
G37*
G36*
X93338773Y-75185907D02*
X92279103Y-74126237D01*
X92631129Y-73774211D01*
X93690799Y-74833881D01*
X93338773Y-75185907D01*
X93338773Y-75185907D01*
G37*
G36*
X93904529Y-74620150D02*
X92844859Y-73560480D01*
X93196885Y-73208454D01*
X94256555Y-74268124D01*
X93904529Y-74620150D01*
X93904529Y-74620150D01*
G37*
G36*
X94470286Y-74054394D02*
X93410616Y-72994724D01*
X93762642Y-72642698D01*
X94822312Y-73702368D01*
X94470286Y-74054394D01*
X94470286Y-74054394D01*
G37*
G36*
X95036042Y-73488638D02*
X93976372Y-72428968D01*
X94328398Y-72076942D01*
X95388068Y-73136612D01*
X95036042Y-73488638D01*
X95036042Y-73488638D01*
G37*
G36*
X95601798Y-72922882D02*
X94542128Y-71863212D01*
X94894154Y-71511186D01*
X95953824Y-72570856D01*
X95601798Y-72922882D01*
X95601798Y-72922882D01*
G37*
G36*
X96165758Y-72358922D02*
X95106088Y-71299252D01*
X95458114Y-70947226D01*
X96517784Y-72006896D01*
X96165758Y-72358922D01*
X96165758Y-72358922D01*
G37*
G36*
X96729718Y-71794962D02*
X95670048Y-70735292D01*
X96022074Y-70383266D01*
X97081744Y-71442936D01*
X96729718Y-71794962D01*
X96729718Y-71794962D01*
G37*
G36*
X97295474Y-71229206D02*
X96235804Y-70169536D01*
X96587830Y-69817510D01*
X97647500Y-70877180D01*
X97295474Y-71229206D01*
X97295474Y-71229206D01*
G37*
G36*
X97861230Y-70663450D02*
X96801560Y-69603780D01*
X97153586Y-69251754D01*
X98213256Y-70311424D01*
X97861230Y-70663450D01*
X97861230Y-70663450D01*
G37*
G36*
X98426986Y-70097693D02*
X97367316Y-69038023D01*
X97719342Y-68685997D01*
X98779012Y-69745667D01*
X98426986Y-70097693D01*
X98426986Y-70097693D01*
G37*
G36*
X98992743Y-69531937D02*
X97933073Y-68472267D01*
X98285099Y-68120241D01*
X99344769Y-69179911D01*
X98992743Y-69531937D01*
X98992743Y-69531937D01*
G37*
G36*
X98285099Y-66985137D02*
X97933073Y-66633111D01*
X98992743Y-65573441D01*
X99344769Y-65925467D01*
X98285099Y-66985137D01*
X98285099Y-66985137D01*
G37*
G36*
X97719342Y-66419381D02*
X97367316Y-66067355D01*
X98426986Y-65007685D01*
X98779012Y-65359711D01*
X97719342Y-66419381D01*
X97719342Y-66419381D01*
G37*
G36*
X97153586Y-65853624D02*
X96801560Y-65501598D01*
X97861230Y-64441928D01*
X98213256Y-64793954D01*
X97153586Y-65853624D01*
X97153586Y-65853624D01*
G37*
G36*
X96587830Y-65287868D02*
X96235804Y-64935842D01*
X97295474Y-63876172D01*
X97647500Y-64228198D01*
X96587830Y-65287868D01*
X96587830Y-65287868D01*
G37*
G36*
X96022074Y-64722112D02*
X95670048Y-64370086D01*
X96729718Y-63310416D01*
X97081744Y-63662442D01*
X96022074Y-64722112D01*
X96022074Y-64722112D01*
G37*
G36*
X95458114Y-64158152D02*
X95106088Y-63806126D01*
X96165758Y-62746456D01*
X96517784Y-63098482D01*
X95458114Y-64158152D01*
X95458114Y-64158152D01*
G37*
G36*
X94894154Y-63594192D02*
X94542128Y-63242166D01*
X95601798Y-62182496D01*
X95953824Y-62534522D01*
X94894154Y-63594192D01*
X94894154Y-63594192D01*
G37*
G36*
X94328398Y-63028436D02*
X93976372Y-62676410D01*
X95036042Y-61616740D01*
X95388068Y-61968766D01*
X94328398Y-63028436D01*
X94328398Y-63028436D01*
G37*
G36*
X93762642Y-62462680D02*
X93410616Y-62110654D01*
X94470286Y-61050984D01*
X94822312Y-61403010D01*
X93762642Y-62462680D01*
X93762642Y-62462680D01*
G37*
G36*
X93196885Y-61896924D02*
X92844859Y-61544898D01*
X93904529Y-60485228D01*
X94256555Y-60837254D01*
X93196885Y-61896924D01*
X93196885Y-61896924D01*
G37*
G36*
X92631129Y-61331167D02*
X92279103Y-60979141D01*
X93338773Y-59919471D01*
X93690799Y-60271497D01*
X92631129Y-61331167D01*
X92631129Y-61331167D01*
G37*
G36*
X90791973Y-61331167D02*
X89732303Y-60271497D01*
X90084329Y-59919471D01*
X91143999Y-60979141D01*
X90791973Y-61331167D01*
X90791973Y-61331167D01*
G37*
G36*
X90226217Y-61896924D02*
X89166547Y-60837254D01*
X89518573Y-60485228D01*
X90578243Y-61544898D01*
X90226217Y-61896924D01*
X90226217Y-61896924D01*
G37*
G36*
X89660460Y-62462680D02*
X88600790Y-61403010D01*
X88952816Y-61050984D01*
X90012486Y-62110654D01*
X89660460Y-62462680D01*
X89660460Y-62462680D01*
G37*
G36*
X89094704Y-63028436D02*
X88035034Y-61968766D01*
X88387060Y-61616740D01*
X89446730Y-62676410D01*
X89094704Y-63028436D01*
X89094704Y-63028436D01*
G37*
G36*
X88528948Y-63594192D02*
X87469278Y-62534522D01*
X87821304Y-62182496D01*
X88880974Y-63242166D01*
X88528948Y-63594192D01*
X88528948Y-63594192D01*
G37*
G36*
X87964988Y-64158152D02*
X86905318Y-63098482D01*
X87257344Y-62746456D01*
X88317014Y-63806126D01*
X87964988Y-64158152D01*
X87964988Y-64158152D01*
G37*
G36*
X87401028Y-64722112D02*
X86341358Y-63662442D01*
X86693384Y-63310416D01*
X87753054Y-64370086D01*
X87401028Y-64722112D01*
X87401028Y-64722112D01*
G37*
G36*
X86835272Y-65287868D02*
X85775602Y-64228198D01*
X86127628Y-63876172D01*
X87187298Y-64935842D01*
X86835272Y-65287868D01*
X86835272Y-65287868D01*
G37*
G36*
X86269516Y-65853624D02*
X85209846Y-64793954D01*
X85561872Y-64441928D01*
X86621542Y-65501598D01*
X86269516Y-65853624D01*
X86269516Y-65853624D01*
G37*
G36*
X85703760Y-66419381D02*
X84644090Y-65359711D01*
X84996116Y-65007685D01*
X86055786Y-66067355D01*
X85703760Y-66419381D01*
X85703760Y-66419381D01*
G37*
G36*
X85138003Y-66985137D02*
X84078333Y-65925467D01*
X84430359Y-65573441D01*
X85490029Y-66633111D01*
X85138003Y-66985137D01*
X85138003Y-66985137D01*
G37*
G36*
X225609559Y-128784367D02*
X225079229Y-129314697D01*
X224513543Y-128749011D01*
X225043873Y-128218681D01*
X225609559Y-128784367D01*
X225609559Y-128784367D01*
G37*
G36*
X226670219Y-129845027D02*
X226139889Y-130375357D01*
X225574203Y-129809671D01*
X226104533Y-129279341D01*
X226670219Y-129845027D01*
X226670219Y-129845027D01*
G37*
G36*
X202241559Y-128784367D02*
X201711229Y-129314697D01*
X201145543Y-128749011D01*
X201675873Y-128218681D01*
X202241559Y-128784367D01*
X202241559Y-128784367D01*
G37*
G36*
X203302219Y-129845027D02*
X202771889Y-130375357D01*
X202206203Y-129809671D01*
X202736533Y-129279341D01*
X203302219Y-129845027D01*
X203302219Y-129845027D01*
G37*
G36*
X178873559Y-128784367D02*
X178343229Y-129314697D01*
X177777543Y-128749011D01*
X178307873Y-128218681D01*
X178873559Y-128784367D01*
X178873559Y-128784367D01*
G37*
G36*
X179934219Y-129845027D02*
X179403889Y-130375357D01*
X178838203Y-129809671D01*
X179368533Y-129279341D01*
X179934219Y-129845027D01*
X179934219Y-129845027D01*
G37*
G36*
X155505559Y-128784367D02*
X154975229Y-129314697D01*
X154409543Y-128749011D01*
X154939873Y-128218681D01*
X155505559Y-128784367D01*
X155505559Y-128784367D01*
G37*
G36*
X156566219Y-129845027D02*
X156035889Y-130375357D01*
X155470203Y-129809671D01*
X156000533Y-129279341D01*
X156566219Y-129845027D01*
X156566219Y-129845027D01*
G37*
G36*
X132137559Y-128784367D02*
X131607229Y-129314697D01*
X131041543Y-128749011D01*
X131571873Y-128218681D01*
X132137559Y-128784367D01*
X132137559Y-128784367D01*
G37*
G36*
X133198219Y-129845027D02*
X132667889Y-130375357D01*
X132102203Y-129809671D01*
X132632533Y-129279341D01*
X133198219Y-129845027D01*
X133198219Y-129845027D01*
G37*
G36*
X108769559Y-128784367D02*
X108239229Y-129314697D01*
X107673543Y-128749011D01*
X108203873Y-128218681D01*
X108769559Y-128784367D01*
X108769559Y-128784367D01*
G37*
G36*
X109830219Y-129845027D02*
X109299889Y-130375357D01*
X108734203Y-129809671D01*
X109264533Y-129279341D01*
X109830219Y-129845027D01*
X109830219Y-129845027D01*
G37*
G36*
X85401559Y-128784367D02*
X84871229Y-129314697D01*
X84305543Y-128749011D01*
X84835873Y-128218681D01*
X85401559Y-128784367D01*
X85401559Y-128784367D01*
G37*
G36*
X86462219Y-129845027D02*
X85931889Y-130375357D01*
X85366203Y-129809671D01*
X85896533Y-129279341D01*
X86462219Y-129845027D01*
X86462219Y-129845027D01*
G37*
G36*
X62033559Y-128784367D02*
X61503229Y-129314697D01*
X60937543Y-128749011D01*
X61467873Y-128218681D01*
X62033559Y-128784367D01*
X62033559Y-128784367D01*
G37*
G36*
X63094219Y-129845027D02*
X62563889Y-130375357D01*
X61998203Y-129809671D01*
X62528533Y-129279341D01*
X63094219Y-129845027D01*
X63094219Y-129845027D01*
G37*
G36*
X225609559Y-72904367D02*
X225079229Y-73434697D01*
X224513543Y-72869011D01*
X225043873Y-72338681D01*
X225609559Y-72904367D01*
X225609559Y-72904367D01*
G37*
G36*
X226670219Y-73965027D02*
X226139889Y-74495357D01*
X225574203Y-73929671D01*
X226104533Y-73399341D01*
X226670219Y-73965027D01*
X226670219Y-73965027D01*
G37*
G36*
X202241559Y-72904367D02*
X201711229Y-73434697D01*
X201145543Y-72869011D01*
X201675873Y-72338681D01*
X202241559Y-72904367D01*
X202241559Y-72904367D01*
G37*
G36*
X203302219Y-73965027D02*
X202771889Y-74495357D01*
X202206203Y-73929671D01*
X202736533Y-73399341D01*
X203302219Y-73965027D01*
X203302219Y-73965027D01*
G37*
G36*
X178873559Y-72904367D02*
X178343229Y-73434697D01*
X177777543Y-72869011D01*
X178307873Y-72338681D01*
X178873559Y-72904367D01*
X178873559Y-72904367D01*
G37*
G36*
X179934219Y-73965027D02*
X179403889Y-74495357D01*
X178838203Y-73929671D01*
X179368533Y-73399341D01*
X179934219Y-73965027D01*
X179934219Y-73965027D01*
G37*
G36*
X155505559Y-72904367D02*
X154975229Y-73434697D01*
X154409543Y-72869011D01*
X154939873Y-72338681D01*
X155505559Y-72904367D01*
X155505559Y-72904367D01*
G37*
G36*
X156566219Y-73965027D02*
X156035889Y-74495357D01*
X155470203Y-73929671D01*
X156000533Y-73399341D01*
X156566219Y-73965027D01*
X156566219Y-73965027D01*
G37*
G36*
X132137559Y-72904367D02*
X131607229Y-73434697D01*
X131041543Y-72869011D01*
X131571873Y-72338681D01*
X132137559Y-72904367D01*
X132137559Y-72904367D01*
G37*
G36*
X133198219Y-73965027D02*
X132667889Y-74495357D01*
X132102203Y-73929671D01*
X132632533Y-73399341D01*
X133198219Y-73965027D01*
X133198219Y-73965027D01*
G37*
G36*
X108769559Y-72904367D02*
X108239229Y-73434697D01*
X107673543Y-72869011D01*
X108203873Y-72338681D01*
X108769559Y-72904367D01*
X108769559Y-72904367D01*
G37*
G36*
X109830219Y-73965027D02*
X109299889Y-74495357D01*
X108734203Y-73929671D01*
X109264533Y-73399341D01*
X109830219Y-73965027D01*
X109830219Y-73965027D01*
G37*
G36*
X85401559Y-72904367D02*
X84871229Y-73434697D01*
X84305543Y-72869011D01*
X84835873Y-72338681D01*
X85401559Y-72904367D01*
X85401559Y-72904367D01*
G37*
G36*
X86462219Y-73965027D02*
X85931889Y-74495357D01*
X85366203Y-73929671D01*
X85896533Y-73399341D01*
X86462219Y-73965027D01*
X86462219Y-73965027D01*
G37*
D14*
X236684551Y-139264689D03*
X237634551Y-139264689D03*
X238584551Y-139264689D03*
X238584551Y-137064689D03*
X236684551Y-137064689D03*
X213316551Y-139264689D03*
X214266551Y-139264689D03*
X215216551Y-139264689D03*
X215216551Y-137064689D03*
X213316551Y-137064689D03*
X189948551Y-139264689D03*
X190898551Y-139264689D03*
X191848551Y-139264689D03*
X191848551Y-137064689D03*
X189948551Y-137064689D03*
X166580551Y-139264689D03*
X167530551Y-139264689D03*
X168480551Y-139264689D03*
X168480551Y-137064689D03*
X166580551Y-137064689D03*
X143212551Y-139264689D03*
X144162551Y-139264689D03*
X145112551Y-139264689D03*
X145112551Y-137064689D03*
X143212551Y-137064689D03*
X119844551Y-139264689D03*
X120794551Y-139264689D03*
X121744551Y-139264689D03*
X121744551Y-137064689D03*
X119844551Y-137064689D03*
X96476551Y-139264689D03*
X97426551Y-139264689D03*
X98376551Y-139264689D03*
X98376551Y-137064689D03*
X96476551Y-137064689D03*
X73108551Y-139264689D03*
X74058551Y-139264689D03*
X75008551Y-139264689D03*
X75008551Y-137064689D03*
X73108551Y-137064689D03*
X236684551Y-83384689D03*
X237634551Y-83384689D03*
X238584551Y-83384689D03*
X238584551Y-81184689D03*
X236684551Y-81184689D03*
X213316551Y-83384689D03*
X214266551Y-83384689D03*
X215216551Y-83384689D03*
X215216551Y-81184689D03*
X213316551Y-81184689D03*
X189948551Y-83384689D03*
X190898551Y-83384689D03*
X191848551Y-83384689D03*
X191848551Y-81184689D03*
X189948551Y-81184689D03*
X166580551Y-83384689D03*
X167530551Y-83384689D03*
X168480551Y-83384689D03*
X168480551Y-81184689D03*
X166580551Y-81184689D03*
X143212551Y-83384689D03*
X144162551Y-83384689D03*
X145112551Y-83384689D03*
X145112551Y-81184689D03*
X143212551Y-81184689D03*
X119844551Y-83384689D03*
X120794551Y-83384689D03*
X121744551Y-83384689D03*
X121744551Y-81184689D03*
X119844551Y-81184689D03*
X96476551Y-83384689D03*
X97426551Y-83384689D03*
X98376551Y-83384689D03*
X98376551Y-81184689D03*
X96476551Y-81184689D03*
D15*
X233824551Y-136892149D03*
X233824551Y-139691229D03*
X210456551Y-136892149D03*
X210456551Y-139691229D03*
X187088551Y-136892149D03*
X187088551Y-139691229D03*
X163720551Y-136892149D03*
X163720551Y-139691229D03*
X140352551Y-136892149D03*
X140352551Y-139691229D03*
X116984551Y-136892149D03*
X116984551Y-139691229D03*
X93616551Y-136892149D03*
X93616551Y-139691229D03*
X70248551Y-136892149D03*
X70248551Y-139691229D03*
X233824551Y-81012149D03*
X233824551Y-83811229D03*
X210456551Y-81012149D03*
X210456551Y-83811229D03*
X187088551Y-81012149D03*
X187088551Y-83811229D03*
X163720551Y-81012149D03*
X163720551Y-83811229D03*
X140352551Y-81012149D03*
X140352551Y-83811229D03*
X116984551Y-81012149D03*
X116984551Y-83811229D03*
X93616551Y-81012149D03*
X93616551Y-83811229D03*
X241444551Y-136767689D03*
X241444551Y-139566769D03*
X218076551Y-136767689D03*
X218076551Y-139566769D03*
X194708551Y-136767689D03*
X194708551Y-139566769D03*
X171340551Y-136767689D03*
X171340551Y-139566769D03*
X147972551Y-136767689D03*
X147972551Y-139566769D03*
X124604551Y-136767689D03*
X124604551Y-139566769D03*
X101236551Y-136767689D03*
X101236551Y-139566769D03*
X77868551Y-136767689D03*
X77868551Y-139566769D03*
X241444551Y-80887689D03*
X241444551Y-83686769D03*
X218076551Y-80887689D03*
X218076551Y-83686769D03*
X194708551Y-80887689D03*
X194708551Y-83686769D03*
X171340551Y-80887689D03*
X171340551Y-83686769D03*
X147972551Y-80887689D03*
X147972551Y-83686769D03*
X124604551Y-80887689D03*
X124604551Y-83686769D03*
X101236551Y-80887689D03*
X101236551Y-83686769D03*
D16*
X235854011Y-142482689D03*
X239161091Y-142482689D03*
X212486011Y-142482689D03*
X215793091Y-142482689D03*
X189118011Y-142482689D03*
X192425091Y-142482689D03*
X165750011Y-142482689D03*
X169057091Y-142482689D03*
X142382011Y-142482689D03*
X145689091Y-142482689D03*
X119014011Y-142482689D03*
X122321091Y-142482689D03*
X95646011Y-142482689D03*
X98953091Y-142482689D03*
X72278011Y-142482689D03*
X75585091Y-142482689D03*
X235854011Y-86602689D03*
X239161091Y-86602689D03*
X212486011Y-86602689D03*
X215793091Y-86602689D03*
X189118011Y-86602689D03*
X192425091Y-86602689D03*
X165750011Y-86602689D03*
X169057091Y-86602689D03*
X142382011Y-86602689D03*
X145689091Y-86602689D03*
X119014011Y-86602689D03*
X122321091Y-86602689D03*
X95646011Y-86602689D03*
X98953091Y-86602689D03*
D11*
X225696551Y-135358689D03*
X225696551Y-133858689D03*
X202328551Y-135358689D03*
X202328551Y-133858689D03*
X178960551Y-135358689D03*
X178960551Y-133858689D03*
X155592551Y-135358689D03*
X155592551Y-133858689D03*
X132224551Y-135358689D03*
X132224551Y-133858689D03*
X108856551Y-135358689D03*
X108856551Y-133858689D03*
X85488551Y-135358689D03*
X85488551Y-133858689D03*
X62120551Y-135358689D03*
X62120551Y-133858689D03*
X225696551Y-79478689D03*
X225696551Y-77978689D03*
X202328551Y-79478689D03*
X202328551Y-77978689D03*
X178960551Y-79478689D03*
X178960551Y-77978689D03*
X155592551Y-79478689D03*
X155592551Y-77978689D03*
X132224551Y-79478689D03*
X132224551Y-77978689D03*
X108856551Y-79478689D03*
X108856551Y-77978689D03*
X85488551Y-79478689D03*
X85488551Y-77978689D03*
D17*
X225950551Y-139833469D03*
X225302851Y-139833469D03*
X227248491Y-139833469D03*
X226598251Y-139833469D03*
D18*
X221952591Y-142482689D03*
X229948511Y-142482689D03*
D19*
X224680551Y-142482689D03*
X227220551Y-142482689D03*
D17*
X224652611Y-139833469D03*
X202582551Y-139833469D03*
X201934851Y-139833469D03*
X203880491Y-139833469D03*
X203230251Y-139833469D03*
D18*
X198584591Y-142482689D03*
X206580511Y-142482689D03*
D19*
X201312551Y-142482689D03*
X203852551Y-142482689D03*
D17*
X201284611Y-139833469D03*
X179214551Y-139833469D03*
X178566851Y-139833469D03*
X180512491Y-139833469D03*
X179862251Y-139833469D03*
D18*
X175216591Y-142482689D03*
X183212511Y-142482689D03*
D19*
X177944551Y-142482689D03*
X180484551Y-142482689D03*
D17*
X177916611Y-139833469D03*
X155846551Y-139833469D03*
X155198851Y-139833469D03*
X157144491Y-139833469D03*
X156494251Y-139833469D03*
D18*
X151848591Y-142482689D03*
X159844511Y-142482689D03*
D19*
X154576551Y-142482689D03*
X157116551Y-142482689D03*
D17*
X154548611Y-139833469D03*
X132478551Y-139833469D03*
X131830851Y-139833469D03*
X133776491Y-139833469D03*
X133126251Y-139833469D03*
D18*
X128480591Y-142482689D03*
X136476511Y-142482689D03*
D19*
X131208551Y-142482689D03*
X133748551Y-142482689D03*
D17*
X131180611Y-139833469D03*
X109110551Y-139833469D03*
X108462851Y-139833469D03*
X110408491Y-139833469D03*
X109758251Y-139833469D03*
D18*
X105112591Y-142482689D03*
X113108511Y-142482689D03*
D19*
X107840551Y-142482689D03*
X110380551Y-142482689D03*
D17*
X107812611Y-139833469D03*
X85742551Y-139833469D03*
X85094851Y-139833469D03*
X87040491Y-139833469D03*
X86390251Y-139833469D03*
D18*
X81744591Y-142482689D03*
X89740511Y-142482689D03*
D19*
X84472551Y-142482689D03*
X87012551Y-142482689D03*
D17*
X84444611Y-139833469D03*
X62374551Y-139833469D03*
X61726851Y-139833469D03*
X63672491Y-139833469D03*
X63022251Y-139833469D03*
D18*
X58376591Y-142482689D03*
X66372511Y-142482689D03*
D19*
X61104551Y-142482689D03*
X63644551Y-142482689D03*
D17*
X61076611Y-139833469D03*
X225950551Y-83953469D03*
X225302851Y-83953469D03*
X227248491Y-83953469D03*
X226598251Y-83953469D03*
D18*
X221952591Y-86602689D03*
X229948511Y-86602689D03*
D19*
X224680551Y-86602689D03*
X227220551Y-86602689D03*
D17*
X224652611Y-83953469D03*
X202582551Y-83953469D03*
X201934851Y-83953469D03*
X203880491Y-83953469D03*
X203230251Y-83953469D03*
D18*
X198584591Y-86602689D03*
X206580511Y-86602689D03*
D19*
X201312551Y-86602689D03*
X203852551Y-86602689D03*
D17*
X201284611Y-83953469D03*
X179214551Y-83953469D03*
X178566851Y-83953469D03*
X180512491Y-83953469D03*
X179862251Y-83953469D03*
D18*
X175216591Y-86602689D03*
X183212511Y-86602689D03*
D19*
X177944551Y-86602689D03*
X180484551Y-86602689D03*
D17*
X177916611Y-83953469D03*
X155846551Y-83953469D03*
X155198851Y-83953469D03*
X157144491Y-83953469D03*
X156494251Y-83953469D03*
D18*
X151848591Y-86602689D03*
X159844511Y-86602689D03*
D19*
X154576551Y-86602689D03*
X157116551Y-86602689D03*
D17*
X154548611Y-83953469D03*
X132478551Y-83953469D03*
X131830851Y-83953469D03*
X133776491Y-83953469D03*
X133126251Y-83953469D03*
D18*
X128480591Y-86602689D03*
X136476511Y-86602689D03*
D19*
X131208551Y-86602689D03*
X133748551Y-86602689D03*
D17*
X131180611Y-83953469D03*
X109110551Y-83953469D03*
X108462851Y-83953469D03*
X110408491Y-83953469D03*
X109758251Y-83953469D03*
D18*
X105112591Y-86602689D03*
X113108511Y-86602689D03*
D19*
X107840551Y-86602689D03*
X110380551Y-86602689D03*
D17*
X107812611Y-83953469D03*
X85742551Y-83953469D03*
X85094851Y-83953469D03*
X87040491Y-83953469D03*
X86390251Y-83953469D03*
D18*
X81744591Y-86602689D03*
X89740511Y-86602689D03*
D19*
X84472551Y-86602689D03*
X87012551Y-86602689D03*
D17*
X84444611Y-83953469D03*
D20*
X229149551Y-137656689D03*
X230649551Y-137656689D03*
X205781551Y-137656689D03*
X207281551Y-137656689D03*
X182413551Y-137656689D03*
X183913551Y-137656689D03*
X159045551Y-137656689D03*
X160545551Y-137656689D03*
X135677551Y-137656689D03*
X137177551Y-137656689D03*
X112309551Y-137656689D03*
X113809551Y-137656689D03*
X88941551Y-137656689D03*
X90441551Y-137656689D03*
X65573551Y-137656689D03*
X67073551Y-137656689D03*
X229149551Y-81776689D03*
X230649551Y-81776689D03*
X205781551Y-81776689D03*
X207281551Y-81776689D03*
X182413551Y-81776689D03*
X183913551Y-81776689D03*
X159045551Y-81776689D03*
X160545551Y-81776689D03*
X135677551Y-81776689D03*
X137177551Y-81776689D03*
X112309551Y-81776689D03*
X113809551Y-81776689D03*
X88941551Y-81776689D03*
X90441551Y-81776689D03*
D11*
X223664551Y-135358689D03*
X223664551Y-133858689D03*
X200296551Y-135358689D03*
X200296551Y-133858689D03*
X176928551Y-135358689D03*
X176928551Y-133858689D03*
X153560551Y-135358689D03*
X153560551Y-133858689D03*
X130192551Y-135358689D03*
X130192551Y-133858689D03*
X106824551Y-135358689D03*
X106824551Y-133858689D03*
X83456551Y-135358689D03*
X83456551Y-133858689D03*
X60088551Y-135358689D03*
X60088551Y-133858689D03*
X223664551Y-79478689D03*
X223664551Y-77978689D03*
X200296551Y-79478689D03*
X200296551Y-77978689D03*
X176928551Y-79478689D03*
X176928551Y-77978689D03*
X153560551Y-79478689D03*
X153560551Y-77978689D03*
X130192551Y-79478689D03*
X130192551Y-77978689D03*
X106824551Y-79478689D03*
X106824551Y-77978689D03*
X83456551Y-79478689D03*
X83456551Y-77978689D03*
D17*
X62374551Y-83953469D03*
X61726851Y-83953469D03*
X63672491Y-83953469D03*
X63022251Y-83953469D03*
D18*
X58376591Y-86602689D03*
X66372511Y-86602689D03*
D19*
X61104551Y-86602689D03*
X63644551Y-86602689D03*
D17*
X61076611Y-83953469D03*
D13*
X65295551Y-58130689D03*
X65295551Y-56630689D03*
X65295551Y-54713689D03*
X65295551Y-53213689D03*
D20*
X65573551Y-81776689D03*
X67073551Y-81776689D03*
D10*
G36*
X62033559Y-72904367D02*
X61503229Y-73434697D01*
X60937543Y-72869011D01*
X61467873Y-72338681D01*
X62033559Y-72904367D01*
X62033559Y-72904367D01*
G37*
G36*
X63094219Y-73965027D02*
X62563889Y-74495357D01*
X61998203Y-73929671D01*
X62528533Y-73399341D01*
X63094219Y-73965027D01*
X63094219Y-73965027D01*
G37*
G36*
X59458203Y-71389671D02*
X59988533Y-70859341D01*
X60554219Y-71425027D01*
X60023889Y-71955357D01*
X59458203Y-71389671D01*
X59458203Y-71389671D01*
G37*
G36*
X58397543Y-70329011D02*
X58927873Y-69798681D01*
X59493559Y-70364367D01*
X58963229Y-70894697D01*
X58397543Y-70329011D01*
X58397543Y-70329011D01*
G37*
G36*
X59829899Y-63598011D02*
X60360229Y-64128341D01*
X59794543Y-64694027D01*
X59264213Y-64163697D01*
X59829899Y-63598011D01*
X59829899Y-63598011D01*
G37*
G36*
X60890559Y-62537351D02*
X61420889Y-63067681D01*
X60855203Y-63633367D01*
X60324873Y-63103037D01*
X60890559Y-62537351D01*
X60890559Y-62537351D01*
G37*
G36*
X77850873Y-71748341D02*
X78381203Y-71218011D01*
X78946889Y-71783697D01*
X78416559Y-72314027D01*
X77850873Y-71748341D01*
X77850873Y-71748341D01*
G37*
G36*
X76790213Y-70687681D02*
X77320543Y-70157351D01*
X77886229Y-70723037D01*
X77355899Y-71253367D01*
X76790213Y-70687681D01*
X76790213Y-70687681D01*
G37*
G36*
X71663229Y-77200037D02*
X71132899Y-77730367D01*
X70567213Y-77164681D01*
X71097543Y-76634351D01*
X71663229Y-77200037D01*
X71663229Y-77200037D01*
G37*
G36*
X72723889Y-78260697D02*
X72193559Y-78791027D01*
X71627873Y-78225341D01*
X72158203Y-77695011D01*
X72723889Y-78260697D01*
X72723889Y-78260697D01*
G37*
D16*
X72278011Y-86602689D03*
X75585091Y-86602689D03*
D11*
X63136551Y-54713689D03*
X63136551Y-53213689D03*
X65422551Y-51157689D03*
X65422551Y-49657689D03*
D10*
G36*
X61062359Y-69531937D02*
X60710333Y-69179911D01*
X61770003Y-68120241D01*
X62122029Y-68472267D01*
X61062359Y-69531937D01*
X61062359Y-69531937D01*
G37*
G36*
X61628116Y-70097693D02*
X61276090Y-69745667D01*
X62335760Y-68685997D01*
X62687786Y-69038023D01*
X61628116Y-70097693D01*
X61628116Y-70097693D01*
G37*
G36*
X62193872Y-70663450D02*
X61841846Y-70311424D01*
X62901516Y-69251754D01*
X63253542Y-69603780D01*
X62193872Y-70663450D01*
X62193872Y-70663450D01*
G37*
G36*
X62759628Y-71229206D02*
X62407602Y-70877180D01*
X63467272Y-69817510D01*
X63819298Y-70169536D01*
X62759628Y-71229206D01*
X62759628Y-71229206D01*
G37*
G36*
X63325384Y-71794962D02*
X62973358Y-71442936D01*
X64033028Y-70383266D01*
X64385054Y-70735292D01*
X63325384Y-71794962D01*
X63325384Y-71794962D01*
G37*
G36*
X63889344Y-72358922D02*
X63537318Y-72006896D01*
X64596988Y-70947226D01*
X64949014Y-71299252D01*
X63889344Y-72358922D01*
X63889344Y-72358922D01*
G37*
G36*
X64453304Y-72922882D02*
X64101278Y-72570856D01*
X65160948Y-71511186D01*
X65512974Y-71863212D01*
X64453304Y-72922882D01*
X64453304Y-72922882D01*
G37*
G36*
X65019060Y-73488638D02*
X64667034Y-73136612D01*
X65726704Y-72076942D01*
X66078730Y-72428968D01*
X65019060Y-73488638D01*
X65019060Y-73488638D01*
G37*
G36*
X65584816Y-74054394D02*
X65232790Y-73702368D01*
X66292460Y-72642698D01*
X66644486Y-72994724D01*
X65584816Y-74054394D01*
X65584816Y-74054394D01*
G37*
G36*
X66150573Y-74620150D02*
X65798547Y-74268124D01*
X66858217Y-73208454D01*
X67210243Y-73560480D01*
X66150573Y-74620150D01*
X66150573Y-74620150D01*
G37*
G36*
X66716329Y-75185907D02*
X66364303Y-74833881D01*
X67423973Y-73774211D01*
X67775999Y-74126237D01*
X66716329Y-75185907D01*
X66716329Y-75185907D01*
G37*
G36*
X69970773Y-75185907D02*
X68911103Y-74126237D01*
X69263129Y-73774211D01*
X70322799Y-74833881D01*
X69970773Y-75185907D01*
X69970773Y-75185907D01*
G37*
G36*
X70536529Y-74620150D02*
X69476859Y-73560480D01*
X69828885Y-73208454D01*
X70888555Y-74268124D01*
X70536529Y-74620150D01*
X70536529Y-74620150D01*
G37*
G36*
X71102286Y-74054394D02*
X70042616Y-72994724D01*
X70394642Y-72642698D01*
X71454312Y-73702368D01*
X71102286Y-74054394D01*
X71102286Y-74054394D01*
G37*
G36*
X71668042Y-73488638D02*
X70608372Y-72428968D01*
X70960398Y-72076942D01*
X72020068Y-73136612D01*
X71668042Y-73488638D01*
X71668042Y-73488638D01*
G37*
G36*
X72233798Y-72922882D02*
X71174128Y-71863212D01*
X71526154Y-71511186D01*
X72585824Y-72570856D01*
X72233798Y-72922882D01*
X72233798Y-72922882D01*
G37*
G36*
X72797758Y-72358922D02*
X71738088Y-71299252D01*
X72090114Y-70947226D01*
X73149784Y-72006896D01*
X72797758Y-72358922D01*
X72797758Y-72358922D01*
G37*
G36*
X73361718Y-71794962D02*
X72302048Y-70735292D01*
X72654074Y-70383266D01*
X73713744Y-71442936D01*
X73361718Y-71794962D01*
X73361718Y-71794962D01*
G37*
G36*
X73927474Y-71229206D02*
X72867804Y-70169536D01*
X73219830Y-69817510D01*
X74279500Y-70877180D01*
X73927474Y-71229206D01*
X73927474Y-71229206D01*
G37*
G36*
X74493230Y-70663450D02*
X73433560Y-69603780D01*
X73785586Y-69251754D01*
X74845256Y-70311424D01*
X74493230Y-70663450D01*
X74493230Y-70663450D01*
G37*
G36*
X75058986Y-70097693D02*
X73999316Y-69038023D01*
X74351342Y-68685997D01*
X75411012Y-69745667D01*
X75058986Y-70097693D01*
X75058986Y-70097693D01*
G37*
G36*
X75624743Y-69531937D02*
X74565073Y-68472267D01*
X74917099Y-68120241D01*
X75976769Y-69179911D01*
X75624743Y-69531937D01*
X75624743Y-69531937D01*
G37*
G36*
X74917099Y-66985137D02*
X74565073Y-66633111D01*
X75624743Y-65573441D01*
X75976769Y-65925467D01*
X74917099Y-66985137D01*
X74917099Y-66985137D01*
G37*
G36*
X74351342Y-66419381D02*
X73999316Y-66067355D01*
X75058986Y-65007685D01*
X75411012Y-65359711D01*
X74351342Y-66419381D01*
X74351342Y-66419381D01*
G37*
G36*
X73785586Y-65853624D02*
X73433560Y-65501598D01*
X74493230Y-64441928D01*
X74845256Y-64793954D01*
X73785586Y-65853624D01*
X73785586Y-65853624D01*
G37*
G36*
X73219830Y-65287868D02*
X72867804Y-64935842D01*
X73927474Y-63876172D01*
X74279500Y-64228198D01*
X73219830Y-65287868D01*
X73219830Y-65287868D01*
G37*
G36*
X72654074Y-64722112D02*
X72302048Y-64370086D01*
X73361718Y-63310416D01*
X73713744Y-63662442D01*
X72654074Y-64722112D01*
X72654074Y-64722112D01*
G37*
G36*
X72090114Y-64158152D02*
X71738088Y-63806126D01*
X72797758Y-62746456D01*
X73149784Y-63098482D01*
X72090114Y-64158152D01*
X72090114Y-64158152D01*
G37*
G36*
X71526154Y-63594192D02*
X71174128Y-63242166D01*
X72233798Y-62182496D01*
X72585824Y-62534522D01*
X71526154Y-63594192D01*
X71526154Y-63594192D01*
G37*
G36*
X70960398Y-63028436D02*
X70608372Y-62676410D01*
X71668042Y-61616740D01*
X72020068Y-61968766D01*
X70960398Y-63028436D01*
X70960398Y-63028436D01*
G37*
G36*
X70394642Y-62462680D02*
X70042616Y-62110654D01*
X71102286Y-61050984D01*
X71454312Y-61403010D01*
X70394642Y-62462680D01*
X70394642Y-62462680D01*
G37*
G36*
X69828885Y-61896924D02*
X69476859Y-61544898D01*
X70536529Y-60485228D01*
X70888555Y-60837254D01*
X69828885Y-61896924D01*
X69828885Y-61896924D01*
G37*
G36*
X69263129Y-61331167D02*
X68911103Y-60979141D01*
X69970773Y-59919471D01*
X70322799Y-60271497D01*
X69263129Y-61331167D01*
X69263129Y-61331167D01*
G37*
G36*
X67423973Y-61331167D02*
X66364303Y-60271497D01*
X66716329Y-59919471D01*
X67775999Y-60979141D01*
X67423973Y-61331167D01*
X67423973Y-61331167D01*
G37*
G36*
X66858217Y-61896924D02*
X65798547Y-60837254D01*
X66150573Y-60485228D01*
X67210243Y-61544898D01*
X66858217Y-61896924D01*
X66858217Y-61896924D01*
G37*
G36*
X66292460Y-62462680D02*
X65232790Y-61403010D01*
X65584816Y-61050984D01*
X66644486Y-62110654D01*
X66292460Y-62462680D01*
X66292460Y-62462680D01*
G37*
G36*
X65726704Y-63028436D02*
X64667034Y-61968766D01*
X65019060Y-61616740D01*
X66078730Y-62676410D01*
X65726704Y-63028436D01*
X65726704Y-63028436D01*
G37*
G36*
X65160948Y-63594192D02*
X64101278Y-62534522D01*
X64453304Y-62182496D01*
X65512974Y-63242166D01*
X65160948Y-63594192D01*
X65160948Y-63594192D01*
G37*
G36*
X64596988Y-64158152D02*
X63537318Y-63098482D01*
X63889344Y-62746456D01*
X64949014Y-63806126D01*
X64596988Y-64158152D01*
X64596988Y-64158152D01*
G37*
G36*
X64033028Y-64722112D02*
X62973358Y-63662442D01*
X63325384Y-63310416D01*
X64385054Y-64370086D01*
X64033028Y-64722112D01*
X64033028Y-64722112D01*
G37*
G36*
X63467272Y-65287868D02*
X62407602Y-64228198D01*
X62759628Y-63876172D01*
X63819298Y-64935842D01*
X63467272Y-65287868D01*
X63467272Y-65287868D01*
G37*
G36*
X62901516Y-65853624D02*
X61841846Y-64793954D01*
X62193872Y-64441928D01*
X63253542Y-65501598D01*
X62901516Y-65853624D01*
X62901516Y-65853624D01*
G37*
G36*
X62335760Y-66419381D02*
X61276090Y-65359711D01*
X61628116Y-65007685D01*
X62687786Y-66067355D01*
X62335760Y-66419381D01*
X62335760Y-66419381D01*
G37*
G36*
X61770003Y-66985137D02*
X60710333Y-65925467D01*
X61062359Y-65573441D01*
X62122029Y-66633111D01*
X61770003Y-66985137D01*
X61770003Y-66985137D01*
G37*
D11*
X62120551Y-79478689D03*
X62120551Y-77978689D03*
X60088551Y-79478689D03*
X60088551Y-77978689D03*
D10*
G36*
X65032246Y-77069780D02*
X65668642Y-76433384D01*
X66022196Y-76786938D01*
X65385800Y-77423334D01*
X65032246Y-77069780D01*
X65032246Y-77069780D01*
G37*
G36*
X66092906Y-78130440D02*
X66729302Y-77494044D01*
X67082856Y-77847598D01*
X66446460Y-78483994D01*
X66092906Y-78130440D01*
X66092906Y-78130440D01*
G37*
D12*
X67802551Y-52058689D03*
X67802551Y-53328689D03*
X67802551Y-54598689D03*
X67802551Y-55868689D03*
X73202551Y-55868689D03*
X73202551Y-54598689D03*
X73202551Y-53328689D03*
X73202551Y-52058689D03*
D14*
X73108551Y-83384689D03*
X74058551Y-83384689D03*
X75008551Y-83384689D03*
X75008551Y-81184689D03*
X73108551Y-81184689D03*
D10*
G36*
X75599139Y-71357781D02*
X76376829Y-72135471D01*
X75033383Y-73478917D01*
X74255693Y-72701227D01*
X75599139Y-71357781D01*
X75599139Y-71357781D01*
G37*
G36*
X72984089Y-73972831D02*
X73761779Y-74750521D01*
X72418333Y-76093967D01*
X71640643Y-75316277D01*
X72984089Y-73972831D01*
X72984089Y-73972831D01*
G37*
G36*
X74607719Y-75596461D02*
X75385409Y-76374151D01*
X74041963Y-77717597D01*
X73264273Y-76939907D01*
X74607719Y-75596461D01*
X74607719Y-75596461D01*
G37*
G36*
X77222769Y-72981411D02*
X78000459Y-73759101D01*
X76657013Y-75102547D01*
X75879323Y-74324857D01*
X77222769Y-72981411D01*
X77222769Y-72981411D01*
G37*
D15*
X77868551Y-80887689D03*
X77868551Y-83686769D03*
X70248551Y-81012149D03*
X70248551Y-83811229D03*
M02*
