G04 #@! TF.FileFunction,Legend,Top*
%FSLAX46Y46*%
G04 Gerber Fmt 4.6, Leading zero omitted, Abs format (unit mm)*
G04 Created by KiCad (PCBNEW 4.0.6) date 11/19/17 22:49:51*
%MOMM*%
%LPD*%
G01*
G04 APERTURE LIST*
%ADD10C,0.100000*%
%ADD11C,0.300000*%
%ADD12C,0.120000*%
%ADD13C,0.203200*%
%ADD14C,0.150000*%
%ADD15C,0.254000*%
G04 APERTURE END LIST*
D10*
D11*
X229974694Y-96695118D02*
X229117551Y-96695118D01*
X229546122Y-95195118D02*
X229546122Y-96695118D01*
X228617551Y-95766546D02*
X227474694Y-95766546D01*
X206606694Y-96695118D02*
X205749551Y-96695118D01*
X206178122Y-95195118D02*
X206178122Y-96695118D01*
X205249551Y-95766546D02*
X204106694Y-95766546D01*
X183238694Y-96695118D02*
X182381551Y-96695118D01*
X182810122Y-95195118D02*
X182810122Y-96695118D01*
X181881551Y-95766546D02*
X180738694Y-95766546D01*
X159870694Y-96695118D02*
X159013551Y-96695118D01*
X159442122Y-95195118D02*
X159442122Y-96695118D01*
X158513551Y-95766546D02*
X157370694Y-95766546D01*
X136502694Y-96695118D02*
X135645551Y-96695118D01*
X136074122Y-95195118D02*
X136074122Y-96695118D01*
X135145551Y-95766546D02*
X134002694Y-95766546D01*
X113134694Y-96695118D02*
X112277551Y-96695118D01*
X112706122Y-95195118D02*
X112706122Y-96695118D01*
X111777551Y-95766546D02*
X110634694Y-95766546D01*
X89766694Y-96695118D02*
X88909551Y-96695118D01*
X89338122Y-95195118D02*
X89338122Y-96695118D01*
X88409551Y-95766546D02*
X87266694Y-95766546D01*
X66398694Y-96695118D02*
X65541551Y-96695118D01*
X65970122Y-95195118D02*
X65970122Y-96695118D01*
X65041551Y-95766546D02*
X63898694Y-95766546D01*
X229974694Y-40815118D02*
X229117551Y-40815118D01*
X229546122Y-39315118D02*
X229546122Y-40815118D01*
X228617551Y-39886546D02*
X227474694Y-39886546D01*
X206606694Y-40815118D02*
X205749551Y-40815118D01*
X206178122Y-39315118D02*
X206178122Y-40815118D01*
X205249551Y-39886546D02*
X204106694Y-39886546D01*
X183238694Y-40815118D02*
X182381551Y-40815118D01*
X182810122Y-39315118D02*
X182810122Y-40815118D01*
X181881551Y-39886546D02*
X180738694Y-39886546D01*
X159870694Y-40815118D02*
X159013551Y-40815118D01*
X159442122Y-39315118D02*
X159442122Y-40815118D01*
X158513551Y-39886546D02*
X157370694Y-39886546D01*
X136502694Y-40815118D02*
X135645551Y-40815118D01*
X136074122Y-39315118D02*
X136074122Y-40815118D01*
X135145551Y-39886546D02*
X134002694Y-39886546D01*
X113134694Y-40815118D02*
X112277551Y-40815118D01*
X112706122Y-39315118D02*
X112706122Y-40815118D01*
X111777551Y-39886546D02*
X110634694Y-39886546D01*
X89766694Y-40815118D02*
X88909551Y-40815118D01*
X89338122Y-39315118D02*
X89338122Y-40815118D01*
X88409551Y-39886546D02*
X87266694Y-39886546D01*
X234586408Y-96623689D02*
X234729265Y-96695118D01*
X234943551Y-96695118D01*
X235157836Y-96623689D01*
X235300694Y-96480832D01*
X235372122Y-96337975D01*
X235443551Y-96052260D01*
X235443551Y-95837975D01*
X235372122Y-95552260D01*
X235300694Y-95409403D01*
X235157836Y-95266546D01*
X234943551Y-95195118D01*
X234800694Y-95195118D01*
X234586408Y-95266546D01*
X234514979Y-95337975D01*
X234514979Y-95837975D01*
X234800694Y-95837975D01*
X233872122Y-95195118D02*
X233872122Y-96695118D01*
X233014979Y-95195118D01*
X233014979Y-96695118D01*
X232300693Y-95195118D02*
X232300693Y-96695118D01*
X231943550Y-96695118D01*
X231729265Y-96623689D01*
X231586407Y-96480832D01*
X231514979Y-96337975D01*
X231443550Y-96052260D01*
X231443550Y-95837975D01*
X231514979Y-95552260D01*
X231586407Y-95409403D01*
X231729265Y-95266546D01*
X231943550Y-95195118D01*
X232300693Y-95195118D01*
X211218408Y-96623689D02*
X211361265Y-96695118D01*
X211575551Y-96695118D01*
X211789836Y-96623689D01*
X211932694Y-96480832D01*
X212004122Y-96337975D01*
X212075551Y-96052260D01*
X212075551Y-95837975D01*
X212004122Y-95552260D01*
X211932694Y-95409403D01*
X211789836Y-95266546D01*
X211575551Y-95195118D01*
X211432694Y-95195118D01*
X211218408Y-95266546D01*
X211146979Y-95337975D01*
X211146979Y-95837975D01*
X211432694Y-95837975D01*
X210504122Y-95195118D02*
X210504122Y-96695118D01*
X209646979Y-95195118D01*
X209646979Y-96695118D01*
X208932693Y-95195118D02*
X208932693Y-96695118D01*
X208575550Y-96695118D01*
X208361265Y-96623689D01*
X208218407Y-96480832D01*
X208146979Y-96337975D01*
X208075550Y-96052260D01*
X208075550Y-95837975D01*
X208146979Y-95552260D01*
X208218407Y-95409403D01*
X208361265Y-95266546D01*
X208575550Y-95195118D01*
X208932693Y-95195118D01*
X187850408Y-96623689D02*
X187993265Y-96695118D01*
X188207551Y-96695118D01*
X188421836Y-96623689D01*
X188564694Y-96480832D01*
X188636122Y-96337975D01*
X188707551Y-96052260D01*
X188707551Y-95837975D01*
X188636122Y-95552260D01*
X188564694Y-95409403D01*
X188421836Y-95266546D01*
X188207551Y-95195118D01*
X188064694Y-95195118D01*
X187850408Y-95266546D01*
X187778979Y-95337975D01*
X187778979Y-95837975D01*
X188064694Y-95837975D01*
X187136122Y-95195118D02*
X187136122Y-96695118D01*
X186278979Y-95195118D01*
X186278979Y-96695118D01*
X185564693Y-95195118D02*
X185564693Y-96695118D01*
X185207550Y-96695118D01*
X184993265Y-96623689D01*
X184850407Y-96480832D01*
X184778979Y-96337975D01*
X184707550Y-96052260D01*
X184707550Y-95837975D01*
X184778979Y-95552260D01*
X184850407Y-95409403D01*
X184993265Y-95266546D01*
X185207550Y-95195118D01*
X185564693Y-95195118D01*
X164482408Y-96623689D02*
X164625265Y-96695118D01*
X164839551Y-96695118D01*
X165053836Y-96623689D01*
X165196694Y-96480832D01*
X165268122Y-96337975D01*
X165339551Y-96052260D01*
X165339551Y-95837975D01*
X165268122Y-95552260D01*
X165196694Y-95409403D01*
X165053836Y-95266546D01*
X164839551Y-95195118D01*
X164696694Y-95195118D01*
X164482408Y-95266546D01*
X164410979Y-95337975D01*
X164410979Y-95837975D01*
X164696694Y-95837975D01*
X163768122Y-95195118D02*
X163768122Y-96695118D01*
X162910979Y-95195118D01*
X162910979Y-96695118D01*
X162196693Y-95195118D02*
X162196693Y-96695118D01*
X161839550Y-96695118D01*
X161625265Y-96623689D01*
X161482407Y-96480832D01*
X161410979Y-96337975D01*
X161339550Y-96052260D01*
X161339550Y-95837975D01*
X161410979Y-95552260D01*
X161482407Y-95409403D01*
X161625265Y-95266546D01*
X161839550Y-95195118D01*
X162196693Y-95195118D01*
X141114408Y-96623689D02*
X141257265Y-96695118D01*
X141471551Y-96695118D01*
X141685836Y-96623689D01*
X141828694Y-96480832D01*
X141900122Y-96337975D01*
X141971551Y-96052260D01*
X141971551Y-95837975D01*
X141900122Y-95552260D01*
X141828694Y-95409403D01*
X141685836Y-95266546D01*
X141471551Y-95195118D01*
X141328694Y-95195118D01*
X141114408Y-95266546D01*
X141042979Y-95337975D01*
X141042979Y-95837975D01*
X141328694Y-95837975D01*
X140400122Y-95195118D02*
X140400122Y-96695118D01*
X139542979Y-95195118D01*
X139542979Y-96695118D01*
X138828693Y-95195118D02*
X138828693Y-96695118D01*
X138471550Y-96695118D01*
X138257265Y-96623689D01*
X138114407Y-96480832D01*
X138042979Y-96337975D01*
X137971550Y-96052260D01*
X137971550Y-95837975D01*
X138042979Y-95552260D01*
X138114407Y-95409403D01*
X138257265Y-95266546D01*
X138471550Y-95195118D01*
X138828693Y-95195118D01*
X117746408Y-96623689D02*
X117889265Y-96695118D01*
X118103551Y-96695118D01*
X118317836Y-96623689D01*
X118460694Y-96480832D01*
X118532122Y-96337975D01*
X118603551Y-96052260D01*
X118603551Y-95837975D01*
X118532122Y-95552260D01*
X118460694Y-95409403D01*
X118317836Y-95266546D01*
X118103551Y-95195118D01*
X117960694Y-95195118D01*
X117746408Y-95266546D01*
X117674979Y-95337975D01*
X117674979Y-95837975D01*
X117960694Y-95837975D01*
X117032122Y-95195118D02*
X117032122Y-96695118D01*
X116174979Y-95195118D01*
X116174979Y-96695118D01*
X115460693Y-95195118D02*
X115460693Y-96695118D01*
X115103550Y-96695118D01*
X114889265Y-96623689D01*
X114746407Y-96480832D01*
X114674979Y-96337975D01*
X114603550Y-96052260D01*
X114603550Y-95837975D01*
X114674979Y-95552260D01*
X114746407Y-95409403D01*
X114889265Y-95266546D01*
X115103550Y-95195118D01*
X115460693Y-95195118D01*
X94378408Y-96623689D02*
X94521265Y-96695118D01*
X94735551Y-96695118D01*
X94949836Y-96623689D01*
X95092694Y-96480832D01*
X95164122Y-96337975D01*
X95235551Y-96052260D01*
X95235551Y-95837975D01*
X95164122Y-95552260D01*
X95092694Y-95409403D01*
X94949836Y-95266546D01*
X94735551Y-95195118D01*
X94592694Y-95195118D01*
X94378408Y-95266546D01*
X94306979Y-95337975D01*
X94306979Y-95837975D01*
X94592694Y-95837975D01*
X93664122Y-95195118D02*
X93664122Y-96695118D01*
X92806979Y-95195118D01*
X92806979Y-96695118D01*
X92092693Y-95195118D02*
X92092693Y-96695118D01*
X91735550Y-96695118D01*
X91521265Y-96623689D01*
X91378407Y-96480832D01*
X91306979Y-96337975D01*
X91235550Y-96052260D01*
X91235550Y-95837975D01*
X91306979Y-95552260D01*
X91378407Y-95409403D01*
X91521265Y-95266546D01*
X91735550Y-95195118D01*
X92092693Y-95195118D01*
X71010408Y-96623689D02*
X71153265Y-96695118D01*
X71367551Y-96695118D01*
X71581836Y-96623689D01*
X71724694Y-96480832D01*
X71796122Y-96337975D01*
X71867551Y-96052260D01*
X71867551Y-95837975D01*
X71796122Y-95552260D01*
X71724694Y-95409403D01*
X71581836Y-95266546D01*
X71367551Y-95195118D01*
X71224694Y-95195118D01*
X71010408Y-95266546D01*
X70938979Y-95337975D01*
X70938979Y-95837975D01*
X71224694Y-95837975D01*
X70296122Y-95195118D02*
X70296122Y-96695118D01*
X69438979Y-95195118D01*
X69438979Y-96695118D01*
X68724693Y-95195118D02*
X68724693Y-96695118D01*
X68367550Y-96695118D01*
X68153265Y-96623689D01*
X68010407Y-96480832D01*
X67938979Y-96337975D01*
X67867550Y-96052260D01*
X67867550Y-95837975D01*
X67938979Y-95552260D01*
X68010407Y-95409403D01*
X68153265Y-95266546D01*
X68367550Y-95195118D01*
X68724693Y-95195118D01*
X234586408Y-40743689D02*
X234729265Y-40815118D01*
X234943551Y-40815118D01*
X235157836Y-40743689D01*
X235300694Y-40600832D01*
X235372122Y-40457975D01*
X235443551Y-40172260D01*
X235443551Y-39957975D01*
X235372122Y-39672260D01*
X235300694Y-39529403D01*
X235157836Y-39386546D01*
X234943551Y-39315118D01*
X234800694Y-39315118D01*
X234586408Y-39386546D01*
X234514979Y-39457975D01*
X234514979Y-39957975D01*
X234800694Y-39957975D01*
X233872122Y-39315118D02*
X233872122Y-40815118D01*
X233014979Y-39315118D01*
X233014979Y-40815118D01*
X232300693Y-39315118D02*
X232300693Y-40815118D01*
X231943550Y-40815118D01*
X231729265Y-40743689D01*
X231586407Y-40600832D01*
X231514979Y-40457975D01*
X231443550Y-40172260D01*
X231443550Y-39957975D01*
X231514979Y-39672260D01*
X231586407Y-39529403D01*
X231729265Y-39386546D01*
X231943550Y-39315118D01*
X232300693Y-39315118D01*
X211218408Y-40743689D02*
X211361265Y-40815118D01*
X211575551Y-40815118D01*
X211789836Y-40743689D01*
X211932694Y-40600832D01*
X212004122Y-40457975D01*
X212075551Y-40172260D01*
X212075551Y-39957975D01*
X212004122Y-39672260D01*
X211932694Y-39529403D01*
X211789836Y-39386546D01*
X211575551Y-39315118D01*
X211432694Y-39315118D01*
X211218408Y-39386546D01*
X211146979Y-39457975D01*
X211146979Y-39957975D01*
X211432694Y-39957975D01*
X210504122Y-39315118D02*
X210504122Y-40815118D01*
X209646979Y-39315118D01*
X209646979Y-40815118D01*
X208932693Y-39315118D02*
X208932693Y-40815118D01*
X208575550Y-40815118D01*
X208361265Y-40743689D01*
X208218407Y-40600832D01*
X208146979Y-40457975D01*
X208075550Y-40172260D01*
X208075550Y-39957975D01*
X208146979Y-39672260D01*
X208218407Y-39529403D01*
X208361265Y-39386546D01*
X208575550Y-39315118D01*
X208932693Y-39315118D01*
X187850408Y-40743689D02*
X187993265Y-40815118D01*
X188207551Y-40815118D01*
X188421836Y-40743689D01*
X188564694Y-40600832D01*
X188636122Y-40457975D01*
X188707551Y-40172260D01*
X188707551Y-39957975D01*
X188636122Y-39672260D01*
X188564694Y-39529403D01*
X188421836Y-39386546D01*
X188207551Y-39315118D01*
X188064694Y-39315118D01*
X187850408Y-39386546D01*
X187778979Y-39457975D01*
X187778979Y-39957975D01*
X188064694Y-39957975D01*
X187136122Y-39315118D02*
X187136122Y-40815118D01*
X186278979Y-39315118D01*
X186278979Y-40815118D01*
X185564693Y-39315118D02*
X185564693Y-40815118D01*
X185207550Y-40815118D01*
X184993265Y-40743689D01*
X184850407Y-40600832D01*
X184778979Y-40457975D01*
X184707550Y-40172260D01*
X184707550Y-39957975D01*
X184778979Y-39672260D01*
X184850407Y-39529403D01*
X184993265Y-39386546D01*
X185207550Y-39315118D01*
X185564693Y-39315118D01*
X164482408Y-40743689D02*
X164625265Y-40815118D01*
X164839551Y-40815118D01*
X165053836Y-40743689D01*
X165196694Y-40600832D01*
X165268122Y-40457975D01*
X165339551Y-40172260D01*
X165339551Y-39957975D01*
X165268122Y-39672260D01*
X165196694Y-39529403D01*
X165053836Y-39386546D01*
X164839551Y-39315118D01*
X164696694Y-39315118D01*
X164482408Y-39386546D01*
X164410979Y-39457975D01*
X164410979Y-39957975D01*
X164696694Y-39957975D01*
X163768122Y-39315118D02*
X163768122Y-40815118D01*
X162910979Y-39315118D01*
X162910979Y-40815118D01*
X162196693Y-39315118D02*
X162196693Y-40815118D01*
X161839550Y-40815118D01*
X161625265Y-40743689D01*
X161482407Y-40600832D01*
X161410979Y-40457975D01*
X161339550Y-40172260D01*
X161339550Y-39957975D01*
X161410979Y-39672260D01*
X161482407Y-39529403D01*
X161625265Y-39386546D01*
X161839550Y-39315118D01*
X162196693Y-39315118D01*
X141114408Y-40743689D02*
X141257265Y-40815118D01*
X141471551Y-40815118D01*
X141685836Y-40743689D01*
X141828694Y-40600832D01*
X141900122Y-40457975D01*
X141971551Y-40172260D01*
X141971551Y-39957975D01*
X141900122Y-39672260D01*
X141828694Y-39529403D01*
X141685836Y-39386546D01*
X141471551Y-39315118D01*
X141328694Y-39315118D01*
X141114408Y-39386546D01*
X141042979Y-39457975D01*
X141042979Y-39957975D01*
X141328694Y-39957975D01*
X140400122Y-39315118D02*
X140400122Y-40815118D01*
X139542979Y-39315118D01*
X139542979Y-40815118D01*
X138828693Y-39315118D02*
X138828693Y-40815118D01*
X138471550Y-40815118D01*
X138257265Y-40743689D01*
X138114407Y-40600832D01*
X138042979Y-40457975D01*
X137971550Y-40172260D01*
X137971550Y-39957975D01*
X138042979Y-39672260D01*
X138114407Y-39529403D01*
X138257265Y-39386546D01*
X138471550Y-39315118D01*
X138828693Y-39315118D01*
X117746408Y-40743689D02*
X117889265Y-40815118D01*
X118103551Y-40815118D01*
X118317836Y-40743689D01*
X118460694Y-40600832D01*
X118532122Y-40457975D01*
X118603551Y-40172260D01*
X118603551Y-39957975D01*
X118532122Y-39672260D01*
X118460694Y-39529403D01*
X118317836Y-39386546D01*
X118103551Y-39315118D01*
X117960694Y-39315118D01*
X117746408Y-39386546D01*
X117674979Y-39457975D01*
X117674979Y-39957975D01*
X117960694Y-39957975D01*
X117032122Y-39315118D02*
X117032122Y-40815118D01*
X116174979Y-39315118D01*
X116174979Y-40815118D01*
X115460693Y-39315118D02*
X115460693Y-40815118D01*
X115103550Y-40815118D01*
X114889265Y-40743689D01*
X114746407Y-40600832D01*
X114674979Y-40457975D01*
X114603550Y-40172260D01*
X114603550Y-39957975D01*
X114674979Y-39672260D01*
X114746407Y-39529403D01*
X114889265Y-39386546D01*
X115103550Y-39315118D01*
X115460693Y-39315118D01*
X94378408Y-40743689D02*
X94521265Y-40815118D01*
X94735551Y-40815118D01*
X94949836Y-40743689D01*
X95092694Y-40600832D01*
X95164122Y-40457975D01*
X95235551Y-40172260D01*
X95235551Y-39957975D01*
X95164122Y-39672260D01*
X95092694Y-39529403D01*
X94949836Y-39386546D01*
X94735551Y-39315118D01*
X94592694Y-39315118D01*
X94378408Y-39386546D01*
X94306979Y-39457975D01*
X94306979Y-39957975D01*
X94592694Y-39957975D01*
X93664122Y-39315118D02*
X93664122Y-40815118D01*
X92806979Y-39315118D01*
X92806979Y-40815118D01*
X92092693Y-39315118D02*
X92092693Y-40815118D01*
X91735550Y-40815118D01*
X91521265Y-40743689D01*
X91378407Y-40600832D01*
X91306979Y-40457975D01*
X91235550Y-40172260D01*
X91235550Y-39957975D01*
X91306979Y-39672260D01*
X91378407Y-39529403D01*
X91521265Y-39386546D01*
X91735550Y-39315118D01*
X92092693Y-39315118D01*
X239436265Y-95195118D02*
X239936265Y-95909403D01*
X240293408Y-95195118D02*
X240293408Y-96695118D01*
X239721980Y-96695118D01*
X239579122Y-96623689D01*
X239507694Y-96552260D01*
X239436265Y-96409403D01*
X239436265Y-96195118D01*
X239507694Y-96052260D01*
X239579122Y-95980832D01*
X239721980Y-95909403D01*
X240293408Y-95909403D01*
X238079122Y-95195118D02*
X238793408Y-95195118D01*
X238793408Y-96695118D01*
X237293408Y-95909403D02*
X237293408Y-95195118D01*
X237793408Y-96695118D02*
X237293408Y-95909403D01*
X236793408Y-96695118D01*
X216068265Y-95195118D02*
X216568265Y-95909403D01*
X216925408Y-95195118D02*
X216925408Y-96695118D01*
X216353980Y-96695118D01*
X216211122Y-96623689D01*
X216139694Y-96552260D01*
X216068265Y-96409403D01*
X216068265Y-96195118D01*
X216139694Y-96052260D01*
X216211122Y-95980832D01*
X216353980Y-95909403D01*
X216925408Y-95909403D01*
X214711122Y-95195118D02*
X215425408Y-95195118D01*
X215425408Y-96695118D01*
X213925408Y-95909403D02*
X213925408Y-95195118D01*
X214425408Y-96695118D02*
X213925408Y-95909403D01*
X213425408Y-96695118D01*
X192700265Y-95195118D02*
X193200265Y-95909403D01*
X193557408Y-95195118D02*
X193557408Y-96695118D01*
X192985980Y-96695118D01*
X192843122Y-96623689D01*
X192771694Y-96552260D01*
X192700265Y-96409403D01*
X192700265Y-96195118D01*
X192771694Y-96052260D01*
X192843122Y-95980832D01*
X192985980Y-95909403D01*
X193557408Y-95909403D01*
X191343122Y-95195118D02*
X192057408Y-95195118D01*
X192057408Y-96695118D01*
X190557408Y-95909403D02*
X190557408Y-95195118D01*
X191057408Y-96695118D02*
X190557408Y-95909403D01*
X190057408Y-96695118D01*
X169332265Y-95195118D02*
X169832265Y-95909403D01*
X170189408Y-95195118D02*
X170189408Y-96695118D01*
X169617980Y-96695118D01*
X169475122Y-96623689D01*
X169403694Y-96552260D01*
X169332265Y-96409403D01*
X169332265Y-96195118D01*
X169403694Y-96052260D01*
X169475122Y-95980832D01*
X169617980Y-95909403D01*
X170189408Y-95909403D01*
X167975122Y-95195118D02*
X168689408Y-95195118D01*
X168689408Y-96695118D01*
X167189408Y-95909403D02*
X167189408Y-95195118D01*
X167689408Y-96695118D02*
X167189408Y-95909403D01*
X166689408Y-96695118D01*
X145964265Y-95195118D02*
X146464265Y-95909403D01*
X146821408Y-95195118D02*
X146821408Y-96695118D01*
X146249980Y-96695118D01*
X146107122Y-96623689D01*
X146035694Y-96552260D01*
X145964265Y-96409403D01*
X145964265Y-96195118D01*
X146035694Y-96052260D01*
X146107122Y-95980832D01*
X146249980Y-95909403D01*
X146821408Y-95909403D01*
X144607122Y-95195118D02*
X145321408Y-95195118D01*
X145321408Y-96695118D01*
X143821408Y-95909403D02*
X143821408Y-95195118D01*
X144321408Y-96695118D02*
X143821408Y-95909403D01*
X143321408Y-96695118D01*
X122596265Y-95195118D02*
X123096265Y-95909403D01*
X123453408Y-95195118D02*
X123453408Y-96695118D01*
X122881980Y-96695118D01*
X122739122Y-96623689D01*
X122667694Y-96552260D01*
X122596265Y-96409403D01*
X122596265Y-96195118D01*
X122667694Y-96052260D01*
X122739122Y-95980832D01*
X122881980Y-95909403D01*
X123453408Y-95909403D01*
X121239122Y-95195118D02*
X121953408Y-95195118D01*
X121953408Y-96695118D01*
X120453408Y-95909403D02*
X120453408Y-95195118D01*
X120953408Y-96695118D02*
X120453408Y-95909403D01*
X119953408Y-96695118D01*
X99228265Y-95195118D02*
X99728265Y-95909403D01*
X100085408Y-95195118D02*
X100085408Y-96695118D01*
X99513980Y-96695118D01*
X99371122Y-96623689D01*
X99299694Y-96552260D01*
X99228265Y-96409403D01*
X99228265Y-96195118D01*
X99299694Y-96052260D01*
X99371122Y-95980832D01*
X99513980Y-95909403D01*
X100085408Y-95909403D01*
X97871122Y-95195118D02*
X98585408Y-95195118D01*
X98585408Y-96695118D01*
X97085408Y-95909403D02*
X97085408Y-95195118D01*
X97585408Y-96695118D02*
X97085408Y-95909403D01*
X96585408Y-96695118D01*
X75860265Y-95195118D02*
X76360265Y-95909403D01*
X76717408Y-95195118D02*
X76717408Y-96695118D01*
X76145980Y-96695118D01*
X76003122Y-96623689D01*
X75931694Y-96552260D01*
X75860265Y-96409403D01*
X75860265Y-96195118D01*
X75931694Y-96052260D01*
X76003122Y-95980832D01*
X76145980Y-95909403D01*
X76717408Y-95909403D01*
X74503122Y-95195118D02*
X75217408Y-95195118D01*
X75217408Y-96695118D01*
X73717408Y-95909403D02*
X73717408Y-95195118D01*
X74217408Y-96695118D02*
X73717408Y-95909403D01*
X73217408Y-96695118D01*
X239436265Y-39315118D02*
X239936265Y-40029403D01*
X240293408Y-39315118D02*
X240293408Y-40815118D01*
X239721980Y-40815118D01*
X239579122Y-40743689D01*
X239507694Y-40672260D01*
X239436265Y-40529403D01*
X239436265Y-40315118D01*
X239507694Y-40172260D01*
X239579122Y-40100832D01*
X239721980Y-40029403D01*
X240293408Y-40029403D01*
X238079122Y-39315118D02*
X238793408Y-39315118D01*
X238793408Y-40815118D01*
X237293408Y-40029403D02*
X237293408Y-39315118D01*
X237793408Y-40815118D02*
X237293408Y-40029403D01*
X236793408Y-40815118D01*
X216068265Y-39315118D02*
X216568265Y-40029403D01*
X216925408Y-39315118D02*
X216925408Y-40815118D01*
X216353980Y-40815118D01*
X216211122Y-40743689D01*
X216139694Y-40672260D01*
X216068265Y-40529403D01*
X216068265Y-40315118D01*
X216139694Y-40172260D01*
X216211122Y-40100832D01*
X216353980Y-40029403D01*
X216925408Y-40029403D01*
X214711122Y-39315118D02*
X215425408Y-39315118D01*
X215425408Y-40815118D01*
X213925408Y-40029403D02*
X213925408Y-39315118D01*
X214425408Y-40815118D02*
X213925408Y-40029403D01*
X213425408Y-40815118D01*
X192700265Y-39315118D02*
X193200265Y-40029403D01*
X193557408Y-39315118D02*
X193557408Y-40815118D01*
X192985980Y-40815118D01*
X192843122Y-40743689D01*
X192771694Y-40672260D01*
X192700265Y-40529403D01*
X192700265Y-40315118D01*
X192771694Y-40172260D01*
X192843122Y-40100832D01*
X192985980Y-40029403D01*
X193557408Y-40029403D01*
X191343122Y-39315118D02*
X192057408Y-39315118D01*
X192057408Y-40815118D01*
X190557408Y-40029403D02*
X190557408Y-39315118D01*
X191057408Y-40815118D02*
X190557408Y-40029403D01*
X190057408Y-40815118D01*
X169332265Y-39315118D02*
X169832265Y-40029403D01*
X170189408Y-39315118D02*
X170189408Y-40815118D01*
X169617980Y-40815118D01*
X169475122Y-40743689D01*
X169403694Y-40672260D01*
X169332265Y-40529403D01*
X169332265Y-40315118D01*
X169403694Y-40172260D01*
X169475122Y-40100832D01*
X169617980Y-40029403D01*
X170189408Y-40029403D01*
X167975122Y-39315118D02*
X168689408Y-39315118D01*
X168689408Y-40815118D01*
X167189408Y-40029403D02*
X167189408Y-39315118D01*
X167689408Y-40815118D02*
X167189408Y-40029403D01*
X166689408Y-40815118D01*
X145964265Y-39315118D02*
X146464265Y-40029403D01*
X146821408Y-39315118D02*
X146821408Y-40815118D01*
X146249980Y-40815118D01*
X146107122Y-40743689D01*
X146035694Y-40672260D01*
X145964265Y-40529403D01*
X145964265Y-40315118D01*
X146035694Y-40172260D01*
X146107122Y-40100832D01*
X146249980Y-40029403D01*
X146821408Y-40029403D01*
X144607122Y-39315118D02*
X145321408Y-39315118D01*
X145321408Y-40815118D01*
X143821408Y-40029403D02*
X143821408Y-39315118D01*
X144321408Y-40815118D02*
X143821408Y-40029403D01*
X143321408Y-40815118D01*
X122596265Y-39315118D02*
X123096265Y-40029403D01*
X123453408Y-39315118D02*
X123453408Y-40815118D01*
X122881980Y-40815118D01*
X122739122Y-40743689D01*
X122667694Y-40672260D01*
X122596265Y-40529403D01*
X122596265Y-40315118D01*
X122667694Y-40172260D01*
X122739122Y-40100832D01*
X122881980Y-40029403D01*
X123453408Y-40029403D01*
X121239122Y-39315118D02*
X121953408Y-39315118D01*
X121953408Y-40815118D01*
X120453408Y-40029403D02*
X120453408Y-39315118D01*
X120953408Y-40815118D02*
X120453408Y-40029403D01*
X119953408Y-40815118D01*
X99228265Y-39315118D02*
X99728265Y-40029403D01*
X100085408Y-39315118D02*
X100085408Y-40815118D01*
X99513980Y-40815118D01*
X99371122Y-40743689D01*
X99299694Y-40672260D01*
X99228265Y-40529403D01*
X99228265Y-40315118D01*
X99299694Y-40172260D01*
X99371122Y-40100832D01*
X99513980Y-40029403D01*
X100085408Y-40029403D01*
X97871122Y-39315118D02*
X98585408Y-39315118D01*
X98585408Y-40815118D01*
X97085408Y-40029403D02*
X97085408Y-39315118D01*
X97585408Y-40815118D02*
X97085408Y-40029403D01*
X96585408Y-40815118D01*
X226037694Y-96695118D02*
X225180551Y-96695118D01*
X225609122Y-95195118D02*
X225609122Y-96695118D01*
X224680551Y-95766546D02*
X223537694Y-95766546D01*
X224109123Y-95195118D02*
X224109123Y-96337975D01*
X202669694Y-96695118D02*
X201812551Y-96695118D01*
X202241122Y-95195118D02*
X202241122Y-96695118D01*
X201312551Y-95766546D02*
X200169694Y-95766546D01*
X200741123Y-95195118D02*
X200741123Y-96337975D01*
X179301694Y-96695118D02*
X178444551Y-96695118D01*
X178873122Y-95195118D02*
X178873122Y-96695118D01*
X177944551Y-95766546D02*
X176801694Y-95766546D01*
X177373123Y-95195118D02*
X177373123Y-96337975D01*
X155933694Y-96695118D02*
X155076551Y-96695118D01*
X155505122Y-95195118D02*
X155505122Y-96695118D01*
X154576551Y-95766546D02*
X153433694Y-95766546D01*
X154005123Y-95195118D02*
X154005123Y-96337975D01*
X132565694Y-96695118D02*
X131708551Y-96695118D01*
X132137122Y-95195118D02*
X132137122Y-96695118D01*
X131208551Y-95766546D02*
X130065694Y-95766546D01*
X130637123Y-95195118D02*
X130637123Y-96337975D01*
X109197694Y-96695118D02*
X108340551Y-96695118D01*
X108769122Y-95195118D02*
X108769122Y-96695118D01*
X107840551Y-95766546D02*
X106697694Y-95766546D01*
X107269123Y-95195118D02*
X107269123Y-96337975D01*
X85829694Y-96695118D02*
X84972551Y-96695118D01*
X85401122Y-95195118D02*
X85401122Y-96695118D01*
X84472551Y-95766546D02*
X83329694Y-95766546D01*
X83901123Y-95195118D02*
X83901123Y-96337975D01*
X62461694Y-96695118D02*
X61604551Y-96695118D01*
X62033122Y-95195118D02*
X62033122Y-96695118D01*
X61104551Y-95766546D02*
X59961694Y-95766546D01*
X60533123Y-95195118D02*
X60533123Y-96337975D01*
X226037694Y-40815118D02*
X225180551Y-40815118D01*
X225609122Y-39315118D02*
X225609122Y-40815118D01*
X224680551Y-39886546D02*
X223537694Y-39886546D01*
X224109123Y-39315118D02*
X224109123Y-40457975D01*
X202669694Y-40815118D02*
X201812551Y-40815118D01*
X202241122Y-39315118D02*
X202241122Y-40815118D01*
X201312551Y-39886546D02*
X200169694Y-39886546D01*
X200741123Y-39315118D02*
X200741123Y-40457975D01*
X179301694Y-40815118D02*
X178444551Y-40815118D01*
X178873122Y-39315118D02*
X178873122Y-40815118D01*
X177944551Y-39886546D02*
X176801694Y-39886546D01*
X177373123Y-39315118D02*
X177373123Y-40457975D01*
X155933694Y-40815118D02*
X155076551Y-40815118D01*
X155505122Y-39315118D02*
X155505122Y-40815118D01*
X154576551Y-39886546D02*
X153433694Y-39886546D01*
X154005123Y-39315118D02*
X154005123Y-40457975D01*
X132565694Y-40815118D02*
X131708551Y-40815118D01*
X132137122Y-39315118D02*
X132137122Y-40815118D01*
X131208551Y-39886546D02*
X130065694Y-39886546D01*
X130637123Y-39315118D02*
X130637123Y-40457975D01*
X109197694Y-40815118D02*
X108340551Y-40815118D01*
X108769122Y-39315118D02*
X108769122Y-40815118D01*
X107840551Y-39886546D02*
X106697694Y-39886546D01*
X107269123Y-39315118D02*
X107269123Y-40457975D01*
X85829694Y-40815118D02*
X84972551Y-40815118D01*
X85401122Y-39315118D02*
X85401122Y-40815118D01*
X84472551Y-39886546D02*
X83329694Y-39886546D01*
X83901123Y-39315118D02*
X83901123Y-40457975D01*
X75860265Y-39315118D02*
X76360265Y-40029403D01*
X76717408Y-39315118D02*
X76717408Y-40815118D01*
X76145980Y-40815118D01*
X76003122Y-40743689D01*
X75931694Y-40672260D01*
X75860265Y-40529403D01*
X75860265Y-40315118D01*
X75931694Y-40172260D01*
X76003122Y-40100832D01*
X76145980Y-40029403D01*
X76717408Y-40029403D01*
X74503122Y-39315118D02*
X75217408Y-39315118D01*
X75217408Y-40815118D01*
X73717408Y-40029403D02*
X73717408Y-39315118D01*
X74217408Y-40815118D02*
X73717408Y-40029403D01*
X73217408Y-40815118D01*
X71010408Y-40743689D02*
X71153265Y-40815118D01*
X71367551Y-40815118D01*
X71581836Y-40743689D01*
X71724694Y-40600832D01*
X71796122Y-40457975D01*
X71867551Y-40172260D01*
X71867551Y-39957975D01*
X71796122Y-39672260D01*
X71724694Y-39529403D01*
X71581836Y-39386546D01*
X71367551Y-39315118D01*
X71224694Y-39315118D01*
X71010408Y-39386546D01*
X70938979Y-39457975D01*
X70938979Y-39957975D01*
X71224694Y-39957975D01*
X70296122Y-39315118D02*
X70296122Y-40815118D01*
X69438979Y-39315118D01*
X69438979Y-40815118D01*
X68724693Y-39315118D02*
X68724693Y-40815118D01*
X68367550Y-40815118D01*
X68153265Y-40743689D01*
X68010407Y-40600832D01*
X67938979Y-40457975D01*
X67867550Y-40172260D01*
X67867550Y-39957975D01*
X67938979Y-39672260D01*
X68010407Y-39529403D01*
X68153265Y-39386546D01*
X68367550Y-39315118D01*
X68724693Y-39315118D01*
X66398694Y-40815118D02*
X65541551Y-40815118D01*
X65970122Y-39315118D02*
X65970122Y-40815118D01*
X65041551Y-39886546D02*
X63898694Y-39886546D01*
X62461694Y-40815118D02*
X61604551Y-40815118D01*
X62033122Y-39315118D02*
X62033122Y-40815118D01*
X61104551Y-39886546D02*
X59961694Y-39886546D01*
X60533123Y-39315118D02*
X60533123Y-40457975D01*
D12*
X227392551Y-109343689D02*
X227392551Y-110343689D01*
X226032551Y-110343689D02*
X226032551Y-109343689D01*
X204024551Y-109343689D02*
X204024551Y-110343689D01*
X202664551Y-110343689D02*
X202664551Y-109343689D01*
X180656551Y-109343689D02*
X180656551Y-110343689D01*
X179296551Y-110343689D02*
X179296551Y-109343689D01*
X157288551Y-109343689D02*
X157288551Y-110343689D01*
X155928551Y-110343689D02*
X155928551Y-109343689D01*
X133920551Y-109343689D02*
X133920551Y-110343689D01*
X132560551Y-110343689D02*
X132560551Y-109343689D01*
X110552551Y-109343689D02*
X110552551Y-110343689D01*
X109192551Y-110343689D02*
X109192551Y-109343689D01*
X87184551Y-109343689D02*
X87184551Y-110343689D01*
X85824551Y-110343689D02*
X85824551Y-109343689D01*
X63816551Y-109343689D02*
X63816551Y-110343689D01*
X62456551Y-110343689D02*
X62456551Y-109343689D01*
X227392551Y-53463689D02*
X227392551Y-54463689D01*
X226032551Y-54463689D02*
X226032551Y-53463689D01*
X204024551Y-53463689D02*
X204024551Y-54463689D01*
X202664551Y-54463689D02*
X202664551Y-53463689D01*
X180656551Y-53463689D02*
X180656551Y-54463689D01*
X179296551Y-54463689D02*
X179296551Y-53463689D01*
X157288551Y-53463689D02*
X157288551Y-54463689D01*
X155928551Y-54463689D02*
X155928551Y-53463689D01*
X133920551Y-53463689D02*
X133920551Y-54463689D01*
X132560551Y-54463689D02*
X132560551Y-53463689D01*
X110552551Y-53463689D02*
X110552551Y-54463689D01*
X109192551Y-54463689D02*
X109192551Y-53463689D01*
X87184551Y-53463689D02*
X87184551Y-54463689D01*
X85824551Y-54463689D02*
X85824551Y-53463689D01*
D13*
X224838031Y-97047169D02*
X238833431Y-97047169D01*
X238833431Y-97047169D02*
X238833431Y-103244769D01*
X238833431Y-103244769D02*
X238833431Y-104044869D01*
X238833431Y-104044869D02*
X224838031Y-104044869D01*
X224838031Y-104044869D02*
X224838031Y-103244769D01*
X224838031Y-103244769D02*
X224838031Y-97047169D01*
X238833431Y-103244769D02*
X224838031Y-103244769D01*
X201470031Y-97047169D02*
X215465431Y-97047169D01*
X215465431Y-97047169D02*
X215465431Y-103244769D01*
X215465431Y-103244769D02*
X215465431Y-104044869D01*
X215465431Y-104044869D02*
X201470031Y-104044869D01*
X201470031Y-104044869D02*
X201470031Y-103244769D01*
X201470031Y-103244769D02*
X201470031Y-97047169D01*
X215465431Y-103244769D02*
X201470031Y-103244769D01*
X178102031Y-97047169D02*
X192097431Y-97047169D01*
X192097431Y-97047169D02*
X192097431Y-103244769D01*
X192097431Y-103244769D02*
X192097431Y-104044869D01*
X192097431Y-104044869D02*
X178102031Y-104044869D01*
X178102031Y-104044869D02*
X178102031Y-103244769D01*
X178102031Y-103244769D02*
X178102031Y-97047169D01*
X192097431Y-103244769D02*
X178102031Y-103244769D01*
X154734031Y-97047169D02*
X168729431Y-97047169D01*
X168729431Y-97047169D02*
X168729431Y-103244769D01*
X168729431Y-103244769D02*
X168729431Y-104044869D01*
X168729431Y-104044869D02*
X154734031Y-104044869D01*
X154734031Y-104044869D02*
X154734031Y-103244769D01*
X154734031Y-103244769D02*
X154734031Y-97047169D01*
X168729431Y-103244769D02*
X154734031Y-103244769D01*
X131366031Y-97047169D02*
X145361431Y-97047169D01*
X145361431Y-97047169D02*
X145361431Y-103244769D01*
X145361431Y-103244769D02*
X145361431Y-104044869D01*
X145361431Y-104044869D02*
X131366031Y-104044869D01*
X131366031Y-104044869D02*
X131366031Y-103244769D01*
X131366031Y-103244769D02*
X131366031Y-97047169D01*
X145361431Y-103244769D02*
X131366031Y-103244769D01*
X107998031Y-97047169D02*
X121993431Y-97047169D01*
X121993431Y-97047169D02*
X121993431Y-103244769D01*
X121993431Y-103244769D02*
X121993431Y-104044869D01*
X121993431Y-104044869D02*
X107998031Y-104044869D01*
X107998031Y-104044869D02*
X107998031Y-103244769D01*
X107998031Y-103244769D02*
X107998031Y-97047169D01*
X121993431Y-103244769D02*
X107998031Y-103244769D01*
X84630031Y-97047169D02*
X98625431Y-97047169D01*
X98625431Y-97047169D02*
X98625431Y-103244769D01*
X98625431Y-103244769D02*
X98625431Y-104044869D01*
X98625431Y-104044869D02*
X84630031Y-104044869D01*
X84630031Y-104044869D02*
X84630031Y-103244769D01*
X84630031Y-103244769D02*
X84630031Y-97047169D01*
X98625431Y-103244769D02*
X84630031Y-103244769D01*
X61262031Y-97047169D02*
X75257431Y-97047169D01*
X75257431Y-97047169D02*
X75257431Y-103244769D01*
X75257431Y-103244769D02*
X75257431Y-104044869D01*
X75257431Y-104044869D02*
X61262031Y-104044869D01*
X61262031Y-104044869D02*
X61262031Y-103244769D01*
X61262031Y-103244769D02*
X61262031Y-97047169D01*
X75257431Y-103244769D02*
X61262031Y-103244769D01*
X224838031Y-41167169D02*
X238833431Y-41167169D01*
X238833431Y-41167169D02*
X238833431Y-47364769D01*
X238833431Y-47364769D02*
X238833431Y-48164869D01*
X238833431Y-48164869D02*
X224838031Y-48164869D01*
X224838031Y-48164869D02*
X224838031Y-47364769D01*
X224838031Y-47364769D02*
X224838031Y-41167169D01*
X238833431Y-47364769D02*
X224838031Y-47364769D01*
X201470031Y-41167169D02*
X215465431Y-41167169D01*
X215465431Y-41167169D02*
X215465431Y-47364769D01*
X215465431Y-47364769D02*
X215465431Y-48164869D01*
X215465431Y-48164869D02*
X201470031Y-48164869D01*
X201470031Y-48164869D02*
X201470031Y-47364769D01*
X201470031Y-47364769D02*
X201470031Y-41167169D01*
X215465431Y-47364769D02*
X201470031Y-47364769D01*
X178102031Y-41167169D02*
X192097431Y-41167169D01*
X192097431Y-41167169D02*
X192097431Y-47364769D01*
X192097431Y-47364769D02*
X192097431Y-48164869D01*
X192097431Y-48164869D02*
X178102031Y-48164869D01*
X178102031Y-48164869D02*
X178102031Y-47364769D01*
X178102031Y-47364769D02*
X178102031Y-41167169D01*
X192097431Y-47364769D02*
X178102031Y-47364769D01*
X154734031Y-41167169D02*
X168729431Y-41167169D01*
X168729431Y-41167169D02*
X168729431Y-47364769D01*
X168729431Y-47364769D02*
X168729431Y-48164869D01*
X168729431Y-48164869D02*
X154734031Y-48164869D01*
X154734031Y-48164869D02*
X154734031Y-47364769D01*
X154734031Y-47364769D02*
X154734031Y-41167169D01*
X168729431Y-47364769D02*
X154734031Y-47364769D01*
X131366031Y-41167169D02*
X145361431Y-41167169D01*
X145361431Y-41167169D02*
X145361431Y-47364769D01*
X145361431Y-47364769D02*
X145361431Y-48164869D01*
X145361431Y-48164869D02*
X131366031Y-48164869D01*
X131366031Y-48164869D02*
X131366031Y-47364769D01*
X131366031Y-47364769D02*
X131366031Y-41167169D01*
X145361431Y-47364769D02*
X131366031Y-47364769D01*
X107998031Y-41167169D02*
X121993431Y-41167169D01*
X121993431Y-41167169D02*
X121993431Y-47364769D01*
X121993431Y-47364769D02*
X121993431Y-48164869D01*
X121993431Y-48164869D02*
X107998031Y-48164869D01*
X107998031Y-48164869D02*
X107998031Y-47364769D01*
X107998031Y-47364769D02*
X107998031Y-41167169D01*
X121993431Y-47364769D02*
X107998031Y-47364769D01*
X84630031Y-41167169D02*
X98625431Y-41167169D01*
X98625431Y-41167169D02*
X98625431Y-47364769D01*
X98625431Y-47364769D02*
X98625431Y-48164869D01*
X98625431Y-48164869D02*
X84630031Y-48164869D01*
X84630031Y-48164869D02*
X84630031Y-47364769D01*
X84630031Y-47364769D02*
X84630031Y-41167169D01*
X98625431Y-47364769D02*
X84630031Y-47364769D01*
D12*
X229678551Y-105787689D02*
X229678551Y-106787689D01*
X228318551Y-106787689D02*
X228318551Y-105787689D01*
X206310551Y-105787689D02*
X206310551Y-106787689D01*
X204950551Y-106787689D02*
X204950551Y-105787689D01*
X182942551Y-105787689D02*
X182942551Y-106787689D01*
X181582551Y-106787689D02*
X181582551Y-105787689D01*
X159574551Y-105787689D02*
X159574551Y-106787689D01*
X158214551Y-106787689D02*
X158214551Y-105787689D01*
X136206551Y-105787689D02*
X136206551Y-106787689D01*
X134846551Y-106787689D02*
X134846551Y-105787689D01*
X112838551Y-105787689D02*
X112838551Y-106787689D01*
X111478551Y-106787689D02*
X111478551Y-105787689D01*
X89470551Y-105787689D02*
X89470551Y-106787689D01*
X88110551Y-106787689D02*
X88110551Y-105787689D01*
X66102551Y-105787689D02*
X66102551Y-106787689D01*
X64742551Y-106787689D02*
X64742551Y-105787689D01*
X229678551Y-49907689D02*
X229678551Y-50907689D01*
X228318551Y-50907689D02*
X228318551Y-49907689D01*
X206310551Y-49907689D02*
X206310551Y-50907689D01*
X204950551Y-50907689D02*
X204950551Y-49907689D01*
X182942551Y-49907689D02*
X182942551Y-50907689D01*
X181582551Y-50907689D02*
X181582551Y-49907689D01*
X159574551Y-49907689D02*
X159574551Y-50907689D01*
X158214551Y-50907689D02*
X158214551Y-49907689D01*
X136206551Y-49907689D02*
X136206551Y-50907689D01*
X134846551Y-50907689D02*
X134846551Y-49907689D01*
X112838551Y-49907689D02*
X112838551Y-50907689D01*
X111478551Y-50907689D02*
X111478551Y-49907689D01*
X89470551Y-49907689D02*
X89470551Y-50907689D01*
X88110551Y-50907689D02*
X88110551Y-49907689D01*
D14*
X232003551Y-107268689D02*
X232003551Y-107318689D01*
X236153551Y-107268689D02*
X236153551Y-107413689D01*
X236153551Y-112418689D02*
X236153551Y-112273689D01*
X232003551Y-112418689D02*
X232003551Y-112273689D01*
X232003551Y-107268689D02*
X236153551Y-107268689D01*
X232003551Y-112418689D02*
X236153551Y-112418689D01*
X232003551Y-107318689D02*
X230603551Y-107318689D01*
X208635551Y-107268689D02*
X208635551Y-107318689D01*
X212785551Y-107268689D02*
X212785551Y-107413689D01*
X212785551Y-112418689D02*
X212785551Y-112273689D01*
X208635551Y-112418689D02*
X208635551Y-112273689D01*
X208635551Y-107268689D02*
X212785551Y-107268689D01*
X208635551Y-112418689D02*
X212785551Y-112418689D01*
X208635551Y-107318689D02*
X207235551Y-107318689D01*
X185267551Y-107268689D02*
X185267551Y-107318689D01*
X189417551Y-107268689D02*
X189417551Y-107413689D01*
X189417551Y-112418689D02*
X189417551Y-112273689D01*
X185267551Y-112418689D02*
X185267551Y-112273689D01*
X185267551Y-107268689D02*
X189417551Y-107268689D01*
X185267551Y-112418689D02*
X189417551Y-112418689D01*
X185267551Y-107318689D02*
X183867551Y-107318689D01*
X161899551Y-107268689D02*
X161899551Y-107318689D01*
X166049551Y-107268689D02*
X166049551Y-107413689D01*
X166049551Y-112418689D02*
X166049551Y-112273689D01*
X161899551Y-112418689D02*
X161899551Y-112273689D01*
X161899551Y-107268689D02*
X166049551Y-107268689D01*
X161899551Y-112418689D02*
X166049551Y-112418689D01*
X161899551Y-107318689D02*
X160499551Y-107318689D01*
X138531551Y-107268689D02*
X138531551Y-107318689D01*
X142681551Y-107268689D02*
X142681551Y-107413689D01*
X142681551Y-112418689D02*
X142681551Y-112273689D01*
X138531551Y-112418689D02*
X138531551Y-112273689D01*
X138531551Y-107268689D02*
X142681551Y-107268689D01*
X138531551Y-112418689D02*
X142681551Y-112418689D01*
X138531551Y-107318689D02*
X137131551Y-107318689D01*
X115163551Y-107268689D02*
X115163551Y-107318689D01*
X119313551Y-107268689D02*
X119313551Y-107413689D01*
X119313551Y-112418689D02*
X119313551Y-112273689D01*
X115163551Y-112418689D02*
X115163551Y-112273689D01*
X115163551Y-107268689D02*
X119313551Y-107268689D01*
X115163551Y-112418689D02*
X119313551Y-112418689D01*
X115163551Y-107318689D02*
X113763551Y-107318689D01*
X91795551Y-107268689D02*
X91795551Y-107318689D01*
X95945551Y-107268689D02*
X95945551Y-107413689D01*
X95945551Y-112418689D02*
X95945551Y-112273689D01*
X91795551Y-112418689D02*
X91795551Y-112273689D01*
X91795551Y-107268689D02*
X95945551Y-107268689D01*
X91795551Y-112418689D02*
X95945551Y-112418689D01*
X91795551Y-107318689D02*
X90395551Y-107318689D01*
X68427551Y-107268689D02*
X68427551Y-107318689D01*
X72577551Y-107268689D02*
X72577551Y-107413689D01*
X72577551Y-112418689D02*
X72577551Y-112273689D01*
X68427551Y-112418689D02*
X68427551Y-112273689D01*
X68427551Y-107268689D02*
X72577551Y-107268689D01*
X68427551Y-112418689D02*
X72577551Y-112418689D01*
X68427551Y-107318689D02*
X67027551Y-107318689D01*
X232003551Y-51388689D02*
X232003551Y-51438689D01*
X236153551Y-51388689D02*
X236153551Y-51533689D01*
X236153551Y-56538689D02*
X236153551Y-56393689D01*
X232003551Y-56538689D02*
X232003551Y-56393689D01*
X232003551Y-51388689D02*
X236153551Y-51388689D01*
X232003551Y-56538689D02*
X236153551Y-56538689D01*
X232003551Y-51438689D02*
X230603551Y-51438689D01*
X208635551Y-51388689D02*
X208635551Y-51438689D01*
X212785551Y-51388689D02*
X212785551Y-51533689D01*
X212785551Y-56538689D02*
X212785551Y-56393689D01*
X208635551Y-56538689D02*
X208635551Y-56393689D01*
X208635551Y-51388689D02*
X212785551Y-51388689D01*
X208635551Y-56538689D02*
X212785551Y-56538689D01*
X208635551Y-51438689D02*
X207235551Y-51438689D01*
X185267551Y-51388689D02*
X185267551Y-51438689D01*
X189417551Y-51388689D02*
X189417551Y-51533689D01*
X189417551Y-56538689D02*
X189417551Y-56393689D01*
X185267551Y-56538689D02*
X185267551Y-56393689D01*
X185267551Y-51388689D02*
X189417551Y-51388689D01*
X185267551Y-56538689D02*
X189417551Y-56538689D01*
X185267551Y-51438689D02*
X183867551Y-51438689D01*
X161899551Y-51388689D02*
X161899551Y-51438689D01*
X166049551Y-51388689D02*
X166049551Y-51533689D01*
X166049551Y-56538689D02*
X166049551Y-56393689D01*
X161899551Y-56538689D02*
X161899551Y-56393689D01*
X161899551Y-51388689D02*
X166049551Y-51388689D01*
X161899551Y-56538689D02*
X166049551Y-56538689D01*
X161899551Y-51438689D02*
X160499551Y-51438689D01*
X138531551Y-51388689D02*
X138531551Y-51438689D01*
X142681551Y-51388689D02*
X142681551Y-51533689D01*
X142681551Y-56538689D02*
X142681551Y-56393689D01*
X138531551Y-56538689D02*
X138531551Y-56393689D01*
X138531551Y-51388689D02*
X142681551Y-51388689D01*
X138531551Y-56538689D02*
X142681551Y-56538689D01*
X138531551Y-51438689D02*
X137131551Y-51438689D01*
X115163551Y-51388689D02*
X115163551Y-51438689D01*
X119313551Y-51388689D02*
X119313551Y-51533689D01*
X119313551Y-56538689D02*
X119313551Y-56393689D01*
X115163551Y-56538689D02*
X115163551Y-56393689D01*
X115163551Y-51388689D02*
X119313551Y-51388689D01*
X115163551Y-56538689D02*
X119313551Y-56538689D01*
X115163551Y-51438689D02*
X113763551Y-51438689D01*
X91795551Y-51388689D02*
X91795551Y-51438689D01*
X95945551Y-51388689D02*
X95945551Y-51533689D01*
X95945551Y-56538689D02*
X95945551Y-56393689D01*
X91795551Y-56538689D02*
X91795551Y-56393689D01*
X91795551Y-51388689D02*
X95945551Y-51388689D01*
X91795551Y-56538689D02*
X95945551Y-56538689D01*
X91795551Y-51438689D02*
X90395551Y-51438689D01*
D12*
X228271551Y-113610689D02*
X228271551Y-112910689D01*
X229471551Y-112910689D02*
X229471551Y-113610689D01*
X204903551Y-113610689D02*
X204903551Y-112910689D01*
X206103551Y-112910689D02*
X206103551Y-113610689D01*
X181535551Y-113610689D02*
X181535551Y-112910689D01*
X182735551Y-112910689D02*
X182735551Y-113610689D01*
X158167551Y-113610689D02*
X158167551Y-112910689D01*
X159367551Y-112910689D02*
X159367551Y-113610689D01*
X134799551Y-113610689D02*
X134799551Y-112910689D01*
X135999551Y-112910689D02*
X135999551Y-113610689D01*
X111431551Y-113610689D02*
X111431551Y-112910689D01*
X112631551Y-112910689D02*
X112631551Y-113610689D01*
X88063551Y-113610689D02*
X88063551Y-112910689D01*
X89263551Y-112910689D02*
X89263551Y-113610689D01*
X64695551Y-113610689D02*
X64695551Y-112910689D01*
X65895551Y-112910689D02*
X65895551Y-113610689D01*
X228271551Y-57730689D02*
X228271551Y-57030689D01*
X229471551Y-57030689D02*
X229471551Y-57730689D01*
X204903551Y-57730689D02*
X204903551Y-57030689D01*
X206103551Y-57030689D02*
X206103551Y-57730689D01*
X181535551Y-57730689D02*
X181535551Y-57030689D01*
X182735551Y-57030689D02*
X182735551Y-57730689D01*
X158167551Y-57730689D02*
X158167551Y-57030689D01*
X159367551Y-57030689D02*
X159367551Y-57730689D01*
X134799551Y-57730689D02*
X134799551Y-57030689D01*
X135999551Y-57030689D02*
X135999551Y-57730689D01*
X111431551Y-57730689D02*
X111431551Y-57030689D01*
X112631551Y-57030689D02*
X112631551Y-57730689D01*
X88063551Y-57730689D02*
X88063551Y-57030689D01*
X89263551Y-57030689D02*
X89263551Y-57730689D01*
X228271551Y-110193689D02*
X228271551Y-109493689D01*
X229471551Y-109493689D02*
X229471551Y-110193689D01*
X204903551Y-110193689D02*
X204903551Y-109493689D01*
X206103551Y-109493689D02*
X206103551Y-110193689D01*
X181535551Y-110193689D02*
X181535551Y-109493689D01*
X182735551Y-109493689D02*
X182735551Y-110193689D01*
X158167551Y-110193689D02*
X158167551Y-109493689D01*
X159367551Y-109493689D02*
X159367551Y-110193689D01*
X134799551Y-110193689D02*
X134799551Y-109493689D01*
X135999551Y-109493689D02*
X135999551Y-110193689D01*
X111431551Y-110193689D02*
X111431551Y-109493689D01*
X112631551Y-109493689D02*
X112631551Y-110193689D01*
X88063551Y-110193689D02*
X88063551Y-109493689D01*
X89263551Y-109493689D02*
X89263551Y-110193689D01*
X64695551Y-110193689D02*
X64695551Y-109493689D01*
X65895551Y-109493689D02*
X65895551Y-110193689D01*
X228271551Y-54313689D02*
X228271551Y-53613689D01*
X229471551Y-53613689D02*
X229471551Y-54313689D01*
X204903551Y-54313689D02*
X204903551Y-53613689D01*
X206103551Y-53613689D02*
X206103551Y-54313689D01*
X181535551Y-54313689D02*
X181535551Y-53613689D01*
X182735551Y-53613689D02*
X182735551Y-54313689D01*
X158167551Y-54313689D02*
X158167551Y-53613689D01*
X159367551Y-53613689D02*
X159367551Y-54313689D01*
X134799551Y-54313689D02*
X134799551Y-53613689D01*
X135999551Y-53613689D02*
X135999551Y-54313689D01*
X111431551Y-54313689D02*
X111431551Y-53613689D01*
X112631551Y-53613689D02*
X112631551Y-54313689D01*
X88063551Y-54313689D02*
X88063551Y-53613689D01*
X89263551Y-53613689D02*
X89263551Y-54313689D01*
D13*
X240021977Y-131195379D02*
X239174241Y-132043115D01*
X236771125Y-132466983D02*
X236347257Y-132043115D01*
X236771125Y-129639999D02*
X237618861Y-128792263D01*
X240445845Y-128792263D02*
X240021977Y-128368395D01*
X216653977Y-131195379D02*
X215806241Y-132043115D01*
X213403125Y-132466983D02*
X212979257Y-132043115D01*
X213403125Y-129639999D02*
X214250861Y-128792263D01*
X217077845Y-128792263D02*
X216653977Y-128368395D01*
X193285977Y-131195379D02*
X192438241Y-132043115D01*
X190035125Y-132466983D02*
X189611257Y-132043115D01*
X190035125Y-129639999D02*
X190882861Y-128792263D01*
X193709845Y-128792263D02*
X193285977Y-128368395D01*
X169917977Y-131195379D02*
X169070241Y-132043115D01*
X166667125Y-132466983D02*
X166243257Y-132043115D01*
X166667125Y-129639999D02*
X167514861Y-128792263D01*
X170341845Y-128792263D02*
X169917977Y-128368395D01*
X146549977Y-131195379D02*
X145702241Y-132043115D01*
X143299125Y-132466983D02*
X142875257Y-132043115D01*
X143299125Y-129639999D02*
X144146861Y-128792263D01*
X146973845Y-128792263D02*
X146549977Y-128368395D01*
X123181977Y-131195379D02*
X122334241Y-132043115D01*
X119931125Y-132466983D02*
X119507257Y-132043115D01*
X119931125Y-129639999D02*
X120778861Y-128792263D01*
X123605845Y-128792263D02*
X123181977Y-128368395D01*
X99813977Y-131195379D02*
X98966241Y-132043115D01*
X96563125Y-132466983D02*
X96139257Y-132043115D01*
X96563125Y-129639999D02*
X97410861Y-128792263D01*
X100237845Y-128792263D02*
X99813977Y-128368395D01*
X76445977Y-131195379D02*
X75598241Y-132043115D01*
X73195125Y-132466983D02*
X72771257Y-132043115D01*
X73195125Y-129639999D02*
X74042861Y-128792263D01*
X76869845Y-128792263D02*
X76445977Y-128368395D01*
X240021977Y-75315379D02*
X239174241Y-76163115D01*
X236771125Y-76586983D02*
X236347257Y-76163115D01*
X236771125Y-73759999D02*
X237618861Y-72912263D01*
X240445845Y-72912263D02*
X240021977Y-72488395D01*
X216653977Y-75315379D02*
X215806241Y-76163115D01*
X213403125Y-76586983D02*
X212979257Y-76163115D01*
X213403125Y-73759999D02*
X214250861Y-72912263D01*
X217077845Y-72912263D02*
X216653977Y-72488395D01*
X193285977Y-75315379D02*
X192438241Y-76163115D01*
X190035125Y-76586983D02*
X189611257Y-76163115D01*
X190035125Y-73759999D02*
X190882861Y-72912263D01*
X193709845Y-72912263D02*
X193285977Y-72488395D01*
X169917977Y-75315379D02*
X169070241Y-76163115D01*
X166667125Y-76586983D02*
X166243257Y-76163115D01*
X166667125Y-73759999D02*
X167514861Y-72912263D01*
X170341845Y-72912263D02*
X169917977Y-72488395D01*
X146549977Y-75315379D02*
X145702241Y-76163115D01*
X143299125Y-76586983D02*
X142875257Y-76163115D01*
X143299125Y-73759999D02*
X144146861Y-72912263D01*
X146973845Y-72912263D02*
X146549977Y-72488395D01*
X123181977Y-75315379D02*
X122334241Y-76163115D01*
X119931125Y-76586983D02*
X119507257Y-76163115D01*
X119931125Y-73759999D02*
X120778861Y-72912263D01*
X123605845Y-72912263D02*
X123181977Y-72488395D01*
X99813977Y-75315379D02*
X98966241Y-76163115D01*
X96563125Y-76586983D02*
X96139257Y-76163115D01*
X96563125Y-73759999D02*
X97410861Y-72912263D01*
X100237845Y-72912263D02*
X99813977Y-72488395D01*
D12*
X229506272Y-134173075D02*
X228799165Y-133465968D01*
X229760830Y-132504303D02*
X230467937Y-133211410D01*
X206138272Y-134173075D02*
X205431165Y-133465968D01*
X206392830Y-132504303D02*
X207099937Y-133211410D01*
X182770272Y-134173075D02*
X182063165Y-133465968D01*
X183024830Y-132504303D02*
X183731937Y-133211410D01*
X159402272Y-134173075D02*
X158695165Y-133465968D01*
X159656830Y-132504303D02*
X160363937Y-133211410D01*
X136034272Y-134173075D02*
X135327165Y-133465968D01*
X136288830Y-132504303D02*
X136995937Y-133211410D01*
X112666272Y-134173075D02*
X111959165Y-133465968D01*
X112920830Y-132504303D02*
X113627937Y-133211410D01*
X89298272Y-134173075D02*
X88591165Y-133465968D01*
X89552830Y-132504303D02*
X90259937Y-133211410D01*
X65930272Y-134173075D02*
X65223165Y-133465968D01*
X66184830Y-132504303D02*
X66891937Y-133211410D01*
X229506272Y-78293075D02*
X228799165Y-77585968D01*
X229760830Y-76624303D02*
X230467937Y-77331410D01*
X206138272Y-78293075D02*
X205431165Y-77585968D01*
X206392830Y-76624303D02*
X207099937Y-77331410D01*
X182770272Y-78293075D02*
X182063165Y-77585968D01*
X183024830Y-76624303D02*
X183731937Y-77331410D01*
X159402272Y-78293075D02*
X158695165Y-77585968D01*
X159656830Y-76624303D02*
X160363937Y-77331410D01*
X136034272Y-78293075D02*
X135327165Y-77585968D01*
X136288830Y-76624303D02*
X136995937Y-77331410D01*
X112666272Y-78293075D02*
X111959165Y-77585968D01*
X112920830Y-76624303D02*
X113627937Y-77331410D01*
X89298272Y-78293075D02*
X88591165Y-77585968D01*
X89552830Y-76624303D02*
X90259937Y-77331410D01*
X235398328Y-132920938D02*
X235893302Y-133415912D01*
X235044774Y-134264440D02*
X234549800Y-133769466D01*
X212030328Y-132920938D02*
X212525302Y-133415912D01*
X211676774Y-134264440D02*
X211181800Y-133769466D01*
X188662328Y-132920938D02*
X189157302Y-133415912D01*
X188308774Y-134264440D02*
X187813800Y-133769466D01*
X165294328Y-132920938D02*
X165789302Y-133415912D01*
X164940774Y-134264440D02*
X164445800Y-133769466D01*
X141926328Y-132920938D02*
X142421302Y-133415912D01*
X141572774Y-134264440D02*
X141077800Y-133769466D01*
X118558328Y-132920938D02*
X119053302Y-133415912D01*
X118204774Y-134264440D02*
X117709800Y-133769466D01*
X95190328Y-132920938D02*
X95685302Y-133415912D01*
X94836774Y-134264440D02*
X94341800Y-133769466D01*
X71822328Y-132920938D02*
X72317302Y-133415912D01*
X71468774Y-134264440D02*
X70973800Y-133769466D01*
X235398328Y-77040938D02*
X235893302Y-77535912D01*
X235044774Y-78384440D02*
X234549800Y-77889466D01*
X212030328Y-77040938D02*
X212525302Y-77535912D01*
X211676774Y-78384440D02*
X211181800Y-77889466D01*
X188662328Y-77040938D02*
X189157302Y-77535912D01*
X188308774Y-78384440D02*
X187813800Y-77889466D01*
X165294328Y-77040938D02*
X165789302Y-77535912D01*
X164940774Y-78384440D02*
X164445800Y-77889466D01*
X141926328Y-77040938D02*
X142421302Y-77535912D01*
X141572774Y-78384440D02*
X141077800Y-77889466D01*
X118558328Y-77040938D02*
X119053302Y-77535912D01*
X118204774Y-78384440D02*
X117709800Y-77889466D01*
X95190328Y-77040938D02*
X95685302Y-77535912D01*
X94836774Y-78384440D02*
X94341800Y-77889466D01*
X241267774Y-127787440D02*
X240772800Y-127292466D01*
X241621328Y-126443938D02*
X242116302Y-126938912D01*
X217899774Y-127787440D02*
X217404800Y-127292466D01*
X218253328Y-126443938D02*
X218748302Y-126938912D01*
X194531774Y-127787440D02*
X194036800Y-127292466D01*
X194885328Y-126443938D02*
X195380302Y-126938912D01*
X171163774Y-127787440D02*
X170668800Y-127292466D01*
X171517328Y-126443938D02*
X172012302Y-126938912D01*
X147795774Y-127787440D02*
X147300800Y-127292466D01*
X148149328Y-126443938D02*
X148644302Y-126938912D01*
X124427774Y-127787440D02*
X123932800Y-127292466D01*
X124781328Y-126443938D02*
X125276302Y-126938912D01*
X101059774Y-127787440D02*
X100564800Y-127292466D01*
X101413328Y-126443938D02*
X101908302Y-126938912D01*
X77691774Y-127787440D02*
X77196800Y-127292466D01*
X78045328Y-126443938D02*
X78540302Y-126938912D01*
X241267774Y-71907440D02*
X240772800Y-71412466D01*
X241621328Y-70563938D02*
X242116302Y-71058912D01*
X217899774Y-71907440D02*
X217404800Y-71412466D01*
X218253328Y-70563938D02*
X218748302Y-71058912D01*
X194531774Y-71907440D02*
X194036800Y-71412466D01*
X194885328Y-70563938D02*
X195380302Y-71058912D01*
X171163774Y-71907440D02*
X170668800Y-71412466D01*
X171517328Y-70563938D02*
X172012302Y-71058912D01*
X147795774Y-71907440D02*
X147300800Y-71412466D01*
X148149328Y-70563938D02*
X148644302Y-71058912D01*
X124427774Y-71907440D02*
X123932800Y-71412466D01*
X124781328Y-70563938D02*
X125276302Y-71058912D01*
X101059774Y-71907440D02*
X100564800Y-71412466D01*
X101413328Y-70563938D02*
X101908302Y-71058912D01*
X223246800Y-119318912D02*
X223741774Y-118823938D01*
X224590302Y-119672466D02*
X224095328Y-120167440D01*
X199878800Y-119318912D02*
X200373774Y-118823938D01*
X201222302Y-119672466D02*
X200727328Y-120167440D01*
X176510800Y-119318912D02*
X177005774Y-118823938D01*
X177854302Y-119672466D02*
X177359328Y-120167440D01*
X153142800Y-119318912D02*
X153637774Y-118823938D01*
X154486302Y-119672466D02*
X153991328Y-120167440D01*
X129774800Y-119318912D02*
X130269774Y-118823938D01*
X131118302Y-119672466D02*
X130623328Y-120167440D01*
X106406800Y-119318912D02*
X106901774Y-118823938D01*
X107750302Y-119672466D02*
X107255328Y-120167440D01*
X83038800Y-119318912D02*
X83533774Y-118823938D01*
X84382302Y-119672466D02*
X83887328Y-120167440D01*
X59670800Y-119318912D02*
X60165774Y-118823938D01*
X61014302Y-119672466D02*
X60519328Y-120167440D01*
X223246800Y-63438912D02*
X223741774Y-62943938D01*
X224590302Y-63792466D02*
X224095328Y-64287440D01*
X199878800Y-63438912D02*
X200373774Y-62943938D01*
X201222302Y-63792466D02*
X200727328Y-64287440D01*
X176510800Y-63438912D02*
X177005774Y-62943938D01*
X177854302Y-63792466D02*
X177359328Y-64287440D01*
X153142800Y-63438912D02*
X153637774Y-62943938D01*
X154486302Y-63792466D02*
X153991328Y-64287440D01*
X129774800Y-63438912D02*
X130269774Y-62943938D01*
X131118302Y-63792466D02*
X130623328Y-64287440D01*
X106406800Y-63438912D02*
X106901774Y-62943938D01*
X107750302Y-63792466D02*
X107255328Y-64287440D01*
X83038800Y-63438912D02*
X83533774Y-62943938D01*
X84382302Y-63792466D02*
X83887328Y-64287440D01*
X222875104Y-127428770D02*
X222380130Y-126933796D01*
X223228658Y-126085268D02*
X223723632Y-126580242D01*
X199507104Y-127428770D02*
X199012130Y-126933796D01*
X199860658Y-126085268D02*
X200355632Y-126580242D01*
X176139104Y-127428770D02*
X175644130Y-126933796D01*
X176492658Y-126085268D02*
X176987632Y-126580242D01*
X152771104Y-127428770D02*
X152276130Y-126933796D01*
X153124658Y-126085268D02*
X153619632Y-126580242D01*
X129403104Y-127428770D02*
X128908130Y-126933796D01*
X129756658Y-126085268D02*
X130251632Y-126580242D01*
X106035104Y-127428770D02*
X105540130Y-126933796D01*
X106388658Y-126085268D02*
X106883632Y-126580242D01*
X82667104Y-127428770D02*
X82172130Y-126933796D01*
X83020658Y-126085268D02*
X83515632Y-126580242D01*
X59299104Y-127428770D02*
X58804130Y-126933796D01*
X59652658Y-126085268D02*
X60147632Y-126580242D01*
X222875104Y-71548770D02*
X222380130Y-71053796D01*
X223228658Y-70205268D02*
X223723632Y-70700242D01*
X199507104Y-71548770D02*
X199012130Y-71053796D01*
X199860658Y-70205268D02*
X200355632Y-70700242D01*
X176139104Y-71548770D02*
X175644130Y-71053796D01*
X176492658Y-70205268D02*
X176987632Y-70700242D01*
X152771104Y-71548770D02*
X152276130Y-71053796D01*
X153124658Y-70205268D02*
X153619632Y-70700242D01*
X129403104Y-71548770D02*
X128908130Y-71053796D01*
X129756658Y-70205268D02*
X130251632Y-70700242D01*
X106035104Y-71548770D02*
X105540130Y-71053796D01*
X106388658Y-70205268D02*
X106883632Y-70700242D01*
X82667104Y-71548770D02*
X82172130Y-71053796D01*
X83020658Y-70205268D02*
X83515632Y-70700242D01*
D13*
X225416050Y-123714669D02*
X225416050Y-123150709D01*
X225416050Y-123150709D02*
X231637571Y-116929188D01*
X231637571Y-116929188D02*
X232201531Y-116929188D01*
X232201531Y-116929188D02*
X238423052Y-123150709D01*
X238423052Y-123150709D02*
X238423052Y-123714669D01*
X238423052Y-123714669D02*
X232201531Y-129936190D01*
X232201531Y-129936190D02*
X231637571Y-129936190D01*
X231637571Y-129936190D02*
X225416050Y-123714669D01*
D15*
X226547522Y-123432689D02*
G75*
G03X226547522Y-123432689I-281940J0D01*
G01*
D13*
X202048050Y-123714669D02*
X202048050Y-123150709D01*
X202048050Y-123150709D02*
X208269571Y-116929188D01*
X208269571Y-116929188D02*
X208833531Y-116929188D01*
X208833531Y-116929188D02*
X215055052Y-123150709D01*
X215055052Y-123150709D02*
X215055052Y-123714669D01*
X215055052Y-123714669D02*
X208833531Y-129936190D01*
X208833531Y-129936190D02*
X208269571Y-129936190D01*
X208269571Y-129936190D02*
X202048050Y-123714669D01*
D15*
X203179522Y-123432689D02*
G75*
G03X203179522Y-123432689I-281940J0D01*
G01*
D13*
X178680050Y-123714669D02*
X178680050Y-123150709D01*
X178680050Y-123150709D02*
X184901571Y-116929188D01*
X184901571Y-116929188D02*
X185465531Y-116929188D01*
X185465531Y-116929188D02*
X191687052Y-123150709D01*
X191687052Y-123150709D02*
X191687052Y-123714669D01*
X191687052Y-123714669D02*
X185465531Y-129936190D01*
X185465531Y-129936190D02*
X184901571Y-129936190D01*
X184901571Y-129936190D02*
X178680050Y-123714669D01*
D15*
X179811522Y-123432689D02*
G75*
G03X179811522Y-123432689I-281940J0D01*
G01*
D13*
X155312050Y-123714669D02*
X155312050Y-123150709D01*
X155312050Y-123150709D02*
X161533571Y-116929188D01*
X161533571Y-116929188D02*
X162097531Y-116929188D01*
X162097531Y-116929188D02*
X168319052Y-123150709D01*
X168319052Y-123150709D02*
X168319052Y-123714669D01*
X168319052Y-123714669D02*
X162097531Y-129936190D01*
X162097531Y-129936190D02*
X161533571Y-129936190D01*
X161533571Y-129936190D02*
X155312050Y-123714669D01*
D15*
X156443522Y-123432689D02*
G75*
G03X156443522Y-123432689I-281940J0D01*
G01*
D13*
X131944050Y-123714669D02*
X131944050Y-123150709D01*
X131944050Y-123150709D02*
X138165571Y-116929188D01*
X138165571Y-116929188D02*
X138729531Y-116929188D01*
X138729531Y-116929188D02*
X144951052Y-123150709D01*
X144951052Y-123150709D02*
X144951052Y-123714669D01*
X144951052Y-123714669D02*
X138729531Y-129936190D01*
X138729531Y-129936190D02*
X138165571Y-129936190D01*
X138165571Y-129936190D02*
X131944050Y-123714669D01*
D15*
X133075522Y-123432689D02*
G75*
G03X133075522Y-123432689I-281940J0D01*
G01*
D13*
X108576050Y-123714669D02*
X108576050Y-123150709D01*
X108576050Y-123150709D02*
X114797571Y-116929188D01*
X114797571Y-116929188D02*
X115361531Y-116929188D01*
X115361531Y-116929188D02*
X121583052Y-123150709D01*
X121583052Y-123150709D02*
X121583052Y-123714669D01*
X121583052Y-123714669D02*
X115361531Y-129936190D01*
X115361531Y-129936190D02*
X114797571Y-129936190D01*
X114797571Y-129936190D02*
X108576050Y-123714669D01*
D15*
X109707522Y-123432689D02*
G75*
G03X109707522Y-123432689I-281940J0D01*
G01*
D13*
X85208050Y-123714669D02*
X85208050Y-123150709D01*
X85208050Y-123150709D02*
X91429571Y-116929188D01*
X91429571Y-116929188D02*
X91993531Y-116929188D01*
X91993531Y-116929188D02*
X98215052Y-123150709D01*
X98215052Y-123150709D02*
X98215052Y-123714669D01*
X98215052Y-123714669D02*
X91993531Y-129936190D01*
X91993531Y-129936190D02*
X91429571Y-129936190D01*
X91429571Y-129936190D02*
X85208050Y-123714669D01*
D15*
X86339522Y-123432689D02*
G75*
G03X86339522Y-123432689I-281940J0D01*
G01*
D13*
X61840050Y-123714669D02*
X61840050Y-123150709D01*
X61840050Y-123150709D02*
X68061571Y-116929188D01*
X68061571Y-116929188D02*
X68625531Y-116929188D01*
X68625531Y-116929188D02*
X74847052Y-123150709D01*
X74847052Y-123150709D02*
X74847052Y-123714669D01*
X74847052Y-123714669D02*
X68625531Y-129936190D01*
X68625531Y-129936190D02*
X68061571Y-129936190D01*
X68061571Y-129936190D02*
X61840050Y-123714669D01*
D15*
X62971522Y-123432689D02*
G75*
G03X62971522Y-123432689I-281940J0D01*
G01*
D13*
X225416050Y-67834669D02*
X225416050Y-67270709D01*
X225416050Y-67270709D02*
X231637571Y-61049188D01*
X231637571Y-61049188D02*
X232201531Y-61049188D01*
X232201531Y-61049188D02*
X238423052Y-67270709D01*
X238423052Y-67270709D02*
X238423052Y-67834669D01*
X238423052Y-67834669D02*
X232201531Y-74056190D01*
X232201531Y-74056190D02*
X231637571Y-74056190D01*
X231637571Y-74056190D02*
X225416050Y-67834669D01*
D15*
X226547522Y-67552689D02*
G75*
G03X226547522Y-67552689I-281940J0D01*
G01*
D13*
X202048050Y-67834669D02*
X202048050Y-67270709D01*
X202048050Y-67270709D02*
X208269571Y-61049188D01*
X208269571Y-61049188D02*
X208833531Y-61049188D01*
X208833531Y-61049188D02*
X215055052Y-67270709D01*
X215055052Y-67270709D02*
X215055052Y-67834669D01*
X215055052Y-67834669D02*
X208833531Y-74056190D01*
X208833531Y-74056190D02*
X208269571Y-74056190D01*
X208269571Y-74056190D02*
X202048050Y-67834669D01*
D15*
X203179522Y-67552689D02*
G75*
G03X203179522Y-67552689I-281940J0D01*
G01*
D13*
X178680050Y-67834669D02*
X178680050Y-67270709D01*
X178680050Y-67270709D02*
X184901571Y-61049188D01*
X184901571Y-61049188D02*
X185465531Y-61049188D01*
X185465531Y-61049188D02*
X191687052Y-67270709D01*
X191687052Y-67270709D02*
X191687052Y-67834669D01*
X191687052Y-67834669D02*
X185465531Y-74056190D01*
X185465531Y-74056190D02*
X184901571Y-74056190D01*
X184901571Y-74056190D02*
X178680050Y-67834669D01*
D15*
X179811522Y-67552689D02*
G75*
G03X179811522Y-67552689I-281940J0D01*
G01*
D13*
X155312050Y-67834669D02*
X155312050Y-67270709D01*
X155312050Y-67270709D02*
X161533571Y-61049188D01*
X161533571Y-61049188D02*
X162097531Y-61049188D01*
X162097531Y-61049188D02*
X168319052Y-67270709D01*
X168319052Y-67270709D02*
X168319052Y-67834669D01*
X168319052Y-67834669D02*
X162097531Y-74056190D01*
X162097531Y-74056190D02*
X161533571Y-74056190D01*
X161533571Y-74056190D02*
X155312050Y-67834669D01*
D15*
X156443522Y-67552689D02*
G75*
G03X156443522Y-67552689I-281940J0D01*
G01*
D13*
X131944050Y-67834669D02*
X131944050Y-67270709D01*
X131944050Y-67270709D02*
X138165571Y-61049188D01*
X138165571Y-61049188D02*
X138729531Y-61049188D01*
X138729531Y-61049188D02*
X144951052Y-67270709D01*
X144951052Y-67270709D02*
X144951052Y-67834669D01*
X144951052Y-67834669D02*
X138729531Y-74056190D01*
X138729531Y-74056190D02*
X138165571Y-74056190D01*
X138165571Y-74056190D02*
X131944050Y-67834669D01*
D15*
X133075522Y-67552689D02*
G75*
G03X133075522Y-67552689I-281940J0D01*
G01*
D13*
X108576050Y-67834669D02*
X108576050Y-67270709D01*
X108576050Y-67270709D02*
X114797571Y-61049188D01*
X114797571Y-61049188D02*
X115361531Y-61049188D01*
X115361531Y-61049188D02*
X121583052Y-67270709D01*
X121583052Y-67270709D02*
X121583052Y-67834669D01*
X121583052Y-67834669D02*
X115361531Y-74056190D01*
X115361531Y-74056190D02*
X114797571Y-74056190D01*
X114797571Y-74056190D02*
X108576050Y-67834669D01*
D15*
X109707522Y-67552689D02*
G75*
G03X109707522Y-67552689I-281940J0D01*
G01*
D13*
X85208050Y-67834669D02*
X85208050Y-67270709D01*
X85208050Y-67270709D02*
X91429571Y-61049188D01*
X91429571Y-61049188D02*
X91993531Y-61049188D01*
X91993531Y-61049188D02*
X98215052Y-67270709D01*
X98215052Y-67270709D02*
X98215052Y-67834669D01*
X98215052Y-67834669D02*
X91993531Y-74056190D01*
X91993531Y-74056190D02*
X91429571Y-74056190D01*
X91429571Y-74056190D02*
X85208050Y-67834669D01*
D15*
X86339522Y-67552689D02*
G75*
G03X86339522Y-67552689I-281940J0D01*
G01*
D12*
X225768658Y-128625268D02*
X226263632Y-129120242D01*
X225415104Y-129968770D02*
X224920130Y-129473796D01*
X202400658Y-128625268D02*
X202895632Y-129120242D01*
X202047104Y-129968770D02*
X201552130Y-129473796D01*
X179032658Y-128625268D02*
X179527632Y-129120242D01*
X178679104Y-129968770D02*
X178184130Y-129473796D01*
X155664658Y-128625268D02*
X156159632Y-129120242D01*
X155311104Y-129968770D02*
X154816130Y-129473796D01*
X132296658Y-128625268D02*
X132791632Y-129120242D01*
X131943104Y-129968770D02*
X131448130Y-129473796D01*
X108928658Y-128625268D02*
X109423632Y-129120242D01*
X108575104Y-129968770D02*
X108080130Y-129473796D01*
X85560658Y-128625268D02*
X86055632Y-129120242D01*
X85207104Y-129968770D02*
X84712130Y-129473796D01*
X62192658Y-128625268D02*
X62687632Y-129120242D01*
X61839104Y-129968770D02*
X61344130Y-129473796D01*
X225768658Y-72745268D02*
X226263632Y-73240242D01*
X225415104Y-74088770D02*
X224920130Y-73593796D01*
X202400658Y-72745268D02*
X202895632Y-73240242D01*
X202047104Y-74088770D02*
X201552130Y-73593796D01*
X179032658Y-72745268D02*
X179527632Y-73240242D01*
X178679104Y-74088770D02*
X178184130Y-73593796D01*
X155664658Y-72745268D02*
X156159632Y-73240242D01*
X155311104Y-74088770D02*
X154816130Y-73593796D01*
X132296658Y-72745268D02*
X132791632Y-73240242D01*
X131943104Y-74088770D02*
X131448130Y-73593796D01*
X108928658Y-72745268D02*
X109423632Y-73240242D01*
X108575104Y-74088770D02*
X108080130Y-73593796D01*
X85560658Y-72745268D02*
X86055632Y-73240242D01*
X85207104Y-74088770D02*
X84712130Y-73593796D01*
X239244551Y-139064689D02*
X239244551Y-137264689D01*
X236024551Y-137264689D02*
X236024551Y-139714689D01*
X215876551Y-139064689D02*
X215876551Y-137264689D01*
X212656551Y-137264689D02*
X212656551Y-139714689D01*
X192508551Y-139064689D02*
X192508551Y-137264689D01*
X189288551Y-137264689D02*
X189288551Y-139714689D01*
X169140551Y-139064689D02*
X169140551Y-137264689D01*
X165920551Y-137264689D02*
X165920551Y-139714689D01*
X145772551Y-139064689D02*
X145772551Y-137264689D01*
X142552551Y-137264689D02*
X142552551Y-139714689D01*
X122404551Y-139064689D02*
X122404551Y-137264689D01*
X119184551Y-137264689D02*
X119184551Y-139714689D01*
X99036551Y-139064689D02*
X99036551Y-137264689D01*
X95816551Y-137264689D02*
X95816551Y-139714689D01*
X75668551Y-139064689D02*
X75668551Y-137264689D01*
X72448551Y-137264689D02*
X72448551Y-139714689D01*
X239244551Y-83184689D02*
X239244551Y-81384689D01*
X236024551Y-81384689D02*
X236024551Y-83834689D01*
X215876551Y-83184689D02*
X215876551Y-81384689D01*
X212656551Y-81384689D02*
X212656551Y-83834689D01*
X192508551Y-83184689D02*
X192508551Y-81384689D01*
X189288551Y-81384689D02*
X189288551Y-83834689D01*
X169140551Y-83184689D02*
X169140551Y-81384689D01*
X165920551Y-81384689D02*
X165920551Y-83834689D01*
X145772551Y-83184689D02*
X145772551Y-81384689D01*
X142552551Y-81384689D02*
X142552551Y-83834689D01*
X122404551Y-83184689D02*
X122404551Y-81384689D01*
X119184551Y-81384689D02*
X119184551Y-83834689D01*
X99036551Y-83184689D02*
X99036551Y-81384689D01*
X95816551Y-81384689D02*
X95816551Y-83834689D01*
D13*
X233062551Y-135878689D02*
X234586551Y-135878689D01*
X209694551Y-135878689D02*
X211218551Y-135878689D01*
X186326551Y-135878689D02*
X187850551Y-135878689D01*
X162958551Y-135878689D02*
X164482551Y-135878689D01*
X139590551Y-135878689D02*
X141114551Y-135878689D01*
X116222551Y-135878689D02*
X117746551Y-135878689D01*
X92854551Y-135878689D02*
X94378551Y-135878689D01*
X69486551Y-135878689D02*
X71010551Y-135878689D01*
X233062551Y-79998689D02*
X234586551Y-79998689D01*
X209694551Y-79998689D02*
X211218551Y-79998689D01*
X186326551Y-79998689D02*
X187850551Y-79998689D01*
X162958551Y-79998689D02*
X164482551Y-79998689D01*
X139590551Y-79998689D02*
X141114551Y-79998689D01*
X116222551Y-79998689D02*
X117746551Y-79998689D01*
X92854551Y-79998689D02*
X94378551Y-79998689D01*
X240682551Y-135754229D02*
X242206551Y-135754229D01*
X217314551Y-135754229D02*
X218838551Y-135754229D01*
X193946551Y-135754229D02*
X195470551Y-135754229D01*
X170578551Y-135754229D02*
X172102551Y-135754229D01*
X147210551Y-135754229D02*
X148734551Y-135754229D01*
X123842551Y-135754229D02*
X125366551Y-135754229D01*
X100474551Y-135754229D02*
X101998551Y-135754229D01*
X77106551Y-135754229D02*
X78630551Y-135754229D01*
X240682551Y-79874229D02*
X242206551Y-79874229D01*
X217314551Y-79874229D02*
X218838551Y-79874229D01*
X193946551Y-79874229D02*
X195470551Y-79874229D01*
X170578551Y-79874229D02*
X172102551Y-79874229D01*
X147210551Y-79874229D02*
X148734551Y-79874229D01*
X123842551Y-79874229D02*
X125366551Y-79874229D01*
X100474551Y-79874229D02*
X101998551Y-79874229D01*
X238142551Y-143244689D02*
X236872551Y-143244689D01*
X236872551Y-141720689D02*
X238142551Y-141720689D01*
X214774551Y-143244689D02*
X213504551Y-143244689D01*
X213504551Y-141720689D02*
X214774551Y-141720689D01*
X191406551Y-143244689D02*
X190136551Y-143244689D01*
X190136551Y-141720689D02*
X191406551Y-141720689D01*
X168038551Y-143244689D02*
X166768551Y-143244689D01*
X166768551Y-141720689D02*
X168038551Y-141720689D01*
X144670551Y-143244689D02*
X143400551Y-143244689D01*
X143400551Y-141720689D02*
X144670551Y-141720689D01*
X121302551Y-143244689D02*
X120032551Y-143244689D01*
X120032551Y-141720689D02*
X121302551Y-141720689D01*
X97934551Y-143244689D02*
X96664551Y-143244689D01*
X96664551Y-141720689D02*
X97934551Y-141720689D01*
X74566551Y-143244689D02*
X73296551Y-143244689D01*
X73296551Y-141720689D02*
X74566551Y-141720689D01*
X238142551Y-87364689D02*
X236872551Y-87364689D01*
X236872551Y-85840689D02*
X238142551Y-85840689D01*
X214774551Y-87364689D02*
X213504551Y-87364689D01*
X213504551Y-85840689D02*
X214774551Y-85840689D01*
X191406551Y-87364689D02*
X190136551Y-87364689D01*
X190136551Y-85840689D02*
X191406551Y-85840689D01*
X168038551Y-87364689D02*
X166768551Y-87364689D01*
X166768551Y-85840689D02*
X168038551Y-85840689D01*
X144670551Y-87364689D02*
X143400551Y-87364689D01*
X143400551Y-85840689D02*
X144670551Y-85840689D01*
X121302551Y-87364689D02*
X120032551Y-87364689D01*
X120032551Y-85840689D02*
X121302551Y-85840689D01*
X97934551Y-87364689D02*
X96664551Y-87364689D01*
X96664551Y-85840689D02*
X97934551Y-85840689D01*
D12*
X226376551Y-134108689D02*
X226376551Y-135108689D01*
X225016551Y-135108689D02*
X225016551Y-134108689D01*
X203008551Y-134108689D02*
X203008551Y-135108689D01*
X201648551Y-135108689D02*
X201648551Y-134108689D01*
X179640551Y-134108689D02*
X179640551Y-135108689D01*
X178280551Y-135108689D02*
X178280551Y-134108689D01*
X156272551Y-134108689D02*
X156272551Y-135108689D01*
X154912551Y-135108689D02*
X154912551Y-134108689D01*
X132904551Y-134108689D02*
X132904551Y-135108689D01*
X131544551Y-135108689D02*
X131544551Y-134108689D01*
X109536551Y-134108689D02*
X109536551Y-135108689D01*
X108176551Y-135108689D02*
X108176551Y-134108689D01*
X86168551Y-134108689D02*
X86168551Y-135108689D01*
X84808551Y-135108689D02*
X84808551Y-134108689D01*
X62800551Y-134108689D02*
X62800551Y-135108689D01*
X61440551Y-135108689D02*
X61440551Y-134108689D01*
X226376551Y-78228689D02*
X226376551Y-79228689D01*
X225016551Y-79228689D02*
X225016551Y-78228689D01*
X203008551Y-78228689D02*
X203008551Y-79228689D01*
X201648551Y-79228689D02*
X201648551Y-78228689D01*
X179640551Y-78228689D02*
X179640551Y-79228689D01*
X178280551Y-79228689D02*
X178280551Y-78228689D01*
X156272551Y-78228689D02*
X156272551Y-79228689D01*
X154912551Y-79228689D02*
X154912551Y-78228689D01*
X132904551Y-78228689D02*
X132904551Y-79228689D01*
X131544551Y-79228689D02*
X131544551Y-78228689D01*
X109536551Y-78228689D02*
X109536551Y-79228689D01*
X108176551Y-79228689D02*
X108176551Y-78228689D01*
X86168551Y-78228689D02*
X86168551Y-79228689D01*
X84808551Y-79228689D02*
X84808551Y-78228689D01*
D13*
X222552031Y-141233009D02*
X222552031Y-139632809D01*
X222552031Y-139632809D02*
X223750911Y-139632809D01*
X229349071Y-139632809D02*
X228150191Y-139632809D01*
X229349071Y-141233009D02*
X229349071Y-139632809D01*
X222552031Y-143930489D02*
X229349071Y-143930489D01*
X223750911Y-139632809D02*
X223750911Y-141034889D01*
X223750911Y-141034889D02*
X228150191Y-141034889D01*
X228150191Y-141034889D02*
X228150191Y-139632809D01*
X199184031Y-141233009D02*
X199184031Y-139632809D01*
X199184031Y-139632809D02*
X200382911Y-139632809D01*
X205981071Y-139632809D02*
X204782191Y-139632809D01*
X205981071Y-141233009D02*
X205981071Y-139632809D01*
X199184031Y-143930489D02*
X205981071Y-143930489D01*
X200382911Y-139632809D02*
X200382911Y-141034889D01*
X200382911Y-141034889D02*
X204782191Y-141034889D01*
X204782191Y-141034889D02*
X204782191Y-139632809D01*
X175816031Y-141233009D02*
X175816031Y-139632809D01*
X175816031Y-139632809D02*
X177014911Y-139632809D01*
X182613071Y-139632809D02*
X181414191Y-139632809D01*
X182613071Y-141233009D02*
X182613071Y-139632809D01*
X175816031Y-143930489D02*
X182613071Y-143930489D01*
X177014911Y-139632809D02*
X177014911Y-141034889D01*
X177014911Y-141034889D02*
X181414191Y-141034889D01*
X181414191Y-141034889D02*
X181414191Y-139632809D01*
X152448031Y-141233009D02*
X152448031Y-139632809D01*
X152448031Y-139632809D02*
X153646911Y-139632809D01*
X159245071Y-139632809D02*
X158046191Y-139632809D01*
X159245071Y-141233009D02*
X159245071Y-139632809D01*
X152448031Y-143930489D02*
X159245071Y-143930489D01*
X153646911Y-139632809D02*
X153646911Y-141034889D01*
X153646911Y-141034889D02*
X158046191Y-141034889D01*
X158046191Y-141034889D02*
X158046191Y-139632809D01*
X129080031Y-141233009D02*
X129080031Y-139632809D01*
X129080031Y-139632809D02*
X130278911Y-139632809D01*
X135877071Y-139632809D02*
X134678191Y-139632809D01*
X135877071Y-141233009D02*
X135877071Y-139632809D01*
X129080031Y-143930489D02*
X135877071Y-143930489D01*
X130278911Y-139632809D02*
X130278911Y-141034889D01*
X130278911Y-141034889D02*
X134678191Y-141034889D01*
X134678191Y-141034889D02*
X134678191Y-139632809D01*
X105712031Y-141233009D02*
X105712031Y-139632809D01*
X105712031Y-139632809D02*
X106910911Y-139632809D01*
X112509071Y-139632809D02*
X111310191Y-139632809D01*
X112509071Y-141233009D02*
X112509071Y-139632809D01*
X105712031Y-143930489D02*
X112509071Y-143930489D01*
X106910911Y-139632809D02*
X106910911Y-141034889D01*
X106910911Y-141034889D02*
X111310191Y-141034889D01*
X111310191Y-141034889D02*
X111310191Y-139632809D01*
X82344031Y-141233009D02*
X82344031Y-139632809D01*
X82344031Y-139632809D02*
X83542911Y-139632809D01*
X89141071Y-139632809D02*
X87942191Y-139632809D01*
X89141071Y-141233009D02*
X89141071Y-139632809D01*
X82344031Y-143930489D02*
X89141071Y-143930489D01*
X83542911Y-139632809D02*
X83542911Y-141034889D01*
X83542911Y-141034889D02*
X87942191Y-141034889D01*
X87942191Y-141034889D02*
X87942191Y-139632809D01*
X58976031Y-141233009D02*
X58976031Y-139632809D01*
X58976031Y-139632809D02*
X60174911Y-139632809D01*
X65773071Y-139632809D02*
X64574191Y-139632809D01*
X65773071Y-141233009D02*
X65773071Y-139632809D01*
X58976031Y-143930489D02*
X65773071Y-143930489D01*
X60174911Y-139632809D02*
X60174911Y-141034889D01*
X60174911Y-141034889D02*
X64574191Y-141034889D01*
X64574191Y-141034889D02*
X64574191Y-139632809D01*
X222552031Y-85353009D02*
X222552031Y-83752809D01*
X222552031Y-83752809D02*
X223750911Y-83752809D01*
X229349071Y-83752809D02*
X228150191Y-83752809D01*
X229349071Y-85353009D02*
X229349071Y-83752809D01*
X222552031Y-88050489D02*
X229349071Y-88050489D01*
X223750911Y-83752809D02*
X223750911Y-85154889D01*
X223750911Y-85154889D02*
X228150191Y-85154889D01*
X228150191Y-85154889D02*
X228150191Y-83752809D01*
X199184031Y-85353009D02*
X199184031Y-83752809D01*
X199184031Y-83752809D02*
X200382911Y-83752809D01*
X205981071Y-83752809D02*
X204782191Y-83752809D01*
X205981071Y-85353009D02*
X205981071Y-83752809D01*
X199184031Y-88050489D02*
X205981071Y-88050489D01*
X200382911Y-83752809D02*
X200382911Y-85154889D01*
X200382911Y-85154889D02*
X204782191Y-85154889D01*
X204782191Y-85154889D02*
X204782191Y-83752809D01*
X175816031Y-85353009D02*
X175816031Y-83752809D01*
X175816031Y-83752809D02*
X177014911Y-83752809D01*
X182613071Y-83752809D02*
X181414191Y-83752809D01*
X182613071Y-85353009D02*
X182613071Y-83752809D01*
X175816031Y-88050489D02*
X182613071Y-88050489D01*
X177014911Y-83752809D02*
X177014911Y-85154889D01*
X177014911Y-85154889D02*
X181414191Y-85154889D01*
X181414191Y-85154889D02*
X181414191Y-83752809D01*
X152448031Y-85353009D02*
X152448031Y-83752809D01*
X152448031Y-83752809D02*
X153646911Y-83752809D01*
X159245071Y-83752809D02*
X158046191Y-83752809D01*
X159245071Y-85353009D02*
X159245071Y-83752809D01*
X152448031Y-88050489D02*
X159245071Y-88050489D01*
X153646911Y-83752809D02*
X153646911Y-85154889D01*
X153646911Y-85154889D02*
X158046191Y-85154889D01*
X158046191Y-85154889D02*
X158046191Y-83752809D01*
X129080031Y-85353009D02*
X129080031Y-83752809D01*
X129080031Y-83752809D02*
X130278911Y-83752809D01*
X135877071Y-83752809D02*
X134678191Y-83752809D01*
X135877071Y-85353009D02*
X135877071Y-83752809D01*
X129080031Y-88050489D02*
X135877071Y-88050489D01*
X130278911Y-83752809D02*
X130278911Y-85154889D01*
X130278911Y-85154889D02*
X134678191Y-85154889D01*
X134678191Y-85154889D02*
X134678191Y-83752809D01*
X105712031Y-85353009D02*
X105712031Y-83752809D01*
X105712031Y-83752809D02*
X106910911Y-83752809D01*
X112509071Y-83752809D02*
X111310191Y-83752809D01*
X112509071Y-85353009D02*
X112509071Y-83752809D01*
X105712031Y-88050489D02*
X112509071Y-88050489D01*
X106910911Y-83752809D02*
X106910911Y-85154889D01*
X106910911Y-85154889D02*
X111310191Y-85154889D01*
X111310191Y-85154889D02*
X111310191Y-83752809D01*
X82344031Y-85353009D02*
X82344031Y-83752809D01*
X82344031Y-83752809D02*
X83542911Y-83752809D01*
X89141071Y-83752809D02*
X87942191Y-83752809D01*
X89141071Y-85353009D02*
X89141071Y-83752809D01*
X82344031Y-88050489D02*
X89141071Y-88050489D01*
X83542911Y-83752809D02*
X83542911Y-85154889D01*
X83542911Y-85154889D02*
X87942191Y-85154889D01*
X87942191Y-85154889D02*
X87942191Y-83752809D01*
D12*
X229549551Y-137056689D02*
X230249551Y-137056689D01*
X230249551Y-138256689D02*
X229549551Y-138256689D01*
X206181551Y-137056689D02*
X206881551Y-137056689D01*
X206881551Y-138256689D02*
X206181551Y-138256689D01*
X182813551Y-137056689D02*
X183513551Y-137056689D01*
X183513551Y-138256689D02*
X182813551Y-138256689D01*
X159445551Y-137056689D02*
X160145551Y-137056689D01*
X160145551Y-138256689D02*
X159445551Y-138256689D01*
X136077551Y-137056689D02*
X136777551Y-137056689D01*
X136777551Y-138256689D02*
X136077551Y-138256689D01*
X112709551Y-137056689D02*
X113409551Y-137056689D01*
X113409551Y-138256689D02*
X112709551Y-138256689D01*
X89341551Y-137056689D02*
X90041551Y-137056689D01*
X90041551Y-138256689D02*
X89341551Y-138256689D01*
X65973551Y-137056689D02*
X66673551Y-137056689D01*
X66673551Y-138256689D02*
X65973551Y-138256689D01*
X229549551Y-81176689D02*
X230249551Y-81176689D01*
X230249551Y-82376689D02*
X229549551Y-82376689D01*
X206181551Y-81176689D02*
X206881551Y-81176689D01*
X206881551Y-82376689D02*
X206181551Y-82376689D01*
X182813551Y-81176689D02*
X183513551Y-81176689D01*
X183513551Y-82376689D02*
X182813551Y-82376689D01*
X159445551Y-81176689D02*
X160145551Y-81176689D01*
X160145551Y-82376689D02*
X159445551Y-82376689D01*
X136077551Y-81176689D02*
X136777551Y-81176689D01*
X136777551Y-82376689D02*
X136077551Y-82376689D01*
X112709551Y-81176689D02*
X113409551Y-81176689D01*
X113409551Y-82376689D02*
X112709551Y-82376689D01*
X89341551Y-81176689D02*
X90041551Y-81176689D01*
X90041551Y-82376689D02*
X89341551Y-82376689D01*
X224344551Y-134108689D02*
X224344551Y-135108689D01*
X222984551Y-135108689D02*
X222984551Y-134108689D01*
X200976551Y-134108689D02*
X200976551Y-135108689D01*
X199616551Y-135108689D02*
X199616551Y-134108689D01*
X177608551Y-134108689D02*
X177608551Y-135108689D01*
X176248551Y-135108689D02*
X176248551Y-134108689D01*
X154240551Y-134108689D02*
X154240551Y-135108689D01*
X152880551Y-135108689D02*
X152880551Y-134108689D01*
X130872551Y-134108689D02*
X130872551Y-135108689D01*
X129512551Y-135108689D02*
X129512551Y-134108689D01*
X107504551Y-134108689D02*
X107504551Y-135108689D01*
X106144551Y-135108689D02*
X106144551Y-134108689D01*
X84136551Y-134108689D02*
X84136551Y-135108689D01*
X82776551Y-135108689D02*
X82776551Y-134108689D01*
X60768551Y-134108689D02*
X60768551Y-135108689D01*
X59408551Y-135108689D02*
X59408551Y-134108689D01*
X224344551Y-78228689D02*
X224344551Y-79228689D01*
X222984551Y-79228689D02*
X222984551Y-78228689D01*
X200976551Y-78228689D02*
X200976551Y-79228689D01*
X199616551Y-79228689D02*
X199616551Y-78228689D01*
X177608551Y-78228689D02*
X177608551Y-79228689D01*
X176248551Y-79228689D02*
X176248551Y-78228689D01*
X154240551Y-78228689D02*
X154240551Y-79228689D01*
X152880551Y-79228689D02*
X152880551Y-78228689D01*
X130872551Y-78228689D02*
X130872551Y-79228689D01*
X129512551Y-79228689D02*
X129512551Y-78228689D01*
X107504551Y-78228689D02*
X107504551Y-79228689D01*
X106144551Y-79228689D02*
X106144551Y-78228689D01*
X84136551Y-78228689D02*
X84136551Y-79228689D01*
X82776551Y-79228689D02*
X82776551Y-78228689D01*
D13*
X58976031Y-85353009D02*
X58976031Y-83752809D01*
X58976031Y-83752809D02*
X60174911Y-83752809D01*
X65773071Y-83752809D02*
X64574191Y-83752809D01*
X65773071Y-85353009D02*
X65773071Y-83752809D01*
X58976031Y-88050489D02*
X65773071Y-88050489D01*
X60174911Y-83752809D02*
X60174911Y-85154889D01*
X60174911Y-85154889D02*
X64574191Y-85154889D01*
X64574191Y-85154889D02*
X64574191Y-83752809D01*
D12*
X64695551Y-57730689D02*
X64695551Y-57030689D01*
X65895551Y-57030689D02*
X65895551Y-57730689D01*
X64695551Y-54313689D02*
X64695551Y-53613689D01*
X65895551Y-53613689D02*
X65895551Y-54313689D01*
X65973551Y-81176689D02*
X66673551Y-81176689D01*
X66673551Y-82376689D02*
X65973551Y-82376689D01*
X62192658Y-72745268D02*
X62687632Y-73240242D01*
X61839104Y-74088770D02*
X61344130Y-73593796D01*
X59299104Y-71548770D02*
X58804130Y-71053796D01*
X59652658Y-70205268D02*
X60147632Y-70700242D01*
X59670800Y-63438912D02*
X60165774Y-62943938D01*
X61014302Y-63792466D02*
X60519328Y-64287440D01*
X77691774Y-71907440D02*
X77196800Y-71412466D01*
X78045328Y-70563938D02*
X78540302Y-71058912D01*
X71822328Y-77040938D02*
X72317302Y-77535912D01*
X71468774Y-78384440D02*
X70973800Y-77889466D01*
D13*
X74566551Y-87364689D02*
X73296551Y-87364689D01*
X73296551Y-85840689D02*
X74566551Y-85840689D01*
D12*
X63816551Y-53463689D02*
X63816551Y-54463689D01*
X62456551Y-54463689D02*
X62456551Y-53463689D01*
X66102551Y-49907689D02*
X66102551Y-50907689D01*
X64742551Y-50907689D02*
X64742551Y-49907689D01*
D13*
X61262031Y-41167169D02*
X75257431Y-41167169D01*
X75257431Y-41167169D02*
X75257431Y-47364769D01*
X75257431Y-47364769D02*
X75257431Y-48164869D01*
X75257431Y-48164869D02*
X61262031Y-48164869D01*
X61262031Y-48164869D02*
X61262031Y-47364769D01*
X61262031Y-47364769D02*
X61262031Y-41167169D01*
X75257431Y-47364769D02*
X61262031Y-47364769D01*
X61840050Y-67834669D02*
X61840050Y-67270709D01*
X61840050Y-67270709D02*
X68061571Y-61049188D01*
X68061571Y-61049188D02*
X68625531Y-61049188D01*
X68625531Y-61049188D02*
X74847052Y-67270709D01*
X74847052Y-67270709D02*
X74847052Y-67834669D01*
X74847052Y-67834669D02*
X68625531Y-74056190D01*
X68625531Y-74056190D02*
X68061571Y-74056190D01*
X68061571Y-74056190D02*
X61840050Y-67834669D01*
D15*
X62971522Y-67552689D02*
G75*
G03X62971522Y-67552689I-281940J0D01*
G01*
D12*
X62800551Y-78228689D02*
X62800551Y-79228689D01*
X61440551Y-79228689D02*
X61440551Y-78228689D01*
X60768551Y-78228689D02*
X60768551Y-79228689D01*
X59408551Y-79228689D02*
X59408551Y-78228689D01*
X65930272Y-78293075D02*
X65223165Y-77585968D01*
X66184830Y-76624303D02*
X66891937Y-77331410D01*
D14*
X68427551Y-51388689D02*
X68427551Y-51438689D01*
X72577551Y-51388689D02*
X72577551Y-51533689D01*
X72577551Y-56538689D02*
X72577551Y-56393689D01*
X68427551Y-56538689D02*
X68427551Y-56393689D01*
X68427551Y-51388689D02*
X72577551Y-51388689D01*
X68427551Y-56538689D02*
X72577551Y-56538689D01*
X68427551Y-51438689D02*
X67027551Y-51438689D01*
D12*
X75668551Y-83184689D02*
X75668551Y-81384689D01*
X72448551Y-81384689D02*
X72448551Y-83834689D01*
D13*
X76445977Y-75315379D02*
X75598241Y-76163115D01*
X73195125Y-76586983D02*
X72771257Y-76163115D01*
X73195125Y-73759999D02*
X74042861Y-72912263D01*
X76869845Y-72912263D02*
X76445977Y-72488395D01*
X77106551Y-79874229D02*
X78630551Y-79874229D01*
X69486551Y-79998689D02*
X71010551Y-79998689D01*
D14*
X33749147Y-130294641D02*
X33415813Y-129818450D01*
X33177718Y-130294641D02*
X33177718Y-129294641D01*
X33558671Y-129294641D01*
X33653909Y-129342260D01*
X33701528Y-129389879D01*
X33749147Y-129485117D01*
X33749147Y-129627974D01*
X33701528Y-129723212D01*
X33653909Y-129770831D01*
X33558671Y-129818450D01*
X33177718Y-129818450D01*
X34177718Y-129770831D02*
X34511052Y-129770831D01*
X34653909Y-130294641D02*
X34177718Y-130294641D01*
X34177718Y-129294641D01*
X34653909Y-129294641D01*
X35415814Y-129770831D02*
X35082480Y-129770831D01*
X35082480Y-130294641D02*
X35082480Y-129294641D01*
X35558671Y-129294641D01*
X36082480Y-129294641D02*
X36082480Y-129532736D01*
X35844385Y-129437498D02*
X36082480Y-129532736D01*
X36320576Y-129437498D01*
X35939623Y-129723212D02*
X36082480Y-129532736D01*
X36225338Y-129723212D01*
X36844385Y-129294641D02*
X36844385Y-129532736D01*
X36606290Y-129437498D02*
X36844385Y-129532736D01*
X37082481Y-129437498D01*
X36701528Y-129723212D02*
X36844385Y-129532736D01*
X36987243Y-129723212D01*
X27876667Y-153900381D02*
X27543333Y-153424190D01*
X27305238Y-153900381D02*
X27305238Y-152900381D01*
X27686191Y-152900381D01*
X27781429Y-152948000D01*
X27829048Y-152995619D01*
X27876667Y-153090857D01*
X27876667Y-153233714D01*
X27829048Y-153328952D01*
X27781429Y-153376571D01*
X27686191Y-153424190D01*
X27305238Y-153424190D01*
X28305238Y-153376571D02*
X28638572Y-153376571D01*
X28781429Y-153900381D02*
X28305238Y-153900381D01*
X28305238Y-152900381D01*
X28781429Y-152900381D01*
X29543334Y-153376571D02*
X29210000Y-153376571D01*
X29210000Y-153900381D02*
X29210000Y-152900381D01*
X29686191Y-152900381D01*
X30210000Y-152900381D02*
X30210000Y-153138476D01*
X29971905Y-153043238D02*
X30210000Y-153138476D01*
X30448096Y-153043238D01*
X30067143Y-153328952D02*
X30210000Y-153138476D01*
X30352858Y-153328952D01*
X30971905Y-152900381D02*
X30971905Y-153138476D01*
X30733810Y-153043238D02*
X30971905Y-153138476D01*
X31210001Y-153043238D01*
X30829048Y-153328952D02*
X30971905Y-153138476D01*
X31114763Y-153328952D01*
X268160667Y-34266381D02*
X267827333Y-33790190D01*
X267589238Y-34266381D02*
X267589238Y-33266381D01*
X267970191Y-33266381D01*
X268065429Y-33314000D01*
X268113048Y-33361619D01*
X268160667Y-33456857D01*
X268160667Y-33599714D01*
X268113048Y-33694952D01*
X268065429Y-33742571D01*
X267970191Y-33790190D01*
X267589238Y-33790190D01*
X268589238Y-33742571D02*
X268922572Y-33742571D01*
X269065429Y-34266381D02*
X268589238Y-34266381D01*
X268589238Y-33266381D01*
X269065429Y-33266381D01*
X269827334Y-33742571D02*
X269494000Y-33742571D01*
X269494000Y-34266381D02*
X269494000Y-33266381D01*
X269970191Y-33266381D01*
X270494000Y-33266381D02*
X270494000Y-33504476D01*
X270255905Y-33409238D02*
X270494000Y-33504476D01*
X270732096Y-33409238D01*
X270351143Y-33694952D02*
X270494000Y-33504476D01*
X270636858Y-33694952D01*
X271255905Y-33266381D02*
X271255905Y-33504476D01*
X271017810Y-33409238D02*
X271255905Y-33504476D01*
X271494001Y-33409238D01*
X271113048Y-33694952D02*
X271255905Y-33504476D01*
X271398763Y-33694952D01*
X263365147Y-44696641D02*
X263031813Y-44220450D01*
X262793718Y-44696641D02*
X262793718Y-43696641D01*
X263174671Y-43696641D01*
X263269909Y-43744260D01*
X263317528Y-43791879D01*
X263365147Y-43887117D01*
X263365147Y-44029974D01*
X263317528Y-44125212D01*
X263269909Y-44172831D01*
X263174671Y-44220450D01*
X262793718Y-44220450D01*
X263793718Y-44172831D02*
X264127052Y-44172831D01*
X264269909Y-44696641D02*
X263793718Y-44696641D01*
X263793718Y-43696641D01*
X264269909Y-43696641D01*
X265031814Y-44172831D02*
X264698480Y-44172831D01*
X264698480Y-44696641D02*
X264698480Y-43696641D01*
X265174671Y-43696641D01*
X265698480Y-43696641D02*
X265698480Y-43934736D01*
X265460385Y-43839498D02*
X265698480Y-43934736D01*
X265936576Y-43839498D01*
X265555623Y-44125212D02*
X265698480Y-43934736D01*
X265841338Y-44125212D01*
X266460385Y-43696641D02*
X266460385Y-43934736D01*
X266222290Y-43839498D02*
X266460385Y-43934736D01*
X266698481Y-43839498D01*
X266317528Y-44125212D02*
X266460385Y-43934736D01*
X266603243Y-44125212D01*
M02*
