G04 #@! TF.FileFunction,Soldermask,Top*
%FSLAX46Y46*%
G04 Gerber Fmt 4.6, Leading zero omitted, Abs format (unit mm)*
G04 Created by KiCad (PCBNEW 4.0.6) date 11/19/17 22:49:51*
%MOMM*%
%LPD*%
G01*
G04 APERTURE LIST*
%ADD10C,0.100000*%
%ADD11R,1.103200X0.703200*%
%ADD12C,1.500000*%
%ADD13C,2.235200*%
%ADD14R,2.235200X2.235200*%
%ADD15C,2.082800*%
%ADD16R,1.753200X0.803200*%
%ADD17R,0.953200X1.003200*%
%ADD18R,0.853200X1.263200*%
%ADD19R,1.800860X1.602740*%
%ADD20R,1.201420X2.001520*%
%ADD21R,0.551180X1.602740*%
%ADD22R,2.001520X2.103120*%
%ADD23R,2.103120X2.103120*%
%ADD24R,1.003200X0.953200*%
%ADD25C,10.800080*%
%ADD26C,2.000000*%
G04 APERTURE END LIST*
D10*
D11*
X226712551Y-110593689D03*
X226712551Y-109093689D03*
X203344551Y-110593689D03*
X203344551Y-109093689D03*
X179976551Y-110593689D03*
X179976551Y-109093689D03*
X156608551Y-110593689D03*
X156608551Y-109093689D03*
X133240551Y-110593689D03*
X133240551Y-109093689D03*
X109872551Y-110593689D03*
X109872551Y-109093689D03*
X86504551Y-110593689D03*
X86504551Y-109093689D03*
X63136551Y-110593689D03*
X63136551Y-109093689D03*
X226712551Y-54713689D03*
X226712551Y-53213689D03*
X203344551Y-54713689D03*
X203344551Y-53213689D03*
X179976551Y-54713689D03*
X179976551Y-53213689D03*
X156608551Y-54713689D03*
X156608551Y-53213689D03*
X133240551Y-54713689D03*
X133240551Y-53213689D03*
X109872551Y-54713689D03*
X109872551Y-53213689D03*
X86504551Y-54713689D03*
X86504551Y-53213689D03*
D12*
X222521551Y-97016689D03*
X199153551Y-97016689D03*
X175785551Y-97016689D03*
X152417551Y-97016689D03*
X129049551Y-97016689D03*
X105681551Y-97016689D03*
X82313551Y-97016689D03*
X58945551Y-97016689D03*
X222521551Y-41136689D03*
X199153551Y-41136689D03*
X175785551Y-41136689D03*
X152417551Y-41136689D03*
X129049551Y-41136689D03*
X105681551Y-41136689D03*
X82313551Y-41136689D03*
D13*
X226585551Y-100445689D03*
X230083131Y-100445689D03*
D14*
X233583251Y-100445689D03*
D13*
X237083371Y-100445689D03*
X203217551Y-100445689D03*
X206715131Y-100445689D03*
D14*
X210215251Y-100445689D03*
D13*
X213715371Y-100445689D03*
X179849551Y-100445689D03*
X183347131Y-100445689D03*
D14*
X186847251Y-100445689D03*
D13*
X190347371Y-100445689D03*
X156481551Y-100445689D03*
X159979131Y-100445689D03*
D14*
X163479251Y-100445689D03*
D13*
X166979371Y-100445689D03*
X133113551Y-100445689D03*
X136611131Y-100445689D03*
D14*
X140111251Y-100445689D03*
D13*
X143611371Y-100445689D03*
X109745551Y-100445689D03*
X113243131Y-100445689D03*
D14*
X116743251Y-100445689D03*
D13*
X120243371Y-100445689D03*
X86377551Y-100445689D03*
X89875131Y-100445689D03*
D14*
X93375251Y-100445689D03*
D13*
X96875371Y-100445689D03*
X63009551Y-100445689D03*
X66507131Y-100445689D03*
D14*
X70007251Y-100445689D03*
D13*
X73507371Y-100445689D03*
X226585551Y-44565689D03*
X230083131Y-44565689D03*
D14*
X233583251Y-44565689D03*
D13*
X237083371Y-44565689D03*
X203217551Y-44565689D03*
X206715131Y-44565689D03*
D14*
X210215251Y-44565689D03*
D13*
X213715371Y-44565689D03*
X179849551Y-44565689D03*
X183347131Y-44565689D03*
D14*
X186847251Y-44565689D03*
D13*
X190347371Y-44565689D03*
X156481551Y-44565689D03*
X159979131Y-44565689D03*
D14*
X163479251Y-44565689D03*
D13*
X166979371Y-44565689D03*
X133113551Y-44565689D03*
X136611131Y-44565689D03*
D14*
X140111251Y-44565689D03*
D13*
X143611371Y-44565689D03*
X109745551Y-44565689D03*
X113243131Y-44565689D03*
D14*
X116743251Y-44565689D03*
D13*
X120243371Y-44565689D03*
X86377551Y-44565689D03*
X89875131Y-44565689D03*
D14*
X93375251Y-44565689D03*
D13*
X96875371Y-44565689D03*
D15*
X221759551Y-115812689D03*
X221759551Y-113272689D03*
X221759551Y-110732689D03*
X221759551Y-108192689D03*
X221759551Y-105652689D03*
X221759551Y-103112689D03*
X198391551Y-115812689D03*
X198391551Y-113272689D03*
X198391551Y-110732689D03*
X198391551Y-108192689D03*
X198391551Y-105652689D03*
X198391551Y-103112689D03*
X175023551Y-115812689D03*
X175023551Y-113272689D03*
X175023551Y-110732689D03*
X175023551Y-108192689D03*
X175023551Y-105652689D03*
X175023551Y-103112689D03*
X151655551Y-115812689D03*
X151655551Y-113272689D03*
X151655551Y-110732689D03*
X151655551Y-108192689D03*
X151655551Y-105652689D03*
X151655551Y-103112689D03*
X128287551Y-115812689D03*
X128287551Y-113272689D03*
X128287551Y-110732689D03*
X128287551Y-108192689D03*
X128287551Y-105652689D03*
X128287551Y-103112689D03*
X104919551Y-115812689D03*
X104919551Y-113272689D03*
X104919551Y-110732689D03*
X104919551Y-108192689D03*
X104919551Y-105652689D03*
X104919551Y-103112689D03*
X81551551Y-115812689D03*
X81551551Y-113272689D03*
X81551551Y-110732689D03*
X81551551Y-108192689D03*
X81551551Y-105652689D03*
X81551551Y-103112689D03*
X58183551Y-115812689D03*
X58183551Y-113272689D03*
X58183551Y-110732689D03*
X58183551Y-108192689D03*
X58183551Y-105652689D03*
X58183551Y-103112689D03*
X221759551Y-59932689D03*
X221759551Y-57392689D03*
X221759551Y-54852689D03*
X221759551Y-52312689D03*
X221759551Y-49772689D03*
X221759551Y-47232689D03*
X198391551Y-59932689D03*
X198391551Y-57392689D03*
X198391551Y-54852689D03*
X198391551Y-52312689D03*
X198391551Y-49772689D03*
X198391551Y-47232689D03*
X175023551Y-59932689D03*
X175023551Y-57392689D03*
X175023551Y-54852689D03*
X175023551Y-52312689D03*
X175023551Y-49772689D03*
X175023551Y-47232689D03*
X151655551Y-59932689D03*
X151655551Y-57392689D03*
X151655551Y-54852689D03*
X151655551Y-52312689D03*
X151655551Y-49772689D03*
X151655551Y-47232689D03*
X128287551Y-59932689D03*
X128287551Y-57392689D03*
X128287551Y-54852689D03*
X128287551Y-52312689D03*
X128287551Y-49772689D03*
X128287551Y-47232689D03*
X104919551Y-59932689D03*
X104919551Y-57392689D03*
X104919551Y-54852689D03*
X104919551Y-52312689D03*
X104919551Y-49772689D03*
X104919551Y-47232689D03*
X81551551Y-59932689D03*
X81551551Y-57392689D03*
X81551551Y-54852689D03*
X81551551Y-52312689D03*
X81551551Y-49772689D03*
X81551551Y-47232689D03*
D11*
X228998551Y-107037689D03*
X228998551Y-105537689D03*
X205630551Y-107037689D03*
X205630551Y-105537689D03*
X182262551Y-107037689D03*
X182262551Y-105537689D03*
X158894551Y-107037689D03*
X158894551Y-105537689D03*
X135526551Y-107037689D03*
X135526551Y-105537689D03*
X112158551Y-107037689D03*
X112158551Y-105537689D03*
X88790551Y-107037689D03*
X88790551Y-105537689D03*
X65422551Y-107037689D03*
X65422551Y-105537689D03*
X228998551Y-51157689D03*
X228998551Y-49657689D03*
X205630551Y-51157689D03*
X205630551Y-49657689D03*
X182262551Y-51157689D03*
X182262551Y-49657689D03*
X158894551Y-51157689D03*
X158894551Y-49657689D03*
X135526551Y-51157689D03*
X135526551Y-49657689D03*
X112158551Y-51157689D03*
X112158551Y-49657689D03*
X88790551Y-51157689D03*
X88790551Y-49657689D03*
D15*
X242079551Y-103112689D03*
X242079551Y-105652689D03*
X242079551Y-108192689D03*
X242079551Y-110732689D03*
X242079551Y-113272689D03*
X242079551Y-115812689D03*
X218711551Y-103112689D03*
X218711551Y-105652689D03*
X218711551Y-108192689D03*
X218711551Y-110732689D03*
X218711551Y-113272689D03*
X218711551Y-115812689D03*
X195343551Y-103112689D03*
X195343551Y-105652689D03*
X195343551Y-108192689D03*
X195343551Y-110732689D03*
X195343551Y-113272689D03*
X195343551Y-115812689D03*
X171975551Y-103112689D03*
X171975551Y-105652689D03*
X171975551Y-108192689D03*
X171975551Y-110732689D03*
X171975551Y-113272689D03*
X171975551Y-115812689D03*
X148607551Y-103112689D03*
X148607551Y-105652689D03*
X148607551Y-108192689D03*
X148607551Y-110732689D03*
X148607551Y-113272689D03*
X148607551Y-115812689D03*
X125239551Y-103112689D03*
X125239551Y-105652689D03*
X125239551Y-108192689D03*
X125239551Y-110732689D03*
X125239551Y-113272689D03*
X125239551Y-115812689D03*
X101871551Y-103112689D03*
X101871551Y-105652689D03*
X101871551Y-108192689D03*
X101871551Y-110732689D03*
X101871551Y-113272689D03*
X101871551Y-115812689D03*
X78503551Y-103112689D03*
X78503551Y-105652689D03*
X78503551Y-108192689D03*
X78503551Y-110732689D03*
X78503551Y-113272689D03*
X78503551Y-115812689D03*
X242079551Y-47232689D03*
X242079551Y-49772689D03*
X242079551Y-52312689D03*
X242079551Y-54852689D03*
X242079551Y-57392689D03*
X242079551Y-59932689D03*
X218711551Y-47232689D03*
X218711551Y-49772689D03*
X218711551Y-52312689D03*
X218711551Y-54852689D03*
X218711551Y-57392689D03*
X218711551Y-59932689D03*
X195343551Y-47232689D03*
X195343551Y-49772689D03*
X195343551Y-52312689D03*
X195343551Y-54852689D03*
X195343551Y-57392689D03*
X195343551Y-59932689D03*
X171975551Y-47232689D03*
X171975551Y-49772689D03*
X171975551Y-52312689D03*
X171975551Y-54852689D03*
X171975551Y-57392689D03*
X171975551Y-59932689D03*
X148607551Y-47232689D03*
X148607551Y-49772689D03*
X148607551Y-52312689D03*
X148607551Y-54852689D03*
X148607551Y-57392689D03*
X148607551Y-59932689D03*
X125239551Y-47232689D03*
X125239551Y-49772689D03*
X125239551Y-52312689D03*
X125239551Y-54852689D03*
X125239551Y-57392689D03*
X125239551Y-59932689D03*
X101871551Y-47232689D03*
X101871551Y-49772689D03*
X101871551Y-52312689D03*
X101871551Y-54852689D03*
X101871551Y-57392689D03*
X101871551Y-59932689D03*
D16*
X231378551Y-107938689D03*
X231378551Y-109208689D03*
X231378551Y-110478689D03*
X231378551Y-111748689D03*
X236778551Y-111748689D03*
X236778551Y-110478689D03*
X236778551Y-109208689D03*
X236778551Y-107938689D03*
X208010551Y-107938689D03*
X208010551Y-109208689D03*
X208010551Y-110478689D03*
X208010551Y-111748689D03*
X213410551Y-111748689D03*
X213410551Y-110478689D03*
X213410551Y-109208689D03*
X213410551Y-107938689D03*
X184642551Y-107938689D03*
X184642551Y-109208689D03*
X184642551Y-110478689D03*
X184642551Y-111748689D03*
X190042551Y-111748689D03*
X190042551Y-110478689D03*
X190042551Y-109208689D03*
X190042551Y-107938689D03*
X161274551Y-107938689D03*
X161274551Y-109208689D03*
X161274551Y-110478689D03*
X161274551Y-111748689D03*
X166674551Y-111748689D03*
X166674551Y-110478689D03*
X166674551Y-109208689D03*
X166674551Y-107938689D03*
X137906551Y-107938689D03*
X137906551Y-109208689D03*
X137906551Y-110478689D03*
X137906551Y-111748689D03*
X143306551Y-111748689D03*
X143306551Y-110478689D03*
X143306551Y-109208689D03*
X143306551Y-107938689D03*
X114538551Y-107938689D03*
X114538551Y-109208689D03*
X114538551Y-110478689D03*
X114538551Y-111748689D03*
X119938551Y-111748689D03*
X119938551Y-110478689D03*
X119938551Y-109208689D03*
X119938551Y-107938689D03*
X91170551Y-107938689D03*
X91170551Y-109208689D03*
X91170551Y-110478689D03*
X91170551Y-111748689D03*
X96570551Y-111748689D03*
X96570551Y-110478689D03*
X96570551Y-109208689D03*
X96570551Y-107938689D03*
X67802551Y-107938689D03*
X67802551Y-109208689D03*
X67802551Y-110478689D03*
X67802551Y-111748689D03*
X73202551Y-111748689D03*
X73202551Y-110478689D03*
X73202551Y-109208689D03*
X73202551Y-107938689D03*
X231378551Y-52058689D03*
X231378551Y-53328689D03*
X231378551Y-54598689D03*
X231378551Y-55868689D03*
X236778551Y-55868689D03*
X236778551Y-54598689D03*
X236778551Y-53328689D03*
X236778551Y-52058689D03*
X208010551Y-52058689D03*
X208010551Y-53328689D03*
X208010551Y-54598689D03*
X208010551Y-55868689D03*
X213410551Y-55868689D03*
X213410551Y-54598689D03*
X213410551Y-53328689D03*
X213410551Y-52058689D03*
X184642551Y-52058689D03*
X184642551Y-53328689D03*
X184642551Y-54598689D03*
X184642551Y-55868689D03*
X190042551Y-55868689D03*
X190042551Y-54598689D03*
X190042551Y-53328689D03*
X190042551Y-52058689D03*
X161274551Y-52058689D03*
X161274551Y-53328689D03*
X161274551Y-54598689D03*
X161274551Y-55868689D03*
X166674551Y-55868689D03*
X166674551Y-54598689D03*
X166674551Y-53328689D03*
X166674551Y-52058689D03*
X137906551Y-52058689D03*
X137906551Y-53328689D03*
X137906551Y-54598689D03*
X137906551Y-55868689D03*
X143306551Y-55868689D03*
X143306551Y-54598689D03*
X143306551Y-53328689D03*
X143306551Y-52058689D03*
X114538551Y-52058689D03*
X114538551Y-53328689D03*
X114538551Y-54598689D03*
X114538551Y-55868689D03*
X119938551Y-55868689D03*
X119938551Y-54598689D03*
X119938551Y-53328689D03*
X119938551Y-52058689D03*
X91170551Y-52058689D03*
X91170551Y-53328689D03*
X91170551Y-54598689D03*
X91170551Y-55868689D03*
X96570551Y-55868689D03*
X96570551Y-54598689D03*
X96570551Y-53328689D03*
X96570551Y-52058689D03*
D17*
X228871551Y-114010689D03*
X228871551Y-112510689D03*
X205503551Y-114010689D03*
X205503551Y-112510689D03*
X182135551Y-114010689D03*
X182135551Y-112510689D03*
X158767551Y-114010689D03*
X158767551Y-112510689D03*
X135399551Y-114010689D03*
X135399551Y-112510689D03*
X112031551Y-114010689D03*
X112031551Y-112510689D03*
X88663551Y-114010689D03*
X88663551Y-112510689D03*
X65295551Y-114010689D03*
X65295551Y-112510689D03*
X228871551Y-58130689D03*
X228871551Y-56630689D03*
X205503551Y-58130689D03*
X205503551Y-56630689D03*
X182135551Y-58130689D03*
X182135551Y-56630689D03*
X158767551Y-58130689D03*
X158767551Y-56630689D03*
X135399551Y-58130689D03*
X135399551Y-56630689D03*
X112031551Y-58130689D03*
X112031551Y-56630689D03*
X88663551Y-58130689D03*
X88663551Y-56630689D03*
X228871551Y-110593689D03*
X228871551Y-109093689D03*
X205503551Y-110593689D03*
X205503551Y-109093689D03*
X182135551Y-110593689D03*
X182135551Y-109093689D03*
X158767551Y-110593689D03*
X158767551Y-109093689D03*
X135399551Y-110593689D03*
X135399551Y-109093689D03*
X112031551Y-110593689D03*
X112031551Y-109093689D03*
X88663551Y-110593689D03*
X88663551Y-109093689D03*
X65295551Y-110593689D03*
X65295551Y-109093689D03*
X228871551Y-54713689D03*
X228871551Y-53213689D03*
X205503551Y-54713689D03*
X205503551Y-53213689D03*
X182135551Y-54713689D03*
X182135551Y-53213689D03*
X158767551Y-54713689D03*
X158767551Y-53213689D03*
X135399551Y-54713689D03*
X135399551Y-53213689D03*
X112031551Y-54713689D03*
X112031551Y-53213689D03*
X88663551Y-54713689D03*
X88663551Y-53213689D03*
D10*
G36*
X239175139Y-127094097D02*
X240096513Y-128015471D01*
X238609383Y-129502601D01*
X237688009Y-128581227D01*
X239175139Y-127094097D01*
X239175139Y-127094097D01*
G37*
G36*
X236560089Y-129709147D02*
X237481463Y-130630521D01*
X235994333Y-132117651D01*
X235072959Y-131196277D01*
X236560089Y-129709147D01*
X236560089Y-129709147D01*
G37*
G36*
X238183719Y-131332777D02*
X239105093Y-132254151D01*
X237617963Y-133741281D01*
X236696589Y-132819907D01*
X238183719Y-131332777D01*
X238183719Y-131332777D01*
G37*
G36*
X240798769Y-128717727D02*
X241720143Y-129639101D01*
X240233013Y-131126231D01*
X239311639Y-130204857D01*
X240798769Y-128717727D01*
X240798769Y-128717727D01*
G37*
G36*
X215807139Y-127094097D02*
X216728513Y-128015471D01*
X215241383Y-129502601D01*
X214320009Y-128581227D01*
X215807139Y-127094097D01*
X215807139Y-127094097D01*
G37*
G36*
X213192089Y-129709147D02*
X214113463Y-130630521D01*
X212626333Y-132117651D01*
X211704959Y-131196277D01*
X213192089Y-129709147D01*
X213192089Y-129709147D01*
G37*
G36*
X214815719Y-131332777D02*
X215737093Y-132254151D01*
X214249963Y-133741281D01*
X213328589Y-132819907D01*
X214815719Y-131332777D01*
X214815719Y-131332777D01*
G37*
G36*
X217430769Y-128717727D02*
X218352143Y-129639101D01*
X216865013Y-131126231D01*
X215943639Y-130204857D01*
X217430769Y-128717727D01*
X217430769Y-128717727D01*
G37*
G36*
X192439139Y-127094097D02*
X193360513Y-128015471D01*
X191873383Y-129502601D01*
X190952009Y-128581227D01*
X192439139Y-127094097D01*
X192439139Y-127094097D01*
G37*
G36*
X189824089Y-129709147D02*
X190745463Y-130630521D01*
X189258333Y-132117651D01*
X188336959Y-131196277D01*
X189824089Y-129709147D01*
X189824089Y-129709147D01*
G37*
G36*
X191447719Y-131332777D02*
X192369093Y-132254151D01*
X190881963Y-133741281D01*
X189960589Y-132819907D01*
X191447719Y-131332777D01*
X191447719Y-131332777D01*
G37*
G36*
X194062769Y-128717727D02*
X194984143Y-129639101D01*
X193497013Y-131126231D01*
X192575639Y-130204857D01*
X194062769Y-128717727D01*
X194062769Y-128717727D01*
G37*
G36*
X169071139Y-127094097D02*
X169992513Y-128015471D01*
X168505383Y-129502601D01*
X167584009Y-128581227D01*
X169071139Y-127094097D01*
X169071139Y-127094097D01*
G37*
G36*
X166456089Y-129709147D02*
X167377463Y-130630521D01*
X165890333Y-132117651D01*
X164968959Y-131196277D01*
X166456089Y-129709147D01*
X166456089Y-129709147D01*
G37*
G36*
X168079719Y-131332777D02*
X169001093Y-132254151D01*
X167513963Y-133741281D01*
X166592589Y-132819907D01*
X168079719Y-131332777D01*
X168079719Y-131332777D01*
G37*
G36*
X170694769Y-128717727D02*
X171616143Y-129639101D01*
X170129013Y-131126231D01*
X169207639Y-130204857D01*
X170694769Y-128717727D01*
X170694769Y-128717727D01*
G37*
G36*
X145703139Y-127094097D02*
X146624513Y-128015471D01*
X145137383Y-129502601D01*
X144216009Y-128581227D01*
X145703139Y-127094097D01*
X145703139Y-127094097D01*
G37*
G36*
X143088089Y-129709147D02*
X144009463Y-130630521D01*
X142522333Y-132117651D01*
X141600959Y-131196277D01*
X143088089Y-129709147D01*
X143088089Y-129709147D01*
G37*
G36*
X144711719Y-131332777D02*
X145633093Y-132254151D01*
X144145963Y-133741281D01*
X143224589Y-132819907D01*
X144711719Y-131332777D01*
X144711719Y-131332777D01*
G37*
G36*
X147326769Y-128717727D02*
X148248143Y-129639101D01*
X146761013Y-131126231D01*
X145839639Y-130204857D01*
X147326769Y-128717727D01*
X147326769Y-128717727D01*
G37*
G36*
X122335139Y-127094097D02*
X123256513Y-128015471D01*
X121769383Y-129502601D01*
X120848009Y-128581227D01*
X122335139Y-127094097D01*
X122335139Y-127094097D01*
G37*
G36*
X119720089Y-129709147D02*
X120641463Y-130630521D01*
X119154333Y-132117651D01*
X118232959Y-131196277D01*
X119720089Y-129709147D01*
X119720089Y-129709147D01*
G37*
G36*
X121343719Y-131332777D02*
X122265093Y-132254151D01*
X120777963Y-133741281D01*
X119856589Y-132819907D01*
X121343719Y-131332777D01*
X121343719Y-131332777D01*
G37*
G36*
X123958769Y-128717727D02*
X124880143Y-129639101D01*
X123393013Y-131126231D01*
X122471639Y-130204857D01*
X123958769Y-128717727D01*
X123958769Y-128717727D01*
G37*
G36*
X98967139Y-127094097D02*
X99888513Y-128015471D01*
X98401383Y-129502601D01*
X97480009Y-128581227D01*
X98967139Y-127094097D01*
X98967139Y-127094097D01*
G37*
G36*
X96352089Y-129709147D02*
X97273463Y-130630521D01*
X95786333Y-132117651D01*
X94864959Y-131196277D01*
X96352089Y-129709147D01*
X96352089Y-129709147D01*
G37*
G36*
X97975719Y-131332777D02*
X98897093Y-132254151D01*
X97409963Y-133741281D01*
X96488589Y-132819907D01*
X97975719Y-131332777D01*
X97975719Y-131332777D01*
G37*
G36*
X100590769Y-128717727D02*
X101512143Y-129639101D01*
X100025013Y-131126231D01*
X99103639Y-130204857D01*
X100590769Y-128717727D01*
X100590769Y-128717727D01*
G37*
G36*
X75599139Y-127094097D02*
X76520513Y-128015471D01*
X75033383Y-129502601D01*
X74112009Y-128581227D01*
X75599139Y-127094097D01*
X75599139Y-127094097D01*
G37*
G36*
X72984089Y-129709147D02*
X73905463Y-130630521D01*
X72418333Y-132117651D01*
X71496959Y-131196277D01*
X72984089Y-129709147D01*
X72984089Y-129709147D01*
G37*
G36*
X74607719Y-131332777D02*
X75529093Y-132254151D01*
X74041963Y-133741281D01*
X73120589Y-132819907D01*
X74607719Y-131332777D01*
X74607719Y-131332777D01*
G37*
G36*
X77222769Y-128717727D02*
X78144143Y-129639101D01*
X76657013Y-131126231D01*
X75735639Y-130204857D01*
X77222769Y-128717727D01*
X77222769Y-128717727D01*
G37*
G36*
X239175139Y-71214097D02*
X240096513Y-72135471D01*
X238609383Y-73622601D01*
X237688009Y-72701227D01*
X239175139Y-71214097D01*
X239175139Y-71214097D01*
G37*
G36*
X236560089Y-73829147D02*
X237481463Y-74750521D01*
X235994333Y-76237651D01*
X235072959Y-75316277D01*
X236560089Y-73829147D01*
X236560089Y-73829147D01*
G37*
G36*
X238183719Y-75452777D02*
X239105093Y-76374151D01*
X237617963Y-77861281D01*
X236696589Y-76939907D01*
X238183719Y-75452777D01*
X238183719Y-75452777D01*
G37*
G36*
X240798769Y-72837727D02*
X241720143Y-73759101D01*
X240233013Y-75246231D01*
X239311639Y-74324857D01*
X240798769Y-72837727D01*
X240798769Y-72837727D01*
G37*
G36*
X215807139Y-71214097D02*
X216728513Y-72135471D01*
X215241383Y-73622601D01*
X214320009Y-72701227D01*
X215807139Y-71214097D01*
X215807139Y-71214097D01*
G37*
G36*
X213192089Y-73829147D02*
X214113463Y-74750521D01*
X212626333Y-76237651D01*
X211704959Y-75316277D01*
X213192089Y-73829147D01*
X213192089Y-73829147D01*
G37*
G36*
X214815719Y-75452777D02*
X215737093Y-76374151D01*
X214249963Y-77861281D01*
X213328589Y-76939907D01*
X214815719Y-75452777D01*
X214815719Y-75452777D01*
G37*
G36*
X217430769Y-72837727D02*
X218352143Y-73759101D01*
X216865013Y-75246231D01*
X215943639Y-74324857D01*
X217430769Y-72837727D01*
X217430769Y-72837727D01*
G37*
G36*
X192439139Y-71214097D02*
X193360513Y-72135471D01*
X191873383Y-73622601D01*
X190952009Y-72701227D01*
X192439139Y-71214097D01*
X192439139Y-71214097D01*
G37*
G36*
X189824089Y-73829147D02*
X190745463Y-74750521D01*
X189258333Y-76237651D01*
X188336959Y-75316277D01*
X189824089Y-73829147D01*
X189824089Y-73829147D01*
G37*
G36*
X191447719Y-75452777D02*
X192369093Y-76374151D01*
X190881963Y-77861281D01*
X189960589Y-76939907D01*
X191447719Y-75452777D01*
X191447719Y-75452777D01*
G37*
G36*
X194062769Y-72837727D02*
X194984143Y-73759101D01*
X193497013Y-75246231D01*
X192575639Y-74324857D01*
X194062769Y-72837727D01*
X194062769Y-72837727D01*
G37*
G36*
X169071139Y-71214097D02*
X169992513Y-72135471D01*
X168505383Y-73622601D01*
X167584009Y-72701227D01*
X169071139Y-71214097D01*
X169071139Y-71214097D01*
G37*
G36*
X166456089Y-73829147D02*
X167377463Y-74750521D01*
X165890333Y-76237651D01*
X164968959Y-75316277D01*
X166456089Y-73829147D01*
X166456089Y-73829147D01*
G37*
G36*
X168079719Y-75452777D02*
X169001093Y-76374151D01*
X167513963Y-77861281D01*
X166592589Y-76939907D01*
X168079719Y-75452777D01*
X168079719Y-75452777D01*
G37*
G36*
X170694769Y-72837727D02*
X171616143Y-73759101D01*
X170129013Y-75246231D01*
X169207639Y-74324857D01*
X170694769Y-72837727D01*
X170694769Y-72837727D01*
G37*
G36*
X145703139Y-71214097D02*
X146624513Y-72135471D01*
X145137383Y-73622601D01*
X144216009Y-72701227D01*
X145703139Y-71214097D01*
X145703139Y-71214097D01*
G37*
G36*
X143088089Y-73829147D02*
X144009463Y-74750521D01*
X142522333Y-76237651D01*
X141600959Y-75316277D01*
X143088089Y-73829147D01*
X143088089Y-73829147D01*
G37*
G36*
X144711719Y-75452777D02*
X145633093Y-76374151D01*
X144145963Y-77861281D01*
X143224589Y-76939907D01*
X144711719Y-75452777D01*
X144711719Y-75452777D01*
G37*
G36*
X147326769Y-72837727D02*
X148248143Y-73759101D01*
X146761013Y-75246231D01*
X145839639Y-74324857D01*
X147326769Y-72837727D01*
X147326769Y-72837727D01*
G37*
G36*
X122335139Y-71214097D02*
X123256513Y-72135471D01*
X121769383Y-73622601D01*
X120848009Y-72701227D01*
X122335139Y-71214097D01*
X122335139Y-71214097D01*
G37*
G36*
X119720089Y-73829147D02*
X120641463Y-74750521D01*
X119154333Y-76237651D01*
X118232959Y-75316277D01*
X119720089Y-73829147D01*
X119720089Y-73829147D01*
G37*
G36*
X121343719Y-75452777D02*
X122265093Y-76374151D01*
X120777963Y-77861281D01*
X119856589Y-76939907D01*
X121343719Y-75452777D01*
X121343719Y-75452777D01*
G37*
G36*
X123958769Y-72837727D02*
X124880143Y-73759101D01*
X123393013Y-75246231D01*
X122471639Y-74324857D01*
X123958769Y-72837727D01*
X123958769Y-72837727D01*
G37*
G36*
X98967139Y-71214097D02*
X99888513Y-72135471D01*
X98401383Y-73622601D01*
X97480009Y-72701227D01*
X98967139Y-71214097D01*
X98967139Y-71214097D01*
G37*
G36*
X96352089Y-73829147D02*
X97273463Y-74750521D01*
X95786333Y-76237651D01*
X94864959Y-75316277D01*
X96352089Y-73829147D01*
X96352089Y-73829147D01*
G37*
G36*
X97975719Y-75452777D02*
X98897093Y-76374151D01*
X97409963Y-77861281D01*
X96488589Y-76939907D01*
X97975719Y-75452777D01*
X97975719Y-75452777D01*
G37*
G36*
X100590769Y-72837727D02*
X101512143Y-73759101D01*
X100025013Y-75246231D01*
X99103639Y-74324857D01*
X100590769Y-72837727D01*
X100590769Y-72837727D01*
G37*
G36*
X228464562Y-132949780D02*
X229244642Y-132169700D01*
X229741880Y-132666938D01*
X228961800Y-133447018D01*
X228464562Y-132949780D01*
X228464562Y-132949780D01*
G37*
G36*
X229525222Y-134010440D02*
X230305302Y-133230360D01*
X230802540Y-133727598D01*
X230022460Y-134507678D01*
X229525222Y-134010440D01*
X229525222Y-134010440D01*
G37*
G36*
X205096562Y-132949780D02*
X205876642Y-132169700D01*
X206373880Y-132666938D01*
X205593800Y-133447018D01*
X205096562Y-132949780D01*
X205096562Y-132949780D01*
G37*
G36*
X206157222Y-134010440D02*
X206937302Y-133230360D01*
X207434540Y-133727598D01*
X206654460Y-134507678D01*
X206157222Y-134010440D01*
X206157222Y-134010440D01*
G37*
G36*
X181728562Y-132949780D02*
X182508642Y-132169700D01*
X183005880Y-132666938D01*
X182225800Y-133447018D01*
X181728562Y-132949780D01*
X181728562Y-132949780D01*
G37*
G36*
X182789222Y-134010440D02*
X183569302Y-133230360D01*
X184066540Y-133727598D01*
X183286460Y-134507678D01*
X182789222Y-134010440D01*
X182789222Y-134010440D01*
G37*
G36*
X158360562Y-132949780D02*
X159140642Y-132169700D01*
X159637880Y-132666938D01*
X158857800Y-133447018D01*
X158360562Y-132949780D01*
X158360562Y-132949780D01*
G37*
G36*
X159421222Y-134010440D02*
X160201302Y-133230360D01*
X160698540Y-133727598D01*
X159918460Y-134507678D01*
X159421222Y-134010440D01*
X159421222Y-134010440D01*
G37*
G36*
X134992562Y-132949780D02*
X135772642Y-132169700D01*
X136269880Y-132666938D01*
X135489800Y-133447018D01*
X134992562Y-132949780D01*
X134992562Y-132949780D01*
G37*
G36*
X136053222Y-134010440D02*
X136833302Y-133230360D01*
X137330540Y-133727598D01*
X136550460Y-134507678D01*
X136053222Y-134010440D01*
X136053222Y-134010440D01*
G37*
G36*
X111624562Y-132949780D02*
X112404642Y-132169700D01*
X112901880Y-132666938D01*
X112121800Y-133447018D01*
X111624562Y-132949780D01*
X111624562Y-132949780D01*
G37*
G36*
X112685222Y-134010440D02*
X113465302Y-133230360D01*
X113962540Y-133727598D01*
X113182460Y-134507678D01*
X112685222Y-134010440D01*
X112685222Y-134010440D01*
G37*
G36*
X88256562Y-132949780D02*
X89036642Y-132169700D01*
X89533880Y-132666938D01*
X88753800Y-133447018D01*
X88256562Y-132949780D01*
X88256562Y-132949780D01*
G37*
G36*
X89317222Y-134010440D02*
X90097302Y-133230360D01*
X90594540Y-133727598D01*
X89814460Y-134507678D01*
X89317222Y-134010440D01*
X89317222Y-134010440D01*
G37*
G36*
X64888562Y-132949780D02*
X65668642Y-132169700D01*
X66165880Y-132666938D01*
X65385800Y-133447018D01*
X64888562Y-132949780D01*
X64888562Y-132949780D01*
G37*
G36*
X65949222Y-134010440D02*
X66729302Y-133230360D01*
X67226540Y-133727598D01*
X66446460Y-134507678D01*
X65949222Y-134010440D01*
X65949222Y-134010440D01*
G37*
G36*
X228464562Y-77069780D02*
X229244642Y-76289700D01*
X229741880Y-76786938D01*
X228961800Y-77567018D01*
X228464562Y-77069780D01*
X228464562Y-77069780D01*
G37*
G36*
X229525222Y-78130440D02*
X230305302Y-77350360D01*
X230802540Y-77847598D01*
X230022460Y-78627678D01*
X229525222Y-78130440D01*
X229525222Y-78130440D01*
G37*
G36*
X205096562Y-77069780D02*
X205876642Y-76289700D01*
X206373880Y-76786938D01*
X205593800Y-77567018D01*
X205096562Y-77069780D01*
X205096562Y-77069780D01*
G37*
G36*
X206157222Y-78130440D02*
X206937302Y-77350360D01*
X207434540Y-77847598D01*
X206654460Y-78627678D01*
X206157222Y-78130440D01*
X206157222Y-78130440D01*
G37*
G36*
X181728562Y-77069780D02*
X182508642Y-76289700D01*
X183005880Y-76786938D01*
X182225800Y-77567018D01*
X181728562Y-77069780D01*
X181728562Y-77069780D01*
G37*
G36*
X182789222Y-78130440D02*
X183569302Y-77350360D01*
X184066540Y-77847598D01*
X183286460Y-78627678D01*
X182789222Y-78130440D01*
X182789222Y-78130440D01*
G37*
G36*
X158360562Y-77069780D02*
X159140642Y-76289700D01*
X159637880Y-76786938D01*
X158857800Y-77567018D01*
X158360562Y-77069780D01*
X158360562Y-77069780D01*
G37*
G36*
X159421222Y-78130440D02*
X160201302Y-77350360D01*
X160698540Y-77847598D01*
X159918460Y-78627678D01*
X159421222Y-78130440D01*
X159421222Y-78130440D01*
G37*
G36*
X134992562Y-77069780D02*
X135772642Y-76289700D01*
X136269880Y-76786938D01*
X135489800Y-77567018D01*
X134992562Y-77069780D01*
X134992562Y-77069780D01*
G37*
G36*
X136053222Y-78130440D02*
X136833302Y-77350360D01*
X137330540Y-77847598D01*
X136550460Y-78627678D01*
X136053222Y-78130440D01*
X136053222Y-78130440D01*
G37*
G36*
X111624562Y-77069780D02*
X112404642Y-76289700D01*
X112901880Y-76786938D01*
X112121800Y-77567018D01*
X111624562Y-77069780D01*
X111624562Y-77069780D01*
G37*
G36*
X112685222Y-78130440D02*
X113465302Y-77350360D01*
X113962540Y-77847598D01*
X113182460Y-78627678D01*
X112685222Y-78130440D01*
X112685222Y-78130440D01*
G37*
G36*
X88256562Y-77069780D02*
X89036642Y-76289700D01*
X89533880Y-76786938D01*
X88753800Y-77567018D01*
X88256562Y-77069780D01*
X88256562Y-77069780D01*
G37*
G36*
X89317222Y-78130440D02*
X90097302Y-77350360D01*
X90594540Y-77847598D01*
X89814460Y-78627678D01*
X89317222Y-78130440D01*
X89317222Y-78130440D01*
G37*
G36*
X235382913Y-133080037D02*
X234708899Y-133754051D01*
X233999529Y-133044681D01*
X234673543Y-132370667D01*
X235382913Y-133080037D01*
X235382913Y-133080037D01*
G37*
G36*
X236443573Y-134140697D02*
X235769559Y-134814711D01*
X235060189Y-134105341D01*
X235734203Y-133431327D01*
X236443573Y-134140697D01*
X236443573Y-134140697D01*
G37*
G36*
X212014913Y-133080037D02*
X211340899Y-133754051D01*
X210631529Y-133044681D01*
X211305543Y-132370667D01*
X212014913Y-133080037D01*
X212014913Y-133080037D01*
G37*
G36*
X213075573Y-134140697D02*
X212401559Y-134814711D01*
X211692189Y-134105341D01*
X212366203Y-133431327D01*
X213075573Y-134140697D01*
X213075573Y-134140697D01*
G37*
G36*
X188646913Y-133080037D02*
X187972899Y-133754051D01*
X187263529Y-133044681D01*
X187937543Y-132370667D01*
X188646913Y-133080037D01*
X188646913Y-133080037D01*
G37*
G36*
X189707573Y-134140697D02*
X189033559Y-134814711D01*
X188324189Y-134105341D01*
X188998203Y-133431327D01*
X189707573Y-134140697D01*
X189707573Y-134140697D01*
G37*
G36*
X165278913Y-133080037D02*
X164604899Y-133754051D01*
X163895529Y-133044681D01*
X164569543Y-132370667D01*
X165278913Y-133080037D01*
X165278913Y-133080037D01*
G37*
G36*
X166339573Y-134140697D02*
X165665559Y-134814711D01*
X164956189Y-134105341D01*
X165630203Y-133431327D01*
X166339573Y-134140697D01*
X166339573Y-134140697D01*
G37*
G36*
X141910913Y-133080037D02*
X141236899Y-133754051D01*
X140527529Y-133044681D01*
X141201543Y-132370667D01*
X141910913Y-133080037D01*
X141910913Y-133080037D01*
G37*
G36*
X142971573Y-134140697D02*
X142297559Y-134814711D01*
X141588189Y-134105341D01*
X142262203Y-133431327D01*
X142971573Y-134140697D01*
X142971573Y-134140697D01*
G37*
G36*
X118542913Y-133080037D02*
X117868899Y-133754051D01*
X117159529Y-133044681D01*
X117833543Y-132370667D01*
X118542913Y-133080037D01*
X118542913Y-133080037D01*
G37*
G36*
X119603573Y-134140697D02*
X118929559Y-134814711D01*
X118220189Y-134105341D01*
X118894203Y-133431327D01*
X119603573Y-134140697D01*
X119603573Y-134140697D01*
G37*
G36*
X95174913Y-133080037D02*
X94500899Y-133754051D01*
X93791529Y-133044681D01*
X94465543Y-132370667D01*
X95174913Y-133080037D01*
X95174913Y-133080037D01*
G37*
G36*
X96235573Y-134140697D02*
X95561559Y-134814711D01*
X94852189Y-134105341D01*
X95526203Y-133431327D01*
X96235573Y-134140697D01*
X96235573Y-134140697D01*
G37*
G36*
X71806913Y-133080037D02*
X71132899Y-133754051D01*
X70423529Y-133044681D01*
X71097543Y-132370667D01*
X71806913Y-133080037D01*
X71806913Y-133080037D01*
G37*
G36*
X72867573Y-134140697D02*
X72193559Y-134814711D01*
X71484189Y-134105341D01*
X72158203Y-133431327D01*
X72867573Y-134140697D01*
X72867573Y-134140697D01*
G37*
G36*
X235382913Y-77200037D02*
X234708899Y-77874051D01*
X233999529Y-77164681D01*
X234673543Y-76490667D01*
X235382913Y-77200037D01*
X235382913Y-77200037D01*
G37*
G36*
X236443573Y-78260697D02*
X235769559Y-78934711D01*
X235060189Y-78225341D01*
X235734203Y-77551327D01*
X236443573Y-78260697D01*
X236443573Y-78260697D01*
G37*
G36*
X212014913Y-77200037D02*
X211340899Y-77874051D01*
X210631529Y-77164681D01*
X211305543Y-76490667D01*
X212014913Y-77200037D01*
X212014913Y-77200037D01*
G37*
G36*
X213075573Y-78260697D02*
X212401559Y-78934711D01*
X211692189Y-78225341D01*
X212366203Y-77551327D01*
X213075573Y-78260697D01*
X213075573Y-78260697D01*
G37*
G36*
X188646913Y-77200037D02*
X187972899Y-77874051D01*
X187263529Y-77164681D01*
X187937543Y-76490667D01*
X188646913Y-77200037D01*
X188646913Y-77200037D01*
G37*
G36*
X189707573Y-78260697D02*
X189033559Y-78934711D01*
X188324189Y-78225341D01*
X188998203Y-77551327D01*
X189707573Y-78260697D01*
X189707573Y-78260697D01*
G37*
G36*
X165278913Y-77200037D02*
X164604899Y-77874051D01*
X163895529Y-77164681D01*
X164569543Y-76490667D01*
X165278913Y-77200037D01*
X165278913Y-77200037D01*
G37*
G36*
X166339573Y-78260697D02*
X165665559Y-78934711D01*
X164956189Y-78225341D01*
X165630203Y-77551327D01*
X166339573Y-78260697D01*
X166339573Y-78260697D01*
G37*
G36*
X141910913Y-77200037D02*
X141236899Y-77874051D01*
X140527529Y-77164681D01*
X141201543Y-76490667D01*
X141910913Y-77200037D01*
X141910913Y-77200037D01*
G37*
G36*
X142971573Y-78260697D02*
X142297559Y-78934711D01*
X141588189Y-78225341D01*
X142262203Y-77551327D01*
X142971573Y-78260697D01*
X142971573Y-78260697D01*
G37*
G36*
X118542913Y-77200037D02*
X117868899Y-77874051D01*
X117159529Y-77164681D01*
X117833543Y-76490667D01*
X118542913Y-77200037D01*
X118542913Y-77200037D01*
G37*
G36*
X119603573Y-78260697D02*
X118929559Y-78934711D01*
X118220189Y-78225341D01*
X118894203Y-77551327D01*
X119603573Y-78260697D01*
X119603573Y-78260697D01*
G37*
G36*
X95174913Y-77200037D02*
X94500899Y-77874051D01*
X93791529Y-77164681D01*
X94465543Y-76490667D01*
X95174913Y-77200037D01*
X95174913Y-77200037D01*
G37*
G36*
X96235573Y-78260697D02*
X95561559Y-78934711D01*
X94852189Y-78225341D01*
X95526203Y-77551327D01*
X96235573Y-78260697D01*
X96235573Y-78260697D01*
G37*
G36*
X241283189Y-127628341D02*
X241957203Y-126954327D01*
X242666573Y-127663697D01*
X241992559Y-128337711D01*
X241283189Y-127628341D01*
X241283189Y-127628341D01*
G37*
G36*
X240222529Y-126567681D02*
X240896543Y-125893667D01*
X241605913Y-126603037D01*
X240931899Y-127277051D01*
X240222529Y-126567681D01*
X240222529Y-126567681D01*
G37*
G36*
X217915189Y-127628341D02*
X218589203Y-126954327D01*
X219298573Y-127663697D01*
X218624559Y-128337711D01*
X217915189Y-127628341D01*
X217915189Y-127628341D01*
G37*
G36*
X216854529Y-126567681D02*
X217528543Y-125893667D01*
X218237913Y-126603037D01*
X217563899Y-127277051D01*
X216854529Y-126567681D01*
X216854529Y-126567681D01*
G37*
G36*
X194547189Y-127628341D02*
X195221203Y-126954327D01*
X195930573Y-127663697D01*
X195256559Y-128337711D01*
X194547189Y-127628341D01*
X194547189Y-127628341D01*
G37*
G36*
X193486529Y-126567681D02*
X194160543Y-125893667D01*
X194869913Y-126603037D01*
X194195899Y-127277051D01*
X193486529Y-126567681D01*
X193486529Y-126567681D01*
G37*
G36*
X171179189Y-127628341D02*
X171853203Y-126954327D01*
X172562573Y-127663697D01*
X171888559Y-128337711D01*
X171179189Y-127628341D01*
X171179189Y-127628341D01*
G37*
G36*
X170118529Y-126567681D02*
X170792543Y-125893667D01*
X171501913Y-126603037D01*
X170827899Y-127277051D01*
X170118529Y-126567681D01*
X170118529Y-126567681D01*
G37*
G36*
X147811189Y-127628341D02*
X148485203Y-126954327D01*
X149194573Y-127663697D01*
X148520559Y-128337711D01*
X147811189Y-127628341D01*
X147811189Y-127628341D01*
G37*
G36*
X146750529Y-126567681D02*
X147424543Y-125893667D01*
X148133913Y-126603037D01*
X147459899Y-127277051D01*
X146750529Y-126567681D01*
X146750529Y-126567681D01*
G37*
G36*
X124443189Y-127628341D02*
X125117203Y-126954327D01*
X125826573Y-127663697D01*
X125152559Y-128337711D01*
X124443189Y-127628341D01*
X124443189Y-127628341D01*
G37*
G36*
X123382529Y-126567681D02*
X124056543Y-125893667D01*
X124765913Y-126603037D01*
X124091899Y-127277051D01*
X123382529Y-126567681D01*
X123382529Y-126567681D01*
G37*
G36*
X101075189Y-127628341D02*
X101749203Y-126954327D01*
X102458573Y-127663697D01*
X101784559Y-128337711D01*
X101075189Y-127628341D01*
X101075189Y-127628341D01*
G37*
G36*
X100014529Y-126567681D02*
X100688543Y-125893667D01*
X101397913Y-126603037D01*
X100723899Y-127277051D01*
X100014529Y-126567681D01*
X100014529Y-126567681D01*
G37*
G36*
X77707189Y-127628341D02*
X78381203Y-126954327D01*
X79090573Y-127663697D01*
X78416559Y-128337711D01*
X77707189Y-127628341D01*
X77707189Y-127628341D01*
G37*
G36*
X76646529Y-126567681D02*
X77320543Y-125893667D01*
X78029913Y-126603037D01*
X77355899Y-127277051D01*
X76646529Y-126567681D01*
X76646529Y-126567681D01*
G37*
G36*
X241283189Y-71748341D02*
X241957203Y-71074327D01*
X242666573Y-71783697D01*
X241992559Y-72457711D01*
X241283189Y-71748341D01*
X241283189Y-71748341D01*
G37*
G36*
X240222529Y-70687681D02*
X240896543Y-70013667D01*
X241605913Y-70723037D01*
X240931899Y-71397051D01*
X240222529Y-70687681D01*
X240222529Y-70687681D01*
G37*
G36*
X217915189Y-71748341D02*
X218589203Y-71074327D01*
X219298573Y-71783697D01*
X218624559Y-72457711D01*
X217915189Y-71748341D01*
X217915189Y-71748341D01*
G37*
G36*
X216854529Y-70687681D02*
X217528543Y-70013667D01*
X218237913Y-70723037D01*
X217563899Y-71397051D01*
X216854529Y-70687681D01*
X216854529Y-70687681D01*
G37*
G36*
X194547189Y-71748341D02*
X195221203Y-71074327D01*
X195930573Y-71783697D01*
X195256559Y-72457711D01*
X194547189Y-71748341D01*
X194547189Y-71748341D01*
G37*
G36*
X193486529Y-70687681D02*
X194160543Y-70013667D01*
X194869913Y-70723037D01*
X194195899Y-71397051D01*
X193486529Y-70687681D01*
X193486529Y-70687681D01*
G37*
G36*
X171179189Y-71748341D02*
X171853203Y-71074327D01*
X172562573Y-71783697D01*
X171888559Y-72457711D01*
X171179189Y-71748341D01*
X171179189Y-71748341D01*
G37*
G36*
X170118529Y-70687681D02*
X170792543Y-70013667D01*
X171501913Y-70723037D01*
X170827899Y-71397051D01*
X170118529Y-70687681D01*
X170118529Y-70687681D01*
G37*
G36*
X147811189Y-71748341D02*
X148485203Y-71074327D01*
X149194573Y-71783697D01*
X148520559Y-72457711D01*
X147811189Y-71748341D01*
X147811189Y-71748341D01*
G37*
G36*
X146750529Y-70687681D02*
X147424543Y-70013667D01*
X148133913Y-70723037D01*
X147459899Y-71397051D01*
X146750529Y-70687681D01*
X146750529Y-70687681D01*
G37*
G36*
X124443189Y-71748341D02*
X125117203Y-71074327D01*
X125826573Y-71783697D01*
X125152559Y-72457711D01*
X124443189Y-71748341D01*
X124443189Y-71748341D01*
G37*
G36*
X123382529Y-70687681D02*
X124056543Y-70013667D01*
X124765913Y-70723037D01*
X124091899Y-71397051D01*
X123382529Y-70687681D01*
X123382529Y-70687681D01*
G37*
G36*
X101075189Y-71748341D02*
X101749203Y-71074327D01*
X102458573Y-71783697D01*
X101784559Y-72457711D01*
X101075189Y-71748341D01*
X101075189Y-71748341D01*
G37*
G36*
X100014529Y-70687681D02*
X100688543Y-70013667D01*
X101397913Y-70723037D01*
X100723899Y-71397051D01*
X100014529Y-70687681D01*
X100014529Y-70687681D01*
G37*
G36*
X223405899Y-119334327D02*
X224079913Y-120008341D01*
X223370543Y-120717711D01*
X222696529Y-120043697D01*
X223405899Y-119334327D01*
X223405899Y-119334327D01*
G37*
G36*
X224466559Y-118273667D02*
X225140573Y-118947681D01*
X224431203Y-119657051D01*
X223757189Y-118983037D01*
X224466559Y-118273667D01*
X224466559Y-118273667D01*
G37*
G36*
X200037899Y-119334327D02*
X200711913Y-120008341D01*
X200002543Y-120717711D01*
X199328529Y-120043697D01*
X200037899Y-119334327D01*
X200037899Y-119334327D01*
G37*
G36*
X201098559Y-118273667D02*
X201772573Y-118947681D01*
X201063203Y-119657051D01*
X200389189Y-118983037D01*
X201098559Y-118273667D01*
X201098559Y-118273667D01*
G37*
G36*
X176669899Y-119334327D02*
X177343913Y-120008341D01*
X176634543Y-120717711D01*
X175960529Y-120043697D01*
X176669899Y-119334327D01*
X176669899Y-119334327D01*
G37*
G36*
X177730559Y-118273667D02*
X178404573Y-118947681D01*
X177695203Y-119657051D01*
X177021189Y-118983037D01*
X177730559Y-118273667D01*
X177730559Y-118273667D01*
G37*
G36*
X153301899Y-119334327D02*
X153975913Y-120008341D01*
X153266543Y-120717711D01*
X152592529Y-120043697D01*
X153301899Y-119334327D01*
X153301899Y-119334327D01*
G37*
G36*
X154362559Y-118273667D02*
X155036573Y-118947681D01*
X154327203Y-119657051D01*
X153653189Y-118983037D01*
X154362559Y-118273667D01*
X154362559Y-118273667D01*
G37*
G36*
X129933899Y-119334327D02*
X130607913Y-120008341D01*
X129898543Y-120717711D01*
X129224529Y-120043697D01*
X129933899Y-119334327D01*
X129933899Y-119334327D01*
G37*
G36*
X130994559Y-118273667D02*
X131668573Y-118947681D01*
X130959203Y-119657051D01*
X130285189Y-118983037D01*
X130994559Y-118273667D01*
X130994559Y-118273667D01*
G37*
G36*
X106565899Y-119334327D02*
X107239913Y-120008341D01*
X106530543Y-120717711D01*
X105856529Y-120043697D01*
X106565899Y-119334327D01*
X106565899Y-119334327D01*
G37*
G36*
X107626559Y-118273667D02*
X108300573Y-118947681D01*
X107591203Y-119657051D01*
X106917189Y-118983037D01*
X107626559Y-118273667D01*
X107626559Y-118273667D01*
G37*
G36*
X83197899Y-119334327D02*
X83871913Y-120008341D01*
X83162543Y-120717711D01*
X82488529Y-120043697D01*
X83197899Y-119334327D01*
X83197899Y-119334327D01*
G37*
G36*
X84258559Y-118273667D02*
X84932573Y-118947681D01*
X84223203Y-119657051D01*
X83549189Y-118983037D01*
X84258559Y-118273667D01*
X84258559Y-118273667D01*
G37*
G36*
X59829899Y-119334327D02*
X60503913Y-120008341D01*
X59794543Y-120717711D01*
X59120529Y-120043697D01*
X59829899Y-119334327D01*
X59829899Y-119334327D01*
G37*
G36*
X60890559Y-118273667D02*
X61564573Y-118947681D01*
X60855203Y-119657051D01*
X60181189Y-118983037D01*
X60890559Y-118273667D01*
X60890559Y-118273667D01*
G37*
G36*
X223405899Y-63454327D02*
X224079913Y-64128341D01*
X223370543Y-64837711D01*
X222696529Y-64163697D01*
X223405899Y-63454327D01*
X223405899Y-63454327D01*
G37*
G36*
X224466559Y-62393667D02*
X225140573Y-63067681D01*
X224431203Y-63777051D01*
X223757189Y-63103037D01*
X224466559Y-62393667D01*
X224466559Y-62393667D01*
G37*
G36*
X200037899Y-63454327D02*
X200711913Y-64128341D01*
X200002543Y-64837711D01*
X199328529Y-64163697D01*
X200037899Y-63454327D01*
X200037899Y-63454327D01*
G37*
G36*
X201098559Y-62393667D02*
X201772573Y-63067681D01*
X201063203Y-63777051D01*
X200389189Y-63103037D01*
X201098559Y-62393667D01*
X201098559Y-62393667D01*
G37*
G36*
X176669899Y-63454327D02*
X177343913Y-64128341D01*
X176634543Y-64837711D01*
X175960529Y-64163697D01*
X176669899Y-63454327D01*
X176669899Y-63454327D01*
G37*
G36*
X177730559Y-62393667D02*
X178404573Y-63067681D01*
X177695203Y-63777051D01*
X177021189Y-63103037D01*
X177730559Y-62393667D01*
X177730559Y-62393667D01*
G37*
G36*
X153301899Y-63454327D02*
X153975913Y-64128341D01*
X153266543Y-64837711D01*
X152592529Y-64163697D01*
X153301899Y-63454327D01*
X153301899Y-63454327D01*
G37*
G36*
X154362559Y-62393667D02*
X155036573Y-63067681D01*
X154327203Y-63777051D01*
X153653189Y-63103037D01*
X154362559Y-62393667D01*
X154362559Y-62393667D01*
G37*
G36*
X129933899Y-63454327D02*
X130607913Y-64128341D01*
X129898543Y-64837711D01*
X129224529Y-64163697D01*
X129933899Y-63454327D01*
X129933899Y-63454327D01*
G37*
G36*
X130994559Y-62393667D02*
X131668573Y-63067681D01*
X130959203Y-63777051D01*
X130285189Y-63103037D01*
X130994559Y-62393667D01*
X130994559Y-62393667D01*
G37*
G36*
X106565899Y-63454327D02*
X107239913Y-64128341D01*
X106530543Y-64837711D01*
X105856529Y-64163697D01*
X106565899Y-63454327D01*
X106565899Y-63454327D01*
G37*
G36*
X107626559Y-62393667D02*
X108300573Y-63067681D01*
X107591203Y-63777051D01*
X106917189Y-63103037D01*
X107626559Y-62393667D01*
X107626559Y-62393667D01*
G37*
G36*
X83197899Y-63454327D02*
X83871913Y-64128341D01*
X83162543Y-64837711D01*
X82488529Y-64163697D01*
X83197899Y-63454327D01*
X83197899Y-63454327D01*
G37*
G36*
X84258559Y-62393667D02*
X84932573Y-63067681D01*
X84223203Y-63777051D01*
X83549189Y-63103037D01*
X84258559Y-62393667D01*
X84258559Y-62393667D01*
G37*
G36*
X222890519Y-127269671D02*
X223564533Y-126595657D01*
X224273903Y-127305027D01*
X223599889Y-127979041D01*
X222890519Y-127269671D01*
X222890519Y-127269671D01*
G37*
G36*
X221829859Y-126209011D02*
X222503873Y-125534997D01*
X223213243Y-126244367D01*
X222539229Y-126918381D01*
X221829859Y-126209011D01*
X221829859Y-126209011D01*
G37*
G36*
X199522519Y-127269671D02*
X200196533Y-126595657D01*
X200905903Y-127305027D01*
X200231889Y-127979041D01*
X199522519Y-127269671D01*
X199522519Y-127269671D01*
G37*
G36*
X198461859Y-126209011D02*
X199135873Y-125534997D01*
X199845243Y-126244367D01*
X199171229Y-126918381D01*
X198461859Y-126209011D01*
X198461859Y-126209011D01*
G37*
G36*
X176154519Y-127269671D02*
X176828533Y-126595657D01*
X177537903Y-127305027D01*
X176863889Y-127979041D01*
X176154519Y-127269671D01*
X176154519Y-127269671D01*
G37*
G36*
X175093859Y-126209011D02*
X175767873Y-125534997D01*
X176477243Y-126244367D01*
X175803229Y-126918381D01*
X175093859Y-126209011D01*
X175093859Y-126209011D01*
G37*
G36*
X152786519Y-127269671D02*
X153460533Y-126595657D01*
X154169903Y-127305027D01*
X153495889Y-127979041D01*
X152786519Y-127269671D01*
X152786519Y-127269671D01*
G37*
G36*
X151725859Y-126209011D02*
X152399873Y-125534997D01*
X153109243Y-126244367D01*
X152435229Y-126918381D01*
X151725859Y-126209011D01*
X151725859Y-126209011D01*
G37*
G36*
X129418519Y-127269671D02*
X130092533Y-126595657D01*
X130801903Y-127305027D01*
X130127889Y-127979041D01*
X129418519Y-127269671D01*
X129418519Y-127269671D01*
G37*
G36*
X128357859Y-126209011D02*
X129031873Y-125534997D01*
X129741243Y-126244367D01*
X129067229Y-126918381D01*
X128357859Y-126209011D01*
X128357859Y-126209011D01*
G37*
G36*
X106050519Y-127269671D02*
X106724533Y-126595657D01*
X107433903Y-127305027D01*
X106759889Y-127979041D01*
X106050519Y-127269671D01*
X106050519Y-127269671D01*
G37*
G36*
X104989859Y-126209011D02*
X105663873Y-125534997D01*
X106373243Y-126244367D01*
X105699229Y-126918381D01*
X104989859Y-126209011D01*
X104989859Y-126209011D01*
G37*
G36*
X82682519Y-127269671D02*
X83356533Y-126595657D01*
X84065903Y-127305027D01*
X83391889Y-127979041D01*
X82682519Y-127269671D01*
X82682519Y-127269671D01*
G37*
G36*
X81621859Y-126209011D02*
X82295873Y-125534997D01*
X83005243Y-126244367D01*
X82331229Y-126918381D01*
X81621859Y-126209011D01*
X81621859Y-126209011D01*
G37*
G36*
X59314519Y-127269671D02*
X59988533Y-126595657D01*
X60697903Y-127305027D01*
X60023889Y-127979041D01*
X59314519Y-127269671D01*
X59314519Y-127269671D01*
G37*
G36*
X58253859Y-126209011D02*
X58927873Y-125534997D01*
X59637243Y-126244367D01*
X58963229Y-126918381D01*
X58253859Y-126209011D01*
X58253859Y-126209011D01*
G37*
G36*
X222890519Y-71389671D02*
X223564533Y-70715657D01*
X224273903Y-71425027D01*
X223599889Y-72099041D01*
X222890519Y-71389671D01*
X222890519Y-71389671D01*
G37*
G36*
X221829859Y-70329011D02*
X222503873Y-69654997D01*
X223213243Y-70364367D01*
X222539229Y-71038381D01*
X221829859Y-70329011D01*
X221829859Y-70329011D01*
G37*
G36*
X199522519Y-71389671D02*
X200196533Y-70715657D01*
X200905903Y-71425027D01*
X200231889Y-72099041D01*
X199522519Y-71389671D01*
X199522519Y-71389671D01*
G37*
G36*
X198461859Y-70329011D02*
X199135873Y-69654997D01*
X199845243Y-70364367D01*
X199171229Y-71038381D01*
X198461859Y-70329011D01*
X198461859Y-70329011D01*
G37*
G36*
X176154519Y-71389671D02*
X176828533Y-70715657D01*
X177537903Y-71425027D01*
X176863889Y-72099041D01*
X176154519Y-71389671D01*
X176154519Y-71389671D01*
G37*
G36*
X175093859Y-70329011D02*
X175767873Y-69654997D01*
X176477243Y-70364367D01*
X175803229Y-71038381D01*
X175093859Y-70329011D01*
X175093859Y-70329011D01*
G37*
G36*
X152786519Y-71389671D02*
X153460533Y-70715657D01*
X154169903Y-71425027D01*
X153495889Y-72099041D01*
X152786519Y-71389671D01*
X152786519Y-71389671D01*
G37*
G36*
X151725859Y-70329011D02*
X152399873Y-69654997D01*
X153109243Y-70364367D01*
X152435229Y-71038381D01*
X151725859Y-70329011D01*
X151725859Y-70329011D01*
G37*
G36*
X129418519Y-71389671D02*
X130092533Y-70715657D01*
X130801903Y-71425027D01*
X130127889Y-72099041D01*
X129418519Y-71389671D01*
X129418519Y-71389671D01*
G37*
G36*
X128357859Y-70329011D02*
X129031873Y-69654997D01*
X129741243Y-70364367D01*
X129067229Y-71038381D01*
X128357859Y-70329011D01*
X128357859Y-70329011D01*
G37*
G36*
X106050519Y-71389671D02*
X106724533Y-70715657D01*
X107433903Y-71425027D01*
X106759889Y-72099041D01*
X106050519Y-71389671D01*
X106050519Y-71389671D01*
G37*
G36*
X104989859Y-70329011D02*
X105663873Y-69654997D01*
X106373243Y-70364367D01*
X105699229Y-71038381D01*
X104989859Y-70329011D01*
X104989859Y-70329011D01*
G37*
G36*
X82682519Y-71389671D02*
X83356533Y-70715657D01*
X84065903Y-71425027D01*
X83391889Y-72099041D01*
X82682519Y-71389671D01*
X82682519Y-71389671D01*
G37*
G36*
X81621859Y-70329011D02*
X82295873Y-69654997D01*
X83005243Y-70364367D01*
X82331229Y-71038381D01*
X81621859Y-70329011D01*
X81621859Y-70329011D01*
G37*
G36*
X224638359Y-125555621D02*
X224142649Y-125059911D01*
X225346003Y-123856557D01*
X225841713Y-124352267D01*
X224638359Y-125555621D01*
X224638359Y-125555621D01*
G37*
G36*
X225204116Y-126121377D02*
X224708406Y-125625667D01*
X225911760Y-124422313D01*
X226407470Y-124918023D01*
X225204116Y-126121377D01*
X225204116Y-126121377D01*
G37*
G36*
X225769872Y-126687134D02*
X225274162Y-126191424D01*
X226477516Y-124988070D01*
X226973226Y-125483780D01*
X225769872Y-126687134D01*
X225769872Y-126687134D01*
G37*
G36*
X226335628Y-127252890D02*
X225839918Y-126757180D01*
X227043272Y-125553826D01*
X227538982Y-126049536D01*
X226335628Y-127252890D01*
X226335628Y-127252890D01*
G37*
G36*
X226901384Y-127818646D02*
X226405674Y-127322936D01*
X227609028Y-126119582D01*
X228104738Y-126615292D01*
X226901384Y-127818646D01*
X226901384Y-127818646D01*
G37*
G36*
X227465344Y-128382606D02*
X226969634Y-127886896D01*
X228172988Y-126683542D01*
X228668698Y-127179252D01*
X227465344Y-128382606D01*
X227465344Y-128382606D01*
G37*
G36*
X228029304Y-128946566D02*
X227533594Y-128450856D01*
X228736948Y-127247502D01*
X229232658Y-127743212D01*
X228029304Y-128946566D01*
X228029304Y-128946566D01*
G37*
G36*
X228595060Y-129512322D02*
X228099350Y-129016612D01*
X229302704Y-127813258D01*
X229798414Y-128308968D01*
X228595060Y-129512322D01*
X228595060Y-129512322D01*
G37*
G36*
X229160816Y-130078078D02*
X228665106Y-129582368D01*
X229868460Y-128379014D01*
X230364170Y-128874724D01*
X229160816Y-130078078D01*
X229160816Y-130078078D01*
G37*
G36*
X229726573Y-130643834D02*
X229230863Y-130148124D01*
X230434217Y-128944770D01*
X230929927Y-129440480D01*
X229726573Y-130643834D01*
X229726573Y-130643834D01*
G37*
G36*
X230292329Y-131209591D02*
X229796619Y-130713881D01*
X230999973Y-129510527D01*
X231495683Y-130006237D01*
X230292329Y-131209591D01*
X230292329Y-131209591D01*
G37*
G36*
X233546773Y-131209591D02*
X232343419Y-130006237D01*
X232839129Y-129510527D01*
X234042483Y-130713881D01*
X233546773Y-131209591D01*
X233546773Y-131209591D01*
G37*
G36*
X234112529Y-130643834D02*
X232909175Y-129440480D01*
X233404885Y-128944770D01*
X234608239Y-130148124D01*
X234112529Y-130643834D01*
X234112529Y-130643834D01*
G37*
G36*
X234678286Y-130078078D02*
X233474932Y-128874724D01*
X233970642Y-128379014D01*
X235173996Y-129582368D01*
X234678286Y-130078078D01*
X234678286Y-130078078D01*
G37*
G36*
X235244042Y-129512322D02*
X234040688Y-128308968D01*
X234536398Y-127813258D01*
X235739752Y-129016612D01*
X235244042Y-129512322D01*
X235244042Y-129512322D01*
G37*
G36*
X235809798Y-128946566D02*
X234606444Y-127743212D01*
X235102154Y-127247502D01*
X236305508Y-128450856D01*
X235809798Y-128946566D01*
X235809798Y-128946566D01*
G37*
G36*
X236373758Y-128382606D02*
X235170404Y-127179252D01*
X235666114Y-126683542D01*
X236869468Y-127886896D01*
X236373758Y-128382606D01*
X236373758Y-128382606D01*
G37*
G36*
X236937718Y-127818646D02*
X235734364Y-126615292D01*
X236230074Y-126119582D01*
X237433428Y-127322936D01*
X236937718Y-127818646D01*
X236937718Y-127818646D01*
G37*
G36*
X237503474Y-127252890D02*
X236300120Y-126049536D01*
X236795830Y-125553826D01*
X237999184Y-126757180D01*
X237503474Y-127252890D01*
X237503474Y-127252890D01*
G37*
G36*
X238069230Y-126687134D02*
X236865876Y-125483780D01*
X237361586Y-124988070D01*
X238564940Y-126191424D01*
X238069230Y-126687134D01*
X238069230Y-126687134D01*
G37*
G36*
X238634986Y-126121377D02*
X237431632Y-124918023D01*
X237927342Y-124422313D01*
X239130696Y-125625667D01*
X238634986Y-126121377D01*
X238634986Y-126121377D01*
G37*
G36*
X239200743Y-125555621D02*
X237997389Y-124352267D01*
X238493099Y-123856557D01*
X239696453Y-125059911D01*
X239200743Y-125555621D01*
X239200743Y-125555621D01*
G37*
G36*
X238493099Y-123008821D02*
X237997389Y-122513111D01*
X239200743Y-121309757D01*
X239696453Y-121805467D01*
X238493099Y-123008821D01*
X238493099Y-123008821D01*
G37*
G36*
X237927342Y-122443065D02*
X237431632Y-121947355D01*
X238634986Y-120744001D01*
X239130696Y-121239711D01*
X237927342Y-122443065D01*
X237927342Y-122443065D01*
G37*
G36*
X237361586Y-121877308D02*
X236865876Y-121381598D01*
X238069230Y-120178244D01*
X238564940Y-120673954D01*
X237361586Y-121877308D01*
X237361586Y-121877308D01*
G37*
G36*
X236795830Y-121311552D02*
X236300120Y-120815842D01*
X237503474Y-119612488D01*
X237999184Y-120108198D01*
X236795830Y-121311552D01*
X236795830Y-121311552D01*
G37*
G36*
X236230074Y-120745796D02*
X235734364Y-120250086D01*
X236937718Y-119046732D01*
X237433428Y-119542442D01*
X236230074Y-120745796D01*
X236230074Y-120745796D01*
G37*
G36*
X235666114Y-120181836D02*
X235170404Y-119686126D01*
X236373758Y-118482772D01*
X236869468Y-118978482D01*
X235666114Y-120181836D01*
X235666114Y-120181836D01*
G37*
G36*
X235102154Y-119617876D02*
X234606444Y-119122166D01*
X235809798Y-117918812D01*
X236305508Y-118414522D01*
X235102154Y-119617876D01*
X235102154Y-119617876D01*
G37*
G36*
X234536398Y-119052120D02*
X234040688Y-118556410D01*
X235244042Y-117353056D01*
X235739752Y-117848766D01*
X234536398Y-119052120D01*
X234536398Y-119052120D01*
G37*
G36*
X233970642Y-118486364D02*
X233474932Y-117990654D01*
X234678286Y-116787300D01*
X235173996Y-117283010D01*
X233970642Y-118486364D01*
X233970642Y-118486364D01*
G37*
G36*
X233404885Y-117920608D02*
X232909175Y-117424898D01*
X234112529Y-116221544D01*
X234608239Y-116717254D01*
X233404885Y-117920608D01*
X233404885Y-117920608D01*
G37*
G36*
X232839129Y-117354851D02*
X232343419Y-116859141D01*
X233546773Y-115655787D01*
X234042483Y-116151497D01*
X232839129Y-117354851D01*
X232839129Y-117354851D01*
G37*
G36*
X230999973Y-117354851D02*
X229796619Y-116151497D01*
X230292329Y-115655787D01*
X231495683Y-116859141D01*
X230999973Y-117354851D01*
X230999973Y-117354851D01*
G37*
G36*
X230434217Y-117920608D02*
X229230863Y-116717254D01*
X229726573Y-116221544D01*
X230929927Y-117424898D01*
X230434217Y-117920608D01*
X230434217Y-117920608D01*
G37*
G36*
X229868460Y-118486364D02*
X228665106Y-117283010D01*
X229160816Y-116787300D01*
X230364170Y-117990654D01*
X229868460Y-118486364D01*
X229868460Y-118486364D01*
G37*
G36*
X229302704Y-119052120D02*
X228099350Y-117848766D01*
X228595060Y-117353056D01*
X229798414Y-118556410D01*
X229302704Y-119052120D01*
X229302704Y-119052120D01*
G37*
G36*
X228736948Y-119617876D02*
X227533594Y-118414522D01*
X228029304Y-117918812D01*
X229232658Y-119122166D01*
X228736948Y-119617876D01*
X228736948Y-119617876D01*
G37*
G36*
X228172988Y-120181836D02*
X226969634Y-118978482D01*
X227465344Y-118482772D01*
X228668698Y-119686126D01*
X228172988Y-120181836D01*
X228172988Y-120181836D01*
G37*
G36*
X227609028Y-120745796D02*
X226405674Y-119542442D01*
X226901384Y-119046732D01*
X228104738Y-120250086D01*
X227609028Y-120745796D01*
X227609028Y-120745796D01*
G37*
G36*
X227043272Y-121311552D02*
X225839918Y-120108198D01*
X226335628Y-119612488D01*
X227538982Y-120815842D01*
X227043272Y-121311552D01*
X227043272Y-121311552D01*
G37*
G36*
X226477516Y-121877308D02*
X225274162Y-120673954D01*
X225769872Y-120178244D01*
X226973226Y-121381598D01*
X226477516Y-121877308D01*
X226477516Y-121877308D01*
G37*
G36*
X225911760Y-122443065D02*
X224708406Y-121239711D01*
X225204116Y-120744001D01*
X226407470Y-121947355D01*
X225911760Y-122443065D01*
X225911760Y-122443065D01*
G37*
G36*
X225346003Y-123008821D02*
X224142649Y-121805467D01*
X224638359Y-121309757D01*
X225841713Y-122513111D01*
X225346003Y-123008821D01*
X225346003Y-123008821D01*
G37*
G36*
X201270359Y-125555621D02*
X200774649Y-125059911D01*
X201978003Y-123856557D01*
X202473713Y-124352267D01*
X201270359Y-125555621D01*
X201270359Y-125555621D01*
G37*
G36*
X201836116Y-126121377D02*
X201340406Y-125625667D01*
X202543760Y-124422313D01*
X203039470Y-124918023D01*
X201836116Y-126121377D01*
X201836116Y-126121377D01*
G37*
G36*
X202401872Y-126687134D02*
X201906162Y-126191424D01*
X203109516Y-124988070D01*
X203605226Y-125483780D01*
X202401872Y-126687134D01*
X202401872Y-126687134D01*
G37*
G36*
X202967628Y-127252890D02*
X202471918Y-126757180D01*
X203675272Y-125553826D01*
X204170982Y-126049536D01*
X202967628Y-127252890D01*
X202967628Y-127252890D01*
G37*
G36*
X203533384Y-127818646D02*
X203037674Y-127322936D01*
X204241028Y-126119582D01*
X204736738Y-126615292D01*
X203533384Y-127818646D01*
X203533384Y-127818646D01*
G37*
G36*
X204097344Y-128382606D02*
X203601634Y-127886896D01*
X204804988Y-126683542D01*
X205300698Y-127179252D01*
X204097344Y-128382606D01*
X204097344Y-128382606D01*
G37*
G36*
X204661304Y-128946566D02*
X204165594Y-128450856D01*
X205368948Y-127247502D01*
X205864658Y-127743212D01*
X204661304Y-128946566D01*
X204661304Y-128946566D01*
G37*
G36*
X205227060Y-129512322D02*
X204731350Y-129016612D01*
X205934704Y-127813258D01*
X206430414Y-128308968D01*
X205227060Y-129512322D01*
X205227060Y-129512322D01*
G37*
G36*
X205792816Y-130078078D02*
X205297106Y-129582368D01*
X206500460Y-128379014D01*
X206996170Y-128874724D01*
X205792816Y-130078078D01*
X205792816Y-130078078D01*
G37*
G36*
X206358573Y-130643834D02*
X205862863Y-130148124D01*
X207066217Y-128944770D01*
X207561927Y-129440480D01*
X206358573Y-130643834D01*
X206358573Y-130643834D01*
G37*
G36*
X206924329Y-131209591D02*
X206428619Y-130713881D01*
X207631973Y-129510527D01*
X208127683Y-130006237D01*
X206924329Y-131209591D01*
X206924329Y-131209591D01*
G37*
G36*
X210178773Y-131209591D02*
X208975419Y-130006237D01*
X209471129Y-129510527D01*
X210674483Y-130713881D01*
X210178773Y-131209591D01*
X210178773Y-131209591D01*
G37*
G36*
X210744529Y-130643834D02*
X209541175Y-129440480D01*
X210036885Y-128944770D01*
X211240239Y-130148124D01*
X210744529Y-130643834D01*
X210744529Y-130643834D01*
G37*
G36*
X211310286Y-130078078D02*
X210106932Y-128874724D01*
X210602642Y-128379014D01*
X211805996Y-129582368D01*
X211310286Y-130078078D01*
X211310286Y-130078078D01*
G37*
G36*
X211876042Y-129512322D02*
X210672688Y-128308968D01*
X211168398Y-127813258D01*
X212371752Y-129016612D01*
X211876042Y-129512322D01*
X211876042Y-129512322D01*
G37*
G36*
X212441798Y-128946566D02*
X211238444Y-127743212D01*
X211734154Y-127247502D01*
X212937508Y-128450856D01*
X212441798Y-128946566D01*
X212441798Y-128946566D01*
G37*
G36*
X213005758Y-128382606D02*
X211802404Y-127179252D01*
X212298114Y-126683542D01*
X213501468Y-127886896D01*
X213005758Y-128382606D01*
X213005758Y-128382606D01*
G37*
G36*
X213569718Y-127818646D02*
X212366364Y-126615292D01*
X212862074Y-126119582D01*
X214065428Y-127322936D01*
X213569718Y-127818646D01*
X213569718Y-127818646D01*
G37*
G36*
X214135474Y-127252890D02*
X212932120Y-126049536D01*
X213427830Y-125553826D01*
X214631184Y-126757180D01*
X214135474Y-127252890D01*
X214135474Y-127252890D01*
G37*
G36*
X214701230Y-126687134D02*
X213497876Y-125483780D01*
X213993586Y-124988070D01*
X215196940Y-126191424D01*
X214701230Y-126687134D01*
X214701230Y-126687134D01*
G37*
G36*
X215266986Y-126121377D02*
X214063632Y-124918023D01*
X214559342Y-124422313D01*
X215762696Y-125625667D01*
X215266986Y-126121377D01*
X215266986Y-126121377D01*
G37*
G36*
X215832743Y-125555621D02*
X214629389Y-124352267D01*
X215125099Y-123856557D01*
X216328453Y-125059911D01*
X215832743Y-125555621D01*
X215832743Y-125555621D01*
G37*
G36*
X215125099Y-123008821D02*
X214629389Y-122513111D01*
X215832743Y-121309757D01*
X216328453Y-121805467D01*
X215125099Y-123008821D01*
X215125099Y-123008821D01*
G37*
G36*
X214559342Y-122443065D02*
X214063632Y-121947355D01*
X215266986Y-120744001D01*
X215762696Y-121239711D01*
X214559342Y-122443065D01*
X214559342Y-122443065D01*
G37*
G36*
X213993586Y-121877308D02*
X213497876Y-121381598D01*
X214701230Y-120178244D01*
X215196940Y-120673954D01*
X213993586Y-121877308D01*
X213993586Y-121877308D01*
G37*
G36*
X213427830Y-121311552D02*
X212932120Y-120815842D01*
X214135474Y-119612488D01*
X214631184Y-120108198D01*
X213427830Y-121311552D01*
X213427830Y-121311552D01*
G37*
G36*
X212862074Y-120745796D02*
X212366364Y-120250086D01*
X213569718Y-119046732D01*
X214065428Y-119542442D01*
X212862074Y-120745796D01*
X212862074Y-120745796D01*
G37*
G36*
X212298114Y-120181836D02*
X211802404Y-119686126D01*
X213005758Y-118482772D01*
X213501468Y-118978482D01*
X212298114Y-120181836D01*
X212298114Y-120181836D01*
G37*
G36*
X211734154Y-119617876D02*
X211238444Y-119122166D01*
X212441798Y-117918812D01*
X212937508Y-118414522D01*
X211734154Y-119617876D01*
X211734154Y-119617876D01*
G37*
G36*
X211168398Y-119052120D02*
X210672688Y-118556410D01*
X211876042Y-117353056D01*
X212371752Y-117848766D01*
X211168398Y-119052120D01*
X211168398Y-119052120D01*
G37*
G36*
X210602642Y-118486364D02*
X210106932Y-117990654D01*
X211310286Y-116787300D01*
X211805996Y-117283010D01*
X210602642Y-118486364D01*
X210602642Y-118486364D01*
G37*
G36*
X210036885Y-117920608D02*
X209541175Y-117424898D01*
X210744529Y-116221544D01*
X211240239Y-116717254D01*
X210036885Y-117920608D01*
X210036885Y-117920608D01*
G37*
G36*
X209471129Y-117354851D02*
X208975419Y-116859141D01*
X210178773Y-115655787D01*
X210674483Y-116151497D01*
X209471129Y-117354851D01*
X209471129Y-117354851D01*
G37*
G36*
X207631973Y-117354851D02*
X206428619Y-116151497D01*
X206924329Y-115655787D01*
X208127683Y-116859141D01*
X207631973Y-117354851D01*
X207631973Y-117354851D01*
G37*
G36*
X207066217Y-117920608D02*
X205862863Y-116717254D01*
X206358573Y-116221544D01*
X207561927Y-117424898D01*
X207066217Y-117920608D01*
X207066217Y-117920608D01*
G37*
G36*
X206500460Y-118486364D02*
X205297106Y-117283010D01*
X205792816Y-116787300D01*
X206996170Y-117990654D01*
X206500460Y-118486364D01*
X206500460Y-118486364D01*
G37*
G36*
X205934704Y-119052120D02*
X204731350Y-117848766D01*
X205227060Y-117353056D01*
X206430414Y-118556410D01*
X205934704Y-119052120D01*
X205934704Y-119052120D01*
G37*
G36*
X205368948Y-119617876D02*
X204165594Y-118414522D01*
X204661304Y-117918812D01*
X205864658Y-119122166D01*
X205368948Y-119617876D01*
X205368948Y-119617876D01*
G37*
G36*
X204804988Y-120181836D02*
X203601634Y-118978482D01*
X204097344Y-118482772D01*
X205300698Y-119686126D01*
X204804988Y-120181836D01*
X204804988Y-120181836D01*
G37*
G36*
X204241028Y-120745796D02*
X203037674Y-119542442D01*
X203533384Y-119046732D01*
X204736738Y-120250086D01*
X204241028Y-120745796D01*
X204241028Y-120745796D01*
G37*
G36*
X203675272Y-121311552D02*
X202471918Y-120108198D01*
X202967628Y-119612488D01*
X204170982Y-120815842D01*
X203675272Y-121311552D01*
X203675272Y-121311552D01*
G37*
G36*
X203109516Y-121877308D02*
X201906162Y-120673954D01*
X202401872Y-120178244D01*
X203605226Y-121381598D01*
X203109516Y-121877308D01*
X203109516Y-121877308D01*
G37*
G36*
X202543760Y-122443065D02*
X201340406Y-121239711D01*
X201836116Y-120744001D01*
X203039470Y-121947355D01*
X202543760Y-122443065D01*
X202543760Y-122443065D01*
G37*
G36*
X201978003Y-123008821D02*
X200774649Y-121805467D01*
X201270359Y-121309757D01*
X202473713Y-122513111D01*
X201978003Y-123008821D01*
X201978003Y-123008821D01*
G37*
G36*
X177902359Y-125555621D02*
X177406649Y-125059911D01*
X178610003Y-123856557D01*
X179105713Y-124352267D01*
X177902359Y-125555621D01*
X177902359Y-125555621D01*
G37*
G36*
X178468116Y-126121377D02*
X177972406Y-125625667D01*
X179175760Y-124422313D01*
X179671470Y-124918023D01*
X178468116Y-126121377D01*
X178468116Y-126121377D01*
G37*
G36*
X179033872Y-126687134D02*
X178538162Y-126191424D01*
X179741516Y-124988070D01*
X180237226Y-125483780D01*
X179033872Y-126687134D01*
X179033872Y-126687134D01*
G37*
G36*
X179599628Y-127252890D02*
X179103918Y-126757180D01*
X180307272Y-125553826D01*
X180802982Y-126049536D01*
X179599628Y-127252890D01*
X179599628Y-127252890D01*
G37*
G36*
X180165384Y-127818646D02*
X179669674Y-127322936D01*
X180873028Y-126119582D01*
X181368738Y-126615292D01*
X180165384Y-127818646D01*
X180165384Y-127818646D01*
G37*
G36*
X180729344Y-128382606D02*
X180233634Y-127886896D01*
X181436988Y-126683542D01*
X181932698Y-127179252D01*
X180729344Y-128382606D01*
X180729344Y-128382606D01*
G37*
G36*
X181293304Y-128946566D02*
X180797594Y-128450856D01*
X182000948Y-127247502D01*
X182496658Y-127743212D01*
X181293304Y-128946566D01*
X181293304Y-128946566D01*
G37*
G36*
X181859060Y-129512322D02*
X181363350Y-129016612D01*
X182566704Y-127813258D01*
X183062414Y-128308968D01*
X181859060Y-129512322D01*
X181859060Y-129512322D01*
G37*
G36*
X182424816Y-130078078D02*
X181929106Y-129582368D01*
X183132460Y-128379014D01*
X183628170Y-128874724D01*
X182424816Y-130078078D01*
X182424816Y-130078078D01*
G37*
G36*
X182990573Y-130643834D02*
X182494863Y-130148124D01*
X183698217Y-128944770D01*
X184193927Y-129440480D01*
X182990573Y-130643834D01*
X182990573Y-130643834D01*
G37*
G36*
X183556329Y-131209591D02*
X183060619Y-130713881D01*
X184263973Y-129510527D01*
X184759683Y-130006237D01*
X183556329Y-131209591D01*
X183556329Y-131209591D01*
G37*
G36*
X186810773Y-131209591D02*
X185607419Y-130006237D01*
X186103129Y-129510527D01*
X187306483Y-130713881D01*
X186810773Y-131209591D01*
X186810773Y-131209591D01*
G37*
G36*
X187376529Y-130643834D02*
X186173175Y-129440480D01*
X186668885Y-128944770D01*
X187872239Y-130148124D01*
X187376529Y-130643834D01*
X187376529Y-130643834D01*
G37*
G36*
X187942286Y-130078078D02*
X186738932Y-128874724D01*
X187234642Y-128379014D01*
X188437996Y-129582368D01*
X187942286Y-130078078D01*
X187942286Y-130078078D01*
G37*
G36*
X188508042Y-129512322D02*
X187304688Y-128308968D01*
X187800398Y-127813258D01*
X189003752Y-129016612D01*
X188508042Y-129512322D01*
X188508042Y-129512322D01*
G37*
G36*
X189073798Y-128946566D02*
X187870444Y-127743212D01*
X188366154Y-127247502D01*
X189569508Y-128450856D01*
X189073798Y-128946566D01*
X189073798Y-128946566D01*
G37*
G36*
X189637758Y-128382606D02*
X188434404Y-127179252D01*
X188930114Y-126683542D01*
X190133468Y-127886896D01*
X189637758Y-128382606D01*
X189637758Y-128382606D01*
G37*
G36*
X190201718Y-127818646D02*
X188998364Y-126615292D01*
X189494074Y-126119582D01*
X190697428Y-127322936D01*
X190201718Y-127818646D01*
X190201718Y-127818646D01*
G37*
G36*
X190767474Y-127252890D02*
X189564120Y-126049536D01*
X190059830Y-125553826D01*
X191263184Y-126757180D01*
X190767474Y-127252890D01*
X190767474Y-127252890D01*
G37*
G36*
X191333230Y-126687134D02*
X190129876Y-125483780D01*
X190625586Y-124988070D01*
X191828940Y-126191424D01*
X191333230Y-126687134D01*
X191333230Y-126687134D01*
G37*
G36*
X191898986Y-126121377D02*
X190695632Y-124918023D01*
X191191342Y-124422313D01*
X192394696Y-125625667D01*
X191898986Y-126121377D01*
X191898986Y-126121377D01*
G37*
G36*
X192464743Y-125555621D02*
X191261389Y-124352267D01*
X191757099Y-123856557D01*
X192960453Y-125059911D01*
X192464743Y-125555621D01*
X192464743Y-125555621D01*
G37*
G36*
X191757099Y-123008821D02*
X191261389Y-122513111D01*
X192464743Y-121309757D01*
X192960453Y-121805467D01*
X191757099Y-123008821D01*
X191757099Y-123008821D01*
G37*
G36*
X191191342Y-122443065D02*
X190695632Y-121947355D01*
X191898986Y-120744001D01*
X192394696Y-121239711D01*
X191191342Y-122443065D01*
X191191342Y-122443065D01*
G37*
G36*
X190625586Y-121877308D02*
X190129876Y-121381598D01*
X191333230Y-120178244D01*
X191828940Y-120673954D01*
X190625586Y-121877308D01*
X190625586Y-121877308D01*
G37*
G36*
X190059830Y-121311552D02*
X189564120Y-120815842D01*
X190767474Y-119612488D01*
X191263184Y-120108198D01*
X190059830Y-121311552D01*
X190059830Y-121311552D01*
G37*
G36*
X189494074Y-120745796D02*
X188998364Y-120250086D01*
X190201718Y-119046732D01*
X190697428Y-119542442D01*
X189494074Y-120745796D01*
X189494074Y-120745796D01*
G37*
G36*
X188930114Y-120181836D02*
X188434404Y-119686126D01*
X189637758Y-118482772D01*
X190133468Y-118978482D01*
X188930114Y-120181836D01*
X188930114Y-120181836D01*
G37*
G36*
X188366154Y-119617876D02*
X187870444Y-119122166D01*
X189073798Y-117918812D01*
X189569508Y-118414522D01*
X188366154Y-119617876D01*
X188366154Y-119617876D01*
G37*
G36*
X187800398Y-119052120D02*
X187304688Y-118556410D01*
X188508042Y-117353056D01*
X189003752Y-117848766D01*
X187800398Y-119052120D01*
X187800398Y-119052120D01*
G37*
G36*
X187234642Y-118486364D02*
X186738932Y-117990654D01*
X187942286Y-116787300D01*
X188437996Y-117283010D01*
X187234642Y-118486364D01*
X187234642Y-118486364D01*
G37*
G36*
X186668885Y-117920608D02*
X186173175Y-117424898D01*
X187376529Y-116221544D01*
X187872239Y-116717254D01*
X186668885Y-117920608D01*
X186668885Y-117920608D01*
G37*
G36*
X186103129Y-117354851D02*
X185607419Y-116859141D01*
X186810773Y-115655787D01*
X187306483Y-116151497D01*
X186103129Y-117354851D01*
X186103129Y-117354851D01*
G37*
G36*
X184263973Y-117354851D02*
X183060619Y-116151497D01*
X183556329Y-115655787D01*
X184759683Y-116859141D01*
X184263973Y-117354851D01*
X184263973Y-117354851D01*
G37*
G36*
X183698217Y-117920608D02*
X182494863Y-116717254D01*
X182990573Y-116221544D01*
X184193927Y-117424898D01*
X183698217Y-117920608D01*
X183698217Y-117920608D01*
G37*
G36*
X183132460Y-118486364D02*
X181929106Y-117283010D01*
X182424816Y-116787300D01*
X183628170Y-117990654D01*
X183132460Y-118486364D01*
X183132460Y-118486364D01*
G37*
G36*
X182566704Y-119052120D02*
X181363350Y-117848766D01*
X181859060Y-117353056D01*
X183062414Y-118556410D01*
X182566704Y-119052120D01*
X182566704Y-119052120D01*
G37*
G36*
X182000948Y-119617876D02*
X180797594Y-118414522D01*
X181293304Y-117918812D01*
X182496658Y-119122166D01*
X182000948Y-119617876D01*
X182000948Y-119617876D01*
G37*
G36*
X181436988Y-120181836D02*
X180233634Y-118978482D01*
X180729344Y-118482772D01*
X181932698Y-119686126D01*
X181436988Y-120181836D01*
X181436988Y-120181836D01*
G37*
G36*
X180873028Y-120745796D02*
X179669674Y-119542442D01*
X180165384Y-119046732D01*
X181368738Y-120250086D01*
X180873028Y-120745796D01*
X180873028Y-120745796D01*
G37*
G36*
X180307272Y-121311552D02*
X179103918Y-120108198D01*
X179599628Y-119612488D01*
X180802982Y-120815842D01*
X180307272Y-121311552D01*
X180307272Y-121311552D01*
G37*
G36*
X179741516Y-121877308D02*
X178538162Y-120673954D01*
X179033872Y-120178244D01*
X180237226Y-121381598D01*
X179741516Y-121877308D01*
X179741516Y-121877308D01*
G37*
G36*
X179175760Y-122443065D02*
X177972406Y-121239711D01*
X178468116Y-120744001D01*
X179671470Y-121947355D01*
X179175760Y-122443065D01*
X179175760Y-122443065D01*
G37*
G36*
X178610003Y-123008821D02*
X177406649Y-121805467D01*
X177902359Y-121309757D01*
X179105713Y-122513111D01*
X178610003Y-123008821D01*
X178610003Y-123008821D01*
G37*
G36*
X154534359Y-125555621D02*
X154038649Y-125059911D01*
X155242003Y-123856557D01*
X155737713Y-124352267D01*
X154534359Y-125555621D01*
X154534359Y-125555621D01*
G37*
G36*
X155100116Y-126121377D02*
X154604406Y-125625667D01*
X155807760Y-124422313D01*
X156303470Y-124918023D01*
X155100116Y-126121377D01*
X155100116Y-126121377D01*
G37*
G36*
X155665872Y-126687134D02*
X155170162Y-126191424D01*
X156373516Y-124988070D01*
X156869226Y-125483780D01*
X155665872Y-126687134D01*
X155665872Y-126687134D01*
G37*
G36*
X156231628Y-127252890D02*
X155735918Y-126757180D01*
X156939272Y-125553826D01*
X157434982Y-126049536D01*
X156231628Y-127252890D01*
X156231628Y-127252890D01*
G37*
G36*
X156797384Y-127818646D02*
X156301674Y-127322936D01*
X157505028Y-126119582D01*
X158000738Y-126615292D01*
X156797384Y-127818646D01*
X156797384Y-127818646D01*
G37*
G36*
X157361344Y-128382606D02*
X156865634Y-127886896D01*
X158068988Y-126683542D01*
X158564698Y-127179252D01*
X157361344Y-128382606D01*
X157361344Y-128382606D01*
G37*
G36*
X157925304Y-128946566D02*
X157429594Y-128450856D01*
X158632948Y-127247502D01*
X159128658Y-127743212D01*
X157925304Y-128946566D01*
X157925304Y-128946566D01*
G37*
G36*
X158491060Y-129512322D02*
X157995350Y-129016612D01*
X159198704Y-127813258D01*
X159694414Y-128308968D01*
X158491060Y-129512322D01*
X158491060Y-129512322D01*
G37*
G36*
X159056816Y-130078078D02*
X158561106Y-129582368D01*
X159764460Y-128379014D01*
X160260170Y-128874724D01*
X159056816Y-130078078D01*
X159056816Y-130078078D01*
G37*
G36*
X159622573Y-130643834D02*
X159126863Y-130148124D01*
X160330217Y-128944770D01*
X160825927Y-129440480D01*
X159622573Y-130643834D01*
X159622573Y-130643834D01*
G37*
G36*
X160188329Y-131209591D02*
X159692619Y-130713881D01*
X160895973Y-129510527D01*
X161391683Y-130006237D01*
X160188329Y-131209591D01*
X160188329Y-131209591D01*
G37*
G36*
X163442773Y-131209591D02*
X162239419Y-130006237D01*
X162735129Y-129510527D01*
X163938483Y-130713881D01*
X163442773Y-131209591D01*
X163442773Y-131209591D01*
G37*
G36*
X164008529Y-130643834D02*
X162805175Y-129440480D01*
X163300885Y-128944770D01*
X164504239Y-130148124D01*
X164008529Y-130643834D01*
X164008529Y-130643834D01*
G37*
G36*
X164574286Y-130078078D02*
X163370932Y-128874724D01*
X163866642Y-128379014D01*
X165069996Y-129582368D01*
X164574286Y-130078078D01*
X164574286Y-130078078D01*
G37*
G36*
X165140042Y-129512322D02*
X163936688Y-128308968D01*
X164432398Y-127813258D01*
X165635752Y-129016612D01*
X165140042Y-129512322D01*
X165140042Y-129512322D01*
G37*
G36*
X165705798Y-128946566D02*
X164502444Y-127743212D01*
X164998154Y-127247502D01*
X166201508Y-128450856D01*
X165705798Y-128946566D01*
X165705798Y-128946566D01*
G37*
G36*
X166269758Y-128382606D02*
X165066404Y-127179252D01*
X165562114Y-126683542D01*
X166765468Y-127886896D01*
X166269758Y-128382606D01*
X166269758Y-128382606D01*
G37*
G36*
X166833718Y-127818646D02*
X165630364Y-126615292D01*
X166126074Y-126119582D01*
X167329428Y-127322936D01*
X166833718Y-127818646D01*
X166833718Y-127818646D01*
G37*
G36*
X167399474Y-127252890D02*
X166196120Y-126049536D01*
X166691830Y-125553826D01*
X167895184Y-126757180D01*
X167399474Y-127252890D01*
X167399474Y-127252890D01*
G37*
G36*
X167965230Y-126687134D02*
X166761876Y-125483780D01*
X167257586Y-124988070D01*
X168460940Y-126191424D01*
X167965230Y-126687134D01*
X167965230Y-126687134D01*
G37*
G36*
X168530986Y-126121377D02*
X167327632Y-124918023D01*
X167823342Y-124422313D01*
X169026696Y-125625667D01*
X168530986Y-126121377D01*
X168530986Y-126121377D01*
G37*
G36*
X169096743Y-125555621D02*
X167893389Y-124352267D01*
X168389099Y-123856557D01*
X169592453Y-125059911D01*
X169096743Y-125555621D01*
X169096743Y-125555621D01*
G37*
G36*
X168389099Y-123008821D02*
X167893389Y-122513111D01*
X169096743Y-121309757D01*
X169592453Y-121805467D01*
X168389099Y-123008821D01*
X168389099Y-123008821D01*
G37*
G36*
X167823342Y-122443065D02*
X167327632Y-121947355D01*
X168530986Y-120744001D01*
X169026696Y-121239711D01*
X167823342Y-122443065D01*
X167823342Y-122443065D01*
G37*
G36*
X167257586Y-121877308D02*
X166761876Y-121381598D01*
X167965230Y-120178244D01*
X168460940Y-120673954D01*
X167257586Y-121877308D01*
X167257586Y-121877308D01*
G37*
G36*
X166691830Y-121311552D02*
X166196120Y-120815842D01*
X167399474Y-119612488D01*
X167895184Y-120108198D01*
X166691830Y-121311552D01*
X166691830Y-121311552D01*
G37*
G36*
X166126074Y-120745796D02*
X165630364Y-120250086D01*
X166833718Y-119046732D01*
X167329428Y-119542442D01*
X166126074Y-120745796D01*
X166126074Y-120745796D01*
G37*
G36*
X165562114Y-120181836D02*
X165066404Y-119686126D01*
X166269758Y-118482772D01*
X166765468Y-118978482D01*
X165562114Y-120181836D01*
X165562114Y-120181836D01*
G37*
G36*
X164998154Y-119617876D02*
X164502444Y-119122166D01*
X165705798Y-117918812D01*
X166201508Y-118414522D01*
X164998154Y-119617876D01*
X164998154Y-119617876D01*
G37*
G36*
X164432398Y-119052120D02*
X163936688Y-118556410D01*
X165140042Y-117353056D01*
X165635752Y-117848766D01*
X164432398Y-119052120D01*
X164432398Y-119052120D01*
G37*
G36*
X163866642Y-118486364D02*
X163370932Y-117990654D01*
X164574286Y-116787300D01*
X165069996Y-117283010D01*
X163866642Y-118486364D01*
X163866642Y-118486364D01*
G37*
G36*
X163300885Y-117920608D02*
X162805175Y-117424898D01*
X164008529Y-116221544D01*
X164504239Y-116717254D01*
X163300885Y-117920608D01*
X163300885Y-117920608D01*
G37*
G36*
X162735129Y-117354851D02*
X162239419Y-116859141D01*
X163442773Y-115655787D01*
X163938483Y-116151497D01*
X162735129Y-117354851D01*
X162735129Y-117354851D01*
G37*
G36*
X160895973Y-117354851D02*
X159692619Y-116151497D01*
X160188329Y-115655787D01*
X161391683Y-116859141D01*
X160895973Y-117354851D01*
X160895973Y-117354851D01*
G37*
G36*
X160330217Y-117920608D02*
X159126863Y-116717254D01*
X159622573Y-116221544D01*
X160825927Y-117424898D01*
X160330217Y-117920608D01*
X160330217Y-117920608D01*
G37*
G36*
X159764460Y-118486364D02*
X158561106Y-117283010D01*
X159056816Y-116787300D01*
X160260170Y-117990654D01*
X159764460Y-118486364D01*
X159764460Y-118486364D01*
G37*
G36*
X159198704Y-119052120D02*
X157995350Y-117848766D01*
X158491060Y-117353056D01*
X159694414Y-118556410D01*
X159198704Y-119052120D01*
X159198704Y-119052120D01*
G37*
G36*
X158632948Y-119617876D02*
X157429594Y-118414522D01*
X157925304Y-117918812D01*
X159128658Y-119122166D01*
X158632948Y-119617876D01*
X158632948Y-119617876D01*
G37*
G36*
X158068988Y-120181836D02*
X156865634Y-118978482D01*
X157361344Y-118482772D01*
X158564698Y-119686126D01*
X158068988Y-120181836D01*
X158068988Y-120181836D01*
G37*
G36*
X157505028Y-120745796D02*
X156301674Y-119542442D01*
X156797384Y-119046732D01*
X158000738Y-120250086D01*
X157505028Y-120745796D01*
X157505028Y-120745796D01*
G37*
G36*
X156939272Y-121311552D02*
X155735918Y-120108198D01*
X156231628Y-119612488D01*
X157434982Y-120815842D01*
X156939272Y-121311552D01*
X156939272Y-121311552D01*
G37*
G36*
X156373516Y-121877308D02*
X155170162Y-120673954D01*
X155665872Y-120178244D01*
X156869226Y-121381598D01*
X156373516Y-121877308D01*
X156373516Y-121877308D01*
G37*
G36*
X155807760Y-122443065D02*
X154604406Y-121239711D01*
X155100116Y-120744001D01*
X156303470Y-121947355D01*
X155807760Y-122443065D01*
X155807760Y-122443065D01*
G37*
G36*
X155242003Y-123008821D02*
X154038649Y-121805467D01*
X154534359Y-121309757D01*
X155737713Y-122513111D01*
X155242003Y-123008821D01*
X155242003Y-123008821D01*
G37*
G36*
X131166359Y-125555621D02*
X130670649Y-125059911D01*
X131874003Y-123856557D01*
X132369713Y-124352267D01*
X131166359Y-125555621D01*
X131166359Y-125555621D01*
G37*
G36*
X131732116Y-126121377D02*
X131236406Y-125625667D01*
X132439760Y-124422313D01*
X132935470Y-124918023D01*
X131732116Y-126121377D01*
X131732116Y-126121377D01*
G37*
G36*
X132297872Y-126687134D02*
X131802162Y-126191424D01*
X133005516Y-124988070D01*
X133501226Y-125483780D01*
X132297872Y-126687134D01*
X132297872Y-126687134D01*
G37*
G36*
X132863628Y-127252890D02*
X132367918Y-126757180D01*
X133571272Y-125553826D01*
X134066982Y-126049536D01*
X132863628Y-127252890D01*
X132863628Y-127252890D01*
G37*
G36*
X133429384Y-127818646D02*
X132933674Y-127322936D01*
X134137028Y-126119582D01*
X134632738Y-126615292D01*
X133429384Y-127818646D01*
X133429384Y-127818646D01*
G37*
G36*
X133993344Y-128382606D02*
X133497634Y-127886896D01*
X134700988Y-126683542D01*
X135196698Y-127179252D01*
X133993344Y-128382606D01*
X133993344Y-128382606D01*
G37*
G36*
X134557304Y-128946566D02*
X134061594Y-128450856D01*
X135264948Y-127247502D01*
X135760658Y-127743212D01*
X134557304Y-128946566D01*
X134557304Y-128946566D01*
G37*
G36*
X135123060Y-129512322D02*
X134627350Y-129016612D01*
X135830704Y-127813258D01*
X136326414Y-128308968D01*
X135123060Y-129512322D01*
X135123060Y-129512322D01*
G37*
G36*
X135688816Y-130078078D02*
X135193106Y-129582368D01*
X136396460Y-128379014D01*
X136892170Y-128874724D01*
X135688816Y-130078078D01*
X135688816Y-130078078D01*
G37*
G36*
X136254573Y-130643834D02*
X135758863Y-130148124D01*
X136962217Y-128944770D01*
X137457927Y-129440480D01*
X136254573Y-130643834D01*
X136254573Y-130643834D01*
G37*
G36*
X136820329Y-131209591D02*
X136324619Y-130713881D01*
X137527973Y-129510527D01*
X138023683Y-130006237D01*
X136820329Y-131209591D01*
X136820329Y-131209591D01*
G37*
G36*
X140074773Y-131209591D02*
X138871419Y-130006237D01*
X139367129Y-129510527D01*
X140570483Y-130713881D01*
X140074773Y-131209591D01*
X140074773Y-131209591D01*
G37*
G36*
X140640529Y-130643834D02*
X139437175Y-129440480D01*
X139932885Y-128944770D01*
X141136239Y-130148124D01*
X140640529Y-130643834D01*
X140640529Y-130643834D01*
G37*
G36*
X141206286Y-130078078D02*
X140002932Y-128874724D01*
X140498642Y-128379014D01*
X141701996Y-129582368D01*
X141206286Y-130078078D01*
X141206286Y-130078078D01*
G37*
G36*
X141772042Y-129512322D02*
X140568688Y-128308968D01*
X141064398Y-127813258D01*
X142267752Y-129016612D01*
X141772042Y-129512322D01*
X141772042Y-129512322D01*
G37*
G36*
X142337798Y-128946566D02*
X141134444Y-127743212D01*
X141630154Y-127247502D01*
X142833508Y-128450856D01*
X142337798Y-128946566D01*
X142337798Y-128946566D01*
G37*
G36*
X142901758Y-128382606D02*
X141698404Y-127179252D01*
X142194114Y-126683542D01*
X143397468Y-127886896D01*
X142901758Y-128382606D01*
X142901758Y-128382606D01*
G37*
G36*
X143465718Y-127818646D02*
X142262364Y-126615292D01*
X142758074Y-126119582D01*
X143961428Y-127322936D01*
X143465718Y-127818646D01*
X143465718Y-127818646D01*
G37*
G36*
X144031474Y-127252890D02*
X142828120Y-126049536D01*
X143323830Y-125553826D01*
X144527184Y-126757180D01*
X144031474Y-127252890D01*
X144031474Y-127252890D01*
G37*
G36*
X144597230Y-126687134D02*
X143393876Y-125483780D01*
X143889586Y-124988070D01*
X145092940Y-126191424D01*
X144597230Y-126687134D01*
X144597230Y-126687134D01*
G37*
G36*
X145162986Y-126121377D02*
X143959632Y-124918023D01*
X144455342Y-124422313D01*
X145658696Y-125625667D01*
X145162986Y-126121377D01*
X145162986Y-126121377D01*
G37*
G36*
X145728743Y-125555621D02*
X144525389Y-124352267D01*
X145021099Y-123856557D01*
X146224453Y-125059911D01*
X145728743Y-125555621D01*
X145728743Y-125555621D01*
G37*
G36*
X145021099Y-123008821D02*
X144525389Y-122513111D01*
X145728743Y-121309757D01*
X146224453Y-121805467D01*
X145021099Y-123008821D01*
X145021099Y-123008821D01*
G37*
G36*
X144455342Y-122443065D02*
X143959632Y-121947355D01*
X145162986Y-120744001D01*
X145658696Y-121239711D01*
X144455342Y-122443065D01*
X144455342Y-122443065D01*
G37*
G36*
X143889586Y-121877308D02*
X143393876Y-121381598D01*
X144597230Y-120178244D01*
X145092940Y-120673954D01*
X143889586Y-121877308D01*
X143889586Y-121877308D01*
G37*
G36*
X143323830Y-121311552D02*
X142828120Y-120815842D01*
X144031474Y-119612488D01*
X144527184Y-120108198D01*
X143323830Y-121311552D01*
X143323830Y-121311552D01*
G37*
G36*
X142758074Y-120745796D02*
X142262364Y-120250086D01*
X143465718Y-119046732D01*
X143961428Y-119542442D01*
X142758074Y-120745796D01*
X142758074Y-120745796D01*
G37*
G36*
X142194114Y-120181836D02*
X141698404Y-119686126D01*
X142901758Y-118482772D01*
X143397468Y-118978482D01*
X142194114Y-120181836D01*
X142194114Y-120181836D01*
G37*
G36*
X141630154Y-119617876D02*
X141134444Y-119122166D01*
X142337798Y-117918812D01*
X142833508Y-118414522D01*
X141630154Y-119617876D01*
X141630154Y-119617876D01*
G37*
G36*
X141064398Y-119052120D02*
X140568688Y-118556410D01*
X141772042Y-117353056D01*
X142267752Y-117848766D01*
X141064398Y-119052120D01*
X141064398Y-119052120D01*
G37*
G36*
X140498642Y-118486364D02*
X140002932Y-117990654D01*
X141206286Y-116787300D01*
X141701996Y-117283010D01*
X140498642Y-118486364D01*
X140498642Y-118486364D01*
G37*
G36*
X139932885Y-117920608D02*
X139437175Y-117424898D01*
X140640529Y-116221544D01*
X141136239Y-116717254D01*
X139932885Y-117920608D01*
X139932885Y-117920608D01*
G37*
G36*
X139367129Y-117354851D02*
X138871419Y-116859141D01*
X140074773Y-115655787D01*
X140570483Y-116151497D01*
X139367129Y-117354851D01*
X139367129Y-117354851D01*
G37*
G36*
X137527973Y-117354851D02*
X136324619Y-116151497D01*
X136820329Y-115655787D01*
X138023683Y-116859141D01*
X137527973Y-117354851D01*
X137527973Y-117354851D01*
G37*
G36*
X136962217Y-117920608D02*
X135758863Y-116717254D01*
X136254573Y-116221544D01*
X137457927Y-117424898D01*
X136962217Y-117920608D01*
X136962217Y-117920608D01*
G37*
G36*
X136396460Y-118486364D02*
X135193106Y-117283010D01*
X135688816Y-116787300D01*
X136892170Y-117990654D01*
X136396460Y-118486364D01*
X136396460Y-118486364D01*
G37*
G36*
X135830704Y-119052120D02*
X134627350Y-117848766D01*
X135123060Y-117353056D01*
X136326414Y-118556410D01*
X135830704Y-119052120D01*
X135830704Y-119052120D01*
G37*
G36*
X135264948Y-119617876D02*
X134061594Y-118414522D01*
X134557304Y-117918812D01*
X135760658Y-119122166D01*
X135264948Y-119617876D01*
X135264948Y-119617876D01*
G37*
G36*
X134700988Y-120181836D02*
X133497634Y-118978482D01*
X133993344Y-118482772D01*
X135196698Y-119686126D01*
X134700988Y-120181836D01*
X134700988Y-120181836D01*
G37*
G36*
X134137028Y-120745796D02*
X132933674Y-119542442D01*
X133429384Y-119046732D01*
X134632738Y-120250086D01*
X134137028Y-120745796D01*
X134137028Y-120745796D01*
G37*
G36*
X133571272Y-121311552D02*
X132367918Y-120108198D01*
X132863628Y-119612488D01*
X134066982Y-120815842D01*
X133571272Y-121311552D01*
X133571272Y-121311552D01*
G37*
G36*
X133005516Y-121877308D02*
X131802162Y-120673954D01*
X132297872Y-120178244D01*
X133501226Y-121381598D01*
X133005516Y-121877308D01*
X133005516Y-121877308D01*
G37*
G36*
X132439760Y-122443065D02*
X131236406Y-121239711D01*
X131732116Y-120744001D01*
X132935470Y-121947355D01*
X132439760Y-122443065D01*
X132439760Y-122443065D01*
G37*
G36*
X131874003Y-123008821D02*
X130670649Y-121805467D01*
X131166359Y-121309757D01*
X132369713Y-122513111D01*
X131874003Y-123008821D01*
X131874003Y-123008821D01*
G37*
G36*
X107798359Y-125555621D02*
X107302649Y-125059911D01*
X108506003Y-123856557D01*
X109001713Y-124352267D01*
X107798359Y-125555621D01*
X107798359Y-125555621D01*
G37*
G36*
X108364116Y-126121377D02*
X107868406Y-125625667D01*
X109071760Y-124422313D01*
X109567470Y-124918023D01*
X108364116Y-126121377D01*
X108364116Y-126121377D01*
G37*
G36*
X108929872Y-126687134D02*
X108434162Y-126191424D01*
X109637516Y-124988070D01*
X110133226Y-125483780D01*
X108929872Y-126687134D01*
X108929872Y-126687134D01*
G37*
G36*
X109495628Y-127252890D02*
X108999918Y-126757180D01*
X110203272Y-125553826D01*
X110698982Y-126049536D01*
X109495628Y-127252890D01*
X109495628Y-127252890D01*
G37*
G36*
X110061384Y-127818646D02*
X109565674Y-127322936D01*
X110769028Y-126119582D01*
X111264738Y-126615292D01*
X110061384Y-127818646D01*
X110061384Y-127818646D01*
G37*
G36*
X110625344Y-128382606D02*
X110129634Y-127886896D01*
X111332988Y-126683542D01*
X111828698Y-127179252D01*
X110625344Y-128382606D01*
X110625344Y-128382606D01*
G37*
G36*
X111189304Y-128946566D02*
X110693594Y-128450856D01*
X111896948Y-127247502D01*
X112392658Y-127743212D01*
X111189304Y-128946566D01*
X111189304Y-128946566D01*
G37*
G36*
X111755060Y-129512322D02*
X111259350Y-129016612D01*
X112462704Y-127813258D01*
X112958414Y-128308968D01*
X111755060Y-129512322D01*
X111755060Y-129512322D01*
G37*
G36*
X112320816Y-130078078D02*
X111825106Y-129582368D01*
X113028460Y-128379014D01*
X113524170Y-128874724D01*
X112320816Y-130078078D01*
X112320816Y-130078078D01*
G37*
G36*
X112886573Y-130643834D02*
X112390863Y-130148124D01*
X113594217Y-128944770D01*
X114089927Y-129440480D01*
X112886573Y-130643834D01*
X112886573Y-130643834D01*
G37*
G36*
X113452329Y-131209591D02*
X112956619Y-130713881D01*
X114159973Y-129510527D01*
X114655683Y-130006237D01*
X113452329Y-131209591D01*
X113452329Y-131209591D01*
G37*
G36*
X116706773Y-131209591D02*
X115503419Y-130006237D01*
X115999129Y-129510527D01*
X117202483Y-130713881D01*
X116706773Y-131209591D01*
X116706773Y-131209591D01*
G37*
G36*
X117272529Y-130643834D02*
X116069175Y-129440480D01*
X116564885Y-128944770D01*
X117768239Y-130148124D01*
X117272529Y-130643834D01*
X117272529Y-130643834D01*
G37*
G36*
X117838286Y-130078078D02*
X116634932Y-128874724D01*
X117130642Y-128379014D01*
X118333996Y-129582368D01*
X117838286Y-130078078D01*
X117838286Y-130078078D01*
G37*
G36*
X118404042Y-129512322D02*
X117200688Y-128308968D01*
X117696398Y-127813258D01*
X118899752Y-129016612D01*
X118404042Y-129512322D01*
X118404042Y-129512322D01*
G37*
G36*
X118969798Y-128946566D02*
X117766444Y-127743212D01*
X118262154Y-127247502D01*
X119465508Y-128450856D01*
X118969798Y-128946566D01*
X118969798Y-128946566D01*
G37*
G36*
X119533758Y-128382606D02*
X118330404Y-127179252D01*
X118826114Y-126683542D01*
X120029468Y-127886896D01*
X119533758Y-128382606D01*
X119533758Y-128382606D01*
G37*
G36*
X120097718Y-127818646D02*
X118894364Y-126615292D01*
X119390074Y-126119582D01*
X120593428Y-127322936D01*
X120097718Y-127818646D01*
X120097718Y-127818646D01*
G37*
G36*
X120663474Y-127252890D02*
X119460120Y-126049536D01*
X119955830Y-125553826D01*
X121159184Y-126757180D01*
X120663474Y-127252890D01*
X120663474Y-127252890D01*
G37*
G36*
X121229230Y-126687134D02*
X120025876Y-125483780D01*
X120521586Y-124988070D01*
X121724940Y-126191424D01*
X121229230Y-126687134D01*
X121229230Y-126687134D01*
G37*
G36*
X121794986Y-126121377D02*
X120591632Y-124918023D01*
X121087342Y-124422313D01*
X122290696Y-125625667D01*
X121794986Y-126121377D01*
X121794986Y-126121377D01*
G37*
G36*
X122360743Y-125555621D02*
X121157389Y-124352267D01*
X121653099Y-123856557D01*
X122856453Y-125059911D01*
X122360743Y-125555621D01*
X122360743Y-125555621D01*
G37*
G36*
X121653099Y-123008821D02*
X121157389Y-122513111D01*
X122360743Y-121309757D01*
X122856453Y-121805467D01*
X121653099Y-123008821D01*
X121653099Y-123008821D01*
G37*
G36*
X121087342Y-122443065D02*
X120591632Y-121947355D01*
X121794986Y-120744001D01*
X122290696Y-121239711D01*
X121087342Y-122443065D01*
X121087342Y-122443065D01*
G37*
G36*
X120521586Y-121877308D02*
X120025876Y-121381598D01*
X121229230Y-120178244D01*
X121724940Y-120673954D01*
X120521586Y-121877308D01*
X120521586Y-121877308D01*
G37*
G36*
X119955830Y-121311552D02*
X119460120Y-120815842D01*
X120663474Y-119612488D01*
X121159184Y-120108198D01*
X119955830Y-121311552D01*
X119955830Y-121311552D01*
G37*
G36*
X119390074Y-120745796D02*
X118894364Y-120250086D01*
X120097718Y-119046732D01*
X120593428Y-119542442D01*
X119390074Y-120745796D01*
X119390074Y-120745796D01*
G37*
G36*
X118826114Y-120181836D02*
X118330404Y-119686126D01*
X119533758Y-118482772D01*
X120029468Y-118978482D01*
X118826114Y-120181836D01*
X118826114Y-120181836D01*
G37*
G36*
X118262154Y-119617876D02*
X117766444Y-119122166D01*
X118969798Y-117918812D01*
X119465508Y-118414522D01*
X118262154Y-119617876D01*
X118262154Y-119617876D01*
G37*
G36*
X117696398Y-119052120D02*
X117200688Y-118556410D01*
X118404042Y-117353056D01*
X118899752Y-117848766D01*
X117696398Y-119052120D01*
X117696398Y-119052120D01*
G37*
G36*
X117130642Y-118486364D02*
X116634932Y-117990654D01*
X117838286Y-116787300D01*
X118333996Y-117283010D01*
X117130642Y-118486364D01*
X117130642Y-118486364D01*
G37*
G36*
X116564885Y-117920608D02*
X116069175Y-117424898D01*
X117272529Y-116221544D01*
X117768239Y-116717254D01*
X116564885Y-117920608D01*
X116564885Y-117920608D01*
G37*
G36*
X115999129Y-117354851D02*
X115503419Y-116859141D01*
X116706773Y-115655787D01*
X117202483Y-116151497D01*
X115999129Y-117354851D01*
X115999129Y-117354851D01*
G37*
G36*
X114159973Y-117354851D02*
X112956619Y-116151497D01*
X113452329Y-115655787D01*
X114655683Y-116859141D01*
X114159973Y-117354851D01*
X114159973Y-117354851D01*
G37*
G36*
X113594217Y-117920608D02*
X112390863Y-116717254D01*
X112886573Y-116221544D01*
X114089927Y-117424898D01*
X113594217Y-117920608D01*
X113594217Y-117920608D01*
G37*
G36*
X113028460Y-118486364D02*
X111825106Y-117283010D01*
X112320816Y-116787300D01*
X113524170Y-117990654D01*
X113028460Y-118486364D01*
X113028460Y-118486364D01*
G37*
G36*
X112462704Y-119052120D02*
X111259350Y-117848766D01*
X111755060Y-117353056D01*
X112958414Y-118556410D01*
X112462704Y-119052120D01*
X112462704Y-119052120D01*
G37*
G36*
X111896948Y-119617876D02*
X110693594Y-118414522D01*
X111189304Y-117918812D01*
X112392658Y-119122166D01*
X111896948Y-119617876D01*
X111896948Y-119617876D01*
G37*
G36*
X111332988Y-120181836D02*
X110129634Y-118978482D01*
X110625344Y-118482772D01*
X111828698Y-119686126D01*
X111332988Y-120181836D01*
X111332988Y-120181836D01*
G37*
G36*
X110769028Y-120745796D02*
X109565674Y-119542442D01*
X110061384Y-119046732D01*
X111264738Y-120250086D01*
X110769028Y-120745796D01*
X110769028Y-120745796D01*
G37*
G36*
X110203272Y-121311552D02*
X108999918Y-120108198D01*
X109495628Y-119612488D01*
X110698982Y-120815842D01*
X110203272Y-121311552D01*
X110203272Y-121311552D01*
G37*
G36*
X109637516Y-121877308D02*
X108434162Y-120673954D01*
X108929872Y-120178244D01*
X110133226Y-121381598D01*
X109637516Y-121877308D01*
X109637516Y-121877308D01*
G37*
G36*
X109071760Y-122443065D02*
X107868406Y-121239711D01*
X108364116Y-120744001D01*
X109567470Y-121947355D01*
X109071760Y-122443065D01*
X109071760Y-122443065D01*
G37*
G36*
X108506003Y-123008821D02*
X107302649Y-121805467D01*
X107798359Y-121309757D01*
X109001713Y-122513111D01*
X108506003Y-123008821D01*
X108506003Y-123008821D01*
G37*
G36*
X84430359Y-125555621D02*
X83934649Y-125059911D01*
X85138003Y-123856557D01*
X85633713Y-124352267D01*
X84430359Y-125555621D01*
X84430359Y-125555621D01*
G37*
G36*
X84996116Y-126121377D02*
X84500406Y-125625667D01*
X85703760Y-124422313D01*
X86199470Y-124918023D01*
X84996116Y-126121377D01*
X84996116Y-126121377D01*
G37*
G36*
X85561872Y-126687134D02*
X85066162Y-126191424D01*
X86269516Y-124988070D01*
X86765226Y-125483780D01*
X85561872Y-126687134D01*
X85561872Y-126687134D01*
G37*
G36*
X86127628Y-127252890D02*
X85631918Y-126757180D01*
X86835272Y-125553826D01*
X87330982Y-126049536D01*
X86127628Y-127252890D01*
X86127628Y-127252890D01*
G37*
G36*
X86693384Y-127818646D02*
X86197674Y-127322936D01*
X87401028Y-126119582D01*
X87896738Y-126615292D01*
X86693384Y-127818646D01*
X86693384Y-127818646D01*
G37*
G36*
X87257344Y-128382606D02*
X86761634Y-127886896D01*
X87964988Y-126683542D01*
X88460698Y-127179252D01*
X87257344Y-128382606D01*
X87257344Y-128382606D01*
G37*
G36*
X87821304Y-128946566D02*
X87325594Y-128450856D01*
X88528948Y-127247502D01*
X89024658Y-127743212D01*
X87821304Y-128946566D01*
X87821304Y-128946566D01*
G37*
G36*
X88387060Y-129512322D02*
X87891350Y-129016612D01*
X89094704Y-127813258D01*
X89590414Y-128308968D01*
X88387060Y-129512322D01*
X88387060Y-129512322D01*
G37*
G36*
X88952816Y-130078078D02*
X88457106Y-129582368D01*
X89660460Y-128379014D01*
X90156170Y-128874724D01*
X88952816Y-130078078D01*
X88952816Y-130078078D01*
G37*
G36*
X89518573Y-130643834D02*
X89022863Y-130148124D01*
X90226217Y-128944770D01*
X90721927Y-129440480D01*
X89518573Y-130643834D01*
X89518573Y-130643834D01*
G37*
G36*
X90084329Y-131209591D02*
X89588619Y-130713881D01*
X90791973Y-129510527D01*
X91287683Y-130006237D01*
X90084329Y-131209591D01*
X90084329Y-131209591D01*
G37*
G36*
X93338773Y-131209591D02*
X92135419Y-130006237D01*
X92631129Y-129510527D01*
X93834483Y-130713881D01*
X93338773Y-131209591D01*
X93338773Y-131209591D01*
G37*
G36*
X93904529Y-130643834D02*
X92701175Y-129440480D01*
X93196885Y-128944770D01*
X94400239Y-130148124D01*
X93904529Y-130643834D01*
X93904529Y-130643834D01*
G37*
G36*
X94470286Y-130078078D02*
X93266932Y-128874724D01*
X93762642Y-128379014D01*
X94965996Y-129582368D01*
X94470286Y-130078078D01*
X94470286Y-130078078D01*
G37*
G36*
X95036042Y-129512322D02*
X93832688Y-128308968D01*
X94328398Y-127813258D01*
X95531752Y-129016612D01*
X95036042Y-129512322D01*
X95036042Y-129512322D01*
G37*
G36*
X95601798Y-128946566D02*
X94398444Y-127743212D01*
X94894154Y-127247502D01*
X96097508Y-128450856D01*
X95601798Y-128946566D01*
X95601798Y-128946566D01*
G37*
G36*
X96165758Y-128382606D02*
X94962404Y-127179252D01*
X95458114Y-126683542D01*
X96661468Y-127886896D01*
X96165758Y-128382606D01*
X96165758Y-128382606D01*
G37*
G36*
X96729718Y-127818646D02*
X95526364Y-126615292D01*
X96022074Y-126119582D01*
X97225428Y-127322936D01*
X96729718Y-127818646D01*
X96729718Y-127818646D01*
G37*
G36*
X97295474Y-127252890D02*
X96092120Y-126049536D01*
X96587830Y-125553826D01*
X97791184Y-126757180D01*
X97295474Y-127252890D01*
X97295474Y-127252890D01*
G37*
G36*
X97861230Y-126687134D02*
X96657876Y-125483780D01*
X97153586Y-124988070D01*
X98356940Y-126191424D01*
X97861230Y-126687134D01*
X97861230Y-126687134D01*
G37*
G36*
X98426986Y-126121377D02*
X97223632Y-124918023D01*
X97719342Y-124422313D01*
X98922696Y-125625667D01*
X98426986Y-126121377D01*
X98426986Y-126121377D01*
G37*
G36*
X98992743Y-125555621D02*
X97789389Y-124352267D01*
X98285099Y-123856557D01*
X99488453Y-125059911D01*
X98992743Y-125555621D01*
X98992743Y-125555621D01*
G37*
G36*
X98285099Y-123008821D02*
X97789389Y-122513111D01*
X98992743Y-121309757D01*
X99488453Y-121805467D01*
X98285099Y-123008821D01*
X98285099Y-123008821D01*
G37*
G36*
X97719342Y-122443065D02*
X97223632Y-121947355D01*
X98426986Y-120744001D01*
X98922696Y-121239711D01*
X97719342Y-122443065D01*
X97719342Y-122443065D01*
G37*
G36*
X97153586Y-121877308D02*
X96657876Y-121381598D01*
X97861230Y-120178244D01*
X98356940Y-120673954D01*
X97153586Y-121877308D01*
X97153586Y-121877308D01*
G37*
G36*
X96587830Y-121311552D02*
X96092120Y-120815842D01*
X97295474Y-119612488D01*
X97791184Y-120108198D01*
X96587830Y-121311552D01*
X96587830Y-121311552D01*
G37*
G36*
X96022074Y-120745796D02*
X95526364Y-120250086D01*
X96729718Y-119046732D01*
X97225428Y-119542442D01*
X96022074Y-120745796D01*
X96022074Y-120745796D01*
G37*
G36*
X95458114Y-120181836D02*
X94962404Y-119686126D01*
X96165758Y-118482772D01*
X96661468Y-118978482D01*
X95458114Y-120181836D01*
X95458114Y-120181836D01*
G37*
G36*
X94894154Y-119617876D02*
X94398444Y-119122166D01*
X95601798Y-117918812D01*
X96097508Y-118414522D01*
X94894154Y-119617876D01*
X94894154Y-119617876D01*
G37*
G36*
X94328398Y-119052120D02*
X93832688Y-118556410D01*
X95036042Y-117353056D01*
X95531752Y-117848766D01*
X94328398Y-119052120D01*
X94328398Y-119052120D01*
G37*
G36*
X93762642Y-118486364D02*
X93266932Y-117990654D01*
X94470286Y-116787300D01*
X94965996Y-117283010D01*
X93762642Y-118486364D01*
X93762642Y-118486364D01*
G37*
G36*
X93196885Y-117920608D02*
X92701175Y-117424898D01*
X93904529Y-116221544D01*
X94400239Y-116717254D01*
X93196885Y-117920608D01*
X93196885Y-117920608D01*
G37*
G36*
X92631129Y-117354851D02*
X92135419Y-116859141D01*
X93338773Y-115655787D01*
X93834483Y-116151497D01*
X92631129Y-117354851D01*
X92631129Y-117354851D01*
G37*
G36*
X90791973Y-117354851D02*
X89588619Y-116151497D01*
X90084329Y-115655787D01*
X91287683Y-116859141D01*
X90791973Y-117354851D01*
X90791973Y-117354851D01*
G37*
G36*
X90226217Y-117920608D02*
X89022863Y-116717254D01*
X89518573Y-116221544D01*
X90721927Y-117424898D01*
X90226217Y-117920608D01*
X90226217Y-117920608D01*
G37*
G36*
X89660460Y-118486364D02*
X88457106Y-117283010D01*
X88952816Y-116787300D01*
X90156170Y-117990654D01*
X89660460Y-118486364D01*
X89660460Y-118486364D01*
G37*
G36*
X89094704Y-119052120D02*
X87891350Y-117848766D01*
X88387060Y-117353056D01*
X89590414Y-118556410D01*
X89094704Y-119052120D01*
X89094704Y-119052120D01*
G37*
G36*
X88528948Y-119617876D02*
X87325594Y-118414522D01*
X87821304Y-117918812D01*
X89024658Y-119122166D01*
X88528948Y-119617876D01*
X88528948Y-119617876D01*
G37*
G36*
X87964988Y-120181836D02*
X86761634Y-118978482D01*
X87257344Y-118482772D01*
X88460698Y-119686126D01*
X87964988Y-120181836D01*
X87964988Y-120181836D01*
G37*
G36*
X87401028Y-120745796D02*
X86197674Y-119542442D01*
X86693384Y-119046732D01*
X87896738Y-120250086D01*
X87401028Y-120745796D01*
X87401028Y-120745796D01*
G37*
G36*
X86835272Y-121311552D02*
X85631918Y-120108198D01*
X86127628Y-119612488D01*
X87330982Y-120815842D01*
X86835272Y-121311552D01*
X86835272Y-121311552D01*
G37*
G36*
X86269516Y-121877308D02*
X85066162Y-120673954D01*
X85561872Y-120178244D01*
X86765226Y-121381598D01*
X86269516Y-121877308D01*
X86269516Y-121877308D01*
G37*
G36*
X85703760Y-122443065D02*
X84500406Y-121239711D01*
X84996116Y-120744001D01*
X86199470Y-121947355D01*
X85703760Y-122443065D01*
X85703760Y-122443065D01*
G37*
G36*
X85138003Y-123008821D02*
X83934649Y-121805467D01*
X84430359Y-121309757D01*
X85633713Y-122513111D01*
X85138003Y-123008821D01*
X85138003Y-123008821D01*
G37*
G36*
X61062359Y-125555621D02*
X60566649Y-125059911D01*
X61770003Y-123856557D01*
X62265713Y-124352267D01*
X61062359Y-125555621D01*
X61062359Y-125555621D01*
G37*
G36*
X61628116Y-126121377D02*
X61132406Y-125625667D01*
X62335760Y-124422313D01*
X62831470Y-124918023D01*
X61628116Y-126121377D01*
X61628116Y-126121377D01*
G37*
G36*
X62193872Y-126687134D02*
X61698162Y-126191424D01*
X62901516Y-124988070D01*
X63397226Y-125483780D01*
X62193872Y-126687134D01*
X62193872Y-126687134D01*
G37*
G36*
X62759628Y-127252890D02*
X62263918Y-126757180D01*
X63467272Y-125553826D01*
X63962982Y-126049536D01*
X62759628Y-127252890D01*
X62759628Y-127252890D01*
G37*
G36*
X63325384Y-127818646D02*
X62829674Y-127322936D01*
X64033028Y-126119582D01*
X64528738Y-126615292D01*
X63325384Y-127818646D01*
X63325384Y-127818646D01*
G37*
G36*
X63889344Y-128382606D02*
X63393634Y-127886896D01*
X64596988Y-126683542D01*
X65092698Y-127179252D01*
X63889344Y-128382606D01*
X63889344Y-128382606D01*
G37*
G36*
X64453304Y-128946566D02*
X63957594Y-128450856D01*
X65160948Y-127247502D01*
X65656658Y-127743212D01*
X64453304Y-128946566D01*
X64453304Y-128946566D01*
G37*
G36*
X65019060Y-129512322D02*
X64523350Y-129016612D01*
X65726704Y-127813258D01*
X66222414Y-128308968D01*
X65019060Y-129512322D01*
X65019060Y-129512322D01*
G37*
G36*
X65584816Y-130078078D02*
X65089106Y-129582368D01*
X66292460Y-128379014D01*
X66788170Y-128874724D01*
X65584816Y-130078078D01*
X65584816Y-130078078D01*
G37*
G36*
X66150573Y-130643834D02*
X65654863Y-130148124D01*
X66858217Y-128944770D01*
X67353927Y-129440480D01*
X66150573Y-130643834D01*
X66150573Y-130643834D01*
G37*
G36*
X66716329Y-131209591D02*
X66220619Y-130713881D01*
X67423973Y-129510527D01*
X67919683Y-130006237D01*
X66716329Y-131209591D01*
X66716329Y-131209591D01*
G37*
G36*
X69970773Y-131209591D02*
X68767419Y-130006237D01*
X69263129Y-129510527D01*
X70466483Y-130713881D01*
X69970773Y-131209591D01*
X69970773Y-131209591D01*
G37*
G36*
X70536529Y-130643834D02*
X69333175Y-129440480D01*
X69828885Y-128944770D01*
X71032239Y-130148124D01*
X70536529Y-130643834D01*
X70536529Y-130643834D01*
G37*
G36*
X71102286Y-130078078D02*
X69898932Y-128874724D01*
X70394642Y-128379014D01*
X71597996Y-129582368D01*
X71102286Y-130078078D01*
X71102286Y-130078078D01*
G37*
G36*
X71668042Y-129512322D02*
X70464688Y-128308968D01*
X70960398Y-127813258D01*
X72163752Y-129016612D01*
X71668042Y-129512322D01*
X71668042Y-129512322D01*
G37*
G36*
X72233798Y-128946566D02*
X71030444Y-127743212D01*
X71526154Y-127247502D01*
X72729508Y-128450856D01*
X72233798Y-128946566D01*
X72233798Y-128946566D01*
G37*
G36*
X72797758Y-128382606D02*
X71594404Y-127179252D01*
X72090114Y-126683542D01*
X73293468Y-127886896D01*
X72797758Y-128382606D01*
X72797758Y-128382606D01*
G37*
G36*
X73361718Y-127818646D02*
X72158364Y-126615292D01*
X72654074Y-126119582D01*
X73857428Y-127322936D01*
X73361718Y-127818646D01*
X73361718Y-127818646D01*
G37*
G36*
X73927474Y-127252890D02*
X72724120Y-126049536D01*
X73219830Y-125553826D01*
X74423184Y-126757180D01*
X73927474Y-127252890D01*
X73927474Y-127252890D01*
G37*
G36*
X74493230Y-126687134D02*
X73289876Y-125483780D01*
X73785586Y-124988070D01*
X74988940Y-126191424D01*
X74493230Y-126687134D01*
X74493230Y-126687134D01*
G37*
G36*
X75058986Y-126121377D02*
X73855632Y-124918023D01*
X74351342Y-124422313D01*
X75554696Y-125625667D01*
X75058986Y-126121377D01*
X75058986Y-126121377D01*
G37*
G36*
X75624743Y-125555621D02*
X74421389Y-124352267D01*
X74917099Y-123856557D01*
X76120453Y-125059911D01*
X75624743Y-125555621D01*
X75624743Y-125555621D01*
G37*
G36*
X74917099Y-123008821D02*
X74421389Y-122513111D01*
X75624743Y-121309757D01*
X76120453Y-121805467D01*
X74917099Y-123008821D01*
X74917099Y-123008821D01*
G37*
G36*
X74351342Y-122443065D02*
X73855632Y-121947355D01*
X75058986Y-120744001D01*
X75554696Y-121239711D01*
X74351342Y-122443065D01*
X74351342Y-122443065D01*
G37*
G36*
X73785586Y-121877308D02*
X73289876Y-121381598D01*
X74493230Y-120178244D01*
X74988940Y-120673954D01*
X73785586Y-121877308D01*
X73785586Y-121877308D01*
G37*
G36*
X73219830Y-121311552D02*
X72724120Y-120815842D01*
X73927474Y-119612488D01*
X74423184Y-120108198D01*
X73219830Y-121311552D01*
X73219830Y-121311552D01*
G37*
G36*
X72654074Y-120745796D02*
X72158364Y-120250086D01*
X73361718Y-119046732D01*
X73857428Y-119542442D01*
X72654074Y-120745796D01*
X72654074Y-120745796D01*
G37*
G36*
X72090114Y-120181836D02*
X71594404Y-119686126D01*
X72797758Y-118482772D01*
X73293468Y-118978482D01*
X72090114Y-120181836D01*
X72090114Y-120181836D01*
G37*
G36*
X71526154Y-119617876D02*
X71030444Y-119122166D01*
X72233798Y-117918812D01*
X72729508Y-118414522D01*
X71526154Y-119617876D01*
X71526154Y-119617876D01*
G37*
G36*
X70960398Y-119052120D02*
X70464688Y-118556410D01*
X71668042Y-117353056D01*
X72163752Y-117848766D01*
X70960398Y-119052120D01*
X70960398Y-119052120D01*
G37*
G36*
X70394642Y-118486364D02*
X69898932Y-117990654D01*
X71102286Y-116787300D01*
X71597996Y-117283010D01*
X70394642Y-118486364D01*
X70394642Y-118486364D01*
G37*
G36*
X69828885Y-117920608D02*
X69333175Y-117424898D01*
X70536529Y-116221544D01*
X71032239Y-116717254D01*
X69828885Y-117920608D01*
X69828885Y-117920608D01*
G37*
G36*
X69263129Y-117354851D02*
X68767419Y-116859141D01*
X69970773Y-115655787D01*
X70466483Y-116151497D01*
X69263129Y-117354851D01*
X69263129Y-117354851D01*
G37*
G36*
X67423973Y-117354851D02*
X66220619Y-116151497D01*
X66716329Y-115655787D01*
X67919683Y-116859141D01*
X67423973Y-117354851D01*
X67423973Y-117354851D01*
G37*
G36*
X66858217Y-117920608D02*
X65654863Y-116717254D01*
X66150573Y-116221544D01*
X67353927Y-117424898D01*
X66858217Y-117920608D01*
X66858217Y-117920608D01*
G37*
G36*
X66292460Y-118486364D02*
X65089106Y-117283010D01*
X65584816Y-116787300D01*
X66788170Y-117990654D01*
X66292460Y-118486364D01*
X66292460Y-118486364D01*
G37*
G36*
X65726704Y-119052120D02*
X64523350Y-117848766D01*
X65019060Y-117353056D01*
X66222414Y-118556410D01*
X65726704Y-119052120D01*
X65726704Y-119052120D01*
G37*
G36*
X65160948Y-119617876D02*
X63957594Y-118414522D01*
X64453304Y-117918812D01*
X65656658Y-119122166D01*
X65160948Y-119617876D01*
X65160948Y-119617876D01*
G37*
G36*
X64596988Y-120181836D02*
X63393634Y-118978482D01*
X63889344Y-118482772D01*
X65092698Y-119686126D01*
X64596988Y-120181836D01*
X64596988Y-120181836D01*
G37*
G36*
X64033028Y-120745796D02*
X62829674Y-119542442D01*
X63325384Y-119046732D01*
X64528738Y-120250086D01*
X64033028Y-120745796D01*
X64033028Y-120745796D01*
G37*
G36*
X63467272Y-121311552D02*
X62263918Y-120108198D01*
X62759628Y-119612488D01*
X63962982Y-120815842D01*
X63467272Y-121311552D01*
X63467272Y-121311552D01*
G37*
G36*
X62901516Y-121877308D02*
X61698162Y-120673954D01*
X62193872Y-120178244D01*
X63397226Y-121381598D01*
X62901516Y-121877308D01*
X62901516Y-121877308D01*
G37*
G36*
X62335760Y-122443065D02*
X61132406Y-121239711D01*
X61628116Y-120744001D01*
X62831470Y-121947355D01*
X62335760Y-122443065D01*
X62335760Y-122443065D01*
G37*
G36*
X61770003Y-123008821D02*
X60566649Y-121805467D01*
X61062359Y-121309757D01*
X62265713Y-122513111D01*
X61770003Y-123008821D01*
X61770003Y-123008821D01*
G37*
G36*
X224638359Y-69675621D02*
X224142649Y-69179911D01*
X225346003Y-67976557D01*
X225841713Y-68472267D01*
X224638359Y-69675621D01*
X224638359Y-69675621D01*
G37*
G36*
X225204116Y-70241377D02*
X224708406Y-69745667D01*
X225911760Y-68542313D01*
X226407470Y-69038023D01*
X225204116Y-70241377D01*
X225204116Y-70241377D01*
G37*
G36*
X225769872Y-70807134D02*
X225274162Y-70311424D01*
X226477516Y-69108070D01*
X226973226Y-69603780D01*
X225769872Y-70807134D01*
X225769872Y-70807134D01*
G37*
G36*
X226335628Y-71372890D02*
X225839918Y-70877180D01*
X227043272Y-69673826D01*
X227538982Y-70169536D01*
X226335628Y-71372890D01*
X226335628Y-71372890D01*
G37*
G36*
X226901384Y-71938646D02*
X226405674Y-71442936D01*
X227609028Y-70239582D01*
X228104738Y-70735292D01*
X226901384Y-71938646D01*
X226901384Y-71938646D01*
G37*
G36*
X227465344Y-72502606D02*
X226969634Y-72006896D01*
X228172988Y-70803542D01*
X228668698Y-71299252D01*
X227465344Y-72502606D01*
X227465344Y-72502606D01*
G37*
G36*
X228029304Y-73066566D02*
X227533594Y-72570856D01*
X228736948Y-71367502D01*
X229232658Y-71863212D01*
X228029304Y-73066566D01*
X228029304Y-73066566D01*
G37*
G36*
X228595060Y-73632322D02*
X228099350Y-73136612D01*
X229302704Y-71933258D01*
X229798414Y-72428968D01*
X228595060Y-73632322D01*
X228595060Y-73632322D01*
G37*
G36*
X229160816Y-74198078D02*
X228665106Y-73702368D01*
X229868460Y-72499014D01*
X230364170Y-72994724D01*
X229160816Y-74198078D01*
X229160816Y-74198078D01*
G37*
G36*
X229726573Y-74763834D02*
X229230863Y-74268124D01*
X230434217Y-73064770D01*
X230929927Y-73560480D01*
X229726573Y-74763834D01*
X229726573Y-74763834D01*
G37*
G36*
X230292329Y-75329591D02*
X229796619Y-74833881D01*
X230999973Y-73630527D01*
X231495683Y-74126237D01*
X230292329Y-75329591D01*
X230292329Y-75329591D01*
G37*
G36*
X233546773Y-75329591D02*
X232343419Y-74126237D01*
X232839129Y-73630527D01*
X234042483Y-74833881D01*
X233546773Y-75329591D01*
X233546773Y-75329591D01*
G37*
G36*
X234112529Y-74763834D02*
X232909175Y-73560480D01*
X233404885Y-73064770D01*
X234608239Y-74268124D01*
X234112529Y-74763834D01*
X234112529Y-74763834D01*
G37*
G36*
X234678286Y-74198078D02*
X233474932Y-72994724D01*
X233970642Y-72499014D01*
X235173996Y-73702368D01*
X234678286Y-74198078D01*
X234678286Y-74198078D01*
G37*
G36*
X235244042Y-73632322D02*
X234040688Y-72428968D01*
X234536398Y-71933258D01*
X235739752Y-73136612D01*
X235244042Y-73632322D01*
X235244042Y-73632322D01*
G37*
G36*
X235809798Y-73066566D02*
X234606444Y-71863212D01*
X235102154Y-71367502D01*
X236305508Y-72570856D01*
X235809798Y-73066566D01*
X235809798Y-73066566D01*
G37*
G36*
X236373758Y-72502606D02*
X235170404Y-71299252D01*
X235666114Y-70803542D01*
X236869468Y-72006896D01*
X236373758Y-72502606D01*
X236373758Y-72502606D01*
G37*
G36*
X236937718Y-71938646D02*
X235734364Y-70735292D01*
X236230074Y-70239582D01*
X237433428Y-71442936D01*
X236937718Y-71938646D01*
X236937718Y-71938646D01*
G37*
G36*
X237503474Y-71372890D02*
X236300120Y-70169536D01*
X236795830Y-69673826D01*
X237999184Y-70877180D01*
X237503474Y-71372890D01*
X237503474Y-71372890D01*
G37*
G36*
X238069230Y-70807134D02*
X236865876Y-69603780D01*
X237361586Y-69108070D01*
X238564940Y-70311424D01*
X238069230Y-70807134D01*
X238069230Y-70807134D01*
G37*
G36*
X238634986Y-70241377D02*
X237431632Y-69038023D01*
X237927342Y-68542313D01*
X239130696Y-69745667D01*
X238634986Y-70241377D01*
X238634986Y-70241377D01*
G37*
G36*
X239200743Y-69675621D02*
X237997389Y-68472267D01*
X238493099Y-67976557D01*
X239696453Y-69179911D01*
X239200743Y-69675621D01*
X239200743Y-69675621D01*
G37*
G36*
X238493099Y-67128821D02*
X237997389Y-66633111D01*
X239200743Y-65429757D01*
X239696453Y-65925467D01*
X238493099Y-67128821D01*
X238493099Y-67128821D01*
G37*
G36*
X237927342Y-66563065D02*
X237431632Y-66067355D01*
X238634986Y-64864001D01*
X239130696Y-65359711D01*
X237927342Y-66563065D01*
X237927342Y-66563065D01*
G37*
G36*
X237361586Y-65997308D02*
X236865876Y-65501598D01*
X238069230Y-64298244D01*
X238564940Y-64793954D01*
X237361586Y-65997308D01*
X237361586Y-65997308D01*
G37*
G36*
X236795830Y-65431552D02*
X236300120Y-64935842D01*
X237503474Y-63732488D01*
X237999184Y-64228198D01*
X236795830Y-65431552D01*
X236795830Y-65431552D01*
G37*
G36*
X236230074Y-64865796D02*
X235734364Y-64370086D01*
X236937718Y-63166732D01*
X237433428Y-63662442D01*
X236230074Y-64865796D01*
X236230074Y-64865796D01*
G37*
G36*
X235666114Y-64301836D02*
X235170404Y-63806126D01*
X236373758Y-62602772D01*
X236869468Y-63098482D01*
X235666114Y-64301836D01*
X235666114Y-64301836D01*
G37*
G36*
X235102154Y-63737876D02*
X234606444Y-63242166D01*
X235809798Y-62038812D01*
X236305508Y-62534522D01*
X235102154Y-63737876D01*
X235102154Y-63737876D01*
G37*
G36*
X234536398Y-63172120D02*
X234040688Y-62676410D01*
X235244042Y-61473056D01*
X235739752Y-61968766D01*
X234536398Y-63172120D01*
X234536398Y-63172120D01*
G37*
G36*
X233970642Y-62606364D02*
X233474932Y-62110654D01*
X234678286Y-60907300D01*
X235173996Y-61403010D01*
X233970642Y-62606364D01*
X233970642Y-62606364D01*
G37*
G36*
X233404885Y-62040608D02*
X232909175Y-61544898D01*
X234112529Y-60341544D01*
X234608239Y-60837254D01*
X233404885Y-62040608D01*
X233404885Y-62040608D01*
G37*
G36*
X232839129Y-61474851D02*
X232343419Y-60979141D01*
X233546773Y-59775787D01*
X234042483Y-60271497D01*
X232839129Y-61474851D01*
X232839129Y-61474851D01*
G37*
G36*
X230999973Y-61474851D02*
X229796619Y-60271497D01*
X230292329Y-59775787D01*
X231495683Y-60979141D01*
X230999973Y-61474851D01*
X230999973Y-61474851D01*
G37*
G36*
X230434217Y-62040608D02*
X229230863Y-60837254D01*
X229726573Y-60341544D01*
X230929927Y-61544898D01*
X230434217Y-62040608D01*
X230434217Y-62040608D01*
G37*
G36*
X229868460Y-62606364D02*
X228665106Y-61403010D01*
X229160816Y-60907300D01*
X230364170Y-62110654D01*
X229868460Y-62606364D01*
X229868460Y-62606364D01*
G37*
G36*
X229302704Y-63172120D02*
X228099350Y-61968766D01*
X228595060Y-61473056D01*
X229798414Y-62676410D01*
X229302704Y-63172120D01*
X229302704Y-63172120D01*
G37*
G36*
X228736948Y-63737876D02*
X227533594Y-62534522D01*
X228029304Y-62038812D01*
X229232658Y-63242166D01*
X228736948Y-63737876D01*
X228736948Y-63737876D01*
G37*
G36*
X228172988Y-64301836D02*
X226969634Y-63098482D01*
X227465344Y-62602772D01*
X228668698Y-63806126D01*
X228172988Y-64301836D01*
X228172988Y-64301836D01*
G37*
G36*
X227609028Y-64865796D02*
X226405674Y-63662442D01*
X226901384Y-63166732D01*
X228104738Y-64370086D01*
X227609028Y-64865796D01*
X227609028Y-64865796D01*
G37*
G36*
X227043272Y-65431552D02*
X225839918Y-64228198D01*
X226335628Y-63732488D01*
X227538982Y-64935842D01*
X227043272Y-65431552D01*
X227043272Y-65431552D01*
G37*
G36*
X226477516Y-65997308D02*
X225274162Y-64793954D01*
X225769872Y-64298244D01*
X226973226Y-65501598D01*
X226477516Y-65997308D01*
X226477516Y-65997308D01*
G37*
G36*
X225911760Y-66563065D02*
X224708406Y-65359711D01*
X225204116Y-64864001D01*
X226407470Y-66067355D01*
X225911760Y-66563065D01*
X225911760Y-66563065D01*
G37*
G36*
X225346003Y-67128821D02*
X224142649Y-65925467D01*
X224638359Y-65429757D01*
X225841713Y-66633111D01*
X225346003Y-67128821D01*
X225346003Y-67128821D01*
G37*
G36*
X201270359Y-69675621D02*
X200774649Y-69179911D01*
X201978003Y-67976557D01*
X202473713Y-68472267D01*
X201270359Y-69675621D01*
X201270359Y-69675621D01*
G37*
G36*
X201836116Y-70241377D02*
X201340406Y-69745667D01*
X202543760Y-68542313D01*
X203039470Y-69038023D01*
X201836116Y-70241377D01*
X201836116Y-70241377D01*
G37*
G36*
X202401872Y-70807134D02*
X201906162Y-70311424D01*
X203109516Y-69108070D01*
X203605226Y-69603780D01*
X202401872Y-70807134D01*
X202401872Y-70807134D01*
G37*
G36*
X202967628Y-71372890D02*
X202471918Y-70877180D01*
X203675272Y-69673826D01*
X204170982Y-70169536D01*
X202967628Y-71372890D01*
X202967628Y-71372890D01*
G37*
G36*
X203533384Y-71938646D02*
X203037674Y-71442936D01*
X204241028Y-70239582D01*
X204736738Y-70735292D01*
X203533384Y-71938646D01*
X203533384Y-71938646D01*
G37*
G36*
X204097344Y-72502606D02*
X203601634Y-72006896D01*
X204804988Y-70803542D01*
X205300698Y-71299252D01*
X204097344Y-72502606D01*
X204097344Y-72502606D01*
G37*
G36*
X204661304Y-73066566D02*
X204165594Y-72570856D01*
X205368948Y-71367502D01*
X205864658Y-71863212D01*
X204661304Y-73066566D01*
X204661304Y-73066566D01*
G37*
G36*
X205227060Y-73632322D02*
X204731350Y-73136612D01*
X205934704Y-71933258D01*
X206430414Y-72428968D01*
X205227060Y-73632322D01*
X205227060Y-73632322D01*
G37*
G36*
X205792816Y-74198078D02*
X205297106Y-73702368D01*
X206500460Y-72499014D01*
X206996170Y-72994724D01*
X205792816Y-74198078D01*
X205792816Y-74198078D01*
G37*
G36*
X206358573Y-74763834D02*
X205862863Y-74268124D01*
X207066217Y-73064770D01*
X207561927Y-73560480D01*
X206358573Y-74763834D01*
X206358573Y-74763834D01*
G37*
G36*
X206924329Y-75329591D02*
X206428619Y-74833881D01*
X207631973Y-73630527D01*
X208127683Y-74126237D01*
X206924329Y-75329591D01*
X206924329Y-75329591D01*
G37*
G36*
X210178773Y-75329591D02*
X208975419Y-74126237D01*
X209471129Y-73630527D01*
X210674483Y-74833881D01*
X210178773Y-75329591D01*
X210178773Y-75329591D01*
G37*
G36*
X210744529Y-74763834D02*
X209541175Y-73560480D01*
X210036885Y-73064770D01*
X211240239Y-74268124D01*
X210744529Y-74763834D01*
X210744529Y-74763834D01*
G37*
G36*
X211310286Y-74198078D02*
X210106932Y-72994724D01*
X210602642Y-72499014D01*
X211805996Y-73702368D01*
X211310286Y-74198078D01*
X211310286Y-74198078D01*
G37*
G36*
X211876042Y-73632322D02*
X210672688Y-72428968D01*
X211168398Y-71933258D01*
X212371752Y-73136612D01*
X211876042Y-73632322D01*
X211876042Y-73632322D01*
G37*
G36*
X212441798Y-73066566D02*
X211238444Y-71863212D01*
X211734154Y-71367502D01*
X212937508Y-72570856D01*
X212441798Y-73066566D01*
X212441798Y-73066566D01*
G37*
G36*
X213005758Y-72502606D02*
X211802404Y-71299252D01*
X212298114Y-70803542D01*
X213501468Y-72006896D01*
X213005758Y-72502606D01*
X213005758Y-72502606D01*
G37*
G36*
X213569718Y-71938646D02*
X212366364Y-70735292D01*
X212862074Y-70239582D01*
X214065428Y-71442936D01*
X213569718Y-71938646D01*
X213569718Y-71938646D01*
G37*
G36*
X214135474Y-71372890D02*
X212932120Y-70169536D01*
X213427830Y-69673826D01*
X214631184Y-70877180D01*
X214135474Y-71372890D01*
X214135474Y-71372890D01*
G37*
G36*
X214701230Y-70807134D02*
X213497876Y-69603780D01*
X213993586Y-69108070D01*
X215196940Y-70311424D01*
X214701230Y-70807134D01*
X214701230Y-70807134D01*
G37*
G36*
X215266986Y-70241377D02*
X214063632Y-69038023D01*
X214559342Y-68542313D01*
X215762696Y-69745667D01*
X215266986Y-70241377D01*
X215266986Y-70241377D01*
G37*
G36*
X215832743Y-69675621D02*
X214629389Y-68472267D01*
X215125099Y-67976557D01*
X216328453Y-69179911D01*
X215832743Y-69675621D01*
X215832743Y-69675621D01*
G37*
G36*
X215125099Y-67128821D02*
X214629389Y-66633111D01*
X215832743Y-65429757D01*
X216328453Y-65925467D01*
X215125099Y-67128821D01*
X215125099Y-67128821D01*
G37*
G36*
X214559342Y-66563065D02*
X214063632Y-66067355D01*
X215266986Y-64864001D01*
X215762696Y-65359711D01*
X214559342Y-66563065D01*
X214559342Y-66563065D01*
G37*
G36*
X213993586Y-65997308D02*
X213497876Y-65501598D01*
X214701230Y-64298244D01*
X215196940Y-64793954D01*
X213993586Y-65997308D01*
X213993586Y-65997308D01*
G37*
G36*
X213427830Y-65431552D02*
X212932120Y-64935842D01*
X214135474Y-63732488D01*
X214631184Y-64228198D01*
X213427830Y-65431552D01*
X213427830Y-65431552D01*
G37*
G36*
X212862074Y-64865796D02*
X212366364Y-64370086D01*
X213569718Y-63166732D01*
X214065428Y-63662442D01*
X212862074Y-64865796D01*
X212862074Y-64865796D01*
G37*
G36*
X212298114Y-64301836D02*
X211802404Y-63806126D01*
X213005758Y-62602772D01*
X213501468Y-63098482D01*
X212298114Y-64301836D01*
X212298114Y-64301836D01*
G37*
G36*
X211734154Y-63737876D02*
X211238444Y-63242166D01*
X212441798Y-62038812D01*
X212937508Y-62534522D01*
X211734154Y-63737876D01*
X211734154Y-63737876D01*
G37*
G36*
X211168398Y-63172120D02*
X210672688Y-62676410D01*
X211876042Y-61473056D01*
X212371752Y-61968766D01*
X211168398Y-63172120D01*
X211168398Y-63172120D01*
G37*
G36*
X210602642Y-62606364D02*
X210106932Y-62110654D01*
X211310286Y-60907300D01*
X211805996Y-61403010D01*
X210602642Y-62606364D01*
X210602642Y-62606364D01*
G37*
G36*
X210036885Y-62040608D02*
X209541175Y-61544898D01*
X210744529Y-60341544D01*
X211240239Y-60837254D01*
X210036885Y-62040608D01*
X210036885Y-62040608D01*
G37*
G36*
X209471129Y-61474851D02*
X208975419Y-60979141D01*
X210178773Y-59775787D01*
X210674483Y-60271497D01*
X209471129Y-61474851D01*
X209471129Y-61474851D01*
G37*
G36*
X207631973Y-61474851D02*
X206428619Y-60271497D01*
X206924329Y-59775787D01*
X208127683Y-60979141D01*
X207631973Y-61474851D01*
X207631973Y-61474851D01*
G37*
G36*
X207066217Y-62040608D02*
X205862863Y-60837254D01*
X206358573Y-60341544D01*
X207561927Y-61544898D01*
X207066217Y-62040608D01*
X207066217Y-62040608D01*
G37*
G36*
X206500460Y-62606364D02*
X205297106Y-61403010D01*
X205792816Y-60907300D01*
X206996170Y-62110654D01*
X206500460Y-62606364D01*
X206500460Y-62606364D01*
G37*
G36*
X205934704Y-63172120D02*
X204731350Y-61968766D01*
X205227060Y-61473056D01*
X206430414Y-62676410D01*
X205934704Y-63172120D01*
X205934704Y-63172120D01*
G37*
G36*
X205368948Y-63737876D02*
X204165594Y-62534522D01*
X204661304Y-62038812D01*
X205864658Y-63242166D01*
X205368948Y-63737876D01*
X205368948Y-63737876D01*
G37*
G36*
X204804988Y-64301836D02*
X203601634Y-63098482D01*
X204097344Y-62602772D01*
X205300698Y-63806126D01*
X204804988Y-64301836D01*
X204804988Y-64301836D01*
G37*
G36*
X204241028Y-64865796D02*
X203037674Y-63662442D01*
X203533384Y-63166732D01*
X204736738Y-64370086D01*
X204241028Y-64865796D01*
X204241028Y-64865796D01*
G37*
G36*
X203675272Y-65431552D02*
X202471918Y-64228198D01*
X202967628Y-63732488D01*
X204170982Y-64935842D01*
X203675272Y-65431552D01*
X203675272Y-65431552D01*
G37*
G36*
X203109516Y-65997308D02*
X201906162Y-64793954D01*
X202401872Y-64298244D01*
X203605226Y-65501598D01*
X203109516Y-65997308D01*
X203109516Y-65997308D01*
G37*
G36*
X202543760Y-66563065D02*
X201340406Y-65359711D01*
X201836116Y-64864001D01*
X203039470Y-66067355D01*
X202543760Y-66563065D01*
X202543760Y-66563065D01*
G37*
G36*
X201978003Y-67128821D02*
X200774649Y-65925467D01*
X201270359Y-65429757D01*
X202473713Y-66633111D01*
X201978003Y-67128821D01*
X201978003Y-67128821D01*
G37*
G36*
X177902359Y-69675621D02*
X177406649Y-69179911D01*
X178610003Y-67976557D01*
X179105713Y-68472267D01*
X177902359Y-69675621D01*
X177902359Y-69675621D01*
G37*
G36*
X178468116Y-70241377D02*
X177972406Y-69745667D01*
X179175760Y-68542313D01*
X179671470Y-69038023D01*
X178468116Y-70241377D01*
X178468116Y-70241377D01*
G37*
G36*
X179033872Y-70807134D02*
X178538162Y-70311424D01*
X179741516Y-69108070D01*
X180237226Y-69603780D01*
X179033872Y-70807134D01*
X179033872Y-70807134D01*
G37*
G36*
X179599628Y-71372890D02*
X179103918Y-70877180D01*
X180307272Y-69673826D01*
X180802982Y-70169536D01*
X179599628Y-71372890D01*
X179599628Y-71372890D01*
G37*
G36*
X180165384Y-71938646D02*
X179669674Y-71442936D01*
X180873028Y-70239582D01*
X181368738Y-70735292D01*
X180165384Y-71938646D01*
X180165384Y-71938646D01*
G37*
G36*
X180729344Y-72502606D02*
X180233634Y-72006896D01*
X181436988Y-70803542D01*
X181932698Y-71299252D01*
X180729344Y-72502606D01*
X180729344Y-72502606D01*
G37*
G36*
X181293304Y-73066566D02*
X180797594Y-72570856D01*
X182000948Y-71367502D01*
X182496658Y-71863212D01*
X181293304Y-73066566D01*
X181293304Y-73066566D01*
G37*
G36*
X181859060Y-73632322D02*
X181363350Y-73136612D01*
X182566704Y-71933258D01*
X183062414Y-72428968D01*
X181859060Y-73632322D01*
X181859060Y-73632322D01*
G37*
G36*
X182424816Y-74198078D02*
X181929106Y-73702368D01*
X183132460Y-72499014D01*
X183628170Y-72994724D01*
X182424816Y-74198078D01*
X182424816Y-74198078D01*
G37*
G36*
X182990573Y-74763834D02*
X182494863Y-74268124D01*
X183698217Y-73064770D01*
X184193927Y-73560480D01*
X182990573Y-74763834D01*
X182990573Y-74763834D01*
G37*
G36*
X183556329Y-75329591D02*
X183060619Y-74833881D01*
X184263973Y-73630527D01*
X184759683Y-74126237D01*
X183556329Y-75329591D01*
X183556329Y-75329591D01*
G37*
G36*
X186810773Y-75329591D02*
X185607419Y-74126237D01*
X186103129Y-73630527D01*
X187306483Y-74833881D01*
X186810773Y-75329591D01*
X186810773Y-75329591D01*
G37*
G36*
X187376529Y-74763834D02*
X186173175Y-73560480D01*
X186668885Y-73064770D01*
X187872239Y-74268124D01*
X187376529Y-74763834D01*
X187376529Y-74763834D01*
G37*
G36*
X187942286Y-74198078D02*
X186738932Y-72994724D01*
X187234642Y-72499014D01*
X188437996Y-73702368D01*
X187942286Y-74198078D01*
X187942286Y-74198078D01*
G37*
G36*
X188508042Y-73632322D02*
X187304688Y-72428968D01*
X187800398Y-71933258D01*
X189003752Y-73136612D01*
X188508042Y-73632322D01*
X188508042Y-73632322D01*
G37*
G36*
X189073798Y-73066566D02*
X187870444Y-71863212D01*
X188366154Y-71367502D01*
X189569508Y-72570856D01*
X189073798Y-73066566D01*
X189073798Y-73066566D01*
G37*
G36*
X189637758Y-72502606D02*
X188434404Y-71299252D01*
X188930114Y-70803542D01*
X190133468Y-72006896D01*
X189637758Y-72502606D01*
X189637758Y-72502606D01*
G37*
G36*
X190201718Y-71938646D02*
X188998364Y-70735292D01*
X189494074Y-70239582D01*
X190697428Y-71442936D01*
X190201718Y-71938646D01*
X190201718Y-71938646D01*
G37*
G36*
X190767474Y-71372890D02*
X189564120Y-70169536D01*
X190059830Y-69673826D01*
X191263184Y-70877180D01*
X190767474Y-71372890D01*
X190767474Y-71372890D01*
G37*
G36*
X191333230Y-70807134D02*
X190129876Y-69603780D01*
X190625586Y-69108070D01*
X191828940Y-70311424D01*
X191333230Y-70807134D01*
X191333230Y-70807134D01*
G37*
G36*
X191898986Y-70241377D02*
X190695632Y-69038023D01*
X191191342Y-68542313D01*
X192394696Y-69745667D01*
X191898986Y-70241377D01*
X191898986Y-70241377D01*
G37*
G36*
X192464743Y-69675621D02*
X191261389Y-68472267D01*
X191757099Y-67976557D01*
X192960453Y-69179911D01*
X192464743Y-69675621D01*
X192464743Y-69675621D01*
G37*
G36*
X191757099Y-67128821D02*
X191261389Y-66633111D01*
X192464743Y-65429757D01*
X192960453Y-65925467D01*
X191757099Y-67128821D01*
X191757099Y-67128821D01*
G37*
G36*
X191191342Y-66563065D02*
X190695632Y-66067355D01*
X191898986Y-64864001D01*
X192394696Y-65359711D01*
X191191342Y-66563065D01*
X191191342Y-66563065D01*
G37*
G36*
X190625586Y-65997308D02*
X190129876Y-65501598D01*
X191333230Y-64298244D01*
X191828940Y-64793954D01*
X190625586Y-65997308D01*
X190625586Y-65997308D01*
G37*
G36*
X190059830Y-65431552D02*
X189564120Y-64935842D01*
X190767474Y-63732488D01*
X191263184Y-64228198D01*
X190059830Y-65431552D01*
X190059830Y-65431552D01*
G37*
G36*
X189494074Y-64865796D02*
X188998364Y-64370086D01*
X190201718Y-63166732D01*
X190697428Y-63662442D01*
X189494074Y-64865796D01*
X189494074Y-64865796D01*
G37*
G36*
X188930114Y-64301836D02*
X188434404Y-63806126D01*
X189637758Y-62602772D01*
X190133468Y-63098482D01*
X188930114Y-64301836D01*
X188930114Y-64301836D01*
G37*
G36*
X188366154Y-63737876D02*
X187870444Y-63242166D01*
X189073798Y-62038812D01*
X189569508Y-62534522D01*
X188366154Y-63737876D01*
X188366154Y-63737876D01*
G37*
G36*
X187800398Y-63172120D02*
X187304688Y-62676410D01*
X188508042Y-61473056D01*
X189003752Y-61968766D01*
X187800398Y-63172120D01*
X187800398Y-63172120D01*
G37*
G36*
X187234642Y-62606364D02*
X186738932Y-62110654D01*
X187942286Y-60907300D01*
X188437996Y-61403010D01*
X187234642Y-62606364D01*
X187234642Y-62606364D01*
G37*
G36*
X186668885Y-62040608D02*
X186173175Y-61544898D01*
X187376529Y-60341544D01*
X187872239Y-60837254D01*
X186668885Y-62040608D01*
X186668885Y-62040608D01*
G37*
G36*
X186103129Y-61474851D02*
X185607419Y-60979141D01*
X186810773Y-59775787D01*
X187306483Y-60271497D01*
X186103129Y-61474851D01*
X186103129Y-61474851D01*
G37*
G36*
X184263973Y-61474851D02*
X183060619Y-60271497D01*
X183556329Y-59775787D01*
X184759683Y-60979141D01*
X184263973Y-61474851D01*
X184263973Y-61474851D01*
G37*
G36*
X183698217Y-62040608D02*
X182494863Y-60837254D01*
X182990573Y-60341544D01*
X184193927Y-61544898D01*
X183698217Y-62040608D01*
X183698217Y-62040608D01*
G37*
G36*
X183132460Y-62606364D02*
X181929106Y-61403010D01*
X182424816Y-60907300D01*
X183628170Y-62110654D01*
X183132460Y-62606364D01*
X183132460Y-62606364D01*
G37*
G36*
X182566704Y-63172120D02*
X181363350Y-61968766D01*
X181859060Y-61473056D01*
X183062414Y-62676410D01*
X182566704Y-63172120D01*
X182566704Y-63172120D01*
G37*
G36*
X182000948Y-63737876D02*
X180797594Y-62534522D01*
X181293304Y-62038812D01*
X182496658Y-63242166D01*
X182000948Y-63737876D01*
X182000948Y-63737876D01*
G37*
G36*
X181436988Y-64301836D02*
X180233634Y-63098482D01*
X180729344Y-62602772D01*
X181932698Y-63806126D01*
X181436988Y-64301836D01*
X181436988Y-64301836D01*
G37*
G36*
X180873028Y-64865796D02*
X179669674Y-63662442D01*
X180165384Y-63166732D01*
X181368738Y-64370086D01*
X180873028Y-64865796D01*
X180873028Y-64865796D01*
G37*
G36*
X180307272Y-65431552D02*
X179103918Y-64228198D01*
X179599628Y-63732488D01*
X180802982Y-64935842D01*
X180307272Y-65431552D01*
X180307272Y-65431552D01*
G37*
G36*
X179741516Y-65997308D02*
X178538162Y-64793954D01*
X179033872Y-64298244D01*
X180237226Y-65501598D01*
X179741516Y-65997308D01*
X179741516Y-65997308D01*
G37*
G36*
X179175760Y-66563065D02*
X177972406Y-65359711D01*
X178468116Y-64864001D01*
X179671470Y-66067355D01*
X179175760Y-66563065D01*
X179175760Y-66563065D01*
G37*
G36*
X178610003Y-67128821D02*
X177406649Y-65925467D01*
X177902359Y-65429757D01*
X179105713Y-66633111D01*
X178610003Y-67128821D01*
X178610003Y-67128821D01*
G37*
G36*
X154534359Y-69675621D02*
X154038649Y-69179911D01*
X155242003Y-67976557D01*
X155737713Y-68472267D01*
X154534359Y-69675621D01*
X154534359Y-69675621D01*
G37*
G36*
X155100116Y-70241377D02*
X154604406Y-69745667D01*
X155807760Y-68542313D01*
X156303470Y-69038023D01*
X155100116Y-70241377D01*
X155100116Y-70241377D01*
G37*
G36*
X155665872Y-70807134D02*
X155170162Y-70311424D01*
X156373516Y-69108070D01*
X156869226Y-69603780D01*
X155665872Y-70807134D01*
X155665872Y-70807134D01*
G37*
G36*
X156231628Y-71372890D02*
X155735918Y-70877180D01*
X156939272Y-69673826D01*
X157434982Y-70169536D01*
X156231628Y-71372890D01*
X156231628Y-71372890D01*
G37*
G36*
X156797384Y-71938646D02*
X156301674Y-71442936D01*
X157505028Y-70239582D01*
X158000738Y-70735292D01*
X156797384Y-71938646D01*
X156797384Y-71938646D01*
G37*
G36*
X157361344Y-72502606D02*
X156865634Y-72006896D01*
X158068988Y-70803542D01*
X158564698Y-71299252D01*
X157361344Y-72502606D01*
X157361344Y-72502606D01*
G37*
G36*
X157925304Y-73066566D02*
X157429594Y-72570856D01*
X158632948Y-71367502D01*
X159128658Y-71863212D01*
X157925304Y-73066566D01*
X157925304Y-73066566D01*
G37*
G36*
X158491060Y-73632322D02*
X157995350Y-73136612D01*
X159198704Y-71933258D01*
X159694414Y-72428968D01*
X158491060Y-73632322D01*
X158491060Y-73632322D01*
G37*
G36*
X159056816Y-74198078D02*
X158561106Y-73702368D01*
X159764460Y-72499014D01*
X160260170Y-72994724D01*
X159056816Y-74198078D01*
X159056816Y-74198078D01*
G37*
G36*
X159622573Y-74763834D02*
X159126863Y-74268124D01*
X160330217Y-73064770D01*
X160825927Y-73560480D01*
X159622573Y-74763834D01*
X159622573Y-74763834D01*
G37*
G36*
X160188329Y-75329591D02*
X159692619Y-74833881D01*
X160895973Y-73630527D01*
X161391683Y-74126237D01*
X160188329Y-75329591D01*
X160188329Y-75329591D01*
G37*
G36*
X163442773Y-75329591D02*
X162239419Y-74126237D01*
X162735129Y-73630527D01*
X163938483Y-74833881D01*
X163442773Y-75329591D01*
X163442773Y-75329591D01*
G37*
G36*
X164008529Y-74763834D02*
X162805175Y-73560480D01*
X163300885Y-73064770D01*
X164504239Y-74268124D01*
X164008529Y-74763834D01*
X164008529Y-74763834D01*
G37*
G36*
X164574286Y-74198078D02*
X163370932Y-72994724D01*
X163866642Y-72499014D01*
X165069996Y-73702368D01*
X164574286Y-74198078D01*
X164574286Y-74198078D01*
G37*
G36*
X165140042Y-73632322D02*
X163936688Y-72428968D01*
X164432398Y-71933258D01*
X165635752Y-73136612D01*
X165140042Y-73632322D01*
X165140042Y-73632322D01*
G37*
G36*
X165705798Y-73066566D02*
X164502444Y-71863212D01*
X164998154Y-71367502D01*
X166201508Y-72570856D01*
X165705798Y-73066566D01*
X165705798Y-73066566D01*
G37*
G36*
X166269758Y-72502606D02*
X165066404Y-71299252D01*
X165562114Y-70803542D01*
X166765468Y-72006896D01*
X166269758Y-72502606D01*
X166269758Y-72502606D01*
G37*
G36*
X166833718Y-71938646D02*
X165630364Y-70735292D01*
X166126074Y-70239582D01*
X167329428Y-71442936D01*
X166833718Y-71938646D01*
X166833718Y-71938646D01*
G37*
G36*
X167399474Y-71372890D02*
X166196120Y-70169536D01*
X166691830Y-69673826D01*
X167895184Y-70877180D01*
X167399474Y-71372890D01*
X167399474Y-71372890D01*
G37*
G36*
X167965230Y-70807134D02*
X166761876Y-69603780D01*
X167257586Y-69108070D01*
X168460940Y-70311424D01*
X167965230Y-70807134D01*
X167965230Y-70807134D01*
G37*
G36*
X168530986Y-70241377D02*
X167327632Y-69038023D01*
X167823342Y-68542313D01*
X169026696Y-69745667D01*
X168530986Y-70241377D01*
X168530986Y-70241377D01*
G37*
G36*
X169096743Y-69675621D02*
X167893389Y-68472267D01*
X168389099Y-67976557D01*
X169592453Y-69179911D01*
X169096743Y-69675621D01*
X169096743Y-69675621D01*
G37*
G36*
X168389099Y-67128821D02*
X167893389Y-66633111D01*
X169096743Y-65429757D01*
X169592453Y-65925467D01*
X168389099Y-67128821D01*
X168389099Y-67128821D01*
G37*
G36*
X167823342Y-66563065D02*
X167327632Y-66067355D01*
X168530986Y-64864001D01*
X169026696Y-65359711D01*
X167823342Y-66563065D01*
X167823342Y-66563065D01*
G37*
G36*
X167257586Y-65997308D02*
X166761876Y-65501598D01*
X167965230Y-64298244D01*
X168460940Y-64793954D01*
X167257586Y-65997308D01*
X167257586Y-65997308D01*
G37*
G36*
X166691830Y-65431552D02*
X166196120Y-64935842D01*
X167399474Y-63732488D01*
X167895184Y-64228198D01*
X166691830Y-65431552D01*
X166691830Y-65431552D01*
G37*
G36*
X166126074Y-64865796D02*
X165630364Y-64370086D01*
X166833718Y-63166732D01*
X167329428Y-63662442D01*
X166126074Y-64865796D01*
X166126074Y-64865796D01*
G37*
G36*
X165562114Y-64301836D02*
X165066404Y-63806126D01*
X166269758Y-62602772D01*
X166765468Y-63098482D01*
X165562114Y-64301836D01*
X165562114Y-64301836D01*
G37*
G36*
X164998154Y-63737876D02*
X164502444Y-63242166D01*
X165705798Y-62038812D01*
X166201508Y-62534522D01*
X164998154Y-63737876D01*
X164998154Y-63737876D01*
G37*
G36*
X164432398Y-63172120D02*
X163936688Y-62676410D01*
X165140042Y-61473056D01*
X165635752Y-61968766D01*
X164432398Y-63172120D01*
X164432398Y-63172120D01*
G37*
G36*
X163866642Y-62606364D02*
X163370932Y-62110654D01*
X164574286Y-60907300D01*
X165069996Y-61403010D01*
X163866642Y-62606364D01*
X163866642Y-62606364D01*
G37*
G36*
X163300885Y-62040608D02*
X162805175Y-61544898D01*
X164008529Y-60341544D01*
X164504239Y-60837254D01*
X163300885Y-62040608D01*
X163300885Y-62040608D01*
G37*
G36*
X162735129Y-61474851D02*
X162239419Y-60979141D01*
X163442773Y-59775787D01*
X163938483Y-60271497D01*
X162735129Y-61474851D01*
X162735129Y-61474851D01*
G37*
G36*
X160895973Y-61474851D02*
X159692619Y-60271497D01*
X160188329Y-59775787D01*
X161391683Y-60979141D01*
X160895973Y-61474851D01*
X160895973Y-61474851D01*
G37*
G36*
X160330217Y-62040608D02*
X159126863Y-60837254D01*
X159622573Y-60341544D01*
X160825927Y-61544898D01*
X160330217Y-62040608D01*
X160330217Y-62040608D01*
G37*
G36*
X159764460Y-62606364D02*
X158561106Y-61403010D01*
X159056816Y-60907300D01*
X160260170Y-62110654D01*
X159764460Y-62606364D01*
X159764460Y-62606364D01*
G37*
G36*
X159198704Y-63172120D02*
X157995350Y-61968766D01*
X158491060Y-61473056D01*
X159694414Y-62676410D01*
X159198704Y-63172120D01*
X159198704Y-63172120D01*
G37*
G36*
X158632948Y-63737876D02*
X157429594Y-62534522D01*
X157925304Y-62038812D01*
X159128658Y-63242166D01*
X158632948Y-63737876D01*
X158632948Y-63737876D01*
G37*
G36*
X158068988Y-64301836D02*
X156865634Y-63098482D01*
X157361344Y-62602772D01*
X158564698Y-63806126D01*
X158068988Y-64301836D01*
X158068988Y-64301836D01*
G37*
G36*
X157505028Y-64865796D02*
X156301674Y-63662442D01*
X156797384Y-63166732D01*
X158000738Y-64370086D01*
X157505028Y-64865796D01*
X157505028Y-64865796D01*
G37*
G36*
X156939272Y-65431552D02*
X155735918Y-64228198D01*
X156231628Y-63732488D01*
X157434982Y-64935842D01*
X156939272Y-65431552D01*
X156939272Y-65431552D01*
G37*
G36*
X156373516Y-65997308D02*
X155170162Y-64793954D01*
X155665872Y-64298244D01*
X156869226Y-65501598D01*
X156373516Y-65997308D01*
X156373516Y-65997308D01*
G37*
G36*
X155807760Y-66563065D02*
X154604406Y-65359711D01*
X155100116Y-64864001D01*
X156303470Y-66067355D01*
X155807760Y-66563065D01*
X155807760Y-66563065D01*
G37*
G36*
X155242003Y-67128821D02*
X154038649Y-65925467D01*
X154534359Y-65429757D01*
X155737713Y-66633111D01*
X155242003Y-67128821D01*
X155242003Y-67128821D01*
G37*
G36*
X131166359Y-69675621D02*
X130670649Y-69179911D01*
X131874003Y-67976557D01*
X132369713Y-68472267D01*
X131166359Y-69675621D01*
X131166359Y-69675621D01*
G37*
G36*
X131732116Y-70241377D02*
X131236406Y-69745667D01*
X132439760Y-68542313D01*
X132935470Y-69038023D01*
X131732116Y-70241377D01*
X131732116Y-70241377D01*
G37*
G36*
X132297872Y-70807134D02*
X131802162Y-70311424D01*
X133005516Y-69108070D01*
X133501226Y-69603780D01*
X132297872Y-70807134D01*
X132297872Y-70807134D01*
G37*
G36*
X132863628Y-71372890D02*
X132367918Y-70877180D01*
X133571272Y-69673826D01*
X134066982Y-70169536D01*
X132863628Y-71372890D01*
X132863628Y-71372890D01*
G37*
G36*
X133429384Y-71938646D02*
X132933674Y-71442936D01*
X134137028Y-70239582D01*
X134632738Y-70735292D01*
X133429384Y-71938646D01*
X133429384Y-71938646D01*
G37*
G36*
X133993344Y-72502606D02*
X133497634Y-72006896D01*
X134700988Y-70803542D01*
X135196698Y-71299252D01*
X133993344Y-72502606D01*
X133993344Y-72502606D01*
G37*
G36*
X134557304Y-73066566D02*
X134061594Y-72570856D01*
X135264948Y-71367502D01*
X135760658Y-71863212D01*
X134557304Y-73066566D01*
X134557304Y-73066566D01*
G37*
G36*
X135123060Y-73632322D02*
X134627350Y-73136612D01*
X135830704Y-71933258D01*
X136326414Y-72428968D01*
X135123060Y-73632322D01*
X135123060Y-73632322D01*
G37*
G36*
X135688816Y-74198078D02*
X135193106Y-73702368D01*
X136396460Y-72499014D01*
X136892170Y-72994724D01*
X135688816Y-74198078D01*
X135688816Y-74198078D01*
G37*
G36*
X136254573Y-74763834D02*
X135758863Y-74268124D01*
X136962217Y-73064770D01*
X137457927Y-73560480D01*
X136254573Y-74763834D01*
X136254573Y-74763834D01*
G37*
G36*
X136820329Y-75329591D02*
X136324619Y-74833881D01*
X137527973Y-73630527D01*
X138023683Y-74126237D01*
X136820329Y-75329591D01*
X136820329Y-75329591D01*
G37*
G36*
X140074773Y-75329591D02*
X138871419Y-74126237D01*
X139367129Y-73630527D01*
X140570483Y-74833881D01*
X140074773Y-75329591D01*
X140074773Y-75329591D01*
G37*
G36*
X140640529Y-74763834D02*
X139437175Y-73560480D01*
X139932885Y-73064770D01*
X141136239Y-74268124D01*
X140640529Y-74763834D01*
X140640529Y-74763834D01*
G37*
G36*
X141206286Y-74198078D02*
X140002932Y-72994724D01*
X140498642Y-72499014D01*
X141701996Y-73702368D01*
X141206286Y-74198078D01*
X141206286Y-74198078D01*
G37*
G36*
X141772042Y-73632322D02*
X140568688Y-72428968D01*
X141064398Y-71933258D01*
X142267752Y-73136612D01*
X141772042Y-73632322D01*
X141772042Y-73632322D01*
G37*
G36*
X142337798Y-73066566D02*
X141134444Y-71863212D01*
X141630154Y-71367502D01*
X142833508Y-72570856D01*
X142337798Y-73066566D01*
X142337798Y-73066566D01*
G37*
G36*
X142901758Y-72502606D02*
X141698404Y-71299252D01*
X142194114Y-70803542D01*
X143397468Y-72006896D01*
X142901758Y-72502606D01*
X142901758Y-72502606D01*
G37*
G36*
X143465718Y-71938646D02*
X142262364Y-70735292D01*
X142758074Y-70239582D01*
X143961428Y-71442936D01*
X143465718Y-71938646D01*
X143465718Y-71938646D01*
G37*
G36*
X144031474Y-71372890D02*
X142828120Y-70169536D01*
X143323830Y-69673826D01*
X144527184Y-70877180D01*
X144031474Y-71372890D01*
X144031474Y-71372890D01*
G37*
G36*
X144597230Y-70807134D02*
X143393876Y-69603780D01*
X143889586Y-69108070D01*
X145092940Y-70311424D01*
X144597230Y-70807134D01*
X144597230Y-70807134D01*
G37*
G36*
X145162986Y-70241377D02*
X143959632Y-69038023D01*
X144455342Y-68542313D01*
X145658696Y-69745667D01*
X145162986Y-70241377D01*
X145162986Y-70241377D01*
G37*
G36*
X145728743Y-69675621D02*
X144525389Y-68472267D01*
X145021099Y-67976557D01*
X146224453Y-69179911D01*
X145728743Y-69675621D01*
X145728743Y-69675621D01*
G37*
G36*
X145021099Y-67128821D02*
X144525389Y-66633111D01*
X145728743Y-65429757D01*
X146224453Y-65925467D01*
X145021099Y-67128821D01*
X145021099Y-67128821D01*
G37*
G36*
X144455342Y-66563065D02*
X143959632Y-66067355D01*
X145162986Y-64864001D01*
X145658696Y-65359711D01*
X144455342Y-66563065D01*
X144455342Y-66563065D01*
G37*
G36*
X143889586Y-65997308D02*
X143393876Y-65501598D01*
X144597230Y-64298244D01*
X145092940Y-64793954D01*
X143889586Y-65997308D01*
X143889586Y-65997308D01*
G37*
G36*
X143323830Y-65431552D02*
X142828120Y-64935842D01*
X144031474Y-63732488D01*
X144527184Y-64228198D01*
X143323830Y-65431552D01*
X143323830Y-65431552D01*
G37*
G36*
X142758074Y-64865796D02*
X142262364Y-64370086D01*
X143465718Y-63166732D01*
X143961428Y-63662442D01*
X142758074Y-64865796D01*
X142758074Y-64865796D01*
G37*
G36*
X142194114Y-64301836D02*
X141698404Y-63806126D01*
X142901758Y-62602772D01*
X143397468Y-63098482D01*
X142194114Y-64301836D01*
X142194114Y-64301836D01*
G37*
G36*
X141630154Y-63737876D02*
X141134444Y-63242166D01*
X142337798Y-62038812D01*
X142833508Y-62534522D01*
X141630154Y-63737876D01*
X141630154Y-63737876D01*
G37*
G36*
X141064398Y-63172120D02*
X140568688Y-62676410D01*
X141772042Y-61473056D01*
X142267752Y-61968766D01*
X141064398Y-63172120D01*
X141064398Y-63172120D01*
G37*
G36*
X140498642Y-62606364D02*
X140002932Y-62110654D01*
X141206286Y-60907300D01*
X141701996Y-61403010D01*
X140498642Y-62606364D01*
X140498642Y-62606364D01*
G37*
G36*
X139932885Y-62040608D02*
X139437175Y-61544898D01*
X140640529Y-60341544D01*
X141136239Y-60837254D01*
X139932885Y-62040608D01*
X139932885Y-62040608D01*
G37*
G36*
X139367129Y-61474851D02*
X138871419Y-60979141D01*
X140074773Y-59775787D01*
X140570483Y-60271497D01*
X139367129Y-61474851D01*
X139367129Y-61474851D01*
G37*
G36*
X137527973Y-61474851D02*
X136324619Y-60271497D01*
X136820329Y-59775787D01*
X138023683Y-60979141D01*
X137527973Y-61474851D01*
X137527973Y-61474851D01*
G37*
G36*
X136962217Y-62040608D02*
X135758863Y-60837254D01*
X136254573Y-60341544D01*
X137457927Y-61544898D01*
X136962217Y-62040608D01*
X136962217Y-62040608D01*
G37*
G36*
X136396460Y-62606364D02*
X135193106Y-61403010D01*
X135688816Y-60907300D01*
X136892170Y-62110654D01*
X136396460Y-62606364D01*
X136396460Y-62606364D01*
G37*
G36*
X135830704Y-63172120D02*
X134627350Y-61968766D01*
X135123060Y-61473056D01*
X136326414Y-62676410D01*
X135830704Y-63172120D01*
X135830704Y-63172120D01*
G37*
G36*
X135264948Y-63737876D02*
X134061594Y-62534522D01*
X134557304Y-62038812D01*
X135760658Y-63242166D01*
X135264948Y-63737876D01*
X135264948Y-63737876D01*
G37*
G36*
X134700988Y-64301836D02*
X133497634Y-63098482D01*
X133993344Y-62602772D01*
X135196698Y-63806126D01*
X134700988Y-64301836D01*
X134700988Y-64301836D01*
G37*
G36*
X134137028Y-64865796D02*
X132933674Y-63662442D01*
X133429384Y-63166732D01*
X134632738Y-64370086D01*
X134137028Y-64865796D01*
X134137028Y-64865796D01*
G37*
G36*
X133571272Y-65431552D02*
X132367918Y-64228198D01*
X132863628Y-63732488D01*
X134066982Y-64935842D01*
X133571272Y-65431552D01*
X133571272Y-65431552D01*
G37*
G36*
X133005516Y-65997308D02*
X131802162Y-64793954D01*
X132297872Y-64298244D01*
X133501226Y-65501598D01*
X133005516Y-65997308D01*
X133005516Y-65997308D01*
G37*
G36*
X132439760Y-66563065D02*
X131236406Y-65359711D01*
X131732116Y-64864001D01*
X132935470Y-66067355D01*
X132439760Y-66563065D01*
X132439760Y-66563065D01*
G37*
G36*
X131874003Y-67128821D02*
X130670649Y-65925467D01*
X131166359Y-65429757D01*
X132369713Y-66633111D01*
X131874003Y-67128821D01*
X131874003Y-67128821D01*
G37*
G36*
X107798359Y-69675621D02*
X107302649Y-69179911D01*
X108506003Y-67976557D01*
X109001713Y-68472267D01*
X107798359Y-69675621D01*
X107798359Y-69675621D01*
G37*
G36*
X108364116Y-70241377D02*
X107868406Y-69745667D01*
X109071760Y-68542313D01*
X109567470Y-69038023D01*
X108364116Y-70241377D01*
X108364116Y-70241377D01*
G37*
G36*
X108929872Y-70807134D02*
X108434162Y-70311424D01*
X109637516Y-69108070D01*
X110133226Y-69603780D01*
X108929872Y-70807134D01*
X108929872Y-70807134D01*
G37*
G36*
X109495628Y-71372890D02*
X108999918Y-70877180D01*
X110203272Y-69673826D01*
X110698982Y-70169536D01*
X109495628Y-71372890D01*
X109495628Y-71372890D01*
G37*
G36*
X110061384Y-71938646D02*
X109565674Y-71442936D01*
X110769028Y-70239582D01*
X111264738Y-70735292D01*
X110061384Y-71938646D01*
X110061384Y-71938646D01*
G37*
G36*
X110625344Y-72502606D02*
X110129634Y-72006896D01*
X111332988Y-70803542D01*
X111828698Y-71299252D01*
X110625344Y-72502606D01*
X110625344Y-72502606D01*
G37*
G36*
X111189304Y-73066566D02*
X110693594Y-72570856D01*
X111896948Y-71367502D01*
X112392658Y-71863212D01*
X111189304Y-73066566D01*
X111189304Y-73066566D01*
G37*
G36*
X111755060Y-73632322D02*
X111259350Y-73136612D01*
X112462704Y-71933258D01*
X112958414Y-72428968D01*
X111755060Y-73632322D01*
X111755060Y-73632322D01*
G37*
G36*
X112320816Y-74198078D02*
X111825106Y-73702368D01*
X113028460Y-72499014D01*
X113524170Y-72994724D01*
X112320816Y-74198078D01*
X112320816Y-74198078D01*
G37*
G36*
X112886573Y-74763834D02*
X112390863Y-74268124D01*
X113594217Y-73064770D01*
X114089927Y-73560480D01*
X112886573Y-74763834D01*
X112886573Y-74763834D01*
G37*
G36*
X113452329Y-75329591D02*
X112956619Y-74833881D01*
X114159973Y-73630527D01*
X114655683Y-74126237D01*
X113452329Y-75329591D01*
X113452329Y-75329591D01*
G37*
G36*
X116706773Y-75329591D02*
X115503419Y-74126237D01*
X115999129Y-73630527D01*
X117202483Y-74833881D01*
X116706773Y-75329591D01*
X116706773Y-75329591D01*
G37*
G36*
X117272529Y-74763834D02*
X116069175Y-73560480D01*
X116564885Y-73064770D01*
X117768239Y-74268124D01*
X117272529Y-74763834D01*
X117272529Y-74763834D01*
G37*
G36*
X117838286Y-74198078D02*
X116634932Y-72994724D01*
X117130642Y-72499014D01*
X118333996Y-73702368D01*
X117838286Y-74198078D01*
X117838286Y-74198078D01*
G37*
G36*
X118404042Y-73632322D02*
X117200688Y-72428968D01*
X117696398Y-71933258D01*
X118899752Y-73136612D01*
X118404042Y-73632322D01*
X118404042Y-73632322D01*
G37*
G36*
X118969798Y-73066566D02*
X117766444Y-71863212D01*
X118262154Y-71367502D01*
X119465508Y-72570856D01*
X118969798Y-73066566D01*
X118969798Y-73066566D01*
G37*
G36*
X119533758Y-72502606D02*
X118330404Y-71299252D01*
X118826114Y-70803542D01*
X120029468Y-72006896D01*
X119533758Y-72502606D01*
X119533758Y-72502606D01*
G37*
G36*
X120097718Y-71938646D02*
X118894364Y-70735292D01*
X119390074Y-70239582D01*
X120593428Y-71442936D01*
X120097718Y-71938646D01*
X120097718Y-71938646D01*
G37*
G36*
X120663474Y-71372890D02*
X119460120Y-70169536D01*
X119955830Y-69673826D01*
X121159184Y-70877180D01*
X120663474Y-71372890D01*
X120663474Y-71372890D01*
G37*
G36*
X121229230Y-70807134D02*
X120025876Y-69603780D01*
X120521586Y-69108070D01*
X121724940Y-70311424D01*
X121229230Y-70807134D01*
X121229230Y-70807134D01*
G37*
G36*
X121794986Y-70241377D02*
X120591632Y-69038023D01*
X121087342Y-68542313D01*
X122290696Y-69745667D01*
X121794986Y-70241377D01*
X121794986Y-70241377D01*
G37*
G36*
X122360743Y-69675621D02*
X121157389Y-68472267D01*
X121653099Y-67976557D01*
X122856453Y-69179911D01*
X122360743Y-69675621D01*
X122360743Y-69675621D01*
G37*
G36*
X121653099Y-67128821D02*
X121157389Y-66633111D01*
X122360743Y-65429757D01*
X122856453Y-65925467D01*
X121653099Y-67128821D01*
X121653099Y-67128821D01*
G37*
G36*
X121087342Y-66563065D02*
X120591632Y-66067355D01*
X121794986Y-64864001D01*
X122290696Y-65359711D01*
X121087342Y-66563065D01*
X121087342Y-66563065D01*
G37*
G36*
X120521586Y-65997308D02*
X120025876Y-65501598D01*
X121229230Y-64298244D01*
X121724940Y-64793954D01*
X120521586Y-65997308D01*
X120521586Y-65997308D01*
G37*
G36*
X119955830Y-65431552D02*
X119460120Y-64935842D01*
X120663474Y-63732488D01*
X121159184Y-64228198D01*
X119955830Y-65431552D01*
X119955830Y-65431552D01*
G37*
G36*
X119390074Y-64865796D02*
X118894364Y-64370086D01*
X120097718Y-63166732D01*
X120593428Y-63662442D01*
X119390074Y-64865796D01*
X119390074Y-64865796D01*
G37*
G36*
X118826114Y-64301836D02*
X118330404Y-63806126D01*
X119533758Y-62602772D01*
X120029468Y-63098482D01*
X118826114Y-64301836D01*
X118826114Y-64301836D01*
G37*
G36*
X118262154Y-63737876D02*
X117766444Y-63242166D01*
X118969798Y-62038812D01*
X119465508Y-62534522D01*
X118262154Y-63737876D01*
X118262154Y-63737876D01*
G37*
G36*
X117696398Y-63172120D02*
X117200688Y-62676410D01*
X118404042Y-61473056D01*
X118899752Y-61968766D01*
X117696398Y-63172120D01*
X117696398Y-63172120D01*
G37*
G36*
X117130642Y-62606364D02*
X116634932Y-62110654D01*
X117838286Y-60907300D01*
X118333996Y-61403010D01*
X117130642Y-62606364D01*
X117130642Y-62606364D01*
G37*
G36*
X116564885Y-62040608D02*
X116069175Y-61544898D01*
X117272529Y-60341544D01*
X117768239Y-60837254D01*
X116564885Y-62040608D01*
X116564885Y-62040608D01*
G37*
G36*
X115999129Y-61474851D02*
X115503419Y-60979141D01*
X116706773Y-59775787D01*
X117202483Y-60271497D01*
X115999129Y-61474851D01*
X115999129Y-61474851D01*
G37*
G36*
X114159973Y-61474851D02*
X112956619Y-60271497D01*
X113452329Y-59775787D01*
X114655683Y-60979141D01*
X114159973Y-61474851D01*
X114159973Y-61474851D01*
G37*
G36*
X113594217Y-62040608D02*
X112390863Y-60837254D01*
X112886573Y-60341544D01*
X114089927Y-61544898D01*
X113594217Y-62040608D01*
X113594217Y-62040608D01*
G37*
G36*
X113028460Y-62606364D02*
X111825106Y-61403010D01*
X112320816Y-60907300D01*
X113524170Y-62110654D01*
X113028460Y-62606364D01*
X113028460Y-62606364D01*
G37*
G36*
X112462704Y-63172120D02*
X111259350Y-61968766D01*
X111755060Y-61473056D01*
X112958414Y-62676410D01*
X112462704Y-63172120D01*
X112462704Y-63172120D01*
G37*
G36*
X111896948Y-63737876D02*
X110693594Y-62534522D01*
X111189304Y-62038812D01*
X112392658Y-63242166D01*
X111896948Y-63737876D01*
X111896948Y-63737876D01*
G37*
G36*
X111332988Y-64301836D02*
X110129634Y-63098482D01*
X110625344Y-62602772D01*
X111828698Y-63806126D01*
X111332988Y-64301836D01*
X111332988Y-64301836D01*
G37*
G36*
X110769028Y-64865796D02*
X109565674Y-63662442D01*
X110061384Y-63166732D01*
X111264738Y-64370086D01*
X110769028Y-64865796D01*
X110769028Y-64865796D01*
G37*
G36*
X110203272Y-65431552D02*
X108999918Y-64228198D01*
X109495628Y-63732488D01*
X110698982Y-64935842D01*
X110203272Y-65431552D01*
X110203272Y-65431552D01*
G37*
G36*
X109637516Y-65997308D02*
X108434162Y-64793954D01*
X108929872Y-64298244D01*
X110133226Y-65501598D01*
X109637516Y-65997308D01*
X109637516Y-65997308D01*
G37*
G36*
X109071760Y-66563065D02*
X107868406Y-65359711D01*
X108364116Y-64864001D01*
X109567470Y-66067355D01*
X109071760Y-66563065D01*
X109071760Y-66563065D01*
G37*
G36*
X108506003Y-67128821D02*
X107302649Y-65925467D01*
X107798359Y-65429757D01*
X109001713Y-66633111D01*
X108506003Y-67128821D01*
X108506003Y-67128821D01*
G37*
G36*
X84430359Y-69675621D02*
X83934649Y-69179911D01*
X85138003Y-67976557D01*
X85633713Y-68472267D01*
X84430359Y-69675621D01*
X84430359Y-69675621D01*
G37*
G36*
X84996116Y-70241377D02*
X84500406Y-69745667D01*
X85703760Y-68542313D01*
X86199470Y-69038023D01*
X84996116Y-70241377D01*
X84996116Y-70241377D01*
G37*
G36*
X85561872Y-70807134D02*
X85066162Y-70311424D01*
X86269516Y-69108070D01*
X86765226Y-69603780D01*
X85561872Y-70807134D01*
X85561872Y-70807134D01*
G37*
G36*
X86127628Y-71372890D02*
X85631918Y-70877180D01*
X86835272Y-69673826D01*
X87330982Y-70169536D01*
X86127628Y-71372890D01*
X86127628Y-71372890D01*
G37*
G36*
X86693384Y-71938646D02*
X86197674Y-71442936D01*
X87401028Y-70239582D01*
X87896738Y-70735292D01*
X86693384Y-71938646D01*
X86693384Y-71938646D01*
G37*
G36*
X87257344Y-72502606D02*
X86761634Y-72006896D01*
X87964988Y-70803542D01*
X88460698Y-71299252D01*
X87257344Y-72502606D01*
X87257344Y-72502606D01*
G37*
G36*
X87821304Y-73066566D02*
X87325594Y-72570856D01*
X88528948Y-71367502D01*
X89024658Y-71863212D01*
X87821304Y-73066566D01*
X87821304Y-73066566D01*
G37*
G36*
X88387060Y-73632322D02*
X87891350Y-73136612D01*
X89094704Y-71933258D01*
X89590414Y-72428968D01*
X88387060Y-73632322D01*
X88387060Y-73632322D01*
G37*
G36*
X88952816Y-74198078D02*
X88457106Y-73702368D01*
X89660460Y-72499014D01*
X90156170Y-72994724D01*
X88952816Y-74198078D01*
X88952816Y-74198078D01*
G37*
G36*
X89518573Y-74763834D02*
X89022863Y-74268124D01*
X90226217Y-73064770D01*
X90721927Y-73560480D01*
X89518573Y-74763834D01*
X89518573Y-74763834D01*
G37*
G36*
X90084329Y-75329591D02*
X89588619Y-74833881D01*
X90791973Y-73630527D01*
X91287683Y-74126237D01*
X90084329Y-75329591D01*
X90084329Y-75329591D01*
G37*
G36*
X93338773Y-75329591D02*
X92135419Y-74126237D01*
X92631129Y-73630527D01*
X93834483Y-74833881D01*
X93338773Y-75329591D01*
X93338773Y-75329591D01*
G37*
G36*
X93904529Y-74763834D02*
X92701175Y-73560480D01*
X93196885Y-73064770D01*
X94400239Y-74268124D01*
X93904529Y-74763834D01*
X93904529Y-74763834D01*
G37*
G36*
X94470286Y-74198078D02*
X93266932Y-72994724D01*
X93762642Y-72499014D01*
X94965996Y-73702368D01*
X94470286Y-74198078D01*
X94470286Y-74198078D01*
G37*
G36*
X95036042Y-73632322D02*
X93832688Y-72428968D01*
X94328398Y-71933258D01*
X95531752Y-73136612D01*
X95036042Y-73632322D01*
X95036042Y-73632322D01*
G37*
G36*
X95601798Y-73066566D02*
X94398444Y-71863212D01*
X94894154Y-71367502D01*
X96097508Y-72570856D01*
X95601798Y-73066566D01*
X95601798Y-73066566D01*
G37*
G36*
X96165758Y-72502606D02*
X94962404Y-71299252D01*
X95458114Y-70803542D01*
X96661468Y-72006896D01*
X96165758Y-72502606D01*
X96165758Y-72502606D01*
G37*
G36*
X96729718Y-71938646D02*
X95526364Y-70735292D01*
X96022074Y-70239582D01*
X97225428Y-71442936D01*
X96729718Y-71938646D01*
X96729718Y-71938646D01*
G37*
G36*
X97295474Y-71372890D02*
X96092120Y-70169536D01*
X96587830Y-69673826D01*
X97791184Y-70877180D01*
X97295474Y-71372890D01*
X97295474Y-71372890D01*
G37*
G36*
X97861230Y-70807134D02*
X96657876Y-69603780D01*
X97153586Y-69108070D01*
X98356940Y-70311424D01*
X97861230Y-70807134D01*
X97861230Y-70807134D01*
G37*
G36*
X98426986Y-70241377D02*
X97223632Y-69038023D01*
X97719342Y-68542313D01*
X98922696Y-69745667D01*
X98426986Y-70241377D01*
X98426986Y-70241377D01*
G37*
G36*
X98992743Y-69675621D02*
X97789389Y-68472267D01*
X98285099Y-67976557D01*
X99488453Y-69179911D01*
X98992743Y-69675621D01*
X98992743Y-69675621D01*
G37*
G36*
X98285099Y-67128821D02*
X97789389Y-66633111D01*
X98992743Y-65429757D01*
X99488453Y-65925467D01*
X98285099Y-67128821D01*
X98285099Y-67128821D01*
G37*
G36*
X97719342Y-66563065D02*
X97223632Y-66067355D01*
X98426986Y-64864001D01*
X98922696Y-65359711D01*
X97719342Y-66563065D01*
X97719342Y-66563065D01*
G37*
G36*
X97153586Y-65997308D02*
X96657876Y-65501598D01*
X97861230Y-64298244D01*
X98356940Y-64793954D01*
X97153586Y-65997308D01*
X97153586Y-65997308D01*
G37*
G36*
X96587830Y-65431552D02*
X96092120Y-64935842D01*
X97295474Y-63732488D01*
X97791184Y-64228198D01*
X96587830Y-65431552D01*
X96587830Y-65431552D01*
G37*
G36*
X96022074Y-64865796D02*
X95526364Y-64370086D01*
X96729718Y-63166732D01*
X97225428Y-63662442D01*
X96022074Y-64865796D01*
X96022074Y-64865796D01*
G37*
G36*
X95458114Y-64301836D02*
X94962404Y-63806126D01*
X96165758Y-62602772D01*
X96661468Y-63098482D01*
X95458114Y-64301836D01*
X95458114Y-64301836D01*
G37*
G36*
X94894154Y-63737876D02*
X94398444Y-63242166D01*
X95601798Y-62038812D01*
X96097508Y-62534522D01*
X94894154Y-63737876D01*
X94894154Y-63737876D01*
G37*
G36*
X94328398Y-63172120D02*
X93832688Y-62676410D01*
X95036042Y-61473056D01*
X95531752Y-61968766D01*
X94328398Y-63172120D01*
X94328398Y-63172120D01*
G37*
G36*
X93762642Y-62606364D02*
X93266932Y-62110654D01*
X94470286Y-60907300D01*
X94965996Y-61403010D01*
X93762642Y-62606364D01*
X93762642Y-62606364D01*
G37*
G36*
X93196885Y-62040608D02*
X92701175Y-61544898D01*
X93904529Y-60341544D01*
X94400239Y-60837254D01*
X93196885Y-62040608D01*
X93196885Y-62040608D01*
G37*
G36*
X92631129Y-61474851D02*
X92135419Y-60979141D01*
X93338773Y-59775787D01*
X93834483Y-60271497D01*
X92631129Y-61474851D01*
X92631129Y-61474851D01*
G37*
G36*
X90791973Y-61474851D02*
X89588619Y-60271497D01*
X90084329Y-59775787D01*
X91287683Y-60979141D01*
X90791973Y-61474851D01*
X90791973Y-61474851D01*
G37*
G36*
X90226217Y-62040608D02*
X89022863Y-60837254D01*
X89518573Y-60341544D01*
X90721927Y-61544898D01*
X90226217Y-62040608D01*
X90226217Y-62040608D01*
G37*
G36*
X89660460Y-62606364D02*
X88457106Y-61403010D01*
X88952816Y-60907300D01*
X90156170Y-62110654D01*
X89660460Y-62606364D01*
X89660460Y-62606364D01*
G37*
G36*
X89094704Y-63172120D02*
X87891350Y-61968766D01*
X88387060Y-61473056D01*
X89590414Y-62676410D01*
X89094704Y-63172120D01*
X89094704Y-63172120D01*
G37*
G36*
X88528948Y-63737876D02*
X87325594Y-62534522D01*
X87821304Y-62038812D01*
X89024658Y-63242166D01*
X88528948Y-63737876D01*
X88528948Y-63737876D01*
G37*
G36*
X87964988Y-64301836D02*
X86761634Y-63098482D01*
X87257344Y-62602772D01*
X88460698Y-63806126D01*
X87964988Y-64301836D01*
X87964988Y-64301836D01*
G37*
G36*
X87401028Y-64865796D02*
X86197674Y-63662442D01*
X86693384Y-63166732D01*
X87896738Y-64370086D01*
X87401028Y-64865796D01*
X87401028Y-64865796D01*
G37*
G36*
X86835272Y-65431552D02*
X85631918Y-64228198D01*
X86127628Y-63732488D01*
X87330982Y-64935842D01*
X86835272Y-65431552D01*
X86835272Y-65431552D01*
G37*
G36*
X86269516Y-65997308D02*
X85066162Y-64793954D01*
X85561872Y-64298244D01*
X86765226Y-65501598D01*
X86269516Y-65997308D01*
X86269516Y-65997308D01*
G37*
G36*
X85703760Y-66563065D02*
X84500406Y-65359711D01*
X84996116Y-64864001D01*
X86199470Y-66067355D01*
X85703760Y-66563065D01*
X85703760Y-66563065D01*
G37*
G36*
X85138003Y-67128821D02*
X83934649Y-65925467D01*
X84430359Y-65429757D01*
X85633713Y-66633111D01*
X85138003Y-67128821D01*
X85138003Y-67128821D01*
G37*
G36*
X225753243Y-128784367D02*
X225079229Y-129458381D01*
X224369859Y-128749011D01*
X225043873Y-128074997D01*
X225753243Y-128784367D01*
X225753243Y-128784367D01*
G37*
G36*
X226813903Y-129845027D02*
X226139889Y-130519041D01*
X225430519Y-129809671D01*
X226104533Y-129135657D01*
X226813903Y-129845027D01*
X226813903Y-129845027D01*
G37*
G36*
X202385243Y-128784367D02*
X201711229Y-129458381D01*
X201001859Y-128749011D01*
X201675873Y-128074997D01*
X202385243Y-128784367D01*
X202385243Y-128784367D01*
G37*
G36*
X203445903Y-129845027D02*
X202771889Y-130519041D01*
X202062519Y-129809671D01*
X202736533Y-129135657D01*
X203445903Y-129845027D01*
X203445903Y-129845027D01*
G37*
G36*
X179017243Y-128784367D02*
X178343229Y-129458381D01*
X177633859Y-128749011D01*
X178307873Y-128074997D01*
X179017243Y-128784367D01*
X179017243Y-128784367D01*
G37*
G36*
X180077903Y-129845027D02*
X179403889Y-130519041D01*
X178694519Y-129809671D01*
X179368533Y-129135657D01*
X180077903Y-129845027D01*
X180077903Y-129845027D01*
G37*
G36*
X155649243Y-128784367D02*
X154975229Y-129458381D01*
X154265859Y-128749011D01*
X154939873Y-128074997D01*
X155649243Y-128784367D01*
X155649243Y-128784367D01*
G37*
G36*
X156709903Y-129845027D02*
X156035889Y-130519041D01*
X155326519Y-129809671D01*
X156000533Y-129135657D01*
X156709903Y-129845027D01*
X156709903Y-129845027D01*
G37*
G36*
X132281243Y-128784367D02*
X131607229Y-129458381D01*
X130897859Y-128749011D01*
X131571873Y-128074997D01*
X132281243Y-128784367D01*
X132281243Y-128784367D01*
G37*
G36*
X133341903Y-129845027D02*
X132667889Y-130519041D01*
X131958519Y-129809671D01*
X132632533Y-129135657D01*
X133341903Y-129845027D01*
X133341903Y-129845027D01*
G37*
G36*
X108913243Y-128784367D02*
X108239229Y-129458381D01*
X107529859Y-128749011D01*
X108203873Y-128074997D01*
X108913243Y-128784367D01*
X108913243Y-128784367D01*
G37*
G36*
X109973903Y-129845027D02*
X109299889Y-130519041D01*
X108590519Y-129809671D01*
X109264533Y-129135657D01*
X109973903Y-129845027D01*
X109973903Y-129845027D01*
G37*
G36*
X85545243Y-128784367D02*
X84871229Y-129458381D01*
X84161859Y-128749011D01*
X84835873Y-128074997D01*
X85545243Y-128784367D01*
X85545243Y-128784367D01*
G37*
G36*
X86605903Y-129845027D02*
X85931889Y-130519041D01*
X85222519Y-129809671D01*
X85896533Y-129135657D01*
X86605903Y-129845027D01*
X86605903Y-129845027D01*
G37*
G36*
X62177243Y-128784367D02*
X61503229Y-129458381D01*
X60793859Y-128749011D01*
X61467873Y-128074997D01*
X62177243Y-128784367D01*
X62177243Y-128784367D01*
G37*
G36*
X63237903Y-129845027D02*
X62563889Y-130519041D01*
X61854519Y-129809671D01*
X62528533Y-129135657D01*
X63237903Y-129845027D01*
X63237903Y-129845027D01*
G37*
G36*
X225753243Y-72904367D02*
X225079229Y-73578381D01*
X224369859Y-72869011D01*
X225043873Y-72194997D01*
X225753243Y-72904367D01*
X225753243Y-72904367D01*
G37*
G36*
X226813903Y-73965027D02*
X226139889Y-74639041D01*
X225430519Y-73929671D01*
X226104533Y-73255657D01*
X226813903Y-73965027D01*
X226813903Y-73965027D01*
G37*
G36*
X202385243Y-72904367D02*
X201711229Y-73578381D01*
X201001859Y-72869011D01*
X201675873Y-72194997D01*
X202385243Y-72904367D01*
X202385243Y-72904367D01*
G37*
G36*
X203445903Y-73965027D02*
X202771889Y-74639041D01*
X202062519Y-73929671D01*
X202736533Y-73255657D01*
X203445903Y-73965027D01*
X203445903Y-73965027D01*
G37*
G36*
X179017243Y-72904367D02*
X178343229Y-73578381D01*
X177633859Y-72869011D01*
X178307873Y-72194997D01*
X179017243Y-72904367D01*
X179017243Y-72904367D01*
G37*
G36*
X180077903Y-73965027D02*
X179403889Y-74639041D01*
X178694519Y-73929671D01*
X179368533Y-73255657D01*
X180077903Y-73965027D01*
X180077903Y-73965027D01*
G37*
G36*
X155649243Y-72904367D02*
X154975229Y-73578381D01*
X154265859Y-72869011D01*
X154939873Y-72194997D01*
X155649243Y-72904367D01*
X155649243Y-72904367D01*
G37*
G36*
X156709903Y-73965027D02*
X156035889Y-74639041D01*
X155326519Y-73929671D01*
X156000533Y-73255657D01*
X156709903Y-73965027D01*
X156709903Y-73965027D01*
G37*
G36*
X132281243Y-72904367D02*
X131607229Y-73578381D01*
X130897859Y-72869011D01*
X131571873Y-72194997D01*
X132281243Y-72904367D01*
X132281243Y-72904367D01*
G37*
G36*
X133341903Y-73965027D02*
X132667889Y-74639041D01*
X131958519Y-73929671D01*
X132632533Y-73255657D01*
X133341903Y-73965027D01*
X133341903Y-73965027D01*
G37*
G36*
X108913243Y-72904367D02*
X108239229Y-73578381D01*
X107529859Y-72869011D01*
X108203873Y-72194997D01*
X108913243Y-72904367D01*
X108913243Y-72904367D01*
G37*
G36*
X109973903Y-73965027D02*
X109299889Y-74639041D01*
X108590519Y-73929671D01*
X109264533Y-73255657D01*
X109973903Y-73965027D01*
X109973903Y-73965027D01*
G37*
G36*
X85545243Y-72904367D02*
X84871229Y-73578381D01*
X84161859Y-72869011D01*
X84835873Y-72194997D01*
X85545243Y-72904367D01*
X85545243Y-72904367D01*
G37*
G36*
X86605903Y-73965027D02*
X85931889Y-74639041D01*
X85222519Y-73929671D01*
X85896533Y-73255657D01*
X86605903Y-73965027D01*
X86605903Y-73965027D01*
G37*
D12*
X241444551Y-142228689D03*
X218076551Y-142228689D03*
X194708551Y-142228689D03*
X171340551Y-142228689D03*
X147972551Y-142228689D03*
X124604551Y-142228689D03*
X101236551Y-142228689D03*
X77868551Y-142228689D03*
X241444551Y-86348689D03*
X218076551Y-86348689D03*
X194708551Y-86348689D03*
X171340551Y-86348689D03*
X147972551Y-86348689D03*
X124604551Y-86348689D03*
X101236551Y-86348689D03*
D18*
X236684551Y-139264689D03*
X237634551Y-139264689D03*
X238584551Y-139264689D03*
X238584551Y-137064689D03*
X236684551Y-137064689D03*
X213316551Y-139264689D03*
X214266551Y-139264689D03*
X215216551Y-139264689D03*
X215216551Y-137064689D03*
X213316551Y-137064689D03*
X189948551Y-139264689D03*
X190898551Y-139264689D03*
X191848551Y-139264689D03*
X191848551Y-137064689D03*
X189948551Y-137064689D03*
X166580551Y-139264689D03*
X167530551Y-139264689D03*
X168480551Y-139264689D03*
X168480551Y-137064689D03*
X166580551Y-137064689D03*
X143212551Y-139264689D03*
X144162551Y-139264689D03*
X145112551Y-139264689D03*
X145112551Y-137064689D03*
X143212551Y-137064689D03*
X119844551Y-139264689D03*
X120794551Y-139264689D03*
X121744551Y-139264689D03*
X121744551Y-137064689D03*
X119844551Y-137064689D03*
X96476551Y-139264689D03*
X97426551Y-139264689D03*
X98376551Y-139264689D03*
X98376551Y-137064689D03*
X96476551Y-137064689D03*
X73108551Y-139264689D03*
X74058551Y-139264689D03*
X75008551Y-139264689D03*
X75008551Y-137064689D03*
X73108551Y-137064689D03*
X236684551Y-83384689D03*
X237634551Y-83384689D03*
X238584551Y-83384689D03*
X238584551Y-81184689D03*
X236684551Y-81184689D03*
X213316551Y-83384689D03*
X214266551Y-83384689D03*
X215216551Y-83384689D03*
X215216551Y-81184689D03*
X213316551Y-81184689D03*
X189948551Y-83384689D03*
X190898551Y-83384689D03*
X191848551Y-83384689D03*
X191848551Y-81184689D03*
X189948551Y-81184689D03*
X166580551Y-83384689D03*
X167530551Y-83384689D03*
X168480551Y-83384689D03*
X168480551Y-81184689D03*
X166580551Y-81184689D03*
X143212551Y-83384689D03*
X144162551Y-83384689D03*
X145112551Y-83384689D03*
X145112551Y-81184689D03*
X143212551Y-81184689D03*
X119844551Y-83384689D03*
X120794551Y-83384689D03*
X121744551Y-83384689D03*
X121744551Y-81184689D03*
X119844551Y-81184689D03*
X96476551Y-83384689D03*
X97426551Y-83384689D03*
X98376551Y-83384689D03*
X98376551Y-81184689D03*
X96476551Y-81184689D03*
D19*
X233824551Y-136892149D03*
X233824551Y-139691229D03*
X210456551Y-136892149D03*
X210456551Y-139691229D03*
X187088551Y-136892149D03*
X187088551Y-139691229D03*
X163720551Y-136892149D03*
X163720551Y-139691229D03*
X140352551Y-136892149D03*
X140352551Y-139691229D03*
X116984551Y-136892149D03*
X116984551Y-139691229D03*
X93616551Y-136892149D03*
X93616551Y-139691229D03*
X70248551Y-136892149D03*
X70248551Y-139691229D03*
X233824551Y-81012149D03*
X233824551Y-83811229D03*
X210456551Y-81012149D03*
X210456551Y-83811229D03*
X187088551Y-81012149D03*
X187088551Y-83811229D03*
X163720551Y-81012149D03*
X163720551Y-83811229D03*
X140352551Y-81012149D03*
X140352551Y-83811229D03*
X116984551Y-81012149D03*
X116984551Y-83811229D03*
X93616551Y-81012149D03*
X93616551Y-83811229D03*
X241444551Y-136767689D03*
X241444551Y-139566769D03*
X218076551Y-136767689D03*
X218076551Y-139566769D03*
X194708551Y-136767689D03*
X194708551Y-139566769D03*
X171340551Y-136767689D03*
X171340551Y-139566769D03*
X147972551Y-136767689D03*
X147972551Y-139566769D03*
X124604551Y-136767689D03*
X124604551Y-139566769D03*
X101236551Y-136767689D03*
X101236551Y-139566769D03*
X77868551Y-136767689D03*
X77868551Y-139566769D03*
X241444551Y-80887689D03*
X241444551Y-83686769D03*
X218076551Y-80887689D03*
X218076551Y-83686769D03*
X194708551Y-80887689D03*
X194708551Y-83686769D03*
X171340551Y-80887689D03*
X171340551Y-83686769D03*
X147972551Y-80887689D03*
X147972551Y-83686769D03*
X124604551Y-80887689D03*
X124604551Y-83686769D03*
X101236551Y-80887689D03*
X101236551Y-83686769D03*
D20*
X235854011Y-142482689D03*
X239161091Y-142482689D03*
X212486011Y-142482689D03*
X215793091Y-142482689D03*
X189118011Y-142482689D03*
X192425091Y-142482689D03*
X165750011Y-142482689D03*
X169057091Y-142482689D03*
X142382011Y-142482689D03*
X145689091Y-142482689D03*
X119014011Y-142482689D03*
X122321091Y-142482689D03*
X95646011Y-142482689D03*
X98953091Y-142482689D03*
X72278011Y-142482689D03*
X75585091Y-142482689D03*
X235854011Y-86602689D03*
X239161091Y-86602689D03*
X212486011Y-86602689D03*
X215793091Y-86602689D03*
X189118011Y-86602689D03*
X192425091Y-86602689D03*
X165750011Y-86602689D03*
X169057091Y-86602689D03*
X142382011Y-86602689D03*
X145689091Y-86602689D03*
X119014011Y-86602689D03*
X122321091Y-86602689D03*
X95646011Y-86602689D03*
X98953091Y-86602689D03*
D11*
X225696551Y-135358689D03*
X225696551Y-133858689D03*
X202328551Y-135358689D03*
X202328551Y-133858689D03*
X178960551Y-135358689D03*
X178960551Y-133858689D03*
X155592551Y-135358689D03*
X155592551Y-133858689D03*
X132224551Y-135358689D03*
X132224551Y-133858689D03*
X108856551Y-135358689D03*
X108856551Y-133858689D03*
X85488551Y-135358689D03*
X85488551Y-133858689D03*
X62120551Y-135358689D03*
X62120551Y-133858689D03*
X225696551Y-79478689D03*
X225696551Y-77978689D03*
X202328551Y-79478689D03*
X202328551Y-77978689D03*
X178960551Y-79478689D03*
X178960551Y-77978689D03*
X155592551Y-79478689D03*
X155592551Y-77978689D03*
X132224551Y-79478689D03*
X132224551Y-77978689D03*
X108856551Y-79478689D03*
X108856551Y-77978689D03*
X85488551Y-79478689D03*
X85488551Y-77978689D03*
D21*
X225950551Y-139833469D03*
X225302851Y-139833469D03*
X227248491Y-139833469D03*
X226598251Y-139833469D03*
D22*
X221952591Y-142482689D03*
X229948511Y-142482689D03*
D23*
X224680551Y-142482689D03*
X227220551Y-142482689D03*
D21*
X224652611Y-139833469D03*
X202582551Y-139833469D03*
X201934851Y-139833469D03*
X203880491Y-139833469D03*
X203230251Y-139833469D03*
D22*
X198584591Y-142482689D03*
X206580511Y-142482689D03*
D23*
X201312551Y-142482689D03*
X203852551Y-142482689D03*
D21*
X201284611Y-139833469D03*
X179214551Y-139833469D03*
X178566851Y-139833469D03*
X180512491Y-139833469D03*
X179862251Y-139833469D03*
D22*
X175216591Y-142482689D03*
X183212511Y-142482689D03*
D23*
X177944551Y-142482689D03*
X180484551Y-142482689D03*
D21*
X177916611Y-139833469D03*
X155846551Y-139833469D03*
X155198851Y-139833469D03*
X157144491Y-139833469D03*
X156494251Y-139833469D03*
D22*
X151848591Y-142482689D03*
X159844511Y-142482689D03*
D23*
X154576551Y-142482689D03*
X157116551Y-142482689D03*
D21*
X154548611Y-139833469D03*
X132478551Y-139833469D03*
X131830851Y-139833469D03*
X133776491Y-139833469D03*
X133126251Y-139833469D03*
D22*
X128480591Y-142482689D03*
X136476511Y-142482689D03*
D23*
X131208551Y-142482689D03*
X133748551Y-142482689D03*
D21*
X131180611Y-139833469D03*
X109110551Y-139833469D03*
X108462851Y-139833469D03*
X110408491Y-139833469D03*
X109758251Y-139833469D03*
D22*
X105112591Y-142482689D03*
X113108511Y-142482689D03*
D23*
X107840551Y-142482689D03*
X110380551Y-142482689D03*
D21*
X107812611Y-139833469D03*
X85742551Y-139833469D03*
X85094851Y-139833469D03*
X87040491Y-139833469D03*
X86390251Y-139833469D03*
D22*
X81744591Y-142482689D03*
X89740511Y-142482689D03*
D23*
X84472551Y-142482689D03*
X87012551Y-142482689D03*
D21*
X84444611Y-139833469D03*
X62374551Y-139833469D03*
X61726851Y-139833469D03*
X63672491Y-139833469D03*
X63022251Y-139833469D03*
D22*
X58376591Y-142482689D03*
X66372511Y-142482689D03*
D23*
X61104551Y-142482689D03*
X63644551Y-142482689D03*
D21*
X61076611Y-139833469D03*
X225950551Y-83953469D03*
X225302851Y-83953469D03*
X227248491Y-83953469D03*
X226598251Y-83953469D03*
D22*
X221952591Y-86602689D03*
X229948511Y-86602689D03*
D23*
X224680551Y-86602689D03*
X227220551Y-86602689D03*
D21*
X224652611Y-83953469D03*
X202582551Y-83953469D03*
X201934851Y-83953469D03*
X203880491Y-83953469D03*
X203230251Y-83953469D03*
D22*
X198584591Y-86602689D03*
X206580511Y-86602689D03*
D23*
X201312551Y-86602689D03*
X203852551Y-86602689D03*
D21*
X201284611Y-83953469D03*
X179214551Y-83953469D03*
X178566851Y-83953469D03*
X180512491Y-83953469D03*
X179862251Y-83953469D03*
D22*
X175216591Y-86602689D03*
X183212511Y-86602689D03*
D23*
X177944551Y-86602689D03*
X180484551Y-86602689D03*
D21*
X177916611Y-83953469D03*
X155846551Y-83953469D03*
X155198851Y-83953469D03*
X157144491Y-83953469D03*
X156494251Y-83953469D03*
D22*
X151848591Y-86602689D03*
X159844511Y-86602689D03*
D23*
X154576551Y-86602689D03*
X157116551Y-86602689D03*
D21*
X154548611Y-83953469D03*
X132478551Y-83953469D03*
X131830851Y-83953469D03*
X133776491Y-83953469D03*
X133126251Y-83953469D03*
D22*
X128480591Y-86602689D03*
X136476511Y-86602689D03*
D23*
X131208551Y-86602689D03*
X133748551Y-86602689D03*
D21*
X131180611Y-83953469D03*
X109110551Y-83953469D03*
X108462851Y-83953469D03*
X110408491Y-83953469D03*
X109758251Y-83953469D03*
D22*
X105112591Y-86602689D03*
X113108511Y-86602689D03*
D23*
X107840551Y-86602689D03*
X110380551Y-86602689D03*
D21*
X107812611Y-83953469D03*
X85742551Y-83953469D03*
X85094851Y-83953469D03*
X87040491Y-83953469D03*
X86390251Y-83953469D03*
D22*
X81744591Y-86602689D03*
X89740511Y-86602689D03*
D23*
X84472551Y-86602689D03*
X87012551Y-86602689D03*
D21*
X84444611Y-83953469D03*
D24*
X229149551Y-137656689D03*
X230649551Y-137656689D03*
X205781551Y-137656689D03*
X207281551Y-137656689D03*
X182413551Y-137656689D03*
X183913551Y-137656689D03*
X159045551Y-137656689D03*
X160545551Y-137656689D03*
X135677551Y-137656689D03*
X137177551Y-137656689D03*
X112309551Y-137656689D03*
X113809551Y-137656689D03*
X88941551Y-137656689D03*
X90441551Y-137656689D03*
X65573551Y-137656689D03*
X67073551Y-137656689D03*
X229149551Y-81776689D03*
X230649551Y-81776689D03*
X205781551Y-81776689D03*
X207281551Y-81776689D03*
X182413551Y-81776689D03*
X183913551Y-81776689D03*
X159045551Y-81776689D03*
X160545551Y-81776689D03*
X135677551Y-81776689D03*
X137177551Y-81776689D03*
X112309551Y-81776689D03*
X113809551Y-81776689D03*
X88941551Y-81776689D03*
X90441551Y-81776689D03*
D11*
X223664551Y-135358689D03*
X223664551Y-133858689D03*
X200296551Y-135358689D03*
X200296551Y-133858689D03*
X176928551Y-135358689D03*
X176928551Y-133858689D03*
X153560551Y-135358689D03*
X153560551Y-133858689D03*
X130192551Y-135358689D03*
X130192551Y-133858689D03*
X106824551Y-135358689D03*
X106824551Y-133858689D03*
X83456551Y-135358689D03*
X83456551Y-133858689D03*
X60088551Y-135358689D03*
X60088551Y-133858689D03*
X223664551Y-79478689D03*
X223664551Y-77978689D03*
X200296551Y-79478689D03*
X200296551Y-77978689D03*
X176928551Y-79478689D03*
X176928551Y-77978689D03*
X153560551Y-79478689D03*
X153560551Y-77978689D03*
X130192551Y-79478689D03*
X130192551Y-77978689D03*
X106824551Y-79478689D03*
X106824551Y-77978689D03*
X83456551Y-79478689D03*
X83456551Y-77978689D03*
D25*
X35052000Y-134112000D03*
D26*
X29210000Y-155448000D03*
D12*
X77868551Y-86348689D03*
D21*
X62374551Y-83953469D03*
X61726851Y-83953469D03*
X63672491Y-83953469D03*
X63022251Y-83953469D03*
D22*
X58376591Y-86602689D03*
X66372511Y-86602689D03*
D23*
X61104551Y-86602689D03*
X63644551Y-86602689D03*
D21*
X61076611Y-83953469D03*
D17*
X65295551Y-58130689D03*
X65295551Y-56630689D03*
X65295551Y-54713689D03*
X65295551Y-53213689D03*
D24*
X65573551Y-81776689D03*
X67073551Y-81776689D03*
D10*
G36*
X62177243Y-72904367D02*
X61503229Y-73578381D01*
X60793859Y-72869011D01*
X61467873Y-72194997D01*
X62177243Y-72904367D01*
X62177243Y-72904367D01*
G37*
G36*
X63237903Y-73965027D02*
X62563889Y-74639041D01*
X61854519Y-73929671D01*
X62528533Y-73255657D01*
X63237903Y-73965027D01*
X63237903Y-73965027D01*
G37*
G36*
X59314519Y-71389671D02*
X59988533Y-70715657D01*
X60697903Y-71425027D01*
X60023889Y-72099041D01*
X59314519Y-71389671D01*
X59314519Y-71389671D01*
G37*
G36*
X58253859Y-70329011D02*
X58927873Y-69654997D01*
X59637243Y-70364367D01*
X58963229Y-71038381D01*
X58253859Y-70329011D01*
X58253859Y-70329011D01*
G37*
G36*
X59829899Y-63454327D02*
X60503913Y-64128341D01*
X59794543Y-64837711D01*
X59120529Y-64163697D01*
X59829899Y-63454327D01*
X59829899Y-63454327D01*
G37*
G36*
X60890559Y-62393667D02*
X61564573Y-63067681D01*
X60855203Y-63777051D01*
X60181189Y-63103037D01*
X60890559Y-62393667D01*
X60890559Y-62393667D01*
G37*
G36*
X77707189Y-71748341D02*
X78381203Y-71074327D01*
X79090573Y-71783697D01*
X78416559Y-72457711D01*
X77707189Y-71748341D01*
X77707189Y-71748341D01*
G37*
G36*
X76646529Y-70687681D02*
X77320543Y-70013667D01*
X78029913Y-70723037D01*
X77355899Y-71397051D01*
X76646529Y-70687681D01*
X76646529Y-70687681D01*
G37*
G36*
X71806913Y-77200037D02*
X71132899Y-77874051D01*
X70423529Y-77164681D01*
X71097543Y-76490667D01*
X71806913Y-77200037D01*
X71806913Y-77200037D01*
G37*
G36*
X72867573Y-78260697D02*
X72193559Y-78934711D01*
X71484189Y-78225341D01*
X72158203Y-77551327D01*
X72867573Y-78260697D01*
X72867573Y-78260697D01*
G37*
D20*
X72278011Y-86602689D03*
X75585091Y-86602689D03*
D11*
X63136551Y-54713689D03*
X63136551Y-53213689D03*
X65422551Y-51157689D03*
X65422551Y-49657689D03*
D15*
X78503551Y-47232689D03*
X78503551Y-49772689D03*
X78503551Y-52312689D03*
X78503551Y-54852689D03*
X78503551Y-57392689D03*
X78503551Y-59932689D03*
D13*
X63009551Y-44565689D03*
X66507131Y-44565689D03*
D14*
X70007251Y-44565689D03*
D13*
X73507371Y-44565689D03*
D15*
X58183551Y-59932689D03*
X58183551Y-57392689D03*
X58183551Y-54852689D03*
X58183551Y-52312689D03*
X58183551Y-49772689D03*
X58183551Y-47232689D03*
D10*
G36*
X61062359Y-69675621D02*
X60566649Y-69179911D01*
X61770003Y-67976557D01*
X62265713Y-68472267D01*
X61062359Y-69675621D01*
X61062359Y-69675621D01*
G37*
G36*
X61628116Y-70241377D02*
X61132406Y-69745667D01*
X62335760Y-68542313D01*
X62831470Y-69038023D01*
X61628116Y-70241377D01*
X61628116Y-70241377D01*
G37*
G36*
X62193872Y-70807134D02*
X61698162Y-70311424D01*
X62901516Y-69108070D01*
X63397226Y-69603780D01*
X62193872Y-70807134D01*
X62193872Y-70807134D01*
G37*
G36*
X62759628Y-71372890D02*
X62263918Y-70877180D01*
X63467272Y-69673826D01*
X63962982Y-70169536D01*
X62759628Y-71372890D01*
X62759628Y-71372890D01*
G37*
G36*
X63325384Y-71938646D02*
X62829674Y-71442936D01*
X64033028Y-70239582D01*
X64528738Y-70735292D01*
X63325384Y-71938646D01*
X63325384Y-71938646D01*
G37*
G36*
X63889344Y-72502606D02*
X63393634Y-72006896D01*
X64596988Y-70803542D01*
X65092698Y-71299252D01*
X63889344Y-72502606D01*
X63889344Y-72502606D01*
G37*
G36*
X64453304Y-73066566D02*
X63957594Y-72570856D01*
X65160948Y-71367502D01*
X65656658Y-71863212D01*
X64453304Y-73066566D01*
X64453304Y-73066566D01*
G37*
G36*
X65019060Y-73632322D02*
X64523350Y-73136612D01*
X65726704Y-71933258D01*
X66222414Y-72428968D01*
X65019060Y-73632322D01*
X65019060Y-73632322D01*
G37*
G36*
X65584816Y-74198078D02*
X65089106Y-73702368D01*
X66292460Y-72499014D01*
X66788170Y-72994724D01*
X65584816Y-74198078D01*
X65584816Y-74198078D01*
G37*
G36*
X66150573Y-74763834D02*
X65654863Y-74268124D01*
X66858217Y-73064770D01*
X67353927Y-73560480D01*
X66150573Y-74763834D01*
X66150573Y-74763834D01*
G37*
G36*
X66716329Y-75329591D02*
X66220619Y-74833881D01*
X67423973Y-73630527D01*
X67919683Y-74126237D01*
X66716329Y-75329591D01*
X66716329Y-75329591D01*
G37*
G36*
X69970773Y-75329591D02*
X68767419Y-74126237D01*
X69263129Y-73630527D01*
X70466483Y-74833881D01*
X69970773Y-75329591D01*
X69970773Y-75329591D01*
G37*
G36*
X70536529Y-74763834D02*
X69333175Y-73560480D01*
X69828885Y-73064770D01*
X71032239Y-74268124D01*
X70536529Y-74763834D01*
X70536529Y-74763834D01*
G37*
G36*
X71102286Y-74198078D02*
X69898932Y-72994724D01*
X70394642Y-72499014D01*
X71597996Y-73702368D01*
X71102286Y-74198078D01*
X71102286Y-74198078D01*
G37*
G36*
X71668042Y-73632322D02*
X70464688Y-72428968D01*
X70960398Y-71933258D01*
X72163752Y-73136612D01*
X71668042Y-73632322D01*
X71668042Y-73632322D01*
G37*
G36*
X72233798Y-73066566D02*
X71030444Y-71863212D01*
X71526154Y-71367502D01*
X72729508Y-72570856D01*
X72233798Y-73066566D01*
X72233798Y-73066566D01*
G37*
G36*
X72797758Y-72502606D02*
X71594404Y-71299252D01*
X72090114Y-70803542D01*
X73293468Y-72006896D01*
X72797758Y-72502606D01*
X72797758Y-72502606D01*
G37*
G36*
X73361718Y-71938646D02*
X72158364Y-70735292D01*
X72654074Y-70239582D01*
X73857428Y-71442936D01*
X73361718Y-71938646D01*
X73361718Y-71938646D01*
G37*
G36*
X73927474Y-71372890D02*
X72724120Y-70169536D01*
X73219830Y-69673826D01*
X74423184Y-70877180D01*
X73927474Y-71372890D01*
X73927474Y-71372890D01*
G37*
G36*
X74493230Y-70807134D02*
X73289876Y-69603780D01*
X73785586Y-69108070D01*
X74988940Y-70311424D01*
X74493230Y-70807134D01*
X74493230Y-70807134D01*
G37*
G36*
X75058986Y-70241377D02*
X73855632Y-69038023D01*
X74351342Y-68542313D01*
X75554696Y-69745667D01*
X75058986Y-70241377D01*
X75058986Y-70241377D01*
G37*
G36*
X75624743Y-69675621D02*
X74421389Y-68472267D01*
X74917099Y-67976557D01*
X76120453Y-69179911D01*
X75624743Y-69675621D01*
X75624743Y-69675621D01*
G37*
G36*
X74917099Y-67128821D02*
X74421389Y-66633111D01*
X75624743Y-65429757D01*
X76120453Y-65925467D01*
X74917099Y-67128821D01*
X74917099Y-67128821D01*
G37*
G36*
X74351342Y-66563065D02*
X73855632Y-66067355D01*
X75058986Y-64864001D01*
X75554696Y-65359711D01*
X74351342Y-66563065D01*
X74351342Y-66563065D01*
G37*
G36*
X73785586Y-65997308D02*
X73289876Y-65501598D01*
X74493230Y-64298244D01*
X74988940Y-64793954D01*
X73785586Y-65997308D01*
X73785586Y-65997308D01*
G37*
G36*
X73219830Y-65431552D02*
X72724120Y-64935842D01*
X73927474Y-63732488D01*
X74423184Y-64228198D01*
X73219830Y-65431552D01*
X73219830Y-65431552D01*
G37*
G36*
X72654074Y-64865796D02*
X72158364Y-64370086D01*
X73361718Y-63166732D01*
X73857428Y-63662442D01*
X72654074Y-64865796D01*
X72654074Y-64865796D01*
G37*
G36*
X72090114Y-64301836D02*
X71594404Y-63806126D01*
X72797758Y-62602772D01*
X73293468Y-63098482D01*
X72090114Y-64301836D01*
X72090114Y-64301836D01*
G37*
G36*
X71526154Y-63737876D02*
X71030444Y-63242166D01*
X72233798Y-62038812D01*
X72729508Y-62534522D01*
X71526154Y-63737876D01*
X71526154Y-63737876D01*
G37*
G36*
X70960398Y-63172120D02*
X70464688Y-62676410D01*
X71668042Y-61473056D01*
X72163752Y-61968766D01*
X70960398Y-63172120D01*
X70960398Y-63172120D01*
G37*
G36*
X70394642Y-62606364D02*
X69898932Y-62110654D01*
X71102286Y-60907300D01*
X71597996Y-61403010D01*
X70394642Y-62606364D01*
X70394642Y-62606364D01*
G37*
G36*
X69828885Y-62040608D02*
X69333175Y-61544898D01*
X70536529Y-60341544D01*
X71032239Y-60837254D01*
X69828885Y-62040608D01*
X69828885Y-62040608D01*
G37*
G36*
X69263129Y-61474851D02*
X68767419Y-60979141D01*
X69970773Y-59775787D01*
X70466483Y-60271497D01*
X69263129Y-61474851D01*
X69263129Y-61474851D01*
G37*
G36*
X67423973Y-61474851D02*
X66220619Y-60271497D01*
X66716329Y-59775787D01*
X67919683Y-60979141D01*
X67423973Y-61474851D01*
X67423973Y-61474851D01*
G37*
G36*
X66858217Y-62040608D02*
X65654863Y-60837254D01*
X66150573Y-60341544D01*
X67353927Y-61544898D01*
X66858217Y-62040608D01*
X66858217Y-62040608D01*
G37*
G36*
X66292460Y-62606364D02*
X65089106Y-61403010D01*
X65584816Y-60907300D01*
X66788170Y-62110654D01*
X66292460Y-62606364D01*
X66292460Y-62606364D01*
G37*
G36*
X65726704Y-63172120D02*
X64523350Y-61968766D01*
X65019060Y-61473056D01*
X66222414Y-62676410D01*
X65726704Y-63172120D01*
X65726704Y-63172120D01*
G37*
G36*
X65160948Y-63737876D02*
X63957594Y-62534522D01*
X64453304Y-62038812D01*
X65656658Y-63242166D01*
X65160948Y-63737876D01*
X65160948Y-63737876D01*
G37*
G36*
X64596988Y-64301836D02*
X63393634Y-63098482D01*
X63889344Y-62602772D01*
X65092698Y-63806126D01*
X64596988Y-64301836D01*
X64596988Y-64301836D01*
G37*
G36*
X64033028Y-64865796D02*
X62829674Y-63662442D01*
X63325384Y-63166732D01*
X64528738Y-64370086D01*
X64033028Y-64865796D01*
X64033028Y-64865796D01*
G37*
G36*
X63467272Y-65431552D02*
X62263918Y-64228198D01*
X62759628Y-63732488D01*
X63962982Y-64935842D01*
X63467272Y-65431552D01*
X63467272Y-65431552D01*
G37*
G36*
X62901516Y-65997308D02*
X61698162Y-64793954D01*
X62193872Y-64298244D01*
X63397226Y-65501598D01*
X62901516Y-65997308D01*
X62901516Y-65997308D01*
G37*
G36*
X62335760Y-66563065D02*
X61132406Y-65359711D01*
X61628116Y-64864001D01*
X62831470Y-66067355D01*
X62335760Y-66563065D01*
X62335760Y-66563065D01*
G37*
G36*
X61770003Y-67128821D02*
X60566649Y-65925467D01*
X61062359Y-65429757D01*
X62265713Y-66633111D01*
X61770003Y-67128821D01*
X61770003Y-67128821D01*
G37*
D11*
X62120551Y-79478689D03*
X62120551Y-77978689D03*
X60088551Y-79478689D03*
X60088551Y-77978689D03*
D10*
G36*
X64888562Y-77069780D02*
X65668642Y-76289700D01*
X66165880Y-76786938D01*
X65385800Y-77567018D01*
X64888562Y-77069780D01*
X64888562Y-77069780D01*
G37*
G36*
X65949222Y-78130440D02*
X66729302Y-77350360D01*
X67226540Y-77847598D01*
X66446460Y-78627678D01*
X65949222Y-78130440D01*
X65949222Y-78130440D01*
G37*
D16*
X67802551Y-52058689D03*
X67802551Y-53328689D03*
X67802551Y-54598689D03*
X67802551Y-55868689D03*
X73202551Y-55868689D03*
X73202551Y-54598689D03*
X73202551Y-53328689D03*
X73202551Y-52058689D03*
D18*
X73108551Y-83384689D03*
X74058551Y-83384689D03*
X75008551Y-83384689D03*
X75008551Y-81184689D03*
X73108551Y-81184689D03*
D10*
G36*
X75599139Y-71214097D02*
X76520513Y-72135471D01*
X75033383Y-73622601D01*
X74112009Y-72701227D01*
X75599139Y-71214097D01*
X75599139Y-71214097D01*
G37*
G36*
X72984089Y-73829147D02*
X73905463Y-74750521D01*
X72418333Y-76237651D01*
X71496959Y-75316277D01*
X72984089Y-73829147D01*
X72984089Y-73829147D01*
G37*
G36*
X74607719Y-75452777D02*
X75529093Y-76374151D01*
X74041963Y-77861281D01*
X73120589Y-76939907D01*
X74607719Y-75452777D01*
X74607719Y-75452777D01*
G37*
G36*
X77222769Y-72837727D02*
X78144143Y-73759101D01*
X76657013Y-75246231D01*
X75735639Y-74324857D01*
X77222769Y-72837727D01*
X77222769Y-72837727D01*
G37*
D19*
X77868551Y-80887689D03*
X77868551Y-83686769D03*
X70248551Y-81012149D03*
X70248551Y-83811229D03*
D12*
X58945551Y-41136689D03*
D26*
X269494000Y-35814000D03*
D25*
X264668000Y-48514000D03*
M02*
